<?xml version="1.0" encoding="utf-8"?>
<!-- Generator: Adobe Illustrator 20.1.0, SVG Export Plug-In . SVG Version: 6.00 Build 0)  -->
<svg version="1.1" id="Layer_3" xmlns="http://www.w3.org/2000/svg" xmlns:xlink="http://www.w3.org/1999/xlink" x="0px" y="0px"
	 viewBox="0 0 591 779" style="enable-background:new 0 0 591 779;" xml:space="preserve">
<style type="text/css">
	.st0{fill:#2303CF;}
	.st1{filter:url(#Adobe_OpacityMaskFilter);}
	.st2{fill:#FFFFFF;}
	.st3{mask:url(#mask-2_1_);fill:#2303CF;}
</style>
<g id="Page-2_2_">
	<g id="_x31_">
		<g id="Jerry" transform="translate(9.000000, 6.000000)">
			<path id="Fill-1_2_" class="st0" d="M125.7,584.7c0-0.7,0.1-1.1,0-1.4c-2.3-4.2-0.7-8.9-1.9-13.4c-1-3.9-2.2-8.3-1.4-12.6
				c0.2-1.4-0.9-1.2-1.8-1.3c-1.2-0.1-1.5,0.5-1.5,1.6c0,3.9,1.9,7.6,1.1,11.6c-0.5,3,0.7,5.9,1.6,8.6c0.7,2.2,0.3,4.9,2.2,6.8
				c0.4,0.4,0.8,0.8,1.2,1.2C125.3,585.3,125.6,584.9,125.7,584.7 M47.5,417.7c-0.1,0-0.3,0.1-0.4,0.1c0.5,1.6,1,3.3,1.5,4.9
				c0.4,1.3,0.8,2.6,1.1,3.9c1.4,7.2,4.5,13.6,8.6,19.5c0.2,0.3,0.5,0.5,0.8,0.8c0.2-0.5,0.6-1,0.5-1.4c-1.1-4.6-2.5-9.1-2.2-13.9
				c0-0.2,0-0.4,0-0.5c-1.4-6.7-1.4-6.7-0.1-12.3c0.1-0.4-0.5-1.4-0.9-1.5c-1.1-0.1-1.9-0.4-2.9-1c-0.9-0.6-2.4,0-3.3-1.2
				c-0.4-0.6-1.5-0.7-2.2-1c-0.2,0.7-0.4,1.3-0.5,2C47.4,416.6,47.5,417.2,47.5,417.7 M55.8,413.1c1.9,0.3,2.4-0.7,3.1-2.2
				c0.9-2,2.2-3.9,3.4-5.7c0.6-0.9,0.4-0.9-0.5-1.2c-2.2-0.8-4.5-1.5-6.5-2.7c-4.8-2.8-9.7-5.7-13.4-10c-0.1-0.2-0.5-0.2-0.8-0.2
				c-0.1,0.3-0.3,0.7-0.3,1c0.3,1,0.9,1.9,1,2.8c0.8,7.5,5.3,12.6,11.2,16.8C53.9,412.3,54.9,412.6,55.8,413.1 M470.7,582.4
				c-0.4,3.3-0.8,6.6-1.4,10c-0.1,0.4-0.9,1-1.4,1.1c-0.8,0.1-1.9,0.3-1.9-1.1c0-1.3,0.1-2.6,0-3.8c-0.1-1-0.5-2-0.8-2.9
				c-0.1-0.3-0.5-0.5-0.8-0.8c-0.2,0.3-0.5,0.5-0.6,0.8c-0.4,2.1-0.1,4.1-0.7,6.3c-0.8,2.7-1,5.8-1.4,8.8c-0.2,1.8,0.3,2,2.1,1.3
				c3.4-1.5,5.6-4.5,8-7.1c2.7-2.8,8-15.1,8.5-19c0.2-1.4,0.4-3-1.2-3.9c-5.5-3-8.7-7.4-8.7-13.9c0-0.2-1.3-0.8-1.6-0.6
				c-0.7,0.5-1.5,1.3-1.6,2c-0.5,3.7-0.8,7.4-1.2,11.1c-0.1,0.9,0.4,2.2-0.1,2.7c-2.1,2.3-0.5,4.9-1,7.3c-0.1,0.3,0.3,0.6,0.4,0.9
				c0.4-0.3,1-0.6,1.1-1c0.3-1.6,0.4-3.1,0.7-4.7c0.1-0.3,0.7-0.6,1.1-0.8c0.2-0.1,0.8,0.2,0.9,0.4
				C470.5,577.4,470.8,579.9,470.7,582.4 M50.8,518.9c-0.5,4.3,2,8.3,3.5,12.5c1.4,3.8,3.4,7.4,5.4,11C63.4,549,68.2,555,74,560
				c2.1,1.8,4.8,2.5,7.3,3.7c0.3,0.2,1.2-0.2,1.3-0.5c0.2-0.3-0.1-1.3-0.3-1.4c-4.2-1.6-5.7-5.5-7.7-8.9c-0.5-0.9-0.4-2.1-0.9-2.9
				c-0.4-0.8-1.5-1.2-1.9-2c-0.8-1.6-1.6,1-2.4-0.1c-1.7-2.3-4-3.9-5.7-6.4c-4-5.9-7.3-12-8.7-19c-3.1-3,0.8-5.9,0.3-9
				c-0.1-0.7,2-1.8,3.2-2.5c0.4-0.2,1.3,0.2,1.9,0.5c0.1,0.1,0,1.2-0.3,1.4c-3.4,2.7-2.8,5.8-1.3,9.1c0.3,0.6,0.3,1.3,0.5,2
				c0.1,0.4,0.4,0.8,0.6,1.2c0.1-0.3,0.4-0.6,0.4-0.9c0.9-5.5,3.6-10.4,7.7-13.8c2-1.7,4.1-3.3,6.1-5.1c1.8-1.5,2.1-3.1,1.3-5.2
				c-0.7-1.9-1.5-3.8-2.3-5.6c-0.7-1.5-1.5-3-2.3-4.4c-1,1-2.1,2.1-3.1,3.1c-0.6,0.6-1.3,1.3-1.9,1.9c-4.4,4.6-9.3,8.8-12.6,14.6
				C51.9,512.5,50.7,515.2,50.8,518.9 M122.2,594.7c-0.4-3.8-2.1-7.5-3.7-11.1c-3-6.7-3-13.8-2.7-20.9c0.1-1.4,1.1-2.9,1.1-4.5
				c0-1.7-0.7-2.6-2.1-3.4c-3-1.5-6.3-2.5-9.2-4.3c-3.2-2-6-4.1-7.9-7.5c-2-3.6-5.2-6.7-6.8-10.4c-1.5-3.8-4.1-7-5.1-11.1
				c-0.4-1.5-2-2.6-2.3-4.6c-0.3-1.4-1.5-3-2.3-4.5c-0.8-1.5-1.7-2.9-2.2-4.6c-0.2-0.7-1-2-2.3-0.5c-1.4,1.7-3.9,2.2-5.1,4.4
				c-1,1.8-2.8,3.2-4.1,4.9c-3,4.2-2.7,12.1,0.6,16.4c0.2,0.3,0.5,0.5,0.8,0.8c0.2-0.4,0.6-0.9,0.6-1.3c0.1-1.6,0.1-3.3,0-5
				c-0.4-5.1,2.2-8.7,5.7-12c0.3-0.3,1.3-0.5,1.4-0.4c0.3,0.6,0.6,1.2,0.6,1.9c0,0.5-0.2,1.1-0.6,1.4c-2.5,2.3-2.9,5.1-2.7,8.3
				c0.1,2.4,0.1,4.8,0,7.2c-0.1,2.1,1.2,3.9,1.3,6.1c0,2,1.4,4.2,2.7,6c3.8,5.1,6.9,10.7,9.8,16.3c1.4,2.7,1.8,5.5,2.6,8.3
				c1,3.3-0.5,6.6-2.1,9.5c-0.7,1.2-2.1,2.2-3.4,2.9c-2.7,1.4-5.4,3.4-8.8,2.7c-0.4-0.1-0.9-0.6-0.9-0.9c0-0.4,0.5-1.2,0.7-1.2
				c3.6,0.9,4.7-3.3,7.8-3.7c1.7-0.2,0.9-2.7,1.7-3.6c1.6-1.7,0.5-2.6-0.6-3.5c-1.4-1.2-0.6-2.7-0.8-4.1c-0.3-2.2-1.2-2.9-3.4-2.1
				c-1.3,0.5-2.1,0.3-3.4-0.3c-6.4-3-11-7.7-15.5-13.1c-5.2-6.3-8.3-13.4-11.7-20.5c-2-4.1-3.1-8.6-4.4-13c-0.4-1.3-0.1-2.9,0.3-4.2
				c1.7-4.7,3.3-9.5,7.3-13c0.7-0.6,0.9-1.9,1.6-2.6c3.9-4.1,8.5-7.6,13.1-10.9c2.2-1.5,2.4-2.3,2-5c-0.5-3.3-1.8-6.4-1.4-9.9
				c0.5-4.3-0.6-8.3-2.9-12c-0.6-1-1.4-2.2-1.3-3.3c0.1-2.1-1.4-3.2-2.6-3.8c-4.9-2.7-7.5-7.2-10.4-11.6c-3.8-5.9-5.5-12.4-7-19.2
				c-1-4.5-1.3-9-2.1-13.4c-0.3-1.8-0.6-3.8-1.5-5.4c-2.5-4.8-3.8-10.4-4.2-14.8c-0.2-2,2.6-3.3,0.7-5.4c-1.1-1.2-1.8-2.9-2.7-4.4
				c-4.9-7.5-7.5-16-10.5-24.3c-0.5-1.3-0.2-2.8-0.5-4.2c-0.2-1.2-0.6-2.3-1.1-3.4c-1.7-3.6,0-8.1-3.1-11.4c0.3-3.8-2-7.2-1.2-11
				c0.1-0.3,0.8-0.6,1.3-0.7c0.3,0,0.9,0.3,0.8,0.5c-0.3,2.3,1.3,3.9,2,5.8c0.8,1.9,1.6,3.7,2.4,5.6c0.9,2,1.2,4.3,2.3,6.2
				c4.2,7.2,8.8,14.1,15.1,19.6c2.6,2.3,5.4,4.7,8.5,6.1c3.2,1.5,6.1,4.2,10.1,3.5c3.5-0.6,7.1,0.7,10.7-0.8c2-0.8,4.6-0.2,6.9-0.1
				c0.1,0,0.3,0.6,0.3,0.9c0,0.3-0.2,0.7-0.4,0.9c-0.3,0.2-0.7,0.1-1,0.2c-1,0.2-1.9,0.4-2.8,0.6c1,0.2,2.2,0.6,3.1,0.4
				c2.6-0.6,4.8,1.2,7.3,1.2c3-0.1,3.9-0.7,3.8-3.7c-0.3-7.3,2.4-13.9,5-20.5c3.7-9.3,8.2-18.3,12.6-27.3c1.4-2.9,2.9-5.7,4-8.8
				c1-2.9,2.4-5.6,3-8.7c0.1-0.5,0.8-0.8,0.8-1.3c0.4-3.7,0.7-7.4,1.2-11.1c0.3-2.4,0.1-5.2,1.3-7.1c1.1-1.8,0.8-3.4,0.9-5.2
				c0.2-3.3,2.4-6,5.7-6.4c0.1,0,0.6,0.7,0.5,0.8c-0.6,1.1-1.3,2-1.9,3.1c-0.8,1.3-2.3,3.1-2,4c1.1,2.8-0.5,5.3-0.1,8
				c0.1,0.6,0.5,1.1,0.8,1.7c0.5-0.4,0.9-0.8,1.4-1.1c0.5-0.4,1-0.7,1.5-1.1c0.2,0.8,0.9,1.9,0.7,2.3c-2.1,3.3-2.4,7.1-3.5,10.7
				c-0.8,2.6-1.5,5.3-2,8c-1.2,5.9-0.2,11.9-1.2,17.7c-1,5.6-0.2,11.2-1,16.6c-1.2,8.8-3.8,17.2-10.2,23.8c-0.8,0.8-1.2,0.8-2.4,0.4
				c-2-0.6-1.5-1.6-1.6-2.7c-0.1-1.3,0.1-2,1.7-2c0.9,0,2.2-0.8,2.6-1.5c1.9-4.4,3.8-8.7,4.7-13.5c1-5.6,0.7-11.1,1-16.6
				c0.2-3-0.9-6.1,1-8.9c0.1-0.1-0.4-1-0.8-1.1c-0.4-0.1-1.3,0.3-1.3,0.5c-0.9,5.2-4.3,9.3-6.3,13.9c-1.7,3.9-3,8-5.2,11.6
				c-2.2,3.7-2.2,8.3-5,11.7c0.4,5.6-3.3,11.1-0.2,16.7c0.3,0.6,0.1,1.4,0,2.2c-0.3,5.5,2.4,9.9,4.7,14.6c0.2,0.3,0.6,0.5,0.8,0.8
				c0.5,0.9-0.9,3,1.4,2.7c1.6-0.2,1.7-1.8,2.1-3.3c2-7.1,5.2-13.7,8.8-20c3.4-6.1,7.1-12.1,10.2-18.4c3-6.3,5.3-12.8,5.1-19.9
				c-0.1-2.2-0.1-4.4,0-6.6c0.1-3.6-1.2-6.8-1.9-10.2c-0.4-1.9,0.2-4.1-0.4-5.9c-1-3-0.1-5.5,1.2-8c0.9-1.8,1.9-3.5,4.3-3.4
				c0.4,0,0.9,0.4,1.2,0.7c0.2,0.2,0,0.7-0.1,1c0,0.2-0.2,0.3-0.4,0.4c-4,3.1-3.4,7.2-2,11.2c0.7,2,0.1,4,1.2,6.1
				c1.6,3.2,2,18.6,1.3,22c-0.7,3.2-1.6,6.3-2.8,9.3c-1.6,3.8-3.3,7.4-5.3,11.1c-1.9,3.5-3.8,6.9-5.9,10.2c-2,3.3-3.7,6.9-5.6,10.3
				c-1.8,3.4-3.2,7.2-4.3,10.8c-0.9,2.9-2.2,5.9-2.4,8.9c-0.3,5.5-0.5,11.1,0.1,16.5c0.3,2.9,2.2,5.7,4,8.2c1.5,2.2,3.8,4,5.8,5.9
				c0.3,0.3,1,0.6,1.4,0.5c0.3-0.1,0.8-0.8,0.8-1.1c-0.2-1.7,0.8-3,1.1-4.5c0.4-2,2.4-4,0.2-6.3c-0.5-0.5,0.7-2.5,1-3.8
				c0.4-2.2,0.9-4.5,1.1-6.7c0.2-2.3,1.2-4.3,2-6.4c0.8-2.1,1.3-4.2,2-6.3c1.7-5,3.9-9.7,6.5-14.4c1.9-3.5,3.5-7.3,5-11.1
				c1.5-3.8,3-7.6,4.5-11.4c1.8-4.7,2.2-9.7,4.2-14.2c0.1-0.3,0.1-0.7,0.1-1.1c0.4-4.4,0.7-8.9,1.1-13.3c0.2-1.9,0.7-3.7,1.1-5.6
				c0.6-3.1-0.7-5.9-1.1-8.9c-0.4-3,1.1-6.2-1.1-8.9c0.7-4.9-2.2-9.2-2.2-14c0-0.5-0.1-1.1-0.3-1.5c-1.9-4.2-1.8-8.8-3.2-13
				c-1.3-3.9-0.6-7.9-1.8-11.9c-1.1-3.7-0.4-8-0.2-12c0.2-4.1,0.7-8.1,1-12.2c0.1-1.9-0.5-2.3-2.2-1.2c-0.7,0.4-1.6,0.5-2.5,0.6
				c-2.1,0.3-4.2-0.7-6.1,1.3c-1.4,1.5-3.6,1.9-5.3,3c-6.2,4.1-11.3,9.4-16.5,14.6c-3.1,3-10.2,7.6-14.9,9.3
				c-1.1,0.4-2.5,0.3-3.7,0.5c-0.2,0-0.5,0.5-0.5,0.8c0,0.3,0,0.9,0.2,1c3.5,1.5,7.1,3.3,11,2.5c2.8-0.6,5.6-2.1,6.8-4.5
				c1.4-2.9,3.9-3.9,6-5.7c4.2-3.5,9.7-4.1,14.5-6.2c0.9-0.4,2.2-0.1,3.3,0c0.4,0,0.8,0.5,1.1,0.8c-0.4,0.5-0.7,1.2-1.2,1.3
				c-1,0.3-2.3,0-3.1,0.5c-4.7,2.9-10.2,4.3-14.1,8.5c-0.9,1-1.6,1.7-0.4,2.9c0.1,0.1-0.6,1-1.1,1.3c-1.4,1-3,1.7-4.3,2.8
				c-1.8,1.5-3.7,2.2-6,2.9c-1.9,0.6-4.1,0.8-5.7,2.1c-1.6,1.3-3.2,2.1-5.2,2.1c-0.2,0-0.5,0.4-0.8,0.6c0.3,0.2,0.6,0.4,0.9,0.5
				c1.9,0.9,3.5,1.3,5.9,0.5c4.9-1.5,9.8-2.8,14.6-4.8c0.6-0.3,1.4-0.2,2.1-0.1c0.3,0,0.7,0.5,0.7,0.7c0,0.5-0.4,1.4-0.5,1.4
				c-2.7-0.7-3.4,3.3-6,2.7c-1.6,2.3-4.3,2-6.4,3.1c-3.4,1.6-6.7,3-10.9,1.1c-2.9-1.3-6.6-0.9-9.9-1.3c-2.8-0.3-5.8-0.2-8.3-1.2
				c-3.5-1.3-7.3-1.5-10.9-3c-3.5-1.5-6.9-2.9-10-5.2c-0.4-0.3-1.2-0.1-1.9-0.2c0,0.5-0.3,1.1,0,1.5c1.1,1.6,2,3.4,3.5,4.6
				c6.3,4.9,13.1,8.4,21.1,10.3c7.8,1.8,15.4,4.6,21.9,9.6c2.1,1.6,4.1,3.3,6.1,5.1c0.1,0.1-0.5,1.6-0.7,1.6
				c-2.1-0.2-4.4-0.2-6.1-1.2c-1.6-0.8-3-1-4.6-1c-3.7,0-7.4,0.1-11,0c-4.6-0.2-9.3-0.5-13.9-1.1c-2.1-0.3-4.2-1.2-6.2-2.2
				c-5.3-2.4-11.1-3.7-15.5-7.7c-1.9,0.4-1-1.5-1.8-2.1c-0.3-0.2-0.4-0.5-0.6-0.8c0.5-0.1,1-0.5,1.5-0.4c0.8,0.2,1.5,0.7,2.3,1
				c6.5,2.5,13,4.9,19.5,7.4c0.3,0.1,0.6,0.3,1,0.3c6.1,0.4,12.2,0.8,18.3,1.1c0.5,0,1-0.3,1.4-0.5c-0.5-0.2-0.9-0.4-1.4-0.6
				c-3.3-1.5-6.8-2.2-10.2-3.4c-5.1-1.8-10.4-2.9-15.2-5.9c-3.9-2.4-7.1-5.3-10.2-8.4c-3.4-3.5-3.4-7-1.6-11.1
				c0.6-1.2,1.3-1.2,2.2,0c0.4,0.5,0.8,1.3,1.2,1.3c2.5-0.4,4.3,0.8,6.3,2.2c1.9,1.3,4.5,1.6,6.7,2.3c0.3,0.1,0.6-0.2,1-0.3
				c-0.1-0.3-0.2-0.6-0.3-0.8c-0.9-0.9-1.7-2-2.7-2.7c-1.5-1.1-1.1-2.6-1.1-4c0-0.4,0.6-0.9,0.9-1c0.4,0,1.1,0.3,1.2,0.7
				c1.5,3.6,4.7,4.6,8,6c3.1,1.3,6.2,2.1,9.6,2.2c3.1,0,8.7-0.3,10.7-1.4c0.2-0.1,0.4-0.6,0.4-0.9c0-0.3-0.2-0.8-0.4-0.9
				c-7-2.2-13.2-6.3-20-8.9c-4-1.5-7-4.4-10.5-6.4c-1.3-0.8-2.3-1.5-3.9-1.4c-0.6,0-1.5-0.3-1.8-0.8c-0.5-0.9-0.6-1.9-0.9-2.9
				c1-0.1,2-0.4,2.9-0.4c0.4,0,0.7,0.8,1.2,1.1c0.3,0.2,0.8,0.4,1.2,0.5c0.1-0.5,0.4-1.2,0.2-1.5c-1.4-2.3-1-4.8-1-7.3
				c0-0.3,0.4-0.7,0.6-0.7c0.5,0,1.4,0.2,1.4,0.4c0.4,2.2,2.2,3.6,3.1,5.4c2.5,5,7.3,6.8,11.6,9.1c1.4,0.8,3.5,0.3,5.3,0.5
				c2.9,0.3,7.6-0.3,10.3-0.9c5.4-1.1,9.2-4.7,13.3-7.9c4.8-3.7,9.1-8,14-11.6c3.4-2.5,7.3-4.5,11.3-5.8c2.9-0.9,6.4-0.9,9.5,0.2
				c2.8,1,3.4,0.6,4.4-1.9c2.7-6.9,5.7-13.7,11-19.1c0.7-0.7,0.9-1.9,1.6-2.6c0.4-0.4,1.5-0.3,2.1,0c0.4,0.2,0.6,1.2,0.4,1.7
				c-0.3,1-0.8,2-1.5,2.6c-3.3,2.6-4.8,6.4-6.6,10c-1.7,3.5-3.3,7-3.9,11.1c-0.6,4.1-1.8,8.1-2,12.3c-0.2,4.2-0.6,8.5,0.2,12.6
				c0.4,2.4,0.7,4.8,0.9,7.3c0.2,2.2,0.6,4.5,1.1,6.7c1.2,5.2,2.4,10.4,3.6,15.6c0.7,3,1.9,5.9,2,9.1c0,1.7,0.8,3.4,1,5.1
				c0.2,1.6-0.2,3.1,1.1,4.6c0.5,0.5,0.1,1.8,0.1,2.7c0,3.7-0.1,7.3,0,11c0.1,5.5-1.1,10.8-2,16.2c-1.3,7.3-3,14.5-5.7,21.4
				c-2.6,6.6-5.1,13.3-9,19.4c-1.6,2.5-2.8,5.4-4,8.2c-1.1,2.7-2.7,5.2-3.4,7.9c-1.5,6.4-4.2,12.4-4.5,19.1c-1.9,3-1,6.3-1.1,9.5
				c-0.1,5,0,9.9-0.1,14.9c0,0.4-0.4,0.9-0.8,1.1c-0.2,0.1-0.8,0-1-0.2c-1.4-1.4-3.2-2.5-2.6-5c0.6-2.6-0.7-3.9-3.1-5.3
				c-6.7-3.7-11-9.7-12.7-17.1c-1.1-4.8-3.4-9.6-0.8-14.9c1-1.9-1.1-3.9-1.4-5.9c-3.1-0.9-3.6-4-4.9-6.2c-2-3.3-3-7.2-4.4-10.8
				c-0.3-0.8-0.2-1.8-0.2-2.7c-0.3-3.1-0.8-3.7-4-3.5c-2.4,0.1-4.8,0.7-7.3,1.1c-2.2,0.4-4.7-0.9-6.8,0.9c-0.3,0.2-1.2,0.2-1.4-0.1
				c-1-1.3-2.3-0.8-3.5-0.8c-2-0.1-4.4,0.7-6-0.2c-2-1.1-3.8-0.6-5.7-0.9c-1.9-0.3-3.8-0.5-5.6-1.1c-2.8-1-5.7-2.4-7-5.2
				c-2.7-5.3-7.2-8.8-11.1-13c-0.2-0.2-0.5-0.2-0.8-0.3c-0.1,0.3-0.3,0.7-0.3,1c0.5,1.4,0.8,3,1.7,4.2c1.9,2.9,2.3,6.4,4.5,9.2
				c2,2.5,3,5.8,4.8,8.4c4.6,6.7,9.9,12.9,17.5,16.6c0.8,0.4,1.4,1.1,2.2,1.4c1.2,0.6,2.5,1.4,3.8,1.5c1,0.1,2.1-0.8,3-1.3
				c5.5-3.1,7.3-3.1,13.4-2.1c5,0.8,9.2,3.6,14,4.9c0.3,0.1,0.9,0.3,0.9,0.3c-0.7,2.2,3.3,1.6,2.3,3.3c-1,1.9-2.5,0.2-4-0.2
				c-4.5-1.2-8.7-3.8-13.5-3.3c-1.8,0.2-2.5-2.2-4.4-0.9c-1.2,0.8-3,0.7-4.4,1.3c-4.9,2-6.4,6.5-7.7,11c-0.7,2.1-0.9,4.4-1.1,6.7
				c-0.2,2.2-0.4,4.5,0,6.6c0.8,4.6,1.5,9.2,2.6,13.8c1.8,7.3,5,14.1,7.8,21c1,2.4,1.9,4.8,1.7,7.6c-0.2,1.8-0.2,3.7,0,5.5
				c0.2,1.5,0.7,3,1.1,4.5c0.1,0.3,0.3,0.6,0.4,0.9c0.2-0.4,0.7-0.8,0.6-1.1c-0.3-2.1-0.9-4.1-1-6.2c-0.2-3.5-0.1-7,0-10.5
				c0.1-3,1.7-5.8,1.1-8.9c0-0.2,0.8-0.7,1.1-0.7c0.4,0,1,0.6,1,0.9c0,5.6,1.7,11,1.2,16.6c-0.3,3.8,2.6,11.9,4.9,15.5
				c1.7,2.6,3,5.4,4.7,7.9c1.1,1.8,2.6,3.3,3.9,5c1.2,1.5,2.3,3.1,3.5,4.6c1.3,1.7,2.5,3.4,3.9,5c1.3,1.5,2.7,3.1,4.3,4.2
				c1.8,1.2,1.7,4,4.2,4.3c-0.1,0.6-0.2,1.8-0.3,1.8c-1.6,0-3.1,0.5-4.5-1c-4-4.3-8.5-8.1-12.3-12.6c-4.3-5-8.2-10.5-11.7-16.1
				c-1.2-1.8-1.9-4-2.8-6c-0.2-0.5-0.5-1-0.8-1.6c-0.1,0.7-0.4,1.4-0.3,2c0.1,0.8,0.5,1.6,0.7,2.4c2.2,6.3,4.7,12.4,7,18.6
				c1.4,4,3.7,7.7,5.4,11.5c2.6,5.7,5,11.5,7.8,17.2c4.2,8.7,11.2,14.6,20.1,18.3c0.9,0.4,2.1,0.4,3.2,0.3c0.4,0,1.1-1.1,0.9-1.5
				c-1.7-3.6-0.2-7.6-1.2-11.1c-1.6-5.8-0.5-11.5-1-17.2c-0.4-4.6-0.9-9.2-1.1-13.9c-0.2-4.6,0.1-9.2-0.1-13.8c-0.1-1.7-1.2-3.5-1-5
				c1.9-10.6,0.6-21.4,1.1-32c0-0.4,0.8-0.9,1.2-1.3c0.3,0.5,0.9,1,0.9,1.6c0.1,4.2,0,8.4,0,12.7c0,3.5-0.1,7,0,10.5
				c0.1,1.9-0.4,3.7,0.9,5.7c0.8,1.4,0.3,4-0.3,5.7c-0.4,1.2-0.4,1.7,0.2,2.8c1.1,1.8,1.6,3.8,1.5,6c-0.2,2.9-0.6,6,0.1,8.8
				c1.4,5.5,0.2,11.2,1.2,16.6c0.9,5,0.1,10.1,1.1,15c0.8,4,0.8,7.8,0.9,11.7c0.1,2.1,1.6,3.9,1.2,6.2c-0.3,1.8-0.7,4,1,5.6
				c0.1,0.1,0,0.4,0,0.5c-0.6,4.9,0.9,9.4,2.2,13.9c1.2,4.1,2.2,8.3,3.8,12.2c4.4,10.3,9.3,20.4,14.7,30.2
				c5.8,10.5,12.1,20.8,18.7,30.8c2.9,4.5,6.7,8.4,9.1,13.3c0.3,0.6,1,1.1,1.5,1.6c2.4,2.6,5.1,4.9,7.1,8c1.2,1.8,2.8,3.5,5.2,4.5
				c1.7,0.7,2.9,2.7,4.3,4.1c4.8,4.8,9.6,9.6,14.4,14.4c5,5,11,8.9,16.4,13.4c6.3,5.1,13.1,8.9,20.3,12.3c4.8,2.3,9.9,3.6,14.9,5.2
				c4.5,1.4,9.2,1.4,13.5,3.2c0.3,0.1,0.7,0,1.1,0c8.1,0.4,16.2,1.6,24.3,1.1c3.8-0.2,7.7,0.1,11.6-0.1c2.4-0.1,4.8-0.7,7.3-1.1
				c2.4-0.4,5,0.9,7.3-1c0.5-0.5,1.8-0.2,2.7-0.1c3.2,0.4,6.3-0.7,9.5-1c3-0.3,5.7-1.7,8.5-2c4.6-0.5,8.7-2,12.9-3.6
				c3.4-1.4,6.4-3.4,9-6.2c3.7-4.1,7.7-7.8,11.6-11.7c5.5-5.4,10.7-11.1,15.2-17.4c0.7-1,1.8-1.9,2.7-2.7c4.3-4.1,8.1-8.5,11.3-13.5
				c0.5-0.8,1.3-1.3,1.9-2c4.3-4.1,8.1-8.5,11.3-13.5c0.5-0.8,1.3-1.3,1.9-2c4.3-4.1,8-8.6,11.4-13.5c2-2.9,5-5.2,6.9-8.2
				c3.5-5.5,6.3-11.3,8-17.6c1.4-5,2.9-9.9,3.6-15.1c0.4-2.9,1.1-6.1,1.9-9c0.8-3,0.3-6.5,1.3-9.4c1-3,0.2-6.2,1.1-8.9
				c1-2.9,0.3-5.7,1.1-8.4c0.9-3,0.4-6.1,1.1-8.9c0.8-3,0.3-6.1,1.1-8.9c1.5-5.2,1.3-10.6,3-15.8c1-3.1,0.6-6.7,1.3-9.9
				c0.6-2.8,0.5-5.7,1.2-8.3c0.8-2.6,0-5.7,2-8c-0.7-3.3,1.1-6.3,1.2-9.5c0.1-2.2,0.8-4.5,1-6.7c0.2-2.1,0.3-4.1,1-6.2
				c1-3.3,1.1-7,1.2-10.5c0.1-2.5,1.8-4.6,1.2-7.3c-0.5-2.3,1.1-4.3,1.6-6.5c0.3-1.4,0.5-2.8,0.6-4.2c0.1-6.2,0-12.5,0.1-18.7
				c0-0.5,0.7-0.9,1.1-1.4c0.3,0.5,1,1,1,1.5c0.1,9.4,0,18.7,0,28.1v1.1c0,1.7-2.2,2.6-1.5,4.9c0.6,1.9,0.1,4.2-0.1,6.2
				c-0.1,1.9-0.1,4-0.7,5.8c-1.8,6-0.7,12.6-3.3,18.5c0.8,3.8-1,7.4-1.2,11.1c-0.2,3.4-0.6,6.9-1.8,10.2c-0.4,1-0.3,2.1-0.3,3.2
				c0.1,3.7-1.8,7.3-1.1,11.1c-2.1,2.4-0.4,5.3-1.2,7.8c-0.8,2.4-1.1,4.8-1,7.3c0,0.4,0,0.7,0,1.1c0.1,1.4,1,1.4,1.8,0.9
				c1.1-0.5,2.2-1.1,3-1.9c6.3-5.8,11-12.6,13.9-20.7c1-2.8,2.9-5.5,4.8-7.9c2.4-2.8,4.2-5.9,6.2-9c3-4.9,4.7-10.2,6.2-15.6
				c0.1-0.5,0.2-1,0.3-1.5c0.4-3.7,0.9-7.4,1.1-11.1c0.2-3.8,0-7.7,0-11.6c0-4.8,0.2-9.6-0.1-14.3c-0.1-2.7,0.4-5.3,1.2-7.8
				c2.1-6.3,3.6-12.8,5.4-19.2c1.3-4.8,2.5-9.6,3.7-14.4c0.8-3.4,1.9-6.7,1.8-10.3c-0.1-1.8-0.3-3.5-0.5-5.3c-2.2,0-4.8-0.8-6.5,0.1
				c-4.2,2.4-9.1,3-13.2,5.4c-1.1,0.6-1.9,1.6-3,2.1c-0.5,0.2-1.4-0.1-2-0.4c-0.2-0.1-0.1-1.2,0.1-1.4c1.5-1.2,0.9-2.4-0.3-3
				c-5.4-2.6-7.1-7.7-8.8-12.8c-1.1-3.1-2.1-6.2-2.2-9.6c-0.1-2.2-0.8-4.5-1-6.7c-0.2-2.3,0.3-4.5-1-6.8c-0.6-1-0.3-2.7,0.9-4
				c0.8-0.8-0.8-3.5,1-3.6c2.8-0.1,0.8,2.5,1.2,3.8c0.7,2.5,2,4.6,2.5,7.3c0.9,4.3,1.9,8.7,3,13c0.9,3.2,3.5,8.9,5.5,11.5
				c1.5,2,3.7,2.2,5.4,1.5c6.9-2.6,14-4.9,19.2-11.4c0.1-0.3-0.1-0.2-0.3,0c0.2,0.2,0.3,0.3,0.5,0.5c0.2-0.2,0.4-0.4,0.5-0.7
				c0,0-0.2-0.2-0.7,0.2c-1.2,0.5-2.4,0.2-3,0.6c-6.2,3.8-12.6,2.3-19,1c-3.4-0.7-5.4-3-6.8-6c-0.2-0.4-0.1-1.2,0.2-1.4
				c0.3-0.3,1-0.3,1.4-0.1c0.8,0.3,1.7,0.6,2.2,1.2c2.4,2.6,5.7,2.3,8.7,3c1.3,0.3,2.8-0.4,4.1,0.8c1.5,1.4,2.3-1.4,3.7-0.9
				c0-0.3,0.1-0.7,0-0.8c-1.1-0.8-2.2-2.1-3.4-2.3c-3.5-0.4-5.4-3-8-4.7c-2.6-1.8-4.5-4.4-6.4-6.7c-2.2-2.7-3.3-6.2-2.7-9.8
				c0.1-0.4,0.7-0.8,1-0.8c0.4,0,1.1,0.6,1.1,0.8c-0.4,3.5,2.1,5.5,3.8,7.8c3.3,4.3,7.8,7.4,12.4,9.9c3.3,1.8,7,3.4,11.2,3.7
				c4.8,0.4,7.6-2,10-5.2c1.5-2,2.6-4.4,3.5-6.8c0.9-2.2,3.6-3.5,3.2-6.4c0-0.1,0.9-0.6,1.3-0.5c0.3,0.1,0.7,0.7,0.8,1.1
				c0.5,3.4-0.5,6.7-1.7,9.7c-1.8,4.5-4.1,8.8-7.7,12.3c-0.7,0.7-0.9,1.9-1.7,2.6c-2,2-3.7,4.3-6.5,5.6c-1.7,0.8-1.6,1.7,0.2,2.8
				c2,1.2,2.9,3.2,2.9,5.2c0.2,6.2-0.3,12.3-1.8,18.5c-1.3,5.1-2.4,10.4-3.6,15.6c-1.2,5-2.4,10-3.9,14.9c-1,2.9-1.5,6.2-1.5,9.3
				c-0.2,9.4-0.1,18.7,0,28.1c0.1,7.1-3.1,13.4-4.4,20.2c-2.6,1.4-2,4.7-4.1,6.6c-1.9,1.7-2.9,4.3-4.4,6.4
				c-3.3,4.6-7.1,8.9-9.2,14.4c-1.2,3-3.2,5.8-5.5,8.2c-1.3,1.4-2.2,3.2-3.6,4.5c-1.4,1.4-3.1,2.3-4.5,3.6c-2.2,2.1-2.1,4.5-0.6,7.1
				c2,3.8,5.2,6.1,8.7,8.1c1.3,0.7,1.8,1.3,0.8,2.2c-1.7,1.4-1.7,3-1.7,4.8c-0.2,8.2-3.5,15.1-8.8,21.1c-2,2.3-4.1,4.4-6.9,6
				c-1.1,0.6-2.2,0.9-3.3,1.4c-2.6,1.2-5.9,2.2-5.3,6.3c-2.2,6.8-4,13.8-6.8,20.3c-1.7,4.1-4.8,7.6-7.5,11.2c-3.7,4.8-8,9.1-11.5,14
				c-1.5,2.1-2.6,4.7-3,7.6l-10,8.4c-0.4,1.1-1.7,1.9-2.6,2.8c-1.8,1.8-4,3.4-5.4,5.5c-3.6,5.4-7.9,10.1-12.5,14.6
				c-1.1,1-2.3,1.9-3.1,3.1c-2.9,4.5-6.7,8.3-10.2,12.2c-4.5,5.1-9.7,9.5-14.3,14.5c-2.5,2.7-6,3.5-8.6,5.9
				c-1.4,1.3-19.4,5.3-21.3,5.6c-3.5,0.5-6.9,1.4-10.5,1.3c-0.1,0-0.3,0.6-0.4,0.9h-59.5c-0.3-0.4-0.6-1-0.9-1.1
				c-1.3-0.1-2.6,0.1-3.8-0.1c-1.3-0.2-2.6-0.8-4-1c-5.6-0.9-11.1-2.6-16.2-4.7c-9.7-4-18.7-9.5-26.9-15.9
				c-5.6-4.3-11.2-8.9-16.2-14c-11.3-11.5-23.7-21.9-33.2-35.1c-4.2-5.9-8.3-11.9-12.2-18.1c-2.7-4.3-5.4-8.8-7.9-13.2
				c-2.3-4-4.4-8.1-6.4-12.2c-1.8-3.7-4-7.1-5.5-10.9c-1-2.4-2.6-4.3-3.4-6.9c-0.9-3.1-2.4-5.9-3.8-8.9c-0.2-0.4-0.8-0.7-1.1-1.1
				c-0.2,0.5-0.4,0.9-0.5,1.4c-0.1,0.7,0,1.5,0,2.2"/>
			<path id="Fill-3_2_" class="st0" d="M336.1,141c0-2.5,0.1-4.5,0-6.5c-0.2-2.1-0.6-4.1-1.1-6.1c-0.3-1.3-0.7-2.6-1.1-3.9
				c-0.3-1.1,0.8-2.4-0.7-3.2c-0.3,1-0.2,2.2-0.8,2.9c-1.2,1.3-0.5,2.8-0.6,4.2c-0.5,6.6,0.8,13.3-1,19.9c-1.1,4-2.3,7.9-4.8,11.2
				c-0.7,0.9-1.3,2-1.8,3.1c-0.2,0.3,0.3,1.4,0.4,1.4c1.7,0,3.5,0.7,5.2-0.5c3.9-2.8,5.6-7.1,7.5-11.2c0.2-0.4,0.2-1.2,0-1.6
				C335,147.4,336.7,143.8,336.1,141 M163,113.3c2.7,0,5.5,0,8.2,0c4.4-0.1,8.7,0,12.9,2.1c2.8,1.4,6,2.5,7.5,5.3
				c1.8,3.3,4.5,5.9,7.3,7.8c3.7,2.5,6.8,5.3,9.5,8.7c0.9,1.2,1.8,2.4,2.7,3.6c0.8-1.9-0.8-3.1-1.5-4.5c-0.8-1.7-1.6-3.4-2.5-5
				c-2.4-4.1-4.9-8.1-9.4-10.3c-2-1-3.6-2.8-5.4-4.2c-2.8,0.9-3.9-3.2-6.7-2.3c-0.9-2.5-3.9-1.4-5.3-3.1c-1.5-1.8-4.5-1.1-5.7-3.4
				c-2.9,0.3-4.9-1.9-7-3c-2.3-1.2-4.8-1.7-7-3.1c-4-2.5-8.5-4.3-12.7-6.3c-2.4-1.1-4.9-1.5-7,0.2c-5.1,4.1-10.1,8.5-15,12.8
				c-0.4,0.4-0.6,1-0.9,1.5c0.5,0.1,1.1,0.3,1.6,0.2c5.1-0.8,9.9,1.4,14.9,1.1c5.5,2.9,11.4,2.1,17.2,2.2
				C160.1,113.3,161.6,113.3,163,113.3 M179.8,73.7c-4.1-0.4-7.7,1.1-11.4,2.9c-4.7,2.2-8.9,5.2-13.2,7.9c-2.6,1.7-5.2,3.6-7.6,5.5
				c-0.5,0.4-0.6,1.2-0.8,1.8c0,0.1,0.9,0.6,1.3,0.5c2.2-0.5,4.1,0.7,6.1,1.2c1.6,0.4,3,1.7,4.6,2.1c9.5,2.7,18.5,6.8,27.4,11
				c4.6,2.2,9.3,4.2,13.8,6.6c2.9,1.6,5,3.9,7.4,6.2c0.2,0.2,0.7,0.2,0.7,0.2c0.2-0.3,0.4-0.8,0.3-1c-2.1-3.6-3.8-7.3-6.4-10.6
				c-2.3-2.8-4.5-5.2-7.8-6.8c-6.3-3.1-13-4.9-19.4-7.7c-4.2-1.9-8.1-4.1-11.1-7.8c-0.1-0.1-0.4-0.3-0.4-0.4c0-0.9,0.1-1.7,0.2-2.6
				c0.6,0.1,1.3,0.1,1.9,0.3c3,1.1,5.7,2.9,8.8,4c6,2.1,12.1,3.5,18.1,5.4c4.2,1.3,8.3,3.3,10.9,6.7c3.5,4.4,7,8.9,8.5,14.6
				c1,3.8,2.3,7.3,2.1,10.1c-0.4,3.9-0.4,3.9,1.1,6.9c0.7,1.5,1.6,3,2.2,4.6c3,7.8,5.5,15.7,5.5,24.1c0,0.3,0.2,0.6,0.3,1
				c0.3-0.1,0.6-0.1,0.8-0.3c0.8-0.8,1.9-1.5,2.2-2.4c1.5-5,3.5-9.8,3.4-15.1c-0.1-2.3-0.7-4.5-1-6.7c-0.8-6.5-3.1-12.5-6.2-17.8
				c-4.1-7-8.1-14.1-13.3-20.5c-5-6.2-9.5-12.8-15.3-18.4C189.6,75.6,185.3,73.1,179.8,73.7 M395.9,70.4c-0.1,0-0.2,0-0.3,0
				c0-2.2,0.1-4.4,0-6.6c-0.2-2.1-0.6-4.1-1.1-6.1c-1.9-7.8-7.3-13.3-14.8-12.5c-3.8,0.4-7.3-1.6-11.1-1.2
				c-5.9-2.8-12.1-4.5-18.4-6.2c-4.2-1.1-8.4-1.9-12.7-2.5c-1.9-0.3-3.9,0.3-5.8,0.5c1.3,1.3,2.7,2.5,3.9,3.9
				c1.1,1.3,2.1,2.8,3.1,4.2C343,49.2,342,56,343.8,62c-2.3,2.7-0.6,5.9-1.1,8.9c-0.2,1.1,0.4,2.6-0.1,3.2c-1.7,1.9-0.9,4.3-2,6.4
				c-1.1,2-0.9,4.8-1.3,7.2c-0.4,2.2-0.3,4.7-1.2,6.6c-1.1,2.4-0.2,5.2-1.2,7.2c-1.5,2.9-1.3,5.9-0.7,8.4c0.6,2.5,0.2,5,1,7.3
				c0.9,2.5,0.9,4.8,1,7.3c0,0.5-0.1,1.1,0.1,1.6c1.5,4,2.2,8.1,2.1,12.4c-0.1,2.6,0.2,5.2-0.1,7.7c-0.3,3.3-0.4,6.7-1.5,9.8
				c-0.7,2-0.9,2.4,1.3,2.6c1.5,0.1,1.7,1,0.9,2c-1.5,2.1-4,2.7-6.1,3.9c-0.5,0.3-0.8,0.8-1.2,1.2c0.5,0.2,0.9,0.5,1.4,0.5
				c4.6,0,9.2,0,13.8,0c0.7,0,1.4,0,2.1-0.2c8.5-2.5,15-8,20-14.9c5.7-7.9,8.9-17.2,12.2-26.3c1.8-5.1,3.6-10.3,4.9-15.6
				c0.9-3.8,2.3-7.5,3.4-11.2c1.1-4,1.7-8.1,2.6-12.1C395.5,80.9,395.4,75.6,395.9,70.4 M211.9,144.6c0.5-0.6,0.8-0.8,0.8-0.9
				c0-0.5-0.2-0.9-0.3-1.4c-0.2,0.1-0.7,0.1-0.7,0.2c0,0.6,0.1,1.2,2.3,3.5c-0.3-0.6-0.5-1.2-0.8-1.7c-0.2,0.3-0.5,0.7-0.5,1
				c0.1,0.7,0.4,1.5,0.6,2.2C213.5,146.9,213.7,146.5,211.9,144.6 M322.1,152.8c-1.1,1.6-2,1.7-2.8,2.1c-2.4,1.2-4.7,2.9-7.2,3.8
				c-2.6,0.9-4.5,3.3-7.5,3.2c-3.4,3.4-8.2,5-11.2,8.9c-1.3,1.6-2.1,1.3-2.4-0.9c-0.3-1.5-0.8-2-2-1.1c-0.8,0.6-1.6,1.3-2.2,0.3
				c-0.4-0.6-0.3-1.9,0.1-2.5c1-1.3,2.2-2.5,3.5-3.5c1.3-1.1,2.8-2.1,4.2-3.1c1.3-0.9,2.6-1.7,3.8-2.7c3.8-3.3,7.9-6.4,11.1-10.2
				c2.8-3.3,4.8-7.3,5.9-11.8c1.1-4.3,1.4-8.6,0.8-12.8c-0.8-6.4-2.4-12.8-4.8-18.9c-3.3-8.4-7.5-16.4-9.7-25.1c-0.3-1-0.7-2-0.7-3
				c-0.1-4-0.4-8.1,0.1-12.1c0.4-3,0.7-6.1,2-9.1c0.9-2,0.8-4.4,1.2-6.6c0.1-0.5,0.8-0.9,1.2-1.3c0.3,0.3,0.9,0.7,0.9,1
				c0.1,2.7,0.2,5.5,0,8.3c-0.2,2.6,1,5.4-1,7.8c-0.2,0.2,0.2,1,0.3,1.5c0.3,1.2,0.7,2.4,0.7,3.6c-0.1,5.7,0.5,11.2,4.4,15.8
				c-0.2,3,2.4,4.9,3.2,7.5c0.8,2.7,2.4,5.2,3.4,7.9c1,2.6,1.4,5.3,2.4,7.8c1.1,2.8,1.5,5.7,2.2,8.5c1.2,4.3,0.6,8.6,1,12.8
				c0.5,4.4-0.7,8.5-2.4,12.2c-1.4,3-2.8,6.4-5.7,8.7c-0.3,0.2-0.5,0.5-0.7,0.8c0.5,0.2,1,0.5,1.4,0.5c1.5-0.2,3.3,0.7,4.6-1
				c1-1.3,1.9,1.9,3,0.2c1.2-1.7,2.2-3.5,2-5.8c-0.2-1.8,0-3.7,0-5.5c0-7.5-0.3-15.1,0.1-22.6c0.4-6.2-2-11.6-4-17.1
				c-1.9-5.1-3-10.1-4-15.5c-1.2-6.5-0.7-12.9-0.8-19.4c-0.1-5.8,1.5-11.3,3.6-16.7c0.6-1.6,2-2.9,3.1-4.2c0.3-0.3,1.3-0.6,1.4-0.4
				c0.3,0.5,0.5,1.2,0.7,1.9c0.1,0.2,0.1,0.4,0,0.5c-2.2,2.7-1.8,5.9-2.3,9c-1.1,7.3-1.4,11.9,0.1,18.9c0.1,0.7,0,1.5,0,2.2
				c-0.3,8.2,2.4,15.7,5.5,23c1.9,0.7,0.7,2.6,1.5,3.8c0.6,1,0.5,2.3,0.8,3.5c0.1,0.3,0.3,0.6,0.5,0.9c0.2-0.3,0.6-0.5,0.6-0.8
				c-0.4-5.2,1.5-10.1,2.4-15c0.7-4,1.7-8,2.8-12c0.9-3.2,1-6.6,1.4-9.9c0.4-2.8-0.6-5.6,0.9-8.4c0.4-0.8-1.1-2.7-1-4.4
				c0.1-2.3-0.5-4.5-0.8-6.7c-0.8-4.9-4.3-7.9-6.9-11.5c-0.7-0.9-2.1-1.3-2.6-2.7c-0.3-0.6-1.4-1.1-2.2-1.2c-2.7-0.1-6-0.9-8.1,0.2
				c-2.4,1.2-5.1-0.2-7,1.7c-7.7,1.1-14.3,4.7-20.4,9.2c-5.4,3.9-11.1,7.6-14.7,13.7c-1.2,2.1-3.2,3.8-4.8,5.6
				c-2,2.2-1.3,3.7-0.6,5.5c1.8,4.9,2.9,10.1,5.5,14.8c1.8,3.3,3.7,6.6,5.9,9.6c4.9,6.6,7.6,14,9.7,21.9c1.3,4.9,1.3,9.8,0.7,14.4
				c-0.8,6-4.2,11.2-9.5,14.5c-4.6,2.9-9.6,5.2-14.2,8.1c-5.4,3.5-11.6,6.1-14.6,12.3c-2.5,0.2-2.1,4-4.9,3.8
				c-0.5,1.8-1.2,3.6-1.6,5.4c-0.3,1.4,0,2.9-0.1,4.4c0,0.4-0.4,1.1-0.8,1.1c-0.4,0.1-1.1-0.2-1.4-0.5c-1.4-1.5-1.6-4-4.2-4.3
				c-0.1,0-0.2-1,0-1.4c3.4-5.8,4.3-8.3,4.1-13.7c-0.1-3.3,0.5-6.7-0.9-10.1c-0.6-1.4-1.1-4,0.7-5.6c0.1-0.1,0.2-0.3,0.2-0.5
				c0.6-7.5,2-15.1,1-22.6c-1.1-7.8-3.4-15.4-8.3-21.8c-4.6-6-9.2-11.9-13.6-18c-3.4-4.8-6.6-9.7-9.9-14.6c-1.2-1.7-2-3.7-3.4-5.1
				c-1.3-1.3-0.9-2.7-0.9-4c0-0.3,0.6-0.9,1-0.9c0.4,0,0.9,0.4,1.1,0.8c0.4,0.9,0.4,2.1,1,2.9c5,5.6,9.4,11.8,13.6,18
				c1.9,2.8,4.5,5.1,6.5,7.8c3.7,4.7,7.6,9.3,10.6,14.3c2.8,4.6,4.2,10,5.7,15.2c1.7,6.1,0.9,12.2,1,18.3c0,1.9-0.8,3.7-1,5.6
				c-0.2,1.7-0.4,3.4-1,5.1c-0.7,2.1,0.7,5.2-0.4,7c-1.6,2.7,0.2,3.8,1.1,5.5c0.4,0.7,1.2,1.1,1.5,0.1c0.7-2,2.6-2.5,3.9-3.8
				c0.6-0.6,1.5-1.4,1.4-2.1c-0.3-3.6,2.4-6,3.5-9.1c1.3-3.5,3-8.6,3.3-11.3c0.2-1.9,1-3.7,1-5.6c0.3-7.9-2.7-14.9-7.1-21.2
				c-1.7-2.5-3.8-4.7-5.8-7c-5.7-6.5-11.5-12.8-17.1-19.4c-2.7-3.2-4.8-6.8-7-10.3c-0.8-1.3-1.3-2.9-1.4-4.3
				c-0.1-1.2-0.5-2.1-1.4-2.7c-1.5-1.1-0.8-2.7-0.8-4c0-0.2,0.7-0.6,1.2-0.7c0.2-0.1,0.9,0.4,0.9,0.4c-0.9,2.7,2.3,3.7,2.5,6.2
				c0.2,1.9,2.7,3.6,3.7,5.6c1,2.2,3.2,3.4,4.3,5.4c1.5,2.8,3.9,4.7,5.9,6.9c4.8,5.2,9.9,10.1,14.3,15.6c4.2,5.4,8.1,10.9,10.4,17.7
				c2.4,6.9,2.2,13.3,0.6,20.1c-0.4,1.6-1,3.2-1.5,4.9c-0.5,1.5-0.8,3-1.5,4.3c-1.2,2.3-2.4,4.6-4,6.6c-1,1.2-1.7,2.2-1.5,3.8
				c0.1,0.5-0.4,1-0.6,1.6c0.7,0,1.6,0.3,2.1,0c1.1-0.5,2-1.5,3-2.1c6.3-4.2,12.7-8.2,19.2-12.2c1.2-0.7,2.2-2.1,2.9-3.7
				c3.7-7.8,3.8-8.7,2.2-18.1c-1-5.8-2.7-11.3-5.6-16.4c-1.9-3.3-4.3-6.3-6.3-9.5c-3.6-5.5-6.3-11.3-7.9-17.7
				c-2.4-9.6-8.8-15.8-16.9-20.5c-3.5-2-7.3-3.6-11-5.3c-0.5-0.2-1-0.3-1.5-0.3c-5.5,0-11.1-0.5-16.5,0.1c-4.2,0.5-8.3,2-12.3,3.5
				c-5.6,2.1-11.1,4.5-15.9,8.1c-2,1.5-4.6,2.3-6.7,3.6c-1.2,0.7-1,1.6,0.3,2.3c2.7,1.4,5.6,2.2,8.3,4.1c4.4,3.1,8.1,6.8,11.4,10.8
				c4.5,5.4,8.2,11.6,12.2,17.5c1.6,2.3,3.8,4.4,4.4,7c0.7,2.9,4,4.2,3.5,7.4c3,3.9,4.1,8.5,5.6,13.1c1.2,3.7,2.3,7.3,2.1,11.2
				c-0.1,1.5-0.1,2.9,0,4.4c0.4,7.5-3.2,13.6-6.6,19.8c-3.9,2.3-4.7,6.2-5.7,10.3c-0.8,3-2.8,5.8-4.4,8.6c-0.4,0.7-1.3,1.2-2.1,1.5
				c-0.6,0.2-1.4-0.1-2-0.4c-0.2-0.1-0.1-1,0.1-1.4c0.7-1.5,1.7-3,2.3-4.6c1-2.4,2-4.8,1.9-7.5c-0.2-2.7,0.1-5.5-0.1-8.3
				c-0.2-2.6-0.6-5.2-1.1-7.8c-0.2-1.2-0.7-2.3-1.1-3.4c-0.1-0.3-0.4-0.4-0.6-0.6c-0.1,0.3-0.4,0.6-0.4,0.9c0,2.4-0.1,4.8,0,7.2
				c0.4,8.6-2.7,16.3-5.6,24.1c-0.8,2.2-1.6,4.6-3.3,6.3c-0.4,0.4-1,0.7-1.5,1c-0.2-0.6-0.7-1.3-0.6-1.9c0.7-3.3,1.1-6.9,2.6-9.9
				c1.1-2.3-0.5-5.1,1.8-7c0.4-3.9,0.8-7.8,1.1-11.7c0.6-7.9-3.9-18.2-11.7-22.6c-3.2-1.8-5.5-4.6-8.1-7c-1.6-1.5-3-3.2-4.7-4.6
				c-1.2-1-2.5-2.2-3.9-2.4c-3.3-0.7-6.6-1-10-1.1c-4.6-0.2-9.2-0.1-13.8,0c-5.7,0.1-11-1.6-16.4-2.9c-3-0.7-6.2-1.1-9.3-1.8
				c-3.4-0.7-6.7-0.6-10.1-0.9c-1.4-0.1-2.3,0.4-3.3,1.4c-3.6,3.7-7.2,7.3-10.9,10.9c-0.7,0.7-1.6,1.1-2.5,1.6
				c1.2,0.8,2.1,0.5,3.4-0.1c1.6-0.9,3.6-1.1,5.4-1.6c1.9-0.4,3.7-0.7,5.6-1.1c5.9-1.3,11.7-2.4,17.8-2.3c1.5,0,3.2-1.3,4.5-0.9
				c3.2,1.1,6.3,1,9.5,1c3,0,5.8,1.9,8.9,1.1c10.5,3.4,21.1,6.6,29,15.2c4.8,5.2,9.1,10.6,10.8,17.6c0.1,0.5,0.7,0.9,0.8,1.3
				c0.4,3.9,0.9,7.8,1.1,11.7c0.2,4.6-1.2,8.8-3.8,12.7c-0.5,0.7-0.3,1.9-0.3,2.9c0,0.3,0.6,0.5,0.7,0.8c0.2,0.6-1.5,5-1.9,5
				c-2.6,0.1-1.1-2.2-1.6-3.3c-1.2-2.4-1.8-5.1-2.5-7.8c-1.5-6-3.8-11.6-7-16.9c-0.9-1.6-1.8-3.5-1.2-5.5c0.1-0.3,0.5-0.5,0.8-0.6
				c0.3-0.1,0.9,0,1,0.2c3.3,5.4,7.6,10.2,9.2,16.5c0.3,1.2,0.7,2.3,1.1,3.4c0.1,0.3,0.4,0.5,0.6,0.7c0.2-0.3,0.5-0.6,0.5-0.9
				c0-5.9,0.8-12-1.2-17.7c-1.3-3.8-3.3-7.6-5.8-10.8c-3.6-4.4-7.6-8.6-13-10.9c-3-1.3-5.8-2.8-8.8-4c-3-1.2-6.5-1-9.2-3.1
				c-0.1-0.1-0.4,0-0.5,0c-7.2,0.3-14.4-2.3-21.6-1c-7.7,1.3-15.7,0.8-23,4.3c-4.6-0.5-8.2,2.5-12.3,3.6c-3.9,1.1-7.3,3.6-11.1,5.1
				c-1.3,0.5-2.2,1-2.6,2.3c-0.8,0.2-2.1-0.5-2.2,1.3v-0.2c-0.3,0.1-0.6,0.2-0.8,0.3c-0.1,0.1,0.1,0.4,0.2,0.7
				c0.2-0.2,0.4-0.3,0.7-0.8c0.8-0.4,2.1,0.3,2.2-1.3c3.4-1.1,6.8-2.1,10.2-3.3c5.8-2.1,11.7-3.7,17.9-3.3c1.5,0.1,3-0.1,4.4,0
				c2.5,0.3,5-0.7,7.4,0.7c2.1,1.3,5.1-0.7,7.1,1.5c5.7,0,10.7,2.4,15.8,4.4c3.2,1.2,12.1,6.2,14.2,8.2c2.8,2.7,5.5,5.4,8.2,8.2
				c0.8,0.9,1.4,2,1.9,3c0.4,0.7,0.9,2.1,0.7,2.2c-1.1,0.7-2.2,0.6-3.3-0.4c-2.4-2.2-4.8-4.3-7.3-6.2c-4.8-3.8-14.1-9.1-22-10.8
				c-3.9-0.9-8.2-1.2-11.9-3c-1-0.5-2.5,0-3.8-0.1c-2.4-0.2-5.1,0.8-7.3-1c-0.3-0.3-1.1-0.1-1.6,0c-2.4,0.3-4.8,0.7-7.3,1.1
				c-2.4,0.4-5.1-1.2-7.3,1c-4.7-0.3-8.8,1.7-12.9,3.4c-4.5,1.9-8.9,4.2-13.3,6.3c-3.7,1.8-6.7,4.8-10.8,5.9c-1.7,0.4-3.1,2.4-4.2,4
				c-4.8,6.9-8.2,14.5-10.7,22.5c-0.7,2.1-1.2,4.2-2.4,6.2c-0.9,1.4-0.1,3.9-0.2,5.9c0,0.3-0.7,0.8-1.1,0.8c-0.4,0-0.7-0.5-1.1-0.8
				c-0.1-0.1,0-0.4,0-0.5c0.5-3.9-1.1-7.9,1.1-11.7c1.4-10.6,6.6-21.1,13.2-30.3c6.1-8.5,13.9-15.2,22.9-20.4
				c3.1-1.8,5.8-4.5,9.7-4.5c2.3-2.3,5.2-4.4,6.8-7.1c1.3-2.1,2.9-3.6,4.5-5.2c1.9-1.9,3.6-3.8,4.7-6.3c0.5-1.1,1.3-2.4,2.3-2.8
				c2.5-1,4-3.1,5.7-4.8c5.1-5,10.6-9.6,16.2-14c1.9-1.5,3.4-3.3,5.1-5c2.5-2.5,5.6-4.2,8.3-6.5c3.1-2.5,6.3-5,9.7-7.3
				c4.9-3.3,10.1-5.7,15.6-7.7c0.3-0.1,0.6-0.4,0.9-0.4c5.8,0.3,9.9-2.9,13.8-6.6c1.9-1.7,4.2-3.2,6.5-4.3c1.7-0.8,3.4-1.5,4.9-2.8
				c1.4-1.2,3.4-1.5,5-2.6c2.9-1.9,6.6-2.6,10-3.6c3.7-1.1,7.3-2,11.2-2.4c2-0.2,4.1-1,6.2-0.8c8.5,0.8,16.5,3.1,23.7,7.9
				c3.2,2.2,6.6,4,9.2,7c0.6,0.7,1.7,1.2,1.9,2c0.3,1.3,0.8,2.5,2,2.5c0.5,0,1-1.7,1.6-2.5c2-2.8,3.9-5.9,6.3-8.4
				c4.6-4.6,9.3-9.2,14.4-13.2c2.3-1.8,4.8-3.9,8.1-4.2c3.3-3.1,7.8-3.4,11.8-4.8c2.9-1,5.9-2,9.2-1.9c4.2,0.2,8.4,0,12.7,0.1
				c2.3,0,4.6,0.4,6.9,0.5c2.1,0.2,4.6-0.3,6.3,0.7c2.1,1.2,4.7,0,6.3,2c6.4,0.5,12.3,3.1,18.3,5.1c0.3,0.1,0.6,0.4,0.9,0.4
				c3.9,0.4,7.8,1.1,11.7,1c8-0.1,13.2,4.1,17,10.6c0.9,1.5,1.4,3,3,4.3c1.8,1.4,3.4,1.8,5.4,1.7c6.1-0.3,11.5,1.9,17.2,3.7
				c6.2,2,11.2,5.7,15.7,9.7c4.1,3.7,6.7,9,8.4,14.5c1.4,4.4,2.4,8.8,2.2,13.4c-0.2,3.1-0.2,6.3,0,9.4c0.5,6.8-1.6,13.2-3.8,19.4
				c-3.6,10-8.7,19.3-15.4,27.8c-3.6,4.6-7,9.5-11.4,13.4c-6.5,5.8-12.9,11.7-21.7,14.2c-1.3,1.9-3.5,2.3-5.4,2.9
				c-2.5,0.8-4.9,1.9-7.7,1.6c-1.9-0.3-3.7-0.2-5.5,1.5c-0.9,0.9-3.3,0.4-5,0.3c-0.4,0-0.8-0.7-1.2-1.1c0.5-0.3,1-0.5,1.5-0.8
				c0.8-0.4,1.5-0.8,2.3-1.2c0.6-0.3,1.2-1,1.8-1c3.9,0.6,7.2-1.1,10.7-2.2c5.9-1.9,17.1-8.4,20.4-12c0.2-0.3,0.2-0.8,0.2-1.1
				c-0.5,0.1-1.1,0-1.5,0.2c-1.1,0.6-1.9,3.2-3.3,1.3c-1.1-1.4,1.3-2.2,2-3.3c0.1-0.2,0.2-0.3,0.4-0.4c4.3-3,5.1-7.8,6.1-12.3
				c1-4.3,2.2-8.6,3.6-12.8c2.4-1.3,1.9-4.4,3.8-6.2c1.6-1.6,2.3-4.1,3.2-6.3c2-4.7,3.7-9.5,5-14.5c2.4-9.2,2.1-18.5,2.1-27.7
				c0-1.8,0-3.7,0.1-5.5c0-0.2,0.8-0.5,1.3-0.6c0.3,0,0.8,0.3,0.8,0.5c0.1,0.7,0,1.5,0,2.2c0,0.7-0.3,1.9,0,2.1c3.8,3,2,7.1,2,10.7
				c0,3.5,0.8,7-0.8,10.6c-1,2.2-0.6,5.1-1.2,7.8c-1.9,8.6-4.4,14.9-9.7,23.6c-2.7,4.5-5,9.3-5.8,14.6c-0.8,5.1-2.5,9.6-5.9,13.5
				c-0.4,0.5-0.5,1.2-0.7,1.9c0.5-0.2,1.2-0.2,1.5-0.6c3.3-3.2,7.1-6.1,9.6-9.8c5-7.2,10.4-14.1,14.2-22.1c2.3-4.8,3.5-9.9,6.1-14.6
				c1.1-2-0.4-4.7,1.5-6.5c0.4-4.6,1.1-9.2,1.3-13.9c0.3-5.7-2.1-10.7-2.4-16.2c-3.7-6.7-7-13.5-14.4-17.3c-4.9-2.5-9.7-5-14.9-6.5
				c-0.6-0.2-1.5-0.4-1.8-0.9c-1-1.5-2.5-1.2-3.9-1.3c-1.9-0.1-3.9-0.4-5.8-0.6c-0.3,0-1,0.2-1,0.3c0.3,4.3-1,8.7,1.1,12.8
				c0.6,1.2,1.3,1.1,2.2-0.1c0.4-0.5,0.8-0.9,1.3-1.3c0.3,0.5,0.9,1.1,0.9,1.6c0,1-0.5,2-0.7,3c-0.2,0.9-0.7,2.2-0.3,2.5
				c1.7,1.5,0.7,3.4,1,5.1c0.2,1.2-0.3,2.4,0.8,3.6c0.6,0.6,0.7,2.4,0.2,3.1c-1.5,2-0.9,4.1-1,6.2c-0.1,2,0.7,4.4-0.2,6
				c-1.1,2.1-0.5,4.2-1,6.2c-0.4,1.8-2,3.4-2,5.2c0,5.1-3.9,8.8-4.8,13.5c-3.5,3.7-4.8,8.7-7.3,13c-2.9,5.2-4.5,11-5.7,16.9
				c-1.2,5.6-4.2,10.3-8.8,14c-1.7,1.4-3.9,1.7-8.3,1.6c-0.5,0-1,0.2-1.4,0.5c-1.6,1.1-3.5,2-4.5,3.5c-2.1,2.9-4.9,2.6-7.8,2.5
				c-0.3,0-0.9-0.6-0.9-1c0-0.4,0.6-1.1,0.7-1.1c2.8,0.6,4.5-1.1,5.9-3c2.3-3.1,5.9-3.8,9.1-4.5c5.1-1.2,8.2-4,10-8.9
				c1.6-4.2,2.8-8.4,3.9-12.7c0.4-1.5,0.5-3.1,1.2-4.5c2.9-5.6,6.1-11,8.9-16.7c3.3-6.9,7-13.6,7.8-21.6c0.3-2.9,0.7-5.9,1-8.9
				c0.2-1.7,1.8-3.5,1.5-4.9c-0.3-1.8-0.8-3.1,0.3-4.9c1.4-2.5-1.6-4.3-1.9-6.6c0-0.2-0.4-0.4-0.7-0.6c-0.1,0.3-0.4,0.7-0.4,0.9
				c0.8,4-1.1,7.7-1.3,11.7c-0.2,3.4-1.4,6.7-2.3,10c-2.7,9-4.9,18.1-8.5,26.7c-1,2.5-1.4,5.3-2.8,7.6c-1.4,2.4-1.1,5.6-3.8,7.3
				c-0.5,5.1-4.2,8.6-6.7,12.6c-5.1,8.3-12.1,14.3-21.7,16.9c-0.5,0.1-0.9,0.7-1.3,0.8c-4.1,0.4-8.2,1.2-12.2,1
				c-4.3-0.2-8.7-1-12.8-2.4c-2.5-0.8-5.6-0.6-7.6-2.9c-0.2-0.2-1.4,0.2-1.8,0.7c-3.8,4.1-8.6,5.3-14,4.7c-0.5-0.1-0.8-0.8-1.3-1.2
				c0.3-0.3,0.7-0.9,1-0.9c2.2,0,3.6-0.8,3.3-3.2c-0.2-2.1,3.4-0.9,2.6-3.3c1.5,0.3,2.3-2.5,4.2-0.8c0.4,0.3,2.3-0.1,2.5-0.6
				C319,159.1,321.8,157.3,322.1,152.8c0-0.5-0.2-0.1-0.3,0.3c-0.1,0.3,0,0.7,0,1c0.4-0.3,0.9-0.4,1-0.8
				C322.9,152.9,322.7,152.4,322.1,152.8"/>
			<g id="Group-7" transform="translate(431.042672, 54.227272)">
				<g id="Clip-6">
				</g>
				<defs>
					<filter id="Adobe_OpacityMaskFilter" filterUnits="userSpaceOnUse" x="-12.3" y="25" width="135.5" height="242.5">
						<feColorMatrix  type="matrix" values="1 0 0 0 0  0 1 0 0 0  0 0 1 0 0  0 0 0 1 0"/>
					</filter>
				</defs>
				<mask maskUnits="userSpaceOnUse" x="-12.3" y="25" width="135.5" height="242.5" id="mask-2_1_">
					<g class="st1">
						<polygon id="path-1_1_" class="st2" points="123.2,267.5 123.2,25 -12.3,25 -12.3,267.5 						"/>
					</g>
				</mask>
				<path id="Fill-5_2_" class="st3" d="M49.3,180.5c-0.6-0.1-1.1-0.2-1.6-0.2c-0.1,0-0.3,0.4-0.4,0.7c0.5,0.1,1,0.3,1.4,0.3
					C48.9,181.3,49.1,180.9,49.3,180.5 M110,250.5c-0.1-0.2-0.1-0.5-0.2-0.5c-0.4,0.1-0.9,0.1-1.1,0.4c-2.5,2.8-4.2,6.5-8.1,8.1
					c-0.2,0.1-0.2,0.5-0.3,0.7c0.3,0.1,0.6,0.3,1,0.3C105.2,259.3,109.6,254.8,110,250.5 M117.7,198.4c0-0.1-0.1-1.4-0.4-2.6
					c-0.1-0.5-0.7-0.8-1.1-1.2c-0.2,0.4-0.5,0.7-0.7,1.1c-0.6,1.4-0.8,3.1-1.7,4.2c-1.8,2,1.9,3,0.6,4.8c-0.6,0.8-1.1,1.9-1,2.8
					c0,0.7,0.8,1.4,1.3,2.1c0.3-0.5,0.6-0.9,0.8-1.4C116.4,206.5,117.7,201.1,117.7,198.4 M108.9,166.8c0-2.7,0.1-5.5-0.1-8.2
					c0-0.5-0.7-0.9-1.1-1.4c-0.4,0.3-1,0.5-1,0.9c-0.6,3.6-4.8,5.1-5,8.9c0,0.4-1,0.9-1.6,1.2c-4.3,1.5-7.2,4.9-9.6,8.3
					c-2.2,3-4.1,6.1-6.8,8.7c-1.8,1.8-1.7,2.8,0.7,3.9c3.7,1.7,7.5,1.6,11.3,0.5c2-0.6,3.9-1.2,6-1.5c0.5-0.1,1,1.4,1.9,0.2
					c0.9-1.2,3.6-7.8,4.1-9.3C109.3,175,108.7,170.8,108.9,166.8 M45.6,164.8c-3.5,0-7,0-10.4,0c-0.4,0-0.9,0.4-1.2,0.8
					c-0.1,0.2-0.1,0.8,0.1,1c2.1,2,3.8,4.2,6.5,5.5c4.2,2,8.3,3.8,12.8,4.9c3.4,0.8,6.7,2,10.1,2c3,0.1,6-0.3,8.9-1.1
					c2.9-0.8,5.7-2.1,8.5-3.4c3.2-1.6,6.4-3.3,9.3-5.4c4.3-3.1,9.5-5.2,12.2-10.4c1-2,2.8-3.6,4.2-5.4c0.5-0.7,1.1-1.5,1.1-2.3
					c0.3-6.3-0.6-12.6,1.1-18.8c0.1-0.4-0.3-1-0.4-1.5c-0.5,0.4-1.3,0.8-1.5,1.3c-0.8,2.1-1.1,4.3-2,6.3
					c-3.9,8.7-10.2,15.5-17.9,20.8c-3.1,2.1-6.2,4.3-9.8,5.6c-2.4,0.8-4.7,2.2-7.3,2.2c-2.7,0-5.1,2.1-7.8,1.1
					c-1.6-0.6-1.9,2.4-3.9,0.9c-1-0.9-3-0.5-4.6-0.8c-0.4-0.1-0.9-0.6-0.9-1c0-0.4,0.4-1.1,0.7-1.1c1.3-0.1,2.6,0,3.8-0.1
					c1.3,0,2.6,0.1,3.8-0.2c0.6-0.1,1-1,1.4-1.5c-0.5-0.2-1-0.3-1.4-0.5c-2.2-0.7-4,1.1-6.1,1.1C51.8,164.8,48.7,164.8,45.6,164.8
					 M72.3,184.8c4.3,0.6,7.1-1.9,9.7-4.8c0.2-0.2,0.3-0.6,0.4-0.9c-0.4,0-0.7,0.1-1.1,0c-1.8-0.4-2.8,1.2-4.3,1.6
					c-1.6,0.4-2.8,2.1-4.8,1.7c-1.5-0.3-2.2,0.8-3,1.7c1,0.2,2,0.4,13.8-6c-0.2,0.2-0.4,0.3-0.6,0.5c0.2,0.2,0.3,0.3,0.5,0.5
					c0.2-0.2,0.4-0.4,0.5-0.7C83.4,178.4,83.2,178.3,72.3,184.8 M69.6,163.4c-0.6-0.5-0.8-0.8-0.9-0.8c-0.5,0-0.9,0.2-1.4,0.3
					c0.1,0.2,0.1,0.7,0.2,0.7c0.6,0,1.2-0.1,2.4-2c-0.2,0.2-0.4,0.3-0.6,0.5c0.2,0.2,0.3,0.3,0.5,0.5c0.2-0.2,0.4-0.4,0.5-0.7
					C70.2,161.9,70,161.7,69.6,163.4 M39.5,108c-12.9,18.3-13.7,18.4-14.3,18.2c-0.5-0.2-1.2-1-1.1-1.3c0.4-1.1,1-2.2,1.7-3.1
					c4.7-5.2,7.7-11.5,11.4-17.3c1.4-2.2,3-4.3,3.6-6.7c0.7-2.5,3.2-4.2,3-7c2.7-2.3,3.1-6.3,6-8.6c1.3-1,1.9-2.8,2.8-4.3
					c-1.8-1.9-0.7-4.4-1.5-6.5c-1.4-3.4-2.5-7-4-10.5c-2.2-5-4.6-9.8-5.6-15.3c-1.2-7.1-1.5-9.1,1.3-14c0.3-0.5,1-0.7,1.5-1
					c0.2,0.4,0.6,0.9,0.6,1.3c0.1,3.5-0.4,7.1,1.1,10.6c0.6,1.4,0.6,3.2,1.5,4.3c1.8,2,1.9,4.7,3.2,7c1.2,2.1,3.4,4.1,3,7
					c2.9,2.6,2.7,6.6,4.4,9.7c0.2,0.3,0.4,0.6,0.6,0.8c0.2-0.3,0.5-0.6,0.5-0.9c-0.5-5.2,1.2-10.5-1-15.5c-0.3-0.8-0.2-1.9,0-2.7
					c0.2-0.6,0.9-1.1,1.5-1.6c0.1-0.1,0.8,0.5,1.1,0.8c1.1,1,1.7,2,1.9,3.7c0.5,4.6,1.1,5.5,5.2,7.4c4,1.8,6.6,5,9,8.4
					c0.5,0.7,1,1.5,1.1,2.3c0.2,5.7,2.2,11.4,1.1,17.1c-1.8,9.4-4,18.7-8.8,27.2c-1.8,3.2-3.9,6.2-6.2,9c-3.5,4.1-6.2,8.8-8.8,13.5
					c-5.7,10.1-14.1,16.1-25.3,18.4c-0.6,0.1-1.2,0.5-1.8,0.9c-0.3,0.2-0.5,0.5-0.8,0.8c0.3,0.2,0.6,0.4,0.9,0.5c1.5,0.4,3,1,4.5,1
					c1.3,0,2.6-0.9,4-1c5-0.1,9.9-0.2,14.9,0c4.6,0.1,8.9-1.5,13.4-2.2c1.3-0.2,0.7-0.7,0.2-1.3c-0.7-0.8-0.7-1.6,0.5-2
					c0.8-0.2,1.7-0.6,2.5-0.6c7.2-0.4,10.5-6.3,14.8-10.6c1.8-1.8,2.6-4.9,2.7-7.6c0.2-6.1,0.1-12.1,0-18.2c0-0.5-0.6-1-1-1.5
					c-0.4,0.4-1,0.8-1.2,1.4c-2.1,5.8-5.3,11.2-8.9,16.1c-2.2,3-4.1,6.3-7.5,8.4c-2.9,1.7-5.1,4.4-7.8,6.5c-1.2,0.9-2.8,1.3-4.2,1.7
					c-0.3,0.1-1.1-0.3-1.2-0.6c-0.1-0.4,0.1-1.2,0.4-1.4c3.8-2.5,6.8-5.8,10-8.9c6.2-5.9,12.9-15.6,16-25.9c0.5-1.6,1.6-3,2.1-4.6
					c0.5-1.4,1.4-3.4,0.8-4.3c-0.9-1.5-0.3-2.9-0.8-4.1c-1.8-4.7-0.8-9.6-1-14.4c-0.1-2-0.1-4,0-6.1c0-0.7,0.4-1.4,0.7-2.2
					c0.9,0.7,2.2,1.3,2.5,2.2c0.7,1.9,0.9,4.1,1.2,6.1c0.4,2.8,1.8,5.4,1.1,8.4c2,3.3,1.5,7.4,3.3,10.8c0.7,1.3,1.1,3,1.1,4.5
					c0,1.7,1,3.1,1.1,4.5c0.3,6.3,1.9,12.5,1.2,18.8c-0.5,4.3-1.7,8.4-4.1,12.1c-0.3,0.4-0.2,1-0.3,1.5c0.5-0.2,1.1-0.4,1.6-0.6
					c3-1.6,6.7-5.2,8.3-8c1.1-2.1,2.1-4.3,3.4-6.3c1-1.5,1.1-2.9,1.1-4.5c0-1.8,0-3.7,0-5.5c0.1-5.6-1.5-10.6-4.8-15.1
					c-0.9-1.2-0.6-2.4-0.6-3.6c0-0.3,0.5-0.9,0.9-1c0.4,0,1,0.3,1.2,0.6c3.1,4.6,5.3,9.5,7.3,14.6c0.8,2.2-0.2,4.4,1.4,6.6
					c0.8,1.1,0.3,3.4,2,4.7c0.3,0.2,0.4,0.9,0.4,1.4c0.4,3,0.9,5.9,1.1,8.9c0.2,2.9,0,5.9,0.1,8.8c0,0.9,0.3,1.7,0.4,2.6
					c0.5-0.2,1.3-0.8,1.5-0.6c0.9,0.8,2.2,1.5,0.7,3c-3,2.9-1.3,6.4-1.2,9.6c3.2,2.3,2.1,5.8,1.5,8.5c-1,4.6-2.1,9.3-4.1,13.7
					c-2,4.3-2.6,9.3-4.7,13.5c-4.4,8.9-8.3,18.1-15.1,25.8c-3,3.4-6.2,6-9.9,8.2c-2.8,1.7-6,3.6-9.7,3.2c-0.5,0-1,0.3-1.5,0.4
					c0.5,0.5,0.9,1,1.4,1.6c0.1,0.1,0.3,0.2,0.5,0.2c3.5,0.4,7.2,1.5,10.5,0.9c4.2-0.7,8.7-0.3,12.5-3.1c3.6-2.6,7.1-5.1,8.1-9.9
					c0.3-1.3,1.3-2.4,1.8-3.6c1.6-3.7,3.2-7.5,4.6-11.3c0.4-1,0-2.2,0.1-3.3c0.3-3.2,0.3-6.5,1.2-9.4c1-3,3-5.7,4.6-8.5
					c0.1-0.3,1.2-0.4,1.4-0.1c1,1.1,2.4,1.3,3.2,2.9c3,5.8,3.7,11.5,1.4,17.6c-1.3,3.4-3.1,6.6-5.8,9.2c-1.2,1.2-1.9,3-3.2,4.1
					c-2.6,2.4-2,5.1-1.2,7.9c0.7,2.3,1.9,4.5,1.7,7c-0.1,0.9,0.2,1.7,0.3,2.6c0.6-0.5,1.3-1,1.9-1.5c1.7-1.3,3.3-2.6,5.1-3.7
					c0.2-0.1,1.3,0.5,1.4,0.9c0.3,1.9-0.7,3.5-1.9,4.7c-3.4,3.5-4.9,7.7-4.6,12.4c0.1,2.8-1.4,5.1-2.9,7c-1.5,2-3.2,3.9-6.1,4.9
					c-3,1-5.9,1.8-9.1,2c-8.2,0.5-15.3-0.1-23.6-3.4c-5.4-2.2-9-6.4-11.2-11.8c-0.1-0.3,0-0.9,0.2-1c0.4-0.2,1.2-0.5,1.4-0.2
					c1.7,1.4,3.3,2.8,4.8,4.3c2.6,2.5,6.2,3.2,9.3,4c4.6,1.2,9.4,2.1,14.3,1.4c0.8-0.1,1.8-0.5,2.3-1.1c3.2-4.4,7.2-8.1,9.4-13.1
					c0.8-1.7,1.8-3.4,2.1-5.2c0.4-2,0.3-4.2-1-6.2c-0.7-1.1-1.2-1.1-2.1-0.5c-0.4,0.3-0.8,0.7-1.2,1.2c-4,4.6-9.2,6.1-15.1,6.2
					c-4,0-8.1,0-12.1,0c-3.6,0-6.8-1.3-9.7-3.2c-3.5-2.3-7-4.5-10.3-7c-2.2-1.7-3.6-4.2-4.8-6.8c-1.5-3.2-3.5-6.3-5-9.5
					c-2-4.3-4.6-7.9-8.9-10c-0.4-0.2-0.3-1.3-0.4-2c2.5-0.3,4.3,0.4,6.3,2.3c4.1,3.8,7,8.2,9.2,13.3c1.6,3.7,4,7,7,9.8
					c1.7,1.5,3.5,2,5.7,2.3c6.5,0.8,12.2-1.5,17.4-4.6c3.3-2,5.9-5.4,8.4-8.5c4.9-6.4,8-13.9,11.6-21c0.1-0.3,0.2-0.5,0.3-0.8
					c-0.5-0.1-1.2-0.4-1.5-0.2c-3.6,3.1-8.4,4-11.9,7.3c-0.3,0.3-1,0.1-1.5,0.2c0-0.6-0.3-1.4,0-1.8c0.8-1.2,1.9-2.1,2.9-3.2
					c0.1-0.2,0-0.7-0.2-1c-0.2-0.2-0.7-0.5-0.9-0.4c-5.6,1.9-11.4,2.6-17.3,2.1c-4-0.3-7.9-1-11.8-2c-1.9-0.5-2.6-1.8-3.8-2.8
					c-0.2-0.2-0.2-1.1,0.1-1.4c0.3-0.3,1-0.3,1.4-0.3c0.3,0,0.5,0.7,0.8,0.7c6.1-0.6,12.1,3.2,18.3,0.4c1.3-0.6,3.6-0.8,5.1,0.9
					c0.1,0.1,1.2-0.4,1.6-0.7c0.1-0.1-0.3-0.9-0.5-1.3c0-0.1-0.4,0.1-0.5,0c-2.9-3.4-6.7-3.6-10.8-3.3c-1.4,0.1-2.7-0.4-4-0.8
					c-5.4-1.3-10.5-3.6-16.2-3.7c-1.3,0-2.6-0.8-4-1c-1.3-0.2-3,0.5-3.8-0.1c-1.9-1.4-3.9-2.2-6.2-2.4c-0.1,0-0.3-0.6-0.3-0.9
					c0-0.3,0.2-0.7,0.5-0.9c0.3-0.2,0.7-0.1,1.1-0.1c1.6-0.1,3.2-0.2,4.8-0.3c-0.7-0.5-1.5-1-2.2-1.6c-0.7-0.5-1.5-0.9-2.2-1.4
					c-3.3-2.5-6.5-5.2-8.6-8.8c-1.1-1.9-2.3-3.6-4.9-3.4c-0.7,0.1-1.5-0.9-2.3-1c-1.7-0.2-2.7-1.1-2.6-2.7c0-0.3,1.9-0.4,2.8-0.7
					c0.5-0.2,1-0.7,1.4-1.1c-0.5-0.4-0.9-0.9-1.4-1.1c-0.5-0.2-1.1,0-1.6,0c-0.3,0-0.8,0-1-0.2c-0.2-0.2-0.3-0.6-0.3-0.9
					c0-0.3,0.2-0.8,0.4-0.9c0.5-0.2,1.1-0.2,1.6-0.1c6.8,0.6,11.9-2.8,17.2-6.4c5.3-3.5,7.8-8.6,10.5-13.8c0.7-1.4,1.7-2.6,2.6-3.9
					c0.2-0.3,0.2-0.8,0.2-1.2c-0.5,0.1-1.2,0-1.5,0.3c-2.4,2.3-4.9,4.5-7,7c-2.8,3.3-6.9,4.9-10.1,7.7c-1.2,1-3.2,1.3-4.9,1.4
					c-2.4,0.2-4.8,0.1-7.1,0c-0.8,0-1.8-0.4-2.3-0.9c-0.8-0.8-2.7-1.6-1.7-2.9c1-1.3,2.6-0.8,3.7,0.6c0.9,1.2,2.2,1.5,3.4,0.9
					c5.4-2.7,11.2-4.8,15.3-9.6c2.3-2.7,5.9-4.4,7.9-7.2c1.8-2.5,4.3-3.9,6.3-6c0.3-0.3,0.5-0.7,0.8-0.8c5-1.5,7.2-5.5,9.7-9.6
					c1.7-2.9,2.2-6.1,3.4-9.1c3.3-8.2,3.7-16.9,3.3-25.6c-0.1-3.5-3.1-7.8-6.7-9.7c-0.3-0.2-1.3,0.2-1.5,0.6
					c-0.4,0.7-0.6,1.7-0.6,2.5c-0.1,3.5-0.2,7,0,10.5c0.5,7.9-2.7,15-4.4,22.4c-2.9,3.8-4.5,8.4-7.4,12.4
					c-6,8.2-14.1,13.4-22.6,18.4c-4.9,2.9-10,5.2-15.3,7.1c-2.7,1-5.6,1.8-8.7,1.7c-5.5-0.2-11,0-16.5-0.1c-0.4,0-0.9-0.5-1.1-0.8
					c-0.1-0.2,0-0.8,0.2-1c1.1-0.9,2.1-1.9,3.3-2.5c7.2-3.5,14.4-6.8,18.9-14.1c2.3-3.7,5.4-6.9,8.1-10.5c0.3-0.4,0-1.7-0.2-1.8
					c-0.9-0.2-2-0.2-1.6-1.5c0.1-0.4,1.1-0.5,1.6-0.9c2.7-2,4.2-6.1,3.9-10.1c-0.3-3.8,1.1-7.2,1.7-10.8c1.1-5.8,2.5-11.7,1.3-17.5
					c-0.6-3.2-1.1-6.4-0.8-9.5c0.5-5.6-0.9-11.1-1.4-16.6c-0.2-2.2-0.3-4.6-1-6.7c-0.8-2.3-0.8-4.5-1-6.7c-0.1-0.8-0.9-1.4-1.3-2.2
					c-0.4-0.8-0.7-1.6-0.8-2.4c0-0.3,0.4-0.8,0.8-1.1c0.2-0.1,1,0.1,0.9,0.2c-0.1,2.3,2.9,2.9,2.8,5.6c-0.1,2.4,1.5,4.8,2.3,7.2
					c0.2,0.5,0.7,0.9,0.8,1.3c0.4,2-0.4,4.1,0.9,6.3c0.9,1.5,0.5,4,1.2,6.1c0.6,2.2,0,4.7,0.2,7.1c0.3,5.7,0.7,11.4,1.1,17.2
					c0.4,5.5-1.8,10.7-2.5,16c-0.1,1-0.6,2-0.8,3c-0.1,1.1,0.2,2.3-0.1,3.3c-0.3,0.9-1.9,1.8-0.5,2.6c1.4,0.9,2.3-0.7,2.8-1.7
					c2-4.5,4.2-8.8,4.7-14.1c0.4-4.1,1-8.5,3-12.4c1.7-3.5,0.9-7.4,1.2-11.1c0.3-4.1-0.8-7.6-2.7-11c-1.8-3.3-3.1-6.9-5.2-9.9
					c-2.6-3.9-2.1-8.1-2.1-12.3c0-0.3,0.6-0.9,1-0.9c0.4,0,1.1,0.5,1.1,0.7c-0.5,3.5,0.8,6.5,2.3,9.6c0.7,1.5,1.3,3.2,2.3,4.5
					c3.2,4.1,5.4,8.7,7,13.6c0.2,0.6,0.6,1.3,0.6,1.9c-0.3,5.4,0.7,10.9-1.9,16.3c-1.7,3.5-2.3,7.7-2.4,11.6
					c-0.1,6.3-2.7,11.3-6,16.3c-2.4,3.7-5.2,7.1-8.1,10.4c-3,3.4-5.3,7.3-8.1,10.9c-3.6,4.5-7.9,8.4-12.6,11.7
					c-0.5,0.4-1.5,0-2.1,0.2c-0.3,0.1-0.7,0.8-0.7,1.2c0,0.3,0.7,0.9,1,0.9c2.4-0.3,5.1-0.2,7.2-1.2c2.8-1.3,5.9-1.7,8.6-3.2
					C20.3,130.8,24.1,129,39.5,108c12.1-19.2,12.2-19.4,12.1-19.5c-0.2-0.6-0.4-1.2-0.6-1.8c-0.5,0.5-1.5,1.1-1.5,1.5
					c0.2,1.6-0.6,2.7-1.2,3.9c-2.5,5-4.8,10.1-7.6,15c-4.6,7.9-8.3,12.9-12.9,17.1c-0.3,0.3-0.5,1.1-0.4,1.4
					c0.6,1.6,0.9-0.1,1.3-0.2c1.7-0.8,3.4-1.6,4.9-2.7c2.4-1.8,4.7-3.8,6.9-5.8c2-1.8,4.6-3.6,2.3-7c-0.1-0.1,0.6-1,1.1-1.3
					c1.5-1,2.4-2.3,3.4-3.8C50.7,100,50,94.3,39.5,108"/>
			</g>
			<path id="Fill-8" class="st0" d="M61.4,353.6c0.4-0.3,0.9-0.6,1.3-0.9c-0.5-0.1-1-0.4-1.4-0.3c-0.5,0.1-1,0.4-1.5,0.7
				C60.2,353.2,60.7,353.4,61.4,353.6L61.4,353.6z M98.9,188.2c-1.8,0.2-3.9,0-6.3,0.9c-2.1,0.9-4.8,0.9-7.2,1.1
				c-5.6,0.4-10.2,3.1-14.8,5.4c-5.8,2.9-10.7,7.7-15.1,12.6c-0.2,0.2-0.3,0.6-0.4,0.9c0.5,0,1.2,0.1,1.6,0c0.5-0.2,0.8-0.8,1.2-1.1
				c3.7-2.8,7.6-5.3,11.6-7.7c5-2.9,10.3-5.1,15.9-6.6c2.6-0.7,5-2.5,7.9-2.2c2.1,0.3,3.7-0.7,5.5-1.3c1-0.3,1.9-0.6,2.9-0.9
				c0.6-0.2,1.2-0.4,1.8-0.6c-0.7-0.2-1.3-0.4-2-0.5c-0.7-0.1-1.5,0-46.4,22.4v-1.5c-0.7,0.5-1.3,1-2,1.4c0.3,0.3,0.6,0.8,0.8,0.7
				C54.5,211.2,54.9,210.8,98.9,188.2L98.9,188.2z M52.5,351.2H53c-0.1-0.3-0.2-0.6-0.3-0.8c-0.1-0.1-0.4,0.1-0.7,0.2
				c0.2,0.2,0.3,0.4,3.6,1.3c-0.9-0.4-1.2-0.6-1.6-0.6c-0.3-0.1-0.7,0-1,0c0.3,0.4,0.4,0.9,0.8,1C54.1,352.4,54.7,352.1,52.5,351.2
				L52.5,351.2z M106,181.6c2.8,0,5.5,0.1,8.3,0c5.2-0.3,10.5-0.1,15.5-1.3c3.6-0.8,7.1-0.8,10.6-0.9c6.4-0.1,11.7,2.7,16.6,6.5
				c2.5,1.9,6.4,10.3,7.4,13.4c1,3,1,5.9,0.9,8.9c0,0.3-0.7,0.8-1.1,0.8c-0.4,0-1-0.5-1-0.8c-0.2-1,0.2-2.6-0.4-3.1
				c-2.8-2.8-2.3-6.9-4.3-9.8c-1.3-1.9-3.3-3.5-5-5.1c-2.9-2.7-6.2-4.5-10.4-4.2c-3.3,0.2-6.6,0-9.9,0c-0.9,0-1.9-0.1-2.7,0.1
				c-0.6,0.2-1.1,1-1.6,1.5c0.5,0.2,0.9,0.4,1.4,0.5c2.8,0.9,4.9,3.2,8,3.4c0.2,0,0.5,0.6,0.5,0.8c-0.1,0.5-0.4,1.2-0.7,1.2
				c-2,0.1-4.2,0.6-6,0c-6.4-2.2-13-0.7-19.4-0.8c-2.7-0.1-5.5,1.6-8.1,2.8c-10.4,4.7-12.4,6-20.6,12.8c-3.4,2.8-7.2,5.2-10.3,8.3
				c-4.2,4.1-8.2,8.6-11.8,13.3c-1.3,1.8-2.6,3.2-4.5,4c-0.6,0.2-1.2,0.2-1.9,0.4c0-0.6-0.1-1.4,0.2-1.9c2.5-4.7,5.5-9.2,8.8-13.5
				c3.5-4.4,7.5-8.3,11.4-12.3c0.3-0.3,0.1-1,0.1-1.5c-0.4,0.1-0.8,0.2-1.2,0.4c-9.4,5.4-18.1,11.7-25.4,19.8
				c-1.4,1.5-0.5,3.1-0.8,4.6c-0.2,1-1.2,1.7-1.8,1c-1.2-1.2-3-2.2-2.6-4.4c0-0.3-0.3-0.6-0.5-0.9c-0.3,0.2-0.6,0.4-0.8,0.7
				c-0.7,1.5-1.9,3.1-1.9,4.7c0,1.9-1.3,3.3-1.2,5c0.1,1.8-0.8,3.4-1,5.1c-0.6,4.6,0.7,9,2.1,13.4c0.2,0.8,0.8,1.5,1.1,2.3
				c0.8,2.3,0.7,2.3,2.6,0.9c0.8-0.6,1.5-2.1,2.6-1c0.9,0.9,0.4,2.2-0.4,3.3c-4.1,5.7-7.7,11.8-10.6,18.2
				c-3.6,8.1-6.9,16.2-9.5,24.7c-0.9,2.8-1.4,5.7-2.6,8.3c-1.1,2.3-1.1,4,0.8,5.7c2.3,2,3,5,4.3,7.6c2.1,4.2,4.9,8,8.1,11.5
				c5.8,6.4,5.9,5.9,10.4,8c3.1,1.4,6.6,1.8,9.9,2.8c4.9,1.4,10,2.5,14.1,5.9c1.9,1.6,4.1,2,6.4,1.8c1.3-0.1,2.6-0.1,3.8,0
				c0.3,0,0.9,0.6,0.9,1c0,0.4-0.4,1-0.8,1.1c-0.9,0.2-1.8,0-2.7,0.1c-0.7,0.1-1.3,0.4-1.9,0.6c0.3,0.6,0.5,1.3,0.8,1.9
				c0.4,0.9,1,1.8,1.3,2.7c0.1,0.4-0.2,1.2-0.5,1.3c-0.3,0.2-1-0.2-1.5-0.3c-0.2-0.1-0.3-0.2-0.4-0.4c-1.6-1.6-2.9-3.8-4.7-4.5
				c-2.3-0.8-5.1-0.5-7.6-0.2c-5.5,0.8-10.4-1.8-15.6-2.3c-4.7-3.3-10.1-5.8-12.7-11.5c-1.3-2.8-3.8-5-5.3-7.7
				c-2.6-4.6-5.7-8.9-6.7-14.3c-0.1-0.7-0.4-1.3-0.8-1.9c-0.7-1.1-1.7-1.4-2.6-0.2c-0.5,0.7-0.8,1.5-1.2,2.2
				c-0.1,0.2-0.7,0.4-0.9,0.3c-0.4-0.2-1-0.6-1-0.9c-0.1-2.9-0.8-6.1,0.1-8.7c1.2-3.2,1-6.5,1.8-9.7c1.9-6.9,3.7-13.8,6.8-20.3
				c2.2-4.8,4.8-9.4,7.6-14c1.1-1.8,2.6-2.9,3.8-4.5c2-2.6,2.1-3.8,0.3-6.8c-0.7-1.3-1.3-2.8-1.7-4.2c-1.5-5.5-3.2-11-2.1-16.7
				c0.8-4.5,1.9-9,3.7-13.3c2.2-5.3,5.2-10.1,8.5-14.6c4.6-6.2,9.5-12.5,16.7-16.2c1.8-2.9,5.3-3.4,7.8-5.2c2.3-1.6,5.4-2,8.1-2.9
				c2.1-0.7,4.2-1.4,6.4-1.8c2.9-0.5,5.9-0.9,8.9-1.1c2.9-0.2,5.9,0,8.8,0H106z"/>
			<path id="Fill-10_1_" class="st0" d="M289.3,582.5c-2.9,0-5.9-0.1-8.8,0c-3,0.1-5.6,2-8.4,2.1c-5,0.2-9.4,3.1-14.5,2.4
				c-0.2,0-0.7,0.8-0.7,1.2c0,0.4,0.6,0.9,0.9,0.9c1.6,0.1,3.8-0.6,4.8,0.2c2.3,1.7,5,0,6.7,1.1c2.5,1.6,4.9,0.8,7.3,0.9
				c5.7,0.2,11.4,0,17,0.1c1.9,0,4-0.8,5.6,1.1c3.3-0.7,6.2,1.1,9.4,1.1c1.8,0,2.3-0.6,2-2.2c-0.1-0.4-0.2-0.8,0-1.1
				c0.4-0.5,0.9-0.8,1.3-1.2c0.3,0.4,0.7,0.7,0.8,1.1c0.8,4.4,0.8,4.4,4.9,4.4c2,0,3.5-0.2,4-2.5c0.2-0.9,1.4-1.6,2.1-2.4
				c0.8-1,1.2,0,1.5,0.4c0.4,0.5,0.7,1.2,0.7,1.9c0.1,1.5,0.7,2,2,1.2c3.5-2.1,7.7-1.7,11.4-3c1.5-0.5,3.3-1.5,4.4-1
				c3.2,1.5,6.8,1.2,9.9,2.8c3.3,1.7,7,1.8,10.5,2.4c4.5,0.8,8.8-1.1,13-3c0.7-0.3,2.1-0.1,1.7-1.4c-0.3-0.8-1.3-1.7-2.2-2
				c-0.9-0.3-2.1,0-3.1,0.4c-2.4,1-4.6,0.7-7.1-0.1c-4.3-1.2-8.1-3.5-12.3-4.9c-2.6-0.9-5.2-2.1-7.9-2c-6.3,0.1-12.5,0.7-18.8,1
				c-0.5,0-0.9,0.4-1.4,0.5c-5.9,2.2-12,1.6-18,1.6c-2-2.3-4.9-0.2-7.1-1.5c-2.4-1.5-4.9-0.4-7.4-0.7
				C292.2,582.3,290.7,582.5,289.3,582.5 M323.5,623.2c0,0.1,0,0.2,0,0.3c5.3-0.5,10.7-0.9,16-1.5c1-0.1,1.9-0.8,2.9-1.1
				c7.8-2.2,14.6-6.4,20.3-12c3.2-3.1,5.9-6.7,9.1-9.9c0.2-0.2,0.4-0.5,0.6-0.8c-0.3-0.2-0.6-0.4-0.9-0.4c-1.3-0.1-3-0.5-3.8,0.1
				c-1.7,1.3-3.2,1.1-5,0.6c-1.8-0.5-3.7-0.8-5.6-1.2c-3.8-0.9-7.6-2.2-11.5-2.8c-5-0.7-9.6,1.6-14.5,2.1c-1,1.6-2.6,1-4,1.1
				c-4,0.4-5.3,1.8-5.4,5.6c0,0.9,0,1.8-0.1,2.7c0,0.2-0.6,0.5-0.8,0.5c-0.5-0.1-1.2-0.4-1.2-0.7c-0.1-1.8-0.1-3.6-0.2-5.5
				c-2-0.1-3.9-0.2-5.9-0.5c-0.6-0.1-1.1-0.9-1.8-1c-2.4-0.5-3,0-3.3,2.5c-0.1,0.6-0.5,1.8-0.6,1.8c-1-0.1-2.1-0.3-2.9-0.8
				c-0.8-0.5-1.3-1.3-0.4-2.2c1.7-2,0.5-2-1.3-2.5c-1.9-0.5-3.7-1.1-5.6-1c-0.9,0.1-1.9,0.2-2.7,0c-6.2-1.3-6.2-1.3-12.3,0
				c-1,0.2-2.6,0.4-3.2-0.1c-1.3-1.3-2.7-0.9-4.1-0.9c-2.4-0.1-5.1,0.7-7.1-0.2c-2.3-1-4.9,0-6.6-1.3c-2.1-1.6-4.4-0.2-6.6-1.6
				c-2.3-1.4-5.8-1-8.8-1.3c-0.8-0.1-1.7,0.2-2.6,0.4c0.7,0.4,1.3,0.8,2,1.2c0.9,0.5,1.8,1,2.7,1.6c7.1,5.3,14.2,10.5,20.6,16.5
				c5.6,5.2,12.5,6.5,19,8.9c4.6,1.7,9.7,0.9,14.5,2.2c2,0.6,4.4,0,6.6,0.1c2.2,0.2,4.5,0.9,6.7,1
				C318.3,623.4,320.9,623.2,323.5,623.2 M238.4,585.8c1.5,0.1,4.1-0.7,6.3,1l8-1.9c1.9-0.9,3.8-1.5,6-1.4c1.7,0,3.9-0.1,4.9-1.1
				c1.8-1.8,4.5,0.2,5.8-2.1c2.3,0.8,4.2-0.6,6.1-1.3c2.1-0.8,4.3-0.3,6.2-1c3.5-1.4,7.1-0.9,10.6-0.9c2,0,3.9,1.3,6.2,1.1
				c1.9-0.2,3.7,0.3,5.6,0.9c3.3,1,7,0.9,10.5,1.3c2.3,0.2,4.6,0.1,6.7-1.1c2.1-1.3,4.4-1.2,6.7-1.1c3.2,0.2,6.1-1.6,9.5-1.2
				c3.1,0.4,6.2,0.2,9.3,0.1c3.2-0.1,6.2,0.7,9,2.2c2.1,1.1,4.2,2.3,6.3,3.3c2.8,1.3,5.7,2.1,9,2.5c3.2,0.3,7.2-0.3,9.7,3.1
				c3-0.7,4.8,2.9,7.9,2.2c0.3-0.1,0.9-0.1,1,0.1c0.6,1.2,1.1,2.5,1.6,3.7c-0.9-0.2-2-0.1-2.6-0.6c-1.5-1.6-3.6-1.5-5-0.9
				c-2.2,0.9-4.6,2.3-5.9,4.2c-2.6,3.8-6.2,6.8-8.7,10.7c-0.9,1.3-1.7,2.6-2.7,3.8c-3.9,4.7-9.1,7.7-14.2,10.8
				c-4.1,2.5-8.5,4.5-13.5,4.5c-1.3,0-2.7,0.6-3.9,1.1c-0.6,0.3-1.1,0.9-1.6,1.4c0.7,0.2,1.5,0.4,2.1,0.8c0.5,0.3,0.7,1,1.1,1.4
				c-0.4,0.2-0.8,0.6-1.3,0.7c-0.5,0.1-1.4,0.2-1.6-0.1c-1.7-2.7-4.4-2-6.9-2.1c-4.4,0-8.8-0.1-13.2,0c-2.3,0-4.5-0.3-6.8,1
				c-1.7,1-4.3-0.9-6.1,1.2c-5.3-1-9.8,3.2-15,2.2c-1.3-0.2-2,0.5-2.8,1.2c-0.6,0.5-1.5,0.8-2.3,0.9c-0.4,0.1-1.2-0.3-1.3-0.6
				c-0.1-0.4,0.1-1.1,0.4-1.4c0.9-0.8,2-1.8,3-1.9c3.1-0.1,5.4-2.5,8.3-2.6c3.5,0,6.2-2.4,9.5-2.4c0.2,0,0.4-0.4,0.6-0.6
				c-0.3-0.1-0.6-0.4-0.9-0.4c-2.4-0.4-4.8-0.7-7.2-1.1c-2.2-0.4-4.5-0.6-6.7-1.1c-2.8-0.7-5.6-1.5-8.2-2.8c-4.5-2.2-8.9-4.4-12.7-8
				c-5.1-4.7-10.4-9.3-15.8-13.6c-2.1-1.7-4.1-3.4-6.1-5.1c-1.8-1.6-3.9-3.1-5.7-4.7c-1.8-1.6-3.7-2-5.7-0.6c-2.5,1.6-4.8,3.4-7.3,5
				c-0.3,0.2-1.1,0.1-1.4-0.2c-0.3-0.3-0.4-1.2-0.2-1.4c2.6-2.4,5.1-5.1,8.2-6.9C232.6,585.1,235.2,585.8,238.4,585.8"/>
			<path id="Fill-12_1_" class="st0" d="M223.6,391.2c-0.1-0.1-0.3-0.3-0.4-0.4c-0.1,0.2-0.3,0.5-0.3,0.7c0,0.1,0.2,0.2,0.3,0.4
				C223.3,391.7,223.4,391.5,223.6,391.2 M220.4,412.5c-0.3-0.4-0.5-0.6-0.7-0.9c-1.4-2.8-1.4-5.7,0-8.5c0.1-0.2,0.4-0.3,0.4-0.4
				c-0.2-0.3-0.6-0.9-0.6-0.8c-3.1,1.3-6.4,2.1-9.2,4.1c-1.1,0.8-1.1,1.5-0.2,2.7c2.2,2.8,5.2,3.9,8.4,4.9
				C218.9,413.7,219.7,412.9,220.4,412.5 M255.7,406.7c0.6,2-0.5,4-1.5,6.1c-0.4,0.9-0.4,2-0.6,3c1,0,2,0.2,3,0.1c1-0.1,2-0.8,3-0.7
				c4.7,0.7,9.2-1.4,13.8-1.2c0.3,0,0.8-0.2,0.9-0.4c0.1-0.5,0.1-1.2-0.2-1.4c-2-1.7-4.2-3.3-6.1-5.1c-2.7-2.6-5.7-4.6-9-6.2
				c-1.4-0.7-2.9-1.2-4.4-1.7c-0.6,1.6,0.7,2.6,1,3.9C255.9,404,255.7,405.2,255.7,406.7 M237.7,417.3c2.6,0,4.8,0.1,7,0
				c3-0.2,5.6-1.7,6.1-4.6c1.1-5.3,0.9-10.5-2.4-15.2c-0.8-1.1-1.8-1.2-2.9-1c-0.7,0.1-1.3,0.3-2,0.5c0.2,0.6,0.3,1.5,0.7,1.8
				c2.5,1.6,2.8,4,2.5,6.7c-0.1,1.1,0,2.2,0,3.3c-0.1,2.3-4.7,7.3-7,7.5c-2.4,0.2-4.8,0.3-7.1-0.1c-1.2-0.2-2.5-1.4-3.3-2.5
				c-0.9-1.2,0.6-1.8,1.2-2.6c1.6-2.4,1.2-5.6-1.2-6.8c-1.5-0.7-2.5-1.4-2.3-3.1c0.1-1.3-0.6-1.5-1.7-1.5c-1.1,0-1.2,0.6-1.8,1.4
				c-1.7,2.4-1.4,5.1-0.8,7.3c0.9,3.6,1.8,7.8,7,7.9C232.3,418.4,235.4,416.6,237.7,417.3 M223.3,412.9c18.7,12.1,18,12.1,17.2,12.1
				c-9.9,0.6-15.1-1.3-23.4-4.6c-4.1-1.6-8.2-4.2-10-9c-0.5-1.3-1.5-2.3-3-0.6c-1,1.1-2.5,1.8-3.8,2.8c-1,0.8-1.5,0.1-2.3-0.4
				c-1.2-0.9-0.4-1.5,0.3-2c2.4-1.7,2.5-5.6,6.1-6.2c0.2,0,0.6-1,0.4-1.4c-0.4-1-0.8-2.3-1.7-2.8c-1.2-0.7-1.9,0.7-2.6,1.5
				c-1.6,1.9-4.2,3-4.8,5.7c-0.1,0.2-1,0.5-1.4,0.3c-0.3-0.2-0.5-0.9-0.6-1.4c-0.2-2.4,1.9-3.8,3.1-5.3c5.1-6.5,12.1-10.2,19.7-13.2
				c3.1-1.2,6.1-2.1,9.3-2.7c3.1-0.6,6-2.1,9.3-1.6c3.6-2.3,7.9-0.3,11.8-2c1.7-0.8,4.6-1.1,6.7,0.7c0.6,0.5,1.7,0.3,2.6,0.2
				c3.6-0.2,6.5,1.5,8.9,3.8c3.1,3,6.1,6.1,8.5,9.7c1.6,2.5,3.8,4.3,5.6,6.5c0.3,0.4,0.6,1.3,0.4,1.4c-0.5,0.4-1.3,0.8-1.8,0.6
				c-0.9-0.3-1.9-0.9-2.6-1.7c-3-3.3-6-6.6-9-10c-3.7-4.3-8.3-6.5-14.1-5.9c-1.1,0.1-2.1,0.2-3.2,0.4c0.9,1,1.8,2.7,2.8,2.8
				c4.8,0.4,8.2,3.2,12.1,5.5c5,3.1,8.4,7.8,12.5,11.8c0.7,0.7,0.9,2.1,1.7,2.5c3.1,1.6,2,5.1,3.7,7.4c0.2,0.3-0.8,1.9-1.6,2.5
				c-0.3,0.2-1.6-0.5-2.2-1c-0.9-1-1.6-3-2.4-3c-1.3,0-2.9,1-4,2c-1.1,1-2.1,1.2-3.4,1.2c-1.8-0.1-3.7,0-5.5,0
				c-0.2,0-0.3,0.4-0.4,0.7c0,0.1,0.2,0.3,0.4,0.4c1.5,0,2.9,0,4.4,0.1c0.2,0,0.5,0.6,0.5,0.8c-0.1,0.5-0.4,1.2-0.6,1.3
				c-1.3,0.1-2.6,0.1-3.8,0c-2.7-0.2-5.2,0.1-7.6,1.6c-0.8,0.5-2,0.6-3,0.6C249.3,425,246,425,223.3,412.9
				c-17.7-11.9-16.6-12.6-16.1-14.3c3.3-0.8,6.3-2.2,10.2-5.6c0.9-0.9,0.1-0.6-0.6-0.1c-0.4,0.3-0.5,0.9-0.8,1.3
				c0.4,0,0.7,0.1,1.1,0c0.8-0.2,1.7-0.4,2.4-0.8c0.3-0.2,0.4-0.7,0.6-1.1c-0.3-0.1-0.7-0.2-2.7,0.8c-4.9,1.4-7.7,2.9-10.2,5.6
				C205.5,398.4,204.3,399,223.3,412.9"/>
			<path id="Fill-14_1_" class="st0" d="M426.4,404.2c0-0.2,0.1-0.4,0-0.5c-4.2-5.1-9.2-9-15.2-11.7c-0.2-0.1-0.6,0.1-1,0.2
				c0.2,0.4,0.2,1,0.5,1.1c3.7,2.1,7,4.6,9.9,7.7c1.4,1.5,3.2,2.6,4.9,3.9c0.1,0.1,0.5,0,0.7-0.1
				C426.4,404.6,426.4,404.4,426.4,404.2 M372.4,404.6c-0.7,5.6,4.1,8.1,7.3,11.5c0.3,0.3,1.1,0.1,1.6,0c0.3,0,0.6-0.3,0.9-0.4
				c-0.2-0.2-0.3-0.5-0.6-0.7c-0.9-0.6-2.3-1-2.5-1.7c-0.2-1,0.6-2.2,1-3.3c0.1-0.3,0.7-0.5,0.7-0.8c0.1-1.6,0.5-3.3,0.1-4.7
				c-0.3-1.1-1.5-1.9-3.1-1.7c-0.3,0-1.1-0.8-1.1-1.3c-0.1-1.2,0-2.1-1.7-2c-1.5,0.1-2.3,0.9-2.7,2.1
				C372.2,402.5,372.4,403.5,372.4,404.6 M401.4,405.5c-0.5-2.2-0.8-4.5-1.5-6.6c-0.9-3.1-5.6-5.1-8.3-3.5c-0.1,0.1,0,0.9,0.3,1.1
				c1.1,1.2,2.3,2.3,3.5,3.5c0.5,0.5,1.2,1.1,1.2,1.7c0.1,4.2,0.8,8.7-3.3,11.8c-0.8,0.6-2,2.1-1.9,2.2c1.1,1.2,1.7-0.3,2.6-0.6
				c0.5-0.2,1.1-0.2,1.6,0c2.7,1,3.3-1.3,4.3-2.8C401.3,410.3,401.1,407.9,401.4,405.5 M369.8,417.3c0.9,0,1.3,0,1.6,0
				c0.7-0.1,1.3-0.3,2-0.4c-0.4-0.5-1-1-1.3-1.6c-1.6-3.4-4.9-6.5-2-10.9c0.6-0.9-0.4-1.8-1.5-1.4c-1.4,0.5-2.8,1.2-4,2.2
				c-2.6,2.2-5.1,4.5-7.5,7c-0.8,0.8-0.1,2.7,0.9,2.9C362.2,415.8,366.2,416.6,369.8,417.3 M404,413.8c1.8-0.5,2.7-1,3.5-0.9
				c2.6,0.2,4.7-1.2,7-1.8c2.5-0.7,4.9-1.1,7.2-2.5c1.5-0.9,1.6-1.1,0.4-1.8c-4.9-2.8-9.4-6.3-14.6-8.3c-0.9-0.3-1.6-2-2.6-0.8
				c-0.5,0.6,0,1.9,0.1,2.9c0.1,0.7,0.5,1.3,0.6,1.9c0.1,2.8,0.2,5.6-1.6,8.1C403,411.8,404,413.8,404,413.8 M398.7,420.8
				c-22.8,4.2-25.8,4.2-28.7,4.2c-1.5,0-2.8,0-3.9-1.4c-1.4-1.8-3.4-0.5-5.1-0.9c-0.6-0.1-1.2-0.5-1.7-0.8c0.4-0.5,0.7-1.2,1.1-1.3
				c1-0.2,1.3-0.6,0.4-1.2c-0.7-0.5-1.5-1-2.3-1c-1.3,0-2.4-0.3-3.4-1.3c-0.5-0.6-1.5-0.7-2.3-0.9c-0.8-0.3-2.1-0.3-2.3-0.8
				c-0.7-1.7,1.3-1.1,1.9-1.8c0.7-1,1.4-2,1.9-3c3.4-6.7,8.6-11.5,14.9-15.4c4.6-2.9,9.6-4.3,14.5-6.1c3.1-1.1,6.6-1,9.8-1.5
				c0.3,0,0.6-0.4,0.8-0.5c-0.3-0.2-0.6-0.5-0.9-0.5c-4.8,0-9.7-0.8-14.3,0.2c-4.7,1.1-9.4,3.1-13.5,5.9c-3.8,2.7-7.8,5.2-11.7,7.9
				c-5.2,3.7-7.8,8.6-10.4,13.9c-0.8,1.7-1.7,3.3-2.7,4.9c-0.1,0.2-0.8,0.3-1,0.1c-0.3-0.3-0.8-0.9-0.7-1.2
				c2.5-7.6,4.6-15.4,11.4-20.6c3.7-2.8,7.6-5.5,11.6-7.8c4.1-2.4,8.4-4.5,12.7-6.6c3.2-1.5,6.9-2.5,10-2.1c7.3,1,14.7,1.3,21.7,4.7
				c5,2.4,9.9,4.7,14.4,7.9c2.6,1.9,5.2,3.5,6.5,6.6c0.3,0.8,1.3,1.3,1.9,2c1.6,1.9,1.6,3.8,0,5.6c-1.7,2.1-4.2,3.1-6.5,4.3
				c-0.5,0.2-0.8,0.8-1.2,1.1c0.6,0.2,1.1,0.4,1.7,0.5c0.5,0.1,1.1,0,1.6,0c0.8,0.1,2-0.6,2.2,0.9c0.2,1.9-1.3,1.1-2.3,1.3
				c-0.8,0.2-1.6,0.5-2.4,0.9c-0.5,0.2-0.9,1.1-1.2,1.1c-4.2-0.7-7.5,3.2-11.7,2.5c-1.6-0.3-3.1,0.1-4.5,1.1c-2.5,1.8-5.7,1.6-8.5,2
				c-3,0.4-5.9,1.2-8.9,1.3C385,425.1,381.9,425,398.7,420.8c20.9-4.8,22-5.3,23-5.9c0.2-0.1,0.4-0.3,0.4-0.4
				c-0.1-0.2-0.3-0.5-0.5-0.5c-1.1-0.1-2.2-0.2-3.3,0c-0.6,0.1-1.1,1-1.6,1.5C417.1,415.8,417.7,416.1,398.7,420.8"/>
			<path id="Fill-16_1_" class="st0" d="M267.6,357.4c-0.1-0.2-0.3-0.5-0.4-0.7c-0.1,0.1-0.4,0.3-0.3,0.4c0.1,0.3,0.2,0.5,0.3,0.7
				L267.6,357.4z M238.2,357.4c0.1,0.1,0.3,0.3,0.4,0.4c0.1-0.2,0.3-0.5,0.3-0.7c0-0.1-0.2-0.2-0.3-0.4
				C238.5,356.9,238.3,357.2,238.2,357.4L238.2,357.4z M226.1,355.6c-0.6-0.7-1.2-1.4-1.8-2.2c-0.5,0.5-1,1-1.5,1.5
				c0.9,0.6,1.7,1.2,2.6,1.8C225.6,356.4,225.7,356.2,226.1,355.6L226.1,355.6z M208,365.8c-1.2-1.1-1.9-1.7-2.6-2.3
				c-0.5,0.7-1.3,1.3-1.4,2c-0.2,1.4,1,1.1,1.8,1.1C206.3,366.6,206.8,366.2,208,365.8L208,365.8z M256,361.1c1.1,0,2.2,0.1,3.3-0.1
				c0.3,0,0.7-0.7,0.8-1.1c0.3-0.9-0.1-1.2-1.1-1.1c-3.5,0.5-6.3-0.4-8.4-3.4c-0.3-0.4-0.8-0.9-1.2-1c-0.4-0.1-1,0.2-1.4,0.5
				c-0.2,0.1-0.1,1,0,1c2.1,0.4,1.9,2.3,2.6,3.7c0.3,0.6,1.3,1.1,2.1,1.3c1,0.2,2.2,0.1,8.8-7.6c-2.4-0.1-3.1,0.9-2.5,2.7
				c0.2,0.6,1.1,1.2,1,1.7c-0.2,1.7,1.1,1.2,1.7,1c0.6-0.2,1-1,1.6-1.4c0.7-0.5,1.5-0.8,2.2-1.2c-0.7-0.8-1.3-1.7-2.1-2.3
				C262.7,353.6,261.8,353.5,256,361.1L256,361.1z M274.3,366.2c-0.2-0.2-0.3-0.4-0.5-0.6c-0.2,0.2-0.3,0.3-0.5,0.5
				c0.2,0.2,0.4,0.4,0.7,0.5c0,0,0.2-0.2-2.4-0.7c0.7-0.4,1.4-0.5,1.7-0.9c0.3-0.5-1.2-2.8-1.5-2.6c-0.6,0.7-1.1,1.6-1.5,2.4
				C270.2,364.9,271,365.4,274.3,366.2L274.3,366.2z M221.7,350.4c-0.1-3.8,3.2-3,5.1-2.3c2.7,0.9,6,0.4,8.2,2.8
				c0.3,0.3,1,0.2,1.5,0.2c-0.2-0.5-0.6-1.1-0.6-1.6c0.1-0.6,0.5-1.6,0.8-1.6c2.5-0.2,4.9,0,7.3-1c1.2-0.5,3,0.5,4.4,1
				c0.7,0.2,0.8,1.4,2,0.3c2.7-2.2,5.4-2.2,8.5,0.4c1.8,1.5,3.7,2.3,5.2,1c2.3-1.9,3.9,0,5.3,0.7c2.3,1.2,4.3,3.1,6.2,5
				c4.5,4.1,4.3,4.2,4.3,10.3c0,1.7-0.5,2.3-2.1,2.1c-1.3-0.1-1.6,1.1-1,1.7c2.3,2.2,0.1,2.5-1.2,3.1c-4.2,1.9-8.6-0.9-8.9-5.6
				c-0.1-0.9-0.3-1.7-0.5-2.5c-1.6,0.5-2.7-0.6-4-1.1c-0.2-0.1-0.8,0.2-0.9,0.4c-0.5,1.8-0.9,3.6-3.1,4.1c0.2,0.3,0.4,0.9,0.5,0.9
				c2.7-0.8,3.6,1.2,4.6,3c0.3,0.5,0.7,1.4,1.1,1.4c2.9-0.1,4.8,3.1,7.9,2.4c0.5-0.1,1.9,1.4,1.9,2.1c0,0.7-1.1,1.9-2,2.1
				c-2.7,0.7-5.4-0.4-7.5-1.6c-2.1-1.1-5.4-1-5.8-4.4c0-0.2-0.9-0.5-1.4-0.5c-3.9,0.2-6.8-2.2-8.2-5.1c-1.3-2.6-2.3-1.6-3.6-0.9
				c-3.4,2-5.6,2.1-9.4,0.5c-3.7-1.6-7.6-1.9-11.1,0.2c-3.2,1.9-6.1,3-9.8,1.1c-1-0.5-3.1,0.2-4.4,1c-2.6,1.6-4.9,1.3-7.5,0.2
				c-0.7-0.3-2.1-0.5-2.5-0.1c-2.9,2.5-6.3,2-9.7,2c-1.4,0-1.9,0.4-1.9,1.8c0,1-0.2,2.3-0.9,2.9c-1.4,1.2-3.1,2.2-4.8,3
				c-0.5,0.2-1.6-0.5-2.3-0.9c-0.2-0.1-0.4-1-0.3-1.1c1.6-1.2,1.8-2.3,0-3.6c-0.3-0.3-0.4-1.5-0.2-1.8c1-1,2.2-1.7,3.4-2.5
				c0.6-0.4,1.8-0.4,1.8-0.7c0.3-1.9,4.2-0.8,3.1-2.9c-1.3-2.6-2.7,0.6-4.2,0.9c-2,0.4-2.4,0.4-2.2-1.8c0.1-0.8,0.4-1.7,0.8-2.4
				c1.2-1.8,4.1-1,5.1-3.8c0.7-2.1,4.1-1.8,5.7-3c2.1-1.5,2.9,0.9,4.3,0.4c0.1,0.6,0.5,1.7,0.4,1.8c-2.8,1.2-0.7,3.2-0.9,4.8
				c-0.1,0.7,0,1.5,0,2.4v-0.2c-0.3,0.1-0.6,0.2-0.8,0.3c-0.1,0.1,0.1,0.4,0.2,0.7c0.2-0.2,0.4-0.3,0.7-0.8c0.7-0.4,1.4-0.4,2-0.6
				c2.7-1.3,3-1.5,1.7-4c-0.9-1.8,0.4-2.2,1.1-3.1c1.1-1.3,2.1,1.7,2.8,0.2c0.3-0.6-0.7-1.8-1-2.8c-0.1-0.2,0.2-0.7,0.5-0.8
				c0.3-0.2,0.7-0.1,1.1-0.1c1.2-0.1,2.5-0.2,3.7-0.3c-0.3-1.1-0.7-2.2-0.8-3.3c-0.1-0.8-0.4-1.9,1.1-1.9c2.7,0,5.5-0.1,8.2,0.1
				C219.3,349.1,219.8,349.7,221.7,350.4c0.5,0,0.1-0.2-0.3-0.3c-0.3-0.1-0.7,0-1,0c0.3,0.4,0.4,0.9,0.8,1
				C221.6,351.3,222.1,351,221.7,350.4L221.7,350.4z"/>
			<path id="Fill-18_1_" class="st0" d="M513.7,364.5c-3.8,0.9-8-1.1-12.4-2.3c-1-0.3-2-0.6-2.8-1.2c-4.9-4.2-8.9-9-10.4-15.5
				c-0.6-2.7-0.9-5.4-2.1-7.9c-0.9-1.9,0.5-3.6,1.4-4.8c1.4-1.9,2.8-3.3,0.7-5.5c-1.5-8.3-6.3-14.8-11.4-21.1
				c-0.2-0.3-0.6-0.5-0.7-0.8c-0.1-0.3-0.1-0.8,0.1-1c0.2-0.2,0.7-0.5,0.9-0.4c2.3,1.2,5,1.7,6.7,3.8c3.8,4.7,7.4,9.6,9.6,15.3
				c1.3,3.1,2.2,6.4,3.5,9.6c0.5,1.2,0.7,2.3,1.7,3.2c0.9,0.9,1.9,1.7,2.7,2.7c3.5,4.5,8.5,6.6,13.4,8.9c0.6,0.3,1.3,0.5,2,0.5
				c1.9,0.1,3.8,0.4,5.7,0.9c2.2,0.6,5,0,7.2-1c4.9-2.2,9-5.5,11.6-10.3c0.2-0.4-0.2-1-0.3-1.5c-0.3,0.1-0.5,0.2-0.8,0.4
				c-3.1,1.6-6.4,2.8-9.9,2.7c-3.5-0.2-7.2,1.2-10.6-1c-3.6,0.6-6.1-2.2-9.1-3.3c-2.7-0.9-3.5-3.3-4.5-5.4c-0.3-0.5-0.1-1.8,0.3-2
				c0.7-0.3,1.7-0.3,2.5-0.2c0.4,0.1,0.7,0.8,1.2,1.1c3,1.9,6.1,2.9,9.7,3.3c5.8,0.7,5.8,1.2,9.7,0c2.2-0.7,4.4-0.2,6.8-0.9
				c4.9-1.5,8.8-3.6,10.6-8.6c0.2-0.6,1.2-0.9,1.9-1.4c0.5,0.7,1.3,1.4,1.3,2.2c0.1,2.3,0.5,4.7-1.1,6.7c-0.8,1.1-0.8,2.3-1.2,3.4
				c-1.6,5.1-2.9,10.3-7.2,14.1c-3.7,3.3-7.1,6.5-12.2,7.9c-3.1,0.8-6.2,1-9,0.5c-5.2-0.8-10.3-2.1-14.9-5.2c-3.3-2.2-6-5.1-8.9-7.8
				c-0.4-0.4-1-0.5-1.5-0.8c-0.1,0.7-0.4,1.8-0.1,2.1c1.7,1.5,1.7,3.8,3,5.4c4,5.2,7.7,7.1,14.5,8.8c1.7,0.4,3.3,1,5.1,1.1
				c1.5,0.1,3,0.7,4.5,1c1.7,0.4,3.4,0.7,5,1.1c0.4,0.1,0.8,0.7,0.8,1c0,0.4-0.4,0.9-0.8,1.1C522.2,364.8,518.4,364.3,513.7,364.5"
				/>
			<path id="Fill-20_1_" class="st0" d="M180.8,192.6c0,0.9,0.1,1.3,0,1.6c-0.7,1.2,1.6,3.9-1.3,3.8c-1.7-0.1-0.5-2.4-0.9-3.7
				c-0.7-1.9-1.4-3.8-2.3-5.6c-3.5-7.2-6.6-9.1-15-12.6c-5.4-2.2-10.8-4-16.4-5.7c-3-0.9-6-1.3-9.1-2c-1.7-0.4-3.5,0.6-5.2-0.9
				c-0.5-0.4-2.2,1-3.2,0.8c-6.6-0.8-12.1,2.9-18.2,3.9c-2.9,0.5-5.7,1.3-8.6,1.8c-3.9,0.7-7.9,0.4-11.7,1.1c-6,1-11.7,3.4-17.4,5.8
				c-5.8,2.5-10.2,7-15.9,9.5c-0.5,0.2-1,0.3-1.5,0.4c0.1-0.5,0.2-1,0.4-1.5c1.9-3.7,5-6.5,8.3-8.9c4.5-3.2,9.3-5.8,14.2-8.2
				c3-1.5,6.1-2.2,9.3-2.8c8-1.4,16.1-2.8,24-4.5c1.4-0.3,2.6-1.7,4.1-2.1c6.5-1.9,13.3-3.2,20-2.1c4.3,0.7,8.8,1.5,13,3.1
				c4,1.5,8,2.8,11.9,4.5c4.7,2,9.5,4,13.3,7.7c3-0.2,2.8,2.9,4.1,4.4C179.7,184,181.5,188.2,180.8,192.6"/>
			<path id="Fill-22_1_" class="st0" d="M311.9,129c-0.1,4.2-0.2,8.2-1.9,12.4c-1.9,4.6-5.2,6.6-9.2,8.2c-1.4,0.6-3.1,0.5-4.5,1.2
				c-3.9,1.8-7.7,3.6-11.2,6.2c-6.3,4.9-12.7,9.6-18.5,15.2c-0.4,0.4-1.2,0.3-1.8,0.2c-0.2,0-0.4-1-0.3-1.4c0.6-1.4,1-3,2-4.1
				c6.2-6.5,12.7-12.8,20.1-17.9c3.2-2.3,6.6-4.1,10.6-5.1c2.2-0.5,4.6-1.7,5.9-4.5c2.3-5.1,2.8-10,1.4-15.3c-0.8-3-1.2-6.2-1.4-9.3
				c-0.2-2.7-1.2-5-2-7.4c-2.2-6.4-6.1-11.9-9.9-17.3c-2.9-4.2-4.4-8.9-5.6-13.6c-0.6-2.3-1.8-4.6-1.3-7.2c0.5-3.2,1-6.2,3.6-8.4
				c1.1-1,2-2.1,3.2-3.1c0.4-0.3,1.2-0.2,1.8-0.3c-0.1,0.6,0,1.3-0.2,1.9c-0.4,0.9-0.9,1.9-1.5,2.7c-2.7,3.1-2.5,6.2-1.4,10.2
				c1.9,6.8,5.2,12.6,9.4,18.2c4.2,5.6,8,11.5,9.8,18.4c0.7,2.7,1.8,5.2,1.9,8c0.1,2.1,0.8,4.1,1,6.1C312,124.9,311.9,127,311.9,129
				"/>
			<path id="Fill-24_1_" class="st0" d="M242.6,133.1c-0.5,4.3-1,7.6-1.2,11c-0.1,1.7-0.7,3.6,0.9,5.1c0.4,0.4-0.3,1.9-0.7,2.9
				c-2.8,7-6.1,13.7-10.8,19.8c-2.4,3.1-2.9,7.4-5.9,10.2c-0.1,0.1-0.2,0.4-0.1,0.5c1.6,2.9-3.1,3.5-2.3,6.2c0,0.1-0.9,0.6-1.3,0.6
				c-0.3-0.1-0.9-0.7-0.8-1c0.4-2.4,1.5-4.7,1.1-7.2c2.8-3.4,2.4-8.1,5-11.7c2.5-3.5,4.2-7.5,6.8-10.9c2.5-3.3,3-6.9,3.5-10.7
				c0.5-3.5-0.4-7.1,1-10.6c0.6-1.4-0.3-3.4-0.5-5.2c-0.1-0.7-0.4-1.3-0.4-2c0.1-7.2-2.5-13.4-6.4-19.4c-2.5-3.8-4.4-8-6.7-12
				c-3.2-5.7-6-11.7-11.5-15.5c-3.8-2.7-6.5-6.4-10.6-8.8c-2.8-1.7-4.2-5-6-7.9c-0.5-0.8-1.3-1.5-0.3-2.2c0.4-0.2,1.6,0.4,2.1,0.9
				c0.7,0.7,1,1.8,1.7,2.5c3.2,2.9,6.2,6,9.7,8.4c9.5,6.8,12.8,10.2,17.7,19c3.1,5.5,6.8,10.7,9.6,16.4c2.3,4.9,5.2,9.7,5.1,15.5
				C241.4,129.2,242.3,131.6,242.6,133.1"/>
			<path id="Fill-26_1_" class="st0" d="M478.2,500.8c-0.3-5.8,1.6-10.3,5.7-13.9c2.8-2.4,4.9-5.5,6.7-8.8c1-1.8,1.1-3.2,0.1-4.9
				c-1.1-1.8-1.9-3.7-1.5-6c0.2-1.3,0-2.5-1.2-3.3c-1.6-1-0.9-2.6-0.9-4c0-0.3,0.7-0.6,1.1-0.8c0.2-0.1,0.9,0.2,0.9,0.4
				c0.1,2.2,0.2,4.3,2.4,5.6c-1,2.5,1.5,3.4,2.3,5.1c1.9,4.3,1.2,10.6-2.3,14.7c-2.2,2.6-4.5,5-6.6,7.7c-2.2,2.9-2.6,6.4-2.1,10
				c0,0.2,1.2,0.6,1.4,0.4c1.3-1.1,2.6-2.1,3.5-3.4c4.2-6.2,8.4-12.6,10-20c1-4.8,3-9.7,0.6-15c-1.3-2.9-0.8-6.6-1.3-9.9
				c-0.2-1.5-0.9-3-1-4.5c-0.4-3.7,0.8-10.6,3.3-15.7c1.3-2.8,2.4-5.7,4.5-8c0.3-0.3,1.1-0.6,1.4-0.5c1.3,0.6,0,0.9-0.2,1.4
				c-0.6,1.6,0.3,3.4-1.5,5c-1.1,1-1.5,3.1-1.6,4.7c-0.2,4.6-3.2,8.9-0.6,13.8c1.2,2.2-0.1,5.1,1,7.8c1.3,3.2,1.1,6.9,1.3,10.5
				c0.4,11.2-3.6,21-9.9,30c-2.3,3.3-4.6,6.7-8.5,8.6c-1.1,0.5-1.5,0.7-2.7,0.2C478.9,506.5,477.4,504.2,478.2,500.8"/>
			<path id="Fill-28_1_" class="st0" d="M108.2,476.8c0.4,7.5-2.9,14.2-4.6,21.3c-0.1,0.6-0.8,1.2-1.4,1.6c-0.8,0.6-0.7,1,0,1.6
				c1,0.8,1.9,1.7,2.7,2.7c0.4,0.6,0.5,1.5,0.7,2.2c-0.9,0.1-1.9,0.5-2.6,0.1c-3-1.6-5.1-6.1-3.5-9.3c2.3-4.6,1.8-9.8,4.1-14.2
				c-0.5-3.7,0.7-7.4-0.9-11.2c-0.8-2.1-0.8-4.8-1.9-6.9c-1.2-2.1,0.5-4.7-1.5-6.6c-0.5-0.5,0-2.1-0.1-3.2
				c-0.4-6.8-2.3-13.4-3.3-20.1c0-0.3-0.2-0.7-0.4-0.9c-2.6-2.6-4.9-5.5-7.8-7.7c-2.3-1.7-5.2-2.5-7.9-3.5c-0.8-0.3-1.8-0.1-2.7,0
				c-3.4,0-5.1,1.5-5.4,5c-0.2,2.5,0,4.8-1,7.3c-0.9,2.1,0.2,4.5,1.6,6.4c0.6,0.9,0.9,1.7-0.1,2.2c-1,0.4-1.1-0.8-1.6-1.4
				c-1.5-1.7-2.5-3.4-2.1-5.8c0.2-1.3-0.8-2.4-1-3.4c-0.8-4.1,0.6-8,2.7-11.4c0.8-1.3,2.2-2.9,3.6-3.1c2.4-0.5,5.2-0.5,7.5,0.2
				c4.9,1.5,9.5,3.8,13.6,6.9c3.6,2.7,5.5,6.8,6.5,11c1.2,4.9,1.8,9.9,2.5,15c0.4,3.3,0,6.9,1.1,9.9c1,2.9,1.6,5.9,2.6,8.8
				C108.3,472.3,108,474.6,108.2,476.8"/>
			<path id="Fill-30_1_" class="st0" d="M424.4,90.6c-0.6,3.6-1,7.1-1.7,10.5c-0.7,3.1-1.4,6.5-3,9.2c-1,1.8-2.1,3.6-2.7,5.5
				c-0.9,2.6-1.8,5.3-1.5,8.2c0.3,2.7,0.2,5.5,0,8.2c-0.2,2.6-0.4,5.3-1.1,7.8c-2.2,8.4-4.4,16.8-9.4,24.2
				c-4.2,6.2-10.3,9.9-16.2,13.9c-1.3,0.9-2.5,2-4,2.3c-2.2,0.5-4.7-0.4-6.7,1.2c-1.4-1.7-4.1-0.2-5.5-2.1c1.2-2.5,3.6-1.4,5.1-1.1
				c3.8,0.6,6.6-1.6,9.2-3.2c5.6-3.3,10.3-8.1,14.3-13.2c3-3.8,5-8.6,6.5-13.2c1.2-3.7,2.3-7.6,2.6-11.7c0.2-2.2-0.2-4.2-0.1-6.3
				c0-1.9,0.8-3.7,1-5.6c0.2-2-0.2-4.1,0.2-6c0.3-1.8,1.3-3.5,2.1-5.2c0.7-1.7,1.2-3.6,2.3-5.1c1.8-2.6,2.4-5.8,3.1-8.6
				c1.2-5.2,2.2-10.7,1.1-16c-0.7-3.4-0.8-6.7-1-10c0-0.8-0.4-1.8-1-2.3c-1.5-1.1-1.1-2.6-1.1-4c0-0.4,0.5-1,0.8-1
				c0.4-0.1,1.2,0.3,1.3,0.6c0.7,2.6,3,4.8,2.3,7.9c-0.2,0.8,0.2,1.7,0.6,2.5c0.4,1.1,1.3,2.1,1.5,3.2
				C423.6,84.4,424,87.6,424.4,90.6"/>
			<path id="Fill-32_1_" class="st0" d="M86.4,256.7c-12.1-0.4-22-3.1-31.3-8c-0.5-0.2-0.7-1-1-1.5c0.4-0.2,0.9-0.6,1.3-0.6
				c3.9,0.4,7.8,0.5,11.5,1.4c5.6,1.2,17,2.7,21.2,1.9c3-0.6,6.1-1.4,8.8-2.7c2.8-1.4,5.2-3.5,7.7-5.3c5.4-3.9,10.7-7.8,16.1-11.7
				c4-0.5,6.9-3.8,11.2-3.6c2.5,0.1,4.3,0.6,4.8,2.7c0.1,0.5,0.1,1.4-0.2,1.5c-0.5,0.2-1.4,0.3-1.8,0c-1.4-0.9-2.4-0.9-3.8,0.1
				c-3.2,2.3-6.8,4.2-9.8,6.7c-4.8,4-10,7.4-14.4,11.9c-1.9,1.9-4.4,3.5-6.9,4.6c-1.2,0.5-2.6,1.1-3.9,1.2
				C92.2,255.8,88.7,257.5,86.4,256.7"/>
			<path id="Fill-34_1_" class="st0" d="M84.5,240.2c-2.6-0.3-4.9-0.5-7.2-0.8c0.3-2.9,3-3.9,4.6-5.7c6.2-7.1,14.2-11.9,22.6-15.9
				c7.3-3.5,14.9-6,23.1-5.3c2.8,0.2,6,0.3,8.2,2.8c0.2,0.3,0.7,0.5,0.7,0.8c0.1,0.5,0.3,1.1,0,1.4c-0.3,0.3-1.1,0.6-1.4,0.4
				c-3-1.5-6.3-1.1-9.5-1.1c-5.1,0-9.9,1.8-14.6,3.4c-8,2.6-14.9,7.7-22,12.1c-1.2,0.7-2.2,1.9-3.2,2.9c-0.3,0.3-0.5,0.8-0.7,1.2
				c0.5,0.1,1.1,0.3,1.5,0.2c1.9-0.6,3.8-1.6,5.7-2c10.1-2.2,14.2-4.1,22.2-10.4c3.1-2.4,6.6-4.4,10.2-5.8c0.5-0.2,1-0.3,1.5-0.3
				c0.5,0,1.2,0.1,1.4,0.4c0.2,0.3,0.1,1.1-0.1,1.4c-0.7,0.9-1.4,1.9-2.3,2.3c-4.8,2-8.3,5.8-12.3,8.9c-3,2.4-6.8,3.9-10.3,5.6
				c-2.1,1-4.5,1.8-6.8,2.2C92,239.5,88.1,239.8,84.5,240.2"/>
			<path id="Fill-36_1_" class="st0" d="M39.7,326.9c0.1-1.4,0.1-2.1,0.3-2.8c0-0.2,0.6-0.4,0.9-0.4s0.9,0.2,0.9,0.3
				c0.8,5.1,4.8,7,8.9,8.8c1.5,0.7,3.2,1.2,4.9,1.6c5.8,1.2,11.7,1.8,17.6,1.4c0.3,0,0.6-0.3,0.9-0.5c-0.3-0.3-0.5-0.6-0.8-0.8
				c-4.3-2.1-8.5-4.1-13.2-5.3c-4.1-1.1-8.4-2-12.2-3.7c-3.9-1.8-8.1-3.5-10.7-7.3c-0.6-0.8-1.1-1.7-1.6-2.6
				c-1.1-2.1-2.2-4.2-3.3-6.3c1.7-2,0.9-4.4,1.1-6.7c0-0.3,0.7-0.8,1.1-0.8c0.4,0,0.9,0.5,1,0.9c0.5,2,0,4,0.9,6.2
				c1.9,5.1,6,7.7,10,10.4c3.6,2.3,7.8,3.3,11.9,4.4c7.2,2,14.3,4.2,19.5,9.9c2.1,2.3,4.3,2.8,7.2,1.9c1.5-0.5,3.1-0.5,4.7-0.7
				c0.3,0,0.9,0.6,0.9,1c0,0.4-0.4,1-0.7,1.1c-1.1,0.5-2.2,0.9-3.3,1.4c-2.3,1-5.4,1.2-5,4.9c0,0.1-0.7,0.4-0.9,0.3
				c-0.4-0.2-1-0.6-1-0.9c0.3-2-0.4-2.5-2.4-2.4c-3.8,0.2-7.7,0.3-11.5,0c-6.1-0.5-12.7-1-19.8-5.3
				C42.2,332.7,40.2,330.1,39.7,326.9"/>
			<path id="Fill-38_1_" class="st0" d="M426.5,579.6c-1.2,5-1.7,10.8-4,16.4c-3,7.4-6.8,14.5-10.5,21.5
				c-3.3,6.4-7.1,12.5-11.2,18.4c-2.1,3-5,5.4-6.5,8.9c-0.1,0.3-1,0.4-1.4,0.4c-0.2,0-0.5-0.7-0.5-1c-0.1-1.6,0.4-2.9,1.4-4.4
				c5.2-7.9,10.1-15.9,14.6-24.2c2.3-4.2,4.6-8.4,6.7-12.7c2.2-4.5,3.9-9.4,5.6-14.2c0.3-1,0.2-2.1,0.3-3.2c0.2-2.1-0.6-4.3,1-6.2
				c0.4-0.4,0.3-1.5,0-2.1c-1.6-3.6-0.9-7.6-2.2-11.2c-1.6-4.1-3.8-8.1-6.5-11.6c-1.2-1.5-2.3-3.1-3.3-4.7c-0.2-0.3,0.2-1,0.5-1.4
				c0.1-0.2,0.8-0.2,1-0.1c4.2,4.2,8.5,8.2,10.8,14.2c1.5,4.2,2.2,8.6,4,12.6C426.7,576.3,426.4,577.7,426.5,579.6"/>
			<path id="Fill-40_1_" class="st0" d="M141.1,322.5c-0.7,5.4,1.9,10.6,1.1,16c-0.3,2.2,0.6,4.5-0.9,6.8c-1.1,1.7,0.8,4.6-1.3,6.6
				c0.1,4.6-1.3,8.9-3.2,13c0.7,2.4-2.1,3.3-2.2,5.1c-0.2,2.2-1.6,3.8-2.4,5.6c-0.7,1.7-2.1,3.1-3.2,4.7c-0.5,0.7-0.7,1.6-1.2,2.2
				c-0.7,0.8-1.9,0.9-2-0.2c-0.1-1-2-2,0-3.5c2.5-1.9,7.2-11.8,7.5-14.9c0.3-2.5,1.2-4.6,2.2-6.8c0.9-2-0.8-4.6,1.1-6.7
				c0.5-0.6,0.1-2.1,0.1-3.2c0-8.6,0.1-17.2-0.1-25.8c0-2.8-0.8-5.6-1-8.3c-0.2-2.9,0.6-6-0.2-8.7c-0.9-3-0.9-5.9-0.9-8.9
				c0-1.4-0.3-2.4-1.3-3.3c-0.5-0.4-0.8-1.2-0.8-1.8c0-0.6,0.3-1.3,0.7-1.7c0.1-0.1,1.1,0.2,1.3,0.5c0.8,1.3,2.3,2.8,2.1,4
				c-0.6,4,2.2,7,2.6,10.6c0.1,0.6,0.9,1.3,0.8,1.8C139.3,311.1,142,316.7,141.1,322.5"/>
			<path id="Fill-42_1_" class="st0" d="M276.6,125.6c0.3,5.2-1.9,10.3-1.2,15.5c0,0.2-0.7,0.8-1.1,0.8c-0.4,0-1-0.6-1-0.8
				c0.7-5.4-1.7-10.7-1.1-16.1c0.5-4.6-1.1-8.7-2.8-12.6c-3.2-7.6-7.7-14.4-13.5-20.3c-1.6-1.6-2.9-3.6-4.3-5.4
				c-1.3-1.7-2.7-3.2-4.1-4.9c-2.8-3.4-5.6-6.7-8.1-10.5c-2.1-3.2-3.4-6.7-5.3-9.9c-0.6-1-0.7-2.5-0.4-3.6c0.4-1.3-1.7-3.9,1.2-3.8
				c1.7,0.1,0.5,2.4,0.9,3.7c0.1,0.5,0.1,1.1,0.4,1.5c4.6,7.7,9.6,15,15.9,21.6c6.4,6.6,12.1,13.8,17.2,21.5
				c0.7,1,7.2,16.2,7.2,17.4C276.7,121.6,276.6,123.6,276.6,125.6"/>
			<path id="Fill-44_1_" class="st0" d="M246.3,528.5c0.2,0.4,0.6,0.9,0.5,1.3c-0.1,0.5-0.5,0.9-0.8,1.3c-5.6,6-11.3,11.8-16.7,17.9
				c-4.5,5-8.6,10.5-11.3,16.8c-1,2.4-2,4.7-2,7.5c0.1,4.6,0.3,9.2-0.1,13.8c-0.3,3.3,1.4,6.2,1.3,9.4c0,1,0.9,1.9,0.9,2.9
				c0,1.7,0.4,3.1,1.7,4.3c0.5,0.5,0.4,1.6,0.5,2.5c0,0.2-0.4,0.6-0.7,0.7c-0.3,0.1-0.9,0.1-1-0.1c-0.9-1.2-2.5-2.5-2.5-3.8
				c0-2-1.3-2.8-2.2-4.1c-0.8-1.3,0.6-3.3-1.2-4.4c-0.4-5.4-2.7-10.6-2.2-16.1c0.6-7.6,2.9-14.8,6.7-21.4c1.3-2.2,3.5-4,5.1-6.1
				c2.7-3.8,5.9-7.3,9.3-10.5c4.3-4,8.9-7.6,13.5-11.3C245.3,528.5,245.8,528.5,246.3,528.5"/>
			<path id="Fill-46_1_" class="st0" d="M232.6,436c2.9,0,5.9,0.1,8.8,0c2.4-0.2,4.8-0.8,7.2-1c2.6-0.2,5.2,0.4,7.7-0.1
				c6.3-1.3,12.5-3,18.1-6.8c3.4-2.4,6.9-4.6,10.2-7.1c0.4-0.3,1.2,0.1,1.8,0.2c-0.1,0.5,0,1.1-0.3,1.5c-1.6,1.7-3.3,3.4-5,5.1
				c-0.9,0.8-1.6,1.5-0.1,2.3c1.4,0.8,1.3,2.2,1.1,3.4c-0.7,3-1,6.3-2.5,8.8c-1.9,3.2-4.8,5.7-7.2,8.6c-0.2,0.3-0.5,0.6-0.8,0.7
				c-0.7,0.1-1.8,0.3-2.1-0.1c-0.5-0.6-0.8-1.8-0.5-2.4c0.8-1.5,2-2.8,2.9-4.3c2.4-3.9,5.5-7.5,5.8-12.4c0-0.5,0.4-1,0.6-1.6
				c-0.5,0.1-1.2,0-1.5,0.2c-2.3,2.1-5.5,2.7-8,4.6c-1.2,0.9-2.8,1.4-4.2,1.7c-3.2,0.6-6.4,1.5-9.6,2c-3.4,0.5-7.1,1.1-10.7-0.5
				c-1.1-0.5-2.4-0.4-3.7-0.4c-5.9,0-11.7,0-17.6-0.1c-0.5,0-1.5-0.5-1.6-0.9c-0.3-1.3,0.7-1.3,1.7-1.3
				C226.4,436,229.5,436,232.6,436"/>
			<path id="Fill-48_1_" class="st0" d="M296.4,437.3c0,2,0.1,4,0,6c-0.3,2.8,0.7,5.6-0.8,8.5c-1.3,2.5,0.3,5.5-1.2,8.3
				c-1,2-0.7,4.7-1.1,7.2c-1.2,6.8-3.8,13-6.7,19.2c-0.9,1.9-2.7,1.2-3.6,2.4c-0.3-0.3-0.6-0.7-0.9-1.1c-0.1-0.1-0.1-0.4,0-0.5
				c2.9-3.6,3.6-8.1,4.6-12.4c2.2-1.6-0.5-4.8,1.9-6.3c0.4-3.3,1-6.6,1.1-9.9c0.1-5.7,1.9-11.3,1.2-17.1c1.9-3,1.3-6.3,1-9.4
				c-0.5-5.1,1.3-9.9,1.2-14.9c0-0.3,0.6-0.7,0.9-1c0.4,0.4,1.1,0.8,1.2,1.3c0.5,3.3,0.9,6.6,1.1,10
				C296.6,430.7,296.4,434,296.4,437.3"/>
			<path id="Fill-50_1_" class="st0" d="M350.4,675.4c0,1.1,0.2,1.7-0.1,2.2c-0.2,0.4-0.8,0.6-1.3,0.6c-0.3,0-0.8-0.3-0.8-0.5
				c-4.1-13.2-8.4-18-16.5-25c-3-2.6-6.8-4.8-11.4-4.2c-1.6,0.2-3.3,0.1-5,0c-5.9-0.5-11.4,1.4-17,2.9c-2.5,0.7-5,1-7.2,2.5
				c-0.4,0.3-1.4,0.1-2.1-0.2c-0.3-0.1-0.5-1.3-0.4-1.4c2-1.4,3.9-3.1,6.1-3.8c3.6-1.1,7.1-2.5,10.7-3.5c2.2-0.6,4.3-1.3,6.7-1.1
				c1.5,0.1,3.3,0.7,4.5-1c0.1-0.2,0.9-0.2,1,0c2.4,2.8,5.7,0.5,8.7,1.7c11.2,4.7,17.9,13.3,22.6,24
				C350,671,350.1,673.6,350.4,675.4"/>
			<path id="Fill-52_1_" class="st0" d="M139.2,211.1c-0.9,0-2.1,0-2.1,0c-0.2-2.6-2.2-1.6-3.5-2c-5.7-1.8-11.4-0.8-17.2-1.1
				c-2.3-0.1-4.5,0.3-6.7,1c-5.7,1.7-11.2,3.9-16.5,6.7c-6.7,3.6-13.1,7.6-19.1,12.4c-0.5,0.4-1.2,0.7-1.9,0.8
				c-0.5,0.1-1.2-0.1-1.4-0.4c-0.2-0.3-0.2-1.1,0-1.4c1.9-2,3.6-4.2,5.9-5.8c2.6-1.8,5.1-3.6,7.6-5.4c5.3-3.7,10.9-7,17.2-8.9
				c3.4-1.1,6.8-2.4,10.3-3c3.7-0.7,7.6-0.2,11.5-0.3c4.3-0.1,8.1,1.1,11.9,3.2c1.3,0.7,2.2,1.7,3.3,2.6
				C138.8,209.6,138.9,210.3,139.2,211.1"/>
			<path id="Fill-54_1_" class="st0" d="M260.9,512c0.4-1.3,0.7-3.4,1.7-5.2c3.5-6.5,8.3-11.7,14.9-15.1c0.9-0.4,1.6-1.1,2.2-0.1
				c0.2,0.3-0.2,1.4-0.6,1.8c-1.5,1.6-3.2,3.1-4.6,4.7c-2,2.3-4.1,4.5-5.6,7c-4.4,7.4-2.5,12.6,2.4,18.5c2,2.4,4.8,4.2,7.4,6
				c3,2,6.1,3.8,9.2,5.5c1.2,0.6,0.9,1.5,0.7,2.3c-0.1,0.4-1.1,1.1-1.3,1c-7.5-3.5-15.5-6.2-21-12.9
				C263.3,521.7,261.6,517.5,260.9,512"/>
			<path id="Fill-56_1_" class="st0" d="M366.8,514.3c0.9,8.7-3.1,14.5-8.8,19c-4,3.2-13,5-17.5,0.3c-0.9-1-2.4-1.4-3.3-2.4
				c-0.4-0.4,0.2-1.6,0.3-2.5c0.6,0.1,1.5,0.1,1.8,0.4c3.6,3.9,8.3,2.4,12.6,2.7c2.3-1.9,5.3-3.5,6.8-5.9c2.3-3.8,4.8-7.8,3.7-12.7
				c-0.7-3-1.1-6.1-2.6-8.8c-1.9-3.4-3.9-6.8-5.8-10.2c-0.3-0.5,0-1.2-0.1-1.9c0.6,0.1,1.4,0.1,1.8,0.5c4.8,4.2,8.5,9.1,10.3,15.5
				C366.9,510.7,366.4,512.9,366.8,514.3"/>
			<path id="Fill-58_1_" class="st0" d="M367.2,429c2.4,0.5,4.9,0.6,7.1,1.6c2.1,0.9,4.1,0.9,6.2,1c5.2,0.3,10.3,0.9,15.5,1.1
				c6.7,0.3,13-1.9,19.3-3.7c2.3-0.6,5-1,6.6-2.4c1.9-1.8,5-1.1,6.3-3.7c0.2-0.5,1.7-0.1,2.5-0.5c1.1-0.5,1.9-3.1,3.3-1.2
				c1.1,1.4-1.2,2.3-2.1,3.3c-0.8,0.9-1.9,1.4-3,2c-5.7,2.9-11.3,6.3-17.7,7.8c-2.7,0.6-5.2,1.9-8,1.8c-1.2,0-2.3,0.2-3.5,0.7
				c-1.9,0.7-4.6,1.1-6.3,0.2c-2.5-1.2-4.9-0.7-7.3-0.9c-1.1-0.1-2.5,0.3-3.2-0.3c-2.8-2.3-6-1.9-9.1-1.9c-0.5,0-1.4,0.2-1.6,0
				c-2.3-3-5.5-2-8.5-2.2c-0.4,0-0.7-0.6-1-0.9c0.4-0.4,0.8-1.1,1.2-1.2c1.1-0.2,2.2-0.1,3.3-0.1C367.1,429.3,367.1,429.1,367.2,429
				"/>
			<path id="Fill-60_1_" class="st0" d="M85.2,161.2c5.3-1,10.7-1.7,15.9-3c5.4-1.4,10.7-3.4,15.5-6.3c2.7-1.6,5.8-2,8.6-3.1
				c1.9-0.7,4.7,0.6,6.9,1.4c1.9,0.7,3.7,2.1,5.9,1.7c0.2,0,0.7,0.8,0.7,1.1c0,0.4-0.6,1-0.9,1c-2.4-0.4-4.8,0.3-7.4-0.8
				c-2.7-1.1-6.2-0.5-9.2,1.2c-4.9,2.8-9.9,5.2-15.4,6.7c-5.8,1.6-11.4,3.6-17.5,2.9c-0.7-0.1-1.6,0.1-2.1-0.2c-2.6-2-5-0.6-7.4,0.2
				c-0.6,0.2-1.1,0.9-1.8,1c-0.8,0.1-2,0.6-2.2-0.8c-0.1-0.4,0.7-0.9,1.1-1.4C78.6,160,82,160.8,85.2,161.2"/>
			<path id="Fill-62_1_" class="st0" d="M400.9,659.3c0.2-1.2,0.1-2.2,0.6-2.9c4.1-5.8,7.4-12.1,11.9-17.6c4.4-5.4,8-11.4,12.6-16.7
				c4.5-5.2,8.3-11.3,14.6-14.8c0.3-0.2,0.1-1.1,0.5-1.4c0.3-0.3,1.1-0.3,1.4-0.1c0.3,0.2,0.6,1.1,0.4,1.4c-0.8,1.3-1.6,2.7-2.7,3.8
				c-5.1,5.6-9.7,11.7-14.4,17.7c-7.8,10-15.4,20.2-22.6,30.8c-0.3,0.5-0.9,0.8-1.3,1.2C401.6,660.2,401.2,659.7,400.9,659.3"/>
			<path id="Fill-64_1_" class="st0" d="M360.5,385.3c-0.1,0-1-0.2-1-0.4c-0.1-0.6,0-1.6,0.4-1.8c2.1-1,0.8-3.8,2.7-5
				c0.2-0.1,0.2-0.8,0-1c-2.9-3.4,0.1-4.6,2.2-6.1c0.7-0.5,1.5-0.9,2-1.6c0.2-0.3-0.2-1.5-0.6-1.6c-0.8-0.2-1.8,0-2.7-0.1
				c-1-0.1-1.3-1.1-0.6-1.9c0.6-0.7,1.2-1.7,1.9-1.9c2.4-0.7,2.7-1.7,1.1-3.6c-0.4-0.4,0.2-2.3,0.9-2.7c1.5-1.1,3.1-2.5,5.2-1.9
				c0.9,0.3,2.1,0.9,2.5,1.6c0.7,1.2-0.7,1.9-1.5,2.6c-0.5,0.5-2.6-0.2-0.9,1.6c1.4,1.4-2.4,2.5-0.3,4.1c1.9,1.5-0.8,2.3-0.8,3.7
				c0,0.9-0.9,1.6,0.3,2.3c1.1,0.7,1.4,2,1,2.8c-2.3,4.1-4.2,8.4-8.9,10.5c-0.3,0.1-0.6,0.3-0.9,0.4
				C362,385.4,361.4,385.3,360.5,385.3"/>
			<path id="Fill-66_1_" class="st0" d="M405.5,374.5c-2.3-0.7-4.7-1.4-7.1-2.4c-1.4-0.5-2.7-2-4-2c-1.7-0.1-1.9-1-2.4-2.1
				c-1.1-2.3-1.1-2.3,1.2-2.4c0.7,0,1.5-0.1,2.2,0c1.8,0.2,2.7-0.1,2.5-2.3c-0.1-2.2,0.8-2.6,2.9-1.8c2.4,0.9,4.7,1.9,7.1,2.7
				c1,0.3,2.1,0.3,3.1,0.3c1.1,0,1.1-0.5,0.4-1.2c-1.2-1.2-0.1-1.9,0.7-2.6c0.8-0.8,1.5-0.6,2.3,0.1c0.6,0.5,1.6,0.7,2.2,1.2
				c1.5,1.2,1.6,3,0,4.1c-1.7,1.2-3.5,2.2-5.4,2.8c-0.8,0.3-1.9-0.6-2.9-0.9c-0.9-0.3-1.8-0.9-2.6-0.8c-0.9,0.1-1.8,0.9-2.7,1.5
				c-0.3,0.2-0.5,0.5-0.8,0.8c0.4,0.2,0.8,0.6,1.2,0.6c3.3,0.1,6.6,0,9.9,0.1c0.3,0,0.7,0.6,0.9,1c0.1,0.2-0.1,0.9-0.3,0.9
				C411.2,372.7,408.5,373.6,405.5,374.5"/>
			<path id="Fill-68_1_" class="st0" d="M315.4,537.3c-2.8,0.7-5.1-1.6-7.8-2.7c-1-0.4-1.7-1.5-1.2-2.7c0.2-0.5,0.8-0.8,1.2-1.3
				c1.3,1.7,3.4,0.6,5,1.3c3.8,2,6.7,0.6,9.4-2.1c2.5-2.5,4.9-5.2,8.1-7.1c4.4-2.7,8.8-5.1,14.2-4.2c0.8,0.1,1.6,0.6,2.3,1.1
				c0.3,0.3,0.6,1,0.5,1.4c-0.1,0.3-0.8,0.7-1.2,0.7c-5.6-0.2-9.9,2.7-14,6c-2.8,2.2-5.4,4.7-8.1,7
				C321.5,536.7,318.8,537.4,315.4,537.3"/>
			<path id="Fill-70_1_" class="st0" d="M504.3,268.6c-9.2,0.1-16.9-3.6-23.3-10c-2.6-2.7-4.3-6.2-4.9-10c-0.1-0.6,0.3-1.3,0.4-2
				c0.6,0.2,1.4,0.3,1.8,0.7c1,1,2.5,1.7,2.1,3.5c-0.1,0.3,0.1,0.7,0.3,1c6.2,6.8,12.9,12.6,22.9,12.4c3.3-0.1,6.6,0,9.9,0
				c0.7,0,1.4-0.2,2-0.4c0.4-0.1,0.8-0.2,1.2-0.3c0,0.5,0.1,1.2-0.2,1.4c-2.2,1.7-4.4,3.3-7.3,3.6
				C507.6,268.8,505.9,268.6,504.3,268.6"/>
			<path id="Fill-72_1_" class="st0" d="M419,181c-0.6-0.7-1.1-1.1-1.3-1.6c-0.1-0.3,0.4-0.9,0.8-1.1c5.3-2.6,9.7-6.4,13.8-10.7
				c2.5-2.6,4.2-5.5,5.3-8.9c1.9-5.9,4.9-11.2,9.9-15.1c0.4-0.3,1.2-0.2,1.9-0.3c-0.1,0.6,0.1,1.4-0.2,1.9c-1.1,1.9-2.6,3.7-3.4,5.8
				c-1.3,3.3-4.3,6-3.8,10c-2.7,5.4-5.7,10.6-10.8,14c-2.6,1.8-5.7,3.1-8.6,4.5C421.4,180,420.3,180.4,419,181"/>
			<path id="Fill-74_1_" class="st0" d="M426.2,364.4c0.6,0.2,2.3,0.5,3.9,1.1c1.2,0.5,1.1,1.3-0.2,2.2c-0.6,0.4-1.2,0.7-1.7,1.1
				c-0.2,0.2-0.4,0.5-0.4,0.8c0.2,0.8,4.8,3.9,5.6,3.6c0.4-0.1,0.6-0.7,0.8-1.1c0.4-0.9,1.1-1.9,1-2.8c0-1.8,1.1-1.7,2.1-1.5
				c1.1,0.3,2.3,0.8,3.2,1.4c2,1.3,1.8,2.4-0.4,4.1c-0.9,0.7-1.5,1.7-2.4,2.3c-1.3,0.8-2.9,2.2-4,1.9c-1.9-0.4-4.2-0.3-5.7-2
				c-0.2-0.3-0.5-0.5-0.8-0.8c-0.9-1.1-1.7-1.7-2.7-0.2c-0.3,0.4-0.8,0.7-1.2,0.9c-1.5,0.8-3,1.5-4.6,0.1c-0.7-0.6-1.9-0.7-2.8-1.2
				c-0.9-0.4-0.8-1.7,0.1-2.2c0.3-0.1,0.7,0,1.1-0.1c1.3-0.5,2.9-0.7,3.6-1.6c0.6-0.8,0.1-2.5,0.2-3.7
				C421.2,365,422.3,364.4,426.2,364.4"/>
			<path id="Fill-76_1_" class="st0" d="M500.7,322.1c-0.6,0.7-1,1.3-1.5,1.5c-0.3,0.1-0.9-0.3-1.2-0.7c-2.3-2.9-4.3-6-6.8-8.7
				c-2.7-3-5.2-6.2-7.3-9.7c-1.8-2.9-3.2-6-4.6-9.1c-0.3-0.8-0.4-2.1,0-2.7c1.3-1.8,0.9-3.7,1.1-5.6c0-0.3,0.6-0.9,1-0.9
				c0.4,0,1,0.4,1.1,0.8c0.4,1.7-0.7,3.7,1,5.1c-0.2,4.9,3.1,8.3,5.5,12c2.9,4.4,6.3,8.4,9.2,12.7
				C499.4,318.4,499.9,320.2,500.7,322.1"/>
			<path id="Fill-78_1_" class="st0" d="M179,587.9c0.8,0.1,1.2,0.1,1.4,0.3c0.7,0.6,1.4,1.2,1.9,1.9c3.5,5.1,7,10.2,10.6,15.3
				c1.6,2.3,3.2,4.6,4.9,6.7c2.1,2.6,4.4,5.1,6.5,7.7c0.4,0.5,0.6,1.3,0.6,1.9c0,0.5-0.2,1.2-0.5,1.3c-0.3,0.2-1.1,0-1.4-0.3
				c-4.4-4.2-8.7-8.6-12.3-13.5c-2.2-3.1-4-6.5-6.4-9.4c-2.4-2.8-2.8-6.7-5.7-9.2C178.3,590.3,178.8,588.9,179,587.9"/>
			<path id="Fill-80_1_" class="st0" d="M412.2,585.1c-0.5,0.5-1.1,1.5-1.8,1.6c-0.7,0.1-1.8-0.5-2.2-1.1c-0.5-0.9-0.7-2.1-0.5-3
				c0.6-2.6-1.3-4.8-1.2-7.3c-3.7-5.8-5.6-12.7-10.8-17.6c-1.7-1.5-2.9-3.5-4.3-5.4c-0.3-0.3-0.3-1.1-0.1-1.4
				c0.2-0.3,0.9-0.5,1.4-0.4c0.7,0.1,1.4,0.3,1.9,0.7c1.9,1.8,4,3.4,5.4,5.5c2,3,4.7,5.5,6,9.1c0.4,1.3,1.8,2.2,2.2,3.5
				c0.7,2.1,1.9,4.1,1.7,6.5c-0.2,2.8-0.4,5.7,1.8,8C412,584,412,584.5,412.2,585.1"/>
			<path id="Fill-82_1_" class="st0" d="M387.7,371c0.3,2.9-2.5,4.6-5.3,3.4c-1.3-0.6-2.6-2.1-4.1-0.1c-0.3,0.4-1.8,0.2-2.7,0
				c-0.4-0.1-0.9-0.6-0.9-0.9c0-0.4,0.4-0.9,0.7-1.2c1.4-1.2,1.5-1.2,0.1-2.2c-1.1-0.8-1.1-1.4,0.1-2.2c0.6-0.4,1.2-0.7,1.8-1.1
				c0.2-0.2,0.3-0.5,0.5-0.8c-0.3-0.1-0.6-0.3-0.9-0.4c-0.5-0.1-1.2,0.2-1.6-0.1c-0.3-0.2-0.7-1.1-0.5-1.3c1.1-1.3,1.9-2.8,4.1-3.1
				c2.8-0.4,5.3-0.7,7.1,2c0.3,0.4,0.8,0.8,0.9,1.3C387.1,366.5,387.4,368.7,387.7,371"/>
			<path id="Fill-84_1_" class="st0" d="M214.1,441.6c-0.5,0.4-0.9,1-1.2,0.9c-1.4-0.2-2.3,0.6-3.3,1.4c-1.5,1.4-3.3,2.6-4.9,3.9
				c-2.3,1.9-4.6,3.9-6.9,5.8c-5,4.3-10,8.5-15,12.7c-0.4,0.3-1.2,0-1.8-0.1c0.1-0.5-0.1-1.2,0.2-1.5c1.5-1.6,3.1-3.1,4.6-4.7
				c1.7-1.8,3.2-3.8,5-5.6c1.7-1.7,3.6-3.2,5.4-4.8c3.9-3.5,8.2-6.2,12.9-8.6c1.5-0.8,2.7-0.7,4.1-0.8
				C213.3,440.4,213.6,441.1,214.1,441.6"/>
			<path id="Fill-86_1_" class="st0" d="M350.4,427.7c0-1.1-0.1-1.6,0-1.8c0.2-0.4,0.6-0.7,1-0.9c0.2-0.1,0.8,0.1,0.9,0.3
				c3.5,4.9,6.8,10.1,10.6,14.8c3,3.7,6.6,7,11,9.1c0.3,0.2,0.6,0.9,0.5,1.3c-0.1,0.3-0.7,0.7-1.1,0.8c-1.9,0.6-3.6-0.4-4.9-1.3
				c-6.1-3.8-10.7-9.3-14.8-16.8c-0.7-1.2-1.5-2.3-2.2-3.5C351,429,350.6,428.1,350.4,427.7"/>
			<path id="Fill-88_1_" class="st0" d="M521.3,375.6c-6.5-1.3-12.7-2.7-18.2-5.8c-0.9-0.5-1.3-2.1-2.7-2.6c-0.2-0.1,0-1.6,0-2.5
				c0.6,0,1.3-0.1,1.9,0.2c3.4,1.6,6.7,3.2,10.4,4.1c1.5,0.4,3,0.7,4.5,0.9c1.3,0.2,2.6,0.8,3.9,1c2.2,0.4,4.5,1.6,6.6-0.5
				c0.2-0.2,1.1,0.1,1.5,0.4c0.2,0.1,0.3,0.9,0.2,1.1c-0.7,1-0.5,2.7-2.8,2.4C524.9,374.2,523,375.2,521.3,375.6"/>
			<path id="Fill-90_1_" class="st0" d="M510.3,414c0.4,0,0.8-0.1,1.1,0c0.4,0.2,0.8,0.6,0.9,1c0.1,0.2-0.1,0.8-0.3,0.9
				c-3.7,1.5-5.7,4.9-8.5,7.4c-2.8,2.5-4.7,5.6-6.7,8.7c-0.9,1.3-2.8,1.9-4.3,2.8c-0.2,0.1-0.6-0.2-0.9-0.3c0.1-0.3,0.3-0.5,0.4-0.8
				c0.9-2.2,1.7-4.5,2.8-6.6c2.4-4.7,6.3-8.2,10.2-11.7c1.3-1.2,3.5-1.3,5.2-2C510.2,413.7,510.2,413.8,510.3,414"/>
			<path id="Fill-92_1_" class="st0" d="M302.7,562c0.5-1.3,0.9-2.6,1.4-3.8c1.3-3.3,4.1-5.5,5.9-8.5c0.9-1.6,2.4-1.3,3.9-1.2
				c0.4,0,1.1,0.3,1.2,0.7c0.1,0.4-0.2,1-0.4,1.4c-0.4,0.6-1,1-1.5,1.6c-4,4.1-5.4,9-4.5,14.5c0.2,1.4,1.3,2.7,1.9,4.1
				c0.2,0.4,0.3,1.1,0.1,1.4c-0.2,0.3-0.9,0.4-1.4,0.4c-0.5,0-1.2,0-1.5-0.4C305.4,569.1,303.8,565.8,302.7,562"/>
			<path id="Fill-94_1_" class="st0" d="M188.5,187.3c-0.3,1.8-0.7,4.4-1.1,7c0,0.2-0.7,0.6-0.8,0.5c-0.5-0.3-1.2-0.7-1.3-1.2
				c-0.6-3.2-1.6-6.4-2.1-9.6c-0.6-4.2-2.4-7.8-4.3-11.5c-0.3-0.6-0.4-1.4-0.8-1.9c-0.9-1.1-1.1-2.4,0-3.3c0.3-0.2,2,1,2.6,1.9
				c1.4,1.8,2.5,3.7,3.8,5.6C186.7,178,188.5,183.3,188.5,187.3"/>
			<path id="Fill-96_1_" class="st0" d="M512.5,298.3c3.4-0.4,7.3,0.7,11.1-1c1.2-0.6,2.9-0.1,4.3,0c0.3,0,0.7,0.6,0.8,1.1
				c0.1,0.2-0.1,0.8-0.4,0.9c-3.7,1.2-6.8,4.4-11.1,3.5c-0.7-0.1-1.7-0.3-2.1,0c-3.3,2.9-6.2-0.7-9.3-0.6c-0.7,0-1.6-0.6-2.2-1.1
				c-0.6-0.6-0.8-1.5-1.2-2.2c0.7-0.2,1.3-0.5,2-0.5C507,298.3,509.5,298.3,512.5,298.3"/>
			<path id="Fill-98_1_" class="st0" d="M391.2,569.2c0.4,0.1,0.7,0.2,0.7,0.2c-0.2,2.4,2.1,3.6,2.6,5.5c0.6,2.4,0.8,4.8,1.2,7.2
				c0.4,2.2,0.7,4.5,1.1,6.7c0.4,2.1-0.5,4.1,0.8,6.3c0.6,1-0.7,3.1-1.2,4.7c-0.1,0.2-0.6,0.3-1,0.2c-0.3,0-0.6-0.3-0.9-0.5
				c1.2-1.9-3-3.8,0-5.7c0.1-0.1,0.1-0.7-0.1-1c-1.6-2.4-1.6-5.2-2.3-7.9c-0.7-2.6-0.3-5.4-1.1-7.8c-0.8-2.5-0.9-4.8-0.9-7.3
				C390.1,569.6,390.9,569.4,391.2,569.2"/>
			<path id="Fill-100_1_" class="st0" d="M200.7,434.8c-0.2,0.3-0.6,1.1-0.7,1.1c-3.6-0.8-5.5,2.7-8.5,3.4c-2.9,0.7-5.3,2.1-7.7,4
				c-2.2,1.8-5,2.8-7.5,4.3c-0.9,0.6-1.7,0.9-2.1-0.2c-0.2-0.7-0.1-2.1,0.4-2.4c3.2-2.3,6.5-4.4,9.8-6.6c0.9-0.6,1.8-1,2.6-1.5
				c4-2.4,8.4-3.2,13-3C200.2,433.9,200.4,434.4,200.7,434.8"/>
			<path id="Fill-102_1_" class="st0" d="M294.4,528.5c-0.3-0.2-1.4-0.7-2.2-1.5c-2.6-3-6-4-9.9-4c-1.1,0-2.8,0.2-3.1-0.3
				c-0.6-1.2-3.1-0.1-2.6-2c0.2-0.7,1.4-1.3,2.3-1.6c6.3-2.4,14.8,1,17.9,7.2C297.9,528.2,297.6,528.6,294.4,528.5"/>
			<path id="Fill-104_1_" class="st0" d="M347,442c0.4-2.6,0.8-5.1,1.3-7.7c0-0.2,0.6-0.5,0.8-0.5c0.5,0.1,1.3,0.4,1.3,0.6
				c0,3.5,1.8,6.8,1.2,10.5c-0.5,3,1.4,5.6,2.4,8.3c0.3,0.8,3,0.3,1.7,2.2c-0.7,1.1-3.8,0.4-4.8-0.7c-0.1-0.1-0.3-0.2-0.4-0.4
				C349.1,450.3,346.4,446.6,347,442"/>
			<path id="Fill-106_1_" class="st0" d="M439.6,429.3c0.6,0.1,1.4,0,2,0.4c5.6,3.4,11.1,7,14.2,13.1c0.3,0.5,0.1,1.2,0.1,1.9
				c-0.6-0.1-1.4-0.1-1.9-0.4c-3.3-2.8-6.4-5.7-9.7-8.5c-1.7-1.5-3.6-2.8-5.3-4.3c-0.3-0.3-0.3-1-0.3-1.5
				C438.6,429.7,439.2,429.6,439.6,429.3"/>
			<path id="Fill-108_1_" class="st0" d="M433.6,440.4c3.8,1,9.2,0.1,13.1,4.2c0.4,0.4,1.6-0.1,2,0.2c0.5,0.5,0.7,1.5,0.7,2.2
				c0,0.3-0.9,0.7-1.4,1c-0.3,0.1-0.8,0.2-1.1,0c-3.7-2.6-8.1-2.8-12.3-3.2c-1.7-0.2-2.2-1.7-3.5-2.3c-0.9-0.4-2.5,0.7-2.5-1
				c0-2.2,1.9-0.8,2.9-1.2C431.9,440.3,432.3,440.4,433.6,440.4"/>
			<path id="Fill-110_1_" class="st0" d="M390.9,361.1c-1.6-0.3-4.4-0.2-6.8-1.2c-2-0.8-3.4-1.6-5.4-0.2c-0.2,0.1-1.2-0.4-1.5-0.9
				c-0.3-0.5-0.3-1.3-0.1-1.8c0.5-0.9,5-2.5,6.1-2.4c1.4,0.1,10.6,3.7,11.8,4.6c0.2,0.2,0.4,0.7,0.3,0.9c-0.2,0.4-0.5,1-0.9,1
				C393.8,361.2,392.8,361.1,390.9,361.1"/>
			<path id="Fill-112_1_" class="st0" d="M445.2,379.5c0,1.2-2.2,3,0.9,2.6c0.5-0.1,1.1-0.1,1.6,0c3.1,0.8,3.9,3.9,1.6,6.2
				c-0.2,0.2-0.6,0.3-0.9,0.4c-2.1,0.3-5.6-1.8-5.3-3.8c0.3-2.5-1.7-2.6-2.8-3.7c-0.5-0.5-2,0-1.7-1.4c0.3-1.2,1.1-2.4,2.6-2.1
				c1.2,0.2,2.3,0.6,3.4,1.1C444.9,378.9,445.1,379.4,445.2,379.5"/>
			<path id="Fill-114_1_" class="st0" d="M456.5,381.4c-0.4,0.7-0.7,1.3-1.2,1.6c-0.2,0.2-1-0.2-1.4-0.5c-1-1.1-2-1.7-3.7-1.7
				c-3.2,0-5.1-2.1-6.2-5c-0.1-0.4,0.5-1.4,0.9-1.5c0.8-0.2,2.4-0.4,2.6,0c1.8,3,6,1.2,7.7,4.1C455.8,379.3,456.1,380.4,456.5,381.4
				"/>
			<path id="Fill-116_1_" class="st0" d="M407.1,361.4c-2-0.7-4.3-1.4-6.4-2.4c-1.2-0.6-1-1.6,0.2-2.3c3.2-1.7,4.8-1.4,7.7,1.6
				c0.6,0.6,0.8,1.5,1.2,2.2C409.1,360.7,408.3,361,407.1,361.4"/>
			<path id="Fill-118_1_" class="st0" d="M198.1,354.5c-0.7,0-1.5-0.1-2.2,0c-1.9,0.3-1.9-0.8-1.9-2.2c0-1.5,0.2-2.4,2-2.2
				c0.9,0.1,1.8,0,2.7,0c1,0,3.1,2.2,3,3.4c0,0.4-0.5,0.9-0.9,1C199.9,354.6,199,354.5,198.1,354.5"/>
			<path id="Fill-120_1_" class="st0" d="M466.7,257.6c-0.2-0.2-0.3-0.4-0.5-0.7c0.2-0.1,0.6-0.3,0.7-0.2c0.2,0.2,0.2,0.5,0.3,0.8
				H466.7"/>
			<path id="Fill-122_1_" class="st0" d="M392.3,645.7c-0.2,0.2-0.4,0.3-0.7,0.5c-0.1-0.2-0.3-0.6-0.2-0.7c0.2-0.2,0.5-0.2,0.8-0.3
				V645.7"/>
			<path id="Fill-124" class="st0" d="M365.8,92.5c0.5,4.7-0.3,9.3-1.1,13.8c-0.2,1.1-0.6,2.3-1.3,3.3c-2.7,4.2-4.8,8.7-8,12.7
				c-1.7,2.1-2.9,5.1-2.8,8.1c0,3.5-0.2,7,0.1,10.4c0.5,6.5-2.4,11.7-5.5,17c-0.4,0.6-1,1.1-1.1,1.7c-0.2,0.9,0.4,2.5-1.4,2.1
				c-1.5-0.3-0.6-1.8-0.8-2.8c-0.2-1.3,0.1-2.3,1.2-3.4c1.6-1.6,1.8-4,3.1-5.9c0.8-1.1,0.1-3.2,0.1-4.9c0-2.9,0.2-5.9,0-8.8
				c-0.5-7.5,2.2-13.9,6.5-19.9c2.2-3,3.9-6.4,5.4-9.8c0.9-2-0.4-4.6,1.4-6.6V83.8c-2.3-2.6-0.3-6.1-2.1-9.1
				c-1.5-2.6-1.8-5.8-2.8-8.7c-1-2.6-2-5.2-1.7-8.1c0.1-1.5-0.1-2.7-1.3-3.9c-1.6-1.7-1.3-5.4,0.2-7.4c0.2-0.3,0.6-0.5,0.8-0.8
				c0.6-0.9,0.4-3,2.2-1.6c1.2,0.9-0.2,1.9-1,2.6c-1.5,1.3-1.4,3.6-0.5,4.3c2,1.8,1.7,3.8,1.9,5.9c0.2,2,2.4,3.4,2.2,5.7
				c-0.1,0.6,0.2,1.4,0.5,2c2.8,5.2,4.9,10.6,5,16.6C366.9,84.9,365.4,88.8,365.8,92.5"/>
			<path id="Fill-126" class="st0" d="M380.3,48.4c0.3,0.2,0.8,0.3,0.9,0.5c0.1,0.5-0.1,1.4-0.2,1.4c-2.1,0.2-1.9,1.6-1.9,3
				c0,7.2-0.2,14.3,0.1,21.5c0.2,3.4,0.6,6.9,1.8,10.2c0.1,0.2,0.3,0.3,0.2,0.4c-0.6,3.6,0.9,7,1.1,10.6c0.4,6.8-1.5,13.1-3.8,19.4
				c-1.7,4.8-3.6,9.6-6.3,13.9c-4,6.5-6,13.7-8.6,20.7c-1.2,3.2-3.8,5.3-5,8.4c-0.1,0.1-0.7,0.2-1,0.1c-0.3-0.1-0.7-0.4-0.7-0.7
				c-0.1-0.7-0.3-1.7,0.1-2.1c3.6-4.3,4.3-9.6,5.4-14.8c0.5-2.3,1.7-4.4,2.7-6.6c2.9-6.3,6.1-12.5,8.9-18.9c1.3-3,2.5-6.3,2.4-9.3
				c-0.1-2.2,2.1-3.6,0.9-6c-0.9-1.8-0.6-4.2-0.6-6.3c-0.1-2.2,0.7-4.8-0.2-6.5c-2.1-4-0.5-8.3-1.8-12.5c-1.3-4-0.2-8.7-0.3-13.1
				c0-1.6,0.1-3.2,1.2-4.5c1.2-1.4,1-2.9,1.1-4.5C377,50.7,378.6,48.8,380.3,48.4"/>
		</g>
	</g>
</g>
</svg>
