<svg xmlns="http://www.w3.org/2000/svg" viewBox="0 0 591 779" enable-background="new 0 0 591 779"><style type="text/css">.st0{fill:#2403CE;} .st1{filter:url(#Adobe_OpacityMaskFilter);} .st2{fill:#FFFFFF;} .st3{mask:url(#mask-2);fill:#2403CE;}</style><title>3</title><desc>Created with Sketch.</desc><g id="Page-1"><path id="Fill-1" class="st0" d="M135.1 591.1c0-.7.1-1.1 0-1.4-2.3-4.2-.7-8.9-1.9-13.4-1-3.9-2.2-8.3-1.4-12.6.2-1.4-.9-1.2-1.8-1.3-1.2-.1-1.5.5-1.5 1.6 0 3.9 1.9 7.6 1.1 11.6-.5 3 .7 5.9 1.6 8.6.7 2.2.3 4.9 2.2 6.7l1.2 1.2.5-1M57 424.3c-.1 0-.3.1-.4.1.5 1.6 1 3.3 1.5 4.9.4 1.3.8 2.6 1.1 3.9 1.4 7.2 4.5 13.6 8.6 19.5.2.3.5.5.8.8.2-.5.6-1 .5-1.4-1-4.6-2.5-9.1-2.2-13.9v-.5c-1.4-6.7-1.4-6.7-.1-12.3.1-.4-.5-1.4-.9-1.5-1.1-.1-1.9-.4-2.9-1-.9-.6-2.4 0-3.3-1.2-.4-.6-1.5-.7-2.2-1-.2.7-.4 1.3-.5 2-.1.5 0 1 0 1.6m8.3-4.6c1.9.3 2.4-.7 3.1-2.2.9-2 2.2-3.9 3.4-5.7.6-.9.4-.9-.5-1.2-2.2-.8-4.5-1.5-6.5-2.7-4.8-2.8-9.6-5.6-13.4-10-.1-.2-.5-.2-.8-.2-.1.3-.3.7-.3 1 .3 1 .9 1.9 1 2.8.8 7.5 5.3 12.6 11.2 16.8.9.6 1.9.9 2.8 1.4m414.4 169.1c-.4 3.3-.8 6.6-1.4 9.9-.1.4-.8 1-1.4 1.1-.8.1-1.9.3-1.9-1.1 0-1.3.1-2.6 0-3.8-.1-1-.5-2-.8-2.9-.1-.3-.5-.5-.8-.8-.2.3-.5.5-.6.8-.4 2.1-.1 4.1-.7 6.3-.8 2.7-1 5.8-1.4 8.8-.2 1.8.3 2 2.1 1.3 3.4-1.5 5.6-4.5 8-7.1 2.7-2.8 8-15.1 8.5-19 .2-1.4.4-3-1.2-3.9-5.5-3-8.7-7.4-8.7-13.9 0-.2-1.3-.8-1.6-.6-.7.5-1.5 1.3-1.6 2-.5 3.7-.8 7.4-1.2 11.1-.1.9.4 2.2-.1 2.7-2.1 2.3-.5 4.9-1 7.3-.1.3.3.6.4.9.4-.3 1-.6 1.1-1 .3-1.5.4-3.1.7-4.7.1-.3.7-.6 1.1-.8.2-.1.8.2.9.4 1.4 2 1.7 4.5 1.6 7M60.3 525.3c-.5 4.3 2 8.3 3.5 12.5 1.4 3.8 3.4 7.4 5.4 11 3.8 6.7 8.5 12.7 14.4 17.7 2.1 1.8 4.8 2.5 7.2 3.7.3.2 1.2-.2 1.3-.5.2-.3-.1-1.3-.3-1.4-4.2-1.6-5.6-5.5-7.7-8.9-.5-.8-.4-2-.9-2.9-.4-.8-1.5-1.2-1.9-2-.8-1.6-1.6 1-2.4-.1-1.7-2.3-4-3.9-5.7-6.4-4-5.9-7.3-12-8.7-19-3.1-3 .8-5.9.3-9-.1-.7 2-1.8 3.2-2.5.4-.2 1.3.2 1.9.5.1.1 0 1.2-.3 1.4-3.4 2.7-2.8 5.8-1.3 9.1.3.6.3 1.3.5 2 .1.4.4.8.6 1.2.1-.3.4-.6.4-.9.9-5.5 3.6-10.4 7.7-13.8 2-1.7 4.1-3.3 6.1-5.1 1.8-1.5 2.1-3.1 1.3-5.2-.7-1.9-1.5-3.8-2.3-5.6-.7-1.5-1.5-3-2.3-4.4l-3.1 3.1-1.9 1.9c-4.4 4.6-9.3 8.8-12.6 14.6-1.3 2.7-2.5 5.4-2.4 9m71.3 75.8c-.4-3.8-2.1-7.5-3.7-11.1-3-6.7-3-13.8-2.7-20.9.1-1.4 1-2.8 1-4.5 0-1.7-.7-2.6-2.1-3.4-3-1.5-6.3-2.5-9.2-4.3-3.2-2-6-4.1-7.9-7.5-2-3.6-5.2-6.6-6.7-10.4-1.5-3.8-4.1-7-5.1-11.1-.4-1.5-2-2.6-2.3-4.6-.3-1.4-1.5-3-2.3-4.5-.8-1.5-1.7-2.9-2.2-4.6-.2-.7-1-2-2.3-.5-1.4 1.7-3.9 2.2-5.1 4.4-1 1.8-2.8 3.2-4.1 4.9-3 4.2-2.6 12.1.6 16.4.2.3.5.5.8.8.2-.4.6-.9.6-1.3.1-1.6.1-3.3 0-4.9-.4-5.1 2.2-8.7 5.7-12 .3-.3 1.3-.5 1.4-.4.3.6.6 1.2.6 1.9 0 .5-.2 1.1-.6 1.4-2.5 2.3-2.9 5.1-2.7 8.2.1 2.4.1 4.8 0 7.1-.1 2.1 1.2 3.9 1.3 6.1 0 2 1.4 4.2 2.7 6 3.8 5.1 6.9 10.6 9.8 16.3 1.4 2.7 1.8 5.5 2.6 8.3 1 3.3-.5 6.6-2.1 9.5-.7 1.2-2.1 2.2-3.4 2.9-2.7 1.4-5.4 3.4-8.8 2.7-.4-.1-.9-.6-.9-.9 0-.4.5-1.2.7-1.2 3.6.9 4.7-3.3 7.8-3.7 1.7-.2.9-2.7 1.7-3.6 1.6-1.7.5-2.5-.6-3.5-1.4-1.2-.6-2.7-.8-4.1-.3-2.2-1.2-2.9-3.4-2.1-1.3.5-2.1.3-3.4-.3-6.4-3-11-7.7-15.5-13.1-5.1-6.3-8.3-13.4-11.7-20.5-2-4.1-3.1-8.6-4.4-13-.4-1.3-.1-2.9.3-4.2 1.7-4.7 3.3-9.5 7.3-12.9.7-.6.9-1.9 1.6-2.6 3.9-4.1 8.4-7.6 13.1-10.9 2.2-1.5 2.4-2.3 2-5-.5-3.3-1.8-6.4-1.4-9.9.5-4.3-.6-8.3-2.9-12-.6-1-1.4-2.2-1.3-3.3.1-2.1-1.4-3.2-2.6-3.8-4.9-2.6-7.5-7.2-10.4-11.6-3.8-5.9-5.5-12.4-7-19.1-1-4.5-1.3-9-2.1-13.4-.3-1.8-.6-3.8-1.5-5.4-2.5-4.8-3.8-10.4-4.2-14.8-.2-2 2.6-3.3.7-5.4-1.1-1.2-1.8-2.9-2.7-4.4-4.9-7.5-7.5-16-10.5-24.2-.5-1.3-.2-2.8-.5-4.2-.2-1.2-.6-2.3-1.1-3.4-1.7-3.6 0-8.1-3.1-11.4.3-3.8-2-7.2-1.2-11 .1-.3.8-.6 1.2-.7.3 0 .9.3.8.5-.3 2.3 1.3 3.9 2 5.8.8 1.9 1.6 3.7 2.4 5.6.9 2 1.2 4.3 2.3 6.2 4.2 7.2 8.8 14.1 15.1 19.6 2.6 2.3 5.4 4.7 8.5 6.1 3.2 1.5 6.1 4.2 10.1 3.5 3.5-.6 7.1.7 10.7-.8 2-.8 4.6-.2 6.9-.1.1 0 .3.6.3.9 0 .3-.2.7-.4.9-.3.2-.7.1-1 .2-1 .2-1.9.4-2.8.6 1 .1 2.1.6 3.1.4 2.6-.6 4.8 1.2 7.3 1.2 3-.1 3.9-.7 3.8-3.7-.3-7.3 2.3-13.9 5-20.5 3.7-9.3 8.2-18.2 12.6-27.3 1.4-2.8 2.9-5.7 4-8.8 1-2.9 2.4-5.6 3-8.6.1-.5.8-.8.8-1.3.4-3.7.7-7.4 1.2-11.1.3-2.4.1-5.2 1.3-7.1 1.1-1.8.8-3.4.9-5.2.2-3.3 2.4-6 5.7-6.4.1 0 .6.7.5.8-.6 1.1-1.3 2-1.9 3.1-.8 1.3-2.3 3.1-2 4 1.1 2.8-.5 5.3-.1 8 .1.6.5 1.1.8 1.7.5-.4.9-.8 1.4-1.1.5-.4 1-.7 1.5-1.1.2.8.9 1.9.7 2.3-2.1 3.3-2.4 7.1-3.5 10.7-.8 2.6-1.5 5.3-2 8-1.2 5.9-.2 11.9-1.2 17.7-1 5.6-.2 11.1-1 16.6-1.2 8.8-3.8 17.2-10.2 23.8-.8.8-1.2.8-2.4.4-2-.6-1.5-1.6-1.6-2.7-.1-1.3.1-2 1.7-2 .9 0 2.2-.8 2.6-1.5 1.9-4.4 3.8-8.7 4.7-13.5 1-5.6.7-11.1 1-16.6.2-3-.9-6.1 1-8.9.1-.1-.4-1-.8-1.1-.4-.1-1.3.3-1.3.5-.9 5.2-4.3 9.2-6.3 13.9-1.7 3.9-3 8-5.2 11.6-2.2 3.7-2.2 8.3-5 11.7.4 5.5-3.3 11-.2 16.7.3.6.1 1.4 0 2.2-.3 5.4 2.4 9.9 4.7 14.6.2.3.6.5.8.8.5.9-.9 3 1.4 2.7 1.5-.2 1.7-1.8 2.1-3.3 2-7 5.2-13.6 8.8-20 3.4-6.1 7.1-12 10.2-18.4 3-6.3 5.3-12.8 5.1-19.9-.1-2.2-.1-4.4 0-6.6.1-3.5-1.2-6.8-1.9-10.2-.4-1.9.2-4.1-.4-5.9-1-3-.1-5.5 1.2-8 .9-1.8 1.9-3.5 4.3-3.4.4 0 .9.4 1.2.7.2.2 0 .7-.1 1 0 .2-.2.3-.4.4-4 3.1-3.4 7.2-2 11.2.7 2 .1 4 1.2 6.1 1.6 3.2 2 18.6 1.3 22-.7 3.2-1.6 6.3-2.8 9.3-1.6 3.8-3.3 7.4-5.3 11-1.9 3.5-3.8 6.9-5.9 10.2-2 3.3-3.7 6.9-5.6 10.3-1.8 3.4-3.2 7.2-4.3 10.8-.9 2.9-2.2 5.9-2.4 8.9-.3 5.5-.5 11 .1 16.5.3 2.9 2.2 5.7 4 8.2 1.5 2.2 3.8 4 5.8 5.9.3.3 1 .6 1.4.5.3-.1.8-.8.8-1.1-.2-1.7.8-3 1.1-4.5.3-2 2.4-4 .2-6.3-.5-.5.7-2.5 1-3.8.4-2.2.9-4.4 1.1-6.7.2-2.3 1.2-4.3 2-6.4.8-2.1 1.3-4.2 2-6.3 1.7-5 3.9-9.7 6.5-14.4 1.9-3.5 3.5-7.3 5-11.1s3-7.6 4.4-11.4c1.8-4.6 2.2-9.6 4.2-14.2.1-.3.1-.7.1-1.1.4-4.4.7-8.9 1.1-13.3.2-1.9.7-3.7 1.1-5.6.6-3.1-.7-5.9-1.1-8.9-.4-3 1.1-6.2-1.1-8.9.7-4.9-2.2-9.2-2.2-13.9 0-.5-.1-1.1-.3-1.5-1.9-4.2-1.8-8.8-3.2-13-1.3-3.9-.6-7.9-1.8-11.9-1.1-3.7-.4-8-.2-12 .2-4.1.7-8.1 1-12.2.1-1.9-.5-2.3-2.2-1.2-.7.4-1.6.5-2.5.6-2.1.3-4.2-.7-6.1 1.3-1.4 1.4-3.6 1.9-5.3 3-6.2 4.1-11.3 9.4-16.5 14.5-3.1 3-10.2 7.6-14.8 9.3-1.1.4-2.4.3-3.7.5-.2 0-.5.5-.5.8 0 .3 0 .9.2 1 3.5 1.5 7.1 3.3 11 2.5 2.8-.6 5.6-2.1 6.8-4.5 1.4-2.9 3.9-3.9 6-5.7 4.2-3.5 9.7-4.1 14.5-6.2.9-.4 2.2-.1 3.3 0 .4 0 .8.5 1.1.8-.4.5-.7 1.2-1.2 1.3-1 .3-2.3 0-3.1.5-4.7 2.9-10.2 4.3-14.1 8.5-.9 1-1.6 1.7-.4 2.9.1 0-.6 1-1.1 1.3-1.4 1-3 1.7-4.3 2.8-1.8 1.5-3.7 2.2-6 2.9-1.9.6-4.1.8-5.7 2.1-1.6 1.3-3.2 2.1-5.2 2.1-.2 0-.5.4-.8.6.3.2.6.4.9.5 1.9.9 3.5 1.3 5.9.5 4.9-1.5 9.8-2.8 14.5-4.8.6-.3 1.4-.2 2.1-.1.3 0 .7.5.7.7 0 .5-.4 1.4-.5 1.4-2.7-.7-3.3 3.3-6 2.7-1.5 2.2-4.3 2-6.4 3.1-3.4 1.6-6.7 3-10.9 1.1-2.9-1.3-6.6-.9-9.9-1.3-2.8-.3-5.7-.3-8.3-1.2-3.5-1.3-7.3-1.5-10.8-3-3.5-1.5-6.9-2.9-10-5.1-.4-.3-1.2-.1-1.9-.2 0 .5-.3 1.1 0 1.5 1.1 1.6 2 3.4 3.5 4.6 6.3 4.9 13.1 8.4 21 10.3 7.8 1.8 15.4 4.6 21.8 9.6 2.1 1.6 4.1 3.3 6.1 5.1.1.1-.5 1.6-.7 1.6-2.1-.2-4.3-.2-6.1-1.2-1.6-.8-3-1-4.6-1-3.7 0-7.3.1-11 0-4.6-.2-9.3-.5-13.8-1.1-2.1-.3-4.2-1.2-6.2-2.2-5.3-2.4-11-3.7-15.5-7.7-1.9.4-1-1.5-1.8-2.1-.3-.2-.4-.5-.6-.8.5-.1 1-.5 1.5-.4.8.2 1.5.7 2.3 1 6.5 2.5 13 4.9 19.5 7.4.3.1.6.3 1 .3 6.1.4 12.2.8 18.2 1.1.5 0 1-.3 1.4-.5-.5-.2-.9-.3-1.4-.6-3.3-1.5-6.8-2.2-10.1-3.4-5.1-1.8-10.4-2.9-15.2-5.9-3.9-2.4-7.1-5.3-10.2-8.4-3.4-3.5-3.4-7-1.6-11.1.6-1.2 1.3-1.2 2.2 0 .4.5.8 1.3 1.2 1.3 2.5-.4 4.3.8 6.3 2.2 1.9 1.3 4.4 1.6 6.7 2.3.3.1.6-.2 1-.3-.1-.3-.2-.6-.3-.8-.9-.9-1.7-2-2.7-2.7-1.5-1.1-1.1-2.6-1.1-4 0-.4.6-.9.9-1 .4 0 1.1.3 1.2.7 1.5 3.6 4.7 4.6 8 6 3.1 1.3 6.2 2.1 9.6 2.2 3.1 0 8.7-.3 10.7-1.4.2-.1.4-.6.4-.9 0-.3-.2-.8-.4-.9-7-2.2-13.2-6.3-20-8.9-4-1.5-7-4.4-10.5-6.4-1.3-.8-2.3-1.5-3.8-1.4-.6 0-1.5-.3-1.8-.8-.5-.9-.6-1.9-.9-2.9 1-.1 2-.4 2.9-.4.4 0 .7.8 1.2 1.1.3.2.8.4 1.2.5.1-.5.4-1.2.2-1.5-1.4-2.3-1-4.8-1-7.3 0-.3.4-.7.6-.7.5 0 1.4.2 1.4.4.4 2.2 2.2 3.6 3.1 5.4 2.5 5 7.3 6.8 11.6 9.1 1.4.8 3.5.3 5.3.5 2.9.3 7.5-.3 10.3-.9 5.3-1.1 9.2-4.7 13.2-7.9 4.8-3.7 9.1-8 14-11.5 3.4-2.5 7.3-4.5 11.3-5.8 2.9-.9 6.4-.9 9.5.2 2.8 1 3.4.6 4.4-1.9 2.7-6.9 5.7-13.7 11-19.1.7-.7.9-1.9 1.6-2.6.4-.4 1.5-.3 2.1 0 .4.2.6 1.2.4 1.7-.3 1-.8 2-1.5 2.6-3.3 2.6-4.8 6.4-6.5 10-1.7 3.5-3.3 7-3.9 11.1-.6 4.1-1.8 8.1-2 12.3-.2 4.2-.6 8.5.2 12.6.4 2.4.7 4.8.9 7.3.2 2.2.6 4.5 1.1 6.7l3.6 15.6c.7 3 1.9 5.9 1.9 9.1 0 1.7.8 3.4 1 5 .2 1.6-.2 3.1 1.1 4.6.5.5.1 1.8.1 2.7 0 3.7-.1 7.3 0 11 .1 5.5-1.1 10.8-2 16.2-1.3 7.3-3 14.5-5.7 21.3-2.6 6.6-5.1 13.3-9 19.4-1.6 2.5-2.8 5.4-4 8.2-1.1 2.7-2.7 5.2-3.4 7.9-1.5 6.3-4.2 12.4-4.5 19.1-1.9 3-1 6.3-1.1 9.4-.1 4.9 0 9.9-.1 14.8 0 .4-.4.9-.8 1.1-.2.1-.8 0-1-.2-1.4-1.4-3.2-2.5-2.6-5 .6-2.6-.7-3.9-3.1-5.3-6.7-3.7-11-9.7-12.7-17.1-1.1-4.8-3.4-9.6-.8-14.8 1-1.9-1.1-3.9-1.4-5.9-3-.9-3.6-4-4.9-6.2-2-3.3-3-7.2-4.4-10.8-.3-.8-.2-1.8-.2-2.7-.3-3.1-.8-3.7-4-3.5-2.4.1-4.8.7-7.3 1.1-2.2.4-4.7-.9-6.8.9-.3.2-1.2.2-1.4-.1-1-1.3-2.3-.8-3.5-.8-2-.1-4.4.7-6-.2-2-1.1-3.8-.6-5.7-.9-1.9-.3-3.8-.5-5.6-1.1-2.8-1-5.7-2.4-7-5.2-2.7-5.3-7.2-8.8-11.1-13-.2-.2-.5-.2-.8-.3-.1.3-.3.7-.3 1 .5 1.4.8 3 1.7 4.2 1.9 2.8 2.3 6.4 4.5 9.2 2 2.5 3 5.8 4.8 8.4 4.6 6.7 9.9 12.8 17.4 16.6.8.4 1.4 1.1 2.2 1.4 1.2.6 2.5 1.4 3.8 1.5 1 .1 2.1-.8 3-1.3 5.5-3.1 7.3-3.1 13.4-2.1 5 .8 9.2 3.6 14 4.9l.9.3c-.7 2.2 3.3 1.6 2.3 3.3-1 1.9-2.5.2-4-.2-4.5-1.2-8.7-3.8-13.4-3.3-1.8.2-2.5-2.2-4.4-.9-1.2.8-3 .7-4.4 1.3-4.9 2-6.4 6.5-7.7 11-.7 2.1-.9 4.4-1.1 6.7-.2 2.2-.4 4.5 0 6.6.8 4.6 1.5 9.2 2.6 13.7 1.8 7.3 5 14.1 7.8 21 1 2.4 1.9 4.8 1.7 7.6-.2 1.8-.2 3.7 0 5.5.2 1.5.7 3 1.1 4.5.1.3.3.6.4.9.2-.4.7-.8.6-1.1-.3-2.1-.9-4.1-1-6.1-.2-3.5-.1-7 0-10.4.1-3 1.7-5.8 1.1-8.9 0-.2.8-.7 1.1-.7.4 0 1 .6 1 .9 0 5.6 1.7 11 1.2 16.6-.3 3.8 2.6 11.8 4.9 15.5 1.7 2.6 3 5.4 4.7 7.9 1.1 1.8 2.6 3.3 3.9 5 1.2 1.5 2.3 3.1 3.5 4.6 1.3 1.7 2.5 3.4 3.9 5 1.3 1.5 2.7 3.1 4.3 4.2 1.8 1.2 1.6 4 4.2 4.3-.1.6-.2 1.8-.3 1.8-1.6 0-3.1.5-4.5-1-4-4.3-8.5-8.1-12.3-12.5-4.3-5-8.1-10.4-11.7-16-1.2-1.8-1.9-4-2.8-6-.2-.5-.5-1-.8-1.6-.1.7-.4 1.4-.3 2 .1.8.5 1.6.7 2.4 2.2 6.2 4.7 12.3 7 18.6 1.4 4 3.6 7.7 5.4 11.5 2.6 5.7 5 11.5 7.7 17.1 4.2 8.7 11.2 14.6 20 18.2.9.4 2.1.4 3.2.3.4 0 1.1-1.1.9-1.5-1.6-3.6-.2-7.6-1.2-11.1-1.6-5.8-.5-11.5-1-17.2-.4-4.6-.9-9.2-1.1-13.8-.2-4.6.1-9.2-.1-13.7-.1-1.7-1.2-3.5-1-5 1.9-10.6.6-21.3 1.1-32 0-.4.8-.9 1.2-1.3.3.5.9 1 .9 1.6.1 4.2 0 8.4 0 12.7 0 3.5-.1 7 0 10.4.1 1.9-.4 3.7.9 5.7.8 1.3.3 4-.3 5.7-.4 1.2-.4 1.7.2 2.7 1.1 1.8 1.6 3.8 1.5 6-.2 2.9-.6 6 .1 8.8 1.4 5.5.2 11.2 1.2 16.6.9 5 .1 10.1 1.1 14.9.8 3.9.8 7.8.9 11.7.1 2.1 1.6 3.9 1.2 6.2-.3 1.8-.7 4 1 5.6.1.1 0 .4 0 .5-.6 4.9.9 9.4 2.2 13.9 1.2 4.1 2.2 8.3 3.8 12.2 4.4 10.3 9.3 20.4 14.7 30.2 5.8 10.5 12.1 20.7 18.6 30.8 2.9 4.5 6.7 8.4 9.1 13.3.3.6 1 1 1.5 1.6 2.4 2.6 5.1 4.9 7.1 8 1.2 1.8 2.8 3.5 5.2 4.5 1.7.7 2.9 2.7 4.3 4.1l14.4 14.4c5 5 10.9 8.9 16.4 13.4 6.3 5.1 13.1 8.9 20.3 12.3 4.8 2.3 9.9 3.6 14.9 5.2 4.5 1.4 9.2 1.4 13.5 3.2.3.1.7 0 1.1 0 8.1.4 16.1 1.6 24.3 1.1 3.8-.2 7.7.1 11.5-.1 2.4-.1 4.8-.7 7.2-1.1 2.4-.4 5 .9 7.3-1 .5-.5 1.8-.2 2.7 0 3.2.4 6.3-.7 9.5-1 3-.3 5.7-1.7 8.5-2 4.6-.5 8.7-2 12.8-3.6 3.4-1.4 6.4-3.4 9-6.2 3.7-4.1 7.7-7.8 11.6-11.7 5.5-5.4 10.6-11.1 15.2-17.4.7-1 1.8-1.8 2.7-2.7 4.2-4.1 8.1-8.5 11.3-13.5.5-.8 1.3-1.3 1.9-2 4.3-4.1 8.1-8.5 11.3-13.5.5-.8 1.3-1.3 1.9-2 4.2-4.1 8-8.6 11.3-13.4 2-2.9 5-5.2 6.9-8.2 3.5-5.4 6.3-11.3 8-17.6 1.4-5 2.9-9.9 3.6-15.1.4-2.9 1.1-6 1.9-9 .8-3 .3-6.4 1.3-9.4s.2-6.1 1.1-8.9c1-2.9.3-5.7 1.1-8.4.9-3 .4-6.1 1.1-8.9.8-3 .3-6.1 1.1-8.9 1.5-5.2 1.3-10.6 3-15.8 1-3.1.6-6.7 1.3-9.9.6-2.8.5-5.7 1.2-8.3.8-2.6 0-5.7 2-8-.7-3.3 1.1-6.2 1.2-9.4.1-2.2.8-4.5 1-6.7.2-2.1.3-4.1 1-6.2 1-3.3 1.1-7 1.2-10.5.1-2.5 1.8-4.6 1.2-7.3-.5-2.3 1.1-4.3 1.6-6.5.3-1.4.5-2.8.6-4.2.1-6.2 0-12.5.1-18.7 0-.5.7-.9 1.1-1.3.3.5 1 1 1 1.5.1 9.3 0 18.7 0 28v1.1c0 1.7-2.2 2.6-1.5 4.8.6 1.9.1 4.1-.1 6.2-.1 1.9-.1 4-.7 5.8-1.8 6-.7 12.6-3.2 18.4.8 3.8-1 7.4-1.2 11.1-.2 3.4-.6 6.9-1.8 10.2-.4 1-.3 2.1-.3 3.2.1 3.7-1.8 7.3-1.1 11.1-2.1 2.4-.4 5.3-1.2 7.8-.8 2.4-1.1 4.8-1 7.3v1.1c.1 1.4 1 1.4 1.8.9 1.1-.5 2.2-1.1 3-1.9 6.3-5.8 11-12.5 13.9-20.6 1-2.8 2.9-5.5 4.8-7.9 2.4-2.8 4.2-5.9 6.2-9 3-4.9 4.6-10.2 6.2-15.6l.3-1.5c.4-3.7.9-7.4 1.1-11.1.2-3.8 0-7.7 0-11.5 0-4.8.2-9.5-.1-14.3-.1-2.7.4-5.3 1.2-7.8 2.1-6.3 3.6-12.8 5.4-19.2 1.3-4.8 2.5-9.6 3.7-14.4.8-3.4 1.9-6.7 1.8-10.2-.1-1.8-.3-3.5-.5-5.3-2.2 0-4.8-.8-6.5.1-4.2 2.4-9.1 3-13.2 5.4-1.1.6-1.9 1.6-3 2.1-.5.2-1.4-.1-2-.4-.2-.1-.1-1.2.1-1.4 1.5-1.2.9-2.4-.3-3-5.4-2.6-7.1-7.7-8.8-12.8-1.1-3.1-2.1-6.2-2.2-9.6-.1-2.2-.8-4.5-1-6.7-.2-2.3.3-4.5-1-6.8-.6-1-.3-2.7.9-4 .8-.8-.8-3.5 1-3.6 2.8-.1.8 2.5 1.2 3.8.7 2.5 2 4.6 2.5 7.3.9 4.3 1.9 8.7 3 13 .9 3.2 3.5 8.9 5.5 11.5 1.5 2 3.7 2.2 5.4 1.5 6.9-2.6 14-4.9 19.2-11.4.1-.3-.1-.2-.3 0l.5.5c.2-.2.4-.4.5-.7 0 0-.2-.2-.7.2-1.2.5-2.4.1-3 .6-6.2 3.8-12.6 2.3-19 1-3.4-.7-5.4-3-6.8-6-.2-.4-.1-1.2.2-1.4.3-.3 1-.3 1.4-.1.8.3 1.7.6 2.2 1.2 2.4 2.6 5.7 2.3 8.7 3 1.3.3 2.8-.4 4.1.8 1.5 1.4 2.3-1.4 3.7-.9 0-.3.1-.7 0-.8-1.1-.8-2.2-2.1-3.4-2.3-3.5-.4-5.4-3-8-4.7-2.6-1.8-4.5-4.4-6.4-6.7-2.2-2.7-3.3-6.2-2.7-9.8.1-.3.7-.8 1-.8.4 0 1.1.6 1.1.8-.4 3.4 2.1 5.5 3.8 7.8 3.3 4.3 7.8 7.4 12.4 9.8 3.3 1.7 6.9 3.4 11.2 3.7 4.8.4 7.5-2 10-5.2 1.5-2 2.6-4.4 3.5-6.8.9-2.2 3.6-3.5 3.2-6.4 0-.1.9-.6 1.3-.5.3.1.7.7.8 1.1.5 3.4-.5 6.7-1.7 9.7-1.8 4.5-4.1 8.8-7.7 12.2-.7.7-.9 1.9-1.7 2.6-2 2-3.7 4.3-6.4 5.6-1.7.8-1.6 1.7.2 2.8 2 1.2 2.9 3.2 2.9 5.2.2 6.2-.3 12.3-1.8 18.4-1.3 5.1-2.4 10.4-3.6 15.6-1.2 5-2.4 10-3.9 14.9-1 2.9-1.4 6.2-1.5 9.3-.2 9.3-.1 18.7 0 28 .1 7.1-3.1 13.4-4.4 20.2-2.6 1.4-2 4.7-4.1 6.6-1.9 1.7-2.9 4.3-4.4 6.4-3.3 4.6-7.1 8.9-9.2 14.3-1.2 3-3.2 5.8-5.5 8.2-1.3 1.4-2.2 3.2-3.6 4.5-1.4 1.3-3.1 2.3-4.5 3.6-2.2 2.1-2.1 4.4-.6 7.1 2 3.8 5.2 6.1 8.7 8.1 1.3.7 1.8 1.3.8 2.2-1.7 1.3-1.7 3-1.7 4.8-.2 8.2-3.5 15.1-8.8 21.1-2 2.3-4.1 4.4-6.9 5.9-1.1.6-2.2.9-3.3 1.4-2.6 1.2-5.9 2.2-5.3 6.3-2.2 6.8-4 13.8-6.8 20.3-1.7 4.1-4.8 7.6-7.5 11.2-3.7 4.8-8 9.1-11.5 14-1.5 2.1-2.6 4.7-3 7.6l-10 8.4c-.4 1.1-1.7 1.9-2.6 2.8-1.8 1.8-4 3.4-5.4 5.5-3.6 5.4-7.9 10.1-12.5 14.6-1.1 1-2.3 1.9-3.1 3.1-2.9 4.5-6.7 8.3-10.2 12.2-4.5 5-9.7 9.5-14.3 14.5-2.5 2.7-6 3.5-8.6 5.9-1.4 1.3-19.4 5.3-21.3 5.6-3.5.5-6.9 1.4-10.5 1.3-.1 0-.3.6-.4.9h-59.4c-.3-.4-.6-1-.9-1-1.3-.1-2.6.1-3.8-.1-1.3-.2-2.6-.8-3.9-1-5.6-.9-11.1-2.6-16.2-4.7-9.7-4-18.6-9.5-26.9-15.9-5.6-4.3-11.2-8.9-16.2-13.9-11.3-11.4-23.7-21.9-33.2-35.1-4.2-5.9-8.3-11.9-12.2-18-2.7-4.3-5.3-8.8-7.9-13.2-2.3-4-4.4-8.1-6.4-12.2-1.8-3.6-4-7.1-5.5-10.9-1-2.4-2.6-4.3-3.4-6.9-.9-3.1-2.4-5.9-3.8-8.9-.2-.4-.8-.7-1.1-1.1-.2.5-.4.9-.5 1.4-.1.7 0 1.5 0 2.2"/><path id="Fill-3" class="st0" d="M345.3 147.9c0-2.5.1-4.5 0-6.5-.2-2.1-.6-4.1-1.1-6.1-.3-1.3-.7-2.6-1.1-3.9-.3-1.1.8-2.4-.7-3.2-.3 1-.2 2.2-.8 2.9-1.2 1.3-.5 2.8-.6 4.2-.5 6.6.8 13.3-1 19.9-1.1 4-2.3 7.9-4.8 11.2-.7.9-1.3 2-1.8 3.1-.2.3.3 1.4.4 1.4 1.7 0 3.5.7 5.2-.5 3.9-2.8 5.6-7.1 7.5-11.2.2-.4.2-1.2 0-1.6-2.3-3.4-.6-6.9-1.2-9.7m-172.9-27.7h8.2c4.4-.1 8.7 0 12.9 2.1 2.8 1.4 6 2.5 7.5 5.3 1.8 3.3 4.5 5.9 7.3 7.8 3.7 2.4 6.7 5.3 9.4 8.7l2.7 3.6c.8-1.9-.8-3.1-1.5-4.5-.8-1.7-1.6-3.4-2.5-5-2.4-4.1-4.9-8.1-9.4-10.3-2-1-3.6-2.8-5.4-4.2-2.8.9-3.9-3.2-6.7-2.3-.9-2.4-3.9-1.4-5.3-3.1-1.5-1.8-4.5-1.1-5.7-3.4-2.9.3-4.8-1.9-6.9-3-2.3-1.2-4.8-1.7-7-3.1-4-2.5-8.5-4.3-12.7-6.3-2.4-1.1-4.9-1.5-7 .2-5.1 4.1-10.1 8.5-15 12.8-.4.4-.6 1-.9 1.5.5.1 1.1.3 1.6.2 5.1-.8 9.9 1.3 14.9 1.1 5.5 2.8 11.4 2.1 17.2 2.2 1.4-.2 2.9-.3 4.3-.3m16.7-39.5c-4.1-.4-7.7 1.1-11.4 2.9-4.7 2.2-8.9 5.2-13.2 7.9-2.6 1.7-5.1 3.6-7.6 5.5-.5.4-.6 1.2-.8 1.8 0 .1.9.6 1.3.5 2.2-.5 4.1.7 6.1 1.2 1.6.4 3 1.7 4.6 2.1 9.5 2.7 18.4 6.8 27.3 11 4.6 2.2 9.3 4.2 13.8 6.6 2.9 1.6 5 3.9 7.4 6.1.2.2.7.2.7.2.2-.3.4-.8.3-1-2.1-3.6-3.8-7.3-6.4-10.6-2.3-2.8-4.5-5.2-7.8-6.8-6.3-3.1-13-4.9-19.3-7.7-4.2-1.9-8.1-4.1-11.1-7.7-.1-.1-.4-.3-.4-.4 0-.9.1-1.7.2-2.6.6.1 1.3.1 1.9.3 3 1.1 5.7 2.9 8.8 4 6 2.1 12.1 3.5 18.1 5.4 4.2 1.3 8.3 3.3 10.9 6.7 3.5 4.4 6.9 8.9 8.5 14.6 1 3.8 2.3 7.3 2.1 10.1-.4 3.9-.3 3.9 1.1 6.9.7 1.5 1.6 3 2.2 4.6 3 7.8 5.5 15.7 5.5 24.1 0 .3.2.6.3 1 .3-.1.6-.1.8-.3.8-.8 1.9-1.5 2.2-2.4 1.5-5 3.5-9.8 3.4-15.1-.1-2.3-.7-4.5-1-6.7-.8-6.5-3.1-12.5-6.2-17.8-4.1-7-8.1-14-13.3-20.5-5-6.2-9.5-12.8-15.3-18.3-3.8-3.7-8.1-6.2-13.7-5.6M405 77.4h-.3c0-2.2.1-4.4 0-6.6-.2-2.1-.6-4.1-1.1-6.1-1.9-7.8-7.3-13.3-14.8-12.5-3.8.4-7.3-1.6-11.1-1.2-5.9-2.8-12.1-4.4-18.3-6.2-4.1-1.1-8.4-1.9-12.7-2.5-1.9-.3-3.9.3-5.8.5 1.3 1.3 2.7 2.5 3.9 3.9 1.1 1.3 2.1 2.8 3.1 4.2 4.3 5.4 3.3 12.2 5.1 18.2-2.3 2.7-.6 5.9-1.1 8.9-.2 1.1.4 2.6-.1 3.2-1.7 1.9-.9 4.3-2 6.4-1.1 2-.9 4.7-1.3 7.2-.4 2.2-.3 4.6-1.2 6.6-1.1 2.4-.2 5.2-1.2 7.2-1.5 2.9-1.3 5.9-.7 8.4.6 2.5.2 5 1 7.3.8 2.5.9 4.8 1 7.3 0 .5-.1 1.1.1 1.6 1.5 4 2.2 8.1 2.1 12.3-.1 2.6.2 5.1-.1 7.7-.3 3.3-.4 6.7-1.5 9.8-.7 2-.9 2.4 1.3 2.6 1.5.1 1.7 1 .9 2-1.5 2.1-4 2.7-6.1 3.9-.5.3-.8.8-1.2 1.2.5.2.9.5 1.4.5H358c.7 0 1.4 0 2.1-.2 8.5-2.5 15-8 20-14.9 5.7-7.8 8.9-17.1 12.2-26.2 1.8-5.1 3.6-10.2 4.9-15.6.9-3.8 2.3-7.5 3.4-11.2 1.1-4 1.7-8.1 2.6-12.1 1.4-5.2 1.3-10.5 1.8-15.6m-183.7 74.1c.5-.6.8-.8.8-.9 0-.5-.2-.9-.3-1.4-.2.1-.7.1-.7.2 0 .6.1 1.2 2.3 3.5-.3-.6-.5-1.2-.8-1.7-.2.3-.5.7-.5 1 .1.7.4 1.4.6 2.2.2-.6.4-1-1.4-2.9m110 8.1c-1.1 1.6-2 1.7-2.8 2.1-2.4 1.2-4.7 2.9-7.2 3.8-2.6.9-4.5 3.3-7.5 3.2-3.4 3.3-8.1 5-11.2 8.9-1.3 1.6-2 1.3-2.4-.9-.3-1.5-.8-2-2-1.1-.8.6-1.6 1.3-2.2.3-.4-.6-.3-1.9.1-2.5 1-1.3 2.2-2.5 3.5-3.5 1.3-1.1 2.8-2.1 4.2-3.1 1.3-.9 2.6-1.7 3.8-2.7 3.8-3.3 7.9-6.4 11.1-10.2 2.8-3.3 4.8-7.3 5.9-11.8 1.1-4.3 1.4-8.6.8-12.8-.8-6.4-2.4-12.8-4.8-18.9-3.3-8.4-7.4-16.4-9.7-25.1-.3-1-.7-2-.7-3-.1-4-.4-8.1.1-12.1.4-3 .7-6.1 2-9 .9-2 .8-4.4 1.2-6.6.1-.5.8-.9 1.2-1.3.3.3.9.7.9 1 .1 2.7.2 5.5 0 8.2-.2 2.6 1 5.4-1 7.8-.2.2.2 1 .3 1.5.3 1.2.7 2.4.7 3.5-.1 5.7.5 11.2 4.4 15.8-.2 3 2.4 4.8 3.2 7.5.8 2.7 2.4 5.2 3.4 7.9 1 2.5 1.4 5.3 2.4 7.8 1.1 2.8 1.5 5.7 2.2 8.4 1.2 4.3.6 8.5 1 12.8.5 4.4-.7 8.5-2.4 12.2-1.4 3-2.8 6.4-5.7 8.7-.3.2-.5.5-.7.8.5.2 1 .5 1.4.5 1.5-.2 3.3.7 4.6-1 1-1.3 1.9 1.9 3 .2 1.2-1.7 2.2-3.5 2-5.8-.2-1.8 0-3.7 0-5.5 0-7.5-.3-15.1.1-22.5.4-6.2-2-11.6-4-17.1-1.9-5.1-3-10.1-4-15.4-1.2-6.5-.7-12.9-.8-19.4-.1-5.8 1.5-11.3 3.6-16.6.6-1.6 2-2.9 3.1-4.2.3-.3 1.3-.6 1.4-.4.3.5.5 1.2.7 1.9.1.2.1.4 0 .5-2.2 2.7-1.8 5.9-2.3 9-1.1 7.3-1.4 11.9.1 18.9.1.7 0 1.5 0 2.2-.3 8.2 2.4 15.7 5.5 23 1.9.7.7 2.6 1.5 3.8.6 1 .5 2.3.8 3.5.1.3.3.6.5.9.2-.3.6-.5.6-.8-.4-5.2 1.5-10 2.4-15 .7-4 1.7-8 2.8-12 .9-3.2 1-6.6 1.4-9.9.4-2.8-.6-5.6.9-8.4.4-.8-1.1-2.7-1-4.4.1-2.3-.5-4.5-.8-6.7-.8-4.9-4.3-7.9-6.9-11.4-.7-.9-2.1-1.3-2.6-2.7-.3-.6-1.4-1.1-2.2-1.2-2.7-.1-6-.9-8.1.2-2.4 1.2-5.1-.2-7 1.7-7.7 1.1-14.3 4.7-20.4 9.2-5.4 3.9-11.1 7.6-14.6 13.7-1.2 2.1-3.2 3.8-4.8 5.6-2 2.2-1.3 3.7-.6 5.5 1.8 4.9 2.9 10.1 5.5 14.8 1.8 3.3 3.7 6.6 5.9 9.6 4.9 6.6 7.6 14 9.6 21.9 1.3 4.9 1.3 9.8.7 14.4-.8 5.9-4.2 11.1-9.5 14.5-4.6 2.9-9.6 5.2-14.2 8.1-5.4 3.5-11.6 6.1-14.6 12.3-2.5.2-2.1 4-4.9 3.8-.5 1.8-1.2 3.6-1.6 5.4-.3 1.4 0 2.9-.1 4.4 0 .4-.4 1.1-.8 1.1-.4.1-1.1-.2-1.4-.5-1.4-1.5-1.6-4-4.2-4.2-.1 0-.2-1 0-1.4 3.4-5.8 4.3-8.3 4.1-13.7-.1-3.3.5-6.7-.9-10.1-.6-1.4-1.1-4 .7-5.6.1-.1.2-.3.2-.5.6-7.5 2-15.1 1-22.6-1.1-7.8-3.4-15.4-8.3-21.8-4.6-6-9.2-11.9-13.6-18-3.4-4.8-6.6-9.7-9.9-14.6-1.2-1.7-2-3.7-3.4-5.1-1.3-1.3-.9-2.7-.9-4 0-.3.6-.8 1-.9.4 0 .9.4 1.1.8.4.9.4 2.1 1 2.8 5 5.6 9.4 11.8 13.6 18 1.9 2.8 4.5 5.1 6.5 7.8 3.7 4.7 7.6 9.2 10.6 14.3 2.8 4.6 4.2 10 5.7 15.2 1.6 6.1.9 12.2 1 18.3 0 1.9-.8 3.7-1 5.6-.2 1.7-.4 3.4-1 5.1-.7 2.1.7 5.2-.4 7-1.6 2.7.2 3.8 1 5.5.4.7 1.2 1.1 1.5.1.7-2 2.6-2.5 3.8-3.8.6-.6 1.5-1.4 1.4-2.1-.3-3.6 2.4-6 3.5-9.1 1.3-3.5 3-8.6 3.2-11.3.2-1.9 1-3.7 1-5.6.3-7.9-2.7-14.9-7.1-21.2-1.7-2.5-3.8-4.7-5.8-7-5.7-6.5-11.5-12.8-17-19.4-2.7-3.2-4.8-6.8-7-10.3-.8-1.3-1.3-2.9-1.4-4.3-.1-1.2-.5-2.1-1.4-2.7-1.5-1.1-.8-2.7-.8-4 0-.2.7-.6 1.2-.7.2-.1.9.4.8.4-.9 2.7 2.3 3.7 2.5 6.2.2 1.9 2.7 3.6 3.7 5.6 1 2.2 3.2 3.4 4.3 5.4 1.5 2.8 3.9 4.7 5.9 6.9 4.8 5.2 9.9 10.1 14.3 15.6 4.2 5.4 8.1 10.9 10.4 17.7 2.4 6.9 2.2 13.3.6 20.1-.4 1.6-1 3.2-1.5 4.9-.5 1.4-.8 3-1.5 4.3-1.2 2.3-2.4 4.6-4 6.6-1 1.2-1.7 2.2-1.5 3.8.1.5-.4 1-.6 1.6.7 0 1.6.3 2.1 0 1.1-.5 2-1.5 3-2.1 6.3-4.2 12.7-8.2 19.1-12.2 1.2-.7 2.2-2.1 2.9-3.7 3.7-7.8 3.8-8.7 2.2-18-1-5.8-2.7-11.3-5.6-16.4-1.9-3.3-4.3-6.3-6.3-9.5-3.6-5.5-6.3-11.3-7.9-17.6-2.4-9.6-8.7-15.8-16.9-20.5-3.5-2-7.3-3.6-11-5.3-.5-.2-1-.3-1.5-.3-5.5 0-11.1-.5-16.5.1-4.2.5-8.3 2-12.2 3.5-5.6 2.1-11 4.5-15.9 8.1-2 1.5-4.6 2.3-6.7 3.6-1.2.7-1 1.6.3 2.3 2.7 1.4 5.6 2.2 8.3 4.1 4.4 3.1 8.1 6.8 11.4 10.8 4.5 5.4 8.2 11.6 12.2 17.4 1.6 2.3 3.8 4.4 4.4 6.9.7 2.9 4 4.2 3.5 7.4 3 3.9 4.1 8.5 5.6 13.1 1.2 3.7 2.3 7.3 2.1 11.2-.1 1.5-.1 2.9 0 4.4.4 7.5-3.2 13.6-6.6 19.8-3.9 2.3-4.7 6.2-5.7 10.2-.8 3-2.8 5.8-4.4 8.6-.4.7-1.3 1.2-2.1 1.5-.6.2-1.4-.1-2-.4-.2-.1-.1-1 .1-1.4.7-1.5 1.7-3 2.3-4.6 1-2.4 2-4.8 1.9-7.5-.2-2.7.1-5.5-.1-8.2-.2-2.6-.6-5.2-1.1-7.8-.2-1.2-.7-2.3-1.1-3.4-.1-.3-.4-.4-.6-.6-.1.3-.4.6-.4.9 0 2.4-.1 4.8 0 7.1.4 8.6-2.7 16.3-5.6 24.1-.8 2.2-1.5 4.6-3.2 6.3-.4.4-1 .7-1.5 1-.2-.6-.7-1.3-.6-1.9.7-3.3 1.1-6.9 2.6-9.9 1.1-2.3-.5-5.1 1.8-7 .4-3.9.8-7.8 1.1-11.6.6-7.9-3.9-18.1-11.7-22.5-3.2-1.8-5.5-4.5-8.1-7-1.6-1.5-3-3.2-4.7-4.6-1.2-1-2.5-2.2-3.9-2.4-3.3-.7-6.6-1-10-1.1-4.6-.2-9.2-.1-13.7 0-5.7.1-11-1.6-16.4-2.9-3-.7-6.2-1.1-9.2-1.8-3.4-.7-6.7-.6-10-.9-1.4-.1-2.3.4-3.3 1.4-3.6 3.7-7.2 7.3-10.9 10.9-.7.7-1.6 1.1-2.5 1.6 1.2.8 2.1.5 3.4-.1 1.6-.9 3.6-1.1 5.4-1.6 1.8-.4 3.7-.7 5.6-1.1 5.9-1.3 11.7-2.4 17.8-2.3 1.5 0 3.2-1.3 4.4-.9 3.2 1.1 6.3 1 9.5 1 3 0 5.8 1.9 8.9 1.1 10.5 3.4 21 6.6 29 15.1 4.8 5.2 9.1 10.6 10.8 17.6.1.5.7.8.8 1.3.4 3.9.9 7.8 1.1 11.6.2 4.6-1.2 8.8-3.8 12.7-.5.7-.3 1.9-.3 2.9 0 .3.6.5.7.8.2.6-1.5 5-1.9 5-2.6.1-1.1-2.2-1.6-3.3-1.2-2.4-1.8-5.1-2.5-7.8-1.5-6-3.8-11.6-7-16.9-.9-1.6-1.8-3.5-1.2-5.5.1-.3.5-.5.8-.6.3-.1.9 0 1 .2 3.3 5.4 7.6 10.2 9.2 16.5.3 1.2.7 2.3 1.1 3.4.1.3.4.5.6.7.2-.3.5-.6.5-.9 0-5.9.8-12-1.2-17.7-1.3-3.8-3.3-7.6-5.8-10.7-3.6-4.4-7.6-8.6-13-10.9-3-1.3-5.8-2.8-8.8-4-3-1.2-6.5-1-9.2-3-.1-.1-.4 0-.5 0-7.2.3-14.4-2.3-21.5-1-7.7 1.3-15.7.8-23 4.3-4.6-.5-8.2 2.5-12.3 3.6-3.9 1.1-7.3 3.6-11.1 5.1-1.3.5-2.2 1-2.6 2.3-.8.2-2.1-.5-2.2 1.3v-.2c-.3.1-.6.2-.8.3-.1.1.1.4.2.7.2-.2.4-.3.7-.8.8-.4 2.1.3 2.2-1.3 3.4-1.1 6.8-2.1 10.2-3.3 5.8-2.1 11.6-3.7 17.9-3.3 1.5.1 3-.1 4.4 0 2.5.3 5-.7 7.4.7 2.1 1.3 5.1-.7 7.1 1.5 5.7 0 10.7 2.4 15.8 4.4 3.2 1.2 12.1 6.2 14.2 8.2 2.8 2.7 5.5 5.4 8.2 8.2.8.9 1.4 2 1.9 3 .4.7.9 2.1.7 2.2-1.1.7-2.2.6-3.3-.4-2.4-2.2-4.8-4.2-7.3-6.2-4.8-3.8-14.1-9-22-10.8-3.9-.9-8.1-1.2-11.9-3-1-.5-2.5 0-3.8-.1-2.4-.2-5 .8-7.3-1-.3-.3-1.1-.1-1.6 0-2.4.3-4.8.7-7.2 1.1-2.4.4-5.1-1.2-7.3 1-4.7-.3-8.8 1.7-12.9 3.4-4.5 1.9-8.9 4.2-13.3 6.3-3.7 1.8-6.6 4.8-10.8 5.9-1.7.4-3.1 2.4-4.2 4-4.8 6.9-8.1 14.5-10.7 22.5-.7 2.1-1.1 4.2-2.4 6.2-.9 1.4-.1 3.9-.2 5.9 0 .3-.7.8-1.1.8-.4 0-.7-.5-1.1-.8-.1-.1 0-.4 0-.5.5-3.9-1.1-7.9 1.1-11.6 1.4-10.5 6.5-21.1 13.1-30.3 6.1-8.5 13.8-15.2 22.9-20.3 3.1-1.8 5.8-4.5 9.7-4.5 2.3-2.3 5.2-4.4 6.8-7.1 1.3-2.1 2.9-3.6 4.5-5.2 1.8-1.9 3.6-3.8 4.7-6.3.5-1.1 1.3-2.4 2.3-2.8 2.5-1 4-3 5.7-4.8 5.1-5 10.6-9.6 16.2-14 1.9-1.5 3.4-3.3 5.1-5 2.5-2.5 5.6-4.2 8.3-6.4 3.1-2.5 6.3-5 9.7-7.2 4.9-3.3 10.1-5.7 15.5-7.7.3-.1.6-.4.9-.4 5.8.3 9.9-2.9 13.8-6.6 1.9-1.7 4.2-3.2 6.5-4.3 1.7-.8 3.4-1.5 4.9-2.8 1.4-1.2 3.4-1.5 5-2.6 2.9-1.9 6.6-2.6 10-3.6 3.6-1.1 7.3-2 11.2-2.4 2-.2 4.1-1 6.2-.8 8.5.8 16.5 3.1 23.7 7.9 3.2 2.2 6.6 4 9.2 7 .6.7 1.7 1.2 1.9 2 .3 1.3.8 2.5 2 2.5.5 0 1-1.7 1.6-2.5 2-2.8 3.8-5.9 6.3-8.4 4.6-4.6 9.3-9.2 14.4-13.2 2.3-1.8 4.8-3.9 8.1-4.2 3.3-3.1 7.8-3.4 11.8-4.8 2.9-1 5.9-2 9.2-1.9 4.2.2 8.4 0 12.6.1 2.3 0 4.6.4 6.9.5 2.1.2 4.6-.3 6.3.7 2.1 1.2 4.7 0 6.3 2 6.4.5 12.2 3.1 18.3 5.1.3.1.6.4.9.4 3.9.4 7.8 1.1 11.6 1 8-.1 13.2 4.1 17 10.5.9 1.5 1.4 3 3 4.3 1.8 1.4 3.4 1.8 5.4 1.7 6.1-.3 11.5 1.9 17.1 3.7 6.2 2 11.2 5.7 15.7 9.7 4.1 3.7 6.7 9 8.4 14.5 1.4 4.4 2.4 8.8 2.2 13.4-.2 3.1-.2 6.2 0 9.3.5 6.8-1.6 13.2-3.8 19.4-3.6 10-8.7 19.3-15.3 27.8-3.6 4.6-7 9.5-11.4 13.4-6.5 5.8-12.9 11.7-21.6 14.2-1.3 1.9-3.5 2.3-5.4 2.9-2.5.8-4.9 1.9-7.6 1.6-1.9-.3-3.7-.2-5.5 1.5-.9.9-3.3.4-5 .3-.4 0-.8-.7-1.2-1.1.5-.3 1-.5 1.5-.8.8-.4 1.5-.8 2.3-1.2.6-.3 1.2-1 1.8-1 3.9.6 7.2-1.1 10.7-2.2 5.9-1.9 17-8.4 20.3-12 .2-.3.2-.8.2-1.1-.5.1-1.1 0-1.5.2-1.1.6-1.9 3.2-3.3 1.3-1.1-1.4 1.3-2.2 2-3.3.1-.2.2-.3.4-.4 4.3-3 5.1-7.8 6.1-12.3 1-4.3 2.2-8.6 3.6-12.8 2.4-1.3 1.9-4.4 3.8-6.2 1.6-1.6 2.3-4.1 3.2-6.3 2-4.7 3.7-9.5 5-14.5 2.4-9.2 2.1-18.4 2.1-27.7 0-1.8 0-3.7.1-5.5 0-.2.8-.5 1.3-.6.3 0 .8.3.8.5.1.7 0 1.5 0 2.2 0 .7-.3 1.9 0 2.1 3.8 3 2 7.1 2 10.7 0 3.5.8 7-.8 10.6-1 2.2-.6 5.1-1.2 7.7-1.9 8.6-4.4 14.9-9.7 23.5-2.7 4.5-5 9.3-5.8 14.6-.8 5.1-2.5 9.6-5.9 13.5-.4.5-.5 1.2-.7 1.9.5-.2 1.2-.2 1.5-.6 3.3-3.2 7-6.1 9.6-9.8 5-7.2 10.4-14.1 14.2-22.1 2.3-4.8 3.5-9.9 6.1-14.5 1.1-2-.4-4.7 1.5-6.5.4-4.6 1-9.2 1.3-13.8.3-5.6-2.1-10.7-2.4-16.1-3.7-6.7-7-13.5-14.4-17.3-4.9-2.5-9.7-5-14.9-6.5-.6-.2-1.5-.4-1.8-.9-1-1.5-2.5-1.2-3.9-1.3-1.9-.1-3.9-.4-5.8-.6-.3 0-1 .2-1 .3.3 4.3-1 8.7 1.1 12.7.6 1.2 1.3 1.1 2.2-.1.4-.5.8-.8 1.2-1.3.3.5.9 1.1.9 1.6 0 1-.5 2-.7 3-.2.9-.7 2.2-.3 2.5 1.7 1.5.7 3.4 1 5.1.2 1.2-.3 2.4.8 3.6.6.6.7 2.4.2 3.1-1.5 2-.9 4.1-1 6.2-.1 2 .7 4.4-.2 6-1.1 2.1-.5 4.2-1 6.2-.4 1.8-2 3.4-2 5.2 0 5.1-3.9 8.7-4.8 13.5-3.5 3.7-4.8 8.6-7.3 13-2.9 5.2-4.5 11-5.7 16.9-1.2 5.6-4.2 10.3-8.8 13.9-1.7 1.4-3.9 1.7-8.3 1.6-.5 0-1 .2-1.4.5-1.6 1.1-3.5 2-4.5 3.5-2.1 2.9-4.9 2.6-7.8 2.5-.3 0-.9-.6-.9-1s.6-1.1.7-1.1c2.8.6 4.5-1.1 5.9-3 2.3-3.1 5.9-3.8 9.1-4.5 5.1-1.2 8.1-4 10-8.9 1.6-4.2 2.8-8.4 3.9-12.7.4-1.5.5-3.1 1.1-4.5 2.9-5.6 6.1-11 8.8-16.7 3.3-6.9 7-13.6 7.8-21.6.3-2.9.7-5.9 1-8.9.2-1.7 1.8-3.4 1.5-4.9-.3-1.8-.8-3.1.3-4.9 1.4-2.5-1.6-4.3-1.9-6.6 0-.2-.4-.4-.7-.6-.1.3-.4.7-.4.9.8 4-1.1 7.7-1.3 11.6-.2 3.3-1.4 6.7-2.3 10-2.7 8.9-4.9 18.1-8.5 26.7-1 2.5-1.4 5.3-2.8 7.6-1.4 2.4-1.1 5.6-3.8 7.2-.5 5.1-4.2 8.6-6.7 12.6-5.1 8.3-12.1 14.3-21.7 16.9-.5.1-.9.7-1.3.8-4.1.4-8.2 1.2-12.2 1-4.3-.2-8.7-1-12.7-2.4-2.5-.8-5.6-.6-7.6-2.9-.2-.2-1.4.2-1.8.7-3.8 4.1-8.6 5.3-14 4.7-.5-.1-.8-.8-1.3-1.2.3-.3.7-.9 1-.9 2.2 0 3.6-.8 3.3-3.1-.2-2.1 3.4-.9 2.6-3.3 1.5.3 2.3-2.5 4.2-.8.4.3 2.3-.1 2.5-.6.8-3.1 3.6-4.9 3.9-9.5 0-.5-.2-.1-.3.3-.1.3 0 .7 0 1 .4-.3.9-.4 1-.8.1-.3-.1-.8-.7-.5"/><path id="Fill-5" class="st0" d="M489.4 241.5c-.6-.1-1.1-.2-1.6-.2-.1 0-.3.4-.4.7.5.1 1 .3 1.4.3.2 0 .3-.4.6-.8m60.5 69.9c-.1-.2-.1-.5-.2-.5-.4.1-.9.1-1.1.4-2.5 2.8-4.2 6.5-8 8-.2.1-.2.5-.3.7.3.1.6.3 1 .3 3.9-.1 8.2-4.6 8.6-8.9m7.7-52c0-.1-.1-1.4-.4-2.6-.1-.5-.7-.8-1.1-1.2-.2.4-.5.7-.7 1.1-.6 1.4-.8 3.1-1.7 4.2-1.8 2 1.9 3 .6 4.8-.6.8-1 1.9-1 2.8 0 .7.8 1.4 1.3 2.1.3-.5.6-.9.8-1.4.9-1.8 2.2-7.1 2.2-9.8m-8.8-31.6c0-2.7.1-5.5-.1-8.2 0-.5-.7-.9-1.1-1.4-.4.3-1 .5-1 .9-.6 3.6-4.8 5.1-5 8.9 0 .4-1 .9-1.6 1.2-4.3 1.5-7.2 4.9-9.6 8.3-2.2 3-4.1 6.1-6.8 8.7-1.8 1.8-1.7 2.8.7 3.9 3.7 1.7 7.5 1.6 11.3.5 2-.6 3.9-1.2 6-1.5.5-.1 1 1.4 1.9.2.9-1.2 3.6-7.8 4.1-9.3 1.7-4 1.1-8.1 1.2-12.2m-63.2-2h-10.4c-.4 0-.9.4-1.2.8-.1.2 0 .8.2 1 2.1 2 3.8 4.2 6.5 5.5 4.1 2 8.3 3.8 12.8 4.9 3.4.8 6.7 2 10.1 2 3 .1 6-.3 8.9-1.1 2.9-.8 5.7-2.1 8.5-3.4 3.2-1.6 6.4-3.3 9.3-5.3 4.3-3.1 9.5-5.2 12.1-10.4 1-2 2.8-3.6 4.2-5.4.5-.7 1.1-1.5 1.1-2.3.3-6.3-.6-12.6 1.1-18.8.1-.4-.3-1-.4-1.5-.5.4-1.3.8-1.5 1.3-.8 2.1-1.1 4.3-2 6.3-3.9 8.7-10.2 15.4-17.9 20.8-3.1 2.1-6.2 4.3-9.8 5.6-2.4.8-4.7 2.2-7.3 2.2-2.7 0-5.1 2.1-7.8 1.1-1.6-.6-1.9 2.4-3.9.8-1-.8-3-.5-4.6-.8-.4-.1-.9-.6-.9-1s.4-1.1.7-1.1c1.3-.1 2.6 0 3.8-.1 1.3 0 2.6.1 3.8-.2.6-.1 1-1 1.4-1.5-.5-.2-1-.3-1.4-.5-2.2-.7-4 1.1-6.1 1.1h-9.3m26.8 20c4.3.6 7.1-1.9 9.7-4.8.2-.2.3-.6.4-.9-.4 0-.7.1-1.1 0-1.8-.4-2.8 1.2-4.3 1.6-1.6.4-2.8 2.1-4.8 1.7-1.5-.3-2.2.8-3 1.7 1 .2 2 .4 13.8-6-.2.2-.4.3-.6.5l.5.5c.2-.2.4-.4.5-.7-.1 0-.3-.1-11.1 6.4m-2.8-21.4c-.6-.5-.8-.8-.9-.8-.5 0-.9.2-1.4.3.1.2.1.7.2.7.6 0 1.2-.1 2.4-2-.2.2-.4.3-.6.5l.5.5c.2-.2.4-.4.5-.7-.1 0-.3-.1-.7 1.5m-30.1-55.3c-12.8 18.2-13.6 18.4-14.3 18.2-.5-.2-1.2-1-1-1.3.4-1.1 1-2.2 1.7-3.1 4.7-5.2 7.7-11.4 11.4-17.3 1.3-2.2 3-4.3 3.6-6.7.7-2.5 3.2-4.2 3-7 2.7-2.3 3.1-6.3 6-8.6 1.3-1 1.9-2.8 2.8-4.3-1.8-1.9-.7-4.4-1.5-6.5-1.4-3.4-2.5-7-4-10.4-2.2-5-4.6-9.8-5.6-15.3-1.2-7.1-1.5-9.1 1.3-14 .3-.5 1-.7 1.5-1 .2.4.6.9.6 1.3.1 3.5-.4 7.1 1.1 10.6.6 1.4.6 3.2 1.5 4.3 1.8 2 1.9 4.7 3.2 7 1.2 2.1 3.4 4.1 3 7 2.9 2.6 2.7 6.6 4.4 9.7.2.3.4.6.6.8.2-.3.5-.6.5-.9-.5-5.2 1.2-10.5-1-15.5-.3-.8-.2-1.9 0-2.7.2-.6.9-1.1 1.5-1.6.1-.1.8.5 1.1.8 1.1 1 1.7 2 1.9 3.7.5 4.6 1.1 5.5 5.2 7.4 4 1.8 6.6 5 9 8.4.5.7 1 1.5 1.1 2.3.2 5.7 2.2 11.4 1.1 17.1-1.8 9.4-4 18.7-8.8 27.1-1.8 3.2-3.8 6.2-6.2 9-3.5 4.1-6.2 8.8-8.8 13.5-5.7 10.1-14.1 16-25.3 18.4-.6.1-1.2.5-1.8.9-.3.2-.5.5-.8.8.3.2.6.4.9.5 1.5.4 3 1 4.5 1 1.3 0 2.6-.9 3.9-1 4.9-.1 9.9-.2 14.8 0 4.6.1 8.9-1.5 13.4-2.2 1.3-.2.7-.7.2-1.3-.7-.8-.7-1.6.5-2 .8-.2 1.6-.6 2.5-.6 7.2-.4 10.5-6.3 14.8-10.6 1.8-1.8 2.6-4.9 2.7-7.6.2-6 .1-12.1 0-18.1 0-.5-.6-1-1-1.5-.4.4-1 .8-1.2 1.3-2.1 5.8-5.3 11.1-8.9 16.1-2.2 3-4.1 6.3-7.5 8.4-2.9 1.7-5.1 4.4-7.8 6.5-1.2.9-2.8 1.3-4.2 1.7-.3.1-1.1-.3-1.2-.6-.1-.4.1-1.2.4-1.4 3.8-2.5 6.7-5.8 10-8.9 6.2-5.9 12.8-15.6 16-25.8.5-1.6 1.6-3 2.1-4.6.5-1.4 1.4-3.4.8-4.3-.9-1.5-.3-2.9-.8-4.1-1.8-4.7-.8-9.6-1-14.4-.1-2-.1-4 0-6 0-.7.4-1.4.7-2.2.9.7 2.2 1.3 2.5 2.2.7 1.9.9 4.1 1.2 6.1.4 2.8 1.8 5.4 1.1 8.3 2 3.3 1.5 7.3 3.2 10.8.7 1.3 1.1 3 1.1 4.5 0 1.7 1 3 1.1 4.5.3 6.3 1.9 12.5 1.2 18.8-.5 4.3-1.7 8.4-4.1 12.1-.2.4-.2 1-.3 1.5.5-.2 1.1-.4 1.5-.6 3-1.6 6.7-5.2 8.3-8 1.1-2.1 2.1-4.3 3.4-6.3 1-1.5 1.1-2.9 1.1-4.5v-5.5c.1-5.5-1.5-10.6-4.8-15-.9-1.2-.6-2.4-.6-3.6 0-.3.5-.9.9-1 .4 0 1 .3 1.2.6 3.1 4.5 5.3 9.5 7.3 14.6.8 2.2-.2 4.4 1.4 6.6.8 1.1.3 3.4 2 4.7.3.2.4.9.4 1.4.4 3 .9 5.9 1.1 8.9.2 2.9 0 5.9.1 8.8 0 .9.3 1.7.4 2.6.5-.2 1.3-.8 1.5-.6.9.8 2.2 1.5.7 3-3 2.9-1.3 6.4-1.2 9.6 3.2 2.3 2.1 5.8 1.5 8.5-1 4.6-2.1 9.3-4.1 13.7-2 4.3-2.6 9.3-4.7 13.5-4.4 8.9-8.3 18.1-15.1 25.7-3 3.3-6.2 6-9.8 8.2-2.8 1.7-6 3.6-9.7 3.2-.5 0-1 .3-1.5.4.5.5.9 1 1.4 1.5.1.1.3.2.5.2 3.5.4 7.1 1.5 10.5.9 4.2-.7 8.6-.3 12.5-3.1 3.6-2.6 7.1-5.1 8.1-9.9.3-1.3 1.3-2.4 1.8-3.6 1.6-3.7 3.2-7.5 4.6-11.3.4-1 0-2.2.1-3.3.3-3.2.3-6.4 1.2-9.4 1-3 3-5.7 4.6-8.5.1-.3 1.2-.4 1.4-.1 1 1.1 2.4 1.3 3.2 2.9 3 5.8 3.7 11.5 1.4 17.5-1.3 3.4-3.1 6.6-5.8 9.2-1.2 1.2-1.9 3-3.2 4.1-2.6 2.4-2 5.1-1.2 7.9.7 2.3 1.9 4.5 1.7 7-.1.9.2 1.7.3 2.6.6-.5 1.3-1 1.9-1.5 1.7-1.3 3.3-2.6 5.1-3.7.2-.1 1.3.5 1.4.9.3 1.9-.7 3.5-1.9 4.7-3.4 3.5-4.8 7.7-4.6 12.4.1 2.8-1.4 5.1-2.9 7-1.5 2-3.2 3.9-6.1 4.9-3 1-5.9 1.8-9.1 2-8.2.5-15.3-.1-23.5-3.4-5.4-2.2-9-6.4-11.2-11.8-.1-.3 0-.9.2-1 .4-.2 1.2-.5 1.4-.2 1.7 1.4 3.3 2.8 4.8 4.3 2.6 2.5 6.2 3.2 9.3 4 4.6 1.2 9.4 2.1 14.3 1.4.8-.1 1.8-.5 2.3-1.1 3.2-4.4 7.2-8.1 9.4-13.1.8-1.7 1.8-3.4 2.1-5.2.4-2 .3-4.2-1-6.2-.7-1.1-1.2-1.1-2.1-.5-.4.3-.8.7-1.2 1.2-4 4.6-9.2 6.1-15 6.2H515c-3.6 0-6.8-1.3-9.7-3.2-3.5-2.3-7-4.5-10.3-7-2.2-1.7-3.6-4.2-4.8-6.8-1.5-3.2-3.5-6.3-5-9.5-2-4.3-4.5-7.9-8.9-10-.4-.2-.3-1.3-.4-2 2.5-.3 4.3.4 6.3 2.3 4.1 3.8 6.9 8.2 9.2 13.3 1.6 3.7 4 7 7 9.7 1.7 1.5 3.5 2 5.7 2.3 6.5.8 12.2-1.5 17.3-4.6 3.3-2 5.9-5.4 8.3-8.5 4.9-6.4 8-13.9 11.6-21 .1-.3.2-.5.3-.8-.5-.1-1.2-.4-1.5-.2-3.6 3.1-8.4 4-11.8 7.3-.3.3-1 .1-1.5.2 0-.6-.3-1.4 0-1.8.8-1.2 1.9-2.1 2.9-3.2.1-.2 0-.7-.2-1-.2-.2-.7-.5-.9-.4-5.6 1.9-11.4 2.6-17.2 2.1-4-.3-7.9-1-11.8-2-1.9-.5-2.6-1.8-3.8-2.8-.2-.2-.2-1.1.1-1.4.3-.3 1-.3 1.4-.3.3 0 .5.7.8.7 6.1-.6 12 3.2 18.3.4 1.3-.6 3.6-.8 5.1.9.1.1 1.2-.4 1.6-.7.1-.1-.3-.9-.5-1.3 0-.1-.4.1-.5 0-2.9-3.4-6.7-3.6-10.7-3.3-1.4.1-2.7-.4-4-.8-5.4-1.3-10.5-3.6-16.1-3.7-1.3 0-2.6-.8-4-1-1.3-.2-2.9.5-3.8-.1-1.9-1.4-3.9-2.2-6.2-2.4-.1 0-.3-.6-.3-.9 0-.3.2-.7.5-.9.3-.2.7-.1 1.1-.1l4.8-.3c-.7-.5-1.5-1-2.2-1.6-.7-.5-1.5-.9-2.2-1.4-3.3-2.5-6.4-5.2-8.6-8.8-1.1-1.9-2.3-3.6-4.9-3.4-.7.1-1.5-.9-2.3-1-1.7-.2-2.7-1.1-2.6-2.7 0-.3 1.9-.4 2.8-.7.5-.2 1-.7 1.4-1.1-.5-.4-.9-.9-1.4-1.1-.5-.2-1.1 0-1.6 0-.3 0-.8 0-1-.2-.2-.2-.3-.6-.3-.9 0-.3.2-.8.4-.9.5-.2 1.1-.2 1.6-.1 6.7.6 11.9-2.8 17.2-6.4 5.3-3.5 7.8-8.6 10.5-13.8.7-1.4 1.7-2.6 2.6-3.9.2-.3.2-.8.2-1.2-.5.1-1.2 0-1.5.3-2.4 2.3-4.9 4.5-7 7-2.8 3.3-6.8 4.9-10.1 7.7-1.2 1-3.2 1.3-4.9 1.4-2.4.2-4.8.1-7.1 0-.8 0-1.8-.4-2.3-.9-.8-.8-2.7-1.6-1.7-2.9 1-1.3 2.6-.8 3.6.6.9 1.2 2.2 1.5 3.4.9 5.4-2.7 11.2-4.7 15.3-9.6 2.3-2.7 5.8-4.4 7.9-7.2 1.8-2.5 4.3-3.9 6.3-6 .3-.3.5-.7.8-.8 5-1.5 7.2-5.4 9.7-9.5 1.7-2.9 2.2-6.1 3.4-9.1 3.3-8.2 3.7-16.9 3.3-25.6-.1-3.5-3.1-7.8-6.7-9.7-.3-.2-1.3.2-1.5.6-.4.7-.6 1.7-.6 2.5-.1 3.5-.2 7 0 10.4.5 7.9-2.7 15-4.4 22.4-2.9 3.8-4.5 8.4-7.4 12.4-5.9 8.2-14.1 13.3-22.6 18.4-4.9 2.9-10 5.2-15.2 7-2.7 1-5.6 1.8-8.7 1.7-5.5-.2-11 0-16.5-.1-.4 0-.9-.5-1.1-.8-.1-.2 0-.8.2-1 1.1-.9 2.1-1.9 3.3-2.5 7.2-3.5 14.4-6.8 18.9-14.1 2.3-3.7 5.4-6.9 8-10.4.3-.4.1-1.7-.2-1.8-.9-.2-2-.2-1.6-1.5.1-.4 1.1-.5 1.6-.9 2.7-2 4.2-6.1 3.9-10.1-.3-3.8 1.1-7.2 1.7-10.8 1.1-5.8 2.5-11.7 1.3-17.4-.6-3.2-1.1-6.4-.8-9.5.5-5.6-.9-11.1-1.4-16.6-.2-2.2-.3-4.6-1-6.7-.8-2.3-.8-4.5-1-6.7-.1-.8-.9-1.4-1.3-2.2-.4-.8-.7-1.6-.8-2.4 0-.3.4-.8.8-1.1.2-.1 1 .1.9.2-.1 2.3 2.9 2.9 2.8 5.6-.1 2.4 1.5 4.8 2.3 7.2.2.5.7.9.8 1.3.4 2-.4 4.1.9 6.3.9 1.5.5 4 1.1 6.1.6 2.2 0 4.7.2 7.1.3 5.7.7 11.4 1.1 17.1.4 5.5-1.8 10.7-2.5 16-.1 1-.6 2-.8 3-.1 1.1.2 2.3-.1 3.3-.3.9-1.9 1.7-.5 2.6 1.4.9 2.3-.7 2.8-1.7 2-4.5 4.2-8.8 4.7-14.1.4-4.1 1-8.5 3-12.4 1.7-3.5.9-7.4 1.2-11.1.3-4-.8-7.6-2.7-11-1.8-3.3-3.1-6.9-5.2-9.9-2.6-3.9-2.1-8.1-2.1-12.3 0-.3.6-.8 1-.9.4 0 1.1.5 1.1.7-.5 3.5.8 6.5 2.3 9.5.7 1.5 1.3 3.2 2.3 4.5 3.2 4.1 5.4 8.7 7 13.6.2.6.6 1.3.6 1.9-.3 5.4.7 10.9-1.9 16.3-1.7 3.5-2.3 7.7-2.4 11.6-.1 6.3-2.7 11.3-6 16.3-2.4 3.7-5.2 7.1-8.1 10.4-3 3.4-5.3 7.3-8.1 10.9-3.6 4.5-7.9 8.4-12.5 11.7-.5.4-1.5 0-2.1.2-.3.1-.7.8-.7 1.2 0 .3.7.9 1 .9 2.4-.3 5.1-.2 7.2-1.2 2.8-1.3 5.9-1.7 8.6-3.2 4.1-2.3 7.9-4.2 23.3-25.1 12.1-19.1 12.1-19.3 12.1-19.5l-.6-1.8c-.5.5-1.5 1.1-1.5 1.5.2 1.6-.6 2.7-1.2 3.9-2.5 5-4.8 10.1-7.6 15-4.6 7.9-8.3 12.9-12.9 17.1-.3.3-.5 1.1-.4 1.4.6 1.6.9-.1 1.3-.2 1.7-.8 3.4-1.6 4.9-2.7 2.4-1.8 4.7-3.7 6.9-5.8 2-1.8 4.6-3.6 2.3-7-.1-.1.6-1 1.1-1.3 1.5-1 2.4-2.3 3.4-3.8 3.4-4.8 2.8-10.5-7.8 3.2"/><g id="Group-9" transform="translate(6 3) translate(0 161.66)"><defs><filter id="Adobe_OpacityMaskFilter" filterUnits="userSpaceOnUse" x="21" y="21.6" width="147.7" height="183.6"><feColorMatrix values="1 0 0 0 0 0 1 0 0 0 0 0 1 0 0 0 0 0 1 0"/></filter></defs><mask maskUnits="userSpaceOnUse" x="21" y="21.6" width="147.7" height="183.6" id="mask-2"><path id="path-1" class="st2" d="M21 21.6v183.7h147.7V21.6z"/></mask><path id="Fill-7" class="st3" d="M64.9 195.6c.4-.3.8-.6 1.3-.9-.5-.1-1-.4-1.4-.3-.5.1-1 .4-1.5.7.4.1.9.3 1.6.5zm37.5-165.2c-1.8.2-3.9 0-6.2.9-2.1.9-4.8.9-7.2 1.1-5.6.4-10.2 3.1-14.8 5.4-5.8 2.9-10.7 7.6-15.1 12.6-.2.2-.3.6-.4.9.5 0 1.2.1 1.6 0 .5-.2.8-.8 1.2-1.1 3.7-2.8 7.6-5.3 11.6-7.6 5-2.9 10.3-5.1 15.9-6.6 2.6-.7 5-2.5 7.8-2.2 2.1.3 3.7-.7 5.5-1.3 1-.3 1.9-.6 2.9-.9l1.8-.6c-.7-.2-1.3-.4-2-.5-.7-.1-1.5 0-46.3 22.4v-1.5c-.7.5-1.3 1-2 1.4.3.3.6.8.8.7.5-.2.9-.6 44.9-23.1zM56 193.2h.5c-.1-.3-.2-.6-.3-.8-.1-.1-.4.1-.7.2.2.2.3.4 3.6 1.3-.9-.3-1.2-.6-1.6-.6-.3-.1-.7 0-1 0 .3.4.4.9.8 1 .4.1.9-.2-1.3-1.1zm53.5-169.4c2.8 0 5.5.1 8.2 0 5.2-.3 10.5-.1 15.5-1.3 3.6-.8 7.1-.8 10.6-.9 6.4-.1 11.7 2.7 16.5 6.5 2.5 1.9 6.4 10.3 7.4 13.4 1 3 1 5.9.9 8.9 0 .3-.7.8-1.1.8-.4 0-1-.5-1-.8-.2-1 .2-2.5-.4-3.1-2.8-2.8-2.3-6.9-4.3-9.8-1.3-1.9-3.3-3.5-5-5.1-2.9-2.7-6.2-4.5-10.4-4.2-3.3.2-6.6 0-9.9 0-.9 0-1.9-.1-2.7.1-.6.2-1.1 1-1.6 1.5.5.2.9.4 1.4.5 2.7.9 4.9 3.2 8 3.4.2 0 .5.6.5.8-.1.5-.4 1.2-.7 1.2-2 .1-4.2.6-6 0-6.4-2.2-12.9-.7-19.4-.8-2.7-.1-5.5 1.6-8.1 2.8-10.4 4.7-12.3 6-20.6 12.8-3.4 2.8-7.2 5.2-10.3 8.2-4 4.2-8 8.6-11.6 13.3-1.3 1.8-2.6 3.2-4.5 4-.6.2-1.2.2-1.9.4 0-.6-.1-1.4.2-1.9 2.5-4.7 5.5-9.2 8.8-13.4 3.5-4.4 7.5-8.3 11.3-12.3.3-.3.1-1 .1-1.5-.4.1-.8.2-1.2.4-9.3 5.3-18 11.6-25.3 19.8-1.4 1.5-.5 3.1-.8 4.6-.2 1-1.2 1.7-1.8 1-1.2-1.2-3-2.2-2.6-4.4 0-.3-.3-.6-.5-.9-.3.2-.6.4-.8.7-.7 1.5-1.9 3.1-1.9 4.7 0 1.9-1.3 3.3-1.2 5 .1 1.8-.8 3.4-1 5.1-.6 4.6.7 9 2.1 13.4.2.8.8 1.5 1.1 2.3.8 2.3.7 2.3 2.6.9.8-.6 1.5-2.1 2.6-1 .9.9.4 2.1-.4 3.3-4.1 5.7-7.7 11.7-10.6 18.2-3.6 8-6.9 16.2-9.5 24.6-.9 2.8-1.4 5.7-2.6 8.3-1.1 2.3-1.1 4 .8 5.7 2.3 2 3 5 4.3 7.6 2.1 4.2 4.9 8 8.1 11.5 5.8 6.4 5.9 5.9 10.4 8 3.1 1.4 6.6 1.8 9.8 2.8 4.9 1.4 10 2.5 14.1 5.9 1.9 1.6 4.1 2 6.4 1.8 1.3-.1 2.6-.1 3.8 0 .3 0 .9.6.9 1s-.4 1-.8 1.1c-.9.2-1.8 0-2.7.1-.7.1-1.3.4-1.9.6.3.6.5 1.3.8 1.9.4.9 1 1.8 1.3 2.7.1.4-.2 1.2-.5 1.3-.3.2-1-.2-1.5-.3-.2-.1-.3-.2-.4-.4-1.6-1.6-2.9-3.8-4.7-4.5-2.3-.8-5.1-.5-7.6-.2-5.5.8-10.4-1.8-15.6-2.3-4.7-3.3-10-5.8-12.7-11.5-1.3-2.8-3.8-5-5.3-7.7-2.6-4.6-5.7-8.9-6.7-14.3-.1-.7-.4-1.3-.8-1.9-.7-1.1-1.7-1.4-2.6-.2-.5.7-.7 1.5-1.2 2.2-.1.2-.7.4-.9.3-.4-.2-1-.6-1-.9-.1-2.9-.8-6.1.1-8.7 1.2-3.2 1-6.5 1.8-9.7 1.9-6.9 3.7-13.8 6.7-20.3 2.2-4.8 4.8-9.4 7.6-13.9 1.1-1.7 2.6-2.9 3.8-4.5 2-2.6 2.1-3.8.3-6.8-.7-1.3-1.3-2.7-1.7-4.2-1.5-5.4-3.2-11-2.1-16.7.8-4.5 1.9-9 3.7-13.3 2.2-5.3 5.2-10.1 8.5-14.6 4.6-6.2 9.5-12.5 16.7-16.2 1.8-2.9 5.3-3.4 7.8-5.2 2.3-1.6 5.4-2 8.1-2.9 2.1-.7 4.2-1.4 6.4-1.8 2.9-.5 5.9-.9 8.9-1.1 2.9-.2 5.9 0 8.8 0h2.7z"/></g><path id="Fill-10" class="st0" d="M293.6 579.2c-3 .3-5.9.6-8.8 1.1-3 .5-5.5 2.6-8.3 3.2-4.9 1.1-9.1 4.7-14.1 5.4-.2 0-.6.9-.6 1.2.1.3.6.7 1 .6 1.6-.4 3.6-1.5 4.7-1.1 2.3.9 4.8-1.2 6.6-.5 2.5.9 4.9-.3 7.3-.6 5.6-.8 11.2-1.6 16.9-1.9 1.9-.1 4-1 5.6.6 3.3-.8 6.2.8 9.4.9 1.8 0 2.2-.5 2-1.9-.1-.3-.1-.7 0-.9.4-.4.9-.7 1.3-1 .3.3.7.7.8 1 .7 3.9.7 3.8 4.8 4.1 1.9.1 3.4.1 4.1-1.9.2-.8 1.4-1.3 2.1-1.9.8-.8 1.2.1 1.5.5.4.5.6 1.2.6 1.7 0 1.3.6 1.8 1.9 1.3 3.6-1.4 7.6-.4 11.4-.9 1.5-.2 3.4-.7 4.4 0 3 1.9 6.6 2.6 9.4 4.7 3.1 2.3 6.6 3.5 9.9 5.1 4.2 2.1 8.5 2 12.5 2 .7 0 2 .8 1.7-.5-.2-.8-1-2-1.8-2.5-.8-.6-2-.9-3-.9-2.4-.1-4.4-1.1-6.8-2.5-4-2.5-7.5-5.6-11.5-7.9-2.5-1.4-5-3.1-7.7-3.7-6.2-1.3-12.5-1.9-18.8-2.3-.5 0-1 .2-1.4.3-5.9 1.3-12 .4-18.1.4-2-2-5-.1-7.1-1.2-2.4-1.2-5-.2-7.5-.2-1.4-.2-2.9 0-4.4.2m33.4 35.6v.3c5 0 10.1.3 15.1.7.9.1 1.8-.3 2.7-.4 7.4-.5 14-2.4 19.8-5.5 3.2-1.7 6.1-3.9 9.4-5.5.2-.1.4-.3.6-.4-.3-.2-.5-.6-.8-.7-1.2-.5-2.7-1.5-3.5-1.2-1.7.5-3.1-.1-4.8-1-1.7-1-3.5-1.8-5.2-2.6-3.6-1.8-7.1-3.9-10.9-5.2-4.8-1.7-9.5-.5-14.3-.6-1 1.2-2.5.5-3.9.5-3.9-.1-5.2 1-5.4 4.3 0 .8 0 1.6-.1 2.4 0 .2-.6.4-.8.3-.4-.1-1.2-.4-1.2-.7-.1-1.6-.1-3.2-.1-4.8-1.9-.3-3.8-.4-5.7-.7-.6-.1-1.1-.8-1.7-1-2.3-.5-2.9 0-3.2 2.1-.1.6-.5 1.6-.6 1.6-1-.1-2-.3-2.9-.7-.8-.4-1.3-1.1-.4-2 1.7-1.8.5-1.8-1.3-2.2-1.9-.4-3.6-.9-5.6-.7-.9.1-1.8.3-2.7.1-6.2-.7-6.2-.7-12.1 1.2-1 .3-2.5.7-3.1.3-1.3-1-2.7-.3-4-.1-2.3.3-4.9 1.5-6.9 1.2-2.3-.4-4.8 1.1-6.5.4-2.1-.9-4.2.9-6.5.4-2.4-.6-5.6.8-8.5 1.5-.8.2-1.6.8-2.4 1.2.7.1 1.4.2 2 .3.9.2 1.8.2 2.7.5 7.2 2.3 14.5 5.1 20.9 9 5.6 3.4 12.1 3.5 18.4 4.9 4.4 1 9.2 0 13.7 1 1.9.4 4.2-.1 6.2.1 2.1.2 4.2.8 6.3 1.1 2.5.4 4.9.4 7.3.6m-83.2-20.5c.8-.3 1.9-.9 3.1-1.3 3.2-1 6.4-2.1 9.5-3.8.3-.2.7-.4 1-.6 1.8-1.3 3.6-2.4 5.8-3 1.6-.4 3.9-1.1 4.8-2.2 1.6-2 4.5-.9 5.6-3.1 2.3.2 4.2-1.4 6-2.3 2.1-1 4.3-1 6.2-1.9 3.5-1.7 7.1-1.7 10.7-2 2.1-.1 4 .9 6.3.6 1.9-.3 3.8.1 5.7.6 3.4.8 7.1.8 10.6 1.3 2 .2 4.1.3 6-.2 2.1-.6 5.5-.9 7.6-.5 3.3.6 6.3-.6 9.6.3 3.1.9 6.2 1.3 9.4 1.9 3.2.6 6.1 2.1 8.8 4.2 2 1.6 3.9 3.2 5.9 4.7 2.6 2 5.3 3.7 8.4 5.1 3 1.4 6.9 2.5 8.8 6.3 2.9.7 4.2 4.5 7 5.3.3.1.9.4.9.6.4 1.3.6 2.6.9 3.9-.8-.6-1.8-1-2.3-1.7-1.2-2-3.1-2.8-4.5-3-2.1-.2-4.5.1-5.9 1.2-2.8 2.2-6.5 3.5-9.1 6-.9.8-1.9 1.7-2.9 2.4-4 2.8-9.1 3.9-14 5.4-4 1.2-8.1 2-12.8 1.3-1.2-.2-2.5.1-3.7.4-.6.1-1 .7-1.6 1 .6.3 1.3.5 1.9 1 .4.3.6.9.9 1.4-.4.1-.8.4-1.2.4-.5 0-1.3 0-1.4-.3-1.7-2.9-4.6-2.2-7.1-2.7-3.3-.6-6.6-1-10-.8-2.6.2-5.2-.6-7.8.8-1.6.8-4.1-.7-5.7 1.2-4.9-.7-9 3.3-13.8 3.1-1.2-.1-1.8.7-2.5 1.4-.5.5-1.4.9-2.1 1.1-.4.1-1.1-.1-1.2-.3-.2-.3 0-1 .3-1.3.8-.8 1.7-1.9 2.7-2.1 2.8-.5 4.9-2.9 7.6-3.1 3.2-.3 5.7-2.6 8.8-2.7.2 0 .4-.4.6-.6-.3-.1-.6-.3-.9-.4-2.3-.2-4.5-.4-6.8-.6-2.1-.1-4.2-.1-6.3-.4-2.6-.3-5.3-.7-7.8-1.4-4.3-1.2-8.6-2.3-12.4-4.6-5.1-3-10.5-5.6-16-7.7l-6.3-2.4c-1.9-.8-4-1.3-5.9-2-1.9-.7-3.7-.3-5.4 1.8-2.1 2.4-4 5-6.1 7.5-.3.3-1 .6-1.3.5-.3-.1-.5-.8-.4-1.1 2.1-3.3 4-6.7 6.6-9.5 1.7-1.5 4.2-2 7.2-3.1"/><path id="Fill-12" class="st0" d="M232.9 397.8l-.4-.4c-.1.2-.3.5-.3.7 0 .1.2.2.3.4.1-.2.3-.4.4-.7m-3.1 21.3c-.3-.4-.5-.6-.7-.9-1.4-2.8-1.4-5.7 0-8.5.1-.2.4-.3.4-.4-.2-.3-.6-.9-.6-.8-3.1 1.3-6.4 2-9.2 4.1-1.1.8-1 1.5-.2 2.7 2.1 2.8 5.2 3.9 8.3 4.9.5.1 1.3-.7 2-1.1m35.1-5.8c.6 2-.5 4-1.5 6.1-.4.9-.4 2-.6 3 1 0 2 .2 3 0 1-.1 2-.8 3-.7 4.7.7 9.2-1.4 13.8-1.2.3 0 .8-.2.9-.4.1-.5.1-1.2-.2-1.4-2-1.7-4.2-3.3-6.1-5.1-2.7-2.6-5.7-4.6-9-6.2-1.4-.7-2.9-1.2-4.4-1.7-.6 1.6.7 2.6 1 3.9.3 1 .1 2.2.1 3.7M247 423.9c2.6 0 4.8.1 7 0 3-.2 5.5-1.7 6.1-4.6 1.1-5.3.9-10.5-2.4-15.2-.8-1.1-1.8-1.2-2.9-1-.7.1-1.3.3-2 .5.2.6.3 1.5.7 1.8 2.5 1.6 2.8 4 2.5 6.7-.1 1.1 0 2.2 0 3.3-.1 2.3-4.7 7.3-7 7.4-2.4.2-4.8.3-7.1-.1-1.2-.2-2.5-1.4-3.3-2.5-.9-1.2.6-1.8 1.2-2.6 1.6-2.4 1.2-5.6-1.2-6.8-1.5-.7-2.5-1.4-2.3-3.1.1-1.3-.6-1.5-1.7-1.5s-1.2.6-1.8 1.4c-1.7 2.4-1.4 5.1-.8 7.3.9 3.6 1.8 7.8 7 7.9 2.6 2.2 5.7.4 8 1.1m-14.4-4.4c18.7 12.1 17.9 12.1 17.2 12.1-9.9.6-15.1-1.3-23.4-4.6-4.1-1.6-8.2-4.2-10-9-.5-1.3-1.5-2.3-3-.6-1 1.1-2.5 1.8-3.8 2.8-1 .8-1.5.1-2.3-.4-1.2-.9-.4-1.5.3-2 2.4-1.7 2.5-5.6 6.1-6.2.2 0 .6-1 .4-1.4-.4-1-.8-2.3-1.7-2.8-1.2-.7-1.9.7-2.6 1.5-1.6 1.9-4.2 3-4.7 5.7-.1.2-1 .5-1.4.3-.3-.2-.5-.9-.6-1.4-.2-2.4 1.9-3.8 3.1-5.3 5.1-6.5 12.1-10.2 19.7-13.2 3.1-1.2 6.1-2.1 9.3-2.7 3.1-.6 6-2.1 9.3-1.6 3.6-2.3 7.9-.3 11.8-2 1.7-.8 4.6-1.1 6.7.7.6.5 1.7.3 2.6.2 3.6-.2 6.5 1.5 8.8 3.8 3.1 3 6.1 6.1 8.5 9.7 1.6 2.5 3.8 4.3 5.5 6.5.3.4.6 1.3.4 1.4-.5.3-1.3.8-1.8.6-.9-.3-1.9-.9-2.6-1.7-3-3.3-6-6.6-9-10-3.7-4.3-8.3-6.5-14.1-5.9-1.1.1-2.1.2-3.2.3.9 1 1.8 2.7 2.8 2.8 4.7.4 8.2 3.2 12 5.5 5 3.1 8.4 7.8 12.5 11.8.7.7.9 2.1 1.7 2.5 3.1 1.6 2 5.1 3.7 7.4.2.3-.8 1.9-1.6 2.5-.3.2-1.6-.5-2.2-1-.9-1-1.6-3-2.4-3-1.3 0-2.9 1-4 2s-2.1 1.2-3.4 1.2c-1.8-.1-3.7 0-5.5 0-.2 0-.3.4-.4.7 0 .1.2.3.4.3 1.5 0 2.9 0 4.4.1.2 0 .5.6.5.8-.1.5-.4 1.2-.6 1.3-1.3.1-2.6.1-3.8 0-2.7-.2-5.2.1-7.6 1.6-.8.5-2 .6-3 .6-3 .2-6.3.2-29-11.9-17.7-11.9-16.5-12.6-16.1-14.3 3.2-.8 6.3-2.2 10.2-5.6.9-.9.1-.6-.6-.1-.4.3-.5.9-.8 1.3.4 0 .7.1 1.1 0 .8-.2 1.7-.4 2.4-.8.3-.2.4-.7.6-1.1-.3-.1-.7-.2-2.7.8-4.9 1.4-7.7 2.9-10.2 5.6-1.7-.3-2.8.3 16.1 14.2"/><path id="Fill-14" class="st0" d="M435.5 410.8c0-.2.1-.4 0-.5-4.2-5.1-9.2-9-15.2-11.7-.2-.1-.6.1-1 .2.2.4.2 1 .5 1.1 3.6 2.1 7 4.6 9.9 7.7 1.4 1.5 3.2 2.6 4.9 3.9.1.1.5 0 .7-.1.2-.2.2-.4.2-.6m-53.9.4c-.7 5.6 4.1 8.1 7.3 11.5.3.3 1.1.1 1.6 0 .3 0 .6-.3.9-.4-.2-.2-.3-.5-.6-.7-.9-.6-2.3-1-2.5-1.7-.2-1 .6-2.2 1-3.3.1-.3.7-.5.7-.8.1-1.6.5-3.3.1-4.7-.3-1.1-1.5-1.9-3.1-1.7-.3 0-1.1-.8-1.1-1.3-.1-1.2 0-2.1-1.7-2-1.5.1-2.3.9-2.7 2.1-.1.9.1 1.9.1 3m28.9.9c-.5-2.2-.8-4.4-1.5-6.6-.9-3.1-5.6-5.1-8.3-3.5-.1.1 0 .9.3 1.1 1.1 1.2 2.3 2.3 3.5 3.5.5.5 1.2 1.1 1.2 1.7.1 4.2.8 8.7-3.3 11.8-.8.6-2 2.1-1.9 2.2 1.1 1.2 1.7-.3 2.6-.6.5-.2 1.1-.2 1.6 0 2.7 1 3.3-1.3 4.2-2.8 1.5-2 1.3-4.4 1.6-6.8m-31.6 11.8h1.6c.7-.1 1.3-.3 2-.4-.4-.5-1-1-1.3-1.6-1.6-3.4-4.9-6.5-2-10.9.6-.9-.4-1.8-1.5-1.4-1.4.5-2.8 1.2-4 2.2-2.6 2.2-5.1 4.5-7.5 6.9-.8.8-.1 2.7.9 2.9 4.2.8 8.3 1.6 11.8 2.3m34.2-3.5c1.8-.5 2.7-1 3.5-.9 2.6.3 4.6-1.2 6.9-1.8 2.4-.7 4.9-1.1 7.2-2.5 1.5-.9 1.6-1.1.4-1.8-4.9-2.8-9.4-6.3-14.6-8.3-.9-.3-1.6-2-2.6-.8-.5.6 0 1.9.1 2.9.1.7.5 1.3.6 1.9.1 2.8.2 5.6-1.6 8.1-.9 1.2.1 3.2.1 3.2m-5.3 7c-22.8 4.2-25.7 4.2-28.7 4.2-1.5 0-2.8 0-3.9-1.4-1.4-1.8-3.4-.5-5.1-.9-.6-.1-1.2-.5-1.7-.8.4-.5.7-1.2 1.1-1.3 1-.2 1.3-.6.4-1.2-.7-.5-1.5-1-2.3-1-1.3 0-2.4-.3-3.4-1.3-.5-.6-1.5-.7-2.3-.9-.8-.3-2.1-.3-2.3-.8-.7-1.7 1.3-1.1 1.9-1.8.7-1 1.4-2 1.9-3 3.4-6.7 8.6-11.4 14.9-15.4 4.6-2.9 9.6-4.3 14.5-6.1 3-1.1 6.5-1 9.8-1.5.3 0 .6-.4.8-.5-.3-.2-.6-.5-.9-.5-4.8 0-9.7-.8-14.2.2-4.7 1.1-9.4 3.1-13.4 5.9-3.8 2.7-7.8 5.2-11.7 7.9-5.2 3.7-7.8 8.6-10.4 13.9-.8 1.7-1.7 3.3-2.7 4.9-.1.2-.8.3-1 .1-.3-.3-.8-.9-.7-1.2 2.5-7.6 4.6-15.4 11.4-20.6 3.7-2.8 7.6-5.5 11.6-7.8 4.1-2.4 8.4-4.5 12.7-6.6 3.1-1.5 6.9-2.5 10-2.1 7.3 1 14.7 1.3 21.7 4.7 4.9 2.4 9.8 4.7 14.3 7.9 2.6 1.9 5.2 3.5 6.5 6.6.3.8 1.3 1.3 1.9 2 1.6 1.9 1.6 3.8 0 5.6-1.7 2.1-4.2 3.1-6.5 4.3-.5.2-.8.8-1.2 1.1.6.2 1.1.4 1.7.5.5.1 1.1 0 1.6 0 .8.1 2-.6 2.2.9.2 1.9-1.3 1.1-2.3 1.3-.8.2-1.6.5-2.4.9-.5.2-.9 1.1-1.2 1.1-4.2-.7-7.5 3.2-11.7 2.5-1.6-.3-3.1.1-4.5 1.1-2.5 1.8-5.7 1.6-8.5 2-3 .4-5.9 1.2-8.9 1.3-2.7 0-5.8 0 11-4.2 20.9-4.8 21.9-5.3 22.9-5.9.2-.1.4-.3.4-.4-.1-.2-.3-.5-.5-.5-1.1-.1-2.2-.2-3.3 0-.6.1-1.1 1-1.6 1.5.5.3 1 .6-17.9 5.3"/><path id="Fill-16" class="st0" d="M302.7 387.1c0-.3 0-.5-.1-.8-.2.1-.4.1-.5.2-.1.3 0 .5 0 .8.3-.1.4-.2.6-.2m-26.9-11.9c.1.2.1.4.2.5.2-.2.5-.3.6-.5.1-.1-.1-.3-.2-.5-.1.2-.4.4-.6.5m-10.3-6.5c-.3-.9-.5-1.8-.8-2.7-.6.2-1.3.5-1.9.7.5.9 1.1 1.8 1.6 2.7.3-.1.5-.3 1.1-.7m-20.6 2c-.7-1.4-1.1-2.3-1.4-3.2-.7.4-1.7.7-2.1 1.3-.8 1.2.5 1.4 1.2 1.7.4.3 1 .2 2.3.2m45.7 15.1c1 .4 2 1 3 1.3.3.1.9-.3 1.2-.7.6-.7.4-1.2-.5-1.4-3.4-.9-5.6-2.9-6.3-6.5-.1-.5-.3-1.1-.7-1.4-.3-.2-1-.2-1.5-.1-.2.1-.5.9-.4.9 1.8 1.2.8 2.9.9 4.5 0 .7.8 1.5 1.4 2 .9.6 2 .9 11.1-3.4-2.2-1-3.2-.4-3.4 1.4 0 .7.5 1.5.2 2-.9 1.5.5 1.5 1.1 1.6.6.1 1.3-.5 2-.7.8-.2 1.7-.1 2.5-.2-.3-1-.5-2-1-2.9-.4-.6-1.2-1.1-9.6 3.6m14.7 11.9c-.1-.3-.1-.5-.2-.8l-.6.3c.1.2.2.5.4.7 0 0 .3-.1-2-1.6.8 0 1.5.1 1.9-.1.5-.3 0-3.1-.3-2.9-.9.4-1.7 1-2.4 1.6 0 .1.5.9 3.2 2.8m-41.7-35.5c1.4-3.5 4.1-1.4 5.6-.1 2.1 1.9 5.3 2.8 6.4 5.8.1.4.8.5 1.2.8 0-.6-.2-1.2.1-1.7.3-.5 1.1-1.2 1.4-1.1 2.3.8 4.5 1.9 7.1 2 1.3 0 2.5 1.7 3.7 2.7.5.5.2 1.6 1.7 1.1 3.4-1 5.9.2 7.6 3.7 1 2.1 2.4 3.6 4.4 3 2.8-.8 3.6 1.5 4.5 2.8 1.6 2 2.6 4.6 3.7 7 2.4 5.6 2.3 5.6-.3 11.2-.7 1.5-1.3 1.9-2.8 1.1-1.2-.7-1.9.3-1.6 1.2 1.2 2.9-1 2.3-2.3 2.3-4.6 0-7.5-4.3-5.9-8.7.3-.8.4-1.7.5-2.5-1.6-.2-2.2-1.6-3.2-2.6-.2-.2-.8-.1-1 0-1.2 1.5-2.3 3-4.5 2.5 0 .3 0 1 .1 1 2.8.4 2.9 2.5 3 4.6 0 .6.1 1.6.4 1.7 2.7 1.1 3.1 4.7 6.3 5.4.5.1 1.1 2 .8 2.7-.3.7-1.8 1.2-2.6 1.1-2.8-.4-4.7-2.5-6.3-4.5-1.4-1.8-4.6-3.1-3.6-6.4.1-.2-.6-.8-1.1-1-3.7-1.4-5.3-4.8-5.5-7.9-.1-2.9-1.5-2.4-2.9-2.3-3.9.4-5.9-.3-8.8-3.3-2.7-3-6.1-4.8-10.2-4.3-3.7.5-6.8.3-9.4-2.9-.7-.9-2.9-1-4.4-.9-3 .4-5-.8-7-2.8-.6-.6-1.7-1.3-2.3-1.1-3.7 1.2-6.6-.7-9.6-2.1-1.3-.6-1.9-.4-2.5.9-.4.9-1.1 2-2 2.3-1.8.6-3.7.8-5.6.8-.6 0-1.3-1.1-1.8-1.7-.2-.2 0-1.1.2-1.1 2-.4 2.6-1.4 1.5-3.3-.2-.4.2-1.5.6-1.7 1.3-.5 2.7-.7 4.1-.9.7-.1 1.8.4 2 .1 1.1-1.6 4.2.9 4-1.4-.2-2.9-2.8-.5-4.2-.8-2-.4-2.4-.6-1.3-2.6.4-.7 1-1.4 1.7-1.9 1.8-1.1 4.1.7 6.2-1.4 1.5-1.6 4.5 0 6.4-.4 2.5-.6 2.3 2 3.7 2.1-.1.6-.2 1.8-.4 1.8-3 0-1.9 2.7-2.7 4.1-.4.6-.6 1.3-1 2.2 0 .1 0-.1.1-.2-.3 0-.6-.1-.9 0-.1 0-.1.4-.1.7.3-.1.5-.1.9-.4.8-.1 1.4.2 2.1.2 3-.1 3.3-.2 3.1-3-.1-2 1.2-1.9 2.2-2.4 1.5-.8 1.2 2.4 2.5 1.3.5-.4.1-1.9.2-2.9 0-.2.5-.5.8-.6.3 0 .7.2 1 .3 1.2.4 2.3.8 3.5 1.2.2-1.1.2-2.2.6-3.3.2-.7.4-1.9 1.8-1.3 2.5 1.1 5 2.1 7.5 3.3.9.3 1.1 1.1 2.6 2.5.4.2.2-.2-.1-.4-.3-.2-.6-.3-.9-.4.1.4 0 1 .3 1.3.2.2.8.2.7-.5"/><path id="Fill-18" class="st0" d="M522.7 371.1c-3.8.9-8-1.1-12.4-2.3-1-.3-2-.6-2.8-1.2-4.9-4.2-8.9-9-10.3-15.5-.6-2.7-.9-5.4-2.1-7.9-.9-1.9.5-3.6 1.4-4.8 1.4-1.9 2.8-3.3.7-5.5-1.5-8.3-6.3-14.8-11.4-21.1-.2-.3-.6-.5-.7-.8-.1-.3-.1-.8.1-1 .2-.2.7-.5.9-.4 2.3 1.2 5 1.7 6.7 3.8 3.8 4.7 7.4 9.6 9.6 15.2 1.2 3.1 2.2 6.4 3.5 9.6.5 1.2.7 2.3 1.7 3.2.9.9 1.9 1.7 2.7 2.7 3.5 4.5 8.5 6.6 13.4 8.9.6.3 1.3.5 2 .5 1.9.1 3.7.4 5.6.9 2.2.6 5 0 7.1-1 4.9-2.2 9-5.5 11.6-10.3.2-.3-.2-1-.3-1.5-.3.1-.5.2-.8.4-3.1 1.5-6.4 2.8-9.9 2.6-3.5-.2-7.2 1.2-10.5-1-3.6.6-6.1-2.2-9.1-3.3-2.7-.9-3.5-3.3-4.5-5.4-.3-.5-.1-1.8.3-2 .7-.3 1.7-.3 2.5-.2.4.1.7.8 1.2 1.1 3 1.9 6 2.9 9.7 3.3 5.8.7 5.8 1.2 9.7 0 2.2-.7 4.4-.2 6.7-.9 4.9-1.5 8.8-3.6 10.6-8.6.2-.6 1.2-.9 1.9-1.4.5.7 1.3 1.4 1.3 2.2.1 2.3.5 4.7-1.1 6.7-.8 1.1-.8 2.3-1.2 3.4-1.6 5.1-2.9 10.3-7.2 14.1-3.7 3.3-7.1 6.5-12.2 7.9-3.1.8-6.2 1-9 .5-5.2-.8-10.3-2.1-14.9-5.2-3.3-2.2-6-5.1-8.9-7.8-.4-.4-1-.5-1.5-.8-.1.7-.4 1.8-.1 2.1 1.7 1.5 1.7 3.8 2.9 5.4 4 5.2 7.7 7.1 14.5 8.7 1.7.4 3.3 1 5.1 1.1 1.5.1 3 .7 4.5 1 1.7.4 3.4.7 5 1.1.4.1.8.7.8 1 0 .4-.4.9-.8 1.1-3.5 1.7-7.3 1.3-12 1.4"/><path id="Fill-20" class="st0" d="M190.1 199.4c0 .9.1 1.3 0 1.6-.7 1.2 1.6 3.9-1.3 3.8-1.7-.1-.5-2.4-.9-3.7-.7-1.9-1.4-3.8-2.3-5.6-3.5-7.2-6.6-9.1-14.9-12.6-5.3-2.2-10.8-4-16.4-5.7-3-.9-6-1.3-9.1-2-1.7-.4-3.5.6-5.2-.9-.5-.4-2.2 1-3.2.8-6.6-.8-12.1 2.9-18.2 3.9-2.9.5-5.7 1.3-8.6 1.8-3.9.7-7.8.4-11.7 1.1-6 1-11.7 3.4-17.4 5.8-5.8 2.5-10.2 7-15.8 9.5-.5.2-1 .3-1.5.4.1-.5.2-1 .4-1.5 1.9-3.7 5-6.5 8.3-8.9 4.5-3.2 9.3-5.8 14.2-8.2 3-1.5 6.1-2.2 9.3-2.8 8-1.4 16-2.8 24-4.5 1.4-.3 2.6-1.7 4.1-2.1 6.5-1.9 13.3-3.2 19.9-2.1 4.3.7 8.8 1.5 13 3.1 4 1.5 8 2.8 11.9 4.4 4.7 2 9.5 4 13.3 7.7 3-.2 2.8 2.9 4.1 4.4 2.9 3.7 4.8 7.9 4 12.3"/><path id="Fill-22" class="st0" d="M321.1 135.9c-.1 4.2-.2 8.2-1.9 12.4-1.9 4.6-5.2 6.6-9.2 8.2-1.4.6-3.1.5-4.5 1.2-3.9 1.8-7.7 3.6-11.2 6.2-6.3 4.9-12.7 9.6-18.4 15.2-.4.4-1.2.3-1.8.2-.2 0-.4-1-.3-1.4.6-1.4 1-3 2-4.1 6.2-6.5 12.6-12.7 20-17.9 3.2-2.3 6.6-4.1 10.6-5 2.2-.5 4.6-1.7 5.9-4.5 2.3-5 2.8-10 1.4-15.3-.8-3-1.2-6.2-1.4-9.3-.2-2.7-1.2-5-2-7.4-2.2-6.4-6.1-11.9-9.9-17.3-2.9-4.2-4.3-8.9-5.6-13.6-.6-2.3-1.7-4.6-1.3-7.2.5-3.2 1-6.2 3.6-8.4 1.1-1 2-2.1 3.2-3.1.4-.3 1.2-.2 1.8-.3-.1.6 0 1.3-.2 1.9-.4.9-.9 1.9-1.5 2.6-2.6 3.1-2.5 6.2-1.4 10.2 1.9 6.8 5.2 12.5 9.4 18.1 4.2 5.6 8 11.5 9.8 18.4.7 2.7 1.8 5.2 1.9 8 .1 2.1.8 4.1 1 6.1.1 2 0 4 0 6.1"/><path id="Fill-24" class="st0" d="M251.9 139.9c-.5 4.3-1 7.6-1.2 11-.1 1.7-.7 3.6.9 5.1.4.4-.3 1.9-.7 2.9-2.8 7-6.1 13.7-10.8 19.8-2.4 3.1-2.9 7.3-5.9 10.2-.1.1-.2.4-.1.5 1.6 2.9-3.1 3.5-2.3 6.2 0 .1-.9.6-1.3.6-.3-.1-.9-.7-.8-1 .4-2.4 1.5-4.7 1.1-7.2 2.8-3.4 2.4-8.1 5-11.7 2.5-3.5 4.2-7.5 6.8-10.9 2.5-3.2 3-6.9 3.5-10.6.5-3.5-.4-7.1 1-10.6.6-1.4-.3-3.4-.5-5.2-.1-.7-.4-1.3-.4-2 .1-7.2-2.5-13.4-6.4-19.4-2.5-3.8-4.4-8-6.7-12-3.2-5.7-6-11.7-11.4-15.5-3.8-2.7-6.5-6.4-10.6-8.8-2.8-1.7-4.2-5-6-7.9-.5-.8-1.3-1.5-.3-2.2.4-.2 1.6.4 2.1.9.7.7 1 1.8 1.7 2.5 3.2 2.9 6.2 6 9.7 8.4 9.5 6.7 12.7 10.1 17.7 19 3.1 5.5 6.8 10.7 9.6 16.4 2.3 4.9 5.2 9.7 5.1 15.5 0 2.2.9 4.6 1.2 6"/><path id="Fill-26" class="st0" d="M487.2 507.3c-.3-5.8 1.6-10.3 5.7-13.8 2.8-2.4 4.9-5.4 6.7-8.7 1-1.8 1.1-3.2.1-4.9-1.1-1.8-1.9-3.7-1.5-6 .2-1.3 0-2.5-1.2-3.3-1.6-1-.9-2.6-.9-4 0-.3.7-.6 1.1-.8.2-.1.9.2.9.4.1 2.2.2 4.3 2.4 5.6-1 2.5 1.5 3.4 2.3 5.1 1.9 4.3 1.2 10.6-2.3 14.7-2.2 2.6-4.5 5-6.6 7.7-2.2 2.9-2.6 6.4-2.1 10 0 .2 1.2.6 1.4.4 1.3-1.1 2.6-2.1 3.5-3.4 4.2-6.2 8.4-12.6 9.9-20 1-4.8 3-9.7.6-15-1.3-2.9-.8-6.6-1.3-9.9-.2-1.5-.9-3-1-4.5-.4-3.7.8-10.6 3.3-15.7 1.3-2.8 2.4-5.7 4.5-8 .3-.3 1.1-.6 1.4-.5 1.2.6 0 .9-.2 1.4-.6 1.6.3 3.4-1.5 5-1.1 1-1.5 3.1-1.6 4.7-.2 4.6-3.2 8.9-.6 13.8 1.2 2.2-.1 5 1 7.8 1.3 3.2 1.1 6.9 1.3 10.4.4 11.2-3.6 20.9-9.9 29.9-2.3 3.3-4.6 6.6-8.5 8.5-1.1.5-1.5.7-2.7.2-3.5-1.4-5-3.7-4.2-7.1"/><path id="Fill-28" class="st0" d="M117.7 483.3c.4 7.5-2.9 14.2-4.6 21.2-.1.6-.8 1.2-1.4 1.6-.8.6-.7 1 0 1.6 1 .8 1.9 1.7 2.7 2.7.4.6.5 1.5.7 2.2-.9.1-1.9.5-2.6.1-3-1.6-5.1-6.1-3.5-9.3 2.3-4.6 1.8-9.8 4.1-14.2-.5-3.7.7-7.3-.9-11.2-.8-2.1-.8-4.8-1.9-6.9-1.2-2.1.5-4.7-1.5-6.6-.5-.5 0-2.1-.1-3.2-.4-6.8-2.3-13.3-3.3-20 0-.3-.2-.7-.4-.9-2.6-2.6-4.9-5.5-7.8-7.7-2.2-1.7-5.2-2.4-7.9-3.5-.8-.3-1.8-.1-2.7 0-3.4 0-5.1 1.5-5.4 5-.2 2.5 0 4.8-1 7.3-.9 2.1.2 4.5 1.6 6.4.6.9.9 1.7-.1 2.2-1 .4-1.1-.8-1.6-1.4-1.5-1.7-2.5-3.4-2.1-5.8.2-1.3-.8-2.4-1-3.4-.8-4.1.6-7.9 2.7-11.4.8-1.3 2.2-2.9 3.6-3.1 2.4-.5 5.2-.5 7.5.2 4.9 1.5 9.5 3.8 13.6 6.9 3.6 2.7 5.5 6.8 6.5 11 1.2 4.9 1.8 9.9 2.5 15 .4 3.3 0 6.9 1.1 9.9 1 2.9 1.6 5.9 2.6 8.8.6 2.1.4 4.3.6 6.5"/><path id="Fill-30" class="st0" d="M433.4 97.5c-.6 3.6-1 7.1-1.7 10.5-.7 3.1-1.4 6.5-3 9.2-1 1.8-2.1 3.6-2.7 5.5-.9 2.6-1.8 5.3-1.5 8.2.3 2.7.2 5.5 0 8.2-.2 2.6-.4 5.3-1.1 7.8-2.2 8.4-4.4 16.8-9.4 24.2-4.2 6.2-10.3 9.9-16.2 13.9-1.3.9-2.5 2-4 2.3-2.2.5-4.6-.4-6.7 1.2-1.4-1.7-4.1-.2-5.5-2.1 1.2-2.5 3.6-1.4 5.1-1.1 3.8.6 6.6-1.6 9.2-3.1 5.6-3.3 10.3-8.1 14.3-13.2 3-3.8 5-8.6 6.5-13.2 1.2-3.7 2.3-7.6 2.6-11.7.2-2.2-.2-4.2-.1-6.3 0-1.9.8-3.7 1-5.6.2-2-.2-4.1.2-6 .3-1.8 1.3-3.5 2.1-5.2.7-1.7 1.2-3.6 2.3-5.1 1.8-2.6 2.4-5.7 3.1-8.6 1.2-5.2 2.2-10.7 1.1-16-.7-3.4-.8-6.7-1-10 0-.8-.4-1.8-1-2.3-1.5-1.1-1.1-2.6-1.1-4 0-.4.5-1 .8-1 .4-.1 1.2.3 1.3.6.7 2.6 3 4.8 2.3 7.9-.2.8.2 1.7.6 2.5.4 1.1 1.3 2.1 1.5 3.2.3 3.2.6 6.3 1 9.3"/><path id="Fill-32" class="st0" d="M95.9 263.5c-12.1-.4-22-3.1-31.3-7.9-.5-.2-.7-1-1-1.5.4-.2.9-.6 1.3-.6 3.9.4 7.8.5 11.5 1.4 5.6 1.2 17 2.7 21.2 1.8 3-.6 6-1.4 8.8-2.7 2.8-1.4 5.2-3.5 7.7-5.3 5.4-3.9 10.7-7.8 16.1-11.6 3.9-.5 6.9-3.8 11.2-3.6 2.5.1 4.3.6 4.8 2.7.1.5.1 1.4-.2 1.5-.5.2-1.4.3-1.8 0-1.4-.9-2.4-.9-3.8.1-3.2 2.3-6.8 4.2-9.8 6.7-4.8 4-10 7.4-14.4 11.9-1.9 1.9-4.4 3.5-6.9 4.6-1.2.5-2.6 1.1-3.9 1.2-3.7.3-7.2 2.1-9.5 1.3"/><path id="Fill-34" class="st0" d="M94 247c-2.6-.3-4.9-.5-7.2-.8.3-2.9 3-3.9 4.6-5.7 6.2-7.1 14.1-11.9 22.5-15.9 7.3-3.5 14.9-6 23.1-5.3 2.8.2 6 .3 8.2 2.8.2.3.7.5.7.8.1.5.3 1.1 0 1.4-.3.3-1.1.6-1.4.4-3-1.5-6.3-1-9.5-1.1-5.1 0-9.8 1.8-14.6 3.4-8 2.6-14.8 7.6-21.9 12.1-1.2.7-2.2 1.9-3.2 2.9-.3.3-.5.8-.7 1.2.5.1 1.1.3 1.5.2 1.9-.6 3.8-1.6 5.7-2 10-2.2 14.1-4.1 22.1-10.3 3.1-2.4 6.5-4.4 10.2-5.8.5-.2 1-.3 1.5-.3s1.2.1 1.4.4c.2.3.1 1.1-.1 1.4-.7.9-1.4 1.9-2.3 2.3-4.8 2-8.3 5.8-12.3 8.9-3 2.4-6.8 3.9-10.3 5.6-2.1 1-4.5 1.8-6.8 2.2-3.7.5-7.6.8-11.2 1.2"/><path id="Fill-36" class="st0" d="M49.2 333.6c.1-1.4.1-2.1.3-2.8 0-.2.6-.4.9-.4.3 0 .9.2.9.3.8 5.1 4.8 7 8.9 8.8 1.5.7 3.2 1.2 4.8 1.6 5.8 1.2 11.6 1.8 17.6 1.4.3 0 .6-.3.9-.5-.3-.3-.5-.6-.8-.8-4.3-2.1-8.5-4.1-13.2-5.3-4.1-1.1-8.4-2-12.2-3.7-3.9-1.8-8.1-3.5-10.7-7.3-.6-.8-1.1-1.7-1.6-2.6l-3.3-6.3c1.7-2 .9-4.4 1.1-6.7 0-.3.7-.8 1.1-.8.4 0 .9.5 1 .9.5 2 0 4 .9 6.2 1.9 5.1 6 7.7 10 10.4 3.6 2.3 7.8 3.3 11.9 4.4 7.2 2 14.3 4.2 19.5 9.9 2.1 2.3 4.3 2.8 7.2 1.9 1.5-.5 3.1-.5 4.7-.7.3 0 .9.6.9 1s-.4 1-.7 1.1c-1 .5-2.2.9-3.3 1.4-2.3 1-5.4 1.2-5 4.9 0 .1-.7.4-.9.3-.4-.2-1-.6-1-.9.3-2-.4-2.5-2.4-2.4-3.8.2-7.7.3-11.5 0-6.1-.5-12.7-1-19.8-5.3-3.7-2.2-5.6-4.8-6.2-8"/><path id="Fill-38" class="st0" d="M435.6 586c-1.2 5-1.7 10.8-4 16.4-3 7.4-6.8 14.4-10.5 21.5-3.3 6.4-7.1 12.5-11.2 18.4-2.1 3-5 5.4-6.5 8.9-.1.3-1 .4-1.4.4-.2 0-.5-.7-.5-1-.1-1.6.4-2.9 1.4-4.4 5.2-7.8 10.1-15.8 14.6-24.1 2.3-4.2 4.6-8.4 6.7-12.6 2.2-4.5 3.9-9.4 5.6-14.1.3-1 .2-2.1.3-3.2.2-2.1-.6-4.3 1-6.2.4-.4.3-1.5 0-2.1-1.5-3.6-.9-7.6-2.2-11.2-1.6-4.1-3.7-8.1-6.5-11.6-1.2-1.5-2.3-3.1-3.3-4.7-.2-.3.2-1 .5-1.4.1-.2.8-.2 1-.1 4.2 4.2 8.5 8.2 10.7 14.2 1.5 4.2 2.2 8.6 4 12.6.5 1 .2 2.4.3 4.3"/><path id="Fill-40" class="st0" d="M150.5 329.2c-.7 5.4 1.9 10.6 1.1 16-.3 2.2.6 4.5-.9 6.8-1.1 1.7.8 4.6-1.2 6.6.1 4.6-1.3 8.8-3.2 13 .7 2.4-2.1 3.3-2.2 5.1-.2 2.2-1.6 3.8-2.4 5.6-.7 1.7-2.1 3.1-3.2 4.7-.5.7-.7 1.6-1.2 2.2-.7.8-1.9.9-2-.2-.1-1-2-2 0-3.5 2.5-1.9 7.2-11.7 7.5-14.9.3-2.5 1.2-4.6 2.2-6.8.8-2-.8-4.6 1.1-6.7.5-.6.1-2.1.1-3.2 0-8.6.1-17.2-.1-25.8 0-2.8-.8-5.5-1-8.3-.2-2.9.6-6-.2-8.7-.9-3-.9-5.9-.9-8.9 0-1.4-.3-2.4-1.3-3.3-.5-.4-.8-1.2-.8-1.8 0-.6.3-1.3.7-1.7.1-.1 1.1.2 1.3.5.8 1.3 2.3 2.8 2.1 4-.6 4 2.1 7 2.6 10.6.1.6.9 1.3.8 1.8-.7 5.5 2.1 11.1 1.1 16.9"/><path id="Fill-42" class="st0" d="M285.9 132.5c.3 5.2-1.9 10.2-1.2 15.5 0 .2-.7.8-1.1.8-.4 0-1-.6-1-.8.7-5.4-1.7-10.7-1.1-16 .5-4.6-1.1-8.7-2.8-12.6-3.2-7.6-7.6-14.4-13.5-20.3-1.6-1.6-2.9-3.6-4.3-5.4-1.3-1.7-2.7-3.2-4.1-4.9-2.8-3.4-5.6-6.7-8.1-10.4-2.1-3.2-3.4-6.7-5.3-9.9-.6-1-.7-2.5-.4-3.6.4-1.3-1.7-3.9 1.2-3.8 1.7.1.5 2.4.9 3.7.1.5.1 1.1.4 1.5 4.6 7.7 9.6 15 15.9 21.5 6.4 6.6 12.1 13.8 17.2 21.4.7 1 7.2 16.2 7.2 17.3.1 2 .1 4 .1 6"/><path id="Fill-44" class="st0" d="M244.6 534.9c.2.4.6.9.5 1.2-.1.5-.5.9-.8 1.3-5.6 5.9-11.2 11.8-16.7 17.9-4.5 5-8.6 10.5-11.3 16.7-1 2.4-2 4.7-2 7.5.1 4.6.3 9.2-.1 13.7-.3 3.3 1.4 6.2 1.3 9.4 0 1 .9 1.9.9 2.9 0 1.7.4 3.1 1.7 4.3.5.5.4 1.6.5 2.5 0 .2-.4.6-.7.7-.3.1-.9.1-1-.1-.9-1.2-2.5-2.5-2.5-3.8 0-2-1.3-2.8-2.1-4.1-.8-1.3.6-3.3-1.2-4.4-.4-5.4-2.7-10.6-2.2-16.1.6-7.6 2.9-14.8 6.7-21.4 1.3-2.2 3.5-4 5.1-6.1 2.7-3.7 5.9-7.3 9.3-10.5 4.3-4 8.9-7.6 13.4-11.3.2-.3.6-.2 1.2-.3"/><path id="Fill-46" class="st0" d="M241.9 442.6c2.9 0 5.9.1 8.8 0 2.4-.2 4.8-.8 7.2-1 2.6-.2 5.2.4 7.7-.1 6.3-1.3 12.5-3 18-6.8 3.4-2.4 6.9-4.6 10.2-7.1.4-.3 1.2.1 1.8.2-.1.5 0 1.1-.3 1.5-1.6 1.7-3.3 3.4-5 5.1-.9.8-1.6 1.5-.1 2.3 1.4.8 1.3 2.2 1.1 3.4-.7 3-1 6.3-2.5 8.8-1.9 3.2-4.8 5.7-7.2 8.5-.2.3-.5.6-.8.7-.7.1-1.8.3-2.1-.1-.5-.6-.8-1.8-.5-2.4.8-1.5 2-2.8 2.9-4.3 2.4-3.9 5.5-7.5 5.8-12.4 0-.5.4-1 .6-1.6-.5.1-1.2 0-1.5.2-2.3 2.1-5.5 2.7-8 4.6-1.2.9-2.7 1.4-4.2 1.7-3.2.6-6.4 1.5-9.5 2-3.4.5-7.1 1.1-10.6-.5-1.1-.5-2.4-.4-3.7-.4-5.9 0-11.7 0-17.6-.1-.5 0-1.5-.5-1.5-.9-.3-1.3.7-1.3 1.7-1.3h9.3"/><path id="Fill-48" class="st0" d="M305.7 443.9c0 2 .1 4 0 6-.3 2.8.7 5.6-.8 8.5-1.3 2.5.3 5.4-1.2 8.3-1 1.9-.7 4.7-1.1 7.2-1.2 6.8-3.8 13-6.6 19.2-.9 1.9-2.7 1.2-3.6 2.4-.3-.3-.6-.7-.9-1-.1-.1-.1-.4 0-.5 2.9-3.6 3.6-8.1 4.6-12.4 2.2-1.6-.5-4.7 1.9-6.3.4-3.3 1-6.6 1.1-9.9.1-5.7 1.9-11.3 1.2-17.1 1.9-3 1.3-6.3 1-9.4-.5-5.1 1.3-9.9 1.2-14.9 0-.3.6-.7.9-1 .4.4 1.1.8 1.2 1.3.5 3.3.9 6.6 1.1 10 .1 3 0 6.3 0 9.6"/><path id="Fill-50" class="st0" d="M354.1 665.1c0 1.1.2 1.7-.1 2.2-.2.4-.8.6-1.3.6-.3 0-.8-.3-.8-.5-4.1-13.2-8.4-17.9-16.5-25-3-2.6-6.8-4.8-11.4-4.2-1.6.2-3.3.2-4.9 0-5.9-.5-11.4 1.4-16.9 2.9-2.5.7-5 1-7.2 2.5-.4.3-1.4.1-2.1-.2-.3-.1-.5-1.3-.4-1.4 2-1.4 3.9-3.1 6.1-3.8 3.6-1.1 7-2.5 10.7-3.5 2.2-.6 4.3-1.3 6.7-1.1 1.5.1 3.3.7 4.5-1 .1-.2.9-.2 1 0 2.4 2.8 5.7.5 8.6 1.7 11.2 4.7 17.9 13.3 22.5 24 1.1 2.3 1.1 4.9 1.5 6.8"/><path id="Fill-52" class="st0" d="M148.6 217.9h-2.1c-.2-2.6-2.2-1.6-3.5-2-5.6-1.8-11.4-.8-17.1-1-2.3-.1-4.5.3-6.7 1-5.7 1.7-11.2 3.9-16.5 6.7-6.7 3.6-13.1 7.6-19 12.4-.5.4-1.2.7-1.9.8-.5.1-1.2-.1-1.4-.4-.2-.3-.2-1.1 0-1.4 1.9-2 3.6-4.2 5.9-5.8 2.6-1.8 5.1-3.6 7.6-5.4 5.3-3.7 10.9-7 17.2-8.9 3.4-1.1 6.8-2.4 10.3-3 3.7-.7 7.6-.2 11.5-.3 4.3-.1 8.1 1.1 11.9 3.2 1.3.7 2.2 1.7 3.3 2.5.2.1.2.8.5 1.6"/><path id="Fill-54" class="st0" d="M270.2 518.4c.4-1.3.7-3.4 1.7-5.2 3.5-6.5 8.3-11.7 14.9-15.1.9-.4 1.6-1.1 2.2-.1.2.3-.2 1.4-.6 1.8-1.5 1.6-3.2 3-4.6 4.7-2 2.3-4.1 4.4-5.6 7-4.4 7.4-2.5 12.5 2.4 18.5 1.9 2.4 4.7 4.2 7.4 6 3 2 6.1 3.8 9.2 5.5 1.2.6.8 1.5.7 2.3-.1.4-1.1 1.1-1.3 1-7.5-3.5-15.5-6.2-21-12.9-3-3.7-4.7-7.9-5.4-13.5"/><path id="Fill-56" class="st0" d="M376 520.8c.9 8.7-3 14.5-8.7 19-4 3.2-13 5-17.4.3-.9-1-2.4-1.4-3.3-2.4-.4-.4.1-1.6.3-2.5.6.1 1.5.1 1.8.4 3.6 3.9 8.3 2.4 12.6 2.7 2.3-1.9 5.3-3.5 6.8-5.9 2.3-3.7 4.8-7.8 3.7-12.7-.7-3-1.1-6.1-2.6-8.8-1.9-3.4-3.9-6.8-5.8-10.2-.3-.5 0-1.2-.1-1.9.6.1 1.4.1 1.8.5 4.8 4.2 8.5 9.1 10.3 15.5.6 2.3.1 4.6.6 6"/><path id="Fill-58" class="st0" d="M376.3 435.6c2.4.5 4.9.6 7.1 1.6 2.1.9 4.1.9 6.2 1 5.2.3 10.3.9 15.5 1.1 6.7.3 13-1.9 19.3-3.7 2.3-.6 5-1 6.6-2.4 1.9-1.8 5-1.1 6.3-3.7.2-.5 1.7-.1 2.5-.5 1.1-.5 1.9-3.1 3.3-1.2 1.1 1.4-1.2 2.3-2.1 3.3-.8.9-1.9 1.4-3 2-5.7 2.9-11.2 6.3-17.6 7.8-2.7.6-5.2 1.9-8 1.8-1.2 0-2.3.2-3.5.7-1.9.7-4.6 1.1-6.3.2-2.5-1.2-4.9-.7-7.3-.9-1.1-.1-2.5.3-3.1-.3-2.8-2.3-5.9-1.9-9.1-1.9-.5 0-1.4.2-1.6 0-2.3-3-5.5-2-8.5-2.2-.4 0-.7-.6-1-.9.4-.4.8-1.1 1.2-1.2 1.1-.2 2.2-.1 3.3-.1-.3-.3-.2-.4-.2-.5"/><path id="Fill-60" class="st0" d="M94.7 168c5.3-1 10.7-1.7 15.9-3 5.4-1.4 10.7-3.4 15.5-6.3 2.7-1.6 5.8-2 8.6-3.1 1.9-.7 4.7.6 6.9 1.4 1.9.7 3.6 2.1 5.9 1.7.2 0 .7.8.7 1.1 0 .4-.6 1-.9 1-2.4-.4-4.8.3-7.4-.8-2.7-1.1-6.2-.5-9.2 1.2-4.9 2.8-9.9 5.2-15.3 6.7-5.7 1.6-11.4 3.6-17.5 2.8-.7-.1-1.6.1-2.1-.2-2.6-2-5-.6-7.4.2-.6.2-1.1.9-1.8 1-.8.1-2 .6-2.2-.8-.1-.4.7-.9 1.1-1.4 2.6-2.7 6-1.9 9.2-1.5"/><path id="Fill-62" class="st0" d="M410 665.6c.2-1.2.1-2.2.6-2.9 4.1-5.8 7.4-12.1 11.9-17.6 4.4-5.4 8-11.4 12.6-16.7 4.5-5.2 8.3-11.3 14.6-14.8.3-.2.1-1.1.5-1.4.3-.3 1.1-.3 1.4-.1.3.2.6 1.1.4 1.4-.8 1.3-1.6 2.7-2.7 3.8-5.1 5.6-9.7 11.7-14.4 17.7-7.8 10-15.4 20.2-22.5 30.7-.3.5-.9.8-1.3 1.2-.4-.4-.8-.9-1.1-1.3"/><path id="Fill-64" class="st0" d="M324.6 543.8c-2.8.7-5.1-1.6-7.8-2.7-1-.4-1.7-1.5-1.2-2.7.2-.5.8-.8 1.2-1.3 1.3 1.7 3.4.6 4.9 1.3 3.8 2 6.7.6 9.4-2.1 2.5-2.5 4.9-5.1 8.1-7 4.4-2.7 8.8-5.1 14.2-4.2.8.1 1.6.6 2.3 1.1.3.3.6 1 .5 1.4-.1.3-.8.7-1.2.7-5.6-.2-9.9 2.7-14 6-2.8 2.2-5.4 4.7-8.1 7-2.3 1.9-4.9 2.5-8.3 2.5"/><path id="Fill-66" class="st0" d="M513.2 275.3c-9.2.1-16.9-3.6-23.2-10-2.6-2.7-4.3-6.2-4.9-10-.1-.6.3-1.3.5-2 .6.2 1.4.3 1.8.7 1 1 2.5 1.7 2.1 3.5-.1.3.1.7.3 1 6.2 6.8 12.9 12.5 22.8 12.4 3.3-.1 6.6 0 9.9 0 .7 0 1.4-.2 2-.4l1.2-.3c0 .5.1 1.2-.2 1.4-2.2 1.7-4.4 3.3-7.3 3.6-1.7.3-3.3.1-5 .1"/><path id="Fill-68" class="st0" d="M428 187.9c-.6-.7-1.1-1.1-1.3-1.6-.1-.3.4-.9.8-1.1 5.3-2.6 9.7-6.4 13.7-10.7 2.5-2.6 4.1-5.4 5.3-8.8 1.9-5.9 4.9-11.2 9.9-15.1.4-.3 1.2-.2 1.9-.3-.1.6.1 1.4-.2 1.9-1.1 1.9-2.6 3.7-3.4 5.7-1.3 3.3-4.3 6-3.8 10-2.7 5.4-5.7 10.6-10.8 14-2.6 1.8-5.7 3.1-8.6 4.5-1 .4-2.1.9-3.5 1.5"/><path id="Fill-70" class="st0" d="M509.7 328.8c-.6.7-1 1.3-1.5 1.5-.3.1-.9-.3-1.2-.7-2.3-2.9-4.3-6-6.8-8.7-2.7-3-5.2-6.2-7.3-9.6-1.8-2.9-3.2-6-4.6-9.1-.3-.8-.4-2.1 0-2.7 1.3-1.8.9-3.7 1.1-5.6 0-.3.6-.8 1-.9.4 0 1 .4 1.1.8.4 1.7-.7 3.7 1 5.1-.2 4.9 3.1 8.3 5.5 12 2.9 4.4 6.2 8.4 9.2 12.7 1.1 1.5 1.7 3.3 2.5 5.2"/><path id="Fill-72" class="st0" d="M188.3 594.3c.8.1 1.2.1 1.4.3.7.6 1.4 1.2 1.9 1.9 3.5 5.1 7 10.2 10.6 15.3 1.6 2.3 3.2 4.5 4.9 6.7 2.1 2.6 4.4 5.1 6.5 7.7.4.5.6 1.3.6 1.9 0 .5-.2 1.2-.5 1.3-.3.2-1.1 0-1.4-.3-4.4-4.2-8.7-8.5-12.3-13.5-2.2-3.1-3.9-6.5-6.4-9.4-2.4-2.8-2.8-6.7-5.6-9.2-.4-.3.2-1.8.3-2.7"/><path id="Fill-74" class="st0" d="M421.3 591.5c-.5.5-1.1 1.5-1.8 1.6-.7.1-1.8-.5-2.2-1.1-.5-.9-.7-2.1-.5-3 .6-2.6-1.3-4.8-1.2-7.3-3.7-5.8-5.6-12.7-10.8-17.5-1.7-1.5-2.9-3.5-4.3-5.4-.3-.3-.3-1.1-.1-1.4.2-.3.9-.5 1.4-.4.7.1 1.4.3 1.9.7 1.9 1.7 4 3.4 5.4 5.5 2 3 4.7 5.5 6 9.1.4 1.3 1.8 2.2 2.2 3.5.7 2.1 1.9 4.1 1.7 6.5-.2 2.8-.4 5.7 1.8 8 .3.1.3.6.5 1.2"/><path id="Fill-76" class="st0" d="M223.4 448.2c-.5.4-.9 1-1.2.9-1.4-.2-2.3.6-3.3 1.4-1.5 1.4-3.3 2.6-4.9 3.9-2.3 1.9-4.6 3.9-6.9 5.8-5 4.3-10 8.5-15 12.7-.3.3-1.2 0-1.8-.1.1-.5-.1-1.2.2-1.5 1.5-1.6 3.1-3.1 4.6-4.7 1.7-1.8 3.2-3.8 5-5.6 1.7-1.7 3.6-3.2 5.4-4.8 3.9-3.5 8.2-6.2 12.8-8.6 1.5-.8 2.7-.7 4.1-.8.2.2.6.9 1 1.4"/><path id="Fill-78" class="st0" d="M359.6 434.3c0-1.1-.1-1.6 0-1.8.2-.4.6-.7 1-.9.2-.1.8.1.9.3 3.5 4.9 6.8 10.1 10.6 14.8 3 3.7 6.6 7 11 9.1.3.2.6.9.5 1.3-.1.3-.7.7-1.1.8-1.9.6-3.6-.4-4.9-1.3-6.1-3.8-10.7-9.3-14.8-16.8-.7-1.2-1.5-2.3-2.2-3.5-.5-.7-.9-1.7-1-2"/><path id="Fill-80" class="st0" d="M530.3 382.3c-6.4-1.3-12.6-2.7-18.2-5.8-.9-.5-1.3-2.1-2.7-2.6-.3-.1 0-1.6 0-2.5.6 0 1.3-.1 1.9.2 3.4 1.6 6.7 3.2 10.4 4.1 1.5.4 3 .7 4.5.9 1.3.2 2.6.8 3.9 1 2.2.4 4.5 1.6 6.6-.5.2-.2 1.1.1 1.5.4.2.1.3.8.2 1.1-.7 1-.5 2.7-2.8 2.4-1.8-.1-3.7.9-5.3 1.3"/><path id="Fill-82" class="st0" d="M519.2 420.6c.4 0 .8-.1 1.1 0 .4.2.8.6.9 1 .1.2-.1.8-.3.9-3.7 1.5-5.7 4.9-8.5 7.4s-4.7 5.6-6.7 8.7c-.9 1.3-2.8 1.9-4.3 2.8-.2.1-.6-.2-.9-.3.1-.3.3-.5.4-.8.9-2.2 1.7-4.4 2.8-6.5 2.4-4.7 6.3-8.2 10.1-11.7 1.3-1.2 3.4-1.3 5.2-2 .1.2.2.3.2.5"/><path id="Fill-84" class="st0" d="M315.6 564.7c.5-1.3.9-2.6 1.4-3.8 1.3-3.3 4.1-5.5 5.9-8.5.9-1.6 2.4-1.3 3.8-1.2.4 0 1.1.3 1.2.7.1.4-.2 1-.4 1.4-.4.6-1 1-1.5 1.6-4 4.1-5.4 9-4.5 14.5.2 1.4 1.3 2.7 1.9 4.1.2.4.3 1.1.1 1.4-.3.3-.9.4-1.4.4-.5 0-1.2 0-1.5-.4-2.3-3-3.9-6.4-5-10.2"/><path id="Fill-86" class="st0" d="M197.8 194.1c-.3 1.8-.7 4.4-1.1 7 0 .2-.7.6-.8.5-.5-.3-1.2-.7-1.3-1.2-.6-3.2-1.6-6.4-2.1-9.6-.6-4.2-2.4-7.8-4.3-11.5-.3-.6-.4-1.4-.8-1.9-.9-1.1-1.1-2.4 0-3.3.3-.2 2 1 2.6 1.9 1.4 1.7 2.5 3.7 3.8 5.6 2.2 3.3 4 8.5 4 12.5"/><path id="Fill-88" class="st0" d="M521.5 305.1c3.4-.4 7.3.7 11.1-1 1.2-.6 2.9-.1 4.3 0 .3 0 .7.6.8 1.1.1.2-.1.8-.4.9-3.7 1.2-6.8 4.4-11.1 3.5-.7-.1-1.7-.3-2.1 0-3.3 2.8-6.2-.7-9.3-.6-.7 0-1.6-.6-2.2-1.1-.6-.6-.8-1.5-1.2-2.2.7-.2 1.3-.5 2-.5 2.5-.2 5.1-.1 8.1-.1"/><path id="Fill-90" class="st0" d="M409.1 588.8c.4.1.7.2.7.2-.2 2.4 2.1 3.6 2.6 5.5.6 2.4.8 4.8 1.2 7.2.4 2.2.7 4.5 1.1 6.7.4 2.1-.5 4.1.8 6.3.6 1-.7 3.1-1.1 4.7-.1.2-.6.3-1 .2-.3-.1-.6-.3-.9-.5 1.2-1.9-3-3.8 0-5.7.1-.1.1-.7-.1-1-1.6-2.4-1.6-5.2-2.3-7.9-.7-2.6-.3-5.4-1.1-7.8-.8-2.5-.9-4.8-.9-7.3 0-.1.7-.4 1-.6"/><path id="Fill-92" class="st0" d="M210 441.4c-.2.3-.6 1.1-.7 1.1-3.6-.8-5.5 2.7-8.5 3.4-2.9.7-5.3 2.1-7.7 4-2.2 1.8-5 2.8-7.4 4.3-.9.6-1.7.9-2.1-.2-.2-.7-.1-2.1.4-2.4 3.2-2.3 6.5-4.4 9.8-6.6.8-.6 1.8-1 2.6-1.5 4-2.4 8.4-3.2 12.9-3 .3-.1.5.5.7.9"/><path id="Fill-94" class="st0" d="M303.6 534.9c-.3-.2-1.4-.7-2.2-1.5-2.6-3-6-4-9.9-4-1.1 0-2.8.2-3-.3-.6-1.2-3.1-.1-2.6-2 .2-.7 1.4-1.3 2.3-1.6 6.3-2.4 14.8 1 17.9 7.2 1 2 .7 2.4-2.5 2.2"/><path id="Fill-96" class="st0" d="M356.1 448.6c.4-2.6.8-5.1 1.3-7.7 0-.2.6-.5.8-.5.5.1 1.3.4 1.3.6 0 3.5 1.8 6.8 1.2 10.5-.5 3 1.4 5.6 2.3 8.3.3.8 3 .3 1.7 2.2-.7 1.1-3.8.4-4.8-.7-.1-.1-.3-.2-.4-.4-1.3-4.1-3.9-7.7-3.4-12.3"/><path id="Fill-98" class="st0" d="M448.6 435.9c.6.1 1.4 0 2 .4 5.6 3.4 11.1 7 14.2 13.1.3.5.1 1.2.1 1.9-.6-.1-1.4-.1-1.9-.4-3.3-2.8-6.4-5.7-9.7-8.5-1.7-1.5-3.6-2.8-5.3-4.3-.3-.3-.3-1-.3-1.5 0-.3.5-.5.9-.7"/><path id="Fill-100" class="st0" d="M442.7 447c3.8 1 9.2.1 13.1 4.2.3.4 1.6-.2 2 .2.5.5.7 1.5.7 2.2 0 .3-.9.7-1.4 1-.3.1-.8.2-1.1 0-3.7-2.6-8-2.8-12.3-3.2-1.7-.2-2.2-1.7-3.4-2.2-.9-.4-2.5.7-2.5-1 0-2.2 1.9-.8 2.9-1.2.3-.1.6 0 2 0"/><path id="Fill-102" class="st0" d="M349.6 412.7c-.1 0-.9.5-1 .3-.4-.4-1-1.3-.9-1.6 1-2.2-1.8-3.5-1.1-5.5.1-.2-.4-.8-.6-.8-4.4-.8-2.8-3.6-2.1-6.1.2-.8.6-1.7.6-2.5 0-.4-1.1-1.1-1.5-.9-.8.3-1.4 1.1-2.2 1.6-.9.6-1.8 0-1.7-1.1 0-.9-.1-2 .3-2.7 1.5-2.1 1-3-1.4-3.5-.6-.1-1.3-1.9-1-2.7.5-1.8.9-3.9 2.9-4.7.9-.4 2.2-.7 3-.3 1.3.5.6 1.9.5 2.9-.1.7-2.1 1.5.3 1.8 1.9.2-.2 3.4 2.4 3.4 2.5-.1.9 2.3 1.7 3.4.5.7.4 1.8 1.7 1.6 1.3-.2 2.4.6 2.5 1.6.8 4.6 2 9.2-.3 13.7-.2.3-.3.7-.5.9l-1.6 1.2"/><path id="Fill-104" class="st0" d="M377.6 375.9c-2.2.9-4.6 1.9-7 2.7-1.4.5-3.3.2-4.4 1-1.4 1-2.1.4-3.2-.1-2.3-1.1-2.3-1.1-.6-2.7.6-.5 1.1-1 1.7-1.4 1.5-1 2-1.8.5-3.4-1.5-1.6-1-2.5 1.1-3.3 2.4-.8 4.8-1.5 7.2-2.4 1-.4 1.8-1.1 2.6-1.7.9-.7.5-1.1-.5-1.2-1.7-.2-1.2-1.4-1.2-2.5.1-1.1.7-1.4 1.8-1.4.8 0 1.7-.5 2.5-.5 2 0 3.1 1.3 2.6 3.2-.6 1.9-1.3 3.9-2.4 5.6-.4.7-1.8.8-2.8 1.1-.9.3-2 .4-2.6 1-.6.7-.8 1.8-1.1 2.8-.1.3-.1.7-.1 1.1.4-.1 1 0 1.3-.3 2.6-2 5.1-4.2 7.7-6.2.3-.2.9 0 1.3.2.2.1.5.7.3.9-1.4 2.5-3 4.9-4.7 7.5"/><path id="Fill-106" class="st0" d="M387.2 355c.6-.3 2.1-1 3.7-1.6 1.2-.4 1.7.4 1.2 1.8-.2.6-.5 1.3-.7 1.9-.1.3 0 .7.2.8.7.5 6.2 0 6.6-.7.2-.3.1-.9 0-1.4-.3-1-.4-2.1-1-2.8-1.2-1.4-.3-2 .7-2.5s2.2-.8 3.4-.9c2.4-.2 2.9.7 2.3 3.4-.2 1.1-.1 2.2-.4 3.2-.5 1.4-.9 3.5-1.9 4-1.8.9-3.4 2.4-5.7 2-.4-.1-.7 0-1.1-.1-1.4-.3-2.4-.3-2.2 1.6 0 .5-.2 1-.4 1.5-.7 1.5-1.3 3-3.5 2.9-.9 0-1.9.6-2.9.8-.9.2-1.7-.8-1.3-1.7.1-.3.6-.4.8-.7.7-1.2 1.8-2.4 1.8-3.5 0-1-1.5-1.9-2.2-3-.9-1.3-.4-2.5 2.6-5"/><path id="Fill-108" class="st0" d="M361.6 384.4c2 2.1 1 5.1-2 6-1.4.4-3.3 0-3.2 2.5 0 .5-1.3 1.2-2 1.7-.3.2-1.1.1-1.3-.1-.3-.3-.3-.9-.2-1.4.4-1.8.4-1.8-1.4-1.8-1.4.1-1.7-.4-1.3-1.8.2-.6.5-1.3.7-1.9.1-.3-.1-.6-.1-.9-.3.1-.7.1-1 .3-.5.3-.8.9-1.3 1-.4.1-1.3-.4-1.3-.7 0-1.7-.3-3.4 1.2-5 1.9-2.1 3.7-3.9 6.7-3 .5.1 1.1.1 1.5.4 1.7 1.6 3.3 3.2 5 4.7"/><path id="Fill-110" class="st0" d="M357.9 374.7c-1.4.8-3.6 2.6-6 3.3-2 .6-3.7.9-4.3 3.2-.1.2-1.2.4-1.7.2s-1.1-.8-1.2-1.4c-.2-1 2.3-5.1 3.2-5.7 1.1-.8 10.5-3.8 12.1-3.9.3 0 .8.3.8.5.1.4.2 1.1 0 1.4-.7.7-1.5 1.2-2.9 2.4"/><path id="Fill-112" class="st0" d="M411.5 354.7c.7 1 .2 3.7 2.3 1.4.4-.4.8-.8 1.3-1 2.9-1.3 5.4.5 5.2 3.8 0 .3-.3.6-.5.9-1.4 1.6-5.5 2.1-6.5.4-1.3-2.2-3-1-4.5-1.1-.7-.1-1.6 1.3-2.2 0-.6-1.2-.6-2.5.7-3.3 1-.6 2.2-.9 3.3-1.3.3-.1.7.2.9.2"/><path id="Fill-114" class="st0" d="M421.5 349.1c.1.8.3 1.4.1 2-.1.3-.9.5-1.4.5-1.5-.2-2.7-.1-4 1-2.5 2.1-5.3 1.6-7.9 0-.3-.2-.5-1.4-.2-1.7.5-.7 1.6-1.8 2-1.7 3.3 1.2 5.4-2.9 8.5-1.7 1 .4 1.8 1 2.9 1.6"/><path id="Fill-116" class="st0" d="M370.6 364.8c-2 .7-4.2 1.6-6.5 2.1-1.3.3-1.8-.7-1.3-1.9 1.4-3.3 2.8-4.1 7-3.7.8.1 1.6.6 2.4.9-.5.8-.9 1.5-1.6 2.6"/><path id="Fill-118" class="st0" d="M236.5 342.9c-.7-.2-1.4-.4-2.1-.5-1.9-.2-1.6-1.3-1.3-2.6.3-1.5.8-2.3 2.5-1.6.8.3 1.8.4 2.6.7 1 .3 2.4 2.9 2.1 4-.1.3-.7.8-1.1.7-.9-.2-1.8-.5-2.7-.7"/><path id="Fill-120" class="st0" d="M375 99.4c.5 4.7-.3 9.3-1.1 13.8-.2 1.1-.6 2.3-1.3 3.3-2.7 4.2-4.8 8.7-8 12.7-1.7 2.1-2.9 5-2.8 8.1 0 3.5-.2 7 .1 10.4.5 6.5-2.4 11.7-5.5 17-.4.6-1 1.1-1.1 1.7-.2.9.4 2.5-1.4 2.1-1.5-.3-.6-1.8-.8-2.8-.2-1.3.1-2.3 1.1-3.4 1.6-1.6 1.8-4 3.1-5.9.8-1.1.1-3.2.1-4.8 0-2.9.2-5.9 0-8.8-.5-7.5 2.2-13.9 6.5-19.9 2.2-3 3.9-6.4 5.4-9.8.9-2-.4-4.6 1.4-6.6V90.8c-2.3-2.6-.3-6.1-2.1-9-1.5-2.6-1.8-5.8-2.8-8.7-1-2.6-2-5.2-1.7-8.1.1-1.5-.1-2.6-1.3-3.9-1.6-1.7-1.3-5.4.2-7.4.2-.3.6-.5.8-.8.6-.9.4-3 2.2-1.6 1.2.9-.2 1.9-1 2.6-1.5 1.3-1.4 3.6-.5 4.3 2 1.8 1.7 3.8 1.9 5.9.2 2 2.4 3.4 2.2 5.7-.1.6.2 1.4.5 2 2.8 5.2 4.9 10.6 5 16.6 1.9 3.5.4 7.4.9 11"/><path id="Fill-122" class="st0" d="M389.4 55.3c.3.2.8.3.9.5 0 .5-.1 1.4-.2 1.4-2.1.2-1.9 1.6-1.9 3 0 7.1-.2 14.3.1 21.4.2 3.4.6 6.9 1.8 10.2.1.2.3.3.2.4-.6 3.6.9 7 1.1 10.5.4 6.8-1.5 13.1-3.8 19.3-1.7 4.8-3.6 9.6-6.3 13.9-4 6.5-6 13.7-8.6 20.7-1.2 3.2-3.8 5.3-4.9 8.4-.1.1-.7.2-1 .1-.3-.1-.7-.4-.7-.7-.1-.7-.3-1.7.1-2.1 3.6-4.3 4.3-9.6 5.4-14.8.5-2.3 1.7-4.4 2.7-6.6 2.9-6.3 6.1-12.5 8.9-18.9 1.3-2.9 2.5-6.2 2.4-9.3-.1-2.2 2.1-3.6.9-6-.9-1.8-.6-4.2-.6-6.3-.1-2.2.7-4.8-.2-6.5-2.1-4-.5-8.3-1.8-12.5-1.3-4-.2-8.7-.3-13.1 0-1.6.1-3.2 1.2-4.5 1.2-1.4 1-2.9 1.1-4.5.2-1.6 1.9-3.6 3.5-4"/></g></svg>