<?xml version="1.0" encoding="utf-8"?>
<!-- Generator: Adobe Illustrator 20.1.0, SVG Export Plug-In . SVG Version: 6.00 Build 0)  -->
<svg version="1.1" id="Layer_2" xmlns="http://www.w3.org/2000/svg" xmlns:xlink="http://www.w3.org/1999/xlink" x="0px" y="0px"
	 viewBox="0 0 591 779" style="enable-background:new 0 0 591 779;" xml:space="preserve">
<style type="text/css">
	.st0{fill:#2403CE;}
</style>
<g id="Page-2_1_">
	<g id="_x32_">
		
			<g id="Page-1_1_" transform="translate(295.141762, 391.144158) rotate(-2.000000) translate(-295.141762, -391.144158) translate(12.141762, 9.644158)">
			<path id="Fill-1_1_" class="st0" d="M154.7,605.3c-0.1-0.7,0-1.1-0.2-1.4c-2.9-3.8-1.9-8.8-3.6-13c-1.5-3.8-3.2-7.9-3-12.3
				c0.1-1.4-1.1-1.1-1.9-1c-1.2,0.1-1.4,0.6-1.3,1.8c0.5,3.9,2.8,7.3,2.6,11.3c-0.1,3.1,1.5,5.7,2.7,8.4c1,2.1,1,4.8,3,6.4
				c0.4,0.3,0.9,0.7,1.3,1C154.5,606,154.7,605.5,154.7,605.3 M55.4,449.9c-0.1,0.1-0.3,0.1-0.4,0.2c0.7,1.6,1.4,3.1,2.1,4.7
				c0.6,1.2,1.2,2.5,1.6,3.8c2.3,6.9,6.2,12.9,11.1,18.2c0.2,0.3,0.6,0.5,0.9,0.7c0.1-0.5,0.5-1.1,0.3-1.5c-1.6-4.4-3.7-8.7-4-13.5
				c0-0.2,0-0.4-0.1-0.5c-2.3-6.5-2.3-6.5-1.7-12.2c0-0.4-0.7-1.4-1.1-1.3c-1.1,0-2-0.2-3-0.6c-1-0.4-2.4,0.3-3.5-0.8
				c-0.5-0.5-1.5-0.5-2.3-0.7c-0.1,0.7-0.2,1.4-0.2,2.1C55.2,448.8,55.3,449.3,55.4,449.9 M63.1,444.2c1.9,0,2.3-1,2.8-2.6
				c0.6-2.1,1.7-4.1,2.7-6.1c0.5-1,0.3-1-0.7-1.1c-2.3-0.5-4.7-0.9-6.8-1.8c-5.1-2.2-10.3-4.3-14.6-8.1c-0.2-0.2-0.5-0.1-0.8-0.1
				c-0.1,0.3-0.2,0.7-0.1,1c0.4,0.9,1.2,1.7,1.4,2.7c1.8,7.4,6.9,11.8,13.3,15.2C61.1,443.7,62.1,443.9,63.1,444.2 M496.5,558
				c0,3.4,0,6.7-0.1,10c0,0.4-0.7,1.1-1.2,1.2c-0.8,0.3-1.8,0.6-2-0.9c-0.1-1.3-0.2-2.6-0.5-3.8c-0.2-1-0.7-1.9-1.2-2.8
				c-0.1-0.3-0.6-0.5-0.9-0.7c-0.2,0.3-0.4,0.6-0.5,0.8c-0.1,2.1,0.4,4.1,0.1,6.3c-0.4,2.8-0.3,5.9-0.3,8.9c0,1.9,0.6,2,2.3,1
				c3.2-1.9,5-5.2,7.1-8.1c2.3-3.2,5.9-16.1,5.9-20c0-1.4,0-3-1.7-3.7c-5.8-2.3-9.6-6.2-10.5-12.7c0-0.2-1.4-0.7-1.7-0.4
				c-0.6,0.6-1.3,1.5-1.3,2.2c0,3.7,0.2,7.4,0.3,11.1c0,0.9,0.6,2.1,0.3,2.7c-1.8,2.5,0.1,4.9,0,7.4c0,0.3,0.4,0.6,0.6,0.8
				c0.3-0.4,1-0.7,1-1.2c0.1-1.6,0-3.2,0-4.7c0-0.3,0.6-0.7,1-0.9c0.2-0.1,0.8,0.1,0.9,0.3C495.7,553.1,496.3,555.5,496.5,558
				 M71.9,549.8c0,4.4,3,8,5.1,11.9c1.9,3.6,4.3,6.9,6.8,10.2c4.6,6.2,10.1,11.4,16.6,15.7c2.3,1.5,5.1,1.9,7.7,2.7
				c0.3,0.1,1.1-0.3,1.3-0.7c0.1-0.4-0.2-1.3-0.5-1.4c-4.4-1-6.3-4.7-8.8-7.8c-0.6-0.8-0.7-2-1.2-2.8c-0.5-0.7-1.6-1-2.1-1.7
				c-1-1.5-1.5,1.2-2.4,0.2c-2-2.1-4.5-3.4-6.5-5.6c-4.7-5.3-8.8-10.9-11.1-17.7c-3.5-2.6,0-6-0.9-8.9c-0.2-0.7,1.7-2.1,2.8-2.9
				c0.4-0.3,1.4,0,2,0.2c0.1,0.1,0.2,1.1-0.1,1.4c-3,3.1-2.1,6.1-0.1,9.2c0.4,0.6,0.5,1.3,0.8,1.9c0.2,0.4,0.5,0.7,0.8,1.1
				c0.1-0.3,0.3-0.6,0.3-1c0.2-5.6,2.2-10.8,5.8-14.7c1.8-1.9,3.7-3.8,5.4-5.8c1.6-1.7,1.7-3.3,0.6-5.4c-1-1.8-2-3.6-3.1-5.3
				c-0.9-1.4-1.9-2.7-2.9-4.1c-0.9,1.2-1.8,2.3-2.7,3.5c-0.6,0.7-1.1,1.4-1.7,2.2c-3.8,5.2-8.1,9.9-10.6,16.1
				C72.1,543.3,71.3,546.2,71.9,549.8 M152.6,615.7c-0.9-3.7-3.1-7.2-5.1-10.5c-3.8-6.3-4.8-13.3-5.4-20.4c-0.1-1.4,0.7-3,0.5-4.6
				c-0.2-1.7-1-2.5-2.5-3.1c-3.2-1.1-6.6-1.7-9.7-3.1c-3.4-1.5-6.5-3.2-8.8-6.4c-2.5-3.3-6.1-5.9-8.1-9.5c-2-3.6-5-6.4-6.5-10.4
				c-0.5-1.5-2.3-2.3-2.9-4.2c-0.4-1.3-1.9-2.7-2.9-4.1c-1-1.4-2.1-2.7-2.8-4.3c-0.3-0.7-1.3-1.8-2.3-0.2c-1.2,1.9-3.6,2.7-4.5,5
				c-0.8,1.9-2.4,3.5-3.4,5.4c-2.4,4.5-1,12.4,2.7,16.2c0.3,0.3,0.6,0.5,0.9,0.7c0.1-0.5,0.4-0.9,0.4-1.4c-0.1-1.6-0.3-3.3-0.6-4.9
				c-1-5,1-9,4.1-12.6c0.3-0.4,1.2-0.7,1.3-0.6c0.4,0.5,0.7,1.2,0.9,1.8c0.1,0.5-0.1,1.1-0.4,1.4c-2.2,2.6-2.2,5.5-1.6,8.5
				c0.4,2.3,0.7,4.7,0.9,7.1c0.2,2.1,1.7,3.7,2.1,5.9c0.3,2,1.9,4,3.4,5.6c4.5,4.6,8.2,9.7,11.8,14.9c1.7,2.5,2.6,5.2,3.7,7.8
				c1.4,3.1,0.4,6.6-0.9,9.7c-0.5,1.3-1.8,2.5-3,3.3c-2.5,1.8-4.9,4.1-8.4,3.8c-0.4,0-1-0.5-1.1-0.8c-0.1-0.4,0.4-1.3,0.5-1.2
				c3.7,0.4,4.2-3.9,7.2-4.7c1.7-0.5,0.5-2.8,1.2-3.8c1.4-1.9,0.2-2.6-1-3.4c-1.5-1-0.9-2.6-1.3-4c-0.6-2.2-1.6-2.7-3.7-1.6
				c-1.2,0.7-2.1,0.6-3.4,0.2c-6.7-2.2-11.9-6.2-17.1-11c-5.9-5.5-10-12.2-14.3-18.8c-2.5-3.8-4.2-8.1-6.1-12.3
				c-0.5-1.2-0.5-2.9-0.2-4.2c1.1-4.9,2-9.9,5.6-13.8c0.6-0.7,0.7-2,1.3-2.8c3.4-4.6,7.4-8.7,11.6-12.5c1.9-1.8,2.1-2.6,1.4-5.2
				c-0.9-3.2-2.6-6.2-2.7-9.7c0-4.3-1.7-8.2-4.5-11.5c-0.8-0.9-1.6-2-1.8-3.1c-0.2-2.1-1.8-3-3.1-3.5c-5.2-2-8.4-6.2-11.8-10.2
				c-4.5-5.3-7-11.6-9.4-18.1c-1.6-4.3-2.5-8.7-3.9-13c-0.6-1.8-1.1-3.7-2.2-5.2c-3.1-4.4-5.1-9.8-6.1-14.2
				c-0.4-1.9,2.1-3.6-0.1-5.4c-1.3-1.1-2.1-2.7-3.2-4c-5.9-6.8-9.5-14.9-13.6-22.7c-0.6-1.2-0.6-2.8-1-4.1c-0.4-1.1-0.9-2.2-1.5-3.2
				c-2.1-3.4-1.1-8.1-4.6-10.9c-0.2-3.8-2.9-6.9-2.6-10.8c0-0.3,0.7-0.7,1.2-0.8c0.2-0.1,0.9,0.2,0.9,0.4c0,2.3,1.8,3.7,2.8,5.5
				c1,1.7,2.1,3.5,3.1,5.3c1.1,1.9,1.8,4.1,3.1,5.9c5.1,6.6,10.5,12.9,17.6,17.5c2.9,1.9,5.9,4,9.2,5c3.4,1,6.6,3.3,10.5,2.2
				c3.4-1,7.1-0.2,10.5-2.2c1.9-1.1,4.5-0.8,6.9-1c0.1,0,0.4,0.5,0.4,0.9c0,0.3-0.1,0.7-0.3,0.9c-0.2,0.2-0.7,0.2-1,0.3
				c-0.9,0.3-1.8,0.7-2.7,1c1,0,2.2,0.3,3.1,0c2.5-1,4.9,0.6,7.4,0.2c3-0.5,3.8-1.2,3.3-4.2c-1.3-7.2,0.5-14.1,2.2-21
				c2.4-9.8,5.7-19.2,8.9-28.7c1-3,2.1-6.1,2.8-9.3c0.6-3,1.7-5.9,1.9-9c0-0.5,0.7-0.9,0.7-1.4c-0.1-3.7-0.3-7.4-0.3-11.2
				c0-2.4-0.6-5.2,0.3-7.3c0.8-2,0.3-3.5,0.2-5.2c-0.2-3.3,1.6-6.2,4.8-7.1c0.1,0,0.7,0.6,0.6,0.8c-0.4,1.1-1,2.2-1.5,3.3
				c-0.6,1.4-1.9,3.3-1.4,4.2c1.5,2.6,0.2,5.4,0.9,7.9c0.2,0.6,0.7,1.1,1,1.6c0.4-0.4,0.8-0.9,1.2-1.3c0.4-0.4,0.9-0.8,1.3-1.2
				c0.3,0.7,1.2,1.7,0.9,2.2c-1.7,3.5-1.4,7.4-2.1,11c-0.5,2.7-0.8,5.4-1,8.2c-0.4,6,1.4,11.9,1.1,17.7c-0.2,5.7,1.2,11.1,1.2,16.6
				c0,8.9-1.5,17.5-7,25c-0.7,0.9-1.1,0.9-2.3,0.7c-2-0.3-1.7-1.4-2-2.5c-0.3-1.2-0.1-2,1.4-2.2c0.9-0.1,2.1-1.1,2.3-1.9
				c1.3-4.6,2.6-9.1,2.9-14c0.3-5.7-0.8-11.1-1.2-16.6c-0.2-3-1.7-6-0.1-9c0.1-0.1-0.6-0.9-0.9-1c-0.4,0-1.2,0.4-1.2,0.7
				c-0.2,5.3-3,9.7-4.4,14.6c-1.2,4.1-2,8.3-3.6,12.2c-1.7,4-1.1,8.5-3.4,12.3c1.2,5.5-1.9,11.4,2,16.6c0.4,0.5,0.3,1.4,0.3,2.1
				c0.4,5.4,3.7,9.6,6.5,13.9c0.2,0.3,0.6,0.4,0.8,0.7c0.6,0.8-0.5,3.1,1.7,2.5c1.5-0.4,1.4-2,1.6-3.5c1.1-7.3,3.4-14.2,6.1-21
				c2.6-6.5,5.5-12.9,7.7-19.6c2.2-6.6,3.6-13.4,2.5-20.4c-0.4-2.2-0.6-4.4-0.9-6.6c-0.4-3.5-2.1-6.6-3.2-9.9
				c-0.6-1.9-0.4-4.1-1.2-5.8c-1.4-2.9-0.8-5.4,0.1-8.1c0.7-1.9,1.4-3.7,3.8-3.9c0.4,0,1,0.2,1.3,0.6c0.2,0.2,0.1,0.7,0,1
				c0,0.2-0.2,0.3-0.3,0.4c-3.5,3.6-2.5,7.6-0.5,11.4c1,1.9,0.6,3.9,2,5.9c2,3,4.4,18.2,4.1,21.6c-0.2,3.2-0.8,6.5-1.6,9.6
				c-1.1,3.9-2.3,7.8-3.8,11.6c-1.4,3.7-2.9,7.3-4.5,10.9c-1.6,3.6-2.8,7.3-4.2,11c-1.4,3.6-2.2,7.5-2.9,11.3
				c-0.5,3-1.4,6.1-1.2,9.2c0.4,5.5,0.9,11,2.2,16.3c0.7,2.8,3,5.4,5,7.6c1.8,2,4.3,3.4,6.5,5.1c0.4,0.3,1,0.5,1.4,0.3
				c0.3-0.1,0.7-0.9,0.6-1.2c-0.4-1.6,0.4-3.1,0.5-4.6c0.1-2,1.9-4.3-0.6-6.3c-0.5-0.4,0.4-2.6,0.4-3.9c0.1-2.3,0.3-4.5,0.2-6.8
				c-0.1-2.3,0.6-4.4,1.1-6.6c0.5-2.2,0.7-4.4,1.1-6.5c1.1-5.2,2.6-10.2,4.6-15.1c1.5-3.8,2.5-7.7,3.5-11.7s2-7.9,2.9-11.9
				c1.1-4.8,0.9-9.9,2.3-14.6c0.1-0.3,0-0.7,0-1.1c-0.2-4.4-0.5-8.9-0.6-13.3c-0.1-1.9,0.2-3.8,0.3-5.7c0.1-3.1-1.4-5.8-2.3-8.7
				c-0.8-2.9,0.3-6.3-2.2-8.7c0.1-4.9-3.4-8.8-4-13.6c-0.1-0.5-0.2-1-0.5-1.5c-2.4-3.9-2.9-8.5-4.9-12.5c-1.8-3.7-1.6-7.8-3.3-11.6
				c-1.6-3.5-1.4-7.9-1.8-11.9c-0.3-4.1-0.3-8.2-0.6-12.2c-0.1-1.9-0.8-2.2-2.4-0.9c-0.6,0.5-1.6,0.7-2.4,0.9
				c-2,0.6-4.3-0.1-5.9,2.1c-1.2,1.6-3.3,2.3-4.9,3.7c-5.6,4.9-10,10.8-14.5,16.6c-2.7,3.4-9.1,8.8-13.5,11.2
				c-1.1,0.6-2.4,0.6-3.6,0.9c-0.2,0.1-0.4,0.6-0.4,0.9c0,0.3,0.2,0.9,0.4,0.9c3.7,1,7.5,2.3,11.3,1c2.7-0.9,5.3-2.8,6.1-5.4
				c1-3,3.3-4.4,5.2-6.4c3.7-4,9-5.4,13.6-8.1c0.9-0.5,2.1-0.4,3.2-0.4c0.4,0,0.8,0.4,1.2,0.7c-0.3,0.5-0.5,1.2-1,1.4
				c-0.9,0.4-2.2,0.3-3,0.9c-4.2,3.5-9.6,5.6-12.9,10.3c-0.8,1.1-1.3,1.9,0,2.9c0.1,0-0.5,1.1-0.9,1.5c-1.3,1.2-2.8,2.1-3.9,3.3
				c-1.6,1.7-3.4,2.7-5.5,3.7c-1.8,0.8-4,1.4-5.4,2.9c-1.4,1.5-2.9,2.5-4.9,2.8c-0.2,0-0.4,0.4-0.7,0.7c0.3,0.1,0.6,0.3,1,0.4
				c2,0.6,3.7,0.8,5.9-0.2c4.6-2.1,9.4-4,13.8-6.7c0.6-0.3,1.4-0.4,2.1-0.4c0.3,0,0.7,0.4,0.7,0.6c0,0.5-0.2,1.4-0.3,1.4
				c-2.8-0.3-2.9,3.7-5.6,3.5c-1.2,2.4-4,2.6-6,3.9c-3.2,2.1-6.3,3.9-10.7,2.5c-3-0.9-6.6,0-10,0c-2.8,0-5.7,0.5-8.4-0.1
				c-3.7-0.9-7.5-0.5-11.2-1.6c-3.6-1.1-7.2-2-10.6-3.8c-0.5-0.3-1.2,0-1.9,0.1c0,0.5-0.1,1.2,0.2,1.5c1.3,1.4,2.5,3.1,4.1,4.1
				c6.9,4,14.1,6.7,22.2,7.5c8,0.8,15.9,2.5,22.9,6.7c2.3,1.3,4.5,2.8,6.7,4.3c0.2,0.1-0.3,1.6-0.5,1.6c-2.1,0-4.3,0.4-6.2-0.4
				c-1.7-0.6-3.1-0.6-4.7-0.4c-3.6,0.5-7.3,1.1-10.9,1.4c-4.6,0.4-9.3,0.7-13.9,0.7c-2.2,0-4.4-0.7-6.5-1.3
				c-5.5-1.7-11.4-2.3-16.4-5.6c-1.8,0.6-1.2-1.4-2-1.8c-0.3-0.1-0.5-0.4-0.7-0.7c0.5-0.2,1-0.6,1.4-0.6c0.8,0.1,1.6,0.5,2.4,0.7
				c6.8,1.6,13.5,3.2,20.3,4.8c0.3,0.1,0.7,0.2,1,0.2c6.1-0.4,12.2-0.8,18.3-1.3c0.5,0,0.9-0.5,1.3-0.7c-0.5-0.1-1-0.2-1.5-0.4
				c-3.4-1.1-7-1.3-10.5-2.1c-5.3-1.1-10.7-1.5-15.9-3.9c-4.2-1.9-7.7-4.3-11.2-7c-3.9-3-4.3-6.5-3-10.8c0.4-1.3,1.1-1.3,2.2-0.3
				c0.4,0.4,1,1.2,1.3,1.1c2.5-0.7,4.4,0.2,6.6,1.3c2.1,1,4.6,1,7,1.4c0.3,0,0.6-0.3,0.9-0.4c-0.1-0.2-0.2-0.6-0.4-0.7
				c-1-0.8-2-1.7-3.1-2.3c-1.6-0.9-1.4-2.4-1.6-3.8c0-0.4,0.4-1,0.8-1.1c0.4-0.1,1.1,0.2,1.3,0.5c2,3.3,5.3,4,8.7,4.9
				c3.3,0.9,6.4,1.3,9.8,0.9c3.1-0.4,8.6-1.4,10.4-2.7c0.2-0.2,0.3-0.6,0.3-1c0-0.3-0.3-0.8-0.5-0.9c-7.2-1.2-13.9-4.5-21-6.2
				c-4.1-1-7.5-3.4-11.3-5c-1.4-0.6-2.5-1.2-4-0.9c-0.6,0.1-1.6-0.1-1.9-0.6c-0.6-0.8-0.9-1.8-1.3-2.8c1-0.3,1.9-0.7,2.9-0.7
				c0.4,0,0.8,0.7,1.3,0.9c0.4,0.2,0.8,0.3,1.2,0.4c0-0.5,0.2-1.2,0-1.5c-1.7-2.1-1.6-4.6-2-7.1c0-0.3,0.3-0.8,0.5-0.8
				c0.5-0.1,1.4,0,1.4,0.2c0.7,2.1,2.6,3.2,3.7,4.9c3.1,4.6,8.1,5.8,12.7,7.5c1.5,0.6,3.5-0.2,5.3-0.2c2.9,0,7.4-1.3,10.1-2.2
				c5.2-1.8,8.5-5.9,12.1-9.5c4.2-4.3,8-9.1,12.4-13.3c3.1-2.9,6.7-5.4,10.5-7.2c2.8-1.3,6.2-1.7,9.5-1c2.9,0.6,3.4,0.1,4.1-2.5
				c1.8-7.2,3.8-14.3,8.4-20.4c0.6-0.8,0.7-2,1.3-2.8c0.4-0.4,1.5-0.5,2.1-0.3c0.4,0.1,0.7,1.2,0.6,1.7c-0.2,1-0.5,2.1-1.2,2.8
				c-2.9,3.1-3.9,7-5.2,10.8c-1.3,3.7-2.4,7.4-2.5,11.5c-0.1,4.2-0.8,8.3-0.4,12.5c0.4,4.2,0.5,8.5,1.8,12.5
				c0.8,2.4,1.4,4.7,1.9,7.1c0.5,2.2,1.2,4.4,2,6.5c1.9,5,3.7,10,5.6,15c1.1,2.9,2.6,5.6,3.1,8.8c0.3,1.7,1.2,3.2,1.7,4.9
				c0.4,1.5,0.2,3.1,1.6,4.4c0.5,0.4,0.3,1.7,0.4,2.7c0.5,3.6,0.9,7.3,1.5,10.9c0.8,5.5,0.3,10.9,0.1,16.3
				c-0.3,7.4-1.1,14.7-2.9,21.9c-1.7,6.9-3.3,13.9-6.4,20.4c-1.3,2.7-2.1,5.7-2.9,8.7c-0.8,2.8-2,5.5-2.3,8.3
				c-0.7,6.5-2.5,12.9-2,19.5c-1.5,3.2-0.2,6.4,0.2,9.5c0.5,4.9,1.3,9.8,1.9,14.8c0,0.4-0.3,0.9-0.6,1.2c-0.2,0.2-0.8,0.1-1,0
				c-1.5-1.2-3.5-2-3.3-4.6c0.2-2.6-1.2-3.8-3.8-4.8c-7.1-2.8-12.2-8.2-14.8-15.3c-1.7-4.6-4.7-9.1-2.7-14.6c0.7-2-1.6-3.7-2.2-5.7
				c-3.1-0.5-4.1-3.5-5.6-5.5c-2.4-3-3.9-6.7-5.8-10.2c-0.4-0.8-0.4-1.7-0.6-2.6c-0.7-3-1.3-3.6-4.4-3c-2.4,0.4-4.7,1.3-7.1,2
				c-2.2,0.7-4.8-0.3-6.6,1.8c-0.2,0.3-1.2,0.3-1.4,0.1c-1.2-1.2-2.4-0.4-3.6-0.3c-2,0.2-4.3,1.2-5.9,0.6c-2.1-0.9-3.9-0.1-5.8-0.2
				c-1.9-0.1-3.9,0-5.7-0.4c-2.9-0.7-5.9-1.7-7.7-4.2c-3.3-4.9-8.3-7.8-12.7-11.4c-0.2-0.1-0.5-0.1-0.8-0.1c-0.1,0.3-0.3,0.8-0.1,1
				c0.7,1.4,1.2,2.9,2.2,4c2.3,2.6,3.1,6,5.7,8.5c2.3,2.2,3.7,5.3,5.9,7.7c5.5,6.1,11.5,11.5,19.5,14.2c0.8,0.3,1.5,0.9,2.3,1.2
				c1.3,0.4,2.6,1.1,3.9,1c1-0.1,1.9-1,2.8-1.7c5.1-3.8,6.9-4,13.1-3.8c5.1,0.2,9.6,2.3,14.5,3c0.3,0,1,0.2,1,0.2
				c-0.4,2.3,3.4,1.1,2.8,2.9c-0.8,2-2.5,0.5-4,0.3c-4.6-0.6-9.1-2.6-13.8-1.5c-1.7,0.4-2.7-1.8-4.5-0.3c-1.1,0.9-2.9,1.1-4.2,1.8
				c-4.6,2.6-5.5,7.3-6.2,11.9c-0.4,2.2-0.3,4.5-0.2,6.8c0.1,2.2,0.2,4.5,0.9,6.5c1.4,4.4,2.7,8.9,4.4,13.3
				c2.8,7,6.8,13.3,10.5,19.8c1.3,2.3,2.5,4.6,2.6,7.3c0.1,1.8,0.3,3.7,0.7,5.5c0.4,1.5,1.1,2.9,1.6,4.3c0.1,0.3,0.3,0.6,0.5,0.9
				c0.2-0.4,0.6-0.8,0.5-1.2c-0.6-2-1.4-3.9-1.8-6c-0.6-3.4-1-6.9-1.4-10.4c-0.3-3,0.9-6,0-9c-0.1-0.2,0.6-0.8,1-0.9
				c0.4,0,1,0.4,1.1,0.8c0.8,5.5,3.1,10.7,3.4,16.3c0.2,3.8,4.1,11.4,6.9,14.8c2,2.4,3.7,4.9,5.7,7.3c1.4,1.6,3,3,4.5,4.5
				c1.4,1.4,2.7,2.7,4.1,4.1c1.5,1.5,2.9,3,4.5,4.4c1.5,1.3,3,2.8,4.8,3.6c1.9,0.9,2.2,3.7,4.7,3.7c0,0.6,0,1.8-0.1,1.8
				c-1.5,0.2-3,0.9-4.6-0.4c-4.5-3.7-9.5-7-13.9-10.8c-4.9-4.4-9.4-9.3-13.7-14.4c-1.4-1.7-2.4-3.7-3.5-5.6c-0.3-0.5-0.6-1-1-1.4
				c0,0.7-0.2,1.4-0.1,2.1c0.2,0.8,0.7,1.6,1.1,2.3c3,5.9,6.3,11.6,9.4,17.5c2,3.7,4.6,7.1,6.9,10.7c3.3,5.3,6.5,10.8,9.9,16
				c5.3,8.1,13,13,22.3,15.5c1,0.3,2.2,0.1,3.2-0.2c0.4-0.1,0.9-1.3,0.7-1.6c-2.1-3.4-1.2-7.5-2.6-10.8c-2.3-5.5-2-11.3-3.2-16.9
				c-1-4.5-2.1-9-2.9-13.6c-0.8-4.5-1.1-9.1-1.9-13.6c-0.3-1.7-1.7-3.3-1.6-4.9c0.5-10.8-2.2-21.3-3.1-31.9c0-0.4,0.7-0.9,1-1.4
				c0.4,0.5,1,0.9,1.1,1.4c0.6,4.2,1.1,8.4,1.7,12.6c0.5,3.5,0.8,6.9,1.4,10.4c0.3,1.9,0.1,3.7,1.6,5.6c1,1.2,0.8,3.9,0.4,5.7
				c-0.3,1.3-0.2,1.7,0.6,2.7c1.3,1.6,2.1,3.6,2.2,5.8c0.2,2.9,0.2,6,1.2,8.7c2.1,5.3,1.6,11.1,3.3,16.3c1.6,4.9,1.4,10,3.1,14.7
				c1.3,3.8,1.8,7.6,2.4,11.5c0.3,2.1,2.1,3.6,2,6c0,1.9-0.2,4,1.7,5.4c0.1,0.1,0.1,0.4,0.1,0.5c0.1,4.9,2.2,9.2,4,13.5
				c1.7,3.9,3.2,7.9,5.4,11.6c5.8,9.6,11.9,19,18.5,28.1c7.1,9.7,14.7,19,22.5,28.1c3.5,4.1,7.8,7.4,10.7,12
				c0.4,0.6,1.1,0.9,1.7,1.4c2.7,2.3,5.7,4.2,8.1,7c1.4,1.6,3.3,3.1,5.8,3.8c1.8,0.5,3.2,2.3,4.8,3.5c5.4,4.1,10.8,8.3,16.2,12.4
				c5.6,4.4,12,7.4,18,11.1c6.9,4.2,14.2,7.1,21.7,9.6c5,1.6,10.3,2.3,15.5,3.2c4.6,0.8,9.3,0.2,13.8,1.4c0.3,0.1,0.7-0.1,1.1-0.1
				c8.1-0.7,16.2-0.5,24.3-2c3.8-0.7,7.7-0.9,11.5-1.6c2.4-0.4,4.7-1.3,7.1-2c2.3-0.7,5.1,0.2,7.1-2c0.5-0.5,1.8-0.4,2.7-0.4
				c3.3-0.1,6.2-1.5,9.3-2.3c2.9-0.7,5.4-2.4,8.2-3.1c4.5-1.1,8.4-3.1,12.3-5.3c3.2-1.8,5.9-4.2,8.1-7.3c3.2-4.5,6.6-8.8,10-13.1
				c4.7-6.1,9.1-12.4,12.8-19.2c0.6-1.1,1.5-2.1,2.3-3.1c3.7-4.6,6.9-9.5,9.5-14.8c0.4-0.8,1.1-1.5,1.7-2.2
				c3.7-4.6,6.9-9.5,9.5-14.8c0.4-0.8,1.1-1.5,1.7-2.2c3.7-4.6,6.8-9.6,9.5-14.8c1.6-3.2,4.3-5.8,5.7-9c2.7-5.9,4.7-12.1,5.6-18.5
				c0.7-5.1,1.6-10.2,1.6-15.4c0-3,0.3-6.1,0.7-9.2c0.4-3.1-0.5-6.4,0.1-9.5c0.6-3.1-0.6-6.1,0-9c0.6-3-0.5-5.7,0-8.4
				c0.5-3.1-0.4-6.1,0-9c0.4-3.1-0.6-6.1-0.1-9c0.8-5.3-0.1-10.7,1-16.1c0.6-3.2-0.3-6.7,0-10c0.2-2.8-0.3-5.7,0.1-8.4
				c0.4-2.7-0.7-5.6,0.9-8.2c-1.2-3.2,0.2-6.3-0.1-9.5c-0.2-2.2,0.2-4.5,0.1-6.8c-0.1-2.1-0.2-4.1,0.1-6.3c0.6-3.4,0.1-7.1-0.2-10.6
				c-0.2-2.5,1.2-4.8,0.2-7.4c-0.8-2.2,0.6-4.4,0.7-6.6c0.1-1.4,0.2-2.8,0-4.2c-0.8-6.2-1.6-12.4-2.4-18.6c-0.1-0.4,0.6-1,0.9-1.5
				c0.4,0.5,1.1,0.9,1.2,1.4c1.3,9.3,2.5,18.6,3.7,27.8c0,0.4,0.1,0.7,0.1,1.1c0.2,1.7-1.9,2.8-0.9,5c0.8,1.8,0.6,4.1,0.7,6.2
				c0.1,1.9,0.4,3.9,0.1,5.8c-1,6.2,1,12.6-0.8,18.7c1.3,3.7,0,7.4,0.2,11.2c0.2,3.4,0.3,6.9-0.5,10.4c-0.2,1,0,2.1,0.2,3.2
				c0.5,3.7-0.9,7.5,0.3,11.2c-1.8,2.6,0.3,5.3-0.2,7.9c-0.5,2.5-0.5,4.9-0.1,7.4c0.1,0.4,0.1,0.7,0.1,1.1c0.3,1.4,1.1,1.2,1.9,0.7
				c1-0.7,2-1.4,2.8-2.3c5.5-6.5,9.3-13.9,11.1-22.3c0.7-3,2.1-5.9,3.8-8.4c2-3.1,3.4-6.4,4.9-9.8c2.4-5.2,3.3-10.7,4.1-16.3
				c0.1-0.5,0.1-1,0.1-1.6c-0.1-3.7-0.1-7.5-0.4-11.2c-0.3-3.8-1-7.6-1.5-11.5c-0.6-4.7-1.1-9.5-1.9-14.2c-0.5-2.7-0.3-5.3,0.2-7.9
				c1.2-6.6,1.9-13.2,2.9-19.8c0.7-4.9,1.2-9.9,1.8-14.8c0.4-3.5,1.1-6.9,0.5-10.4c-0.3-1.7-0.8-3.5-1.2-5.2c-2.2,0.3-4.9-0.2-6.4,1
				c-3.9,2.9-8.6,4.2-12.4,7.1c-1,0.7-1.7,1.8-2.7,2.5c-0.5,0.3-1.4,0.1-2-0.2c-0.2-0.1-0.3-1.1,0-1.4c1.3-1.4,0.6-2.5-0.7-3
				c-5.7-1.9-8-6.7-10.4-11.5c-1.5-3-2.9-5.9-3.4-9.2c-0.4-2.2-1.4-4.3-1.9-6.5c-0.5-2.2-0.3-4.5-1.9-6.6c-0.7-0.9-0.7-2.6,0.4-4
				c0.7-0.9-1.2-3.4,0.5-3.7c2.8-0.4,1.2,2.4,1.7,3.6c1,2.3,2.6,4.3,3.4,6.9c1.4,4.2,3,8.4,4.7,12.5c1.3,3.1,4.6,8.4,7,10.7
				c1.8,1.8,3.9,1.7,5.5,0.8c6.5-3.5,13.2-6.7,17.6-13.8c0.1-0.3-0.1-0.1-0.3,0.1c0.2,0.1,0.4,0.3,0.6,0.4c0.1-0.2,0.3-0.5,0.4-0.7
				c0,0-0.2-0.2-0.6,0.2c-1.2,0.7-2.3,0.5-2.9,1c-5.6,4.5-12.2,4-18.7,3.5c-3.4-0.2-5.7-2.3-7.5-5c-0.2-0.4-0.2-1.1,0-1.4
				c0.2-0.3,1-0.4,1.4-0.3c0.8,0.2,1.8,0.3,2.4,0.9c2.7,2.3,5.9,1.6,9,1.9c1.4,0.1,2.7-0.8,4.2,0.2c1.6,1.2,2.1-1.7,3.6-1.4
				c0-0.3,0-0.7-0.1-0.7c-1.2-0.7-2.5-1.8-3.7-1.8c-3.5,0-5.8-2.3-8.5-3.6c-2.9-1.4-5-3.8-7.2-5.8c-2.6-2.4-4.1-5.7-3.9-9.4
				c0-0.4,0.6-0.9,0.9-1c0.4-0.1,1.2,0.4,1.2,0.6c0,3.5,2.8,5.2,4.8,7.2c3.8,3.9,8.7,6.3,13.6,8.2c3.5,1.3,7.3,2.5,11.6,2.2
				c4.8-0.3,7.2-3,9.2-6.5c1.3-2.2,2-4.7,2.6-7.2c0.6-2.3,3.1-4,2.4-6.8c0-0.1,0.9-0.7,1.3-0.6c0.3,0,0.8,0.6,0.9,1
				c0.9,3.3,0.4,6.7-0.4,9.9c-1.2,4.7-2.9,9.3-6,13.2c-0.6,0.8-0.7,2-1.3,2.8c-1.7,2.2-3.1,4.8-5.7,6.4c-1.6,1-1.4,1.9,0.5,2.7
				c2.1,1,3.3,2.8,3.6,4.8c1,6.1,1.3,12.2,0.6,18.5c-0.6,5.3-1,10.6-1.5,16c-0.5,5.1-1,10.2-2,15.3c-0.6,3-0.6,6.3-0.3,9.4
				c1,9.3,2.3,18.6,3.6,27.9c1,7-1.4,13.7-1.8,20.6c-2.4,1.7-1.3,4.9-3.2,7.1c-1.6,1.9-2.3,4.6-3.5,6.9c-2.7,5-5.9,9.7-7.3,15.4
				c-0.8,3.1-2.4,6.1-4.4,8.8c-1.2,1.5-1.8,3.4-3,5c-1.2,1.5-2.8,2.7-4,4.1c-1.9,2.3-1.5,4.7,0.3,7.2c2.5,3.5,6,5.4,9.7,6.9
				c1.4,0.6,2,1,1,2c-1.5,1.6-1.3,3.2-1.1,5c0.9,8.1-1.5,15.4-5.9,22.1c-1.7,2.5-3.5,4.9-6,6.8c-1,0.8-2.1,1.2-3.1,1.8
				c-2.4,1.6-5.5,3-4.4,6.9c-1.3,7-2.2,14.2-4.1,21c-1.2,4.3-3.7,8.2-6,12.1c-3.1,5.2-6.7,10.1-9.6,15.4c-1.2,2.3-1.9,5-2,7.9
				l-8.8,9.6c-0.3,1.1-1.5,2.1-2.3,3.1c-1.6,2-3.5,3.9-4.6,6.2c-2.9,5.8-6.5,11.1-10.5,16.1c-0.9,1.2-2,2.2-2.6,3.5
				c-2.2,4.9-5.6,9.1-8.6,13.5c-3.8,5.6-8.4,10.7-12.3,16.3c-2.1,3-5.5,4.3-7.8,7c-1.2,1.4-18.5,7.8-20.4,8.3
				c-3.4,0.9-6.7,2.3-10.2,2.6c-0.1,0-0.2,0.6-0.3,0.9c-19.7,2.6-39.3,5.2-59,7.8c-0.3-0.3-0.7-0.9-1-0.9c-1.3,0-2.5,0.4-3.8,0.4
				c-1.4,0-2.7-0.5-4.1-0.5c-5.7-0.2-11.3-1.2-16.7-2.6c-10.1-2.7-19.8-7-28.8-12.3c-6.1-3.6-12.3-7.4-17.9-11.7
				c-12.7-9.9-26.4-18.6-37.5-30.5c-5-5.3-9.8-10.7-14.5-16.3c-3.3-3.9-6.5-8-9.6-12.1c-2.8-3.6-5.4-7.4-8-11.2
				c-2.3-3.4-4.9-6.6-6.9-10.1c-1.3-2.2-3.2-4-4.2-6.4c-1.3-2.9-3.2-5.6-4.9-8.3c-0.3-0.4-0.8-0.6-1.3-0.9c-0.1,0.5-0.3,1-0.3,1.5
				c0,0.7,0.2,1.5,0.3,2.2"/>
			<path id="Fill-3_1_" class="st0" d="M305.4,137.8c-0.3-2.4-0.4-4.5-0.9-6.4c-0.5-2-1.2-4-1.9-5.9c-0.5-1.3-1-2.5-1.6-3.8
				c-0.4-1,0.4-2.5-1.1-3.1c-0.1,1,0.1,2.2-0.4,3c-1,1.5-0.1,2.8-0.1,4.2c0.3,6.6,2.6,13.1,1.6,19.9c-0.6,4.1-1.2,8.1-3.3,11.7
				c-0.6,1-1.1,2.2-1.4,3.3c-0.1,0.4,0.4,1.3,0.6,1.3c1.7-0.2,3.6,0.2,5.1-1.2c3.5-3.3,4.6-7.8,6-12.1c0.2-0.5,0.1-1.3-0.2-1.6
				C305.2,144.2,306.4,140.5,305.4,137.8 M130.2,132.9c2.7-0.4,5.5-0.7,8.2-1.1c4.4-0.6,8.6-1.1,13,0.4c3,1,6.3,1.7,8.2,4.2
				c2.2,3,5.2,5.3,8.3,6.8c4,1.9,7.4,4.4,10.5,7.4c1.1,1,2.1,2.1,3.2,3.2c0.6-2-1.2-3-2.1-4.3c-1-1.6-2-3.2-3.1-4.6
				c-3-3.7-5.9-7.4-10.7-9c-2.1-0.7-4-2.3-5.9-3.5c-2.7,1.2-4.3-2.6-7-1.4c-1.3-2.3-4.1-0.9-5.7-2.4c-1.7-1.6-4.6-0.5-6.1-2.6
				c-2.8,0.7-5.1-1.2-7.3-2.1c-2.4-0.9-5-1.1-7.4-2.2c-4.3-2-8.9-3.1-13.5-4.6c-2.5-0.8-5.1-0.9-6.9,1.1c-4.5,4.8-8.9,9.7-13.2,14.6
				c-0.4,0.4-0.5,1.1-0.7,1.6c0.5,0,1.1,0.1,1.6,0c4.9-1.4,10,0,15-0.8c5.8,2.1,11.6,0.6,17.4-0.1
				C127.3,133.3,128.8,133.1,130.2,132.9 M141.6,91.4c-4.1,0.2-7.5,2.1-11,4.3c-4.4,2.8-8.1,6.3-12.1,9.6c-2.4,2-4.6,4.2-6.9,6.4
				c-0.4,0.4-0.5,1.3-0.5,1.9c0,0.1,1,0.5,1.4,0.4c2.2-0.7,4.2,0.1,6.3,0.4c1.7,0.2,3.2,1.2,4.9,1.5c9.8,1.4,19.2,4.3,28.6,7.4
				c4.8,1.6,9.8,2.9,14.5,4.7c3.1,1.2,5.5,3.3,8.1,5.1c0.2,0.1,0.7,0.1,0.7,0.1c0.1-0.3,0.3-0.8,0.1-1c-2.5-3.3-4.7-6.8-7.8-9.7
				c-2.6-2.5-5.2-4.6-8.6-5.8c-6.6-2.2-13.6-3.2-20.2-5.2c-4.4-1.3-8.6-3-12-6.2c-0.1-0.1-0.4-0.2-0.4-0.3c-0.1-0.9-0.1-1.7-0.1-2.6
				c0.6,0,1.3-0.1,1.9,0.1c3.1,0.7,6.1,2.1,9.3,2.8c6.2,1.3,12.5,1.9,18.7,3c4.3,0.8,8.6,2.2,11.7,5.2c4,3.9,8.1,7.9,10.4,13.4
				c1.5,3.7,3.3,6.9,3.4,9.8c0.2,4,0.2,4,2,6.7c0.9,1.4,2,2.8,2.8,4.3c4,7.3,7.5,14.8,8.6,23.2c0,0.3,0.3,0.6,0.4,0.9
				c0.2-0.1,0.6-0.2,0.7-0.4c0.7-0.9,1.7-1.7,1.8-2.7c0.8-5.1,2.2-10.2,1.4-15.4c-0.4-2.3-1.3-4.4-1.8-6.5c-1.6-6.3-4.7-12-8.5-16.8
				c-5-6.4-9.9-12.9-15.8-18.6c-5.8-5.5-11.1-11.5-17.6-16.2C151.7,92,147.1,90.1,141.6,91.4 M355.5,60c-0.1,0-0.2,0-0.3,0
				c-0.3-2.2-0.4-4.4-0.9-6.5c-0.4-2-1.1-4-1.9-6c-2.9-7.5-9-12.3-16.3-10.5c-3.8,0.9-7.5-0.6-11.2,0.3c-6.2-2-12.6-2.8-19-3.7
				c-4.3-0.6-8.6-0.8-12.9-0.9c-1.9,0-3.8,0.8-5.7,1.2c1.5,1.1,3,2.2,4.3,3.4c1.3,1.2,2.4,2.5,3.7,3.7c4.9,4.8,4.9,11.6,7.4,17.4
				c-1.9,3,0.2,6,0.1,9c0,1.1,0.8,2.6,0.3,3.2c-1.5,2.1-0.3,4.4-1.1,6.6c-0.8,2.2-0.2,4.8-0.3,7.3c-0.1,2.3,0.3,4.7-0.3,6.8
				c-0.8,2.6,0.5,5.2-0.2,7.3c-1.1,3.1-0.5,6,0.4,8.4c1,2.4,0.9,5,1.9,7.1c1.2,2.3,1.6,4.7,1.9,7.1c0.1,0.5,0.1,1.1,0.3,1.6
				c2.1,3.7,3.2,7.7,3.7,12c0.3,2.6,0.8,5.1,1,7.6c0.1,3.3,0.4,6.7-0.2,9.9c-0.4,2.1-0.6,2.5,1.6,2.4c1.5-0.1,1.8,0.8,1.2,1.9
				c-1.2,2.3-3.6,3.2-5.5,4.7c-0.4,0.3-0.7,0.9-1,1.3c0.5,0.1,1,0.4,1.5,0.4c4.6-0.6,9.1-1.2,13.6-1.8c0.7-0.1,1.4-0.2,2.1-0.5
				c8.1-3.6,13.9-9.9,17.9-17.4c4.6-8.5,6.6-18.2,8.7-27.6c1.2-5.3,2.3-10.6,2.8-16.1c0.4-3.9,1.3-7.7,1.9-11.6
				c0.6-4.1,0.6-8.2,1-12.3C356.5,70.4,355.7,65.1,355.5,60 M182.8,157.5c0.4-0.6,0.7-0.9,0.6-1c-0.1-0.5-0.3-0.9-0.4-1.4
				c-0.2,0.1-0.7,0.2-0.7,0.3c0.1,0.6,0.2,1.2,2.7,3.2c-0.3-0.5-0.7-1.1-1-1.6c-0.1,0.4-0.4,0.8-0.3,1.1c0.2,0.7,0.6,1.4,0.9,2.1
				C184.7,159.6,184.8,159.2,182.8,157.5 M293.1,151.2c-0.9,1.7-1.8,2-2.5,2.5c-2.2,1.6-4.3,3.5-6.7,4.7c-2.5,1.2-4,3.9-7,4.2
				c-3,3.8-7.4,6.1-9.9,10.3c-1.1,1.8-1.9,1.6-2.5-0.6c-0.5-1.5-1.1-1.9-2.2-0.8c-0.7,0.7-1.4,1.5-2.2,0.5c-0.4-0.6-0.6-1.9-0.2-2.5
				c0.8-1.4,1.9-2.7,3-4c1.2-1.3,2.5-2.5,3.8-3.7c1.1-1.1,2.4-2,3.4-3.2c3.3-3.8,7-7.4,9.7-11.6c2.4-3.7,3.8-7.9,4.3-12.5
				c0.5-4.4,0.2-8.7-0.9-12.8c-1.7-6.3-4.1-12.4-7.2-18.1c-4.3-7.9-9.5-15.3-12.9-23.7c-0.4-1-0.9-1.9-1.1-2.9c-0.6-4-1.5-8-1.5-12
				c0-3-0.1-6.2,0.8-9.2c0.6-2.1,0.2-4.5,0.4-6.8c0-0.5,0.6-1,1-1.5c0.4,0.3,1,0.5,1.1,0.9c0.4,2.7,0.9,5.4,1.1,8.2
				c0.1,2.6,1.7,5.3,0,7.9c-0.2,0.3,0.3,0.9,0.5,1.4c0.4,1.1,1,2.3,1.1,3.4c0.6,5.7,1.9,11.1,6.4,15.1c0.2,3,3,4.5,4.1,7
				c1.2,2.6,3.1,4.9,4.5,7.4c1.3,2.4,2,5.1,3.4,7.5c1.5,2.6,2.2,5.4,3.3,8.1c1.7,4.1,1.7,8.4,2.7,12.6c1,4.3,0.4,8.5-0.8,12.4
				c-1,3.2-2,6.7-4.5,9.3c-0.2,0.3-0.4,0.6-0.6,0.9c0.5,0.1,1,0.4,1.5,0.3c1.5-0.4,3.3,0.2,4.4-1.6c0.8-1.4,2.1,1.7,3-0.2
				c1-1.9,1.7-3.8,1.2-6c-0.4-1.8-0.5-3.6-0.8-5.5c-1-7.5-2.3-14.9-2.8-22.4c-0.5-6.2-3.5-11.3-6.2-16.4c-2.6-4.8-4.3-9.7-6-14.8
				c-2-6.3-2.4-12.7-3.3-19.1c-0.8-5.7,0.1-11.4,1.4-17c0.4-1.6,1.6-3.1,2.5-4.6c0.2-0.4,1.2-0.7,1.3-0.6c0.4,0.5,0.6,1.1,0.9,1.7
				c0.1,0.2,0.1,0.4,0.1,0.5c-1.8,2.9-1,6.1-1.1,9.2c-0.2,7.4,0.2,12,2.6,18.8c0.2,0.7,0.2,1.4,0.3,2.2c0.8,8.2,4.4,15.2,8.5,22.1
				c1.9,0.5,1.1,2.5,2,3.6c0.7,0.9,0.8,2.3,1.2,3.4c0.1,0.3,0.4,0.6,0.6,0.8c0.2-0.3,0.5-0.6,0.5-0.8c-1.1-5.1,0.2-10.2,0.4-15.2
				c0.2-4.1,0.6-8.2,1.2-12.3c0.4-3.3,0.2-6.6,0.1-10c0-2.8-1.3-5.5-0.2-8.5c0.3-0.9-1.4-2.6-1.5-4.2c-0.2-2.3-1.1-4.4-1.7-6.6
				c-1.4-4.8-5.3-7.2-8.4-10.5c-0.8-0.8-2.2-1.1-3-2.3c-0.3-0.6-1.5-0.9-2.3-0.9c-2.7,0.2-6-0.2-8,1.2c-2.2,1.5-5.1,0.4-6.8,2.6
				c-7.4,2.1-13.5,6.6-19,11.8c-4.9,4.6-10,9-12.8,15.5c-0.9,2.3-2.7,4.2-4,6.2c-1.7,2.4-0.8,3.8,0.1,5.6c2.5,4.6,4.2,9.7,7.4,13.9
				c2.3,3,4.5,6.1,7.1,8.8c5.7,5.9,9.3,12.9,12.4,20.5c1.9,4.7,2.6,9.5,2.6,14.2c0,6-2.7,11.6-7.6,15.6c-4.2,3.5-8.9,6.4-13,9.9
				c-4.9,4.1-10.7,7.5-12.9,14.1c-2.4,0.5-1.6,4.3-4.4,4.4c-0.3,1.9-0.8,3.7-0.9,5.6c-0.1,1.4,0.4,2.9,0.5,4.4
				c0,0.4-0.3,1.1-0.6,1.2c-0.4,0.1-1.1,0-1.4-0.3c-1.5-1.3-2.1-3.7-4.8-3.7c-0.1,0-0.3-1-0.2-1.4c2.6-6.2,3.2-8.8,2.3-14.1
				c-0.5-3.3-0.4-6.7-2.2-9.9c-0.8-1.4-1.6-3.8,0-5.7c0.1-0.1,0.1-0.3,0.1-0.5c-0.4-7.6,0-15.3-2-22.6c-2.1-7.6-5.4-14.8-11.1-20.6
				c-5.3-5.3-10.7-10.7-15.8-16.1c-4-4.3-7.8-8.8-11.7-13.2c-1.4-1.6-2.5-3.4-4.1-4.7c-1.4-1.1-1.2-2.5-1.4-3.9c0-0.3,0.5-0.9,0.9-1
				c0.4-0.1,1,0.3,1.2,0.6c0.5,0.9,0.7,2.1,1.4,2.7c5.7,4.9,10.9,10.4,15.9,16.1c2.2,2.5,5.1,4.5,7.5,6.9c4.2,4.2,8.7,8.2,12.4,12.8
				c3.4,4.2,5.5,9.3,7.6,14.4c2.4,5.8,2.5,12,3.4,18c0.3,1.8-0.3,3.8-0.3,5.7c0,1.7,0.1,3.4-0.3,5.2c-0.4,2.2,1.4,5.1,0.5,7
				c-1.3,2.9,0.7,3.7,1.8,5.3c0.5,0.7,1.3,0.9,1.5-0.1c0.4-2,2.2-2.8,3.3-4.3c0.5-0.7,1.3-1.6,1.1-2.3c-0.8-3.5,1.6-6.3,2.3-9.4
				c0.8-3.6,1.8-8.9,1.7-11.7c-0.1-1.9,0.5-3.8,0.3-5.7c-0.8-7.9-4.6-14.4-9.8-20.1c-2-2.2-4.4-4.2-6.7-6.1
				c-6.5-5.7-13.1-11.2-19.5-17c-3-2.8-5.7-6.1-8.3-9.3c-0.9-1.1-1.6-2.7-2-4.1c-0.3-1.2-0.8-2-1.7-2.5c-1.6-0.9-1.1-2.5-1.4-3.9
				c0-0.2,0.7-0.7,1.1-0.8c0.2-0.1,0.9,0.3,0.9,0.3c-0.6,2.8,2.8,3.4,3.3,5.8c0.4,1.9,3.1,3.2,4.4,5.1c1.3,2.1,3.6,3,4.9,4.8
				c1.9,2.6,4.5,4.1,6.8,6c5.4,4.5,11.2,8.7,16.2,13.6c4.9,4.8,9.5,9.8,12.6,16.2c3.2,6.5,3.9,13,3.2,19.8c-0.2,1.7-0.6,3.4-0.9,5
				c-0.3,1.5-0.4,3.1-0.9,4.5c-0.9,2.4-1.8,4.9-3.1,7c-0.8,1.3-1.4,2.4-1,4c0.1,0.5-0.2,1.1-0.4,1.6c0.7-0.1,1.6,0.1,2.1-0.2
				c1-0.7,1.7-1.7,2.7-2.5c5.7-5,11.5-9.8,17.4-14.6c1.1-0.9,1.9-2.3,2.4-4c2.6-8.2,2.7-9.1-0.2-18.2c-1.8-5.6-4.2-10.9-7.7-15.5
				c-2.3-3-5.1-5.7-7.5-8.6c-4.2-5-7.7-10.4-10.1-16.5c-3.6-9.2-10.7-14.5-19.4-18.1c-3.7-1.6-7.7-2.6-11.6-3.8
				c-0.5-0.1-1-0.1-1.6-0.1c-5.5,0.7-11,1-16.3,2.3c-4.1,1-7.9,3.1-11.7,5.1c-5.3,2.8-10.4,5.9-14.8,10.1c-1.8,1.7-4.2,2.9-6.2,4.4
				c-1.1,0.9-0.8,1.7,0.6,2.2c2.9,1,5.9,1.5,8.7,3c4.8,2.5,8.9,5.7,12.7,9.2c5.2,4.8,9.6,10.4,14.4,15.7c1.8,2.1,4.3,3.9,5.3,6.3
				c1,2.7,4.5,3.6,4.4,6.9c3.5,3.4,5.2,7.9,7.3,12.3c1.7,3.5,3.2,6.9,3.6,10.9c0.1,1.5,0.3,2.9,0.6,4.4c1.4,7.4-1.4,13.9-4,20.5
				c-3.5,2.8-3.8,6.8-4.3,10.9c-0.3,3.1-2,6.1-3.3,9.1c-0.3,0.7-1.1,1.4-1.9,1.7c-0.5,0.3-1.4,0.1-2-0.2c-0.2-0.1-0.2-1-0.1-1.4
				c0.5-1.6,1.3-3.2,1.7-4.8c0.6-2.5,1.4-5,0.9-7.7c-0.5-2.7-0.6-5.5-1.2-8.2c-0.5-2.6-1.3-5.1-2.1-7.6c-0.4-1.1-1-2.2-1.5-3.2
				c-0.1-0.2-0.5-0.4-0.7-0.5c-0.1,0.3-0.3,0.7-0.3,1c0.3,2.4,0.5,4.8,0.9,7.1c1.5,8.4-0.6,16.6-2.4,24.7c-0.5,2.3-0.9,4.7-2.4,6.7
				c-0.3,0.5-0.9,0.8-1.4,1.2c-0.3-0.6-0.9-1.2-0.9-1.8c0.3-3.4,0.2-7,1.3-10.2c0.8-2.5-1.2-5,0.8-7.2c-0.1-3.9-0.2-7.8-0.4-11.7
				c-0.5-7.9-6.2-17.5-14.5-20.8c-3.4-1.4-6.1-3.8-8.9-5.9c-1.8-1.3-3.4-2.8-5.3-4c-1.3-0.8-2.8-1.8-4.2-1.9
				c-3.3-0.2-6.7-0.1-10.1,0.2c-4.6,0.4-9.1,1.1-13.7,1.8c-5.6,0.8-11.1-0.2-16.6-0.7c-3.1-0.3-6.3-0.3-9.4-0.5
				c-3.5-0.2-6.7,0.3-10.1,0.4c-1.4,0.1-2.3,0.7-3.1,1.8c-3.1,4.1-6.2,8.2-9.4,12.2c-0.6,0.8-1.5,1.3-2.2,1.9
				c1.3,0.6,2.2,0.2,3.4-0.6c1.5-1.1,3.4-1.6,5.1-2.3c1.8-0.7,3.6-1.2,5.4-1.8c5.6-2.1,11.3-4,17.4-4.6c1.5-0.1,3-1.7,4.3-1.5
				c3.3,0.7,6.4,0.2,9.5-0.3c3-0.4,6,1.1,9-0.1c10.9,2,21.7,3.8,30.7,11.3c5.5,4.5,10.4,9.3,13,16c0.2,0.5,0.9,0.7,1,1.2
				c0.9,3.8,1.9,7.6,2.6,11.4c0.8,4.6-0.1,8.9-2.1,13.1c-0.4,0.8,0,2,0.1,3c0,0.3,0.7,0.4,0.8,0.7c0.3,0.6-0.8,5.1-1.2,5.2
				c-2.6,0.4-1.4-2-2.1-3c-1.5-2.2-2.4-4.9-3.4-7.4c-2.3-5.8-5.3-11-9.1-15.9c-1.2-1.5-2.2-3.2-1.9-5.3c0-0.3,0.4-0.6,0.7-0.7
				c0.3-0.1,0.9-0.1,1,0c4,4.9,8.9,9.1,11.3,15.2c0.4,1.1,1,2.2,1.5,3.2c0.1,0.3,0.5,0.4,0.7,0.6c0.1-0.3,0.4-0.7,0.3-1
				c-0.8-5.9-0.8-12-3.5-17.4c-1.8-3.6-4.2-7.2-7.2-9.9c-4.1-3.9-8.7-7.6-14.3-9.1c-3.1-0.9-6.1-2-9.3-2.8c-3.2-0.8-6.6-0.1-9.5-1.8
				c-0.1-0.1-0.4,0-0.5,0.1c-7.1,1.3-14.6-0.4-21.5,1.8c-7.4,2.3-15.5,2.8-22.2,7.2c-4.6,0.1-7.8,3.5-11.7,5.2
				c-3.7,1.6-6.8,4.5-10.3,6.5c-1.2,0.7-2,1.3-2.2,2.6c-0.8,0.3-2.2-0.3-2,1.6c0,0.1,0-0.1,0-0.2c-0.3,0.1-0.6,0.2-0.8,0.4
				c-0.1,0.1,0.2,0.4,0.3,0.6c0.2-0.2,0.4-0.4,0.6-0.8c0.8-0.5,2.1,0,2-1.6c3.2-1.5,6.5-3,9.7-4.6c5.5-2.8,11.1-5.2,17.3-5.6
				c1.5-0.1,2.9-0.5,4.4-0.5c2.5,0,4.8-1.4,7.4-0.3c2.3,1,4.9-1.4,7.2,0.5c5.6-0.7,10.9,1,16.2,2.3c3.3,0.8,12.8,4.5,15.2,6.3
				c3.1,2.3,6.2,4.6,9.2,7.1c0.9,0.7,1.6,1.8,2.3,2.8c0.5,0.6,1.1,1.9,1,2.1c-1,0.9-2.1,0.9-3.4,0.1c-2.6-1.8-5.3-3.6-8.1-5.2
				c-5.3-3.1-15.2-7.1-23.2-7.8c-4-0.3-8.2-0.1-12.2-1.4c-1.1-0.4-2.5,0.4-3.8,0.4c-2.4,0.1-4.9,1.5-7.4-0.1c-0.4-0.2-1.1,0-1.6,0.2
				c-2.4,0.7-4.7,1.3-7,2c-2.3,0.7-5.2-0.5-7.1,2c-4.7,0.3-8.5,2.8-12.4,5.1c-4.3,2.5-8.3,5.3-12.4,8c-3.4,2.3-6,5.6-10,7.2
				c-1.6,0.6-2.8,2.8-3.7,4.5c-3.8,7.5-6.2,15.5-7.6,23.7c-0.4,2.2-0.6,4.3-1.6,6.5c-0.7,1.6,0.4,3.9,0.6,5.9c0,0.3-0.6,0.9-1,0.9
				c-0.4,0-0.8-0.4-1.2-0.7c-0.1-0.1-0.1-0.3-0.1-0.5c-0.1-3.9-2.1-7.7-0.4-11.7c0-10.7,3.7-21.8,9.1-31.8
				c4.9-9.2,11.8-16.9,20-23.2c2.8-2.1,5.1-5.2,9-5.7c2-2.6,4.6-5,5.9-7.9c1-2.2,2.4-4,3.8-5.8c1.6-2.2,3.1-4.3,3.8-6.9
				c0.3-1.1,1-2.6,1.9-3.1c2.4-1.3,3.5-3.5,5-5.5c4.4-5.7,9.2-10.9,14.2-16c1.7-1.7,3-3.7,4.4-5.7c2.1-2.8,5-4.9,7.4-7.5
				c2.8-2.9,5.6-5.8,8.6-8.5c4.4-3.9,9.2-7,14.4-9.7c0.3-0.2,0.6-0.5,0.9-0.5c5.8-0.5,9.4-4.2,12.9-8.3c1.6-2,3.7-3.7,5.9-5.1
				c1.6-1,3.2-1.9,4.5-3.4c1.3-1.4,3.1-1.9,4.6-3.2c2.6-2.2,6.2-3.5,9.4-4.9c3.5-1.6,7-3,10.8-3.9c1.9-0.5,3.9-1.6,6-1.6
				c8.5-0.3,16.8,0.9,24.5,4.8c3.5,1.7,7.1,3.1,10,5.8c0.7,0.6,1.8,1,2.1,1.7c0.5,1.2,1.1,2.4,2.3,2.2c0.5-0.1,0.7-1.8,1.2-2.7
				c1.7-3.1,3-6.4,5.1-9.1c3.9-5.2,8-10.3,12.5-14.9c2.1-2.1,4.3-4.5,7.5-5.3c2.9-3.5,7.3-4.4,11.1-6.3c2.8-1.4,5.6-2.7,8.8-3
				c4.2-0.4,8.4-1.1,12.6-1.6c2.3-0.3,4.6-0.3,6.9-0.4c2.1-0.1,4.5-0.9,6.3-0.1c2.2,0.9,4.7-0.6,6.6,1.2c6.4-0.4,12.6,1.5,18.8,2.6
				c0.3,0.1,0.6,0.3,1,0.3c3.9-0.1,7.9,0.1,11.7-0.5c8-1.2,13.7,2.3,18.2,8.3c1.1,1.4,1.7,2.8,3.5,3.9c2,1.2,3.6,1.4,5.6,1
				c6-1.1,11.7,0.4,17.5,1.5c6.4,1.2,11.9,4.2,16.9,7.6c4.5,3.1,7.8,8.1,10.3,13.3c2,4.2,3.5,8.4,3.9,13c0.3,3.1,0.6,6.2,1.2,9.3
				c1.4,6.7,0.2,13.3-1.2,19.7c-2.3,10.4-6.1,20.3-11.6,29.6c-3,5.1-5.7,10.3-9.5,14.8c-5.7,6.6-11.3,13.3-19.6,16.9
				c-1,2.1-3.2,2.8-5,3.6c-2.3,1.1-4.6,2.6-7.4,2.5c-1.9,0-3.7,0.2-5.3,2.2c-0.8,1-3.2,0.8-5,1c-0.4,0-0.9-0.6-1.3-0.9
				c0.5-0.3,0.9-0.6,1.4-0.9c0.7-0.5,1.4-1,2.1-1.5c0.6-0.4,1.1-1.2,1.6-1.2c3.9,0.1,7-2.1,10.3-3.6c5.6-2.6,15.8-10.5,18.6-14.6
				c0.2-0.3,0.1-0.8,0.1-1.2c-0.5,0.1-1,0.2-1.4,0.4c-1,0.7-1.4,3.4-3.1,1.8c-1.3-1.3,1-2.3,1.5-3.6c0.1-0.2,0.2-0.3,0.3-0.4
				c3.8-3.5,4-8.4,4.5-13c0.4-4.4,1.1-8.8,1.9-13.2c2.2-1.6,1.3-4.6,2.9-6.7c1.4-1.8,1.7-4.4,2.4-6.7c1.4-4.9,2.4-9.9,3.1-15
				c1.2-9.4-0.4-18.6-1.5-27.8c-0.2-1.8-0.5-3.6-0.7-5.5c0-0.2,0.7-0.6,1.2-0.8c0.2-0.1,0.8,0.2,0.9,0.4c0.2,0.7,0.2,1.4,0.3,2.2
				c0.1,0.7-0.1,1.9,0.3,2.1c4.1,2.5,2.9,6.8,3.4,10.4c0.5,3.5,1.7,6.9,0.6,10.7c-0.7,2.3,0.1,5.2-0.1,7.8
				c-0.7,8.8-2.4,15.4-6.5,24.6c-2.1,4.8-3.8,9.9-3.9,15.3c-0.1,5.1-1.3,9.9-4.1,14.2c-0.3,0.5-0.3,1.3-0.5,1.9
				c0.5-0.2,1.1-0.4,1.4-0.8c2.8-3.6,6.2-7,8.3-11c4-7.8,8.5-15.4,11.2-23.8c1.6-5,2.2-10.3,4.1-15.2c0.8-2.1-1-4.6,0.6-6.7
				c-0.2-4.6-0.2-9.3-0.5-13.9c-0.5-5.6-3.5-10.4-4.5-15.7c-4.5-6.2-8.7-12.5-16.5-15.3c-5.2-1.8-10.2-3.7-15.7-4.5
				c-0.7-0.1-1.5-0.2-1.9-0.7c-1.2-1.3-2.6-0.9-4-0.8c-1.9,0.1-3.9,0.1-5.8,0.2c-0.3,0-1,0.3-0.9,0.4c0.9,4.2,0.1,8.7,2.7,12.5
				c0.7,1.1,1.4,0.9,2.2-0.4c0.3-0.5,0.7-1,1.1-1.4c0.4,0.5,1,0.9,1.1,1.5c0.1,1-0.2,2-0.3,3.1c-0.1,0.9-0.4,2.3,0,2.5
				c1.9,1.3,1.2,3.3,1.7,5c0.3,1.2,0,2.4,1.2,3.4c0.6,0.5,1,2.3,0.6,3c-1.2,2.2-0.4,4.2-0.2,6.3c0.2,2,1.2,4.3,0.6,5.9
				c-0.8,2.3,0,4.2-0.2,6.3c-0.2,1.8-1.6,3.7-1.3,5.4c0.7,5.1-2.7,9.2-3,14c-3,4.1-3.7,9.2-5.5,13.8c-2.2,5.5-3,11.5-3.5,17.5
				c-0.5,5.7-2.8,10.8-6.9,15c-1.5,1.6-3.7,2.2-8.1,2.7c-0.5,0-1,0.3-1.4,0.7c-1.4,1.3-3.2,2.5-4,4.1c-1.7,3.2-4.6,3.2-7.4,3.5
				c-0.3,0-0.9-0.5-1-0.9c-0.1-0.4,0.4-1.2,0.6-1.2c2.9,0.2,4.3-1.7,5.5-3.7c1.9-3.4,5.3-4.5,8.5-5.7c4.9-1.9,7.6-5,8.8-10.1
				c1-4.3,1.6-8.7,2.2-13.1c0.2-1.5,0.1-3.2,0.6-4.6c2.1-5.9,4.6-11.7,6.6-17.7c2.4-7.3,5.2-14.4,4.9-22.4c-0.1-3-0.1-6-0.2-9
				c0-1.7,1.3-3.7,0.9-5.1c-0.6-1.7-1.2-3-0.4-4.9c1.1-2.7-2.1-4.1-2.8-6.3c-0.1-0.2-0.5-0.3-0.7-0.5c-0.1,0.3-0.4,0.7-0.3,1
				c1.3,3.9-0.1,7.8,0.3,11.7c0.3,3.3-0.5,6.9-1,10.2c-1.5,9.2-2.5,18.6-4.9,27.6c-0.7,2.6-0.7,5.5-1.8,7.9
				c-1.1,2.5-0.3,5.7-2.8,7.7c0.1,5.1-3,9.1-5,13.4c-4,8.9-10.1,15.8-19.3,19.6c-0.5,0.2-0.8,0.8-1.2,1c-4,0.9-7.9,2.3-12,2.6
				c-4.3,0.3-8.7,0.1-13-0.7c-2.6-0.5-5.6,0.2-7.9-1.9c-0.2-0.2-1.3,0.4-1.7,0.9c-3.3,4.6-7.9,6.4-13.3,6.5c-0.5,0-0.9-0.7-1.4-1
				c0.3-0.4,0.6-1,0.9-1c2.1-0.3,3.5-1.3,2.9-3.6c-0.5-2,3.3-1.3,2.1-3.6c1.5,0.1,2-2.8,4.1-1.3c0.4,0.3,2.2-0.4,2.4-0.9
				C290.8,158,293.4,155.8,293.1,151.2c-0.1-0.5-0.2-0.1-0.3,0.3c0,0.3,0.1,0.7,0.1,1c0.3-0.3,0.9-0.6,0.9-0.9
				C294,151.3,293.6,150.8,293.1,151.2"/>
			<path id="Fill-5_1_" class="st0" d="M460.7,211.9c-0.6,0-1.1-0.1-1.6,0c-0.1,0-0.2,0.5-0.3,0.7c0.5,0.1,1,0.2,1.5,0.1
				C460.4,212.8,460.5,212.3,460.7,211.9 M530,273.4c-0.1-0.2-0.2-0.4-0.2-0.4c-0.4,0.2-0.9,0.2-1.1,0.5c-2.1,3.1-3.3,7-6.9,9
				c-0.2,0.1-0.1,0.5-0.2,0.8c0.3,0.1,0.7,0.2,1,0.2C526.4,282.8,530.1,277.7,530,273.4 M530.8,220.7c0-0.1-0.3-1.4-0.8-2.5
				c-0.2-0.4-0.8-0.7-1.3-1c-0.2,0.4-0.4,0.8-0.5,1.2c-0.4,1.5-0.3,3.2-1.1,4.3c-1.6,2.3,2.3,2.7,1.3,4.7c-0.5,0.9-0.8,2-0.7,2.9
				c0.1,0.7,1,1.3,1.6,1.9c0.2-0.5,0.4-1,0.6-1.5C530.6,228.9,531.2,223.4,530.8,220.7 M517.9,190.5c-0.4-2.7-0.7-5.5-1.1-8.2
				c-0.1-0.5-0.8-0.8-1.2-1.3c-0.3,0.3-0.9,0.7-0.9,1c-0.1,3.6-4.1,5.7-3.8,9.5c0,0.4-0.9,1.1-1.5,1.4c-4,2.1-6.5,5.8-8.5,9.5
				c-1.8,3.2-3.3,6.6-5.6,9.5c-1.6,2-1.3,3,1.3,3.8c3.9,1.2,7.6,0.6,11.3-1c1.9-0.8,3.8-1.7,5.7-2.2c0.5-0.1,1.2,1.3,2-0.1
				c0.7-1.3,2.5-8.2,2.9-9.7C519.5,198.6,518.4,194.6,517.9,190.5 M455,196.8c-3.5,0.5-6.9,0.9-10.4,1.4c-0.4,0.1-0.8,0.5-1,0.9
				c-0.1,0.2,0.1,0.8,0.3,1c2.3,1.7,4.3,3.7,7.2,4.6c4.4,1.4,8.7,2.7,13.4,3.2c3.4,0.3,6.9,1.1,10.3,0.7c2.9-0.3,5.9-1.1,8.7-2.2
				c2.8-1.1,5.4-2.8,7.9-4.5c3-2,5.9-4.1,8.5-6.5c3.9-3.6,8.8-6.4,10.7-11.9c0.7-2.1,2.3-3.9,3.4-5.9c0.4-0.7,0.9-1.6,0.8-2.4
				c-0.5-6.3-2.3-12.4-1.3-18.8c0.1-0.4-0.4-0.9-0.6-1.4c-0.5,0.5-1.2,0.9-1.3,1.5c-0.5,2.2-0.6,4.4-1.2,6.5
				c-2.8,9.1-8.1,16.7-15.1,23c-2.8,2.5-5.5,5.1-9,6.8c-2.3,1.1-4.4,2.8-7,3.1c-2.7,0.3-4.8,2.7-7.6,2.1c-1.7-0.4-1.6,2.7-3.7,1.3
				c-1.1-0.7-3.1-0.1-4.6-0.2c-0.4,0-0.9-0.5-1-0.9c-0.1-0.4,0.3-1.1,0.6-1.2c1.2-0.3,2.5-0.4,3.8-0.6c1.2-0.2,2.5-0.3,3.7-0.7
				c0.5-0.2,0.8-1.1,1.2-1.7c-0.5-0.1-1-0.2-1.5-0.3c-2.3-0.4-3.8,1.6-5.9,1.9C461.1,196,458,196.4,455,196.8 M484.1,213.2
				c4.4,0,6.8-2.8,9-6c0.2-0.3,0.2-0.6,0.3-1c-0.4,0-0.7,0.2-1.1,0.1c-1.8-0.1-2.6,1.5-4.1,2.1c-1.6,0.7-2.5,2.5-4.5,2.3
				c-1.6-0.1-2.1,1-2.7,2.1c1,0.1,2.1,0.2,12.9-7.8c-0.2,0.2-0.4,0.4-0.6,0.6c0.2,0.1,0.4,0.3,0.6,0.4c0.1-0.2,0.3-0.5,0.4-0.7
				C494.2,205.4,494,205.3,484.1,213.2 M478.6,192.3c-0.6-0.4-0.9-0.7-1-0.6c-0.5,0.1-0.9,0.3-1.4,0.4c0.1,0.2,0.2,0.7,0.3,0.7
				c0.6-0.1,1.2-0.2,2.1-2.3c-0.2,0.2-0.4,0.4-0.6,0.6c0.2,0.1,0.4,0.3,0.6,0.4c0.1-0.2,0.3-0.5,0.4-0.7
				C479,190.7,478.7,190.6,478.6,192.3 M441.5,141.3c-10.4,19.8-11.1,20.1-11.8,19.9c-0.5-0.1-1.3-0.9-1.2-1.2
				c0.3-1.2,0.7-2.4,1.3-3.3c4-5.8,6.2-12.4,9-18.7c1.1-2.3,2.4-4.7,2.7-7.1c0.4-2.6,2.6-4.6,2-7.4c2.4-2.7,2.3-6.6,4.9-9.3
				c1.1-1.2,1.5-3.1,2.2-4.6c-2-1.6-1.2-4.3-2.4-6.3c-1.9-3.2-3.4-6.7-5.3-9.8c-2.8-4.7-5.9-9.1-7.6-14.5c-2.2-6.9-2.7-8.9-0.6-14.1
				c0.2-0.5,0.9-0.8,1.4-1.2c0.3,0.4,0.7,0.8,0.8,1.2c0.6,3.5,0.6,7.1,2.5,10.3c0.8,1.3,1,3.1,2,4.1c2.1,1.8,2.5,4.5,4.1,6.5
				c1.4,1.9,3.9,3.6,3.9,6.5c3.2,2.2,3.5,6.2,5.6,9.1c0.2,0.3,0.4,0.5,0.7,0.7c0.1-0.3,0.4-0.7,0.4-0.9c-1.2-5.1-0.2-10.5-3-15.3
				c-0.4-0.7-0.5-1.8-0.3-2.7c0.1-0.6,0.7-1.3,1.2-1.7c0.1-0.1,0.8,0.4,1.2,0.6c1.2,0.8,1.9,1.8,2.3,3.4c1.1,4.5,1.9,5.3,6.1,6.6
				c4.2,1.3,7.2,4.1,10,7.2c0.6,0.6,1.2,1.4,1.4,2.1c1,5.7,3.6,11.1,3.3,16.9c-0.6,9.6-1.5,19.1-5.2,28.1c-1.4,3.4-3,6.7-5,9.7
				c-2.9,4.6-5,9.6-7,14.5c-4.4,10.7-11.9,17.8-22.7,21.6c-0.6,0.2-1.2,0.7-1.7,1.1c-0.3,0.2-0.4,0.6-0.7,0.9
				c0.3,0.1,0.6,0.4,0.9,0.4c1.5,0.2,3.1,0.6,4.6,0.4c1.3-0.2,2.5-1.3,3.8-1.5c4.9-0.8,9.8-1.5,14.7-2c4.6-0.5,8.7-2.7,13-4
				c1.3-0.4,0.6-0.8,0.1-1.3c-0.8-0.7-0.9-1.5,0.2-2.1c0.8-0.3,1.6-0.8,2.4-0.9c7.1-1.3,9.6-7.7,13.3-12.5c1.6-2,2-5.2,1.7-7.9
				c-0.6-6-1.5-12-2.4-18c-0.1-0.5-0.8-0.9-1.2-1.4c-0.3,0.5-0.9,0.9-1,1.5c-1.3,6.1-3.8,11.8-6.7,17.1c-1.8,3.3-3.2,6.8-6.4,9.4
				c-2.6,2.1-4.5,5.1-6.9,7.4c-1,1-2.6,1.6-4,2.3c-0.3,0.1-1.2-0.2-1.3-0.5c-0.2-0.4-0.1-1.2,0.2-1.4c3.4-2.9,5.9-6.7,8.7-10.1
				c5.4-6.7,10.7-17.2,12.5-27.7c0.3-1.7,1.2-3.2,1.5-4.9c0.3-1.5,0.9-3.5,0.2-4.4c-1.1-1.3-0.7-2.8-1.3-4c-2.4-4.4-2-9.4-2.9-14.2
				c-0.4-2-0.6-4-0.8-6c-0.1-0.7,0.2-1.5,0.4-2.2c1,0.6,2.3,1,2.8,1.8c0.9,1.8,1.4,3.9,2,5.9c0.8,2.7,2.5,5.2,2.2,8.1
				c2.4,3,2.5,7.1,4.6,10.3c0.9,1.2,1.4,2.8,1.7,4.3c0.2,1.7,1.4,2.9,1.7,4.3c1.2,6.2,3.5,12.1,3.6,18.5c0.1,4.3-0.6,8.5-2.5,12.5
				c-0.2,0.4-0.1,1-0.1,1.5c0.5-0.3,1-0.5,1.5-0.8c2.8-2,6-6,7.2-9c0.8-2.2,1.5-4.6,2.5-6.7c0.8-1.6,0.7-3,0.5-4.6
				c-0.3-1.8-0.5-3.6-0.7-5.5c-0.7-5.5-2.9-10.3-6.7-14.3c-1.1-1.1-0.9-2.3-1.1-3.5c-0.1-0.3,0.4-1,0.7-1.1c0.4-0.1,1,0.2,1.3,0.5
				c3.6,4.1,6.5,8.7,9.1,13.5c1.1,2,0.4,4.4,2.2,6.4c1,1,0.7,3.4,2.6,4.4c0.4,0.2,0.5,0.9,0.6,1.4c0.8,2.9,1.7,5.8,2.2,8.7
				c0.6,2.9,0.8,5.8,1.2,8.7c0.1,0.8,0.5,1.7,0.8,2.5c0.5-0.3,1.2-0.9,1.4-0.8c1,0.6,2.4,1.2,1.1,2.9c-2.6,3.2-0.5,6.5,0.1,9.7
				c3.5,1.9,2.9,5.5,2.6,8.2c-0.4,4.7-0.8,9.5-2.2,14.1c-1.4,4.6-1.4,9.6-2.9,14c-3.2,9.4-5.9,19-11.6,27.5
				c-2.5,3.7-5.4,6.8-8.7,9.4c-2.6,2-5.4,4.3-9.2,4.5c-0.5,0-0.9,0.4-1.4,0.6c0.5,0.5,1.1,0.9,1.6,1.4c0.1,0.1,0.3,0.1,0.5,0.1
				c3.5-0.1,7.3,0.5,10.6-0.5c4-1.2,8.6-1.4,12-4.7c3.2-3.1,6.4-6,6.8-10.9c0.1-1.3,1-2.5,1.3-3.8c1.1-3.9,2.2-7.8,3.1-11.8
				c0.2-1-0.3-2.2-0.3-3.2c-0.1-3.2-0.6-6.4,0-9.5c0.6-3.1,2.2-6.1,3.5-9.1c0.1-0.3,1.2-0.5,1.4-0.3c1.1,1,2.5,1,3.6,2.5
				c3.8,5.3,5.2,10.9,3.6,17.2c-0.9,3.6-2.2,6.9-4.5,9.9c-1.1,1.3-1.5,3.2-2.6,4.5c-2.3,2.7-1.3,5.3-0.1,8c1,2.2,2.5,4.2,2.6,6.8
				c0,0.9,0.4,1.7,0.6,2.6c0.6-0.6,1.2-1.1,1.7-1.7c1.5-1.5,3-3,4.5-4.4c0.2-0.2,1.4,0.4,1.5,0.8c0.6,1.8-0.3,3.6-1.2,4.9
				c-2.9,3.9-3.8,8.2-3,12.9c0.5,2.8-0.7,5.3-1.9,7.4c-1.2,2.1-2.6,4.3-5.5,5.7c-2.9,1.4-5.6,2.5-8.7,3.2
				c-8.1,1.6-15.2,1.9-23.8-0.3c-5.6-1.4-9.8-5.2-12.7-10.3c-0.1-0.2-0.1-0.9,0.1-1c0.4-0.3,1.1-0.6,1.4-0.4
				c1.8,1.1,3.6,2.4,5.4,3.6c2.9,2.1,6.5,2.4,9.8,2.8c4.7,0.6,9.6,0.9,14.4-0.4c0.8-0.2,1.8-0.7,2.1-1.3c2.6-4.7,6.1-9,7.7-14.3
				c0.5-1.8,1.3-3.6,1.4-5.4c0.1-2.1-0.3-4.2-1.8-6c-0.8-1-1.3-1-2.1-0.2c-0.4,0.4-0.7,0.8-1,1.3c-3.3,5.1-8.3,7.3-14.1,8.1
				c-4,0.6-8,1-12,1.6c-3.6,0.5-6.9-0.4-10-1.9c-3.8-1.8-7.5-3.6-11.1-5.6c-2.4-1.4-4.1-3.7-5.6-6.1c-1.9-3-4.2-5.8-6.2-8.8
				c-2.5-4-5.5-7.2-10.1-8.8c-0.4-0.1-0.5-1.2-0.7-1.9c2.4-0.7,4.4-0.1,6.5,1.4c4.5,3.2,8,7.3,10.9,12c2.1,3.4,4.9,6.4,8.3,8.8
				c1.8,1.3,3.7,1.5,5.9,1.5c6.5,0,11.9-3.1,16.6-6.9c3-2.4,5.2-6.1,7.2-9.5c4.1-7,6.1-14.8,8.8-22.4c0.1-0.3,0.2-0.5,0.2-0.8
				c-0.5,0-1.3-0.3-1.5-0.1c-3.1,3.5-7.8,5.1-10.8,8.8c-0.2,0.3-0.9,0.2-1.4,0.4c-0.1-0.6-0.5-1.4-0.3-1.8c0.7-1.3,1.6-2.4,2.4-3.6
				c0.1-0.2-0.1-0.7-0.3-1c-0.2-0.2-0.7-0.4-0.9-0.3c-5.3,2.6-11,4-16.8,4.3c-4,0.2-8,0-11.9-0.4c-1.9-0.2-2.8-1.5-4.1-2.3
				c-0.2-0.1-0.3-1.1-0.1-1.4c0.2-0.3,0.9-0.4,1.4-0.4c0.3,0,0.6,0.6,0.9,0.6c6-1.4,12.4,1.6,18.2-2c1.2-0.8,3.5-1.3,5.1,0.2
				c0.1,0.1,1.1-0.5,1.5-0.9c0.1-0.1-0.4-0.8-0.7-1.3c0-0.1-0.4,0.1-0.5,0c-3.3-3-7.1-2.7-11.1-1.9c-1.3,0.3-2.7-0.1-4.1-0.2
				c-5.5-0.6-10.9-2.2-16.5-1.5c-1.3,0.2-2.7-0.5-4.1-0.5c-1.3,0-2.9,0.9-3.8,0.4c-2.1-1.2-4.1-1.7-6.5-1.6c-0.1,0-0.4-0.6-0.4-0.9
				c0-0.3,0.1-0.7,0.4-0.9c0.3-0.2,0.7-0.1,1-0.2c1.6-0.3,3.2-0.6,4.7-1c-0.8-0.4-1.6-0.8-2.4-1.2c-0.8-0.4-1.6-0.7-2.3-1.1
				c-3.6-2.1-7.1-4.3-9.7-7.6c-1.4-1.8-2.7-3.3-5.3-2.7c-0.7,0.2-1.6-0.7-2.4-0.7c-1.7,0-2.8-0.7-2.9-2.3c0-0.3,1.8-0.6,2.7-1
				c0.5-0.3,0.9-0.8,1.3-1.2c-0.5-0.3-1-0.7-1.6-0.9c-0.5-0.1-1.1,0.1-1.6,0.2c-0.3,0-0.8,0.1-1-0.1c-0.2-0.2-0.4-0.6-0.4-0.9
				c0-0.3,0.1-0.8,0.3-0.9c0.5-0.2,1-0.3,1.6-0.3c6.8-0.3,11.4-4.4,16.2-8.6c4.8-4.2,6.6-9.6,8.6-15.1c0.5-1.5,1.4-2.8,2-4.2
				c0.2-0.3,0.1-0.8,0.1-1.2c-0.5,0.1-1.2,0.1-1.4,0.5c-2.1,2.6-4.2,5.1-6,7.9c-2.4,3.7-6.1,5.8-9,8.9c-1.1,1.2-3,1.7-4.6,2.1
				c-2.3,0.5-4.7,0.8-7.1,1c-0.8,0.1-1.8-0.1-2.4-0.6c-0.9-0.7-2.9-1.2-2-2.7c0.8-1.4,2.5-1.1,3.7,0.1c1,1.1,2.4,1.2,3.5,0.5
				c5-3.4,10.5-6.2,14-11.5c1.9-3,5.2-5.1,6.9-8.2c1.5-2.7,3.8-4.5,5.5-6.8c0.2-0.3,0.4-0.7,0.7-0.9c4.7-2.1,6.5-6.4,8.4-10.7
				c1.3-3.1,1.4-6.3,2.2-9.4c2.2-8.6,1.4-17.2,0-25.8c-0.6-3.5-4.1-7.4-7.9-8.8c-0.3-0.1-1.2,0.4-1.4,0.8c-0.3,0.8-0.3,1.7-0.2,2.6
				c0.4,3.5,0.7,7,1.4,10.4c1.6,7.8-0.7,15.2-1.5,22.8c-2.4,4.2-3.4,9-5.7,13.2c-4.8,8.9-12.3,15.1-20,21.2c-4.5,3.5-9.2,6.5-14.2,9
				c-2.6,1.3-5.3,2.5-8.4,2.8c-5.5,0.5-10.9,1.4-16.4,2.1c-0.4,0-0.9-0.3-1.2-0.7c-0.2-0.2-0.1-0.8,0.1-1c0.9-1,1.8-2.2,3-3
				c6.7-4.4,13.4-8.6,16.9-16.5c1.8-4,4.5-7.6,6.6-11.4c0.2-0.4-0.2-1.7-0.4-1.7c-0.9-0.1-2,0.1-1.8-1.2c0.1-0.4,1-0.7,1.4-1.1
				c2.4-2.3,3.4-6.6,2.5-10.6c-0.8-3.7,0.1-7.3,0.3-11c0.3-5.9,0.9-11.9-1-17.5c-1.1-3.1-1.9-6.2-2-9.3c-0.3-5.7-2.4-10.9-3.6-16.3
				c-0.5-2.1-0.9-4.5-1.9-6.5c-1.1-2.2-1.4-4.3-1.9-6.6c-0.2-0.7-1.1-1.3-1.6-2c-0.5-0.7-0.9-1.5-1.1-2.3c-0.1-0.3,0.3-0.9,0.7-1.2
				c0.2-0.2,1,0,1,0c0.2,2.3,3.2,2.5,3.5,5.1c0.2,2.4,2.1,4.6,3.2,6.8c0.2,0.4,0.8,0.8,0.9,1.2c0.7,2,0.1,4.1,1.7,6.1
				c1.1,1.4,1.1,3.9,1.9,5.9c0.9,2.1,0.7,4.7,1.1,7c1,5.6,2.2,11.3,3.3,16.9c1.1,5.4-0.3,10.8-0.4,16.2c0,1-0.4,2-0.4,3.1
				c0,1.1,0.5,2.2,0.3,3.3c-0.2,0.9-1.7,2-0.2,2.7c1.5,0.7,2.2-1,2.5-2.1c1.4-4.8,3-9.3,2.8-14.6c-0.2-4.1-0.1-8.6,1.3-12.7
				c1.2-3.7-0.1-7.4-0.2-11.1c-0.2-4.1-1.8-7.4-4.1-10.6c-2.2-3-4-6.4-6.4-9.2c-3.1-3.5-3.1-7.8-3.7-12c0-0.3,0.5-0.9,0.9-1
				c0.4-0.1,1.2,0.4,1.2,0.6c0,3.5,1.7,6.4,3.5,9.2c0.9,1.4,1.7,3,2.9,4.2c3.8,3.6,6.5,8,8.7,12.6c0.3,0.6,0.8,1.2,0.9,1.8
				c0.4,5.4,2.1,10.7,0.3,16.4c-1.2,3.7-1.3,7.9-0.8,11.8c0.7,6.2-1.2,11.6-3.8,16.9c-1.9,4-4.2,7.7-6.7,11.4
				c-2.5,3.7-4.3,8-6.6,11.9c-3,5-6.7,9.3-10.9,13.3c-0.4,0.4-1.4,0.2-2.1,0.5c-0.3,0.2-0.6,0.9-0.5,1.3c0.1,0.3,0.8,0.8,1.1,0.8
				c2.4-0.6,5-0.9,7-2.1c2.6-1.7,5.7-2.4,8.1-4.3C425.4,166.4,428.9,164.1,441.5,141.3c9.5-20.6,9.5-20.8,9.5-20.9
				c-0.3-0.6-0.6-1.1-0.8-1.7c-0.4,0.6-1.4,1.3-1.3,1.7c0.4,1.5-0.2,2.8-0.7,4.1c-1.8,5.3-3.4,10.7-5.6,15.9
				c-3.6,8.4-6.6,13.9-10.6,18.6c-0.3,0.3-0.4,1.1-0.2,1.5c0.8,1.5,0.9-0.2,1.2-0.4c1.6-1,3.2-2,4.5-3.3c2.2-2.1,4.2-4.3,6.1-6.7
				c1.7-2.1,4-4.2,1.4-7.2c-0.1-0.1,0.5-1,0.9-1.4c1.3-1.2,2-2.6,2.9-4.2C451.6,131.9,450.2,126.3,441.5,141.3"/>
			<path id="Fill-7_1_" class="st0" d="M60.9,384.5c0.4-0.3,0.8-0.7,1.2-1.1c-0.5-0.1-1-0.3-1.5-0.1c-0.5,0.1-0.9,0.6-1.4,0.9
				C59.6,384.2,60.1,384.3,60.9,384.5 M76.4,215.6c-1.7,0.5-3.9,0.5-6.1,1.7c-2,1.1-4.7,1.5-7,2c-5.5,1.1-9.7,4.4-14,7.3
				c-5.4,3.7-9.6,9-13.3,14.4c-0.2,0.3-0.2,0.6-0.3,1c0.5-0.1,1.2,0,1.6-0.3c0.4-0.3,0.6-0.9,1-1.3c3.3-3.2,6.8-6.3,10.5-9.1
				c4.6-3.5,9.5-6.4,14.9-8.6c2.5-1,4.6-3.1,7.5-3.2c2.1,0,3.6-1.2,5.3-2.1c0.9-0.4,1.9-0.8,2.8-1.3c0.6-0.3,1.1-0.6,1.7-0.9
				c-0.7-0.1-1.4-0.2-2-0.2c-0.7,0-1.4,0.2-43.1,28.3c-0.1-0.8-0.2-1.2-0.2-1.5c-0.6,0.6-1.2,1.1-1.8,1.7c0.3,0.2,0.7,0.7,0.9,0.6
				C35.4,244.1,35.8,243.7,76.4,215.6 M51.7,383.3c0.2,0,0.3,0,0.5-0.1c-0.1-0.3-0.2-0.6-0.4-0.8c-0.1-0.1-0.4,0.2-0.6,0.3
				c0.2,0.2,0.4,0.4,3.8,0.8c-0.9-0.2-1.3-0.4-1.7-0.4c-0.3,0-0.7,0.1-1,0.1c0.3,0.3,0.6,0.9,0.9,0.9
				C53.5,384.2,53.9,383.9,51.7,383.3 M82.6,208.1c2.7-0.4,5.5-0.6,8.2-1.1c5.1-1,10.4-1.5,15.2-3.3c3.5-1.3,6.9-1.7,10.4-2.2
				c6.3-0.9,12,1.2,17.3,4.3c2.7,1.6,7.7,9.4,9.1,12.4c1.4,2.8,1.7,5.8,2.1,8.7c0,0.3-0.6,0.9-1,0.9c-0.4,0-1-0.4-1.1-0.7
				c-0.3-1-0.1-2.6-0.8-3c-3.1-2.4-3.2-6.5-5.5-9.2c-1.6-1.8-3.7-3-5.6-4.4c-3.2-2.3-6.7-3.6-10.8-2.8c-3.2,0.6-6.5,0.9-9.8,1.3
				c-0.9,0.1-1.9,0.1-2.7,0.5c-0.6,0.3-0.9,1.1-1.4,1.7c0.5,0.1,1,0.3,1.5,0.4c2.8,0.5,5.3,2.6,8.3,2.3c0.2,0,0.6,0.5,0.6,0.8
				c0,0.5-0.2,1.3-0.5,1.3c-2,0.4-4.1,1.1-6,0.7c-6.7-1.4-12.9,1-19.3,1.7c-2.7,0.3-5.3,2.3-7.7,3.8c-9.7,6.1-11.5,7.6-18.7,15.4
				c-3,3.2-6.4,6.1-9.1,9.5c-3.6,4.7-7.1,9.6-10,14.7c-1.1,1.9-2.2,3.5-4,4.6c-0.5,0.3-1.2,0.4-1.8,0.6c0-0.6-0.3-1.3-0.1-1.9
				c1.9-5,4.2-9.8,7-14.5c2.9-4.9,6.4-9.2,9.7-13.7c0.2-0.3,0-1-0.1-1.5c-0.4,0.2-0.8,0.3-1.1,0.5c-8.6,6.6-16.4,13.9-22.6,23
				c-1.2,1.7-0.1,3.1-0.2,4.7c-0.1,1-0.9,1.8-1.7,1.2c-1.4-1.1-3.3-1.8-3.2-4c0-0.3-0.4-0.5-0.6-0.8c-0.2,0.3-0.6,0.5-0.7,0.8
				c-0.5,1.6-1.4,3.3-1.3,4.9c0.2,1.9-0.8,3.5-0.5,5.2c0.3,1.8-0.3,3.5-0.3,5.2c0,4.6,1.9,8.8,3.8,13c0.4,0.8,1,1.4,1.4,2.1
				c1.1,2.2,1,2.2,2.7,0.6c0.7-0.7,1.2-2.3,2.4-1.3c1,0.8,0.7,2.1,0,3.4c-3.4,6.2-6.1,12.7-8.1,19.4c-2.6,8.5-4.7,17-6.2,25.7
				c-0.5,2.9-0.6,5.8-1.5,8.5c-0.8,2.4-0.5,4.1,1.6,5.5c2.5,1.7,3.6,4.5,5.3,6.9c2.7,3.9,5.9,7.3,9.6,10.4c6.6,5.6,6.6,5.1,11.3,6.6
				c3.2,1,6.8,1,10.1,1.5c5.1,0.8,10.2,1.1,14.7,4c2.1,1.3,4.3,1.4,6.6,1c1.3-0.2,2.5-0.4,3.8-0.5c0.3,0,0.9,0.5,1,0.9
				c0.1,0.4-0.3,1.1-0.6,1.2c-0.9,0.3-1.8,0.2-2.7,0.4c-0.6,0.2-1.2,0.5-1.8,0.8c0.3,0.6,0.7,1.2,1,1.7c0.6,0.9,1.3,1.6,1.7,2.5
				c0.2,0.4,0,1.2-0.4,1.4c-0.3,0.2-1,0-1.5-0.1c-0.2,0-0.3-0.2-0.4-0.3c-1.7-1.3-3.3-3.4-5.3-3.8c-2.4-0.5-5.1,0.1-7.6,0.8
				c-5.3,1.5-10.5-0.4-15.8-0.3c-5.1-2.6-10.7-4.4-14.1-9.7c-1.7-2.6-4.4-4.5-6.3-7c-3.2-4.2-6.8-8.1-8.5-13.3
				c-0.2-0.6-0.6-1.3-1-1.7c-0.9-0.9-1.9-1.2-2.6,0.2c-0.4,0.7-0.5,1.6-0.9,2.4c-0.1,0.2-0.6,0.5-0.9,0.4c-0.4-0.1-1.1-0.4-1.1-0.8
				c-0.5-2.9-1.6-6-1-8.7c0.7-3.3,0.1-6.5,0.6-9.8c1-7.1,1.9-14.2,4-21.1c1.6-5.1,3.5-10,5.7-14.8c0.9-1.9,2.2-3.2,3.2-4.9
				c1.7-2.8,1.6-4-0.6-6.8c-0.9-1.2-1.7-2.6-2.3-4c-2.2-5.2-4.6-10.5-4.3-16.3c0.2-4.6,0.7-9.2,1.9-13.7c1.5-5.5,3.8-10.7,6.5-15.6
				c3.8-6.8,7.8-13.7,14.5-18.2c1.4-3.1,4.8-4,7.1-6.1c2-1.9,5.1-2.7,7.7-3.9c2-0.9,4-2,6.1-2.7c2.8-0.9,5.7-1.7,8.7-2.3
				c2.9-0.6,5.8-0.8,8.7-1.2C80.8,208.3,81.7,208.2,82.6,208.1"/>
			<path id="Fill-9" class="st0" d="M316.6,581.7c-2.9,0.4-5.8,0.7-8.7,1.2c-2.9,0.5-5.3,2.7-8.1,3.1c-4.9,0.8-8.9,4.3-14.1,4.3
				c-0.2,0-0.6,0.9-0.5,1.2c0.1,0.3,0.7,0.8,1,0.8c1.6-0.1,3.7-1.1,4.8-0.5c2.5,1.4,4.9-0.7,6.8,0.2c2.7,1.3,5,0.2,7.4-0.1
				c5.7-0.5,11.3-1.5,16.9-2.1c1.9-0.2,3.9-1.3,5.7,0.3c3.2-1.2,6.3,0.3,9.5-0.1c1.8-0.2,2.2-0.9,1.7-2.5c-0.1-0.4-0.3-0.8-0.1-1.1
				c0.3-0.5,0.8-0.9,1.2-1.3c0.3,0.3,0.8,0.6,0.9,1c1.3,4.3,1.3,4.2,5.4,3.7c1.9-0.2,3.4-0.6,3.7-3c0.1-0.9,1.2-1.8,1.7-2.7
				c0.7-1.1,1.2-0.2,1.6,0.2c0.4,0.5,0.8,1.1,0.9,1.8c0.3,1.5,0.9,1.9,2.1,0.9c3.2-2.5,7.4-2.7,10.9-4.4c1.4-0.7,3.1-1.9,4.3-1.6
				c3.4,1,6.9,0.3,10.1,1.5c3.5,1.2,7.2,0.9,10.7,1c4.5,0.2,8.6-2.2,12.5-4.7c0.7-0.4,2.1-0.4,1.5-1.6c-0.4-0.8-1.5-1.5-2.4-1.7
				c-1-0.1-2.1,0.2-3,0.8c-2.3,1.3-4.5,1.3-7.1,0.9c-4.4-0.7-8.5-2.5-12.8-3.3c-2.7-0.5-5.4-1.4-8.1-0.9c-6.2,1-12.3,2.3-18.5,3.5
				c-0.5,0.1-0.9,0.5-1.3,0.7c-5.5,3-11.7,3.1-17.7,4c-2.3-2-4.9,0.5-7.2-0.5c-2.6-1.1-5,0.2-7.4,0.3
				C319.5,581.2,318.1,581.5,316.6,581.7 M355.9,617.7c0,0.1,0.1,0.2,0.1,0.3c5.2-1.2,10.5-2.3,15.7-3.6c1-0.2,1.8-1,2.7-1.4
				c7.4-3.2,13.6-8.3,18.6-14.5c2.7-3.5,5-7.4,7.7-11c0.2-0.3,0.3-0.6,0.5-0.8c-0.3-0.1-0.7-0.3-1-0.3c-1.3,0.1-3-0.1-3.7,0.6
				c-1.5,1.5-3,1.5-4.9,1.3c-1.9-0.2-3.8-0.3-5.7-0.5c-3.9-0.4-7.8-1.2-11.8-1.2c-5-0.1-9.3,2.8-14.1,4c-0.8,1.7-2.4,1.3-3.8,1.6
				c-3.9,0.9-5,2.4-4.6,6.2c0.1,0.9,0.3,1.8,0.3,2.7c0,0.2-0.5,0.6-0.8,0.6c-0.5,0-1.2-0.2-1.3-0.5c-0.4-1.8-0.6-3.6-0.9-5.4
				c-2,0.1-3.9,0.3-5.9,0.3c-0.6,0-1.2-0.7-1.9-0.8c-2.4-0.2-2.9,0.4-2.9,2.9c0,0.6-0.2,1.8-0.4,1.8c-1,0-2.1-0.1-3-0.4
				c-0.9-0.3-1.4-1.1-0.7-2.2c1.4-2.2,0.2-2-1.6-2.3c-1.9-0.3-3.8-0.6-5.7-0.2c-0.9,0.2-1.8,0.4-2.7,0.3c-6.3-0.5-6.3-0.5-12.2,1.6
				c-1,0.4-2.5,0.8-3.2,0.3c-1.5-1.1-2.8-0.5-4.2-0.4c-2.4,0.2-4.9,1.3-7,0.7c-2.4-0.7-4.9,0.7-6.7-0.4c-2.3-1.3-4.4,0.4-6.8-0.7
				c-2.5-1.1-5.9-0.3-8.9-0.2c-0.8,0-1.7,0.5-2.5,0.7c0.7,0.3,1.4,0.6,2.2,0.9c0.9,0.4,1.9,0.7,2.8,1.2c7.7,4.3,15.5,8.6,22.6,13.7
				c6.2,4.4,13.2,4.8,20,6.3c4.7,1,9.7-0.4,14.7,0.3c2.1,0.3,4.3-0.6,6.5-0.7c2.3-0.1,4.5,0.3,6.8,0.1
				C350.8,618.5,353.3,618,355.9,617.7 M266.6,591.7c1.5-0.1,4-1.2,6.4,0.2l7.7-3c1.8-1.1,3.6-2,5.8-2.2c1.7-0.2,3.9-0.6,4.7-1.8
				c1.5-2,4.5-0.4,5.5-2.8c2.3,0.5,4.1-1.2,5.9-2.1c2-1,4.3-0.9,6-1.8c3.3-1.9,6.9-1.9,10.4-2.3c2-0.3,4.1,0.8,6.2,0.3
				c1.9-0.5,3.7-0.2,5.7,0.1c3.4,0.5,7,0,10.6-0.1c2.3-0.1,4.6-0.5,6.5-2c1.9-1.5,4.2-1.8,6.5-1.9c3.2-0.2,5.9-2.4,9.2-2.4
				c3.1,0,6.2-0.6,9.3-1.2c3.2-0.6,6.2-0.1,9.2,1c2.2,0.9,4.4,1.7,6.7,2.4c3,0.9,5.9,1.4,9.2,1.3c3.2-0.1,7.1-1.2,10,1.8
				c2.9-1,5.2,2.3,8.1,1.2c0.3-0.1,0.9-0.2,1,0c0.7,1.1,1.4,2.3,2,3.5c-0.9-0.1-2,0.2-2.6-0.3c-1.7-1.4-3.8-1-5.1-0.2
				c-2.1,1.2-4.2,2.9-5.3,4.9c-2.1,4.1-5.2,7.6-7.2,11.7c-0.7,1.4-1.4,2.8-2.2,4.1c-3.2,5.2-8,8.9-12.7,12.6
				c-3.7,3-7.8,5.6-12.8,6.3c-1.3,0.2-2.6,0.9-3.8,1.6c-0.6,0.3-0.9,1.1-1.4,1.6c0.7,0.1,1.5,0.2,2.1,0.5c0.5,0.2,0.8,0.9,1.2,1.3
				c-0.4,0.3-0.7,0.7-1.2,0.8c-0.5,0.2-1.3,0.3-1.6,0.1c-2.1-2.4-4.6-1.4-7.1-1.1c-4.4,0.5-8.7,1.1-13.1,1.7
				c-2.2,0.3-4.5,0.3-6.6,1.8c-1.6,1.2-4.4-0.3-5.9,2c-5.4-0.3-9.3,4.4-14.6,4.2c-1.3-0.1-1.9,0.7-2.6,1.6c-0.5,0.6-1.4,1-2.2,1.2
				c-0.4,0.1-1.2-0.1-1.4-0.4c-0.2-0.4-0.1-1.1,0.2-1.4c0.8-0.9,1.7-2.1,2.7-2.3c3-0.5,5.1-3.2,7.9-3.6c3.4-0.5,5.8-3.2,9.2-3.6
				c0.2,0,0.4-0.5,0.5-0.7c-0.3-0.1-0.6-0.3-1-0.3c-2.4-0.1-4.9-0.1-7.3-0.2c-2.3-0.1-4.5,0-6.8-0.3c-2.9-0.4-5.8-0.8-8.5-1.7
				c-4.8-1.6-9.4-3.2-13.7-6.2c-5.6-4-11.5-7.8-17.4-11.5c-2.3-1.4-4.5-2.8-6.7-4.3c-2-1.4-4.3-2.5-6.3-3.9c-2-1.4-3.9-1.5-5.7,0.1
				c-2.2,1.9-4.3,4-6.6,5.9c-0.3,0.3-1.1,0.3-1.4,0c-0.3-0.2-0.6-1.1-0.4-1.4c2.3-2.7,4.4-5.8,7.2-7.9
				C260.8,591.7,263.5,592.1,266.6,591.7"/>
			<path id="Fill-11" class="st0" d="M218.5,409.4c-0.2-0.1-0.3-0.1-0.4-0.1c-0.1,0.2-0.2,0.3-0.3,0.5c0,0.1,0.2,0.1,0.4,0.1
				C218.3,409.7,218.4,409.5,218.5,409.4L218.5,409.4z M216.1,416.9c0.1-0.1,0.3-0.3,0.3-0.3c-0.2-0.1-0.6-0.4-0.7-0.3
				c-2.9,1.4-6.1,2.5-8.5,4.2c-0.9,0.7-0.9,1.1,0.1,1.5L216.1,416.9z M204.8,424.1c-0.6-0.7-1.7-1-3,0.3c-0.9,0.8-2.3,1.5-3.4,2.3
				c-0.9,0.6-1.5,0.4-2.3,0.2c-1.3-0.3-0.5-0.8,0.1-1.2c2.2-1.5,1.8-3.7,5.3-4.8c0.2-0.1,0.4-0.7,0.2-0.9c-0.5-0.5-1.1-1.1-1.9-1.2
				c-1.2-0.2-1.8,0.8-2.3,1.4c-1.3,1.4-3.7,2.5-4,4.2c0,0.1-1,0.5-1.3,0.5c-0.3,0-0.6-0.4-0.7-0.7c-0.5-1.3,1.4-2.5,2.4-3.6
				c4.2-4.7,10.7-8.2,17.8-11.5c2.9-1.3,5.8-2.4,8.8-3.4c2.9-1,5.6-2.4,8.9-2.8c3.3-2.1,7.7-1.8,11.3-3.5c1.6-0.8,4.3-1.5,6.7-1
				c0.6,0.1,1.7-0.2,2.6-0.4c3.5-0.8,6.5-0.4,9.1,0.4c3.4,1.1,6.7,2.2,9.4,3.8c1.9,1.1,4.2,1.7,6.2,2.5c0.3,0.1,0.7,0.6,0.6,0.7
				c-0.5,0.3-1.2,0.7-1.7,0.7c-1,0-2-0.1-2.7-0.4c-3.4-1.3-6.7-2.6-10-3.9c-4.2-1.7-8.9-2-14.5-0.5c-1,0.3-2,0.6-3,0.8
				c1,0.4,2.1,1.2,3.1,1c4.7-0.7,8.4,0.1,12.5,0.7c5.3,0.7,9.2,2.7,13.6,4.2c0.8,0.3,1.2,1,2,1.1c3.2,0.3,2.5,2.5,4.5,3.4
				c0.3,0.1-0.6,1.2-1.3,1.7c-0.3,0.2-1.6,0.1-2.2-0.1c-1-0.4-1.9-1.4-2.7-1.2c-0.1,0-0.3,0-0.5,0c-14.1-3.3-32-0.9-47.8,4.5
				L204.8,424.1z M203.3,416.8c3.1-1.1,5.9-2.5,9.4-5.2c0.8-0.7,0-0.4-0.6,0c-0.3,0.2-0.4,0.6-0.6,0.9c0.4-0.1,0.7-0.1,1.1-0.2
				c0.8-0.3,1.6-0.6,2.3-0.9c0.3-0.2,0.3-0.5,0.5-0.8c-0.3,0-0.7,0-2.6,1C208.1,413.4,205.4,414.8,203.3,416.8L203.3,416.8z"/>
			<path id="Fill-13" class="st0" d="M429.4,387c0-0.2,0-0.4-0.1-0.5c-4.8-4.5-10.3-7.7-16.6-9.6c-0.3-0.1-0.6,0.2-0.9,0.3
				c0.2,0.4,0.4,0.9,0.7,1c3.9,1.6,7.5,3.7,10.8,6.3c1.6,1.3,3.6,2.2,5.4,3.2c0.2,0.1,0.5-0.1,0.7-0.2
				C429.4,387.5,429.4,387.2,429.4,387 M375.9,394.5c0,5.7,5.1,7.5,8.7,10.5c0.3,0.2,1.1-0.1,1.6-0.2c0.3-0.1,0.6-0.3,0.9-0.5
				c-0.2-0.2-0.4-0.5-0.6-0.6c-0.9-0.5-2.5-0.7-2.7-1.3c-0.3-1,0.3-2.3,0.6-3.4c0.1-0.3,0.6-0.6,0.6-0.9c-0.1-1.6,0.1-3.3-0.5-4.7
				c-0.4-1-1.8-1.7-3.3-1.3c-0.3,0.1-1.2-0.7-1.2-1.1c-0.2-1.2-0.3-2.1-2-1.8c-1.5,0.3-2.2,1.2-2.4,2.4
				C375.4,392.5,375.8,393.4,375.9,394.5 M404.8,391.6c-0.8-2.1-1.4-4.3-2.3-6.4c-1.3-3-6.3-4.3-8.7-2.4c-0.1,0.1,0.1,0.8,0.4,1.1
				c1.3,1.1,2.6,2,3.9,3c0.5,0.4,1.4,0.9,1.4,1.5c0.6,4.2,1.9,8.5-1.7,12.2c-0.7,0.7-1.7,2.4-1.6,2.4c1.3,1.1,1.7-0.5,2.5-1
				c0.4-0.3,1.1-0.3,1.6-0.2c2.8,0.6,3.1-1.7,3.9-3.3C405.3,396.3,404.8,394,404.8,391.6 M374.9,407.4c0.9-0.1,1.3-0.1,1.6-0.2
				c0.7-0.2,1.3-0.4,1.9-0.7c-0.5-0.5-1.1-0.8-1.4-1.4c-2.1-3.2-5.7-5.8-3.4-10.5c0.5-0.9-0.6-1.7-1.6-1.2c-1.3,0.7-2.7,1.6-3.7,2.7
				c-2.3,2.5-4.4,5.2-6.5,7.9c-0.7,0.9,0.2,2.7,1.3,2.8C367.2,407,371.3,407.2,374.9,407.4 M408.4,399.5c1.8-0.7,2.5-1.3,3.3-1.4
				c2.6-0.1,4.5-1.8,6.7-2.7c2.3-1,4.7-1.7,6.9-3.4c1.4-1.1,1.4-1.3,0.1-1.8c-5.2-2.1-10.1-5-15.6-6.4c-0.9-0.2-1.9-1.7-2.7-0.4
				c-0.4,0.6,0.2,1.9,0.5,2.9c0.2,0.6,0.7,1.2,0.8,1.9c0.5,2.8,0.9,5.5-0.6,8.2C407.2,397.7,408.4,399.5,408.4,399.5 M404,407.1
				c-22.1,7.1-25,7.5-27.9,7.9c-1.5,0.2-2.8,0.4-4-0.8c-1.6-1.6-3.5,0-5.2-0.2c-0.6-0.1-1.2-0.4-1.8-0.5c0.3-0.5,0.5-1.3,0.9-1.5
				c0.9-0.4,1.2-0.7,0.3-1.3c-0.7-0.4-1.6-0.8-2.4-0.7c-1.3,0.1-2.4,0-3.5-0.9c-0.6-0.5-1.6-0.5-2.4-0.6c-0.8-0.2-2.1,0-2.4-0.4
				c-0.9-1.6,1.2-1.3,1.6-2c0.6-1,1.1-2.1,1.5-3.3c2.5-7.1,7-12.5,12.8-17.2c4.2-3.4,9-5.5,13.6-8c2.9-1.5,6.4-1.9,9.6-2.8
				c0.3-0.1,0.5-0.4,0.8-0.7c-0.3-0.1-0.6-0.4-0.9-0.4c-4.7,0.6-9.8,0.4-14.1,2.1c-4.5,1.7-8.9,4.3-12.6,7.6
				c-3.5,3.2-7.1,6.2-10.5,9.4c-4.7,4.3-6.7,9.5-8.5,15.2c-0.6,1.8-1.3,3.5-2,5.3c-0.1,0.2-0.8,0.4-1,0.2c-0.4-0.3-0.9-0.8-0.8-1.1
				c1.5-7.8,2.5-15.9,8.6-21.9c3.3-3.3,6.8-6.4,10.5-9.3c3.7-2.9,7.7-5.6,11.7-8.2c2.9-1.9,6.5-3.4,9.7-3.4c7.4,0,14.8-0.6,22.1,1.9
				c5.2,1.7,10.4,3.3,15.3,5.9c2.9,1.5,5.6,2.8,7.3,5.7c0.4,0.7,1.4,1.1,2.1,1.7c1.9,1.6,2.1,3.6,0.8,5.6c-1.5,2.3-3.7,3.6-5.9,5.1
				c-0.4,0.3-0.7,0.9-1,1.3c0.6,0.1,1.1,0.3,1.7,0.3c0.5,0,1.1-0.2,1.6-0.2c0.8,0,1.9-0.8,2.3,0.6c0.4,1.8-1.2,1.3-2.1,1.6
				c-0.8,0.3-1.6,0.7-2.3,1.2c-0.4,0.3-0.7,1.2-1,1.2c-4.3-0.2-7,4.1-11.3,4c-1.6,0-3.1,0.5-4.3,1.6c-2.3,2.1-5.4,2.4-8.1,3.1
				c-2.9,0.8-5.7,1.9-8.6,2.5C391,413.1,387.9,413.5,404,407.1c20.1-7.5,21.1-8.1,22-8.8c0.1-0.1,0.3-0.4,0.3-0.4
				c-0.2-0.2-0.4-0.5-0.6-0.5c-1.1,0.1-2.2,0.1-3.2,0.5c-0.6,0.2-0.9,1.1-1.4,1.7C421.7,399.8,422.2,400,404,407.1"/>
			<path id="Fill-15" class="st0" d="M271.2,369.2c-0.1-0.2-0.2-0.5-0.4-0.7c-0.1,0.1-0.4,0.3-0.4,0.4c0.1,0.3,0.2,0.5,0.3,0.8
				C271,369.5,271.1,369.4,271.2,369.2 M241.8,368.2c0.1,0.2,0.3,0.3,0.4,0.4c0.1-0.2,0.3-0.5,0.4-0.7c0-0.1-0.2-0.2-0.3-0.4
				C242.1,367.8,242,368,241.8,368.2 M229.8,366c-0.6-0.7-1.2-1.5-1.8-2.2c-0.5,0.5-1,0.9-1.5,1.4c0.8,0.6,1.7,1.3,2.5,1.9
				C229.2,366.8,229.4,366.5,229.8,366 M211.4,375.5c-1.2-1.1-1.8-1.8-2.5-2.4c-0.5,0.7-1.4,1.3-1.5,2c-0.3,1.4,1,1.2,1.8,1.1
				C209.6,376.2,210.2,375.9,211.4,375.5 M259.5,372.5c1.1,0,2.2,0.2,3.3,0.1c0.3,0,0.7-0.6,0.9-1c0.3-0.9-0.1-1.2-1-1.1
				c-3.5,0.4-6.3-0.7-8.3-3.7c-0.3-0.4-0.7-0.9-1.2-1c-0.4-0.1-1,0.2-1.4,0.5c-0.2,0.1-0.1,1-0.1,1c2.1,0.5,1.9,2.4,2.5,3.8
				c0.3,0.6,1.3,1.2,2.1,1.3c1,0.3,2.2,0.1,9.1-7.3c-2.4-0.1-3.2,0.8-2.6,2.6c0.2,0.6,1,1.2,1,1.7c-0.3,1.7,1.1,1.2,1.6,1.1
				c0.6-0.2,1-1,1.6-1.4c0.7-0.4,1.5-0.7,2.3-1.1c-0.7-0.8-1.2-1.7-2-2.3C266.5,365.2,265.5,365.1,259.5,372.5 M277.6,378.2
				c-0.2-0.2-0.3-0.4-0.5-0.7c-0.2,0.2-0.3,0.3-0.5,0.5c0.2,0.2,0.4,0.4,0.6,0.5c0,0,0.2-0.2-2.4-0.7c0.8-0.3,1.4-0.4,1.8-0.8
				c0.4-0.5-1.1-2.9-1.4-2.6c-0.7,0.7-1.2,1.5-1.6,2.4C273.6,376.8,274.4,377.4,277.6,378.2 M225.6,360.7c0-3.8,3.3-2.9,5.2-2.2
				c2.7,1,6,0.6,8.1,3.1c0.3,0.3,1,0.2,1.4,0.3c-0.2-0.5-0.6-1.1-0.5-1.6c0.1-0.6,0.5-1.5,0.9-1.6c2.5-0.1,4.9,0.1,7.3-0.8
				c1.2-0.4,2.9,0.6,4.4,1.1c0.7,0.2,0.7,1.4,2,0.4c2.8-2.1,5.5-2,8.5,0.6c1.7,1.6,3.6,2.4,5.2,1.2c2.4-1.8,3.9,0.1,5.2,0.9
				c2.3,1.3,4.2,3.3,6,5.2c4.3,4.3,4.2,4.3,3.9,10.5c-0.1,1.7-0.5,2.3-2.2,2c-1.3-0.2-1.7,1-1.1,1.7c2.2,2.3,0,2.5-1.3,3
				c-4.3,1.7-8.6-1.2-8.7-5.9c0-0.9-0.3-1.7-0.4-2.5c-1.6,0.4-2.7-0.7-3.9-1.2c-0.2-0.1-0.8,0.2-0.9,0.4c-0.5,1.8-1,3.6-3.2,4
				c0.2,0.3,0.4,0.9,0.5,0.9c2.7-0.7,3.6,1.3,4.5,3.2c0.3,0.5,0.7,1.4,1,1.4c2.9,0,4.7,3.3,7.8,2.7c0.5-0.1,1.8,1.4,1.8,2.2
				c0,0.7-1.2,1.8-2,2c-2.7,0.6-5.3-0.6-7.5-1.8c-2-1.2-5.4-1.2-5.7-4.6c0-0.2-0.9-0.6-1.4-0.5c-3.9,0.1-6.7-2.5-8-5.3
				c-1.2-2.6-2.3-1.7-3.5-1.1c-3.5,1.9-5.6,1.9-9.4,0.2c-3.7-1.7-7.5-2.2-11.1-0.2c-3.3,1.8-6.2,2.8-9.9,0.8c-1-0.6-3.1,0.1-4.4,0.8
				c-2.6,1.5-5,1.1-7.5,0c-0.7-0.3-2-0.6-2.5-0.2c-3,2.4-6.4,1.8-9.7,1.6c-1.4-0.1-1.9,0.3-1.9,1.8c0,1-0.3,2.3-1,2.8
				c-1.4,1.2-3.2,2.1-4.9,2.8c-0.6,0.2-1.6-0.5-2.3-0.9c-0.2-0.1-0.4-1-0.3-1.1c1.7-1.2,1.9-2.2,0.2-3.6c-0.3-0.3-0.4-1.5-0.1-1.8
				c1-0.9,2.2-1.7,3.4-2.4c0.6-0.3,1.8-0.3,1.9-0.6c0.4-1.9,4.2-0.7,3.2-2.8c-1.2-2.6-2.8,0.5-4.2,0.8c-2,0.3-2.5,0.4-2.1-1.9
				c0.1-0.8,0.4-1.7,0.9-2.4c1.3-1.7,4.1-0.9,5.2-3.6c0.8-2,4.2-1.6,5.8-2.8c2.1-1.5,2.8,1,4.3,0.6c0.1,0.6,0.4,1.7,0.3,1.8
				c-2.8,1.1-0.8,3.2-1,4.8c-0.1,0.7-0.1,1.5-0.1,2.4c0,0.1,0-0.1,0-0.2c-0.3,0.1-0.6,0.1-0.8,0.3c-0.1,0,0.1,0.4,0.2,0.7
				c0.2-0.2,0.4-0.3,0.7-0.7c0.7-0.3,1.4-0.3,2-0.6c2.7-1.2,3-1.4,1.8-4c-0.9-1.9,0.5-2.2,1.2-3c1.1-1.3,2,1.7,2.8,0.3
				c0.3-0.6-0.6-1.8-0.9-2.8c-0.1-0.2,0.3-0.7,0.5-0.8c0.3-0.1,0.7,0,1.1-0.1c1.2-0.1,2.5-0.1,3.7-0.2c-0.2-1.1-0.6-2.2-0.7-3.3
				c-0.1-0.8-0.4-2,1.1-1.9c2.7,0.1,5.5,0.1,8.2,0.3C223.2,359.2,223.7,359.9,225.6,360.7c0.5,0,0.1-0.2-0.3-0.3
				c-0.3-0.1-0.7,0-1-0.1c0.2,0.4,0.4,1,0.7,1.1C225.4,361.5,226,361.2,225.6,360.7"/>
			<path id="Fill-17" class="st0" d="M510.7,336.2c-3.6,1.4-8.1,0-12.6-0.6c-1-0.1-2.1-0.3-2.9-0.8c-5.4-3.5-10-7.8-12.3-14
				c-0.9-2.6-1.6-5.3-3.1-7.6c-1.1-1.8,0-3.6,0.8-4.9c1.1-2.1,2.3-3.7-0.1-5.5c-2.6-8-8.1-13.9-14.1-19.5c-0.3-0.2-0.6-0.4-0.8-0.7
				c-0.1-0.3-0.2-0.8,0-1c0.1-0.3,0.6-0.6,0.8-0.6c2.4,0.9,5.2,1,7.1,2.9c4.3,4.2,8.6,8.6,11.6,13.9c1.7,2.9,3,6.1,4.7,9
				c0.6,1.1,1,2.2,2.1,2.9c1,0.7,2.1,1.5,3,2.4c4,4,9.3,5.4,14.4,7.1c0.6,0.2,1.4,0.3,2,0.3c1.9-0.1,3.8-0.1,5.7,0.2
				c2.2,0.3,5-0.7,7-1.9c4.6-2.8,8.2-6.6,10.1-11.8c0.1-0.4-0.3-0.9-0.5-1.4c-0.2,0.2-0.5,0.3-0.7,0.5c-2.9,1.9-6,3.6-9.4,3.9
				c-3.5,0.3-7,2.2-10.6,0.4c-3.5,1.1-6.3-1.4-9.5-2.1c-2.8-0.6-3.9-2.8-5.2-4.8c-0.3-0.5-0.3-1.8,0-2c0.7-0.4,1.7-0.5,2.5-0.5
				c0.5,0,0.8,0.7,1.3,0.9c3.2,1.5,6.4,2.1,10,2c5.9-0.1,5.9,0.5,9.6-1.2c2.1-1,4.4-0.8,6.6-1.8c4.7-2.1,8.2-4.7,9.4-9.9
				c0.1-0.6,1.1-1.1,1.7-1.6c0.5,0.7,1.4,1.3,1.6,2c0.4,2.2,1.1,4.6-0.2,6.8c-0.7,1.2-0.5,2.3-0.7,3.5c-1,5.2-1.5,10.6-5.3,15
				c-3.2,3.8-6.2,7.4-11.1,9.4c-3,1.2-6,1.8-8.9,1.7c-5.3-0.1-10.5-0.7-15.5-3.2c-3.6-1.8-6.6-4.3-9.8-6.6c-0.4-0.3-1.1-0.4-1.6-0.6
				c0,0.7-0.2,1.8,0.2,2.1c1.9,1.2,2.2,3.6,3.6,5c4.6,4.6,8.6,6,15.5,6.8c1.7,0.2,3.4,0.5,5.2,0.4c1.5-0.1,3.1,0.3,4.6,0.4
				c1.7,0.2,3.4,0.2,5.1,0.5c0.4,0.1,0.9,0.6,1,0.9c0.1,0.4-0.3,1-0.7,1.2C519.2,335.5,515.4,335.5,510.7,336.2"/>
			<path id="Fill-19" class="st0" d="M158.2,209.2c0.1,0.8,0.3,1.3,0.2,1.6c-0.6,1.3,2.1,3.7-0.8,4c-1.7,0.2-0.8-2.4-1.4-3.5
				c-1-1.8-1.9-3.6-3-5.3c-4.4-6.7-7.8-8.2-16.5-10.5c-5.6-1.5-11.3-2.6-17-3.5c-3.1-0.5-6.2-0.5-9.3-0.8c-1.7-0.1-3.4,1-5.3-0.2
				c-0.5-0.3-2,1.2-3.1,1.2c-6.6,0-11.6,4.5-17.6,6.3c-2.8,0.8-5.5,2-8.3,2.9c-3.8,1.2-7.7,1.4-11.4,2.6c-5.9,1.8-11.2,4.9-16.5,8.1
				c-5.4,3.3-9.2,8.3-14.5,11.5c-0.4,0.3-1,0.4-1.5,0.6c0.1-0.5,0.1-1,0.2-1.5c1.4-4,4.1-7.1,7.1-9.9c4-3.7,8.4-6.9,13-10
				c2.8-1.9,5.8-3,8.9-4c7.8-2.5,15.6-4.9,23.2-7.6c1.4-0.5,2.4-2,3.8-2.6c6.2-2.7,12.8-4.9,19.5-4.7c4.4,0.1,8.9,0.4,13.3,1.4
				c4.1,1,8.3,1.7,12.4,2.9c5,1.4,10,2.8,14.2,5.9c3-0.6,3.2,2.5,4.6,3.8C156,200.8,158.4,204.7,158.2,209.2"/>
			<path id="Fill-21" class="st0" d="M279.8,129c0.5,4.2,0.9,8.2-0.2,12.6c-1.3,4.8-4.3,7.2-8.1,9.4c-1.3,0.8-3,0.9-4.3,1.8
				c-3.6,2.3-7.2,4.6-10.3,7.7c-5.6,5.7-11.4,11.2-16.3,17.5c-0.3,0.4-1.2,0.5-1.8,0.5c-0.2,0-0.6-1-0.5-1.4
				c0.4-1.5,0.6-3.1,1.5-4.3c5.3-7.3,10.9-14.3,17.6-20.4c2.9-2.7,6-4.9,9.8-6.4c2.1-0.8,4.4-2.3,5.3-5.2c1.6-5.3,1.4-10.3-0.6-15.4
				c-1.2-2.9-2-6-2.6-9c-0.5-2.6-1.8-4.8-3-7.1c-3-6.1-7.6-11-12.1-15.9c-3.4-3.8-5.5-8.3-7.4-12.8c-0.9-2.2-2.3-4.3-2.2-7
				c0.1-3.2,0.2-6.3,2.5-8.8c1-1.1,1.7-2.4,2.7-3.4c0.4-0.4,1.2-0.4,1.8-0.5c0,0.6,0.2,1.3,0,1.9c-0.3,1-0.6,2-1.2,2.8
				c-2.2,3.5-1.7,6.5-0.1,10.3c2.8,6.5,6.8,11.8,11.7,16.8c4.9,5,9.5,10.4,12.2,17c1,2.5,2.5,4.9,2.9,7.7c0.3,2,1.3,3.9,1.8,6
				C279.4,125,279.6,127,279.8,129"/>
			<path id="Fill-23" class="st0" d="M211.7,142.1c0.1,4.4,0,7.7,0.2,11.1c0.1,1.7-0.3,3.6,1.6,5c0.4,0.3,0,2-0.3,2.9
				c-1.9,7.3-4.3,14.4-8.1,21c-2,3.4-2,7.7-4.5,10.9c-0.1,0.1-0.1,0.4-0.1,0.5c1.9,2.7-2.6,3.9-1.4,6.4c0,0.1-0.8,0.7-1.2,0.7
				c-0.3,0-1-0.6-1-0.9c0.1-2.4,0.9-4.9,0.2-7.3c2.3-3.8,1.3-8.4,3.4-12.3c2-3.8,3.2-8,5.3-11.7c2-3.5,2.1-7.3,2.1-11
				c0-3.5-1.3-7-0.4-10.6c0.4-1.5-0.7-3.4-1.2-5.1c-0.2-0.7-0.6-1.3-0.7-1.9c-0.8-7.2-4.2-12.9-8.9-18.4c-2.9-3.4-5.5-7.4-8.2-11.1
				c-3.9-5.2-7.5-10.9-13.4-13.9c-4.1-2.1-7.3-5.5-11.7-7.4c-3-1.3-4.9-4.4-6.9-7c-0.6-0.7-1.5-1.3-0.6-2.1c0.3-0.3,1.6,0.2,2.2,0.6
				c0.8,0.6,1.2,1.7,2,2.2c3.5,2.5,7,5.1,10.7,7.1c10.3,5.5,14,8.4,20.1,16.5c3.8,5.1,8.2,9.7,11.6,15c3,4.5,6.4,8.9,7.1,14.7
				C210,138.4,211.2,140.6,211.7,142.1"/>
			<path id="Fill-25" class="st0" d="M493.3,476.1c-1.1-5.7,0.2-10.4,3.9-14.5c2.5-2.8,4.2-6,5.5-9.6c0.7-1.9,0.7-3.3-0.6-4.9
				c-1.3-1.7-2.4-3.5-2.3-5.7c0.1-1.3-0.3-2.5-1.6-3.2c-1.7-0.8-1.2-2.5-1.4-3.8c0-0.3,0.6-0.7,1-0.9c0.2-0.1,0.9,0.1,0.9,0.3
				c0.3,2.2,0.8,4.3,3.1,5.3c-0.7,2.6,2,3.2,2.9,4.8c2.5,4,2.5,10.4-0.3,14.9c-1.8,2.8-3.8,5.6-5.5,8.5c-1.8,3.2-1.8,6.7-0.7,10.2
				c0.1,0.2,1.2,0.4,1.4,0.2c1.1-1.2,2.3-2.4,3-3.9c3.4-6.7,6.7-13.6,7.3-21.2c0.4-4.9,1.7-10-1.4-14.9c-1.7-2.7-1.7-6.4-2.6-9.7
				c-0.4-1.5-1.3-2.8-1.6-4.3c-0.9-3.6-0.6-10.6,1.2-16c1-2.9,1.6-6,3.4-8.5c0.3-0.4,1-0.7,1.3-0.6c1.3,0.4,0.1,0.9,0,1.4
				c-0.4,1.7,0.7,3.4-0.8,5.1c-1,1.1-1.1,3.3-1,4.9c0.4,4.6-2,9.3,1.2,13.8c1.4,2,0.6,5,2,7.6c1.7,3,2,6.7,2.6,10.2
				c1.9,11.1-0.8,21.3-5.9,31c-1.9,3.6-3.7,7.2-7.3,9.6c-1,0.7-1.4,0.9-2.7,0.5C494.8,481.7,493,479.6,493.3,476.1"/>
			<path id="Fill-27" class="st0" d="M123.3,500.5c1.3,7.4-1,14.5-1.8,21.7c-0.1,0.6-0.7,1.3-1.2,1.8c-0.7,0.7-0.6,1.1,0.2,1.6
				c1.1,0.7,2.1,1.4,3,2.4c0.5,0.5,0.7,1.4,1,2.1c-0.8,0.2-1.8,0.7-2.5,0.5c-3.2-1.2-5.9-5.4-4.7-8.7c1.7-4.8,0.5-9.9,2.2-14.7
				c-1-3.6-0.3-7.4-2.3-11c-1.1-1.9-1.4-4.7-2.8-6.6c-1.4-1.9-0.1-4.7-2.4-6.3c-0.6-0.4-0.3-2.1-0.5-3.2c-1.3-6.7-4.1-12.9-5.9-19.5
				c-0.1-0.3-0.3-0.7-0.5-0.9c-2.9-2.3-5.6-4.8-8.8-6.6c-2.5-1.4-5.5-1.8-8.3-2.4c-0.8-0.2-1.8,0.2-2.7,0.3
				c-3.4,0.5-4.9,2.2-4.7,5.7c0.2,2.5,0.6,4.8,0,7.4c-0.6,2.2,0.8,4.4,2.4,6.1c0.7,0.8,1.1,1.6,0.1,2.2c-1,0.6-1.2-0.6-1.8-1.1
				c-1.7-1.5-2.9-3.1-2.8-5.5c0-1.3-1.1-2.2-1.4-3.3c-1.3-4-0.5-8,1.2-11.7c0.6-1.4,1.8-3.2,3.1-3.6c2.4-0.8,5.1-1.2,7.5-0.8
				c5,0.8,9.9,2.6,14.4,5.1c3.9,2.2,6.3,6,7.9,10.1c1.8,4.7,3.1,9.6,4.4,14.5c0.9,3.3,1,6.9,2.4,9.7c1.4,2.7,2.4,5.6,3.8,8.4
				C122.8,496.1,122.9,498.4,123.3,500.5"/>
			<path id="Fill-29" class="st0" d="M386.4,76.3c-0.1,3.7,0,7.2-0.4,10.6c-0.3,3.2-0.5,6.6-1.7,9.5c-0.8,1.9-1.6,3.8-2,5.8
				c-0.5,2.7-1.1,5.5-0.5,8.3c0.6,2.7,0.9,5.4,1.1,8.2c0.2,2.6,0.2,5.3-0.1,7.9c-1.1,8.6-2.2,17.2-6.2,25.2
				c-3.4,6.7-8.9,11.2-14.3,15.9c-1.2,1-2.3,2.3-3.6,2.8c-2.1,0.7-4.7,0.2-6.5,2.1c-1.7-1.5-4.1,0.4-5.7-1.3
				c0.9-2.6,3.4-1.8,4.9-1.8c3.8,0.1,6.3-2.4,8.7-4.3c5.1-4,9.2-9.4,12.4-14.9c2.4-4.2,3.8-9.1,4.7-13.9c0.7-3.8,1.3-7.8,1-11.9
				c-0.1-2.2-0.7-4.1-1-6.2c-0.2-1.9,0.3-3.8,0.3-5.7c-0.1-2-0.7-4-0.6-6c0.1-1.8,0.9-3.6,1.4-5.4c0.5-1.8,0.8-3.7,1.6-5.4
				c1.4-2.9,1.7-6,1.9-8.9c0.5-5.3,0.8-10.9-1-16c-1.1-3.3-1.7-6.5-2.3-9.8c-0.1-0.8-0.7-1.8-1.3-2.1c-1.6-0.9-1.5-2.4-1.6-3.8
				c0-0.4,0.4-1,0.7-1.1c0.4-0.1,1.2,0.1,1.3,0.4c1.1,2.5,3.6,4.4,3.3,7.5c-0.1,0.8,0.5,1.7,0.9,2.4c0.6,1,1.6,1.9,1.9,3
				C384.9,70.2,385.6,73.3,386.4,76.3"/>
			<path id="Fill-31" class="st0" d="M72.9,285.1c-12,1.1-22.2-0.2-32.1-3.8c-0.5-0.2-0.8-0.9-1.2-1.4c0.4-0.3,0.8-0.8,1.2-0.8
				c3.9-0.1,7.8-0.5,11.6-0.2c5.7,0.5,17.2,0.4,21.2-0.9c2.9-1,5.8-2.1,8.3-3.8c2.6-1.7,4.7-4.2,6.9-6.3c4.8-4.5,9.6-9.1,14.4-13.7
				c3.9-1,6.3-4.7,10.6-5c2.5-0.2,4.4,0,5.1,2c0.2,0.5,0.3,1.4,0,1.5c-0.5,0.3-1.3,0.5-1.8,0.3c-1.5-0.7-2.5-0.6-3.8,0.6
				c-2.9,2.7-6.2,5-8.9,7.9c-4.2,4.5-8.9,8.7-12.7,13.7c-1.6,2.2-3.9,4-6.2,5.4c-1.1,0.6-2.4,1.4-3.7,1.7
				C78.6,283.4,75.3,285.6,72.9,285.1"/>
			<path id="Fill-33" class="st0" d="M68.9,269c-2.6,0.1-5,0.1-7.3,0.2c-0.1-2.9,2.5-4.3,3.8-6.3c5.2-7.9,12.5-13.7,20.3-18.7
				c6.7-4.4,14-7.9,22.2-8.2c2.8-0.1,6-0.5,8.5,1.7c0.3,0.2,0.7,0.4,0.8,0.7c0.2,0.4,0.4,1.1,0.2,1.4c-0.2,0.4-1,0.7-1.4,0.6
				c-3.2-1.1-6.4-0.2-9.5,0.2c-5.1,0.7-9.5,3.1-14,5.2c-7.6,3.7-13.7,9.5-20.2,14.8c-1.1,0.9-1.9,2.2-2.8,3.3
				c-0.3,0.3-0.4,0.8-0.5,1.2c0.5,0,1.1,0.2,1.5,0c1.8-0.9,3.5-2.1,5.4-2.8c9.7-3.5,13.5-5.9,20.6-13.2c2.8-2.8,5.9-5.2,9.4-7.1
				c0.4-0.3,0.9-0.5,1.4-0.5c0.5-0.1,1.2,0,1.5,0.2c0.3,0.3,0.3,1.1,0.1,1.4c-0.6,0.9-1.1,2.1-2,2.6c-4.5,2.6-7.5,6.8-11,10.4
				c-2.7,2.8-6.2,4.8-9.5,6.9c-2,1.3-4.2,2.3-6.4,3.1C76.3,267.3,72.5,268.1,68.9,269"/>
			<path id="Fill-35" class="st0" d="M35.8,360.8c-0.1-1.4-0.2-2.1-0.1-2.8c0-0.2,0.5-0.5,0.8-0.5s0.9,0.1,1,0.2
				c1.5,5,5.7,6.3,9.9,7.6c1.6,0.5,3.3,0.8,5,0.9c5.9,0.4,11.8,0.3,17.6-0.9c0.3-0.1,0.5-0.4,0.8-0.6c-0.3-0.2-0.5-0.5-0.9-0.7
				c-4.5-1.5-9-3-13.8-3.6c-4.2-0.5-8.6-0.8-12.6-2.1c-4.1-1.3-8.5-2.4-11.6-5.8c-0.7-0.8-1.3-1.6-1.9-2.4c-1.4-1.9-2.7-3.9-4.1-5.8
				c1.4-2.2,0.3-4.5,0.3-6.8c0-0.3,0.6-0.9,1-0.9c0.4,0,1,0.4,1.1,0.7c0.8,1.9,0.6,4,1.7,6.1c2.6,4.8,6.9,6.9,11.3,9
				c3.8,1.9,8.2,2.3,12.4,2.8c7.4,1,14.7,2.3,20.7,7.3c2.4,2,4.6,2.2,7.4,0.9c1.4-0.7,3-0.9,4.5-1.3c0.3-0.1,0.9,0.5,1,0.9
				c0.1,0.4-0.2,1-0.6,1.2c-1,0.7-2.1,1.2-3.1,1.8c-2.2,1.3-5.2,1.9-4.3,5.5c0,0.1-0.6,0.5-0.9,0.4c-0.4-0.1-1.1-0.5-1.1-0.7
				c0-2-0.7-2.5-2.7-2.1c-3.8,0.7-7.6,1.3-11.5,1.5c-6.2,0.3-12.7,0.6-20.3-2.7C39.1,366.2,36.8,364,35.8,360.8"/>
			<path id="Fill-37" class="st0" d="M452.4,561c-0.6,5.1-0.3,10.9-1.9,16.8c-2.1,7.8-4.8,15.2-7.6,22.7c-2.5,6.7-5.4,13.4-8.7,19.7
				c-1.7,3.2-4.2,6-5.3,9.7c-0.1,0.3-0.9,0.5-1.4,0.5c-0.2,0-0.6-0.6-0.7-1c-0.3-1.6,0.1-2.9,0.8-4.5c4.1-8.5,8-17.1,11.3-25.9
				c1.7-4.5,3.5-8.9,5-13.4c1.6-4.8,2.7-9.8,3.7-14.8c0.2-1-0.1-2.1-0.1-3.2c-0.1-2.1-1.2-4.2,0.2-6.3c0.3-0.5,0.1-1.5-0.3-2.1
				c-2-3.4-1.8-7.5-3.7-10.8c-2.1-3.9-4.8-7.5-7.9-10.7c-1.3-1.4-2.7-2.7-3.9-4.2c-0.2-0.2,0.1-1,0.3-1.4c0.1-0.2,0.8-0.3,1-0.2
				c4.8,3.6,9.5,7,12.5,12.7c2.1,3.9,3.3,8.2,5.6,12C452.1,557.7,452,559.1,452.4,561"/>
			<path id="Fill-39" class="st0" d="M135.8,343.2c0,5.5,3.3,10.3,3.2,15.8c0,2.3,1.2,4.3,0,6.9c-0.9,1.9,1.4,4.5-0.4,6.7
				c0.7,4.6-0.1,8.9-1.5,13.3c1,2.3-1.6,3.5-1.5,5.4c0.1,2.2-1.1,3.9-1.6,5.9c-0.5,1.8-1.7,3.4-2.5,5.1c-0.4,0.8-0.5,1.7-0.9,2.4
				c-0.6,0.9-1.8,1.1-2,0.1c-0.2-1-2.3-1.7-0.4-3.5c2.2-2.2,5.6-12.6,5.5-15.8c-0.1-2.5,0.6-4.7,1.3-7c0.6-2.1-1.4-4.5,0.2-6.8
				c0.5-0.7-0.2-2.1-0.3-3.2c-1.1-8.5-2.2-17.1-3.4-25.6c-0.4-2.8-1.6-5.4-2.1-8.1c-0.6-2.9-0.2-6.1-1.3-8.7
				c-1.3-2.9-1.7-5.8-2.1-8.7c-0.2-1.4-0.6-2.4-1.8-3.1c-0.5-0.3-1-1.1-1.1-1.7c-0.1-0.6,0.2-1.3,0.5-1.8c0.1-0.1,1.1,0,1.4,0.3
				c1,1.2,2.7,2.5,2.6,3.7c-0.1,4,3,6.6,4,10.1c0.2,0.6,1,1.1,1,1.7C132.5,332.2,136,337.3,135.8,343.2"/>
			<path id="Fill-41" class="st0" d="M244.4,130.3c1,5.1-0.5,10.4,0.9,15.5c0.1,0.2-0.6,0.9-1,0.9c-0.4,0-1.1-0.4-1.1-0.7
				c0-5.5-3.1-10.3-3.2-15.8c-0.1-4.6-2.2-8.5-4.4-12.2c-4.2-7.1-9.5-13.3-16.1-18.4c-1.8-1.4-3.3-3.1-5-4.8
				c-1.5-1.5-3.1-2.9-4.7-4.3c-3.2-3-6.5-6-9.4-9.3c-2.5-2.9-4.3-6.2-6.6-9.2c-0.7-0.9-1.1-2.4-0.9-3.5c0.2-1.4-2.2-3.7,0.7-3.9
				c1.7-0.2,0.8,2.3,1.4,3.5c0.2,0.5,0.3,1,0.6,1.4c5.6,7,11.5,13.7,18.5,19.3c7.2,5.7,13.8,12.1,19.9,19c0.8,0.9,9.2,15.2,9.4,16.3
				C244,126.3,244.2,128.3,244.4,130.3"/>
			<path id="Fill-43" class="st0" d="M267,533.8c0.2,0.4,0.7,0.8,0.7,1.2c0,0.5-0.4,1-0.7,1.4c-4.7,6.6-9.6,13.2-14.2,19.9
				c-3.8,5.6-7.2,11.5-9,18.1c-0.7,2.5-1.4,5-1,7.7c0.7,4.5,1.5,9.1,1.7,13.6c0.1,3.3,2.2,6,2.6,9.2c0.1,0.9,1.2,1.8,1.3,2.7
				c0.2,1.7,0.8,3,2.3,4.1c0.6,0.4,0.6,1.6,0.8,2.4c0,0.2-0.3,0.6-0.6,0.8c-0.3,0.1-0.9,0.2-1,0c-1.1-1.1-2.8-2.2-3-3.5
				c-0.3-2-1.6-2.6-2.7-3.8c-1-1.2,0.1-3.4-1.8-4.2c-1.1-5.3-4-10.2-4.3-15.7c-0.4-7.6,1-15.1,3.8-22.1c1-2.4,2.9-4.4,4.2-6.8
				c2.2-4.1,4.9-8,7.9-11.6c3.7-4.5,7.9-8.7,11.9-13C266,533.9,266.5,533.9,267,533.8"/>
			<path id="Fill-45" class="st0" d="M241.4,443.9c2.9-0.4,5.8-0.6,8.7-1.2c2.4-0.5,4.7-1.5,7-2c2.5-0.5,5.2-0.3,7.6-1.1
				c6.1-2.2,12-4.6,17-9.1c3.1-2.8,6.2-5.5,9.2-8.3c0.3-0.3,1.2-0.1,1.9-0.1c0,0.5,0.1,1.1-0.1,1.5c-1.4,1.9-2.8,3.8-4.3,5.7
				c-0.8,0.9-1.4,1.7,0.2,2.3c1.4,0.6,1.6,2,1.5,3.2c-0.3,3.1-0.2,6.3-1.3,9.1c-1.4,3.4-4,6.3-6.1,9.4c-0.2,0.3-0.4,0.7-0.7,0.8
				c-0.7,0.2-1.8,0.5-2.1,0.2c-0.5-0.6-1-1.7-0.8-2.4c0.6-1.6,1.6-3.1,2.3-4.6c1.9-4.2,4.4-8.2,4.2-13.1c0-0.5,0.3-1.1,0.4-1.6
				c-0.5,0.1-1.1,0.1-1.4,0.4c-2,2.4-5.1,3.4-7.4,5.6c-1,1-2.5,1.7-4,2.2c-3.1,1-6.1,2.4-9.2,3.3c-3.3,1-6.9,2.1-10.6,0.9
				c-1.1-0.3-2.5,0-3.7,0.1c-5.8,0.7-11.6,1.5-17.4,2.2c-0.5,0.1-1.5-0.3-1.7-0.7c-0.5-1.3,0.6-1.4,1.5-1.5
				C235.2,444.7,238.3,444.3,241.4,443.9"/>
			<path id="Fill-47" class="st0" d="M304.8,436.8c0.3,2,0.7,4,0.8,6c0.1,2.8,1.4,5.5,0.3,8.5c-0.9,2.6,1,5.4-0.1,8.4
				c-0.8,2.1-0.1,4.8-0.2,7.2c-0.3,6.9-2,13.4-4.1,20c-0.6,2-2.5,1.6-3.3,2.8c-0.4-0.3-0.7-0.6-1-0.9c-0.1-0.1-0.1-0.4-0.1-0.5
				c2.4-4,2.5-8.5,2.9-12.9c2-1.9-1.1-4.7,1.1-6.5c0-3.3,0.2-6.7-0.2-10c-0.6-5.7,0.4-11.5-1.1-17.1c1.5-3.2,0.4-6.4-0.2-9.5
				c-1.1-5,0-10-0.7-15c0-0.3,0.5-0.7,0.8-1.1c0.5,0.4,1.2,0.7,1.4,1.1c0.9,3.2,1.8,6.5,2.4,9.7
				C304.1,430.3,304.4,433.6,304.8,436.8"/>
			<path id="Fill-49" class="st0" d="M389.4,665.9c0.1,1.1,0.4,1.7,0.2,2.2c-0.1,0.4-0.7,0.7-1.2,0.8c-0.2,0.1-0.8-0.2-0.9-0.4
				c-5.8-12.6-10.6-16.7-19.6-22.6c-3.3-2.2-7.4-3.9-11.9-2.7c-1.6,0.4-3.3,0.6-4.9,0.7c-5.9,0.3-11.1,2.9-16.4,5.1
				c-2.4,1-4.9,1.6-6.8,3.5c-0.4,0.4-1.4,0.3-2.1,0.1c-0.3-0.1-0.7-1.2-0.5-1.3c1.8-1.6,3.5-3.6,5.6-4.5c3.4-1.5,6.7-3.4,10.2-4.8
				c2.1-0.8,4.1-1.8,6.5-2c1.5-0.1,3.4,0.3,4.4-1.6c0.1-0.2,0.8-0.3,1-0.1c2.7,2.4,5.7-0.3,8.8,0.6c11.7,3.3,19.5,10.9,25.5,20.9
				C388.5,661.6,388.8,664.1,389.4,665.9"/>
			<path id="Fill-51" class="st0" d="M119.3,233c-0.9,0.1-2,0.3-2,0.3c-0.5-2.5-2.4-1.3-3.8-1.5c-5.8-1-11.4,0.7-17.2,1.2
				c-2.3,0.2-4.4,0.9-6.5,1.9c-5.4,2.5-10.6,5.3-15.5,8.8c-6.2,4.4-12,9.3-17.3,14.8c-0.4,0.5-1.1,0.8-1.8,1
				c-0.5,0.1-1.2,0.1-1.5-0.2c-0.3-0.3-0.4-1.1-0.1-1.4c1.6-2.2,3.1-4.7,5.1-6.5c2.3-2.1,4.6-4.3,6.9-6.4c4.8-4.4,9.9-8.3,15.9-11.1
				c3.2-1.5,6.4-3.2,9.8-4.3c3.6-1.2,7.5-1.2,11.3-1.8c4.2-0.6,8.2,0.1,12.2,1.6c1.4,0.5,2.4,1.4,3.6,2.1
				C118.8,231.5,118.9,232.2,119.3,233"/>
			<path id="Fill-53" class="st0" d="M279.4,515.5c0.2-1.4,0.3-3.5,1-5.4c2.6-6.9,6.7-12.7,12.8-16.9c0.8-0.6,1.4-1.3,2.2-0.4
				c0.3,0.3,0,1.4-0.4,1.9c-1.3,1.8-2.7,3.4-4,5.3c-1.7,2.5-3.5,5-4.6,7.7c-3.4,7.9-0.8,12.8,4.7,18c2.2,2.1,5.3,3.5,8.1,5
				c3.2,1.6,6.5,3,9.9,4.2c1.3,0.5,1,1.4,1,2.1c0,0.4-0.9,1.3-1.2,1.2c-7.9-2.5-16.2-4.1-22.5-10.1
				C283,524.8,280.7,520.9,279.4,515.5"/>
			<path id="Fill-55" class="st0" d="M384.6,504c2.1,8.5-1.1,14.8-6.2,20c-3.6,3.7-12.2,6.7-17.3,2.6c-1-0.9-2.6-1.1-3.6-2
				c-0.4-0.4-0.1-1.7-0.1-2.5c0.6,0.1,1.5-0.1,1.9,0.2c4.1,3.4,8.5,1.2,12.9,1c2-2.2,4.8-4.1,6-6.7c1.8-4,3.7-8.4,2-13.1
				c-1-2.9-1.9-5.9-3.7-8.4c-2.3-3.2-4.7-6.2-7-9.4c-0.3-0.4-0.2-1.2-0.3-1.8c0.6,0.1,1.4-0.1,1.9,0.2c5.3,3.6,9.6,7.9,12.2,14
				C384.2,500.4,384,502.7,384.6,504"/>
			<path id="Fill-57" class="st0" d="M373.8,419.4c2.4,0.2,5,0,7.2,0.7c2.2,0.7,4.2,0.3,6.3,0.2c5.2-0.3,10.3-0.5,15.5-1
				c6.7-0.6,12.6-3.6,18.7-6.2c2.2-0.9,4.9-1.6,6.2-3.3c1.6-2,4.8-1.8,5.8-4.5c0.2-0.5,1.7-0.4,2.4-0.8c1.1-0.6,1.5-3.3,3.1-1.6
				c1.2,1.3-0.9,2.5-1.7,3.5c-0.7,0.9-1.7,1.7-2.7,2.3c-5.3,3.6-10.3,7.8-16.5,10c-2.6,0.9-4.9,2.5-7.7,2.9
				c-1.2,0.1-2.3,0.5-3.4,1.1c-1.8,1-4.4,1.7-6.3,1c-2.6-0.9-4.9,0-7.4,0c-1.1,0-2.4,0.6-3.2,0.1c-3-1.9-6.2-1.1-9.3-0.7
				c-0.5,0.1-1.4,0.4-1.6,0.2c-2.6-2.7-5.7-1.2-8.7-1.1c-0.4,0-0.8-0.5-1.2-0.7c0.4-0.5,0.6-1.2,1.1-1.4c1-0.3,2.2-0.3,3.2-0.5
				C373.8,419.6,373.8,419.5,373.8,419.4"/>
			<path id="Fill-59" class="st0" d="M59.3,190.5c5.1-1.7,10.4-3.1,15.4-5.1c5.2-2.1,10.1-4.8,14.6-8.2c2.4-1.9,5.4-2.8,8.1-4.2
				c1.8-0.9,4.7,0,7.1,0.5c2,0.4,3.9,1.6,6.1,0.9c0.2-0.1,0.8,0.7,0.8,1c0,0.4-0.5,1.1-0.8,1.1c-2.4-0.1-4.7,0.9-7.4,0.2
				c-2.9-0.8-6.2,0.3-9,2.4c-4.5,3.4-9.1,6.4-14.4,8.7c-5.5,2.4-10.8,5-17,5.1c-0.7,0-1.6,0.4-2.1,0.1c-2.8-1.6-5,0.1-7.3,1.2
				c-0.6,0.3-1,1.1-1.6,1.2c-0.7,0.2-1.9,0.8-2.3-0.5c-0.1-0.4,0.6-1,0.9-1.5C52.6,190.2,56.1,190.5,59.3,190.5"/>
			<path id="Fill-61" class="st0" d="M437.4,643.4c0.1-1.2-0.1-2.2,0.2-2.9c3.4-6.3,5.8-13,9.5-19c3.7-5.9,6.5-12.4,10.3-18.2
				c3.8-5.8,6.7-12.3,12.5-16.6c0.3-0.2,0-1.1,0.3-1.4c0.3-0.3,1.1-0.5,1.4-0.3c0.4,0.2,0.7,1,0.6,1.3c-0.6,1.4-1.3,2.9-2.1,4.2
				c-4.3,6.3-8.1,12.8-12,19.4c-6.4,11-12.7,22.1-18.4,33.5c-0.3,0.5-0.8,0.9-1.2,1.4C438.1,644.1,437.7,643.7,437.4,643.4"/>
			<path id="Fill-63" class="st0" d="M361.5,376.9c-0.1,0-1,0-1.1-0.2c-0.2-0.6-0.2-1.6,0.1-1.8c2-1.3,0.3-3.9,2-5.3
				c0.2-0.1,0.1-0.8-0.1-1c-3.3-3-0.5-4.5,1.4-6.3c0.6-0.6,1.4-1.1,1.8-1.8c0.2-0.3-0.4-1.5-0.8-1.5c-0.9-0.1-1.8,0.2-2.7,0.3
				c-1,0-1.5-1-0.9-1.8c0.5-0.8,1-1.8,1.7-2.1c2.3-1,2.4-2,0.6-3.7c-0.4-0.4-0.1-2.3,0.5-2.8c1.4-1.2,2.8-2.8,4.9-2.5
				c1,0.1,2.2,0.6,2.7,1.3c0.8,1.1-0.5,2-1.1,2.7c-0.5,0.5-2.6,0.2-0.6,1.7c1.5,1.2-2,2.8,0.3,4.1c2.1,1.2-0.4,2.4-0.3,3.8
				c0.1,0.9-0.6,1.7,0.6,2.3c1.2,0.5,1.7,1.8,1.3,2.7c-1.7,4.3-3.1,8.9-7.5,11.5c-0.3,0.2-0.6,0.4-0.9,0.5
				C363,376.8,362.5,376.8,361.5,376.9"/>
			<path id="Fill-65" class="st0" d="M404.7,360.3c-2.4-0.4-4.9-0.8-7.4-1.4c-1.5-0.4-2.9-1.6-4.3-1.5c-1.7,0.1-2-0.8-2.6-1.8
				c-1.4-2.1-1.4-2.2,0.9-2.6c0.7-0.1,1.5-0.3,2.2-0.3c1.8,0,2.6-0.5,2.2-2.6c-0.4-2.1,0.4-2.7,2.7-2.2c2.5,0.5,4.9,1.2,7.4,1.7
				c1,0.2,2.1,0.1,3.2-0.1c1.1-0.1,1-0.6,0.2-1.2c-1.3-1-0.3-1.9,0.3-2.7c0.7-0.9,1.4-0.8,2.3-0.2c0.7,0.4,1.7,0.5,2.4,0.9
				c1.7,1,2,2.7,0.5,4c-1.5,1.4-3.2,2.6-5,3.5c-0.7,0.4-1.9-0.3-2.9-0.5c-0.9-0.2-1.9-0.7-2.7-0.5c-0.9,0.3-1.7,1.2-2.4,1.8
				c-0.3,0.2-0.5,0.6-0.7,0.9c0.4,0.2,0.9,0.5,1.2,0.5c3.3-0.4,6.5-0.9,9.8-1.2c0.3,0,0.8,0.5,1,0.9c0.1,0.2,0,0.9-0.2,0.9
				C410.2,357.8,407.5,359,404.7,360.3"/>
			<path id="Fill-67" class="st0" d="M336.7,533.6c-2.6,1.1-5.3-0.9-8-1.6c-1-0.3-1.9-1.3-1.6-2.5c0.1-0.5,0.7-0.9,1.1-1.4
				c1.5,1.5,3.5,0.1,5.1,0.7c4,1.5,6.7-0.3,9.1-3.3c2.2-2.8,4.2-5.8,7.1-8.1c4-3.2,8-6.2,13.5-6.1c0.8,0,1.7,0.4,2.4,0.8
				c0.4,0.2,0.7,0.9,0.7,1.3c0,0.3-0.7,0.8-1.1,0.9c-5.6,0.6-9.5,4-13.1,7.8c-2.5,2.6-4.7,5.3-7.2,8
				C342.6,532.1,340,533.2,336.7,533.6"/>
			<path id="Fill-69" class="st0" d="M488.8,242.4c-9.1,1.3-17.2-1.3-24.4-6.9c-3-2.3-5-5.6-6.2-9.3c-0.2-0.6,0.1-1.3,0.2-2
				c0.6,0.1,1.4,0.1,1.9,0.4c1.1,0.8,2.7,1.4,2.5,3.2c0,0.3,0.2,0.7,0.4,0.9c7,5.9,14.4,10.8,24.3,9.3c3.3-0.5,6.5-0.8,9.8-1.3
				c0.7-0.1,1.3-0.4,2-0.6c0.4-0.1,0.7-0.3,1.1-0.4c0,0.5,0.3,1.2,0,1.5c-1.9,1.9-4,3.8-6.7,4.5
				C492.1,242.1,490.5,242.2,488.8,242.4"/>
			<path id="Fill-71" class="st0" d="M392.8,166.6c-0.7-0.6-1.3-0.9-1.5-1.4c-0.1-0.2,0.3-0.9,0.6-1.2c4.9-3.3,8.8-7.6,12.2-12.4
				c2.1-2.9,3.4-6,4.1-9.5c1.1-6.1,3.4-11.8,7.8-16.3c0.4-0.4,1.2-0.4,1.8-0.6c0,0.6,0.3,1.3,0.1,1.9c-0.8,2.1-2.1,4-2.6,6.1
				c-0.9,3.5-3.5,6.5-2.5,10.4c-1.9,5.7-4.3,11.2-8.9,15.3c-2.4,2.1-5.2,3.8-7.9,5.6C395.1,165.3,394.1,165.9,392.8,166.6"/>
			<path id="Fill-73" class="st0" d="M423.9,347.6c0.6,0.1,2.3,0.2,4,0.6c1.3,0.3,1.2,1.2,0.1,2.2c-0.5,0.4-1.1,0.8-1.6,1.3
				c-0.2,0.2-0.4,0.6-0.3,0.8c0.3,0.8,5.3,3.2,6,2.9c0.3-0.2,0.5-0.8,0.7-1.2c0.3-1,0.8-2,0.7-2.9c-0.3-1.8,0.9-1.9,1.9-1.8
				c1.2,0.1,2.3,0.5,3.4,1c2.1,1,2.1,2.1,0.2,4.1c-0.8,0.8-1.2,1.9-2,2.6c-1.1,1-2.6,2.5-3.7,2.4c-1.9-0.2-4.2,0.3-5.9-1.3
				c-0.3-0.2-0.6-0.4-0.9-0.7c-1-1-1.9-1.5-2.7,0.2c-0.2,0.4-0.7,0.8-1.1,1.1c-1.4,0.9-2.7,1.9-4.5,0.7c-0.8-0.5-2-0.5-2.9-0.8
				c-0.9-0.3-1-1.6-0.2-2.1c0.3-0.2,0.7-0.1,1-0.2c1.2-0.6,2.8-1.1,3.4-2.1c0.5-0.9-0.3-2.4-0.3-3.7
				C419,348.8,420.1,348.1,423.9,347.6"/>
			<path id="Fill-75" class="st0" d="M492.3,295.9c-0.5,0.8-0.8,1.4-1.3,1.7c-0.2,0.1-1-0.2-1.3-0.5c-2.6-2.6-5.1-5.4-7.9-7.7
				c-3.1-2.6-6-5.5-8.5-8.6c-2.1-2.6-3.9-5.5-5.7-8.4c-0.4-0.7-0.7-2-0.3-2.7c1.1-1.9,0.4-3.8,0.3-5.7c0-0.3,0.5-0.9,0.9-1
				c0.4-0.1,1.1,0.3,1.2,0.6c0.6,1.6-0.2,3.7,1.7,4.9c0.4,4.9,4.1,7.9,7,11.2c3.4,4,7.3,7.5,10.8,11.4
				C490.5,292.4,491.2,294.1,492.3,295.9"/>
			<path id="Fill-77" class="st0" d="M208,601.5c0.8,0,1.2-0.1,1.5,0.1c0.8,0.5,1.6,1,2.2,1.7c4.2,4.6,8.3,9.2,12.5,13.8
				c1.9,2.1,3.8,4.1,5.8,6c2.4,2.3,5,4.5,7.5,6.8c0.5,0.4,0.7,1.2,0.8,1.8c0.1,0.4,0,1.2-0.4,1.4c-0.3,0.2-1.1,0.1-1.5-0.1
				c-4.9-3.6-9.8-7.3-14-11.8c-2.6-2.8-4.8-5.9-7.6-8.5c-2.7-2.5-3.6-6.3-6.8-8.4C207.6,604,208,602.5,208,601.5"/>
			<path id="Fill-79" class="st0" d="M438.9,568.3c-0.4,0.6-0.9,1.6-1.5,1.9c-0.6,0.2-1.9-0.2-2.3-0.8c-0.6-0.8-1-2-0.9-3
				c0.3-2.7-1.9-4.6-2.1-7.1c-4.5-5.2-7.2-11.8-13-16c-1.8-1.3-3.4-3.1-5-4.8c-0.3-0.3-0.5-1.1-0.3-1.4c0.2-0.4,0.9-0.6,1.3-0.6
				c0.7,0,1.4,0.1,2,0.5c2.1,1.5,4.4,2.8,6.1,4.7c2.4,2.7,5.4,4.9,7.1,8.2c0.6,1.2,2.1,2,2.6,3.2c0.9,2,2.4,3.8,2.5,6.2
				c0.2,2.8,0.4,5.7,2.9,7.7C438.5,567.3,438.6,567.7,438.9,568.3"/>
			<path id="Fill-81" class="st0" d="M386.6,359.1c0.6,2.9-1.9,4.9-4.8,4c-1.4-0.4-2.8-1.8-4.1,0.5c-0.3,0.5-1.7,0.4-2.6,0.4
				c-0.4,0-1-0.5-1-0.8c-0.1-0.4,0.2-0.9,0.5-1.3c1.3-1.4,1.3-1.3-0.2-2.2c-1.2-0.7-1.3-1.3-0.2-2.2c0.5-0.4,1.1-0.8,1.6-1.3
				c0.2-0.2,0.2-0.5,0.4-0.8c-0.3-0.1-0.7-0.3-1-0.2c-0.5,0-1.2,0.3-1.6,0.1c-0.4-0.1-0.8-1-0.7-1.2c0.9-1.5,1.5-3,3.6-3.6
				c2.7-0.8,5.1-1.4,7.3,1c0.4,0.4,0.9,0.7,1,1.2C385.5,354.7,386,356.9,386.6,359.1"/>
			<path id="Fill-83" class="st0" d="M223.7,451.9c-0.5,0.5-0.8,1.1-1.1,1.1c-1.4,0-2.2,0.9-3.1,1.9c-1.4,1.6-2.9,3-4.4,4.5
				c-2.1,2.2-4.1,4.4-6.1,6.7c-4.4,4.9-8.8,9.8-13.2,14.6c-0.3,0.3-1.2,0.1-1.8,0.2c0-0.5-0.2-1.1,0-1.5c1.3-1.8,2.7-3.5,4-5.3
				c1.5-2,2.7-4.2,4.2-6.2c1.5-1.9,3.2-3.6,4.7-5.5c3.4-4,7.4-7.2,11.6-10.2c1.3-1,2.6-1,3.9-1.3
				C222.8,450.8,223.2,451.4,223.7,451.9"/>
			<path id="Fill-85" class="st0" d="M357.1,420.3c-0.1-1.1-0.3-1.5-0.2-1.8c0.2-0.4,0.5-0.8,0.9-1c0.2-0.1,0.8,0,1,0.2
				c4.1,4.4,8,9.2,12.4,13.3c3.5,3.3,7.4,6.1,12.1,7.6c0.4,0.1,0.7,0.8,0.7,1.2c0,0.3-0.6,0.8-1,0.9c-1.8,0.8-3.6,0-5.1-0.6
				c-6.5-2.9-11.8-7.8-16.9-14.7c-0.8-1.1-1.8-2.1-2.7-3.2C357.8,421.5,357.3,420.6,357.1,420.3"/>
			<path id="Fill-87" class="st0" d="M519.7,346.3c-6.6-0.5-12.9-1-18.8-3.4c-1-0.4-1.6-1.9-3-2.2c-0.3-0.1-0.2-1.6-0.3-2.5
				c0.6,0,1.3-0.3,1.9-0.1c3.5,1.2,7.1,2.3,10.9,2.7c1.5,0.2,3.1,0.3,4.6,0.3c1.4,0,2.7,0.5,4,0.5c2.2,0.1,4.7,1,6.5-1.3
				c0.2-0.2,1.1,0,1.5,0.2c0.2,0.1,0.4,0.8,0.3,1.1c-0.5,1.1-0.2,2.7-2.5,2.8C523.1,344.5,521.3,345.7,519.7,346.3"/>
			<path id="Fill-89" class="st0" d="M513.8,385.8c0.4,0,0.8-0.2,1.1-0.1c0.4,0.2,0.8,0.5,1.1,0.9c0.1,0.2,0,0.8-0.2,0.9
				c-3.5,2-5,5.6-7.4,8.5c-2.4,2.8-3.9,6.2-5.5,9.5c-0.7,1.4-2.5,2.3-3.9,3.3c-0.2,0.1-0.6-0.1-1-0.2c0.1-0.3,0.2-0.5,0.3-0.8
				c0.6-2.3,1.1-4.6,1.9-6.9c1.8-5,5.2-9,8.5-12.9c1.1-1.3,3.2-1.8,4.9-2.6C513.6,385.5,513.7,385.6,513.8,385.8"/>
			<path id="Fill-91" class="st0" d="M327.3,559.6c0.3-1.4,0.6-2.7,0.9-4c0.8-3.5,3.4-6,4.7-9.2c0.7-1.7,2.2-1.6,3.7-1.7
				c0.4,0,1.2,0.2,1.3,0.5c0.2,0.4,0,1-0.2,1.5c-0.3,0.6-0.9,1.2-1.3,1.8c-3.4,4.6-4.2,9.6-2.6,15c0.4,1.4,1.6,2.5,2.4,3.9
				c0.2,0.4,0.4,1.1,0.3,1.4c-0.2,0.4-0.9,0.5-1.4,0.6c-0.5,0.1-1.2,0.1-1.5-0.2C330.9,566.4,328.9,563.3,327.3,559.6"/>
			<path id="Fill-93" class="st0" d="M165.1,202.9c0,1.8-0.1,4.5-0.2,7.1c0,0.2-0.6,0.7-0.7,0.6c-0.5-0.2-1.3-0.5-1.4-1
				c-1-3.1-2.4-6.1-3.3-9.2c-1.2-4.1-3.4-7.4-5.7-10.8c-0.4-0.6-0.6-1.3-1-1.7c-1.1-1-1.4-2.2-0.4-3.2c0.2-0.2,2.1,0.8,2.9,1.5
				c1.6,1.6,3,3.3,4.5,5C162.1,194,164.6,199,165.1,202.9"/>
			<path id="Fill-95" class="st0" d="M500.9,270.8c3.3-0.8,7.4-0.2,10.9-2.5c1.1-0.7,2.8-0.5,4.3-0.6c0.3,0,0.8,0.6,1,1
				c0.1,0.2,0,0.8-0.2,0.9c-3.5,1.7-6.2,5.2-10.6,4.9c-0.7,0-1.8-0.1-2.1,0.3c-2.9,3.3-6.3,0.1-9.3,0.7c-0.7,0.1-1.7-0.3-2.3-0.8
				c-0.6-0.5-1-1.3-1.5-2c0.6-0.3,1.2-0.7,1.9-0.8C495.4,271.5,497.9,271.2,500.9,270.8"/>
			<path id="Fill-97" class="st0" d="M416,555.3c0.4,0.1,0.7,0.1,0.7,0.1c0.1,2.4,2.5,3.3,3.3,5.1c0.9,2.3,1.4,4.7,2.1,7
				c0.6,2.2,1.3,4.3,2,6.5c0.6,2,0,4.2,1.6,6.1c0.7,0.9-0.2,3.2-0.5,4.8c0,0.2-0.6,0.4-0.9,0.3c-0.3,0-0.6-0.3-0.9-0.4
				c0.9-2-3.5-3.3-0.8-5.7c0.1-0.1,0-0.7-0.2-1c-1.9-2.2-2.3-5-3.3-7.5c-1-2.5-1-5.3-2.1-7.6c-1.1-2.3-1.6-4.7-1.8-7.1
				C415,555.8,415.7,555.5,416,555.3"/>
			<path id="Fill-99" class="st0" d="M209.5,446.9c-0.2,0.4-0.4,1.2-0.6,1.2c-3.7-0.3-5.1,3.4-8,4.5c-2.8,1-5,2.8-7.1,4.9
				c-2,2-4.6,3.5-6.8,5.3c-0.8,0.7-1.6,1.1-2.1,0.1c-0.3-0.7-0.3-2.1,0.1-2.5c2.9-2.7,5.9-5.3,8.9-7.8c0.8-0.7,1.6-1.2,2.4-1.9
				c3.7-2.9,7.9-4.2,12.5-4.6C209,446,209.2,446.5,209.5,446.9"/>
			<path id="Fill-101" class="st0" d="M191.4,427.6c-0.3,0.3-0.7,0.7-0.8,0.6c-0.6-0.3-1.2,0.1-1.8,0.7c-1.1,0.9-2.2,1.6-3.2,2.5
				c-1.5,1.2-3.1,2.5-4.6,3.7c-3.3,2.7-6.7,5.5-10,8.2c-0.2,0.2-0.5-0.2-0.8-0.3c0.2-0.4,0.3-0.9,0.5-1.2c1.1-1.1,2.2-2.1,3.3-3.2
				c1.2-1.2,2.4-2.6,3.7-3.8c1.2-1.1,2.4-2.1,3.7-3.1c2.6-2.3,5.3-3.9,8-5.2c0.9-0.4,1.4-0.2,2,0
				C191.4,426.6,191.4,427.1,191.4,427.6"/>
			<path id="Fill-103" class="st0" d="M190.3,427.1c-0.2,0.3-0.5,0.9-0.6,0.8c-1.4-1.2-3.2,1.4-4.7,1.5c-1.5,0.1-2.9,1-4.5,2.1
				c-1.5,1.1-3,1.6-4.5,2.5c-0.5,0.3-1,0.4-0.9-0.5c0.1-0.6,0.5-1.7,0.8-1.9c2-1.4,4.1-2.7,6.1-4c0.5-0.3,1.1-0.6,1.6-0.9
				c2.4-1.4,4.6-1.4,6.6-0.6C190.4,426.2,190.3,426.7,190.3,427.1"/>
			<path id="Fill-105" class="st0" d="M314.6,527.5c-0.3-0.1-1.5-0.5-2.3-1.2c-3-2.7-6.5-3.2-10.3-2.6c-1.1,0.1-2.7,0.6-3.1,0.1
				c-0.8-1.1-3.1,0.3-2.8-1.7c0.1-0.7,1.2-1.5,2.1-1.9c6-3.2,14.8-0.9,18.7,4.8C318.1,526.8,317.9,527.2,314.6,527.5"/>
			<path id="Fill-107" class="st0" d="M355.5,434.9c0.1-2.6,0.1-5.2,0.3-7.8c0-0.2,0.5-0.6,0.8-0.6c0.5,0,1.3,0.2,1.3,0.4
				c0.4,3.5,2.7,6.5,2.6,10.2c-0.1,3,2.1,5.3,3.4,7.9c0.4,0.8,3-0.1,2,2c-0.6,1.2-3.7,0.9-4.8-0.1c-0.1-0.1-0.3-0.2-0.4-0.3
				C358.7,442.8,355.6,439.6,355.5,434.9"/>
			<path id="Fill-109" class="st0" d="M445.7,410.2c0.6,0,1.4-0.2,2,0.1c6,2.6,11.9,5.5,15.8,11.1c0.3,0.5,0.2,1.2,0.3,1.8
				c-0.6,0-1.4,0.1-1.9-0.2c-3.6-2.3-7.1-4.8-10.7-7.2c-1.9-1.3-3.9-2.3-5.9-3.6c-0.3-0.2-0.5-0.9-0.5-1.4
				C444.8,410.7,445.3,410.5,445.7,410.2"/>
			<path id="Fill-111" class="st0" d="M441.2,422c3.9,0.5,9.2-1.1,13.6,2.5c0.4,0.3,1.6-0.4,2,0c0.6,0.4,0.9,1.4,1,2.1
				c0,0.3-0.8,0.8-1.3,1.1c-0.3,0.2-0.8,0.3-1.1,0.1c-4-2.1-8.3-1.7-12.6-1.6c-1.7,0.1-2.4-1.4-3.7-1.8c-0.9-0.2-2.4,1-2.6-0.7
				c-0.3-2.2,1.7-1.1,2.7-1.6C439.5,422.1,439.9,422.2,441.2,422"/>
			<path id="Fill-113" class="st0" d="M388.5,348.9c-1.7,0-4.4,0.3-6.9-0.3c-2.1-0.6-3.6-1.2-5.4,0.5c-0.2,0.2-1.2-0.3-1.6-0.7
				c-0.3-0.4-0.5-1.3-0.3-1.8c0.4-0.9,4.6-3.2,5.7-3.2c1.4-0.1,11,2.3,12.3,3c0.2,0.1,0.5,0.6,0.4,0.9c-0.1,0.4-0.4,1-0.7,1.1
				C391.4,348.7,390.4,348.7,388.5,348.9"/>
			<path id="Fill-115" class="st0" d="M444.7,360.1c0.1,1.2-1.8,3.3,1.3,2.4c0.5-0.1,1.1-0.3,1.6-0.2c3.2,0.4,4.3,3.3,2.4,6
				c-0.2,0.2-0.6,0.4-0.9,0.5c-2.1,0.6-5.8-1.1-5.8-3.1c0-2.5-2-2.4-3.2-3.3c-0.6-0.4-2,0.3-1.9-1.1c0.1-1.3,0.8-2.5,2.3-2.4
				c1.2,0,2.3,0.3,3.5,0.6C444.4,359.5,444.6,360,444.7,360.1"/>
			<path id="Fill-117" class="st0" d="M456.2,360.5c-0.3,0.7-0.5,1.4-0.9,1.8c-0.2,0.2-1.1,0-1.4-0.3c-1.2-0.9-2.2-1.4-3.9-1.2
				c-3.2,0.5-5.4-1.4-6.8-4.1c-0.2-0.3,0.3-1.4,0.7-1.6c0.8-0.3,2.3-0.7,2.6-0.4c2.2,2.7,6.1,0.4,8.2,3
				C455.3,358.5,455.6,359.5,456.2,360.5"/>
			<path id="Fill-119" class="st0" d="M404.6,347.1c-2.1-0.5-4.4-0.9-6.6-1.6c-1.3-0.4-1.2-1.5-0.1-2.3c2.9-2.1,4.6-2,7.9,0.5
				c0.6,0.5,1,1.3,1.5,2C406.5,346.2,405.8,346.6,404.6,347.1"/>
			<path id="Fill-121" class="st0" d="M201.8,363.9c-0.7,0-1.5-0.1-2.2-0.1c-1.9,0.2-1.9-0.9-1.9-2.3c0-1.5,0.3-2.4,2.1-2.1
				c0.9,0.1,1.8,0.1,2.7,0.1c1,0.1,3,2.3,2.9,3.5c0,0.4-0.6,0.9-0.9,1C203.6,364.1,202.7,363.9,201.8,363.9"/>
			<path id="Fill-123" class="st0" d="M450.1,236.4c-0.2-0.2-0.4-0.4-0.6-0.6c0.2-0.1,0.6-0.3,0.6-0.3c0.2,0.2,0.3,0.5,0.4,0.8
				C450.5,236.3,450.3,236.3,450.1,236.4"/>
			<path id="Fill-125" class="st0" d="M427,631c-0.2,0.2-0.4,0.4-0.6,0.6c-0.1-0.2-0.3-0.6-0.3-0.6c0.2-0.2,0.5-0.3,0.8-0.4
				C427,630.7,427,630.9,427,631"/>
			<path id="Fill-127" class="st0" d="M328.6,85.8c1.1,4.6,1,9.2,0.7,13.9c-0.1,1.2-0.3,2.4-0.8,3.4c-2.1,4.5-3.6,9.3-6.3,13.6
				c-1.4,2.3-2.2,5.4-1.7,8.4c0.5,3.4,0.7,7,1.4,10.3c1.4,6.4-0.8,12-3.2,17.6c-0.3,0.6-0.8,1.2-0.9,1.9c-0.1,1,0.7,2.5-1.2,2.3
				c-1.5-0.1-0.9-1.7-1.1-2.7c-0.4-1.3-0.2-2.3,0.7-3.5c1.4-1.8,1.3-4.2,2.3-6.2c0.6-1.2-0.3-3.2-0.5-4.8c-0.4-2.9-0.6-5.8-1.2-8.7
				c-1.5-7.4,0.4-14.1,3.8-20.6c1.7-3.3,3-6.9,4.1-10.5c0.7-2.1-1-4.5,0.5-6.7c-0.7-5.3-1.4-10.5-2.1-15.8c-2.6-2.3-1.1-6-3.2-8.7
				c-1.8-2.3-2.5-5.5-4-8.3c-1.3-2.5-2.6-4.9-2.7-7.8c-0.1-1.5-0.5-2.6-1.8-3.7c-1.8-1.5-2-5.2-0.8-7.3c0.2-0.3,0.5-0.6,0.6-0.9
				c0.4-0.9,0-3.1,2-1.9c1.3,0.8,0,1.9-0.6,2.7c-1.3,1.5-1,3.7,0,4.4c2.3,1.5,2.1,3.5,2.7,5.6c0.5,2,2.8,3.1,2.9,5.4
				c0,0.6,0.3,1.4,0.7,1.9c3.4,4.8,6.2,9.9,7.1,15.8C328.6,78.2,327.6,82.2,328.6,85.8"/>
			<path id="Fill-129" class="st0" d="M337.2,40.1c0.3,0.1,0.9,0.2,0.9,0.4c0.1,0.5,0.1,1.4,0,1.4c-2,0.4-1.7,1.8-1.5,3.3
				c1,7.1,1.6,14.2,2.9,21.3c0.6,3.4,1.5,6.8,3.2,9.9c0.1,0.1,0.3,0.3,0.3,0.4c-0.1,3.7,1.8,6.9,2.5,10.3c1.3,6.7,0.2,13.2-1.2,19.7
				c-1.1,5-2.3,10-4.4,14.6c-3.1,7-4.2,14.4-5.8,21.6c-0.8,3.3-3.1,5.8-3.8,9c0,0.2-0.7,0.3-1,0.2c-0.3-0.1-0.7-0.3-0.8-0.6
				c-0.2-0.7-0.5-1.6-0.2-2.1c3-4.8,3-10.1,3.4-15.4c0.2-2.3,1.1-4.6,1.8-6.9c2.1-6.6,4.4-13.2,6.3-19.9c0.9-3.1,1.7-6.5,1.2-9.6
				c-0.4-2.1,1.6-3.8,0.1-6.1c-1.1-1.6-1.1-4.1-1.5-6.2c-0.4-2.2,0.1-4.8-1-6.5c-2.6-3.7-1.5-8.2-3.4-12.1c-1.8-3.8-1.4-8.6-2-13
				c-0.2-1.6-0.3-3.2,0.6-4.6c1-1.5,0.6-3,0.5-4.6C334.2,42.9,335.6,40.7,337.2,40.1"/>
		</g>
	</g>
</g>
</svg>
