<?xml version="1.0" encoding="utf-8"?>
<!-- Generator: Adobe Illustrator 20.1.0, SVG Export Plug-In . SVG Version: 6.00 Build 0)  -->
<svg version="1.1" id="Layer_1" xmlns="http://www.w3.org/2000/svg" xmlns:xlink="http://www.w3.org/1999/xlink" x="0px" y="0px"
	 viewBox="0 0 591 779" style="enable-background:new 0 0 591 779;" xml:space="preserve">
<style type="text/css">
	.st0{fill:#2403CE;}
	.st1{filter:url(#Adobe_OpacityMaskFilter);}
	.st2{fill:#FFFFFF;}
	.st3{mask:url(#mask-2);fill:#2403CE;}
</style>
<title>3</title>
<desc>Created with Sketch.</desc>
<g id="Page-2">
	<g id="_x33_">
		<g id="Page-1" transform="translate(6.000000, 3.000000)">
			<path id="Fill-1" class="st0" d="M129.1,588.1c0-0.7,0.1-1.1,0-1.4c-2.3-4.2-0.7-8.9-1.9-13.4c-1-3.9-2.2-8.3-1.4-12.6
				c0.2-1.4-0.9-1.2-1.8-1.3c-1.2-0.1-1.5,0.5-1.5,1.6c0,3.9,1.9,7.6,1.1,11.6c-0.5,3,0.7,5.9,1.6,8.6c0.7,2.2,0.3,4.9,2.2,6.7
				c0.4,0.4,0.8,0.8,1.2,1.2C128.8,588.7,129,588.3,129.1,588.1 M51,421.3c-0.1,0-0.3,0.1-0.4,0.1c0.5,1.6,1,3.3,1.5,4.9
				c0.4,1.3,0.8,2.6,1.1,3.9c1.4,7.2,4.5,13.6,8.6,19.5c0.2,0.3,0.5,0.5,0.8,0.8c0.2-0.5,0.6-1,0.5-1.4c-1-4.6-2.5-9.1-2.2-13.9
				c0-0.2,0-0.4,0-0.5c-1.4-6.7-1.4-6.7-0.1-12.3c0.1-0.4-0.5-1.4-0.9-1.5c-1.1-0.1-1.9-0.4-2.9-1c-0.9-0.6-2.4,0-3.3-1.2
				c-0.4-0.6-1.5-0.7-2.2-1c-0.2,0.7-0.4,1.3-0.5,2C50.9,420.2,51,420.7,51,421.3 M59.3,416.7c1.9,0.3,2.4-0.7,3.1-2.2
				c0.9-2,2.2-3.9,3.4-5.7c0.6-0.9,0.4-0.9-0.5-1.2c-2.2-0.8-4.5-1.5-6.5-2.7c-4.8-2.8-9.6-5.6-13.4-10c-0.1-0.2-0.5-0.2-0.8-0.2
				c-0.1,0.3-0.3,0.7-0.3,1c0.3,1,0.9,1.9,1,2.8c0.8,7.5,5.3,12.6,11.2,16.8C57.4,415.9,58.4,416.2,59.3,416.7 M473.7,585.8
				c-0.4,3.3-0.8,6.6-1.4,9.9c-0.1,0.4-0.8,1-1.4,1.1c-0.8,0.1-1.9,0.3-1.9-1.1c0-1.3,0.1-2.6,0-3.8c-0.1-1-0.5-2-0.8-2.9
				c-0.1-0.3-0.5-0.5-0.8-0.8c-0.2,0.3-0.5,0.5-0.6,0.8c-0.4,2.1-0.1,4.1-0.7,6.3c-0.8,2.7-1,5.8-1.4,8.8c-0.2,1.8,0.3,2,2.1,1.3
				c3.4-1.5,5.6-4.5,8-7.1c2.7-2.8,8-15.1,8.5-19c0.2-1.4,0.4-3-1.2-3.9c-5.5-3-8.7-7.4-8.7-13.9c0-0.2-1.3-0.8-1.6-0.6
				c-0.7,0.5-1.5,1.3-1.6,2c-0.5,3.7-0.8,7.4-1.2,11.1c-0.1,0.9,0.4,2.2-0.1,2.7c-2.1,2.3-0.5,4.9-1,7.3c-0.1,0.3,0.3,0.6,0.4,0.9
				c0.4-0.3,1-0.6,1.1-1c0.3-1.5,0.4-3.1,0.7-4.7c0.1-0.3,0.7-0.6,1.1-0.8c0.2-0.1,0.8,0.2,0.9,0.4
				C473.5,580.8,473.8,583.3,473.7,585.8 M54.3,522.3c-0.5,4.3,2,8.3,3.5,12.5c1.4,3.8,3.4,7.4,5.4,11c3.8,6.7,8.5,12.7,14.4,17.7
				c2.1,1.8,4.8,2.5,7.2,3.7c0.3,0.2,1.2-0.2,1.3-0.5c0.2-0.3-0.1-1.3-0.3-1.4c-4.2-1.6-5.6-5.5-7.7-8.9c-0.5-0.8-0.4-2-0.9-2.9
				c-0.4-0.8-1.5-1.2-1.9-2c-0.8-1.6-1.6,1-2.4-0.1c-1.7-2.3-4-3.9-5.7-6.4c-4-5.9-7.3-12-8.7-19c-3.1-3,0.8-5.9,0.3-9
				c-0.1-0.7,2-1.8,3.2-2.5c0.4-0.2,1.3,0.2,1.9,0.5c0.1,0.1,0,1.2-0.3,1.4c-3.4,2.7-2.8,5.8-1.3,9.1c0.3,0.6,0.3,1.3,0.5,2
				c0.1,0.4,0.4,0.8,0.6,1.2c0.1-0.3,0.4-0.6,0.4-0.9c0.9-5.5,3.6-10.4,7.7-13.8c2-1.7,4.1-3.3,6.1-5.1c1.8-1.5,2.1-3.1,1.3-5.2
				c-0.7-1.9-1.5-3.8-2.3-5.6c-0.7-1.5-1.5-3-2.3-4.4c-1,1-2.1,2.1-3.1,3.1c-0.6,0.6-1.3,1.3-1.9,1.9c-4.4,4.6-9.3,8.8-12.6,14.6
				C55.4,516,54.2,518.7,54.3,522.3 M125.6,598.1c-0.4-3.8-2.1-7.5-3.7-11.1c-3-6.7-3-13.8-2.7-20.9c0.1-1.4,1-2.8,1-4.5
				c0-1.7-0.7-2.6-2.1-3.4c-3-1.5-6.3-2.5-9.2-4.3c-3.2-2-6-4.1-7.9-7.5c-2-3.6-5.2-6.6-6.7-10.4c-1.5-3.8-4.1-7-5.1-11.1
				c-0.4-1.5-2-2.6-2.3-4.6c-0.3-1.4-1.5-3-2.3-4.5c-0.8-1.5-1.7-2.9-2.2-4.6c-0.2-0.7-1-2-2.3-0.5c-1.4,1.7-3.9,2.2-5.1,4.4
				c-1,1.8-2.8,3.2-4.1,4.9c-3,4.2-2.6,12.1,0.6,16.4c0.2,0.3,0.5,0.5,0.8,0.8c0.2-0.4,0.6-0.9,0.6-1.3c0.1-1.6,0.1-3.3,0-4.9
				c-0.4-5.1,2.2-8.7,5.7-12c0.3-0.3,1.3-0.5,1.4-0.4c0.3,0.6,0.6,1.2,0.6,1.9c0,0.5-0.2,1.1-0.6,1.4c-2.5,2.3-2.9,5.1-2.7,8.2
				c0.1,2.4,0.1,4.8,0,7.1c-0.1,2.1,1.2,3.9,1.3,6.1c0,2,1.4,4.2,2.7,6c3.8,5.1,6.9,10.6,9.8,16.3c1.4,2.7,1.8,5.5,2.6,8.3
				c1,3.3-0.5,6.6-2.1,9.5c-0.7,1.2-2.1,2.2-3.4,2.9c-2.7,1.4-5.4,3.4-8.8,2.7c-0.4-0.1-0.9-0.6-0.9-0.9c0-0.4,0.5-1.2,0.7-1.2
				c3.6,0.9,4.7-3.3,7.8-3.7c1.7-0.2,0.9-2.7,1.7-3.6c1.6-1.7,0.5-2.5-0.6-3.5c-1.4-1.2-0.6-2.7-0.8-4.1c-0.3-2.2-1.2-2.9-3.4-2.1
				c-1.3,0.5-2.1,0.3-3.4-0.3c-6.4-3-11-7.7-15.5-13.1c-5.1-6.3-8.3-13.4-11.7-20.5c-2-4.1-3.1-8.6-4.4-13c-0.4-1.3-0.1-2.9,0.3-4.2
				c1.7-4.7,3.3-9.5,7.3-12.9c0.7-0.6,0.9-1.9,1.6-2.6c3.9-4.1,8.4-7.6,13.1-10.9c2.2-1.5,2.4-2.3,2-5c-0.5-3.3-1.8-6.4-1.4-9.9
				c0.5-4.3-0.6-8.3-2.9-12c-0.6-1-1.4-2.2-1.3-3.3c0.1-2.1-1.4-3.2-2.6-3.8c-4.9-2.6-7.5-7.2-10.4-11.6c-3.8-5.9-5.5-12.4-7-19.1
				c-1-4.5-1.3-9-2.1-13.4c-0.3-1.8-0.6-3.8-1.5-5.4c-2.5-4.8-3.8-10.4-4.2-14.8c-0.2-2,2.6-3.3,0.7-5.4c-1.1-1.2-1.8-2.9-2.7-4.4
				c-4.9-7.5-7.5-16-10.5-24.2c-0.5-1.3-0.2-2.8-0.5-4.2c-0.2-1.2-0.6-2.3-1.1-3.4c-1.7-3.6,0-8.1-3.1-11.4c0.3-3.8-2-7.2-1.2-11
				c0.1-0.3,0.8-0.6,1.2-0.7c0.3,0,0.9,0.3,0.8,0.5c-0.3,2.3,1.3,3.9,2,5.8c0.8,1.9,1.6,3.7,2.4,5.6c0.9,2,1.2,4.3,2.3,6.2
				c4.2,7.2,8.8,14.1,15.1,19.6c2.6,2.3,5.4,4.7,8.5,6.1c3.2,1.5,6.1,4.2,10.1,3.5c3.5-0.6,7.1,0.7,10.7-0.8c2-0.8,4.6-0.2,6.9-0.1
				c0.1,0,0.3,0.6,0.3,0.9c0,0.3-0.2,0.7-0.4,0.9c-0.3,0.2-0.7,0.1-1,0.2c-1,0.2-1.9,0.4-2.8,0.6c1,0.1,2.1,0.6,3.1,0.4
				c2.6-0.6,4.8,1.2,7.3,1.2c3-0.1,3.9-0.7,3.8-3.7c-0.3-7.3,2.3-13.9,5-20.5c3.7-9.3,8.2-18.2,12.6-27.3c1.4-2.8,2.9-5.7,4-8.8
				c1-2.9,2.4-5.6,3-8.6c0.1-0.5,0.8-0.8,0.8-1.3c0.4-3.7,0.7-7.4,1.2-11.1c0.3-2.4,0.1-5.2,1.3-7.1c1.1-1.8,0.8-3.4,0.9-5.2
				c0.2-3.3,2.4-6,5.7-6.4c0.1,0,0.6,0.7,0.5,0.8c-0.6,1.1-1.3,2-1.9,3.1c-0.8,1.3-2.3,3.1-2,4c1.1,2.8-0.5,5.3-0.1,8
				c0.1,0.6,0.5,1.1,0.8,1.7c0.5-0.4,0.9-0.8,1.4-1.1c0.5-0.4,1-0.7,1.5-1.1c0.2,0.8,0.9,1.9,0.7,2.3c-2.1,3.3-2.4,7.1-3.5,10.7
				c-0.8,2.6-1.5,5.3-2,8c-1.2,5.9-0.2,11.9-1.2,17.7c-1,5.6-0.2,11.1-1,16.6c-1.2,8.8-3.8,17.2-10.2,23.8c-0.8,0.8-1.2,0.8-2.4,0.4
				c-2-0.6-1.5-1.6-1.6-2.7c-0.1-1.3,0.1-2,1.7-2c0.9,0,2.2-0.8,2.6-1.5c1.9-4.4,3.8-8.7,4.7-13.5c1-5.6,0.7-11.1,1-16.6
				c0.2-3-0.9-6.1,1-8.9c0.1-0.1-0.4-1-0.8-1.1c-0.4-0.1-1.3,0.3-1.3,0.5c-0.9,5.2-4.3,9.2-6.3,13.9c-1.7,3.9-3,8-5.2,11.6
				c-2.2,3.7-2.2,8.3-5,11.7c0.4,5.5-3.3,11-0.2,16.7c0.3,0.6,0.1,1.4,0,2.2c-0.3,5.4,2.4,9.9,4.7,14.6c0.2,0.3,0.6,0.5,0.8,0.8
				c0.5,0.9-0.9,3,1.4,2.7c1.5-0.2,1.7-1.8,2.1-3.3c2-7,5.2-13.6,8.8-20c3.4-6.1,7.1-12,10.2-18.4c3-6.3,5.3-12.8,5.1-19.9
				c-0.1-2.2-0.1-4.4,0-6.6c0.1-3.5-1.2-6.8-1.9-10.2c-0.4-1.9,0.2-4.1-0.4-5.9c-1-3-0.1-5.5,1.2-8c0.9-1.8,1.9-3.5,4.3-3.4
				c0.4,0,0.9,0.4,1.2,0.7c0.2,0.2,0,0.7-0.1,1c0,0.2-0.2,0.3-0.4,0.4c-4,3.1-3.4,7.2-2,11.2c0.7,2,0.1,4,1.2,6.1
				c1.6,3.2,2,18.6,1.3,22c-0.7,3.2-1.6,6.3-2.8,9.3c-1.6,3.8-3.3,7.4-5.3,11c-1.9,3.5-3.8,6.9-5.9,10.2c-2,3.3-3.7,6.9-5.6,10.3
				c-1.8,3.4-3.2,7.2-4.3,10.8c-0.9,2.9-2.2,5.9-2.4,8.9c-0.3,5.5-0.5,11,0.1,16.5c0.3,2.9,2.2,5.7,4,8.2c1.5,2.2,3.8,4,5.8,5.9
				c0.3,0.3,1,0.6,1.4,0.5c0.3-0.1,0.8-0.8,0.8-1.1c-0.2-1.7,0.8-3,1.1-4.5c0.3-2,2.4-4,0.2-6.3c-0.5-0.5,0.7-2.5,1-3.8
				c0.4-2.2,0.9-4.4,1.1-6.7c0.2-2.3,1.2-4.3,2-6.4c0.8-2.1,1.3-4.2,2-6.3c1.7-5,3.9-9.7,6.5-14.4c1.9-3.5,3.5-7.3,5-11.1
				c1.5-3.8,3-7.6,4.4-11.4c1.8-4.6,2.2-9.6,4.2-14.2c0.1-0.3,0.1-0.7,0.1-1.1c0.4-4.4,0.7-8.9,1.1-13.3c0.2-1.9,0.7-3.7,1.1-5.6
				c0.6-3.1-0.7-5.9-1.1-8.9c-0.4-3,1.1-6.2-1.1-8.9c0.7-4.9-2.2-9.2-2.2-13.9c0-0.5-0.1-1.1-0.3-1.5c-1.9-4.2-1.8-8.8-3.2-13
				c-1.3-3.9-0.6-7.9-1.8-11.9c-1.1-3.7-0.4-8-0.2-12c0.2-4.1,0.7-8.1,1-12.2c0.1-1.9-0.5-2.3-2.2-1.2c-0.7,0.4-1.6,0.5-2.5,0.6
				c-2.1,0.3-4.2-0.7-6.1,1.3c-1.4,1.4-3.6,1.9-5.3,3c-6.2,4.1-11.3,9.4-16.5,14.5c-3.1,3-10.2,7.6-14.8,9.3
				c-1.1,0.4-2.4,0.3-3.7,0.5c-0.2,0-0.5,0.5-0.5,0.8c0,0.3,0,0.9,0.2,1c3.5,1.5,7.1,3.3,11,2.5c2.8-0.6,5.6-2.1,6.8-4.5
				c1.4-2.9,3.9-3.9,6-5.7c4.2-3.5,9.7-4.1,14.5-6.2c0.9-0.4,2.2-0.1,3.3,0c0.4,0,0.8,0.5,1.1,0.8c-0.4,0.5-0.7,1.2-1.2,1.3
				c-1,0.3-2.3,0-3.1,0.5c-4.7,2.9-10.2,4.3-14.1,8.5c-0.9,1-1.6,1.7-0.4,2.9c0.1,0-0.6,1-1.1,1.3c-1.4,1-3,1.7-4.3,2.8
				c-1.8,1.5-3.7,2.2-6,2.9c-1.9,0.6-4.1,0.8-5.7,2.1c-1.6,1.3-3.2,2.1-5.2,2.1c-0.2,0-0.5,0.4-0.8,0.6c0.3,0.2,0.6,0.4,0.9,0.5
				c1.9,0.9,3.5,1.3,5.9,0.5c4.9-1.5,9.8-2.8,14.5-4.8c0.6-0.3,1.4-0.2,2.1-0.1c0.3,0,0.7,0.5,0.7,0.7c0,0.5-0.4,1.4-0.5,1.4
				c-2.7-0.7-3.3,3.3-6,2.7c-1.5,2.2-4.3,2-6.4,3.1c-3.4,1.6-6.7,3-10.9,1.1c-2.9-1.3-6.6-0.9-9.9-1.3c-2.8-0.3-5.7-0.3-8.3-1.2
				c-3.5-1.3-7.3-1.5-10.8-3c-3.5-1.5-6.9-2.9-10-5.1c-0.4-0.3-1.2-0.1-1.9-0.2c0,0.5-0.3,1.1,0,1.5c1.1,1.6,2,3.4,3.5,4.6
				c6.3,4.9,13.1,8.4,21,10.3c7.8,1.8,15.4,4.6,21.8,9.6c2.1,1.6,4.1,3.3,6.1,5.1c0.1,0.1-0.5,1.6-0.7,1.6c-2.1-0.2-4.3-0.2-6.1-1.2
				c-1.6-0.8-3-1-4.6-1c-3.7,0-7.3,0.1-11,0c-4.6-0.2-9.3-0.5-13.8-1.1c-2.1-0.3-4.2-1.2-6.2-2.2c-5.3-2.4-11-3.7-15.5-7.7
				c-1.9,0.4-1-1.5-1.8-2.1c-0.3-0.2-0.4-0.5-0.6-0.8c0.5-0.1,1-0.5,1.5-0.4c0.8,0.2,1.5,0.7,2.3,1c6.5,2.5,13,4.9,19.5,7.4
				c0.3,0.1,0.6,0.3,1,0.3c6.1,0.4,12.2,0.8,18.2,1.1c0.5,0,1-0.3,1.4-0.5c-0.5-0.2-0.9-0.3-1.4-0.6c-3.3-1.5-6.8-2.2-10.1-3.4
				c-5.1-1.8-10.4-2.9-15.2-5.9c-3.9-2.4-7.1-5.3-10.2-8.4c-3.4-3.5-3.4-7-1.6-11.1c0.6-1.2,1.3-1.2,2.2,0c0.4,0.5,0.8,1.3,1.2,1.3
				c2.5-0.4,4.3,0.8,6.3,2.2c1.9,1.3,4.4,1.6,6.7,2.3c0.3,0.1,0.6-0.2,1-0.3c-0.1-0.3-0.2-0.6-0.3-0.8c-0.9-0.9-1.7-2-2.7-2.7
				c-1.5-1.1-1.1-2.6-1.1-4c0-0.4,0.6-0.9,0.9-1c0.4,0,1.1,0.3,1.2,0.7c1.5,3.6,4.7,4.6,8,6c3.1,1.3,6.2,2.1,9.6,2.2
				c3.1,0,8.7-0.3,10.7-1.4c0.2-0.1,0.4-0.6,0.4-0.9c0-0.3-0.2-0.8-0.4-0.9c-7-2.2-13.2-6.3-20-8.9c-4-1.5-7-4.4-10.5-6.4
				c-1.3-0.8-2.3-1.5-3.8-1.4c-0.6,0-1.5-0.3-1.8-0.8c-0.5-0.9-0.6-1.9-0.9-2.9c1-0.1,2-0.4,2.9-0.4c0.4,0,0.7,0.8,1.2,1.1
				c0.3,0.2,0.8,0.4,1.2,0.5c0.1-0.5,0.4-1.2,0.2-1.5c-1.4-2.3-1-4.8-1-7.3c0-0.3,0.4-0.7,0.6-0.7c0.5,0,1.4,0.2,1.4,0.4
				c0.4,2.2,2.2,3.6,3.1,5.4c2.5,5,7.3,6.8,11.6,9.1c1.4,0.8,3.5,0.3,5.3,0.5c2.9,0.3,7.5-0.3,10.3-0.9c5.3-1.1,9.2-4.7,13.2-7.9
				c4.8-3.7,9.1-8,14-11.5c3.4-2.5,7.3-4.5,11.3-5.8c2.9-0.9,6.4-0.9,9.5,0.2c2.8,1,3.4,0.6,4.4-1.9c2.7-6.9,5.7-13.7,11-19.1
				c0.7-0.7,0.9-1.9,1.6-2.6c0.4-0.4,1.5-0.3,2.1,0c0.4,0.2,0.6,1.2,0.4,1.7c-0.3,1-0.8,2-1.5,2.6c-3.3,2.6-4.8,6.4-6.5,10
				c-1.7,3.5-3.3,7-3.9,11.1c-0.6,4.1-1.8,8.1-2,12.3c-0.2,4.2-0.6,8.5,0.2,12.6c0.4,2.4,0.7,4.8,0.9,7.3c0.2,2.2,0.6,4.5,1.1,6.7
				c1.2,5.2,2.4,10.4,3.6,15.6c0.7,3,1.9,5.9,1.9,9.1c0,1.7,0.8,3.4,1,5c0.2,1.6-0.2,3.1,1.1,4.6c0.5,0.5,0.1,1.8,0.1,2.7
				c0,3.7-0.1,7.3,0,11c0.1,5.5-1.1,10.8-2,16.2c-1.3,7.3-3,14.5-5.7,21.3c-2.6,6.6-5.1,13.3-9,19.4c-1.6,2.5-2.8,5.4-4,8.2
				c-1.1,2.7-2.7,5.2-3.4,7.9c-1.5,6.3-4.2,12.4-4.5,19.1c-1.9,3-1,6.3-1.1,9.4c-0.1,4.9,0,9.9-0.1,14.8c0,0.4-0.4,0.9-0.8,1.1
				c-0.2,0.1-0.8,0-1-0.2c-1.4-1.4-3.2-2.5-2.6-5c0.6-2.6-0.7-3.9-3.1-5.3c-6.7-3.7-11-9.7-12.7-17.1c-1.1-4.8-3.4-9.6-0.8-14.8
				c1-1.9-1.1-3.9-1.4-5.9c-3-0.9-3.6-4-4.9-6.2c-2-3.3-3-7.2-4.4-10.8c-0.3-0.8-0.2-1.8-0.2-2.7c-0.3-3.1-0.8-3.7-4-3.5
				c-2.4,0.1-4.8,0.7-7.3,1.1c-2.2,0.4-4.7-0.9-6.8,0.9c-0.3,0.2-1.2,0.2-1.4-0.1c-1-1.3-2.3-0.8-3.5-0.8c-2-0.1-4.4,0.7-6-0.2
				c-2-1.1-3.8-0.6-5.7-0.9c-1.9-0.3-3.8-0.5-5.6-1.1c-2.8-1-5.7-2.4-7-5.2c-2.7-5.3-7.2-8.8-11.1-13c-0.2-0.2-0.5-0.2-0.8-0.3
				c-0.1,0.3-0.3,0.7-0.3,1c0.5,1.4,0.8,3,1.7,4.2c1.9,2.8,2.3,6.4,4.5,9.2c2,2.5,3,5.8,4.8,8.4c4.6,6.7,9.9,12.8,17.4,16.6
				c0.8,0.4,1.4,1.1,2.2,1.4c1.2,0.6,2.5,1.4,3.8,1.5c1,0.1,2.1-0.8,3-1.3c5.5-3.1,7.3-3.1,13.4-2.1c5,0.8,9.2,3.6,14,4.9
				c0.3,0.1,0.9,0.3,0.9,0.3c-0.7,2.2,3.3,1.6,2.3,3.3c-1,1.9-2.5,0.2-4-0.2c-4.5-1.2-8.7-3.8-13.4-3.3c-1.8,0.2-2.5-2.2-4.4-0.9
				c-1.2,0.8-3,0.7-4.4,1.3c-4.9,2-6.4,6.5-7.7,11c-0.7,2.1-0.9,4.4-1.1,6.7c-0.2,2.2-0.4,4.5,0,6.6c0.8,4.6,1.5,9.2,2.6,13.7
				c1.8,7.3,5,14.1,7.8,21c1,2.4,1.9,4.8,1.7,7.6c-0.2,1.8-0.2,3.7,0,5.5c0.2,1.5,0.7,3,1.1,4.5c0.1,0.3,0.3,0.6,0.4,0.9
				c0.2-0.4,0.7-0.8,0.6-1.1c-0.3-2.1-0.9-4.1-1-6.1c-0.2-3.5-0.1-7,0-10.4c0.1-3,1.7-5.8,1.1-8.9c0-0.2,0.8-0.7,1.1-0.7
				c0.4,0,1,0.6,1,0.9c0,5.6,1.7,11,1.2,16.6c-0.3,3.8,2.6,11.8,4.9,15.5c1.7,2.6,3,5.4,4.7,7.9c1.1,1.8,2.6,3.3,3.9,5
				c1.2,1.5,2.3,3.1,3.5,4.6c1.3,1.7,2.5,3.4,3.9,5c1.3,1.5,2.7,3.1,4.3,4.2c1.8,1.2,1.6,4,4.2,4.3c-0.1,0.6-0.2,1.8-0.3,1.8
				c-1.6,0-3.1,0.5-4.5-1c-4-4.3-8.5-8.1-12.3-12.5c-4.3-5-8.1-10.4-11.7-16c-1.2-1.8-1.9-4-2.8-6c-0.2-0.5-0.5-1-0.8-1.6
				c-0.1,0.7-0.4,1.4-0.3,2c0.1,0.8,0.5,1.6,0.7,2.4c2.2,6.2,4.7,12.3,7,18.6c1.4,4,3.6,7.7,5.4,11.5c2.6,5.7,5,11.5,7.7,17.1
				c4.2,8.7,11.2,14.6,20,18.2c0.9,0.4,2.1,0.4,3.2,0.3c0.4,0,1.1-1.1,0.9-1.5c-1.6-3.6-0.2-7.6-1.2-11.1c-1.6-5.8-0.5-11.5-1-17.2
				c-0.4-4.6-0.9-9.2-1.1-13.8c-0.2-4.6,0.1-9.2-0.1-13.7c-0.1-1.7-1.2-3.5-1-5c1.9-10.6,0.6-21.3,1.1-32c0-0.4,0.8-0.9,1.2-1.3
				c0.3,0.5,0.9,1,0.9,1.6c0.1,4.2,0,8.4,0,12.7c0,3.5-0.1,7,0,10.4c0.1,1.9-0.4,3.7,0.9,5.7c0.8,1.3,0.3,4-0.3,5.7
				c-0.4,1.2-0.4,1.7,0.2,2.7c1.1,1.8,1.6,3.8,1.5,6c-0.2,2.9-0.6,6,0.1,8.8c1.4,5.5,0.2,11.2,1.2,16.6c0.9,5,0.1,10.1,1.1,14.9
				c0.8,3.9,0.8,7.8,0.9,11.7c0.1,2.1,1.6,3.9,1.2,6.2c-0.3,1.8-0.7,4,1,5.6c0.1,0.1,0,0.4,0,0.5c-0.6,4.9,0.9,9.4,2.2,13.9
				c1.2,4.1,2.2,8.3,3.8,12.2c4.4,10.3,9.3,20.4,14.7,30.2c5.8,10.5,12.1,20.7,18.6,30.8c2.9,4.5,6.7,8.4,9.1,13.3
				c0.3,0.6,1,1,1.5,1.6c2.4,2.6,5.1,4.9,7.1,8c1.2,1.8,2.8,3.5,5.2,4.5c1.7,0.7,2.9,2.7,4.3,4.1c4.8,4.8,9.6,9.6,14.4,14.4
				c5,5,10.9,8.9,16.4,13.4c6.3,5.1,13.1,8.9,20.3,12.3c4.8,2.3,9.9,3.6,14.9,5.2c4.5,1.4,9.2,1.4,13.5,3.2c0.3,0.1,0.7,0,1.1,0
				c8.1,0.4,16.1,1.6,24.3,1.1c3.8-0.2,7.7,0.1,11.5-0.1c2.4-0.1,4.8-0.7,7.2-1.1c2.4-0.4,5,0.9,7.3-1c0.5-0.5,1.8-0.2,2.7,0
				c3.2,0.4,6.3-0.7,9.5-1c3-0.3,5.7-1.7,8.5-2c4.6-0.5,8.7-2,12.8-3.6c3.4-1.4,6.4-3.4,9-6.2c3.7-4.1,7.7-7.8,11.6-11.7
				c5.5-5.4,10.6-11.1,15.2-17.4c0.7-1,1.8-1.8,2.7-2.7c4.2-4.1,8.1-8.5,11.3-13.5c0.5-0.8,1.3-1.3,1.9-2c4.3-4.1,8.1-8.5,11.3-13.5
				c0.5-0.8,1.3-1.3,1.9-2c4.2-4.1,8-8.6,11.3-13.4c2-2.9,5-5.2,6.9-8.2c3.5-5.4,6.3-11.3,8-17.6c1.4-5,2.9-9.9,3.6-15.1
				c0.4-2.9,1.1-6,1.9-9c0.8-3,0.3-6.4,1.3-9.4c1-3,0.2-6.1,1.1-8.9c1-2.9,0.3-5.7,1.1-8.4c0.9-3,0.4-6.1,1.1-8.9
				c0.8-3,0.3-6.1,1.1-8.9c1.5-5.2,1.3-10.6,3-15.8c1-3.1,0.6-6.7,1.3-9.9c0.6-2.8,0.5-5.7,1.2-8.3c0.8-2.6,0-5.7,2-8
				c-0.7-3.3,1.1-6.2,1.2-9.4c0.1-2.2,0.8-4.5,1-6.7c0.2-2.1,0.3-4.1,1-6.2c1-3.3,1.1-7,1.2-10.5c0.1-2.5,1.8-4.6,1.2-7.3
				c-0.5-2.3,1.1-4.3,1.6-6.5c0.3-1.4,0.5-2.8,0.6-4.2c0.1-6.2,0-12.5,0.1-18.7c0-0.5,0.7-0.9,1.1-1.3c0.3,0.5,1,1,1,1.5
				c0.1,9.3,0,18.7,0,28v1.1c0,1.7-2.2,2.6-1.5,4.8c0.6,1.9,0.1,4.1-0.1,6.2c-0.1,1.9-0.1,4-0.7,5.8c-1.8,6-0.7,12.6-3.2,18.4
				c0.8,3.8-1,7.4-1.2,11.1c-0.2,3.4-0.6,6.9-1.8,10.2c-0.4,1-0.3,2.1-0.3,3.2c0.1,3.7-1.8,7.3-1.1,11.1c-2.1,2.4-0.4,5.3-1.2,7.8
				c-0.8,2.4-1.1,4.8-1,7.3c0,0.4,0,0.7,0,1.1c0.1,1.4,1,1.4,1.8,0.9c1.1-0.5,2.2-1.1,3-1.9c6.3-5.8,11-12.5,13.9-20.6
				c1-2.8,2.9-5.5,4.8-7.9c2.4-2.8,4.2-5.9,6.2-9c3-4.9,4.6-10.2,6.2-15.6c0.1-0.5,0.2-1,0.3-1.5c0.4-3.7,0.9-7.4,1.1-11.1
				c0.2-3.8,0-7.7,0-11.5c0-4.8,0.2-9.5-0.1-14.3c-0.1-2.7,0.4-5.3,1.2-7.8c2.1-6.3,3.6-12.8,5.4-19.2c1.3-4.8,2.5-9.6,3.7-14.4
				c0.8-3.4,1.9-6.7,1.8-10.2c-0.1-1.8-0.3-3.5-0.5-5.3c-2.2,0-4.8-0.8-6.5,0.1c-4.2,2.4-9.1,3-13.2,5.4c-1.1,0.6-1.9,1.6-3,2.1
				c-0.5,0.2-1.4-0.1-2-0.4c-0.2-0.1-0.1-1.2,0.1-1.4c1.5-1.2,0.9-2.4-0.3-3c-5.4-2.6-7.1-7.7-8.8-12.8c-1.1-3.1-2.1-6.2-2.2-9.6
				c-0.1-2.2-0.8-4.5-1-6.7c-0.2-2.3,0.3-4.5-1-6.8c-0.6-1-0.3-2.7,0.9-4c0.8-0.8-0.8-3.5,1-3.6c2.8-0.1,0.8,2.5,1.2,3.8
				c0.7,2.5,2,4.6,2.5,7.3c0.9,4.3,1.9,8.7,3,13c0.9,3.2,3.5,8.9,5.5,11.5c1.5,2,3.7,2.2,5.4,1.5c6.9-2.6,14-4.9,19.2-11.4
				c0.1-0.3-0.1-0.2-0.3,0c0.2,0.2,0.3,0.3,0.5,0.5c0.2-0.2,0.4-0.4,0.5-0.7c0,0-0.2-0.2-0.7,0.2c-1.2,0.5-2.4,0.1-3,0.6
				c-6.2,3.8-12.6,2.3-19,1c-3.4-0.7-5.4-3-6.8-6c-0.2-0.4-0.1-1.2,0.2-1.4c0.3-0.3,1-0.3,1.4-0.1c0.8,0.3,1.7,0.6,2.2,1.2
				c2.4,2.6,5.7,2.3,8.7,3c1.3,0.3,2.8-0.4,4.1,0.8c1.5,1.4,2.3-1.4,3.7-0.9c0-0.3,0.1-0.7,0-0.8c-1.1-0.8-2.2-2.1-3.4-2.3
				c-3.5-0.4-5.4-3-8-4.7c-2.6-1.8-4.5-4.4-6.4-6.7c-2.2-2.7-3.3-6.2-2.7-9.8c0.1-0.3,0.7-0.8,1-0.8c0.4,0,1.1,0.6,1.1,0.8
				c-0.4,3.4,2.1,5.5,3.8,7.8c3.3,4.3,7.8,7.4,12.4,9.8c3.3,1.7,6.9,3.4,11.2,3.7c4.8,0.4,7.5-2,10-5.2c1.5-2,2.6-4.4,3.5-6.8
				c0.9-2.2,3.6-3.5,3.2-6.4c0-0.1,0.9-0.6,1.3-0.5c0.3,0.1,0.7,0.7,0.8,1.1c0.5,3.4-0.5,6.7-1.7,9.7c-1.8,4.5-4.1,8.8-7.7,12.2
				c-0.7,0.7-0.9,1.9-1.7,2.6c-2,2-3.7,4.3-6.4,5.6c-1.7,0.8-1.6,1.7,0.2,2.8c2,1.2,2.9,3.2,2.9,5.2c0.2,6.2-0.3,12.3-1.8,18.4
				c-1.3,5.1-2.4,10.4-3.6,15.6c-1.2,5-2.4,10-3.9,14.9c-1,2.9-1.4,6.2-1.5,9.3c-0.2,9.3-0.1,18.7,0,28c0.1,7.1-3.1,13.4-4.4,20.2
				c-2.6,1.4-2,4.7-4.1,6.6c-1.9,1.7-2.9,4.3-4.4,6.4c-3.3,4.6-7.1,8.9-9.2,14.3c-1.2,3-3.2,5.8-5.5,8.2c-1.3,1.4-2.2,3.2-3.6,4.5
				c-1.4,1.3-3.1,2.3-4.5,3.6c-2.2,2.1-2.1,4.4-0.6,7.1c2,3.8,5.2,6.1,8.7,8.1c1.3,0.7,1.8,1.3,0.8,2.2c-1.7,1.3-1.7,3-1.7,4.8
				c-0.2,8.2-3.5,15.1-8.8,21.1c-2,2.3-4.1,4.4-6.9,5.9c-1.1,0.6-2.2,0.9-3.3,1.4c-2.6,1.2-5.9,2.2-5.3,6.3
				c-2.2,6.8-4,13.8-6.8,20.3c-1.7,4.1-4.8,7.6-7.5,11.2c-3.7,4.8-8,9.1-11.5,14c-1.5,2.1-2.6,4.7-3,7.6l-10,8.4
				c-0.4,1.1-1.7,1.9-2.6,2.8c-1.8,1.8-4,3.4-5.4,5.5c-3.6,5.4-7.9,10.1-12.5,14.6c-1.1,1-2.3,1.9-3.1,3.1
				c-2.9,4.5-6.7,8.3-10.2,12.2c-4.5,5-9.7,9.5-14.3,14.5c-2.5,2.7-6,3.5-8.6,5.9c-1.4,1.3-19.4,5.3-21.3,5.6
				c-3.5,0.5-6.9,1.4-10.5,1.3c-0.1,0-0.3,0.6-0.4,0.9h-59.4c-0.3-0.4-0.6-1-0.9-1c-1.3-0.1-2.6,0.1-3.8-0.1c-1.3-0.2-2.6-0.8-3.9-1
				c-5.6-0.9-11.1-2.6-16.2-4.7c-9.7-4-18.6-9.5-26.9-15.9c-5.6-4.3-11.2-8.9-16.2-13.9c-11.3-11.4-23.7-21.9-33.2-35.1
				c-4.2-5.9-8.3-11.9-12.2-18c-2.7-4.3-5.3-8.8-7.9-13.2c-2.3-4-4.4-8.1-6.4-12.2c-1.8-3.6-4-7.1-5.5-10.9c-1-2.4-2.6-4.3-3.4-6.9
				c-0.9-3.1-2.4-5.9-3.8-8.9c-0.2-0.4-0.8-0.7-1.1-1.1c-0.2,0.5-0.4,0.9-0.5,1.4c-0.1,0.7,0,1.5,0,2.2"/>
			<path id="Fill-3" class="st0" d="M339.3,144.9c0-2.5,0.1-4.5,0-6.5c-0.2-2.1-0.6-4.1-1.1-6.1c-0.3-1.3-0.7-2.6-1.1-3.9
				c-0.3-1.1,0.8-2.4-0.7-3.2c-0.3,1-0.2,2.2-0.8,2.9c-1.2,1.3-0.5,2.8-0.6,4.2c-0.5,6.6,0.8,13.3-1,19.9c-1.1,4-2.3,7.9-4.8,11.2
				c-0.7,0.9-1.3,2-1.8,3.1c-0.2,0.3,0.3,1.4,0.4,1.4c1.7,0,3.5,0.7,5.2-0.5c3.9-2.8,5.6-7.1,7.5-11.2c0.2-0.4,0.2-1.2,0-1.6
				C338.2,151.2,339.9,147.7,339.3,144.9 M166.4,117.2c2.7,0,5.5,0,8.2,0c4.4-0.1,8.7,0,12.9,2.1c2.8,1.4,6,2.5,7.5,5.3
				c1.8,3.3,4.5,5.9,7.3,7.8c3.7,2.4,6.7,5.3,9.4,8.7c0.9,1.2,1.8,2.4,2.7,3.6c0.8-1.9-0.8-3.1-1.5-4.5c-0.8-1.7-1.6-3.4-2.5-5
				c-2.4-4.1-4.9-8.1-9.4-10.3c-2-1-3.6-2.8-5.4-4.2c-2.8,0.9-3.9-3.2-6.7-2.3c-0.9-2.4-3.9-1.4-5.3-3.1c-1.5-1.8-4.5-1.1-5.7-3.4
				c-2.9,0.3-4.8-1.9-6.9-3c-2.3-1.2-4.8-1.7-7-3.1c-4-2.5-8.5-4.3-12.7-6.3c-2.4-1.1-4.9-1.5-7,0.2c-5.1,4.1-10.1,8.5-15,12.8
				c-0.4,0.4-0.6,1-0.9,1.5c0.5,0.1,1.1,0.3,1.6,0.2c5.1-0.8,9.9,1.3,14.9,1.1c5.5,2.8,11.4,2.1,17.2,2.2
				C163.5,117.3,165,117.2,166.4,117.2 M183.1,77.7c-4.1-0.4-7.7,1.1-11.4,2.9c-4.7,2.2-8.9,5.2-13.2,7.9c-2.6,1.7-5.1,3.6-7.6,5.5
				c-0.5,0.4-0.6,1.2-0.8,1.8c0,0.1,0.9,0.6,1.3,0.5c2.2-0.5,4.1,0.7,6.1,1.2c1.6,0.4,3,1.7,4.6,2.1c9.5,2.7,18.4,6.8,27.3,11
				c4.6,2.2,9.3,4.2,13.8,6.6c2.9,1.6,5,3.9,7.4,6.1c0.2,0.2,0.7,0.2,0.7,0.2c0.2-0.3,0.4-0.8,0.3-1c-2.1-3.6-3.8-7.3-6.4-10.6
				c-2.3-2.8-4.5-5.2-7.8-6.8c-6.3-3.1-13-4.9-19.3-7.7c-4.2-1.9-8.1-4.1-11.1-7.7c-0.1-0.1-0.4-0.3-0.4-0.4c0-0.9,0.1-1.7,0.2-2.6
				c0.6,0.1,1.3,0.1,1.9,0.3c3,1.1,5.7,2.9,8.8,4c6,2.1,12.1,3.5,18.1,5.4c4.2,1.3,8.3,3.3,10.9,6.7c3.5,4.4,6.9,8.9,8.5,14.6
				c1,3.8,2.3,7.3,2.1,10.1c-0.4,3.9-0.3,3.9,1.1,6.9c0.7,1.5,1.6,3,2.2,4.6c3,7.8,5.5,15.7,5.5,24.1c0,0.3,0.2,0.6,0.3,1
				c0.3-0.1,0.6-0.1,0.8-0.3c0.8-0.8,1.9-1.5,2.2-2.4c1.5-5,3.5-9.8,3.4-15.1c-0.1-2.3-0.7-4.5-1-6.7c-0.8-6.5-3.1-12.5-6.2-17.8
				c-4.1-7-8.1-14-13.3-20.5c-5-6.2-9.5-12.8-15.3-18.3C193,79.6,188.7,77.1,183.1,77.7 M399,74.4c-0.1,0-0.2,0-0.3,0
				c0-2.2,0.1-4.4,0-6.6c-0.2-2.1-0.6-4.1-1.1-6.1c-1.9-7.8-7.3-13.3-14.8-12.5c-3.8,0.4-7.3-1.6-11.1-1.2
				c-5.9-2.8-12.1-4.4-18.3-6.2c-4.1-1.1-8.4-1.9-12.7-2.5c-1.9-0.3-3.9,0.3-5.8,0.5c1.3,1.3,2.7,2.5,3.9,3.9
				c1.1,1.3,2.1,2.8,3.1,4.2c4.3,5.4,3.3,12.2,5.1,18.2c-2.3,2.7-0.6,5.9-1.1,8.9c-0.2,1.1,0.4,2.6-0.1,3.2c-1.7,1.9-0.9,4.3-2,6.4
				c-1.1,2-0.9,4.7-1.3,7.2c-0.4,2.2-0.3,4.6-1.2,6.6c-1.1,2.4-0.2,5.2-1.2,7.2c-1.5,2.9-1.3,5.9-0.7,8.4c0.6,2.5,0.2,5,1,7.3
				c0.8,2.5,0.9,4.8,1,7.3c0,0.5-0.1,1.1,0.1,1.6c1.5,4,2.2,8.1,2.1,12.3c-0.1,2.6,0.2,5.1-0.1,7.7c-0.3,3.3-0.4,6.7-1.5,9.8
				c-0.7,2-0.9,2.4,1.3,2.6c1.5,0.1,1.7,1,0.9,2c-1.5,2.1-4,2.7-6.1,3.9c-0.5,0.3-0.8,0.8-1.2,1.2c0.5,0.2,0.9,0.5,1.4,0.5
				c4.6,0,9.2,0,13.7,0c0.7,0,1.4,0,2.1-0.2c8.5-2.5,15-8,20-14.9c5.7-7.8,8.9-17.1,12.2-26.2c1.8-5.1,3.6-10.2,4.9-15.6
				c0.9-3.8,2.3-7.5,3.4-11.2c1.1-4,1.7-8.1,2.6-12.1C398.6,84.8,398.5,79.5,399,74.4 M215.3,148.5c0.5-0.6,0.8-0.8,0.8-0.9
				c0-0.5-0.2-0.9-0.3-1.4c-0.2,0.1-0.7,0.1-0.7,0.2c0,0.6,0.1,1.2,2.3,3.5c-0.3-0.6-0.5-1.2-0.8-1.7c-0.2,0.3-0.5,0.7-0.5,1
				c0.1,0.7,0.4,1.4,0.6,2.2C216.9,150.8,217.1,150.4,215.3,148.5 M325.3,156.6c-1.1,1.6-2,1.7-2.8,2.1c-2.4,1.2-4.7,2.9-7.2,3.8
				c-2.6,0.9-4.5,3.3-7.5,3.2c-3.4,3.3-8.1,5-11.2,8.9c-1.3,1.6-2,1.3-2.4-0.9c-0.3-1.5-0.8-2-2-1.1c-0.8,0.6-1.6,1.3-2.2,0.3
				c-0.4-0.6-0.3-1.9,0.1-2.5c1-1.3,2.2-2.5,3.5-3.5c1.3-1.1,2.8-2.1,4.2-3.1c1.3-0.9,2.6-1.7,3.8-2.7c3.8-3.3,7.9-6.4,11.1-10.2
				c2.8-3.3,4.8-7.3,5.9-11.8c1.1-4.3,1.4-8.6,0.8-12.8c-0.8-6.4-2.4-12.8-4.8-18.9c-3.3-8.4-7.4-16.4-9.7-25.1c-0.3-1-0.7-2-0.7-3
				c-0.1-4-0.4-8.1,0.1-12.1c0.4-3,0.7-6.1,2-9c0.9-2,0.8-4.4,1.2-6.6c0.1-0.5,0.8-0.9,1.2-1.3c0.3,0.3,0.9,0.7,0.9,1
				c0.1,2.7,0.2,5.5,0,8.2c-0.2,2.6,1,5.4-1,7.8c-0.2,0.2,0.2,1,0.3,1.5c0.3,1.2,0.7,2.4,0.7,3.5c-0.1,5.7,0.5,11.2,4.4,15.8
				c-0.2,3,2.4,4.8,3.2,7.5c0.8,2.7,2.4,5.2,3.4,7.9c1,2.5,1.4,5.3,2.4,7.8c1.1,2.8,1.5,5.7,2.2,8.4c1.2,4.3,0.6,8.5,1,12.8
				c0.5,4.4-0.7,8.5-2.4,12.2c-1.4,3-2.8,6.4-5.7,8.7c-0.3,0.2-0.5,0.5-0.7,0.8c0.5,0.2,1,0.5,1.4,0.5c1.5-0.2,3.3,0.7,4.6-1
				c1-1.3,1.9,1.9,3,0.2c1.2-1.7,2.2-3.5,2-5.8c-0.2-1.8,0-3.7,0-5.5c0-7.5-0.3-15.1,0.1-22.5c0.4-6.2-2-11.6-4-17.1
				c-1.9-5.1-3-10.1-4-15.4c-1.2-6.5-0.7-12.9-0.8-19.4c-0.1-5.8,1.5-11.3,3.6-16.6c0.6-1.6,2-2.9,3.1-4.2c0.3-0.3,1.3-0.6,1.4-0.4
				c0.3,0.5,0.5,1.2,0.7,1.9c0.1,0.2,0.1,0.4,0,0.5c-2.2,2.7-1.8,5.9-2.3,9c-1.1,7.3-1.4,11.9,0.1,18.9c0.1,0.7,0,1.5,0,2.2
				c-0.3,8.2,2.4,15.7,5.5,23c1.9,0.7,0.7,2.6,1.5,3.8c0.6,1,0.5,2.3,0.8,3.5c0.1,0.3,0.3,0.6,0.5,0.9c0.2-0.3,0.6-0.5,0.6-0.8
				c-0.4-5.2,1.5-10,2.4-15c0.7-4,1.7-8,2.8-12c0.9-3.2,1-6.6,1.4-9.9c0.4-2.8-0.6-5.6,0.9-8.4c0.4-0.8-1.1-2.7-1-4.4
				c0.1-2.3-0.5-4.5-0.8-6.7c-0.8-4.9-4.3-7.9-6.9-11.4c-0.7-0.9-2.1-1.3-2.6-2.7c-0.3-0.6-1.4-1.1-2.2-1.2c-2.7-0.1-6-0.9-8.1,0.2
				c-2.4,1.2-5.1-0.2-7,1.7c-7.7,1.1-14.3,4.7-20.4,9.2c-5.4,3.9-11.1,7.6-14.6,13.7c-1.2,2.1-3.2,3.8-4.8,5.6
				c-2,2.2-1.3,3.7-0.6,5.5c1.8,4.9,2.9,10.1,5.5,14.8c1.8,3.3,3.7,6.6,5.9,9.6c4.9,6.6,7.6,14,9.6,21.9c1.3,4.9,1.3,9.8,0.7,14.4
				c-0.8,5.9-4.2,11.1-9.5,14.5c-4.6,2.9-9.6,5.2-14.2,8.1c-5.4,3.5-11.6,6.1-14.6,12.3c-2.5,0.2-2.1,4-4.9,3.8
				c-0.5,1.8-1.2,3.6-1.6,5.4c-0.3,1.4,0,2.9-0.1,4.4c0,0.4-0.4,1.1-0.8,1.1c-0.4,0.1-1.1-0.2-1.4-0.5c-1.4-1.5-1.6-4-4.2-4.2
				c-0.1,0-0.2-1,0-1.4c3.4-5.8,4.3-8.3,4.1-13.7c-0.1-3.3,0.5-6.7-0.9-10.1c-0.6-1.4-1.1-4,0.7-5.6c0.1-0.1,0.2-0.3,0.2-0.5
				c0.6-7.5,2-15.1,1-22.6c-1.1-7.8-3.4-15.4-8.3-21.8c-4.6-6-9.2-11.9-13.6-18c-3.4-4.8-6.6-9.7-9.9-14.6c-1.2-1.7-2-3.7-3.4-5.1
				c-1.3-1.3-0.9-2.7-0.9-4c0-0.3,0.6-0.8,1-0.9c0.4,0,0.9,0.4,1.1,0.8c0.4,0.9,0.4,2.1,1,2.8c5,5.6,9.4,11.8,13.6,18
				c1.9,2.8,4.5,5.1,6.5,7.8c3.7,4.7,7.6,9.2,10.6,14.3c2.8,4.6,4.2,10,5.7,15.2c1.6,6.1,0.9,12.2,1,18.3c0,1.9-0.8,3.7-1,5.6
				c-0.2,1.7-0.4,3.4-1,5.1c-0.7,2.1,0.7,5.2-0.4,7c-1.6,2.7,0.2,3.8,1,5.5c0.4,0.7,1.2,1.1,1.5,0.1c0.7-2,2.6-2.5,3.8-3.8
				c0.6-0.6,1.5-1.4,1.4-2.1c-0.3-3.6,2.4-6,3.5-9.1c1.3-3.5,3-8.6,3.2-11.3c0.2-1.9,1-3.7,1-5.6c0.3-7.9-2.7-14.9-7.1-21.2
				c-1.7-2.5-3.8-4.7-5.8-7c-5.7-6.5-11.5-12.8-17-19.4c-2.7-3.2-4.8-6.8-7-10.3c-0.8-1.3-1.3-2.9-1.4-4.3c-0.1-1.2-0.5-2.1-1.4-2.7
				c-1.5-1.1-0.8-2.7-0.8-4c0-0.2,0.7-0.6,1.2-0.7c0.2-0.1,0.9,0.4,0.8,0.4c-0.9,2.7,2.3,3.7,2.5,6.2c0.2,1.9,2.7,3.6,3.7,5.6
				c1,2.2,3.2,3.4,4.3,5.4c1.5,2.8,3.9,4.7,5.9,6.9c4.8,5.2,9.9,10.1,14.3,15.6c4.2,5.4,8.1,10.9,10.4,17.7
				c2.4,6.9,2.2,13.3,0.6,20.1c-0.4,1.6-1,3.2-1.5,4.9c-0.5,1.4-0.8,3-1.5,4.3c-1.2,2.3-2.4,4.6-4,6.6c-1,1.2-1.7,2.2-1.5,3.8
				c0.1,0.5-0.4,1-0.6,1.6c0.7,0,1.6,0.3,2.1,0c1.1-0.5,2-1.5,3-2.1c6.3-4.2,12.7-8.2,19.1-12.2c1.2-0.7,2.2-2.1,2.9-3.7
				c3.7-7.8,3.8-8.7,2.2-18c-1-5.8-2.7-11.3-5.6-16.4c-1.9-3.3-4.3-6.3-6.3-9.5c-3.6-5.5-6.3-11.3-7.9-17.6
				c-2.4-9.6-8.7-15.8-16.9-20.5c-3.5-2-7.3-3.6-11-5.3c-0.5-0.2-1-0.3-1.5-0.3c-5.5,0-11.1-0.5-16.5,0.1c-4.2,0.5-8.3,2-12.2,3.5
				c-5.6,2.1-11,4.5-15.9,8.1c-2,1.5-4.6,2.3-6.7,3.6c-1.2,0.7-1,1.6,0.3,2.3c2.7,1.4,5.6,2.2,8.3,4.1c4.4,3.1,8.1,6.8,11.4,10.8
				c4.5,5.4,8.2,11.6,12.2,17.4c1.6,2.3,3.8,4.4,4.4,6.9c0.7,2.9,4,4.2,3.5,7.4c3,3.9,4.1,8.5,5.6,13.1c1.2,3.7,2.3,7.3,2.1,11.2
				c-0.1,1.5-0.1,2.9,0,4.4c0.4,7.5-3.2,13.6-6.6,19.8c-3.9,2.3-4.7,6.2-5.7,10.2c-0.8,3-2.8,5.8-4.4,8.6c-0.4,0.7-1.3,1.2-2.1,1.5
				c-0.6,0.2-1.4-0.1-2-0.4c-0.2-0.1-0.1-1,0.1-1.4c0.7-1.5,1.7-3,2.3-4.6c1-2.4,2-4.8,1.9-7.5c-0.2-2.7,0.1-5.5-0.1-8.2
				c-0.2-2.6-0.6-5.2-1.1-7.8c-0.2-1.2-0.7-2.3-1.1-3.4c-0.1-0.3-0.4-0.4-0.6-0.6c-0.1,0.3-0.4,0.6-0.4,0.9c0,2.4-0.1,4.8,0,7.1
				c0.4,8.6-2.7,16.3-5.6,24.1c-0.8,2.2-1.5,4.6-3.2,6.3c-0.4,0.4-1,0.7-1.5,1c-0.2-0.6-0.7-1.3-0.6-1.9c0.7-3.3,1.1-6.9,2.6-9.9
				c1.1-2.3-0.5-5.1,1.8-7c0.4-3.9,0.8-7.8,1.1-11.6c0.6-7.9-3.9-18.1-11.7-22.5c-3.2-1.8-5.5-4.5-8.1-7c-1.6-1.5-3-3.2-4.7-4.6
				c-1.2-1-2.5-2.2-3.9-2.4c-3.3-0.7-6.6-1-10-1.1c-4.6-0.2-9.2-0.1-13.7,0c-5.7,0.1-11-1.6-16.4-2.9c-3-0.7-6.2-1.1-9.2-1.8
				c-3.4-0.7-6.7-0.6-10-0.9c-1.4-0.1-2.3,0.4-3.3,1.4c-3.6,3.7-7.2,7.3-10.9,10.9c-0.7,0.7-1.6,1.1-2.5,1.6
				c1.2,0.8,2.1,0.5,3.4-0.1c1.6-0.9,3.6-1.1,5.4-1.6c1.8-0.4,3.7-0.7,5.6-1.1c5.9-1.3,11.7-2.4,17.8-2.3c1.5,0,3.2-1.3,4.4-0.9
				c3.2,1.1,6.3,1,9.5,1c3,0,5.8,1.9,8.9,1.1c10.5,3.4,21,6.6,29,15.1c4.8,5.2,9.1,10.6,10.8,17.6c0.1,0.5,0.7,0.8,0.8,1.3
				c0.4,3.9,0.9,7.8,1.1,11.6c0.2,4.6-1.2,8.8-3.8,12.7c-0.5,0.7-0.3,1.9-0.3,2.9c0,0.3,0.6,0.5,0.7,0.8c0.2,0.6-1.5,5-1.9,5
				c-2.6,0.1-1.1-2.2-1.6-3.3c-1.2-2.4-1.8-5.1-2.5-7.8c-1.5-6-3.8-11.6-7-16.9c-0.9-1.6-1.8-3.5-1.2-5.5c0.1-0.3,0.5-0.5,0.8-0.6
				c0.3-0.1,0.9,0,1,0.2c3.3,5.4,7.6,10.2,9.2,16.5c0.3,1.2,0.7,2.3,1.1,3.4c0.1,0.3,0.4,0.5,0.6,0.7c0.2-0.3,0.5-0.6,0.5-0.9
				c0-5.9,0.8-12-1.2-17.7c-1.3-3.8-3.3-7.6-5.8-10.7c-3.6-4.4-7.6-8.6-13-10.9c-3-1.3-5.8-2.8-8.8-4c-3-1.2-6.5-1-9.2-3
				c-0.1-0.1-0.4,0-0.5,0c-7.2,0.3-14.4-2.3-21.5-1c-7.7,1.3-15.7,0.8-23,4.3c-4.6-0.5-8.2,2.5-12.3,3.6c-3.9,1.1-7.3,3.6-11.1,5.1
				c-1.3,0.5-2.2,1-2.6,2.3c-0.8,0.2-2.1-0.5-2.2,1.3v-0.2c-0.3,0.1-0.6,0.2-0.8,0.3c-0.1,0.1,0.1,0.4,0.2,0.7
				c0.2-0.2,0.4-0.3,0.7-0.8c0.8-0.4,2.1,0.3,2.2-1.3c3.4-1.1,6.8-2.1,10.2-3.3c5.8-2.1,11.6-3.7,17.9-3.3c1.5,0.1,3-0.1,4.4,0
				c2.5,0.3,5-0.7,7.4,0.7c2.1,1.3,5.1-0.7,7.1,1.5c5.7,0,10.7,2.4,15.8,4.4c3.2,1.2,12.1,6.2,14.2,8.2c2.8,2.7,5.5,5.4,8.2,8.2
				c0.8,0.9,1.4,2,1.9,3c0.4,0.7,0.9,2.1,0.7,2.2c-1.1,0.7-2.2,0.6-3.3-0.4c-2.4-2.2-4.8-4.2-7.3-6.2c-4.8-3.8-14.1-9-22-10.8
				c-3.9-0.9-8.1-1.2-11.9-3c-1-0.5-2.5,0-3.8-0.1c-2.4-0.2-5,0.8-7.3-1c-0.3-0.3-1.1-0.1-1.6,0c-2.4,0.3-4.8,0.7-7.2,1.1
				c-2.4,0.4-5.1-1.2-7.3,1c-4.7-0.3-8.8,1.7-12.9,3.4c-4.5,1.9-8.9,4.2-13.3,6.3c-3.7,1.8-6.6,4.8-10.8,5.9c-1.7,0.4-3.1,2.4-4.2,4
				c-4.8,6.9-8.1,14.5-10.7,22.5c-0.7,2.1-1.1,4.2-2.4,6.2c-0.9,1.4-0.1,3.9-0.2,5.9c0,0.3-0.7,0.8-1.1,0.8c-0.4,0-0.7-0.5-1.1-0.8
				c-0.1-0.1,0-0.4,0-0.5c0.5-3.9-1.1-7.9,1.1-11.6c1.4-10.5,6.5-21.1,13.1-30.3c6.1-8.5,13.8-15.2,22.9-20.3
				c3.1-1.8,5.8-4.5,9.7-4.5c2.3-2.3,5.2-4.4,6.8-7.1c1.3-2.1,2.9-3.6,4.5-5.2c1.8-1.9,3.6-3.8,4.7-6.3c0.5-1.1,1.3-2.4,2.3-2.8
				c2.5-1,4-3,5.7-4.8c5.1-5,10.6-9.6,16.2-14c1.9-1.5,3.4-3.3,5.1-5c2.5-2.5,5.6-4.2,8.3-6.4c3.1-2.5,6.3-5,9.7-7.2
				c4.9-3.3,10.1-5.7,15.5-7.7c0.3-0.1,0.6-0.4,0.9-0.4c5.8,0.3,9.9-2.9,13.8-6.6c1.9-1.7,4.2-3.2,6.5-4.3c1.7-0.8,3.4-1.5,4.9-2.8
				c1.4-1.2,3.4-1.5,5-2.6c2.9-1.9,6.6-2.6,10-3.6c3.6-1.1,7.3-2,11.2-2.4c2-0.2,4.1-1,6.2-0.8c8.5,0.8,16.5,3.1,23.7,7.9
				c3.2,2.2,6.6,4,9.2,7c0.6,0.7,1.7,1.2,1.9,2c0.3,1.3,0.8,2.5,2,2.5c0.5,0,1-1.7,1.6-2.5c2-2.8,3.8-5.9,6.3-8.4
				c4.6-4.6,9.3-9.2,14.4-13.2c2.3-1.8,4.8-3.9,8.1-4.2c3.3-3.1,7.8-3.4,11.8-4.8c2.9-1,5.9-2,9.2-1.9c4.2,0.2,8.4,0,12.6,0.1
				c2.3,0,4.6,0.4,6.9,0.5c2.1,0.2,4.6-0.3,6.3,0.7c2.1,1.2,4.7,0,6.3,2c6.4,0.5,12.2,3.1,18.3,5.1c0.3,0.1,0.6,0.4,0.9,0.4
				c3.9,0.4,7.8,1.1,11.6,1c8-0.1,13.2,4.1,17,10.5c0.9,1.5,1.4,3,3,4.3c1.8,1.4,3.4,1.8,5.4,1.7c6.1-0.3,11.5,1.9,17.1,3.7
				c6.2,2,11.2,5.7,15.7,9.7c4.1,3.7,6.7,9,8.4,14.5c1.4,4.4,2.4,8.8,2.2,13.4c-0.2,3.1-0.2,6.2,0,9.3c0.5,6.8-1.6,13.2-3.8,19.4
				c-3.6,10-8.7,19.3-15.3,27.8c-3.6,4.6-7,9.5-11.4,13.4c-6.5,5.8-12.9,11.7-21.6,14.2c-1.3,1.9-3.5,2.3-5.4,2.9
				c-2.5,0.8-4.9,1.9-7.6,1.6c-1.9-0.3-3.7-0.2-5.5,1.5c-0.9,0.9-3.3,0.4-5,0.3c-0.4,0-0.8-0.7-1.2-1.1c0.5-0.3,1-0.5,1.5-0.8
				c0.8-0.4,1.5-0.8,2.3-1.2c0.6-0.3,1.2-1,1.8-1c3.9,0.6,7.2-1.1,10.7-2.2c5.9-1.9,17-8.4,20.3-12c0.2-0.3,0.2-0.8,0.2-1.1
				c-0.5,0.1-1.1,0-1.5,0.2c-1.1,0.6-1.9,3.2-3.3,1.3c-1.1-1.4,1.3-2.2,2-3.3c0.1-0.2,0.2-0.3,0.4-0.4c4.3-3,5.1-7.8,6.1-12.3
				c1-4.3,2.2-8.6,3.6-12.8c2.4-1.3,1.9-4.4,3.8-6.2c1.6-1.6,2.3-4.1,3.2-6.3c2-4.7,3.7-9.5,5-14.5c2.4-9.2,2.1-18.4,2.1-27.7
				c0-1.8,0-3.7,0.1-5.5c0-0.2,0.8-0.5,1.3-0.6c0.3,0,0.8,0.3,0.8,0.5c0.1,0.7,0,1.5,0,2.2c0,0.7-0.3,1.9,0,2.1c3.8,3,2,7.1,2,10.7
				c0,3.5,0.8,7-0.8,10.6c-1,2.2-0.6,5.1-1.2,7.7c-1.9,8.6-4.4,14.9-9.7,23.5c-2.7,4.5-5,9.3-5.8,14.6c-0.8,5.1-2.5,9.6-5.9,13.5
				c-0.4,0.5-0.5,1.2-0.7,1.9c0.5-0.2,1.2-0.2,1.5-0.6c3.3-3.2,7-6.1,9.6-9.8c5-7.2,10.4-14.1,14.2-22.1c2.3-4.8,3.5-9.9,6.1-14.5
				c1.1-2-0.4-4.7,1.5-6.5c0.4-4.6,1-9.2,1.3-13.8c0.3-5.6-2.1-10.7-2.4-16.1c-3.7-6.7-7-13.5-14.4-17.3c-4.9-2.5-9.7-5-14.9-6.5
				c-0.6-0.2-1.5-0.4-1.8-0.9c-1-1.5-2.5-1.2-3.9-1.3c-1.9-0.1-3.9-0.4-5.8-0.6c-0.3,0-1,0.2-1,0.3c0.3,4.3-1,8.7,1.1,12.7
				c0.6,1.2,1.3,1.1,2.2-0.1c0.4-0.5,0.8-0.8,1.2-1.3c0.3,0.5,0.9,1.1,0.9,1.6c0,1-0.5,2-0.7,3c-0.2,0.9-0.7,2.2-0.3,2.5
				c1.7,1.5,0.7,3.4,1,5.1c0.2,1.2-0.3,2.4,0.8,3.6c0.6,0.6,0.7,2.4,0.2,3.1c-1.5,2-0.9,4.1-1,6.2c-0.1,2,0.7,4.4-0.2,6
				c-1.1,2.1-0.5,4.2-1,6.2c-0.4,1.8-2,3.4-2,5.2c0,5.1-3.9,8.7-4.8,13.5c-3.5,3.7-4.8,8.6-7.3,13c-2.9,5.2-4.5,11-5.7,16.9
				c-1.2,5.6-4.2,10.3-8.8,13.9c-1.7,1.4-3.9,1.7-8.3,1.6c-0.5,0-1,0.2-1.4,0.5c-1.6,1.1-3.5,2-4.5,3.5c-2.1,2.9-4.9,2.6-7.8,2.5
				c-0.3,0-0.9-0.6-0.9-1c0-0.4,0.6-1.1,0.7-1.1c2.8,0.6,4.5-1.1,5.9-3c2.3-3.1,5.9-3.8,9.1-4.5c5.1-1.2,8.1-4,10-8.9
				c1.6-4.2,2.8-8.4,3.9-12.7c0.4-1.5,0.5-3.1,1.1-4.5c2.9-5.6,6.1-11,8.8-16.7c3.3-6.9,7-13.6,7.8-21.6c0.3-2.9,0.7-5.9,1-8.9
				c0.2-1.7,1.8-3.4,1.5-4.9c-0.3-1.8-0.8-3.1,0.3-4.9c1.4-2.5-1.6-4.3-1.9-6.6c0-0.2-0.4-0.4-0.7-0.6c-0.1,0.3-0.4,0.7-0.4,0.9
				c0.8,4-1.1,7.7-1.3,11.6c-0.2,3.3-1.4,6.7-2.3,10c-2.7,8.9-4.9,18.1-8.5,26.7c-1,2.5-1.4,5.3-2.8,7.6c-1.4,2.4-1.1,5.6-3.8,7.2
				c-0.5,5.1-4.2,8.6-6.7,12.6c-5.1,8.3-12.1,14.3-21.7,16.9c-0.5,0.1-0.9,0.7-1.3,0.8c-4.1,0.4-8.2,1.2-12.2,1
				c-4.3-0.2-8.7-1-12.7-2.4c-2.5-0.8-5.6-0.6-7.6-2.9c-0.2-0.2-1.4,0.2-1.8,0.7c-3.8,4.1-8.6,5.3-14,4.7c-0.5-0.1-0.8-0.8-1.3-1.2
				c0.3-0.3,0.7-0.9,1-0.9c2.2,0,3.6-0.8,3.3-3.1c-0.2-2.1,3.4-0.9,2.6-3.3c1.5,0.3,2.3-2.5,4.2-0.8c0.4,0.3,2.3-0.1,2.5-0.6
				C322.2,163,325,161.2,325.3,156.6c0-0.5-0.2-0.1-0.3,0.3c-0.1,0.3,0,0.7,0,1c0.4-0.3,0.9-0.4,1-0.8
				C326.1,156.8,325.9,156.3,325.3,156.6"/>
			<path id="Fill-5" class="st0" d="M483.4,238.5c-0.6-0.1-1.1-0.2-1.6-0.2c-0.1,0-0.3,0.4-0.4,0.7c0.5,0.1,1,0.3,1.4,0.3
				C483,239.3,483.1,238.9,483.4,238.5 M543.9,308.4c-0.1-0.2-0.1-0.5-0.2-0.5c-0.4,0.1-0.9,0.1-1.1,0.4c-2.5,2.8-4.2,6.5-8,8
				c-0.2,0.1-0.2,0.5-0.3,0.7c0.3,0.1,0.6,0.3,1,0.3C539.2,317.2,543.5,312.7,543.9,308.4 M551.6,256.4c0-0.1-0.1-1.4-0.4-2.6
				c-0.1-0.5-0.7-0.8-1.1-1.2c-0.2,0.4-0.5,0.7-0.7,1.1c-0.6,1.4-0.8,3.1-1.7,4.2c-1.8,2,1.9,3,0.6,4.8c-0.6,0.8-1,1.9-1,2.8
				c0,0.7,0.8,1.4,1.3,2.1c0.3-0.5,0.6-0.9,0.8-1.4C550.3,264.4,551.6,259.1,551.6,256.4 M542.8,224.8c0-2.7,0.1-5.5-0.1-8.2
				c0-0.5-0.7-0.9-1.1-1.4c-0.4,0.3-1,0.5-1,0.9c-0.6,3.6-4.8,5.1-5,8.9c0,0.4-1,0.9-1.6,1.2c-4.3,1.5-7.2,4.9-9.6,8.3
				c-2.2,3-4.1,6.1-6.8,8.7c-1.8,1.8-1.7,2.8,0.7,3.9c3.7,1.7,7.5,1.6,11.3,0.5c2-0.6,3.9-1.2,6-1.5c0.5-0.1,1,1.4,1.9,0.2
				c0.9-1.2,3.6-7.8,4.1-9.3C543.3,233,542.7,228.9,542.8,224.8 M479.6,222.8c-3.5,0-7,0-10.4,0c-0.4,0-0.9,0.4-1.2,0.8
				c-0.1,0.2,0,0.8,0.2,1c2.1,2,3.8,4.2,6.5,5.5c4.1,2,8.3,3.8,12.8,4.9c3.4,0.8,6.7,2,10.1,2c3,0.1,6-0.3,8.9-1.1
				c2.9-0.8,5.7-2.1,8.5-3.4c3.2-1.6,6.4-3.3,9.3-5.3c4.3-3.1,9.5-5.2,12.1-10.4c1-2,2.8-3.6,4.2-5.4c0.5-0.7,1.1-1.5,1.1-2.3
				c0.3-6.3-0.6-12.6,1.1-18.8c0.1-0.4-0.3-1-0.4-1.5c-0.5,0.4-1.3,0.8-1.5,1.3c-0.8,2.1-1.1,4.3-2,6.3
				c-3.9,8.7-10.2,15.4-17.9,20.8c-3.1,2.1-6.2,4.3-9.8,5.6c-2.4,0.8-4.7,2.2-7.3,2.2c-2.7,0-5.1,2.1-7.8,1.1
				c-1.6-0.6-1.9,2.4-3.9,0.8c-1-0.8-3-0.5-4.6-0.8c-0.4-0.1-0.9-0.6-0.9-1c0-0.4,0.4-1.1,0.7-1.1c1.3-0.1,2.6,0,3.8-0.1
				c1.3,0,2.6,0.1,3.8-0.2c0.6-0.1,1-1,1.4-1.5c-0.5-0.2-1-0.3-1.4-0.5c-2.2-0.7-4,1.1-6.1,1.1C485.9,222.8,482.7,222.8,479.6,222.8
				 M506.4,242.8c4.3,0.6,7.1-1.9,9.7-4.8c0.2-0.2,0.3-0.6,0.4-0.9c-0.4,0-0.7,0.1-1.1,0c-1.8-0.4-2.8,1.2-4.3,1.6
				c-1.6,0.4-2.8,2.1-4.8,1.7c-1.5-0.3-2.2,0.8-3,1.7c1,0.2,2,0.4,13.8-6c-0.2,0.2-0.4,0.3-0.6,0.5c0.2,0.2,0.3,0.3,0.5,0.5
				c0.2-0.2,0.4-0.4,0.5-0.7C517.4,236.4,517.2,236.3,506.4,242.8 M503.6,221.4c-0.6-0.5-0.8-0.8-0.9-0.8c-0.5,0-0.9,0.2-1.4,0.3
				c0.1,0.2,0.1,0.7,0.2,0.7c0.6,0,1.2-0.1,2.4-2c-0.2,0.2-0.4,0.3-0.6,0.5c0.2,0.2,0.3,0.3,0.5,0.5c0.2-0.2,0.4-0.4,0.5-0.7
				C504.2,219.9,504,219.8,503.6,221.4 M473.5,166.1c-12.8,18.2-13.6,18.4-14.3,18.2c-0.5-0.2-1.2-1-1-1.3c0.4-1.1,1-2.2,1.7-3.1
				c4.7-5.2,7.7-11.4,11.4-17.3c1.3-2.2,3-4.3,3.6-6.7c0.7-2.5,3.2-4.2,3-7c2.7-2.3,3.1-6.3,6-8.6c1.3-1,1.9-2.8,2.8-4.3
				c-1.8-1.9-0.7-4.4-1.5-6.5c-1.4-3.4-2.5-7-4-10.4c-2.2-5-4.6-9.8-5.6-15.3c-1.2-7.1-1.5-9.1,1.3-14c0.3-0.5,1-0.7,1.5-1
				c0.2,0.4,0.6,0.9,0.6,1.3c0.1,3.5-0.4,7.1,1.1,10.6c0.6,1.4,0.6,3.2,1.5,4.3c1.8,2,1.9,4.7,3.2,7c1.2,2.1,3.4,4.1,3,7
				c2.9,2.6,2.7,6.6,4.4,9.7c0.2,0.3,0.4,0.6,0.6,0.8c0.2-0.3,0.5-0.6,0.5-0.9c-0.5-5.2,1.2-10.5-1-15.5c-0.3-0.8-0.2-1.9,0-2.7
				c0.2-0.6,0.9-1.1,1.5-1.6c0.1-0.1,0.8,0.5,1.1,0.8c1.1,1,1.7,2,1.9,3.7c0.5,4.6,1.1,5.5,5.2,7.4c4,1.8,6.6,5,9,8.4
				c0.5,0.7,1,1.5,1.1,2.3c0.2,5.7,2.2,11.4,1.1,17.1c-1.8,9.4-4,18.7-8.8,27.1c-1.8,3.2-3.8,6.2-6.2,9c-3.5,4.1-6.2,8.8-8.8,13.5
				c-5.7,10.1-14.1,16-25.3,18.4c-0.6,0.1-1.2,0.5-1.8,0.9c-0.3,0.2-0.5,0.5-0.8,0.8c0.3,0.2,0.6,0.4,0.9,0.5c1.5,0.4,3,1,4.5,1
				c1.3,0,2.6-0.9,3.9-1c4.9-0.1,9.9-0.2,14.8,0c4.6,0.1,8.9-1.5,13.4-2.2c1.3-0.2,0.7-0.7,0.2-1.3c-0.7-0.8-0.7-1.6,0.5-2
				c0.8-0.2,1.6-0.6,2.5-0.6c7.2-0.4,10.5-6.3,14.8-10.6c1.8-1.8,2.6-4.9,2.7-7.6c0.2-6,0.1-12.1,0-18.1c0-0.5-0.6-1-1-1.5
				c-0.4,0.4-1,0.8-1.2,1.3c-2.1,5.8-5.3,11.1-8.9,16.1c-2.2,3-4.1,6.3-7.5,8.4c-2.9,1.7-5.1,4.4-7.8,6.5c-1.2,0.9-2.8,1.3-4.2,1.7
				c-0.3,0.1-1.1-0.3-1.2-0.6c-0.1-0.4,0.1-1.2,0.4-1.4c3.8-2.5,6.7-5.8,10-8.9c6.2-5.9,12.8-15.6,16-25.8c0.5-1.6,1.6-3,2.1-4.6
				c0.5-1.4,1.4-3.4,0.8-4.3c-0.9-1.5-0.3-2.9-0.8-4.1c-1.8-4.7-0.8-9.6-1-14.4c-0.1-2-0.1-4,0-6c0-0.7,0.4-1.4,0.7-2.2
				c0.9,0.7,2.2,1.3,2.5,2.2c0.7,1.9,0.9,4.1,1.2,6.1c0.4,2.8,1.8,5.4,1.1,8.3c2,3.3,1.5,7.3,3.2,10.8c0.7,1.3,1.1,3,1.1,4.5
				c0,1.7,1,3,1.1,4.5c0.3,6.3,1.9,12.5,1.2,18.8c-0.5,4.3-1.7,8.4-4.1,12.1c-0.2,0.4-0.2,1-0.3,1.5c0.5-0.2,1.1-0.4,1.5-0.6
				c3-1.6,6.7-5.2,8.3-8c1.1-2.1,2.1-4.3,3.4-6.3c1-1.5,1.1-2.9,1.1-4.5c0-1.8,0-3.7,0-5.5c0.1-5.5-1.5-10.6-4.8-15
				c-0.9-1.2-0.6-2.4-0.6-3.6c0-0.3,0.5-0.9,0.9-1c0.4,0,1,0.3,1.2,0.6c3.1,4.5,5.3,9.5,7.3,14.6c0.8,2.2-0.2,4.4,1.4,6.6
				c0.8,1.1,0.3,3.4,2,4.7c0.3,0.2,0.4,0.9,0.4,1.4c0.4,3,0.9,5.9,1.1,8.9c0.2,2.9,0,5.9,0.1,8.8c0,0.9,0.3,1.7,0.4,2.6
				c0.5-0.2,1.3-0.8,1.5-0.6c0.9,0.8,2.2,1.5,0.7,3c-3,2.9-1.3,6.4-1.2,9.6c3.2,2.3,2.1,5.8,1.5,8.5c-1,4.6-2.1,9.3-4.1,13.7
				c-2,4.3-2.6,9.3-4.7,13.5c-4.4,8.9-8.3,18.1-15.1,25.7c-3,3.3-6.2,6-9.8,8.2c-2.8,1.7-6,3.6-9.7,3.2c-0.5,0-1,0.3-1.5,0.4
				c0.5,0.5,0.9,1,1.4,1.5c0.1,0.1,0.3,0.2,0.5,0.2c3.5,0.4,7.1,1.5,10.5,0.9c4.2-0.7,8.6-0.3,12.5-3.1c3.6-2.6,7.1-5.1,8.1-9.9
				c0.3-1.3,1.3-2.4,1.8-3.6c1.6-3.7,3.2-7.5,4.6-11.3c0.4-1,0-2.2,0.1-3.3c0.3-3.2,0.3-6.4,1.2-9.4c1-3,3-5.7,4.6-8.5
				c0.1-0.3,1.2-0.4,1.4-0.1c1,1.1,2.4,1.3,3.2,2.9c3,5.8,3.7,11.5,1.4,17.5c-1.3,3.4-3.1,6.6-5.8,9.2c-1.2,1.2-1.9,3-3.2,4.1
				c-2.6,2.4-2,5.1-1.2,7.9c0.7,2.3,1.9,4.5,1.7,7c-0.1,0.9,0.2,1.7,0.3,2.6c0.6-0.5,1.3-1,1.9-1.5c1.7-1.3,3.3-2.6,5.1-3.7
				c0.2-0.1,1.3,0.5,1.4,0.9c0.3,1.9-0.7,3.5-1.9,4.7c-3.4,3.5-4.8,7.7-4.6,12.4c0.1,2.8-1.4,5.1-2.9,7c-1.5,2-3.2,3.9-6.1,4.9
				c-3,1-5.9,1.8-9.1,2c-8.2,0.5-15.3-0.1-23.5-3.4c-5.4-2.2-9-6.4-11.2-11.8c-0.1-0.3,0-0.9,0.2-1c0.4-0.2,1.2-0.5,1.4-0.2
				c1.7,1.4,3.3,2.8,4.8,4.3c2.6,2.5,6.2,3.2,9.3,4c4.6,1.2,9.4,2.1,14.3,1.4c0.8-0.1,1.8-0.5,2.3-1.1c3.2-4.4,7.2-8.1,9.4-13.1
				c0.8-1.7,1.8-3.4,2.1-5.2c0.4-2,0.3-4.2-1-6.2c-0.7-1.1-1.2-1.1-2.1-0.5c-0.4,0.3-0.8,0.7-1.2,1.2c-4,4.6-9.2,6.1-15,6.2
				c-4,0-8.1,0-12.1,0c-3.6,0-6.8-1.3-9.7-3.2c-3.5-2.3-7-4.5-10.3-7c-2.2-1.7-3.6-4.2-4.8-6.8c-1.5-3.2-3.5-6.3-5-9.5
				c-2-4.3-4.5-7.9-8.9-10c-0.4-0.2-0.3-1.3-0.4-2c2.5-0.3,4.3,0.4,6.3,2.3c4.1,3.8,6.9,8.2,9.2,13.3c1.6,3.7,4,7,7,9.7
				c1.7,1.5,3.5,2,5.7,2.3c6.5,0.8,12.2-1.5,17.3-4.6c3.3-2,5.9-5.4,8.3-8.5c4.9-6.4,8-13.9,11.6-21c0.1-0.3,0.2-0.5,0.3-0.8
				c-0.5-0.1-1.2-0.4-1.5-0.2c-3.6,3.1-8.4,4-11.8,7.3c-0.3,0.3-1,0.1-1.5,0.2c0-0.6-0.3-1.4,0-1.8c0.8-1.2,1.9-2.1,2.9-3.2
				c0.1-0.2,0-0.7-0.2-1c-0.2-0.2-0.7-0.5-0.9-0.4c-5.6,1.9-11.4,2.6-17.2,2.1c-4-0.3-7.9-1-11.8-2c-1.9-0.5-2.6-1.8-3.8-2.8
				c-0.2-0.2-0.2-1.1,0.1-1.4c0.3-0.3,1-0.3,1.4-0.3c0.3,0,0.5,0.7,0.8,0.7c6.1-0.6,12,3.2,18.3,0.4c1.3-0.6,3.6-0.8,5.1,0.9
				c0.1,0.1,1.2-0.4,1.6-0.7c0.1-0.1-0.3-0.9-0.5-1.3c0-0.1-0.4,0.1-0.5,0c-2.9-3.4-6.7-3.6-10.7-3.3c-1.4,0.1-2.7-0.4-4-0.8
				c-5.4-1.3-10.5-3.6-16.1-3.7c-1.3,0-2.6-0.8-4-1c-1.3-0.2-2.9,0.5-3.8-0.1c-1.9-1.4-3.9-2.2-6.2-2.4c-0.1,0-0.3-0.6-0.3-0.9
				c0-0.3,0.2-0.7,0.5-0.9c0.3-0.2,0.7-0.1,1.1-0.1c1.6-0.1,3.2-0.2,4.8-0.3c-0.7-0.5-1.5-1-2.2-1.6c-0.7-0.5-1.5-0.9-2.2-1.4
				c-3.3-2.5-6.4-5.2-8.6-8.8c-1.1-1.9-2.3-3.6-4.9-3.4c-0.7,0.1-1.5-0.9-2.3-1c-1.7-0.2-2.7-1.1-2.6-2.7c0-0.3,1.9-0.4,2.8-0.7
				c0.5-0.2,1-0.7,1.4-1.1c-0.5-0.4-0.9-0.9-1.4-1.1c-0.5-0.2-1.1,0-1.6,0c-0.3,0-0.8,0-1-0.2c-0.2-0.2-0.3-0.6-0.3-0.9
				c0-0.3,0.2-0.8,0.4-0.9c0.5-0.2,1.1-0.2,1.6-0.1c6.7,0.6,11.9-2.8,17.2-6.4c5.3-3.5,7.8-8.6,10.5-13.8c0.7-1.4,1.7-2.6,2.6-3.9
				c0.2-0.3,0.2-0.8,0.2-1.2c-0.5,0.1-1.2,0-1.5,0.3c-2.4,2.3-4.9,4.5-7,7c-2.8,3.3-6.8,4.9-10.1,7.7c-1.2,1-3.2,1.3-4.9,1.4
				c-2.4,0.2-4.8,0.1-7.1,0c-0.8,0-1.8-0.4-2.3-0.9c-0.8-0.8-2.7-1.6-1.7-2.9c1-1.3,2.6-0.8,3.6,0.6c0.9,1.2,2.2,1.5,3.4,0.9
				c5.4-2.7,11.2-4.7,15.3-9.6c2.3-2.7,5.8-4.4,7.9-7.2c1.8-2.5,4.3-3.9,6.3-6c0.3-0.3,0.5-0.7,0.8-0.8c5-1.5,7.2-5.4,9.7-9.5
				c1.7-2.9,2.2-6.1,3.4-9.1c3.3-8.2,3.7-16.9,3.3-25.6c-0.1-3.5-3.1-7.8-6.7-9.7c-0.3-0.2-1.3,0.2-1.5,0.6
				c-0.4,0.7-0.6,1.7-0.6,2.5c-0.1,3.5-0.2,7,0,10.4c0.5,7.9-2.7,15-4.4,22.4c-2.9,3.8-4.5,8.4-7.4,12.4
				c-5.9,8.2-14.1,13.3-22.6,18.4c-4.9,2.9-10,5.2-15.2,7c-2.7,1-5.6,1.8-8.7,1.7c-5.5-0.2-11,0-16.5-0.1c-0.4,0-0.9-0.5-1.1-0.8
				c-0.1-0.2,0-0.8,0.2-1c1.1-0.9,2.1-1.9,3.3-2.5c7.2-3.5,14.4-6.8,18.9-14.1c2.3-3.7,5.4-6.9,8-10.4c0.3-0.4,0.1-1.7-0.2-1.8
				c-0.9-0.2-2-0.2-1.6-1.5c0.1-0.4,1.1-0.5,1.6-0.9c2.7-2,4.2-6.1,3.9-10.1c-0.3-3.8,1.1-7.2,1.7-10.8c1.1-5.8,2.5-11.7,1.3-17.4
				c-0.6-3.2-1.1-6.4-0.8-9.5c0.5-5.6-0.9-11.1-1.4-16.6c-0.2-2.2-0.3-4.6-1-6.7c-0.8-2.3-0.8-4.5-1-6.7c-0.1-0.8-0.9-1.4-1.3-2.2
				c-0.4-0.8-0.7-1.6-0.8-2.4c0-0.3,0.4-0.8,0.8-1.1c0.2-0.1,1,0.1,0.9,0.2c-0.1,2.3,2.9,2.9,2.8,5.6c-0.1,2.4,1.5,4.8,2.3,7.2
				c0.2,0.5,0.7,0.9,0.8,1.3c0.4,2-0.4,4.1,0.9,6.3c0.9,1.5,0.5,4,1.1,6.1c0.6,2.2,0,4.7,0.2,7.1c0.3,5.7,0.7,11.4,1.1,17.1
				c0.4,5.5-1.8,10.7-2.5,16c-0.1,1-0.6,2-0.8,3c-0.1,1.1,0.2,2.3-0.1,3.3c-0.3,0.9-1.9,1.7-0.5,2.6c1.4,0.9,2.3-0.7,2.8-1.7
				c2-4.5,4.2-8.8,4.7-14.1c0.4-4.1,1-8.5,3-12.4c1.7-3.5,0.9-7.4,1.2-11.1c0.3-4-0.8-7.6-2.7-11c-1.8-3.3-3.1-6.9-5.2-9.9
				c-2.6-3.9-2.1-8.1-2.1-12.3c0-0.3,0.6-0.8,1-0.9c0.4,0,1.1,0.5,1.1,0.7c-0.5,3.5,0.8,6.5,2.3,9.5c0.7,1.5,1.3,3.2,2.3,4.5
				c3.2,4.1,5.4,8.7,7,13.6c0.2,0.6,0.6,1.3,0.6,1.9c-0.3,5.4,0.7,10.9-1.9,16.3c-1.7,3.5-2.3,7.7-2.4,11.6
				c-0.1,6.3-2.7,11.3-6,16.3c-2.4,3.7-5.2,7.1-8.1,10.4c-3,3.4-5.3,7.3-8.1,10.9c-3.6,4.5-7.9,8.4-12.5,11.7
				c-0.5,0.4-1.5,0-2.1,0.2c-0.3,0.1-0.7,0.8-0.7,1.2c0,0.3,0.7,0.9,1,0.9c2.4-0.3,5.1-0.2,7.2-1.2c2.8-1.3,5.9-1.7,8.6-3.2
				C454.3,188.9,458.1,187,473.5,166.1c12.1-19.1,12.1-19.3,12.1-19.5c-0.2-0.6-0.4-1.2-0.6-1.8c-0.5,0.5-1.5,1.1-1.5,1.5
				c0.2,1.6-0.6,2.7-1.2,3.9c-2.5,5-4.8,10.1-7.6,15c-4.6,7.9-8.3,12.9-12.9,17.1c-0.3,0.3-0.5,1.1-0.4,1.4c0.6,1.6,0.9-0.1,1.3-0.2
				c1.7-0.8,3.4-1.6,4.9-2.7c2.4-1.8,4.7-3.7,6.9-5.8c2-1.8,4.6-3.6,2.3-7c-0.1-0.1,0.6-1,1.1-1.3c1.5-1,2.4-2.3,3.4-3.8
				C484.7,158.1,484.1,152.4,473.5,166.1"/>
			<g id="Group-9" transform="translate(0.000000, 161.659599)">
				<g id="Clip-8">
				</g>
				<defs>
					<filter id="Adobe_OpacityMaskFilter" filterUnits="userSpaceOnUse" x="21" y="21.6" width="147.7" height="183.6">
						<feColorMatrix  type="matrix" values="1 0 0 0 0  0 1 0 0 0  0 0 1 0 0  0 0 0 1 0"/>
					</filter>
				</defs>
				<mask maskUnits="userSpaceOnUse" x="21" y="21.6" width="147.7" height="183.6" id="mask-2">
					<g class="st1">
						<polygon id="path-1" class="st2" points="21,21.6 21,205.3 168.7,205.3 168.7,21.6 						"/>
					</g>
				</mask>
				<path id="Fill-7" class="st3" d="M64.9,195.6c0.4-0.3,0.8-0.6,1.3-0.9c-0.5-0.1-1-0.4-1.4-0.3c-0.5,0.1-1,0.4-1.5,0.7
					C63.7,195.2,64.2,195.4,64.9,195.6L64.9,195.6z M102.4,30.4c-1.8,0.2-3.9,0-6.2,0.9c-2.1,0.9-4.8,0.9-7.2,1.1
					c-5.6,0.4-10.2,3.1-14.8,5.4c-5.8,2.9-10.7,7.6-15.1,12.6c-0.2,0.2-0.3,0.6-0.4,0.9c0.5,0,1.2,0.1,1.6,0
					c0.5-0.2,0.8-0.8,1.2-1.1c3.7-2.8,7.6-5.3,11.6-7.6c5-2.9,10.3-5.1,15.9-6.6c2.6-0.7,5-2.5,7.8-2.2c2.1,0.3,3.7-0.7,5.5-1.3
					c1-0.3,1.9-0.6,2.9-0.9c0.6-0.2,1.2-0.4,1.8-0.6c-0.7-0.2-1.3-0.4-2-0.5c-0.7-0.1-1.5,0-46.3,22.4v-1.5c-0.7,0.5-1.3,1-2,1.4
					c0.3,0.3,0.6,0.8,0.8,0.7C58,53.3,58.4,52.9,102.4,30.4L102.4,30.4z M56,193.2h0.5c-0.1-0.3-0.2-0.6-0.3-0.8
					c-0.1-0.1-0.4,0.1-0.7,0.2c0.2,0.2,0.3,0.4,3.6,1.3c-0.9-0.3-1.2-0.6-1.6-0.6c-0.3-0.1-0.7,0-1,0c0.3,0.4,0.4,0.9,0.8,1
					C57.7,194.4,58.2,194.1,56,193.2L56,193.2z M109.5,23.8c2.8,0,5.5,0.1,8.2,0c5.2-0.3,10.5-0.1,15.5-1.3
					c3.6-0.8,7.1-0.8,10.6-0.9c6.4-0.1,11.7,2.7,16.5,6.5c2.5,1.9,6.4,10.3,7.4,13.4c1,3,1,5.9,0.9,8.9c0,0.3-0.7,0.8-1.1,0.8
					c-0.4,0-1-0.5-1-0.8c-0.2-1,0.2-2.5-0.4-3.1c-2.8-2.8-2.3-6.9-4.3-9.8c-1.3-1.9-3.3-3.5-5-5.1c-2.9-2.7-6.2-4.5-10.4-4.2
					c-3.3,0.2-6.6,0-9.9,0c-0.9,0-1.9-0.1-2.7,0.1c-0.6,0.2-1.1,1-1.6,1.5c0.5,0.2,0.9,0.4,1.4,0.5c2.7,0.9,4.9,3.2,8,3.4
					c0.2,0,0.5,0.6,0.5,0.8c-0.1,0.5-0.4,1.2-0.7,1.2c-2,0.1-4.2,0.6-6,0c-6.4-2.2-12.9-0.7-19.4-0.8c-2.7-0.1-5.5,1.6-8.1,2.8
					c-10.4,4.7-12.3,6-20.6,12.8c-3.4,2.8-7.2,5.2-10.3,8.2C73,62.9,69,67.3,65.4,72c-1.3,1.8-2.6,3.2-4.5,4
					c-0.6,0.2-1.2,0.2-1.9,0.4c0-0.6-0.1-1.4,0.2-1.9c2.5-4.7,5.5-9.2,8.8-13.4c3.5-4.4,7.5-8.3,11.3-12.3c0.3-0.3,0.1-1,0.1-1.5
					c-0.4,0.1-0.8,0.2-1.2,0.4C68.9,53,60.2,59.3,52.9,67.5c-1.4,1.5-0.5,3.1-0.8,4.6c-0.2,1-1.2,1.7-1.8,1c-1.2-1.2-3-2.2-2.6-4.4
					c0-0.3-0.3-0.6-0.5-0.9c-0.3,0.2-0.6,0.4-0.8,0.7c-0.7,1.5-1.9,3.1-1.9,4.7c0,1.9-1.3,3.3-1.2,5c0.1,1.8-0.8,3.4-1,5.1
					c-0.6,4.6,0.7,9,2.1,13.4c0.2,0.8,0.8,1.5,1.1,2.3c0.8,2.3,0.7,2.3,2.6,0.9c0.8-0.6,1.5-2.1,2.6-1c0.9,0.9,0.4,2.1-0.4,3.3
					c-4.1,5.7-7.7,11.7-10.6,18.2c-3.6,8-6.9,16.2-9.5,24.6c-0.9,2.8-1.4,5.7-2.6,8.3c-1.1,2.3-1.1,4,0.8,5.7c2.3,2,3,5,4.3,7.6
					c2.1,4.2,4.9,8,8.1,11.5c5.8,6.4,5.9,5.9,10.4,8c3.1,1.4,6.6,1.8,9.8,2.8c4.9,1.4,10,2.5,14.1,5.9c1.9,1.6,4.1,2,6.4,1.8
					c1.3-0.1,2.6-0.1,3.8,0c0.3,0,0.9,0.6,0.9,1c0,0.4-0.4,1-0.8,1.1c-0.9,0.2-1.8,0-2.7,0.1c-0.7,0.1-1.3,0.4-1.9,0.6
					c0.3,0.6,0.5,1.3,0.8,1.9c0.4,0.9,1,1.8,1.3,2.7c0.1,0.4-0.2,1.2-0.5,1.3c-0.3,0.2-1-0.2-1.5-0.3c-0.2-0.1-0.3-0.2-0.4-0.4
					c-1.6-1.6-2.9-3.8-4.7-4.5c-2.3-0.8-5.1-0.5-7.6-0.2c-5.5,0.8-10.4-1.8-15.6-2.3c-4.7-3.3-10-5.8-12.7-11.5
					c-1.3-2.8-3.8-5-5.3-7.7c-2.6-4.6-5.7-8.9-6.7-14.3c-0.1-0.7-0.4-1.3-0.8-1.9c-0.7-1.1-1.7-1.4-2.6-0.2
					c-0.5,0.7-0.7,1.5-1.2,2.2c-0.1,0.2-0.7,0.4-0.9,0.3c-0.4-0.2-1-0.6-1-0.9c-0.1-2.9-0.8-6.1,0.1-8.7c1.2-3.2,1-6.5,1.8-9.7
					c1.9-6.9,3.7-13.8,6.7-20.3c2.2-4.8,4.8-9.4,7.6-13.9c1.1-1.7,2.6-2.9,3.8-4.5c2-2.6,2.1-3.8,0.3-6.8C41,98.4,40.4,97,40,95.5
					c-1.5-5.4-3.2-11-2.1-16.7c0.8-4.5,1.9-9,3.7-13.3c2.2-5.3,5.2-10.1,8.5-14.6c4.6-6.2,9.5-12.5,16.7-16.2
					c1.8-2.9,5.3-3.4,7.8-5.2c2.3-1.6,5.4-2,8.1-2.9c2.1-0.7,4.2-1.4,6.4-1.8c2.9-0.5,5.9-0.9,8.9-1.1c2.9-0.2,5.9,0,8.8,0H109.5z"
					/>
			</g>
			<path id="Fill-10" class="st0" d="M287.6,576.2c-3,0.3-5.9,0.6-8.8,1.1c-3,0.5-5.5,2.6-8.3,3.2c-4.9,1.1-9.1,4.7-14.1,5.4
				c-0.2,0-0.6,0.9-0.6,1.2c0.1,0.3,0.6,0.7,1,0.6c1.6-0.4,3.6-1.5,4.7-1.1c2.3,0.9,4.8-1.2,6.6-0.5c2.5,0.9,4.9-0.3,7.3-0.6
				c5.6-0.8,11.2-1.6,16.9-1.9c1.9-0.1,4-1,5.6,0.6c3.3-0.8,6.2,0.8,9.4,0.9c1.8,0,2.2-0.5,2-1.9c-0.1-0.3-0.1-0.7,0-0.9
				c0.4-0.4,0.9-0.7,1.3-1c0.3,0.3,0.7,0.7,0.8,1c0.7,3.9,0.7,3.8,4.8,4.1c1.9,0.1,3.4,0.1,4.1-1.9c0.2-0.8,1.4-1.3,2.1-1.9
				c0.8-0.8,1.2,0.1,1.5,0.5c0.4,0.5,0.6,1.2,0.6,1.7c0,1.3,0.6,1.8,1.9,1.3c3.6-1.4,7.6-0.4,11.4-0.9c1.5-0.2,3.4-0.7,4.4,0
				c3,1.9,6.6,2.6,9.4,4.7c3.1,2.3,6.6,3.5,9.9,5.1c4.2,2.1,8.5,2,12.5,2c0.7,0,2,0.8,1.7-0.5c-0.2-0.8-1-2-1.8-2.5
				c-0.8-0.6-2-0.9-3-0.9c-2.4-0.1-4.4-1.1-6.8-2.5c-4-2.5-7.5-5.6-11.5-7.9c-2.5-1.4-5-3.1-7.7-3.7c-6.2-1.3-12.5-1.9-18.8-2.3
				c-0.5,0-1,0.2-1.4,0.3c-5.9,1.3-12,0.4-18.1,0.4c-2-2-5-0.1-7.1-1.2c-2.4-1.2-5-0.2-7.5-0.2C290.6,575.8,289.1,576,287.6,576.2
				 M321,611.8c0,0.1,0,0.2,0,0.3c5,0,10.1,0.3,15.1,0.7c0.9,0.1,1.8-0.3,2.7-0.4c7.4-0.5,14-2.4,19.8-5.5c3.2-1.7,6.1-3.9,9.4-5.5
				c0.2-0.1,0.4-0.3,0.6-0.4c-0.3-0.2-0.5-0.6-0.8-0.7c-1.2-0.5-2.7-1.5-3.5-1.2c-1.7,0.5-3.1-0.1-4.8-1c-1.7-1-3.5-1.8-5.2-2.6
				c-3.6-1.8-7.1-3.9-10.9-5.2c-4.8-1.7-9.5-0.5-14.3-0.6c-1,1.2-2.5,0.5-3.9,0.5c-3.9-0.1-5.2,1-5.4,4.3c0,0.8,0,1.6-0.1,2.4
				c0,0.2-0.6,0.4-0.8,0.3c-0.4-0.1-1.2-0.4-1.2-0.7c-0.1-1.6-0.1-3.2-0.1-4.8c-1.9-0.3-3.8-0.4-5.7-0.7c-0.6-0.1-1.1-0.8-1.7-1
				c-2.3-0.5-2.9,0-3.2,2.1c-0.1,0.6-0.5,1.6-0.6,1.6c-1-0.1-2-0.3-2.9-0.7c-0.8-0.4-1.3-1.1-0.4-2c1.7-1.8,0.5-1.8-1.3-2.2
				c-1.9-0.4-3.6-0.9-5.6-0.7c-0.9,0.1-1.8,0.3-2.7,0.1c-6.2-0.7-6.2-0.7-12.1,1.2c-1,0.3-2.5,0.7-3.1,0.3c-1.3-1-2.7-0.3-4-0.1
				c-2.3,0.3-4.9,1.5-6.9,1.2c-2.3-0.4-4.8,1.1-6.5,0.4c-2.1-0.9-4.2,0.9-6.5,0.4c-2.4-0.6-5.6,0.8-8.5,1.5
				c-0.8,0.2-1.6,0.8-2.4,1.2c0.7,0.1,1.4,0.2,2,0.3c0.9,0.2,1.8,0.2,2.7,0.5c7.2,2.3,14.5,5.1,20.9,9c5.6,3.4,12.1,3.5,18.4,4.9
				c4.4,1,9.2,0,13.7,1c1.9,0.4,4.2-0.1,6.2,0.1c2.1,0.2,4.2,0.8,6.3,1.1C316.2,611.6,318.6,611.6,321,611.8 M237.8,591.3
				c0.8-0.3,1.9-0.9,3.1-1.3c3.2-1,6.4-2.1,9.5-3.8c0.3-0.2,0.7-0.4,1-0.6c1.8-1.3,3.6-2.4,5.8-3c1.6-0.4,3.9-1.1,4.8-2.2
				c1.6-2,4.5-0.9,5.6-3.1c2.3,0.2,4.2-1.4,6-2.3c2.1-1,4.3-1,6.2-1.9c3.5-1.7,7.1-1.7,10.7-2c2.1-0.1,4,0.9,6.3,0.6
				c1.9-0.3,3.8,0.1,5.7,0.6c3.4,0.8,7.1,0.8,10.6,1.3c2,0.2,4.1,0.3,6-0.2c2.1-0.6,5.5-0.9,7.6-0.5c3.3,0.6,6.3-0.6,9.6,0.3
				c3.1,0.9,6.2,1.3,9.4,1.9c3.2,0.6,6.1,2.1,8.8,4.2c2,1.6,3.9,3.2,5.9,4.7c2.6,2,5.3,3.7,8.4,5.1c3,1.4,6.9,2.5,8.8,6.3
				c2.9,0.7,4.2,4.5,7,5.3c0.3,0.1,0.9,0.4,0.9,0.6c0.4,1.3,0.6,2.6,0.9,3.9c-0.8-0.6-1.8-1-2.3-1.7c-1.2-2-3.1-2.8-4.5-3
				c-2.1-0.2-4.5,0.1-5.9,1.2c-2.8,2.2-6.5,3.5-9.1,6c-0.9,0.8-1.9,1.7-2.9,2.4c-4,2.8-9.1,3.9-14,5.4c-4,1.2-8.1,2-12.8,1.3
				c-1.2-0.2-2.5,0.1-3.7,0.4c-0.6,0.1-1,0.7-1.6,1c0.6,0.3,1.3,0.5,1.9,1c0.4,0.3,0.6,0.9,0.9,1.4c-0.4,0.1-0.8,0.4-1.2,0.4
				c-0.5,0-1.3,0-1.4-0.3c-1.7-2.9-4.6-2.2-7.1-2.7c-3.3-0.6-6.6-1-10-0.8c-2.6,0.2-5.2-0.6-7.8,0.8c-1.6,0.8-4.1-0.7-5.7,1.2
				c-4.9-0.7-9,3.3-13.8,3.1c-1.2-0.1-1.8,0.7-2.5,1.4c-0.5,0.5-1.4,0.9-2.1,1.1c-0.4,0.1-1.1-0.1-1.2-0.3c-0.2-0.3,0-1,0.3-1.3
				c0.8-0.8,1.7-1.9,2.7-2.1c2.8-0.5,4.9-2.9,7.6-3.1c3.2-0.3,5.7-2.6,8.8-2.7c0.2,0,0.4-0.4,0.6-0.6c-0.3-0.1-0.6-0.3-0.9-0.4
				c-2.3-0.2-4.5-0.4-6.8-0.6c-2.1-0.1-4.2-0.1-6.3-0.4c-2.6-0.3-5.3-0.7-7.8-1.4c-4.3-1.2-8.6-2.3-12.4-4.6c-5.1-3-10.5-5.6-16-7.7
				c-2.1-0.8-4.2-1.6-6.3-2.4c-1.9-0.8-4-1.3-5.9-2c-1.9-0.7-3.7-0.3-5.4,1.8c-2.1,2.4-4,5-6.1,7.5c-0.3,0.3-1,0.6-1.3,0.5
				c-0.3-0.1-0.5-0.8-0.4-1.1c2.1-3.3,4-6.7,6.6-9.5C232.3,592.9,234.8,592.4,237.8,591.3"/>
			<path id="Fill-12" class="st0" d="M226.9,394.8c-0.1-0.1-0.3-0.3-0.4-0.4c-0.1,0.2-0.3,0.5-0.3,0.7c0,0.1,0.2,0.2,0.3,0.4
				C226.6,395.3,226.8,395.1,226.9,394.8 M223.8,416.1c-0.3-0.4-0.5-0.6-0.7-0.9c-1.4-2.8-1.4-5.7,0-8.5c0.1-0.2,0.4-0.3,0.4-0.4
				c-0.2-0.3-0.6-0.9-0.6-0.8c-3.1,1.3-6.4,2-9.2,4.1c-1.1,0.8-1,1.5-0.2,2.7c2.1,2.8,5.2,3.9,8.3,4.9
				C222.3,417.3,223.1,416.5,223.8,416.1 M258.9,410.3c0.6,2-0.5,4-1.5,6.1c-0.4,0.9-0.4,2-0.6,3c1,0,2,0.2,3,0c1-0.1,2-0.8,3-0.7
				c4.7,0.7,9.2-1.4,13.8-1.2c0.3,0,0.8-0.2,0.9-0.4c0.1-0.5,0.1-1.2-0.2-1.4c-2-1.7-4.2-3.3-6.1-5.1c-2.7-2.6-5.7-4.6-9-6.2
				c-1.4-0.7-2.9-1.2-4.4-1.7c-0.6,1.6,0.7,2.6,1,3.9C259.1,407.6,258.9,408.8,258.9,410.3 M241,420.9c2.6,0,4.8,0.1,7,0
				c3-0.2,5.5-1.7,6.1-4.6c1.1-5.3,0.9-10.5-2.4-15.2c-0.8-1.1-1.8-1.2-2.9-1c-0.7,0.1-1.3,0.3-2,0.5c0.2,0.6,0.3,1.5,0.7,1.8
				c2.5,1.6,2.8,4,2.5,6.7c-0.1,1.1,0,2.2,0,3.3c-0.1,2.3-4.7,7.3-7,7.4c-2.4,0.2-4.8,0.3-7.1-0.1c-1.2-0.2-2.5-1.4-3.3-2.5
				c-0.9-1.2,0.6-1.8,1.2-2.6c1.6-2.4,1.2-5.6-1.2-6.8c-1.5-0.7-2.5-1.4-2.3-3.1c0.1-1.3-0.6-1.5-1.7-1.5c-1.1,0-1.2,0.6-1.8,1.4
				c-1.7,2.4-1.4,5.1-0.8,7.3c0.9,3.6,1.8,7.8,7,7.9C235.6,422,238.7,420.2,241,420.9 M226.6,416.5c18.7,12.1,17.9,12.1,17.2,12.1
				c-9.9,0.6-15.1-1.3-23.4-4.6c-4.1-1.6-8.2-4.2-10-9c-0.5-1.3-1.5-2.3-3-0.6c-1,1.1-2.5,1.8-3.8,2.8c-1,0.8-1.5,0.1-2.3-0.4
				c-1.2-0.9-0.4-1.5,0.3-2c2.4-1.7,2.5-5.6,6.1-6.2c0.2,0,0.6-1,0.4-1.4c-0.4-1-0.8-2.3-1.7-2.8c-1.2-0.7-1.9,0.7-2.6,1.5
				c-1.6,1.9-4.2,3-4.7,5.7c-0.1,0.2-1,0.5-1.4,0.3c-0.3-0.2-0.5-0.9-0.6-1.4c-0.2-2.4,1.9-3.8,3.1-5.3c5.1-6.5,12.1-10.2,19.7-13.2
				c3.1-1.2,6.1-2.1,9.3-2.7c3.1-0.6,6-2.1,9.3-1.6c3.6-2.3,7.9-0.3,11.8-2c1.7-0.8,4.6-1.1,6.7,0.7c0.6,0.5,1.7,0.3,2.6,0.2
				c3.6-0.2,6.5,1.5,8.8,3.8c3.1,3,6.1,6.1,8.5,9.7c1.6,2.5,3.8,4.3,5.5,6.5c0.3,0.4,0.6,1.3,0.4,1.4c-0.5,0.3-1.3,0.8-1.8,0.6
				c-0.9-0.3-1.9-0.9-2.6-1.7c-3-3.3-6-6.6-9-10c-3.7-4.3-8.3-6.5-14.1-5.9c-1.1,0.1-2.1,0.2-3.2,0.3c0.9,1,1.8,2.7,2.8,2.8
				c4.7,0.4,8.2,3.2,12,5.5c5,3.1,8.4,7.8,12.5,11.8c0.7,0.7,0.9,2.1,1.7,2.5c3.1,1.6,2,5.1,3.7,7.4c0.2,0.3-0.8,1.9-1.6,2.5
				c-0.3,0.2-1.6-0.5-2.2-1c-0.9-1-1.6-3-2.4-3c-1.3,0-2.9,1-4,2c-1.1,1-2.1,1.2-3.4,1.2c-1.8-0.1-3.7,0-5.5,0
				c-0.2,0-0.3,0.4-0.4,0.7c0,0.1,0.2,0.3,0.4,0.3c1.5,0,2.9,0,4.4,0.1c0.2,0,0.5,0.6,0.5,0.8c-0.1,0.5-0.4,1.2-0.6,1.3
				c-1.3,0.1-2.6,0.1-3.8,0c-2.7-0.2-5.2,0.1-7.6,1.6c-0.8,0.5-2,0.6-3,0.6C252.6,428.6,249.3,428.6,226.6,416.5
				c-17.7-11.9-16.5-12.6-16.1-14.3c3.2-0.8,6.3-2.2,10.2-5.6c0.9-0.9,0.1-0.6-0.6-0.1c-0.4,0.3-0.5,0.9-0.8,1.3
				c0.4,0,0.7,0.1,1.1,0c0.8-0.2,1.7-0.4,2.4-0.8c0.3-0.2,0.4-0.7,0.6-1.1c-0.3-0.1-0.7-0.2-2.7,0.8c-4.9,1.4-7.7,2.9-10.2,5.6
				C208.8,402,207.7,402.6,226.6,416.5"/>
			<path id="Fill-14" class="st0" d="M429.5,407.8c0-0.2,0.1-0.4,0-0.5c-4.2-5.1-9.2-9-15.2-11.7c-0.2-0.1-0.6,0.1-1,0.2
				c0.2,0.4,0.2,1,0.5,1.1c3.6,2.1,7,4.6,9.9,7.7c1.4,1.5,3.2,2.6,4.9,3.9c0.1,0.1,0.5,0,0.7-0.1C429.5,408.2,429.5,408,429.5,407.8
				 M375.6,408.2c-0.7,5.6,4.1,8.1,7.3,11.5c0.3,0.3,1.1,0.1,1.6,0c0.3,0,0.6-0.3,0.9-0.4c-0.2-0.2-0.3-0.5-0.6-0.7
				c-0.9-0.6-2.3-1-2.5-1.7c-0.2-1,0.6-2.2,1-3.3c0.1-0.3,0.7-0.5,0.7-0.8c0.1-1.6,0.5-3.3,0.1-4.7c-0.3-1.1-1.5-1.9-3.1-1.7
				c-0.3,0-1.1-0.8-1.1-1.3c-0.1-1.2,0-2.1-1.7-2c-1.5,0.1-2.3,0.9-2.7,2.1C375.4,406.1,375.6,407.1,375.6,408.2 M404.5,409.1
				c-0.5-2.2-0.8-4.4-1.5-6.6c-0.9-3.1-5.6-5.1-8.3-3.5c-0.1,0.1,0,0.9,0.3,1.1c1.1,1.2,2.3,2.3,3.5,3.5c0.5,0.5,1.2,1.1,1.2,1.7
				c0.1,4.2,0.8,8.7-3.3,11.8c-0.8,0.6-2,2.1-1.9,2.2c1.1,1.2,1.7-0.3,2.6-0.6c0.5-0.2,1.1-0.2,1.6,0c2.7,1,3.3-1.3,4.2-2.8
				C404.4,413.9,404.2,411.5,404.5,409.1 M372.9,420.9c0.9,0,1.3,0,1.6,0c0.7-0.1,1.3-0.3,2-0.4c-0.4-0.5-1-1-1.3-1.6
				c-1.6-3.4-4.9-6.5-2-10.9c0.6-0.9-0.4-1.8-1.5-1.4c-1.4,0.5-2.8,1.2-4,2.2c-2.6,2.2-5.1,4.5-7.5,6.9c-0.8,0.8-0.1,2.7,0.9,2.9
				C365.3,419.4,369.4,420.2,372.9,420.9 M407.1,417.4c1.8-0.5,2.7-1,3.5-0.9c2.6,0.3,4.6-1.2,6.9-1.8c2.4-0.7,4.9-1.1,7.2-2.5
				c1.5-0.9,1.6-1.1,0.4-1.8c-4.9-2.8-9.4-6.3-14.6-8.3c-0.9-0.3-1.6-2-2.6-0.8c-0.5,0.6,0,1.9,0.1,2.9c0.1,0.7,0.5,1.3,0.6,1.9
				c0.1,2.8,0.2,5.6-1.6,8.1C406.1,415.4,407.1,417.4,407.1,417.4 M401.8,424.4c-22.8,4.2-25.7,4.2-28.7,4.2c-1.5,0-2.8,0-3.9-1.4
				c-1.4-1.8-3.4-0.5-5.1-0.9c-0.6-0.1-1.2-0.5-1.7-0.8c0.4-0.5,0.7-1.2,1.1-1.3c1-0.2,1.3-0.6,0.4-1.2c-0.7-0.5-1.5-1-2.3-1
				c-1.3,0-2.4-0.3-3.4-1.3c-0.5-0.6-1.5-0.7-2.3-0.9c-0.8-0.3-2.1-0.3-2.3-0.8c-0.7-1.7,1.3-1.1,1.9-1.8c0.7-1,1.4-2,1.9-3
				c3.4-6.7,8.6-11.4,14.9-15.4c4.6-2.9,9.6-4.3,14.5-6.1c3-1.1,6.5-1,9.8-1.5c0.3,0,0.6-0.4,0.8-0.5c-0.3-0.2-0.6-0.5-0.9-0.5
				c-4.8,0-9.7-0.8-14.2,0.2c-4.7,1.1-9.4,3.1-13.4,5.9c-3.8,2.7-7.8,5.2-11.7,7.9c-5.2,3.7-7.8,8.6-10.4,13.9
				c-0.8,1.7-1.7,3.3-2.7,4.9c-0.1,0.2-0.8,0.3-1,0.1c-0.3-0.3-0.8-0.9-0.7-1.2c2.5-7.6,4.6-15.4,11.4-20.6
				c3.7-2.8,7.6-5.5,11.6-7.8c4.1-2.4,8.4-4.5,12.7-6.6c3.1-1.5,6.9-2.5,10-2.1c7.3,1,14.7,1.3,21.7,4.7c4.9,2.4,9.8,4.7,14.3,7.9
				c2.6,1.9,5.2,3.5,6.5,6.6c0.3,0.8,1.3,1.3,1.9,2c1.6,1.9,1.6,3.8,0,5.6c-1.7,2.1-4.2,3.1-6.5,4.3c-0.5,0.2-0.8,0.8-1.2,1.1
				c0.6,0.2,1.1,0.4,1.7,0.5c0.5,0.1,1.1,0,1.6,0c0.8,0.1,2-0.6,2.2,0.9c0.2,1.9-1.3,1.1-2.3,1.3c-0.8,0.2-1.6,0.5-2.4,0.9
				c-0.5,0.2-0.9,1.1-1.2,1.1c-4.2-0.7-7.5,3.2-11.7,2.5c-1.6-0.3-3.1,0.1-4.5,1.1c-2.5,1.8-5.7,1.6-8.5,2c-3,0.4-5.9,1.2-8.9,1.3
				C388.1,428.6,385,428.6,401.8,424.4c20.9-4.8,21.9-5.3,22.9-5.9c0.2-0.1,0.4-0.3,0.4-0.4c-0.1-0.2-0.3-0.5-0.5-0.5
				c-1.1-0.1-2.2-0.2-3.3,0c-0.6,0.1-1.1,1-1.6,1.5C420.2,419.4,420.7,419.7,401.8,424.4"/>
			<path id="Fill-16" class="st0" d="M296.7,384.1c0-0.3,0-0.5-0.1-0.8c-0.2,0.1-0.4,0.1-0.5,0.2c-0.1,0.3,0,0.5,0,0.8
				C296.4,384.2,296.5,384.1,296.7,384.1 M269.8,372.2c0.1,0.2,0.1,0.4,0.2,0.5c0.2-0.2,0.5-0.3,0.6-0.5c0.1-0.1-0.1-0.3-0.2-0.5
				C270.3,371.9,270,372.1,269.8,372.2 M259.5,365.7c-0.3-0.9-0.5-1.8-0.8-2.7c-0.6,0.2-1.3,0.5-1.9,0.7c0.5,0.9,1.1,1.8,1.6,2.7
				C258.7,366.3,258.9,366.1,259.5,365.7 M238.9,367.7c-0.7-1.4-1.1-2.3-1.4-3.2c-0.7,0.4-1.7,0.7-2.1,1.3c-0.8,1.2,0.5,1.4,1.2,1.7
				C237,367.8,237.6,367.7,238.9,367.7 M284.6,382.8c1,0.4,2,1,3,1.3c0.3,0.1,0.9-0.3,1.2-0.7c0.6-0.7,0.4-1.2-0.5-1.4
				c-3.4-0.9-5.6-2.9-6.3-6.5c-0.1-0.5-0.3-1.1-0.7-1.4c-0.3-0.2-1-0.2-1.5-0.1c-0.2,0.1-0.5,0.9-0.4,0.9c1.8,1.2,0.8,2.9,0.9,4.5
				c0,0.7,0.8,1.5,1.4,2c0.9,0.6,2,0.9,11.1-3.4c-2.2-1-3.2-0.4-3.4,1.4c0,0.7,0.5,1.5,0.2,2c-0.9,1.5,0.5,1.5,1.1,1.6
				c0.6,0.1,1.3-0.5,2-0.7c0.8-0.2,1.7-0.1,2.5-0.2c-0.3-1-0.5-2-1-2.9C293.8,378.6,293,378.1,284.6,382.8 M299.3,394.7
				c-0.1-0.3-0.1-0.5-0.2-0.8c-0.2,0.1-0.4,0.2-0.6,0.3c0.1,0.2,0.2,0.5,0.4,0.7c0,0,0.3-0.1-2-1.6c0.8,0,1.5,0.1,1.9-0.1
				c0.5-0.3,0-3.1-0.3-2.9c-0.9,0.4-1.7,1-2.4,1.6C296.1,392,296.6,392.8,299.3,394.7 M257.6,359.2c1.4-3.5,4.1-1.4,5.6-0.1
				c2.1,1.9,5.3,2.8,6.4,5.8c0.1,0.4,0.8,0.5,1.2,0.8c0-0.6-0.2-1.2,0.1-1.7c0.3-0.5,1.1-1.2,1.4-1.1c2.3,0.8,4.5,1.9,7.1,2
				c1.3,0,2.5,1.7,3.7,2.7c0.5,0.5,0.2,1.6,1.7,1.1c3.4-1,5.9,0.2,7.6,3.7c1,2.1,2.4,3.6,4.4,3c2.8-0.8,3.6,1.5,4.5,2.8
				c1.6,2,2.6,4.6,3.7,7c2.4,5.6,2.3,5.6-0.3,11.2c-0.7,1.5-1.3,1.9-2.8,1.1c-1.2-0.7-1.9,0.3-1.6,1.2c1.2,2.9-1,2.3-2.3,2.3
				c-4.6,0-7.5-4.3-5.9-8.7c0.3-0.8,0.4-1.7,0.5-2.5c-1.6-0.2-2.2-1.6-3.2-2.6c-0.2-0.2-0.8-0.1-1,0c-1.2,1.5-2.3,3-4.5,2.5
				c0,0.3,0,1,0.1,1c2.8,0.4,2.9,2.5,3,4.6c0,0.6,0.1,1.6,0.4,1.7c2.7,1.1,3.1,4.7,6.3,5.4c0.5,0.1,1.1,2,0.8,2.7
				c-0.3,0.7-1.8,1.2-2.6,1.1c-2.8-0.4-4.7-2.5-6.3-4.5c-1.4-1.8-4.6-3.1-3.6-6.4c0.1-0.2-0.6-0.8-1.1-1c-3.7-1.4-5.3-4.8-5.5-7.9
				c-0.1-2.9-1.5-2.4-2.9-2.3c-3.9,0.4-5.9-0.3-8.8-3.3c-2.7-3-6.1-4.8-10.2-4.3c-3.7,0.5-6.8,0.3-9.4-2.9c-0.7-0.9-2.9-1-4.4-0.9
				c-3,0.4-5-0.8-7-2.8c-0.6-0.6-1.7-1.3-2.3-1.1c-3.7,1.2-6.6-0.7-9.6-2.1c-1.3-0.6-1.9-0.4-2.5,0.9c-0.4,0.9-1.1,2-2,2.3
				c-1.8,0.6-3.7,0.8-5.6,0.8c-0.6,0-1.3-1.1-1.8-1.7c-0.2-0.2,0-1.1,0.2-1.1c2-0.4,2.6-1.4,1.5-3.3c-0.2-0.4,0.2-1.5,0.6-1.7
				c1.3-0.5,2.7-0.7,4.1-0.9c0.7-0.1,1.8,0.4,2,0.1c1.1-1.6,4.2,0.9,4-1.4c-0.2-2.9-2.8-0.5-4.2-0.8c-2-0.4-2.4-0.6-1.3-2.6
				c0.4-0.7,1-1.4,1.7-1.9c1.8-1.1,4.1,0.7,6.2-1.4c1.5-1.6,4.5,0,6.4-0.4c2.5-0.6,2.3,2,3.7,2.1c-0.1,0.6-0.2,1.8-0.4,1.8
				c-3,0-1.9,2.7-2.7,4.1c-0.4,0.6-0.6,1.3-1,2.2c0,0.1,0-0.1,0.1-0.2c-0.3,0-0.6-0.1-0.9,0c-0.1,0-0.1,0.4-0.1,0.7
				c0.3-0.1,0.5-0.1,0.9-0.4c0.8-0.1,1.4,0.2,2.1,0.2c3-0.1,3.3-0.2,3.1-3c-0.1-2,1.2-1.9,2.2-2.4c1.5-0.8,1.2,2.4,2.5,1.3
				c0.5-0.4,0.1-1.9,0.2-2.9c0-0.2,0.5-0.5,0.8-0.6c0.3,0,0.7,0.2,1,0.3c1.2,0.4,2.3,0.8,3.5,1.2c0.2-1.1,0.2-2.2,0.6-3.3
				c0.2-0.7,0.4-1.9,1.8-1.3c2.5,1.1,5,2.1,7.5,3.3C255.9,357,256.1,357.8,257.6,359.2c0.4,0.2,0.2-0.2-0.1-0.4
				c-0.3-0.2-0.6-0.3-0.9-0.4c0.1,0.4,0,1,0.3,1.3C257.1,359.9,257.7,359.9,257.6,359.2"/>
			<path id="Fill-18" class="st0" d="M516.7,368.1c-3.8,0.9-8-1.1-12.4-2.3c-1-0.3-2-0.6-2.8-1.2c-4.9-4.2-8.9-9-10.3-15.5
				c-0.6-2.7-0.9-5.4-2.1-7.9c-0.9-1.9,0.5-3.6,1.4-4.8c1.4-1.9,2.8-3.3,0.7-5.5c-1.5-8.3-6.3-14.8-11.4-21.1
				c-0.2-0.3-0.6-0.5-0.7-0.8c-0.1-0.3-0.1-0.8,0.1-1c0.2-0.2,0.7-0.5,0.9-0.4c2.3,1.2,5,1.7,6.7,3.8c3.8,4.7,7.4,9.6,9.6,15.2
				c1.2,3.1,2.2,6.4,3.5,9.6c0.5,1.2,0.7,2.3,1.7,3.2c0.9,0.9,1.9,1.7,2.7,2.7c3.5,4.5,8.5,6.6,13.4,8.9c0.6,0.3,1.3,0.5,2,0.5
				c1.9,0.1,3.7,0.4,5.6,0.9c2.2,0.6,5,0,7.1-1c4.9-2.2,9-5.5,11.6-10.3c0.2-0.3-0.2-1-0.3-1.5c-0.3,0.1-0.5,0.2-0.8,0.4
				c-3.1,1.5-6.4,2.8-9.9,2.6c-3.5-0.2-7.2,1.2-10.5-1c-3.6,0.6-6.1-2.2-9.1-3.3c-2.7-0.9-3.5-3.3-4.5-5.4c-0.3-0.5-0.1-1.8,0.3-2
				c0.7-0.3,1.7-0.3,2.5-0.2c0.4,0.1,0.7,0.8,1.2,1.1c3,1.9,6,2.9,9.7,3.3c5.8,0.7,5.8,1.2,9.7,0c2.2-0.7,4.4-0.2,6.7-0.9
				c4.9-1.5,8.8-3.6,10.6-8.6c0.2-0.6,1.2-0.9,1.9-1.4c0.5,0.7,1.3,1.4,1.3,2.2c0.1,2.3,0.5,4.7-1.1,6.7c-0.8,1.1-0.8,2.3-1.2,3.4
				c-1.6,5.1-2.9,10.3-7.2,14.1c-3.7,3.3-7.1,6.5-12.2,7.9c-3.1,0.8-6.2,1-9,0.5c-5.2-0.8-10.3-2.1-14.9-5.2c-3.3-2.2-6-5.1-8.9-7.8
				c-0.4-0.4-1-0.5-1.5-0.8c-0.1,0.7-0.4,1.8-0.1,2.1c1.7,1.5,1.7,3.8,2.9,5.4c4,5.2,7.7,7.1,14.5,8.7c1.7,0.4,3.3,1,5.1,1.1
				c1.5,0.1,3,0.7,4.5,1c1.7,0.4,3.4,0.7,5,1.1c0.4,0.1,0.8,0.7,0.8,1c0,0.4-0.4,0.9-0.8,1.1C525.2,368.4,521.4,368,516.7,368.1"/>
			<path id="Fill-20" class="st0" d="M184.1,196.4c0,0.9,0.1,1.3,0,1.6c-0.7,1.2,1.6,3.9-1.3,3.8c-1.7-0.1-0.5-2.4-0.9-3.7
				c-0.7-1.9-1.4-3.8-2.3-5.6c-3.5-7.2-6.6-9.1-14.9-12.6c-5.3-2.2-10.8-4-16.4-5.7c-3-0.9-6-1.3-9.1-2c-1.7-0.4-3.5,0.6-5.2-0.9
				c-0.5-0.4-2.2,1-3.2,0.8c-6.6-0.8-12.1,2.9-18.2,3.9c-2.9,0.5-5.7,1.3-8.6,1.8c-3.9,0.7-7.8,0.4-11.7,1.1c-6,1-11.7,3.4-17.4,5.8
				c-5.8,2.5-10.2,7-15.8,9.5c-0.5,0.2-1,0.3-1.5,0.4c0.1-0.5,0.2-1,0.4-1.5c1.9-3.7,5-6.5,8.3-8.9c4.5-3.2,9.3-5.8,14.2-8.2
				c3-1.5,6.1-2.2,9.3-2.8c8-1.4,16-2.8,24-4.5c1.4-0.3,2.6-1.7,4.1-2.1c6.5-1.9,13.3-3.2,19.9-2.1c4.3,0.7,8.8,1.5,13,3.1
				c4,1.5,8,2.8,11.9,4.4c4.7,2,9.5,4,13.3,7.7c3-0.2,2.8,2.9,4.1,4.4C183,187.8,184.9,192,184.1,196.4"/>
			<path id="Fill-22" class="st0" d="M315.1,132.9c-0.1,4.2-0.2,8.2-1.9,12.4c-1.9,4.6-5.2,6.6-9.2,8.2c-1.4,0.6-3.1,0.5-4.5,1.2
				c-3.9,1.8-7.7,3.6-11.2,6.2c-6.3,4.9-12.7,9.6-18.4,15.2c-0.4,0.4-1.2,0.3-1.8,0.2c-0.2,0-0.4-1-0.3-1.4c0.6-1.4,1-3,2-4.1
				c6.2-6.5,12.6-12.7,20-17.9c3.2-2.3,6.6-4.1,10.6-5c2.2-0.5,4.6-1.7,5.9-4.5c2.3-5,2.8-10,1.4-15.3c-0.8-3-1.2-6.2-1.4-9.3
				c-0.2-2.7-1.2-5-2-7.4c-2.2-6.4-6.1-11.9-9.9-17.3c-2.9-4.2-4.3-8.9-5.6-13.6c-0.6-2.3-1.7-4.6-1.3-7.2c0.5-3.2,1-6.2,3.6-8.4
				c1.1-1,2-2.1,3.2-3.1c0.4-0.3,1.2-0.2,1.8-0.3c-0.1,0.6,0,1.3-0.2,1.9c-0.4,0.9-0.9,1.9-1.5,2.6c-2.6,3.1-2.5,6.2-1.4,10.2
				c1.9,6.8,5.2,12.5,9.4,18.1c4.2,5.6,8,11.5,9.8,18.4c0.7,2.7,1.8,5.2,1.9,8c0.1,2.1,0.8,4.1,1,6.1
				C315.2,128.8,315.1,130.8,315.1,132.9"/>
			<path id="Fill-24" class="st0" d="M245.9,136.9c-0.5,4.3-1,7.6-1.2,11c-0.1,1.7-0.7,3.6,0.9,5.1c0.4,0.4-0.3,1.9-0.7,2.9
				c-2.8,7-6.1,13.7-10.8,19.8c-2.4,3.1-2.9,7.3-5.9,10.2c-0.1,0.1-0.2,0.4-0.1,0.5c1.6,2.9-3.1,3.5-2.3,6.2c0,0.1-0.9,0.6-1.3,0.6
				c-0.3-0.1-0.9-0.7-0.8-1c0.4-2.4,1.5-4.7,1.1-7.2c2.8-3.4,2.4-8.1,5-11.7c2.5-3.5,4.2-7.5,6.8-10.9c2.5-3.2,3-6.9,3.5-10.6
				c0.5-3.5-0.4-7.1,1-10.6c0.6-1.4-0.3-3.4-0.5-5.2c-0.1-0.7-0.4-1.3-0.4-2c0.1-7.2-2.5-13.4-6.4-19.4c-2.5-3.8-4.4-8-6.7-12
				c-3.2-5.7-6-11.7-11.4-15.5c-3.8-2.7-6.5-6.4-10.6-8.8c-2.8-1.7-4.2-5-6-7.9c-0.5-0.8-1.3-1.5-0.3-2.2c0.4-0.2,1.6,0.4,2.1,0.9
				c0.7,0.7,1,1.8,1.7,2.5c3.2,2.9,6.2,6,9.7,8.4c9.5,6.7,12.7,10.1,17.7,19c3.1,5.5,6.8,10.7,9.6,16.4c2.3,4.9,5.2,9.7,5.1,15.5
				C244.7,133.1,245.6,135.5,245.9,136.9"/>
			<path id="Fill-26" class="st0" d="M481.2,504.3c-0.3-5.8,1.6-10.3,5.7-13.8c2.8-2.4,4.9-5.4,6.7-8.7c1-1.8,1.1-3.2,0.1-4.9
				c-1.1-1.8-1.9-3.7-1.5-6c0.2-1.3,0-2.5-1.2-3.3c-1.6-1-0.9-2.6-0.9-4c0-0.3,0.7-0.6,1.1-0.8c0.2-0.1,0.9,0.2,0.9,0.4
				c0.1,2.2,0.2,4.3,2.4,5.6c-1,2.5,1.5,3.4,2.3,5.1c1.9,4.3,1.2,10.6-2.3,14.7c-2.2,2.6-4.5,5-6.6,7.7c-2.2,2.9-2.6,6.4-2.1,10
				c0,0.2,1.2,0.6,1.4,0.4c1.3-1.1,2.6-2.1,3.5-3.4c4.2-6.2,8.4-12.6,9.9-20c1-4.8,3-9.7,0.6-15c-1.3-2.9-0.8-6.6-1.3-9.9
				c-0.2-1.5-0.9-3-1-4.5c-0.4-3.7,0.8-10.6,3.3-15.7c1.3-2.8,2.4-5.7,4.5-8c0.3-0.3,1.1-0.6,1.4-0.5c1.2,0.6,0,0.9-0.2,1.4
				c-0.6,1.6,0.3,3.4-1.5,5c-1.1,1-1.5,3.1-1.6,4.7c-0.2,4.6-3.2,8.9-0.6,13.8c1.2,2.2-0.1,5,1,7.8c1.3,3.2,1.1,6.9,1.3,10.4
				c0.4,11.2-3.6,20.9-9.9,29.9c-2.3,3.3-4.6,6.6-8.5,8.5c-1.1,0.5-1.5,0.7-2.7,0.2C481.9,510,480.4,507.7,481.2,504.3"/>
			<path id="Fill-28" class="st0" d="M111.7,480.3c0.4,7.5-2.9,14.2-4.6,21.2c-0.1,0.6-0.8,1.2-1.4,1.6c-0.8,0.6-0.7,1,0,1.6
				c1,0.8,1.9,1.7,2.7,2.7c0.4,0.6,0.5,1.5,0.7,2.2c-0.9,0.1-1.9,0.5-2.6,0.1c-3-1.6-5.1-6.1-3.5-9.3c2.3-4.6,1.8-9.8,4.1-14.2
				c-0.5-3.7,0.7-7.3-0.9-11.2c-0.8-2.1-0.8-4.8-1.9-6.9c-1.2-2.1,0.5-4.7-1.5-6.6c-0.5-0.5,0-2.1-0.1-3.2c-0.4-6.8-2.3-13.3-3.3-20
				c0-0.3-0.2-0.7-0.4-0.9c-2.6-2.6-4.9-5.5-7.8-7.7c-2.2-1.7-5.2-2.4-7.9-3.5c-0.8-0.3-1.8-0.1-2.7,0c-3.4,0-5.1,1.5-5.4,5
				c-0.2,2.5,0,4.8-1,7.3c-0.9,2.1,0.2,4.5,1.6,6.4c0.6,0.9,0.9,1.7-0.1,2.2c-1,0.4-1.1-0.8-1.6-1.4c-1.5-1.7-2.5-3.4-2.1-5.8
				c0.2-1.3-0.8-2.4-1-3.4c-0.8-4.1,0.6-7.9,2.7-11.4c0.8-1.3,2.2-2.9,3.6-3.1c2.4-0.5,5.2-0.5,7.5,0.2c4.9,1.5,9.5,3.8,13.6,6.9
				c3.6,2.7,5.5,6.8,6.5,11c1.2,4.9,1.8,9.9,2.5,15c0.4,3.3,0,6.9,1.1,9.9c1,2.9,1.6,5.9,2.6,8.8
				C111.7,475.9,111.5,478.1,111.7,480.3"/>
			<path id="Fill-30" class="st0" d="M427.4,94.5c-0.6,3.6-1,7.1-1.7,10.5c-0.7,3.1-1.4,6.5-3,9.2c-1,1.8-2.1,3.6-2.7,5.5
				c-0.9,2.6-1.8,5.3-1.5,8.2c0.3,2.7,0.2,5.5,0,8.2c-0.2,2.6-0.4,5.3-1.1,7.8c-2.2,8.4-4.4,16.8-9.4,24.2
				c-4.2,6.2-10.3,9.9-16.2,13.9c-1.3,0.9-2.5,2-4,2.3c-2.2,0.5-4.6-0.4-6.7,1.2c-1.4-1.7-4.1-0.2-5.5-2.1c1.2-2.5,3.6-1.4,5.1-1.1
				c3.8,0.6,6.6-1.6,9.2-3.1c5.6-3.3,10.3-8.1,14.3-13.2c3-3.8,5-8.6,6.5-13.2c1.2-3.7,2.3-7.6,2.6-11.7c0.2-2.2-0.2-4.2-0.1-6.3
				c0-1.9,0.8-3.7,1-5.6c0.2-2-0.2-4.1,0.2-6c0.3-1.8,1.3-3.5,2.1-5.2c0.7-1.7,1.2-3.6,2.3-5.1c1.8-2.6,2.4-5.7,3.1-8.6
				c1.2-5.2,2.2-10.7,1.1-16c-0.7-3.4-0.8-6.7-1-10c0-0.8-0.4-1.8-1-2.3c-1.5-1.1-1.1-2.6-1.1-4c0-0.4,0.5-1,0.8-1
				c0.4-0.1,1.2,0.3,1.3,0.6c0.7,2.6,3,4.8,2.3,7.9c-0.2,0.8,0.2,1.7,0.6,2.5c0.4,1.1,1.3,2.1,1.5,3.2
				C426.7,88.4,427,91.5,427.4,94.5"/>
			<path id="Fill-32" class="st0" d="M89.9,260.5c-12.1-0.4-22-3.1-31.3-7.9c-0.5-0.2-0.7-1-1-1.5c0.4-0.2,0.9-0.6,1.3-0.6
				c3.9,0.4,7.8,0.5,11.5,1.4c5.6,1.2,17,2.7,21.2,1.8c3-0.6,6-1.4,8.8-2.7c2.8-1.4,5.2-3.5,7.7-5.3c5.4-3.9,10.7-7.8,16.1-11.6
				c3.9-0.5,6.9-3.8,11.2-3.6c2.5,0.1,4.3,0.6,4.8,2.7c0.1,0.5,0.1,1.4-0.2,1.5c-0.5,0.2-1.4,0.3-1.8,0c-1.4-0.9-2.4-0.9-3.8,0.1
				c-3.2,2.3-6.8,4.2-9.8,6.7c-4.8,4-10,7.4-14.4,11.9c-1.9,1.9-4.4,3.5-6.9,4.6c-1.2,0.5-2.6,1.1-3.9,1.2
				C95.7,259.5,92.2,261.3,89.9,260.5"/>
			<path id="Fill-34" class="st0" d="M88,244c-2.6-0.3-4.9-0.5-7.2-0.8c0.3-2.9,3-3.9,4.6-5.7c6.2-7.1,14.1-11.9,22.5-15.9
				c7.3-3.5,14.9-6,23.1-5.3c2.8,0.2,6,0.3,8.2,2.8c0.2,0.3,0.7,0.5,0.7,0.8c0.1,0.5,0.3,1.1,0,1.4c-0.3,0.3-1.1,0.6-1.4,0.4
				c-3-1.5-6.3-1-9.5-1.1c-5.1,0-9.8,1.8-14.6,3.4c-8,2.6-14.8,7.6-21.9,12.1c-1.2,0.7-2.2,1.9-3.2,2.9c-0.3,0.3-0.5,0.8-0.7,1.2
				c0.5,0.1,1.1,0.3,1.5,0.2c1.9-0.6,3.8-1.6,5.7-2c10-2.2,14.1-4.1,22.1-10.3c3.1-2.4,6.5-4.4,10.2-5.8c0.5-0.2,1-0.3,1.5-0.3
				c0.5,0,1.2,0.1,1.4,0.4c0.2,0.3,0.1,1.1-0.1,1.4c-0.7,0.9-1.4,1.9-2.3,2.3c-4.8,2-8.3,5.8-12.3,8.9c-3,2.4-6.8,3.9-10.3,5.6
				c-2.1,1-4.5,1.8-6.8,2.2C95.5,243.3,91.6,243.6,88,244"/>
			<path id="Fill-36" class="st0" d="M43.2,330.6c0.1-1.4,0.1-2.1,0.3-2.8c0-0.2,0.6-0.4,0.9-0.4c0.3,0,0.9,0.2,0.9,0.3
				c0.8,5.1,4.8,7,8.9,8.8c1.5,0.7,3.2,1.2,4.8,1.6c5.8,1.2,11.6,1.8,17.6,1.4c0.3,0,0.6-0.3,0.9-0.5c-0.3-0.3-0.5-0.6-0.8-0.8
				c-4.3-2.1-8.5-4.1-13.2-5.3c-4.1-1.1-8.4-2-12.2-3.7c-3.9-1.8-8.1-3.5-10.7-7.3c-0.6-0.8-1.1-1.7-1.6-2.6
				c-1.1-2.1-2.2-4.2-3.3-6.3c1.7-2,0.9-4.4,1.1-6.7c0-0.3,0.7-0.8,1.1-0.8c0.4,0,0.9,0.5,1,0.9c0.5,2,0,4,0.9,6.2
				c1.9,5.1,6,7.7,10,10.4c3.6,2.3,7.8,3.3,11.9,4.4c7.2,2,14.3,4.2,19.5,9.9c2.1,2.3,4.3,2.8,7.2,1.9c1.5-0.5,3.1-0.5,4.7-0.7
				c0.3,0,0.9,0.6,0.9,1c0,0.4-0.4,1-0.7,1.1c-1,0.5-2.2,0.9-3.3,1.4c-2.3,1-5.4,1.2-5,4.9c0,0.1-0.7,0.4-0.9,0.3
				c-0.4-0.2-1-0.6-1-0.9c0.3-2-0.4-2.5-2.4-2.4c-3.8,0.2-7.7,0.3-11.5,0c-6.1-0.5-12.7-1-19.8-5.3
				C45.7,336.4,43.8,333.8,43.2,330.6"/>
			<path id="Fill-38" class="st0" d="M429.6,583c-1.2,5-1.7,10.8-4,16.4c-3,7.4-6.8,14.4-10.5,21.5c-3.3,6.4-7.1,12.5-11.2,18.4
				c-2.1,3-5,5.4-6.5,8.9c-0.1,0.3-1,0.4-1.4,0.4c-0.2,0-0.5-0.7-0.5-1c-0.1-1.6,0.4-2.9,1.4-4.4c5.2-7.8,10.1-15.8,14.6-24.1
				c2.3-4.2,4.6-8.4,6.7-12.6c2.2-4.5,3.9-9.4,5.6-14.1c0.3-1,0.2-2.1,0.3-3.2c0.2-2.1-0.6-4.3,1-6.2c0.4-0.4,0.3-1.5,0-2.1
				c-1.5-3.6-0.9-7.6-2.2-11.2c-1.6-4.1-3.7-8.1-6.5-11.6c-1.2-1.5-2.3-3.1-3.3-4.7c-0.2-0.3,0.2-1,0.5-1.4c0.1-0.2,0.8-0.2,1-0.1
				c4.2,4.2,8.5,8.2,10.7,14.2c1.5,4.2,2.2,8.6,4,12.6C429.8,579.7,429.5,581.1,429.6,583"/>
			<path id="Fill-40" class="st0" d="M144.5,326.2c-0.7,5.4,1.9,10.6,1.1,16c-0.3,2.2,0.6,4.5-0.9,6.8c-1.1,1.7,0.8,4.6-1.2,6.6
				c0.1,4.6-1.3,8.8-3.2,13c0.7,2.4-2.1,3.3-2.2,5.1c-0.2,2.2-1.6,3.8-2.4,5.6c-0.7,1.7-2.1,3.1-3.2,4.7c-0.5,0.7-0.7,1.6-1.2,2.2
				c-0.7,0.8-1.9,0.9-2-0.2c-0.1-1-2-2,0-3.5c2.5-1.9,7.2-11.7,7.5-14.9c0.3-2.5,1.2-4.6,2.2-6.8c0.8-2-0.8-4.6,1.1-6.7
				c0.5-0.6,0.1-2.1,0.1-3.2c0-8.6,0.1-17.2-0.1-25.8c0-2.8-0.8-5.5-1-8.3c-0.2-2.9,0.6-6-0.2-8.7c-0.9-3-0.9-5.9-0.9-8.9
				c0-1.4-0.3-2.4-1.3-3.3c-0.5-0.4-0.8-1.2-0.8-1.8c0-0.6,0.3-1.3,0.7-1.7c0.1-0.1,1.1,0.2,1.3,0.5c0.8,1.3,2.3,2.8,2.1,4
				c-0.6,4,2.1,7,2.6,10.6c0.1,0.6,0.9,1.3,0.8,1.8C142.7,314.8,145.5,320.4,144.5,326.2"/>
			<path id="Fill-42" class="st0" d="M279.9,129.5c0.3,5.2-1.9,10.2-1.2,15.5c0,0.2-0.7,0.8-1.1,0.8c-0.4,0-1-0.6-1-0.8
				c0.7-5.4-1.7-10.7-1.1-16c0.5-4.6-1.1-8.7-2.8-12.6c-3.2-7.6-7.6-14.4-13.5-20.3c-1.6-1.6-2.9-3.6-4.3-5.4
				c-1.3-1.7-2.7-3.2-4.1-4.9c-2.8-3.4-5.6-6.7-8.1-10.4c-2.1-3.2-3.4-6.7-5.3-9.9c-0.6-1-0.7-2.5-0.4-3.6c0.4-1.3-1.7-3.9,1.2-3.8
				c1.7,0.1,0.5,2.4,0.9,3.7c0.1,0.5,0.1,1.1,0.4,1.5c4.6,7.7,9.6,15,15.9,21.5c6.4,6.6,12.1,13.8,17.2,21.4
				c0.7,1,7.2,16.2,7.2,17.3C279.9,125.5,279.9,127.5,279.9,129.5"/>
			<path id="Fill-44" class="st0" d="M238.6,531.9c0.2,0.4,0.6,0.9,0.5,1.2c-0.1,0.5-0.5,0.9-0.8,1.3c-5.6,5.9-11.2,11.8-16.7,17.9
				c-4.5,5-8.6,10.5-11.3,16.7c-1,2.4-2,4.7-2,7.5c0.1,4.6,0.3,9.2-0.1,13.7c-0.3,3.3,1.4,6.2,1.3,9.4c0,1,0.9,1.9,0.9,2.9
				c0,1.7,0.4,3.1,1.7,4.3c0.5,0.5,0.4,1.6,0.5,2.5c0,0.2-0.4,0.6-0.7,0.7c-0.3,0.1-0.9,0.1-1-0.1c-0.9-1.2-2.5-2.5-2.5-3.8
				c0-2-1.3-2.8-2.1-4.1c-0.8-1.3,0.6-3.3-1.2-4.4c-0.4-5.4-2.7-10.6-2.2-16.1c0.6-7.6,2.9-14.8,6.7-21.4c1.3-2.2,3.5-4,5.1-6.1
				c2.7-3.7,5.9-7.3,9.3-10.5c4.3-4,8.9-7.6,13.4-11.3C237.6,531.9,238,532,238.6,531.9"/>
			<path id="Fill-46" class="st0" d="M235.9,439.6c2.9,0,5.9,0.1,8.8,0c2.4-0.2,4.8-0.8,7.2-1c2.6-0.2,5.2,0.4,7.7-0.1
				c6.3-1.3,12.5-3,18-6.8c3.4-2.4,6.9-4.6,10.2-7.1c0.4-0.3,1.2,0.1,1.8,0.2c-0.1,0.5,0,1.1-0.3,1.5c-1.6,1.7-3.3,3.4-5,5.1
				c-0.9,0.8-1.6,1.5-0.1,2.3c1.4,0.8,1.3,2.2,1.1,3.4c-0.7,3-1,6.3-2.5,8.8c-1.9,3.2-4.8,5.7-7.2,8.5c-0.2,0.3-0.5,0.6-0.8,0.7
				c-0.7,0.1-1.8,0.3-2.1-0.1c-0.5-0.6-0.8-1.8-0.5-2.4c0.8-1.5,2-2.8,2.9-4.3c2.4-3.9,5.5-7.5,5.8-12.4c0-0.5,0.4-1,0.6-1.6
				c-0.5,0.1-1.2,0-1.5,0.2c-2.3,2.1-5.5,2.7-8,4.6c-1.2,0.9-2.7,1.4-4.2,1.7c-3.2,0.6-6.4,1.5-9.5,2c-3.4,0.5-7.1,1.1-10.6-0.5
				c-1.1-0.5-2.4-0.4-3.7-0.4c-5.9,0-11.7,0-17.6-0.1c-0.5,0-1.5-0.5-1.5-0.9c-0.3-1.3,0.7-1.3,1.7-1.3
				C229.7,439.6,232.8,439.6,235.9,439.6"/>
			<path id="Fill-48" class="st0" d="M299.7,440.9c0,2,0.1,4,0,6c-0.3,2.8,0.7,5.6-0.8,8.5c-1.3,2.5,0.3,5.4-1.2,8.3
				c-1,1.9-0.7,4.7-1.1,7.2c-1.2,6.8-3.8,13-6.6,19.2c-0.9,1.9-2.7,1.2-3.6,2.4c-0.3-0.3-0.6-0.7-0.9-1c-0.1-0.1-0.1-0.4,0-0.5
				c2.9-3.6,3.6-8.1,4.6-12.4c2.2-1.6-0.5-4.7,1.9-6.3c0.4-3.3,1-6.6,1.1-9.9c0.1-5.7,1.9-11.3,1.2-17.1c1.9-3,1.3-6.3,1-9.4
				c-0.5-5.1,1.3-9.9,1.2-14.9c0-0.3,0.6-0.7,0.9-1c0.4,0.4,1.1,0.8,1.2,1.3c0.5,3.3,0.9,6.6,1.1,10
				C299.8,434.3,299.7,437.6,299.7,440.9"/>
			<path id="Fill-50" class="st0" d="M348.1,662.1c0,1.1,0.2,1.7-0.1,2.2c-0.2,0.4-0.8,0.6-1.3,0.6c-0.3,0-0.8-0.3-0.8-0.5
				c-4.1-13.2-8.4-17.9-16.5-25c-3-2.6-6.8-4.8-11.4-4.2c-1.6,0.2-3.3,0.2-4.9,0c-5.9-0.5-11.4,1.4-16.9,2.9c-2.5,0.7-5,1-7.2,2.5
				c-0.4,0.3-1.4,0.1-2.1-0.2c-0.3-0.1-0.5-1.3-0.4-1.4c2-1.4,3.9-3.1,6.1-3.8c3.6-1.1,7-2.5,10.7-3.5c2.2-0.6,4.3-1.3,6.7-1.1
				c1.5,0.1,3.3,0.7,4.5-1c0.1-0.2,0.9-0.2,1,0c2.4,2.8,5.7,0.5,8.6,1.7c11.2,4.7,17.9,13.3,22.5,24
				C347.7,657.6,347.7,660.2,348.1,662.1"/>
			<path id="Fill-52" class="st0" d="M142.6,214.9c-0.9,0-2.1,0-2.1,0c-0.2-2.6-2.2-1.6-3.5-2c-5.6-1.8-11.4-0.8-17.1-1
				c-2.3-0.1-4.5,0.3-6.7,1c-5.7,1.7-11.2,3.9-16.5,6.7c-6.7,3.6-13.1,7.6-19,12.4c-0.5,0.4-1.2,0.7-1.9,0.8
				c-0.5,0.1-1.2-0.1-1.4-0.4c-0.2-0.3-0.2-1.1,0-1.4c1.9-2,3.6-4.2,5.9-5.8c2.6-1.8,5.1-3.6,7.6-5.4c5.3-3.7,10.9-7,17.2-8.9
				c3.4-1.1,6.8-2.4,10.3-3c3.7-0.7,7.6-0.2,11.5-0.3c4.3-0.1,8.1,1.1,11.9,3.2c1.3,0.7,2.2,1.7,3.3,2.5
				C142.3,213.4,142.3,214.1,142.6,214.9"/>
			<path id="Fill-54" class="st0" d="M264.2,515.4c0.4-1.3,0.7-3.4,1.7-5.2c3.5-6.5,8.3-11.7,14.9-15.1c0.9-0.4,1.6-1.1,2.2-0.1
				c0.2,0.3-0.2,1.4-0.6,1.8c-1.5,1.6-3.2,3-4.6,4.7c-2,2.3-4.1,4.4-5.6,7c-4.4,7.4-2.5,12.5,2.4,18.5c1.9,2.4,4.7,4.2,7.4,6
				c3,2,6.1,3.8,9.2,5.5c1.2,0.6,0.8,1.5,0.7,2.3c-0.1,0.4-1.1,1.1-1.3,1c-7.5-3.5-15.5-6.2-21-12.9
				C266.6,525.2,264.9,521,264.2,515.4"/>
			<path id="Fill-56" class="st0" d="M370,517.8c0.9,8.7-3,14.5-8.7,19c-4,3.2-13,5-17.4,0.3c-0.9-1-2.4-1.4-3.3-2.4
				c-0.4-0.4,0.1-1.6,0.3-2.5c0.6,0.1,1.5,0.1,1.8,0.4c3.6,3.9,8.3,2.4,12.6,2.7c2.3-1.9,5.3-3.5,6.8-5.9c2.3-3.7,4.8-7.8,3.7-12.7
				c-0.7-3-1.1-6.1-2.6-8.8c-1.9-3.4-3.9-6.8-5.8-10.2c-0.3-0.5,0-1.2-0.1-1.9c0.6,0.1,1.4,0.1,1.8,0.5c4.8,4.2,8.5,9.1,10.3,15.5
				C370,514.1,369.5,516.4,370,517.8"/>
			<path id="Fill-58" class="st0" d="M370.3,432.6c2.4,0.5,4.9,0.6,7.1,1.6c2.1,0.9,4.1,0.9,6.2,1c5.2,0.3,10.3,0.9,15.5,1.1
				c6.7,0.3,13-1.9,19.3-3.7c2.3-0.6,5-1,6.6-2.4c1.9-1.8,5-1.1,6.3-3.7c0.2-0.5,1.7-0.1,2.5-0.5c1.1-0.5,1.9-3.1,3.3-1.2
				c1.1,1.4-1.2,2.3-2.1,3.3c-0.8,0.9-1.9,1.4-3,2c-5.7,2.9-11.2,6.3-17.6,7.8c-2.7,0.6-5.2,1.9-8,1.8c-1.2,0-2.3,0.2-3.5,0.7
				c-1.9,0.7-4.6,1.1-6.3,0.2c-2.5-1.2-4.9-0.7-7.3-0.9c-1.1-0.1-2.5,0.3-3.1-0.3c-2.8-2.3-5.9-1.9-9.1-1.9c-0.5,0-1.4,0.2-1.6,0
				c-2.3-3-5.5-2-8.5-2.2c-0.4,0-0.7-0.6-1-0.9c0.4-0.4,0.8-1.1,1.2-1.2c1.1-0.2,2.2-0.1,3.3-0.1
				C370.2,432.8,370.3,432.7,370.3,432.6"/>
			<path id="Fill-60" class="st0" d="M88.7,165c5.3-1,10.7-1.7,15.9-3c5.4-1.4,10.7-3.4,15.5-6.3c2.7-1.6,5.8-2,8.6-3.1
				c1.9-0.7,4.7,0.6,6.9,1.4c1.9,0.7,3.6,2.1,5.9,1.7c0.2,0,0.7,0.8,0.7,1.1c0,0.4-0.6,1-0.9,1c-2.4-0.4-4.8,0.3-7.4-0.8
				c-2.7-1.1-6.2-0.5-9.2,1.2c-4.9,2.8-9.9,5.2-15.3,6.7c-5.7,1.6-11.4,3.6-17.5,2.8c-0.7-0.1-1.6,0.1-2.1-0.2c-2.6-2-5-0.6-7.4,0.2
				c-0.6,0.2-1.1,0.9-1.8,1c-0.8,0.1-2,0.6-2.2-0.8c-0.1-0.4,0.7-0.9,1.1-1.4C82.1,163.8,85.5,164.6,88.7,165"/>
			<path id="Fill-62" class="st0" d="M404,662.6c0.2-1.2,0.1-2.2,0.6-2.9c4.1-5.8,7.4-12.1,11.9-17.6c4.4-5.4,8-11.4,12.6-16.7
				c4.5-5.2,8.3-11.3,14.6-14.8c0.3-0.2,0.1-1.1,0.5-1.4c0.3-0.3,1.1-0.3,1.4-0.1c0.3,0.2,0.6,1.1,0.4,1.4c-0.8,1.3-1.6,2.7-2.7,3.8
				c-5.1,5.6-9.7,11.7-14.4,17.7c-7.8,10-15.4,20.2-22.5,30.7c-0.3,0.5-0.9,0.8-1.3,1.2C404.7,663.5,404.3,663,404,662.6"/>
			<path id="Fill-64" class="st0" d="M318.6,540.8c-2.8,0.7-5.1-1.6-7.8-2.7c-1-0.4-1.7-1.5-1.2-2.7c0.2-0.5,0.8-0.8,1.2-1.3
				c1.3,1.7,3.4,0.6,4.9,1.3c3.8,2,6.7,0.6,9.4-2.1c2.5-2.5,4.9-5.1,8.1-7c4.4-2.7,8.8-5.1,14.2-4.2c0.8,0.1,1.6,0.6,2.3,1.1
				c0.3,0.3,0.6,1,0.5,1.4c-0.1,0.3-0.8,0.7-1.2,0.7c-5.6-0.2-9.9,2.7-14,6c-2.8,2.2-5.4,4.7-8.1,7
				C324.6,540.2,322,540.8,318.6,540.8"/>
			<path id="Fill-66" class="st0" d="M507.2,272.3c-9.2,0.1-16.9-3.6-23.2-10c-2.6-2.7-4.3-6.2-4.9-10c-0.1-0.6,0.3-1.3,0.5-2
				c0.6,0.2,1.4,0.3,1.8,0.7c1,1,2.5,1.7,2.1,3.5c-0.1,0.3,0.1,0.7,0.3,1c6.2,6.8,12.9,12.5,22.8,12.4c3.3-0.1,6.6,0,9.9,0
				c0.7,0,1.4-0.2,2-0.4c0.4-0.1,0.8-0.2,1.2-0.3c0,0.5,0.1,1.2-0.2,1.4c-2.2,1.7-4.4,3.3-7.3,3.6
				C510.5,272.5,508.9,272.3,507.2,272.3"/>
			<path id="Fill-68" class="st0" d="M422,184.9c-0.6-0.7-1.1-1.1-1.3-1.6c-0.1-0.3,0.4-0.9,0.8-1.1c5.3-2.6,9.7-6.4,13.7-10.7
				c2.5-2.6,4.1-5.4,5.3-8.8c1.9-5.9,4.9-11.2,9.9-15.1c0.4-0.3,1.2-0.2,1.9-0.3c-0.1,0.6,0.1,1.4-0.2,1.9c-1.1,1.9-2.6,3.7-3.4,5.7
				c-1.3,3.3-4.3,6-3.8,10c-2.7,5.4-5.7,10.6-10.8,14c-2.6,1.8-5.7,3.1-8.6,4.5C424.5,183.8,423.4,184.3,422,184.9"/>
			<path id="Fill-70" class="st0" d="M503.7,325.8c-0.6,0.7-1,1.3-1.5,1.5c-0.3,0.1-0.9-0.3-1.2-0.7c-2.3-2.9-4.3-6-6.8-8.7
				c-2.7-3-5.2-6.2-7.3-9.6c-1.8-2.9-3.2-6-4.6-9.1c-0.3-0.8-0.4-2.1,0-2.7c1.3-1.8,0.9-3.7,1.1-5.6c0-0.3,0.6-0.8,1-0.9
				c0.4,0,1,0.4,1.1,0.8c0.4,1.7-0.7,3.7,1,5.1c-0.2,4.9,3.1,8.3,5.5,12c2.9,4.4,6.2,8.4,9.2,12.7
				C502.3,322.1,502.9,323.9,503.7,325.8"/>
			<path id="Fill-72" class="st0" d="M182.3,591.3c0.8,0.1,1.2,0.1,1.4,0.3c0.7,0.6,1.4,1.2,1.9,1.9c3.5,5.1,7,10.2,10.6,15.3
				c1.6,2.3,3.2,4.5,4.9,6.7c2.1,2.6,4.4,5.1,6.5,7.7c0.4,0.5,0.6,1.3,0.6,1.9c0,0.5-0.2,1.2-0.5,1.3c-0.3,0.2-1.1,0-1.4-0.3
				c-4.4-4.2-8.7-8.5-12.3-13.5c-2.2-3.1-3.9-6.5-6.4-9.4c-2.4-2.8-2.8-6.7-5.6-9.2C181.6,593.7,182.2,592.2,182.3,591.3"/>
			<path id="Fill-74" class="st0" d="M415.3,588.5c-0.5,0.5-1.1,1.5-1.8,1.6c-0.7,0.1-1.8-0.5-2.2-1.1c-0.5-0.9-0.7-2.1-0.5-3
				c0.6-2.6-1.3-4.8-1.2-7.3c-3.7-5.8-5.6-12.7-10.8-17.5c-1.7-1.5-2.9-3.5-4.3-5.4c-0.3-0.3-0.3-1.1-0.1-1.4
				c0.2-0.3,0.9-0.5,1.4-0.4c0.7,0.1,1.4,0.3,1.9,0.7c1.9,1.7,4,3.4,5.4,5.5c2,3,4.7,5.5,6,9.1c0.4,1.3,1.8,2.2,2.2,3.5
				c0.7,2.1,1.9,4.1,1.7,6.5c-0.2,2.8-0.4,5.7,1.8,8C415.1,587.4,415.1,587.9,415.3,588.5"/>
			<path id="Fill-76" class="st0" d="M217.4,445.2c-0.5,0.4-0.9,1-1.2,0.9c-1.4-0.2-2.3,0.6-3.3,1.4c-1.5,1.4-3.3,2.6-4.9,3.9
				c-2.3,1.9-4.6,3.9-6.9,5.8c-5,4.3-10,8.5-15,12.7c-0.3,0.3-1.2,0-1.8-0.1c0.1-0.5-0.1-1.2,0.2-1.5c1.5-1.6,3.1-3.1,4.6-4.7
				c1.7-1.8,3.2-3.8,5-5.6c1.7-1.7,3.6-3.2,5.4-4.8c3.9-3.5,8.2-6.2,12.8-8.6c1.5-0.8,2.7-0.7,4.1-0.8
				C216.6,444,217,444.7,217.4,445.2"/>
			<path id="Fill-78" class="st0" d="M353.6,431.3c0-1.1-0.1-1.6,0-1.8c0.2-0.4,0.6-0.7,1-0.9c0.2-0.1,0.8,0.1,0.9,0.3
				c3.5,4.9,6.8,10.1,10.6,14.8c3,3.7,6.6,7,11,9.1c0.3,0.2,0.6,0.9,0.5,1.3c-0.1,0.3-0.7,0.7-1.1,0.8c-1.9,0.6-3.6-0.4-4.9-1.3
				c-6.1-3.8-10.7-9.3-14.8-16.8c-0.7-1.2-1.5-2.3-2.2-3.5C354.1,432.6,353.7,431.6,353.6,431.3"/>
			<path id="Fill-80" class="st0" d="M524.3,379.3c-6.4-1.3-12.6-2.7-18.2-5.8c-0.9-0.5-1.3-2.1-2.7-2.6c-0.3-0.1,0-1.6,0-2.5
				c0.6,0,1.3-0.1,1.9,0.2c3.4,1.6,6.7,3.2,10.4,4.1c1.5,0.4,3,0.7,4.5,0.9c1.3,0.2,2.6,0.8,3.9,1c2.2,0.4,4.5,1.6,6.6-0.5
				c0.2-0.2,1.1,0.1,1.5,0.4c0.2,0.1,0.3,0.8,0.2,1.1c-0.7,1-0.5,2.7-2.8,2.4C527.8,377.9,525.9,378.9,524.3,379.3"/>
			<path id="Fill-82" class="st0" d="M513.2,417.6c0.4,0,0.8-0.1,1.1,0c0.4,0.2,0.8,0.6,0.9,1c0.1,0.2-0.1,0.8-0.3,0.9
				c-3.7,1.5-5.7,4.9-8.5,7.4c-2.8,2.5-4.7,5.6-6.7,8.7c-0.9,1.3-2.8,1.9-4.3,2.8c-0.2,0.1-0.6-0.2-0.9-0.3c0.1-0.3,0.3-0.5,0.4-0.8
				c0.9-2.2,1.7-4.4,2.8-6.5c2.4-4.7,6.3-8.2,10.1-11.7c1.3-1.2,3.4-1.3,5.2-2C513.1,417.3,513.2,417.4,513.2,417.6"/>
			<path id="Fill-84" class="st0" d="M309.6,561.7c0.5-1.3,0.9-2.6,1.4-3.8c1.3-3.3,4.1-5.5,5.9-8.5c0.9-1.6,2.4-1.3,3.8-1.2
				c0.4,0,1.1,0.3,1.2,0.7c0.1,0.4-0.2,1-0.4,1.4c-0.4,0.6-1,1-1.5,1.6c-4,4.1-5.4,9-4.5,14.5c0.2,1.4,1.3,2.7,1.9,4.1
				c0.2,0.4,0.3,1.1,0.1,1.4c-0.3,0.3-0.9,0.4-1.4,0.4c-0.5,0-1.2,0-1.5-0.4C312.3,568.9,310.7,565.5,309.6,561.7"/>
			<path id="Fill-86" class="st0" d="M191.8,191.1c-0.3,1.8-0.7,4.4-1.1,7c0,0.2-0.7,0.6-0.8,0.5c-0.5-0.3-1.2-0.7-1.3-1.2
				c-0.6-3.2-1.6-6.4-2.1-9.6c-0.6-4.2-2.4-7.8-4.3-11.5c-0.3-0.6-0.4-1.4-0.8-1.9c-0.9-1.1-1.1-2.4,0-3.3c0.3-0.2,2,1,2.6,1.9
				c1.4,1.7,2.5,3.7,3.8,5.6C190,181.9,191.8,187.1,191.8,191.1"/>
			<path id="Fill-88" class="st0" d="M515.5,302.1c3.4-0.4,7.3,0.7,11.1-1c1.2-0.6,2.9-0.1,4.3,0c0.3,0,0.7,0.6,0.8,1.1
				c0.1,0.2-0.1,0.8-0.4,0.9c-3.7,1.2-6.8,4.4-11.1,3.5c-0.7-0.1-1.7-0.3-2.1,0c-3.3,2.8-6.2-0.7-9.3-0.6c-0.7,0-1.6-0.6-2.2-1.1
				c-0.6-0.6-0.8-1.5-1.2-2.2c0.7-0.2,1.3-0.5,2-0.5C509.9,302,512.5,302.1,515.5,302.1"/>
			<path id="Fill-90" class="st0" d="M403.1,585.8c0.4,0.1,0.7,0.2,0.7,0.2c-0.2,2.4,2.1,3.6,2.6,5.5c0.6,2.4,0.8,4.8,1.2,7.2
				c0.4,2.2,0.7,4.5,1.1,6.7c0.4,2.1-0.5,4.1,0.8,6.3c0.6,1-0.7,3.1-1.1,4.7c-0.1,0.2-0.6,0.3-1,0.2c-0.3-0.1-0.6-0.3-0.9-0.5
				c1.2-1.9-3-3.8,0-5.7c0.1-0.1,0.1-0.7-0.1-1c-1.6-2.4-1.6-5.2-2.3-7.9c-0.7-2.6-0.3-5.4-1.1-7.8c-0.8-2.5-0.9-4.8-0.9-7.3
				C402.1,586.3,402.8,586,403.1,585.8"/>
			<path id="Fill-92" class="st0" d="M204,438.4c-0.2,0.3-0.6,1.1-0.7,1.1c-3.6-0.8-5.5,2.7-8.5,3.4c-2.9,0.7-5.3,2.1-7.7,4
				c-2.2,1.8-5,2.8-7.4,4.3c-0.9,0.6-1.7,0.9-2.1-0.2c-0.2-0.7-0.1-2.1,0.4-2.4c3.2-2.3,6.5-4.4,9.8-6.6c0.8-0.6,1.8-1,2.6-1.5
				c4-2.4,8.4-3.2,12.9-3C203.6,437.4,203.8,438,204,438.4"/>
			<path id="Fill-94" class="st0" d="M297.6,531.9c-0.3-0.2-1.4-0.7-2.2-1.5c-2.6-3-6-4-9.9-4c-1.1,0-2.8,0.2-3-0.3
				c-0.6-1.2-3.1-0.1-2.6-2c0.2-0.7,1.4-1.3,2.3-1.6c6.3-2.4,14.8,1,17.9,7.2C301.1,531.7,300.8,532.1,297.6,531.9"/>
			<path id="Fill-96" class="st0" d="M350.1,445.6c0.4-2.6,0.8-5.1,1.3-7.7c0-0.2,0.6-0.5,0.8-0.5c0.5,0.1,1.3,0.4,1.3,0.6
				c0,3.5,1.8,6.8,1.2,10.5c-0.5,3,1.4,5.6,2.3,8.3c0.3,0.8,3,0.3,1.7,2.2c-0.7,1.1-3.8,0.4-4.8-0.7c-0.1-0.1-0.3-0.2-0.4-0.4
				C352.2,453.8,349.6,450.2,350.1,445.6"/>
			<path id="Fill-98" class="st0" d="M442.6,432.9c0.6,0.1,1.4,0,2,0.4c5.6,3.4,11.1,7,14.2,13.1c0.3,0.5,0.1,1.2,0.1,1.9
				c-0.6-0.1-1.4-0.1-1.9-0.4c-3.3-2.8-6.4-5.7-9.7-8.5c-1.7-1.5-3.6-2.8-5.3-4.3c-0.3-0.3-0.3-1-0.3-1.5
				C441.7,433.3,442.2,433.1,442.6,432.9"/>
			<path id="Fill-100" class="st0" d="M436.7,444c3.8,1,9.2,0.1,13.1,4.2c0.3,0.4,1.6-0.2,2,0.2c0.5,0.5,0.7,1.5,0.7,2.2
				c0,0.3-0.9,0.7-1.4,1c-0.3,0.1-0.8,0.2-1.1,0c-3.7-2.6-8-2.8-12.3-3.2c-1.7-0.2-2.2-1.7-3.4-2.2c-0.9-0.4-2.5,0.7-2.5-1
				c0-2.2,1.9-0.8,2.9-1.2C435,443.9,435.3,444,436.7,444"/>
			<path id="Fill-102" class="st0" d="M343.6,409.7c-0.1,0-0.9,0.5-1,0.3c-0.4-0.4-1-1.3-0.9-1.6c1-2.2-1.8-3.5-1.1-5.5
				c0.1-0.2-0.4-0.8-0.6-0.8c-4.4-0.8-2.8-3.6-2.1-6.1c0.2-0.8,0.6-1.7,0.6-2.5c0-0.4-1.1-1.1-1.5-0.9c-0.8,0.3-1.4,1.1-2.2,1.6
				c-0.9,0.6-1.8,0-1.7-1.1c0-0.9-0.1-2,0.3-2.7c1.5-2.1,1-3-1.4-3.5c-0.6-0.1-1.3-1.9-1-2.7c0.5-1.8,0.9-3.9,2.9-4.7
				c0.9-0.4,2.2-0.7,3-0.3c1.3,0.5,0.6,1.9,0.5,2.9c-0.1,0.7-2.1,1.5,0.3,1.8c1.9,0.2-0.2,3.4,2.4,3.4c2.5-0.1,0.9,2.3,1.7,3.4
				c0.5,0.7,0.4,1.8,1.7,1.6c1.3-0.2,2.4,0.6,2.5,1.6c0.8,4.6,2,9.2-0.3,13.7c-0.2,0.3-0.3,0.7-0.5,0.9
				C344.8,408.8,344.4,409.1,343.6,409.7"/>
			<path id="Fill-104" class="st0" d="M371.6,372.9c-2.2,0.9-4.6,1.9-7,2.7c-1.4,0.5-3.3,0.2-4.4,1c-1.4,1-2.1,0.4-3.2-0.1
				c-2.3-1.1-2.3-1.1-0.6-2.7c0.6-0.5,1.1-1,1.7-1.4c1.5-1,2-1.8,0.5-3.4c-1.5-1.6-1-2.5,1.1-3.3c2.4-0.8,4.8-1.5,7.2-2.4
				c1-0.4,1.8-1.1,2.6-1.7c0.9-0.7,0.5-1.1-0.5-1.2c-1.7-0.2-1.2-1.4-1.2-2.5c0.1-1.1,0.7-1.4,1.8-1.4c0.8,0,1.7-0.5,2.5-0.5
				c2,0,3.1,1.3,2.6,3.2c-0.6,1.9-1.3,3.9-2.4,5.6c-0.4,0.7-1.8,0.8-2.8,1.1c-0.9,0.3-2,0.4-2.6,1c-0.6,0.7-0.8,1.8-1.1,2.8
				c-0.1,0.3-0.1,0.7-0.1,1.1c0.4-0.1,1,0,1.3-0.3c2.6-2,5.1-4.2,7.7-6.2c0.3-0.2,0.9,0,1.3,0.2c0.2,0.1,0.5,0.7,0.3,0.9
				C374.9,367.9,373.3,370.3,371.6,372.9"/>
			<path id="Fill-106" class="st0" d="M381.2,352c0.6-0.3,2.1-1,3.7-1.6c1.2-0.4,1.7,0.4,1.2,1.8c-0.2,0.6-0.5,1.3-0.7,1.9
				c-0.1,0.3,0,0.7,0.2,0.8c0.7,0.5,6.2,0,6.6-0.7c0.2-0.3,0.1-0.9,0-1.4c-0.3-1-0.4-2.1-1-2.8c-1.2-1.4-0.3-2,0.7-2.5
				c1-0.5,2.2-0.8,3.4-0.9c2.4-0.2,2.9,0.7,2.3,3.4c-0.2,1.1-0.1,2.2-0.4,3.2c-0.5,1.4-0.9,3.5-1.9,4c-1.8,0.9-3.4,2.4-5.7,2
				c-0.4-0.1-0.7,0-1.1-0.1c-1.4-0.3-2.4-0.3-2.2,1.6c0,0.5-0.2,1-0.4,1.5c-0.7,1.5-1.3,3-3.5,2.9c-0.9,0-1.9,0.6-2.9,0.8
				c-0.9,0.2-1.7-0.8-1.3-1.7c0.1-0.3,0.6-0.4,0.8-0.7c0.7-1.2,1.8-2.4,1.8-3.5c0-1-1.5-1.9-2.2-3
				C377.7,355.7,378.2,354.5,381.2,352"/>
			<path id="Fill-108" class="st0" d="M355.6,381.4c2,2.1,1,5.1-2,6c-1.4,0.4-3.3,0-3.2,2.5c0,0.5-1.3,1.2-2,1.7
				c-0.3,0.2-1.1,0.1-1.3-0.1c-0.3-0.3-0.3-0.9-0.2-1.4c0.4-1.8,0.4-1.8-1.4-1.8c-1.4,0.1-1.7-0.4-1.3-1.8c0.2-0.6,0.5-1.3,0.7-1.9
				c0.1-0.3-0.1-0.6-0.1-0.9c-0.3,0.1-0.7,0.1-1,0.3c-0.5,0.3-0.8,0.9-1.3,1c-0.4,0.1-1.3-0.4-1.3-0.7c0-1.7-0.3-3.4,1.2-5
				c1.9-2.1,3.7-3.9,6.7-3c0.5,0.1,1.1,0.1,1.5,0.4C352.3,378.3,353.9,379.9,355.6,381.4"/>
			<path id="Fill-110" class="st0" d="M351.9,371.7c-1.4,0.8-3.6,2.6-6,3.3c-2,0.6-3.7,0.9-4.3,3.2c-0.1,0.2-1.2,0.4-1.7,0.2
				c-0.5-0.2-1.1-0.8-1.2-1.4c-0.2-1,2.3-5.1,3.2-5.7c1.1-0.8,10.5-3.8,12.1-3.9c0.3,0,0.8,0.3,0.8,0.5c0.1,0.4,0.2,1.1,0,1.4
				C354.1,370,353.3,370.5,351.9,371.7"/>
			<path id="Fill-112" class="st0" d="M405.5,351.7c0.7,1,0.2,3.7,2.3,1.4c0.4-0.4,0.8-0.8,1.3-1c2.9-1.3,5.4,0.5,5.2,3.8
				c0,0.3-0.3,0.6-0.5,0.9c-1.4,1.6-5.5,2.1-6.5,0.4c-1.3-2.2-3-1-4.5-1.1c-0.7-0.1-1.6,1.3-2.2,0c-0.6-1.2-0.6-2.5,0.7-3.3
				c1-0.6,2.2-0.9,3.3-1.3C404.9,351.4,405.3,351.7,405.5,351.7"/>
			<path id="Fill-114" class="st0" d="M415.5,346.1c0.1,0.8,0.3,1.4,0.1,2c-0.1,0.3-0.9,0.5-1.4,0.5c-1.5-0.2-2.7-0.1-4,1
				c-2.5,2.1-5.3,1.6-7.9,0c-0.3-0.2-0.5-1.4-0.2-1.7c0.5-0.7,1.6-1.8,2-1.7c3.3,1.2,5.4-2.9,8.5-1.7
				C413.6,344.9,414.4,345.5,415.5,346.1"/>
			<path id="Fill-116" class="st0" d="M364.6,361.8c-2,0.7-4.2,1.6-6.5,2.1c-1.3,0.3-1.8-0.7-1.3-1.9c1.4-3.3,2.8-4.1,7-3.7
				c0.8,0.1,1.6,0.6,2.4,0.9C365.7,360,365.3,360.7,364.6,361.8"/>
			<path id="Fill-118" class="st0" d="M230.5,339.9c-0.7-0.2-1.4-0.4-2.1-0.5c-1.9-0.2-1.6-1.3-1.3-2.6c0.3-1.5,0.8-2.3,2.5-1.6
				c0.8,0.3,1.8,0.4,2.6,0.7c1,0.3,2.4,2.9,2.1,4c-0.1,0.3-0.7,0.8-1.1,0.7C232.3,340.4,231.4,340.1,230.5,339.9"/>
			<path id="Fill-120" class="st0" d="M369,96.4c0.5,4.7-0.3,9.3-1.1,13.8c-0.2,1.1-0.6,2.3-1.3,3.3c-2.7,4.2-4.8,8.7-8,12.7
				c-1.7,2.1-2.9,5-2.8,8.1c0,3.5-0.2,7,0.1,10.4c0.5,6.5-2.4,11.7-5.5,17c-0.4,0.6-1,1.1-1.1,1.7c-0.2,0.9,0.4,2.5-1.4,2.1
				c-1.5-0.3-0.6-1.8-0.8-2.8c-0.2-1.3,0.1-2.3,1.1-3.4c1.6-1.6,1.8-4,3.1-5.9c0.8-1.1,0.1-3.2,0.1-4.8c0-2.9,0.2-5.9,0-8.8
				c-0.5-7.5,2.2-13.9,6.5-19.9c2.2-3,3.9-6.4,5.4-9.8c0.9-2-0.4-4.6,1.4-6.6V87.8c-2.3-2.6-0.3-6.1-2.1-9c-1.5-2.6-1.8-5.8-2.8-8.7
				c-1-2.6-2-5.2-1.7-8.1c0.1-1.5-0.1-2.6-1.3-3.9c-1.6-1.7-1.3-5.4,0.2-7.4c0.2-0.3,0.6-0.5,0.8-0.8c0.6-0.9,0.4-3,2.2-1.6
				c1.2,0.9-0.2,1.9-1,2.6c-1.5,1.3-1.4,3.6-0.5,4.3c2,1.8,1.7,3.8,1.9,5.9c0.2,2,2.4,3.4,2.2,5.7c-0.1,0.6,0.2,1.4,0.5,2
				c2.8,5.2,4.9,10.6,5,16.6C370,88.9,368.5,92.8,369,96.4"/>
			<path id="Fill-122" class="st0" d="M383.4,52.3c0.3,0.2,0.8,0.3,0.9,0.5c0,0.5-0.1,1.4-0.2,1.4c-2.1,0.2-1.9,1.6-1.9,3
				c0,7.1-0.2,14.3,0.1,21.4c0.2,3.4,0.6,6.9,1.8,10.2c0.1,0.2,0.3,0.3,0.2,0.4c-0.6,3.6,0.9,7,1.1,10.5c0.4,6.8-1.5,13.1-3.8,19.3
				c-1.7,4.8-3.6,9.6-6.3,13.9c-4,6.5-6,13.7-8.6,20.7c-1.2,3.2-3.8,5.3-4.9,8.4c-0.1,0.1-0.7,0.2-1,0.1c-0.3-0.1-0.7-0.4-0.7-0.7
				c-0.1-0.7-0.3-1.7,0.1-2.1c3.6-4.3,4.3-9.6,5.4-14.8c0.5-2.3,1.7-4.4,2.7-6.6c2.9-6.3,6.1-12.5,8.9-18.9c1.3-2.9,2.5-6.2,2.4-9.3
				c-0.1-2.2,2.1-3.6,0.9-6c-0.9-1.8-0.6-4.2-0.6-6.3c-0.1-2.2,0.7-4.8-0.2-6.5c-2.1-4-0.5-8.3-1.8-12.5c-1.3-4-0.2-8.7-0.3-13.1
				c0-1.6,0.1-3.2,1.2-4.5c1.2-1.4,1-2.9,1.1-4.5C380.1,54.7,381.8,52.7,383.4,52.3"/>
		</g>
	</g>
</g>
</svg>
