<?xml version="1.0" encoding="utf-8"?>
<!-- Generator: Adobe Illustrator 20.1.0, SVG Export Plug-In . SVG Version: 6.00 Build 0)  -->
<svg version="1.1" id="Layer_1" xmlns="http://www.w3.org/2000/svg" xmlns:xlink="http://www.w3.org/1999/xlink" x="0px" y="0px"
	 viewBox="0 0 591 779" style="enable-background:new 0 0 591 779;" xml:space="preserve">
<style type="text/css">
	.st0{fill:#2403CE;}
</style>
<title>2</title>
<desc>Created with Sketch.</desc>
<g id="Page-2">
	<g id="_x32_">
		
			<g id="Page-1" transform="translate(295.141762, 391.144158) rotate(-2.000000) translate(-295.141762, -391.144158) translate(12.141762, 9.644158)">
			<path id="Fill-1" class="st0" d="M167.7,595.7c-0.1-0.7,0-1.1-0.2-1.4c-2.9-3.8-1.9-8.8-3.6-13c-1.5-3.8-3.2-7.9-3-12.3
				c0.1-1.4-1.1-1.1-1.9-1c-1.2,0.1-1.4,0.6-1.3,1.8c0.5,3.9,2.8,7.3,2.6,11.3c-0.1,3.1,1.5,5.7,2.7,8.4c1,2.1,1,4.8,3,6.4
				c0.4,0.3,0.9,0.7,1.3,1C167.5,596.3,167.6,595.9,167.7,595.7 M68.4,440.3c-0.1,0.1-0.3,0.1-0.4,0.2c0.7,1.6,1.4,3.1,2.1,4.7
				c0.6,1.2,1.2,2.5,1.6,3.8c2.3,6.9,6.2,12.9,11.1,18.2c0.2,0.3,0.6,0.5,0.9,0.7c0.1-0.5,0.5-1.1,0.3-1.5c-1.6-4.4-3.7-8.7-4-13.5
				c0-0.2,0-0.4-0.1-0.5c-2.3-6.5-2.3-6.5-1.7-12.2c0-0.4-0.7-1.4-1.1-1.3c-1.1,0-2-0.2-3-0.6c-1-0.4-2.4,0.3-3.5-0.8
				c-0.5-0.5-1.5-0.5-2.3-0.7c-0.1,0.7-0.2,1.4-0.2,2.1C68.2,439.2,68.3,439.7,68.4,440.3 M76,434.6c1.9,0,2.3-1,2.8-2.6
				c0.6-2.1,1.7-4.1,2.7-6.1c0.5-1,0.3-1-0.7-1.1c-2.3-0.5-4.7-0.9-6.8-1.8c-5.1-2.2-10.3-4.3-14.6-8.1c-0.2-0.2-0.5-0.1-0.8-0.1
				c-0.1,0.3-0.2,0.7-0.1,1c0.4,0.9,1.2,1.7,1.4,2.7c1.8,7.4,6.9,11.8,13.3,15.2C74.1,434.1,75.1,434.3,76,434.6 M509.5,548.4
				c0,3.4,0,6.7-0.1,10c0,0.4-0.7,1.1-1.2,1.2c-0.8,0.3-1.8,0.6-2-0.9c-0.1-1.3-0.2-2.6-0.5-3.8c-0.2-1-0.7-1.9-1.2-2.8
				c-0.1-0.3-0.6-0.5-0.9-0.7c-0.2,0.3-0.4,0.6-0.5,0.8c-0.1,2.1,0.4,4.1,0.1,6.3c-0.4,2.8-0.3,5.9-0.3,8.9c0,1.9,0.6,2,2.3,1
				c3.2-1.9,5-5.2,7.1-8.1c2.3-3.2,5.9-16.1,5.9-20c0-1.4,0-3-1.7-3.7c-5.8-2.3-9.6-6.2-10.5-12.7c0-0.2-1.4-0.7-1.7-0.4
				c-0.6,0.6-1.3,1.5-1.3,2.2c0,3.7,0.2,7.4,0.3,11.1c0,0.9,0.6,2.1,0.3,2.7c-1.8,2.5,0.1,4.9,0,7.4c0,0.3,0.4,0.6,0.6,0.8
				c0.3-0.4,1-0.7,1-1.2c0.1-1.6,0-3.2,0-4.7c0-0.3,0.6-0.7,1-0.9c0.2-0.1,0.8,0.1,0.9,0.3C508.6,543.5,509.3,545.9,509.5,548.4
				 M84.9,540.2c0,4.4,3,8,5.1,11.9c1.9,3.6,4.3,6.9,6.8,10.2c4.6,6.2,10.1,11.4,16.6,15.7c2.3,1.5,5.1,1.9,7.7,2.7
				c0.3,0.1,1.1-0.3,1.3-0.7c0.1-0.4-0.2-1.3-0.5-1.4c-4.4-1-6.3-4.7-8.8-7.8c-0.6-0.8-0.7-2-1.2-2.8c-0.5-0.7-1.6-1-2.1-1.7
				c-1-1.5-1.5,1.2-2.4,0.2c-2-2.1-4.5-3.4-6.5-5.6c-4.7-5.3-8.8-10.9-11.1-17.7c-3.5-2.6,0-6-0.9-8.9c-0.2-0.7,1.7-2.1,2.8-2.9
				c0.4-0.3,1.4,0,2,0.2c0.1,0.1,0.2,1.1-0.1,1.4c-3,3.1-2.1,6.1-0.1,9.2c0.4,0.6,0.5,1.3,0.8,1.9c0.2,0.4,0.5,0.7,0.8,1.1
				c0.1-0.3,0.3-0.6,0.3-1c0.2-5.6,2.2-10.8,5.8-14.7c1.8-1.9,3.7-3.8,5.4-5.8c1.6-1.7,1.7-3.3,0.6-5.4c-1-1.8-2-3.6-3.1-5.3
				c-0.9-1.4-1.9-2.7-2.9-4.1c-0.9,1.2-1.8,2.3-2.7,3.5c-0.6,0.7-1.1,1.4-1.7,2.2c-3.8,5.2-8.1,9.9-10.6,16.1
				C85.1,533.7,84.3,536.6,84.9,540.2 M165.6,606.1c-0.9-3.7-3.1-7.2-5.1-10.5c-3.8-6.3-4.8-13.3-5.4-20.4c-0.1-1.4,0.7-3,0.5-4.6
				c-0.2-1.7-1-2.5-2.5-3.1c-3.2-1.1-6.6-1.7-9.7-3.1c-3.4-1.5-6.5-3.2-8.8-6.4c-2.5-3.3-6.1-5.9-8.1-9.5c-2-3.6-5-6.4-6.5-10.4
				c-0.5-1.5-2.3-2.3-2.9-4.2c-0.4-1.3-1.9-2.7-2.9-4.1c-1-1.4-2.1-2.7-2.8-4.3c-0.3-0.7-1.3-1.8-2.3-0.2c-1.2,1.9-3.6,2.7-4.5,5
				c-0.8,1.9-2.4,3.5-3.4,5.4c-2.4,4.5-1,12.4,2.7,16.2c0.3,0.3,0.6,0.5,0.9,0.7c0.1-0.5,0.4-0.9,0.4-1.4c-0.1-1.6-0.3-3.3-0.6-4.9
				c-1-5,1-9,4.1-12.6c0.3-0.4,1.2-0.7,1.3-0.6c0.4,0.5,0.7,1.2,0.9,1.8c0.1,0.5-0.1,1.1-0.4,1.4c-2.2,2.6-2.2,5.5-1.6,8.5
				c0.4,2.3,0.7,4.7,0.9,7.1c0.2,2.1,1.7,3.7,2.1,5.9c0.3,2,1.9,4,3.4,5.6c4.5,4.6,8.2,9.7,11.8,14.9c1.7,2.5,2.6,5.2,3.7,7.8
				c1.4,3.1,0.4,6.6-0.9,9.7c-0.5,1.3-1.8,2.5-3,3.3c-2.5,1.8-4.9,4.1-8.4,3.8c-0.4,0-1-0.5-1.1-0.8c-0.1-0.4,0.4-1.3,0.5-1.2
				c3.7,0.4,4.2-3.9,7.2-4.7c1.7-0.5,0.5-2.8,1.2-3.8c1.4-1.9,0.2-2.6-1-3.4c-1.5-1-0.9-2.6-1.3-4c-0.6-2.2-1.6-2.7-3.7-1.6
				c-1.2,0.7-2.1,0.6-3.4,0.2c-6.7-2.2-11.9-6.2-17.1-11c-5.9-5.5-10-12.2-14.3-18.8c-2.5-3.8-4.2-8.1-6.1-12.3
				c-0.5-1.2-0.5-2.9-0.2-4.2c1.1-4.9,2-9.9,5.6-13.8c0.6-0.7,0.7-2,1.3-2.8c3.4-4.6,7.4-8.7,11.6-12.5c1.9-1.8,2.1-2.6,1.4-5.2
				c-0.9-3.2-2.6-6.2-2.7-9.7c0-4.3-1.7-8.2-4.5-11.5c-0.8-0.9-1.6-2-1.8-3.1c-0.2-2.1-1.8-3-3.1-3.5c-5.2-2-8.4-6.2-11.8-10.2
				c-4.5-5.3-7-11.6-9.4-18.1c-1.6-4.3-2.5-8.7-3.9-13c-0.6-1.8-1.1-3.7-2.2-5.2c-3.1-4.4-5.1-9.8-6.1-14.2
				c-0.4-1.9,2.1-3.6-0.1-5.4c-1.3-1.1-2.1-2.7-3.2-4c-5.9-6.8-9.5-14.9-13.6-22.7c-0.6-1.2-0.6-2.8-1-4.1c-0.4-1.1-0.9-2.2-1.5-3.2
				c-2.1-3.4-1.1-8.1-4.6-10.9c-0.2-3.8-2.9-6.9-2.6-10.8c0-0.3,0.7-0.7,1.2-0.8c0.2-0.1,0.9,0.2,0.9,0.4c0,2.3,1.8,3.7,2.8,5.5
				c1,1.7,2.1,3.5,3.1,5.3c1.1,1.9,1.8,4.1,3.1,5.9c5.1,6.6,10.5,12.9,17.6,17.5c2.9,1.9,5.9,4,9.2,5c3.4,1,6.6,3.3,10.5,2.2
				c3.4-1,7.1-0.2,10.5-2.2c1.9-1.1,4.5-0.8,6.9-1c0.1,0,0.4,0.5,0.4,0.9c0,0.3-0.1,0.7-0.3,0.9c-0.2,0.2-0.7,0.2-1,0.3
				c-0.9,0.3-1.8,0.7-2.7,1c1,0,2.2,0.3,3.1,0c2.5-1,4.9,0.6,7.4,0.2c3-0.5,3.8-1.2,3.3-4.2c-1.3-7.2,0.5-14.1,2.2-21
				c2.4-9.8,5.7-19.2,8.9-28.7c1-3,2.1-6.1,2.8-9.3c0.6-3,1.7-5.9,1.9-9c0-0.5,0.7-0.9,0.7-1.4c-0.1-3.7-0.3-7.4-0.3-11.2
				c0-2.4-0.6-5.2,0.3-7.3c0.8-2,0.3-3.5,0.2-5.2c-0.2-3.3,1.6-6.2,4.8-7.1c0.1,0,0.7,0.6,0.6,0.8c-0.4,1.1-1,2.2-1.5,3.3
				c-0.6,1.4-1.9,3.3-1.4,4.2c1.5,2.6,0.2,5.4,0.9,7.9c0.2,0.6,0.7,1.1,1,1.6c0.4-0.4,0.8-0.9,1.2-1.3c0.4-0.4,0.9-0.8,1.3-1.2
				c0.3,0.7,1.2,1.7,0.9,2.2c-1.7,3.5-1.4,7.4-2.1,11c-0.5,2.7-0.8,5.4-1,8.2c-0.4,6,1.4,11.9,1.1,17.7c-0.2,5.7,1.2,11.1,1.2,16.6
				c0,8.9-1.5,17.5-7,25c-0.7,0.9-1.1,0.9-2.3,0.7c-2-0.3-1.7-1.4-2-2.5c-0.3-1.2-0.1-2,1.4-2.2c0.9-0.1,2.1-1.1,2.3-1.9
				c1.3-4.6,2.6-9.1,2.9-14c0.3-5.7-0.8-11.1-1.2-16.6c-0.2-3-1.7-6-0.1-9c0.1-0.1-0.6-0.9-0.9-1c-0.4,0-1.2,0.4-1.2,0.7
				c-0.2,5.3-3,9.7-4.4,14.6c-1.2,4.1-2,8.3-3.6,12.2c-1.7,4-1.1,8.5-3.4,12.3c1.2,5.5-1.9,11.4,2,16.6c0.4,0.5,0.3,1.4,0.3,2.1
				c0.4,5.4,3.7,9.6,6.5,13.9c0.2,0.3,0.6,0.4,0.8,0.7c0.6,0.8-0.5,3.1,1.7,2.5c1.5-0.4,1.4-2,1.6-3.5c1.1-7.3,3.4-14.2,6.1-21
				c2.6-6.5,5.5-12.9,7.7-19.6c2.2-6.6,3.6-13.4,2.5-20.4c-0.4-2.2-0.6-4.4-0.9-6.6c-0.4-3.5-2.1-6.6-3.2-9.9
				c-0.6-1.9-0.4-4.1-1.2-5.8c-1.4-2.9-0.8-5.4,0.1-8.1c0.7-1.9,1.4-3.7,3.8-3.9c0.4,0,1,0.2,1.3,0.6c0.2,0.2,0.1,0.7,0,1
				c0,0.2-0.2,0.3-0.3,0.4c-3.5,3.6-2.5,7.6-0.5,11.4c1,1.9,0.6,3.9,2,5.9c2,3,4.4,18.2,4.1,21.6c-0.2,3.2-0.8,6.5-1.6,9.6
				c-1.1,3.9-2.3,7.8-3.8,11.6c-1.4,3.7-2.9,7.3-4.5,10.9c-1.6,3.6-2.8,7.3-4.2,11c-1.4,3.6-2.2,7.5-2.9,11.3
				c-0.5,3-1.4,6.1-1.2,9.2c0.4,5.5,0.9,11,2.2,16.3c0.7,2.8,3,5.4,5,7.6c1.8,2,4.3,3.4,6.5,5.1c0.4,0.3,1,0.5,1.4,0.3
				c0.3-0.1,0.7-0.9,0.6-1.2c-0.4-1.6,0.4-3.1,0.5-4.6c0.1-2,1.9-4.3-0.6-6.3c-0.5-0.4,0.4-2.6,0.4-3.9c0.1-2.3,0.3-4.5,0.2-6.8
				c-0.1-2.3,0.6-4.4,1.1-6.6c0.5-2.2,0.7-4.4,1.1-6.5c1.1-5.2,2.6-10.2,4.6-15.1c1.5-3.8,2.5-7.7,3.5-11.7c1-3.9,2-7.9,2.9-11.9
				c1.1-4.8,0.9-9.9,2.3-14.6c0.1-0.3,0-0.7,0-1.1c-0.2-4.4-0.5-8.9-0.6-13.3c-0.1-1.9,0.2-3.8,0.3-5.7c0.1-3.1-1.4-5.8-2.3-8.7
				c-0.8-2.9,0.3-6.3-2.2-8.7c0.1-4.9-3.4-8.8-4-13.6c-0.1-0.5-0.2-1-0.5-1.5c-2.4-3.9-2.9-8.5-4.9-12.5c-1.8-3.7-1.6-7.8-3.3-11.6
				c-1.6-3.5-1.4-7.9-1.8-11.9c-0.3-4.1-0.3-8.2-0.6-12.2c-0.1-1.9-0.8-2.2-2.4-0.9c-0.6,0.5-1.6,0.7-2.4,0.9
				c-2,0.6-4.3-0.1-5.9,2.1c-1.2,1.6-3.3,2.3-4.9,3.7c-5.6,4.9-10,10.8-14.5,16.6c-2.7,3.4-9.1,8.8-13.5,11.2
				c-1.1,0.6-2.4,0.6-3.6,0.9c-0.2,0.1-0.4,0.6-0.4,0.9c0,0.3,0.2,0.9,0.4,0.9c3.7,1,7.5,2.3,11.3,1c2.7-0.9,5.3-2.8,6.1-5.4
				c1-3,3.3-4.4,5.2-6.4c3.7-4,9-5.4,13.6-8.1c0.9-0.5,2.1-0.4,3.2-0.4c0.4,0,0.8,0.4,1.2,0.7c-0.3,0.5-0.5,1.2-1,1.4
				c-0.9,0.4-2.2,0.3-3,0.9c-4.2,3.5-9.6,5.6-12.9,10.3c-0.8,1.1-1.3,1.9,0,2.9c0.1,0-0.5,1.1-0.9,1.5c-1.3,1.2-2.8,2.1-3.9,3.3
				c-1.6,1.7-3.4,2.7-5.5,3.7c-1.8,0.8-4,1.4-5.4,2.9c-1.4,1.5-2.9,2.5-4.9,2.8c-0.2,0-0.4,0.4-0.7,0.7c0.3,0.1,0.6,0.3,1,0.4
				c2,0.6,3.7,0.8,5.9-0.2c4.6-2.1,9.4-4,13.8-6.7c0.6-0.3,1.4-0.4,2.1-0.4c0.3,0,0.7,0.4,0.7,0.6c0,0.5-0.2,1.4-0.3,1.4
				c-2.8-0.3-2.9,3.7-5.6,3.5c-1.2,2.4-4,2.6-6,3.9c-3.2,2.1-6.3,3.9-10.7,2.5c-3-0.9-6.6,0-10,0c-2.8,0-5.7,0.5-8.4-0.1
				c-3.7-0.9-7.5-0.5-11.2-1.6c-3.6-1.1-7.2-2-10.6-3.8c-0.5-0.3-1.2,0-1.9,0.1c0,0.5-0.1,1.2,0.2,1.5c1.3,1.4,2.5,3.1,4.1,4.1
				c6.9,4,14.1,6.7,22.2,7.5c8,0.8,15.9,2.5,22.9,6.7c2.3,1.3,4.5,2.8,6.7,4.3c0.2,0.1-0.3,1.6-0.5,1.6c-2.1,0-4.3,0.4-6.2-0.4
				c-1.7-0.6-3.1-0.6-4.7-0.4c-3.6,0.5-7.3,1.1-10.9,1.4c-4.6,0.4-9.3,0.7-13.9,0.7c-2.2,0-4.4-0.7-6.5-1.3
				c-5.5-1.7-11.4-2.3-16.4-5.6c-1.8,0.6-1.2-1.4-2-1.8c-0.3-0.1-0.5-0.4-0.7-0.7c0.5-0.2,1-0.6,1.4-0.6c0.8,0.1,1.6,0.5,2.4,0.7
				c6.8,1.6,13.5,3.2,20.3,4.8c0.3,0.1,0.7,0.2,1,0.2c6.1-0.4,12.2-0.8,18.3-1.3c0.5,0,0.9-0.5,1.3-0.7c-0.5-0.1-1-0.2-1.5-0.4
				c-3.4-1.1-7-1.3-10.5-2.1c-5.3-1.1-10.7-1.5-15.9-3.9c-4.2-1.9-7.7-4.3-11.2-7c-3.9-3-4.3-6.5-3-10.8c0.4-1.3,1.1-1.3,2.2-0.3
				c0.4,0.4,1,1.2,1.3,1.1c2.5-0.7,4.4,0.2,6.6,1.3c2.1,1,4.6,1,7,1.4c0.3,0,0.6-0.3,0.9-0.4c-0.1-0.2-0.2-0.6-0.4-0.7
				c-1-0.8-2-1.7-3.1-2.3c-1.6-0.9-1.4-2.4-1.6-3.8c0-0.4,0.4-1,0.8-1.1c0.4-0.1,1.1,0.2,1.3,0.5c2,3.3,5.3,4,8.7,4.9
				c3.3,0.9,6.4,1.3,9.8,0.9c3.1-0.4,8.6-1.4,10.4-2.7c0.2-0.2,0.3-0.6,0.3-1c0-0.3-0.3-0.8-0.5-0.9c-7.2-1.2-13.9-4.5-21-6.2
				c-4.1-1-7.5-3.4-11.3-5c-1.4-0.6-2.5-1.2-4-0.9c-0.6,0.1-1.6-0.1-1.9-0.6c-0.6-0.8-0.9-1.8-1.3-2.8c1-0.3,1.9-0.7,2.9-0.7
				c0.4,0,0.8,0.7,1.3,0.9c0.4,0.2,0.8,0.3,1.2,0.4c0-0.5,0.2-1.2,0-1.5c-1.7-2.1-1.6-4.6-2-7.1c0-0.3,0.3-0.8,0.5-0.8
				c0.5-0.1,1.4,0,1.4,0.2c0.7,2.1,2.6,3.2,3.7,4.9c3.1,4.6,8.1,5.8,12.7,7.5c1.5,0.6,3.5-0.2,5.3-0.2c2.9,0,7.4-1.3,10.1-2.2
				c5.2-1.8,8.5-5.9,12.1-9.5c4.2-4.3,8-9.1,12.4-13.3c3.1-2.9,6.7-5.4,10.5-7.2c2.8-1.3,6.2-1.7,9.5-1c2.9,0.6,3.4,0.1,4.1-2.5
				c1.8-7.2,3.8-14.3,8.4-20.4c0.6-0.8,0.7-2,1.3-2.8c0.4-0.4,1.5-0.5,2.1-0.3c0.4,0.1,0.7,1.2,0.6,1.7c-0.2,1-0.5,2.1-1.2,2.8
				c-2.9,3.1-3.9,7-5.2,10.8c-1.3,3.7-2.4,7.4-2.5,11.5c-0.1,4.2-0.8,8.3-0.4,12.5c0.4,4.2,0.5,8.5,1.8,12.5
				c0.8,2.4,1.4,4.7,1.9,7.1c0.5,2.2,1.2,4.4,2,6.5c1.9,5,3.7,10,5.6,15c1.1,2.9,2.6,5.6,3.1,8.8c0.3,1.7,1.2,3.2,1.7,4.9
				c0.4,1.5,0.2,3.1,1.6,4.4c0.5,0.4,0.3,1.7,0.4,2.7c0.5,3.6,0.9,7.3,1.5,10.9c0.8,5.5,0.3,10.9,0.1,16.3
				c-0.3,7.4-1.1,14.7-2.9,21.9c-1.7,6.9-3.3,13.9-6.4,20.4c-1.3,2.7-2.1,5.7-2.9,8.7c-0.8,2.8-2,5.5-2.3,8.3
				c-0.7,6.5-2.5,12.9-2,19.5c-1.5,3.2-0.2,6.4,0.2,9.5c0.5,4.9,1.3,9.8,1.9,14.8c0,0.4-0.3,0.9-0.6,1.2c-0.2,0.2-0.8,0.1-1,0
				c-1.5-1.2-3.5-2-3.3-4.6c0.2-2.6-1.2-3.8-3.8-4.8c-7.1-2.8-12.2-8.2-14.8-15.3c-1.7-4.6-4.7-9.1-2.7-14.6c0.7-2-1.6-3.7-2.2-5.7
				c-3.1-0.5-4.1-3.5-5.6-5.5c-2.4-3-3.9-6.7-5.8-10.2c-0.4-0.8-0.4-1.7-0.6-2.6c-0.7-3-1.3-3.6-4.4-3c-2.4,0.4-4.7,1.3-7.1,2
				c-2.2,0.7-4.8-0.3-6.6,1.8c-0.2,0.3-1.2,0.3-1.4,0.1c-1.2-1.2-2.4-0.4-3.6-0.3c-2,0.2-4.3,1.2-5.9,0.6c-2.1-0.9-3.9-0.1-5.8-0.2
				c-1.9-0.1-3.9,0-5.7-0.4c-2.9-0.7-5.9-1.7-7.7-4.2c-3.3-4.9-8.3-7.8-12.7-11.4c-0.2-0.1-0.5-0.1-0.8-0.1c-0.1,0.3-0.3,0.8-0.1,1
				c0.7,1.4,1.2,2.9,2.2,4c2.3,2.6,3.1,6,5.7,8.5c2.3,2.2,3.7,5.3,5.9,7.7c5.5,6.1,11.5,11.5,19.5,14.2c0.8,0.3,1.5,0.9,2.3,1.2
				c1.3,0.4,2.6,1.1,3.9,1c1-0.1,1.9-1,2.8-1.7c5.1-3.8,6.9-4,13.1-3.8c5.1,0.2,9.6,2.3,14.5,3c0.3,0,1,0.2,1,0.2
				c-0.4,2.3,3.4,1.1,2.8,2.9c-0.8,2-2.5,0.5-4,0.3c-4.6-0.6-9.1-2.6-13.8-1.5c-1.7,0.4-2.7-1.8-4.5-0.3c-1.1,0.9-2.9,1.1-4.2,1.8
				c-4.6,2.6-5.5,7.3-6.2,11.9c-0.4,2.2-0.3,4.5-0.2,6.8c0.1,2.2,0.2,4.5,0.9,6.5c1.4,4.4,2.7,8.9,4.4,13.3
				c2.8,7,6.8,13.3,10.5,19.8c1.3,2.3,2.5,4.6,2.6,7.3c0.1,1.8,0.3,3.7,0.7,5.5c0.4,1.5,1.1,2.9,1.6,4.3c0.1,0.3,0.3,0.6,0.5,0.9
				c0.2-0.4,0.6-0.8,0.5-1.2c-0.6-2-1.4-3.9-1.8-6c-0.6-3.4-1-6.9-1.4-10.4c-0.3-3,0.9-6,0-9c-0.1-0.2,0.6-0.8,1-0.9
				c0.4,0,1,0.4,1.1,0.8c0.8,5.5,3.1,10.7,3.4,16.3c0.2,3.8,4.1,11.4,6.9,14.8c2,2.4,3.7,4.9,5.7,7.3c1.4,1.6,3,3,4.5,4.5
				c1.4,1.4,2.7,2.7,4.1,4.1c1.5,1.5,2.9,3,4.5,4.4c1.5,1.3,3,2.8,4.8,3.6c1.9,0.9,2.2,3.7,4.7,3.7c0,0.6,0,1.8-0.1,1.8
				c-1.5,0.2-3,0.9-4.6-0.4c-4.5-3.7-9.5-7-13.9-10.8c-4.9-4.4-9.4-9.3-13.7-14.4c-1.4-1.7-2.4-3.7-3.5-5.6c-0.3-0.5-0.6-1-1-1.4
				c0,0.7-0.2,1.4-0.1,2.1c0.2,0.8,0.7,1.6,1.1,2.3c3,5.9,6.3,11.6,9.4,17.5c2,3.7,4.6,7.1,6.9,10.7c3.3,5.3,6.5,10.8,9.9,16
				c5.3,8.1,13,13,22.3,15.5c1,0.3,2.2,0.1,3.2-0.2c0.4-0.1,0.9-1.3,0.7-1.6c-2.1-3.4-1.2-7.5-2.6-10.8c-2.3-5.5-2-11.3-3.2-16.9
				c-1-4.5-2.1-9-2.9-13.6c-0.8-4.5-1.1-9.1-1.9-13.6c-0.3-1.7-1.7-3.3-1.6-4.9c0.5-10.8-2.2-21.3-3.1-31.9c0-0.4,0.7-0.9,1-1.4
				c0.4,0.5,1,0.9,1.1,1.4c0.6,4.2,1.1,8.4,1.7,12.6c0.5,3.5,0.8,6.9,1.4,10.4c0.3,1.9,0.1,3.7,1.6,5.6c1,1.2,0.8,3.9,0.4,5.7
				c-0.3,1.3-0.2,1.7,0.6,2.7c1.3,1.6,2.1,3.6,2.2,5.8c0.2,2.9,0.2,6,1.2,8.7c2.1,5.3,1.6,11.1,3.3,16.3c1.6,4.9,1.4,10,3.1,14.7
				c1.3,3.8,1.8,7.6,2.4,11.5c0.3,2.1,2.1,3.6,2,6c0,1.9-0.2,4,1.7,5.4c0.1,0.1,0.1,0.4,0.1,0.5c0.1,4.9,2.2,9.2,4,13.5
				c1.7,3.9,3.2,7.9,5.4,11.6c5.8,9.6,11.9,19,18.5,28.1c7.1,9.7,14.7,19,22.5,28.1c3.5,4.1,7.8,7.4,10.7,12
				c0.4,0.6,1.1,0.9,1.7,1.4c2.7,2.3,5.7,4.2,8.1,7c1.4,1.6,3.3,3.1,5.8,3.8c1.8,0.5,3.2,2.3,4.8,3.5c5.4,4.1,10.8,8.3,16.2,12.4
				c5.6,4.4,12,7.4,18,11.1c6.9,4.2,14.2,7.1,21.7,9.6c5,1.6,10.3,2.3,15.5,3.2c4.6,0.8,9.3,0.2,13.8,1.4c0.3,0.1,0.7-0.1,1.1-0.1
				c8.1-0.7,16.2-0.5,24.3-2c3.8-0.7,7.7-0.9,11.5-1.6c2.4-0.4,4.7-1.3,7.1-2c2.3-0.7,5.1,0.2,7.1-2c0.5-0.5,1.8-0.4,2.7-0.4
				c3.3-0.1,6.2-1.5,9.3-2.3c2.9-0.7,5.4-2.4,8.2-3.1c4.5-1.1,8.4-3.1,12.3-5.3c3.2-1.8,5.9-4.2,8.1-7.3c3.2-4.5,6.6-8.8,10-13.1
				c4.7-6.1,9.1-12.4,12.8-19.2c0.6-1.1,1.5-2.1,2.3-3.1c3.7-4.6,6.9-9.5,9.5-14.8c0.4-0.8,1.1-1.5,1.7-2.2
				c3.7-4.6,6.9-9.5,9.5-14.8c0.4-0.8,1.1-1.5,1.7-2.2c3.7-4.6,6.8-9.6,9.5-14.8c1.6-3.2,4.3-5.8,5.7-9c2.7-5.9,4.7-12.1,5.6-18.5
				c0.7-5.1,1.6-10.2,1.6-15.4c0-3,0.3-6.1,0.7-9.2c0.4-3.1-0.5-6.4,0.1-9.5c0.6-3.1-0.6-6.1,0-9c0.6-3-0.5-5.7,0-8.4
				c0.5-3.1-0.4-6.1,0-9c0.4-3.1-0.6-6.1-0.1-9c0.8-5.3-0.1-10.7,1-16.1c0.6-3.2-0.3-6.7,0-10c0.2-2.8-0.3-5.7,0.1-8.4
				c0.4-2.7-0.7-5.6,0.9-8.2c-1.2-3.2,0.2-6.3-0.1-9.5c-0.2-2.2,0.2-4.5,0.1-6.8c-0.1-2.1-0.2-4.1,0.1-6.3c0.6-3.4,0.1-7.1-0.2-10.6
				c-0.2-2.5,1.2-4.8,0.2-7.4c-0.8-2.2,0.6-4.4,0.7-6.6c0.1-1.4,0.2-2.8,0-4.2c-0.8-6.2-1.6-12.4-2.4-18.6c-0.1-0.4,0.6-1,0.9-1.5
				c0.4,0.5,1.1,0.9,1.2,1.4c1.3,9.3,2.5,18.6,3.7,27.8c0,0.4,0.1,0.7,0.1,1.1c0.2,1.7-1.9,2.8-0.9,5c0.8,1.8,0.6,4.1,0.7,6.2
				c0.1,1.9,0.4,3.9,0.1,5.8c-1,6.2,1,12.6-0.8,18.7c1.3,3.7,0,7.4,0.2,11.2c0.2,3.4,0.3,6.9-0.5,10.4c-0.2,1,0,2.1,0.2,3.2
				c0.5,3.7-0.9,7.5,0.3,11.2c-1.8,2.6,0.3,5.3-0.2,7.9c-0.5,2.5-0.5,4.9-0.1,7.4c0.1,0.4,0.1,0.7,0.1,1.1c0.3,1.4,1.1,1.2,1.9,0.7
				c1-0.7,2-1.4,2.8-2.3c5.5-6.5,9.3-13.9,11.1-22.3c0.7-3,2.1-5.9,3.8-8.4c2-3.1,3.4-6.4,4.9-9.8c2.4-5.2,3.3-10.7,4.1-16.3
				c0.1-0.5,0.1-1,0.1-1.6c-0.1-3.7-0.1-7.5-0.4-11.2c-0.3-3.8-1-7.6-1.5-11.5c-0.6-4.7-1.1-9.5-1.9-14.2c-0.5-2.7-0.3-5.3,0.2-7.9
				c1.2-6.6,1.9-13.2,2.9-19.8c0.7-4.9,1.2-9.9,1.8-14.8c0.4-3.5,1.1-6.9,0.5-10.4c-0.3-1.7-0.8-3.5-1.2-5.2c-2.2,0.3-4.9-0.2-6.4,1
				c-3.9,2.9-8.6,4.2-12.4,7.1c-1,0.7-1.7,1.8-2.7,2.5c-0.5,0.3-1.4,0.1-2-0.2c-0.2-0.1-0.3-1.1,0-1.4c1.3-1.4,0.6-2.5-0.7-3
				c-5.7-1.9-8-6.7-10.4-11.5c-1.5-3-2.9-5.9-3.4-9.2c-0.4-2.2-1.4-4.3-1.9-6.5c-0.5-2.2-0.3-4.5-1.9-6.6c-0.7-0.9-0.7-2.6,0.4-4
				c0.7-0.9-1.2-3.4,0.5-3.7c2.8-0.4,1.2,2.4,1.7,3.6c1,2.3,2.6,4.3,3.4,6.9c1.4,4.2,3,8.4,4.7,12.5c1.3,3.1,4.6,8.4,7,10.7
				c1.8,1.8,3.9,1.7,5.5,0.8c6.5-3.5,13.2-6.7,17.6-13.8c0.1-0.3-0.1-0.1-0.3,0.1c0.2,0.1,0.4,0.3,0.6,0.4c0.1-0.2,0.3-0.5,0.4-0.7
				c0,0-0.2-0.2-0.6,0.2c-1.2,0.7-2.3,0.5-2.9,1c-5.6,4.5-12.2,4-18.7,3.5c-3.4-0.2-5.7-2.3-7.5-5c-0.2-0.4-0.2-1.1,0-1.4
				c0.2-0.3,1-0.4,1.4-0.3c0.8,0.2,1.8,0.3,2.4,0.9c2.7,2.3,5.9,1.6,9,1.9c1.4,0.1,2.7-0.8,4.2,0.2c1.6,1.2,2.1-1.7,3.6-1.4
				c0-0.3,0-0.7-0.1-0.7c-1.2-0.7-2.5-1.8-3.7-1.8c-3.5,0-5.8-2.3-8.5-3.6c-2.9-1.4-5-3.8-7.2-5.8c-2.6-2.4-4.1-5.7-3.9-9.4
				c0-0.4,0.6-0.9,0.9-1c0.4-0.1,1.2,0.4,1.2,0.6c0,3.5,2.8,5.2,4.8,7.2c3.8,3.9,8.7,6.3,13.6,8.2c3.5,1.3,7.3,2.5,11.6,2.2
				c4.8-0.3,7.2-3,9.2-6.5c1.3-2.2,2-4.7,2.6-7.2c0.6-2.3,3.1-4,2.4-6.8c0-0.1,0.9-0.7,1.3-0.6c0.3,0,0.8,0.6,0.9,1
				c0.9,3.3,0.4,6.7-0.4,9.9c-1.2,4.7-2.9,9.3-6,13.2c-0.6,0.8-0.7,2-1.3,2.8c-1.7,2.2-3.1,4.8-5.7,6.4c-1.6,1-1.4,1.9,0.5,2.7
				c2.1,1,3.3,2.8,3.6,4.8c1,6.1,1.3,12.2,0.6,18.5c-0.6,5.3-1,10.6-1.5,16c-0.5,5.1-1,10.2-2,15.3c-0.6,3-0.6,6.3-0.3,9.4
				c1,9.3,2.3,18.6,3.6,27.9c1,7-1.4,13.7-1.8,20.6c-2.4,1.7-1.3,4.9-3.2,7.1c-1.6,1.9-2.3,4.6-3.5,6.9c-2.7,5-5.9,9.7-7.3,15.4
				c-0.8,3.1-2.4,6.1-4.4,8.8c-1.2,1.5-1.8,3.4-3,5c-1.2,1.5-2.8,2.7-4,4.1c-1.9,2.3-1.5,4.7,0.3,7.2c2.5,3.5,6,5.4,9.7,6.9
				c1.4,0.6,2,1,1,2c-1.5,1.6-1.3,3.2-1.1,5c0.9,8.1-1.5,15.4-5.9,22.1c-1.7,2.5-3.5,4.9-6,6.8c-1,0.8-2.1,1.2-3.1,1.8
				c-2.4,1.6-5.5,3-4.4,6.9c-1.3,7-2.2,14.2-4.1,21c-1.2,4.3-3.7,8.2-6,12.1c-3.1,5.2-6.7,10.1-9.6,15.4c-1.2,2.3-1.9,5-2,7.9
				l-8.8,9.6c-0.3,1.1-1.5,2.1-2.3,3.1c-1.6,2-3.5,3.9-4.6,6.2c-2.9,5.8-6.5,11.1-10.5,16.1c-0.9,1.2-2,2.2-2.6,3.5
				c-2.2,4.9-5.6,9.1-8.6,13.5c-3.8,5.6-8.4,10.7-12.3,16.3c-2.1,3-5.5,4.3-7.8,7c-1.2,1.4-18.5,7.8-20.4,8.3
				c-3.4,0.9-6.7,2.3-10.2,2.6c-0.1,0-0.2,0.6-0.3,0.9c-19.7,2.6-39.3,5.2-59,7.8c-0.3-0.3-0.7-0.9-1-0.9c-1.3,0-2.5,0.4-3.8,0.4
				c-1.4,0-2.7-0.5-4.1-0.5c-5.7-0.2-11.3-1.2-16.7-2.6c-10.1-2.7-19.8-7-28.8-12.3c-6.1-3.6-12.3-7.4-17.9-11.7
				c-12.7-9.9-26.4-18.6-37.5-30.5c-5-5.3-9.8-10.7-14.5-16.3c-3.3-3.9-6.5-8-9.6-12.1c-2.8-3.6-5.4-7.4-8-11.2
				c-2.3-3.4-4.9-6.6-6.9-10.1c-1.3-2.2-3.2-4-4.2-6.4c-1.3-2.9-3.2-5.6-4.9-8.3c-0.3-0.4-0.8-0.6-1.3-0.9c-0.1,0.5-0.3,1-0.3,1.5
				c0,0.7,0.2,1.5,0.3,2.2"/>
			<path id="Fill-3" class="st0" d="M318.4,128.1c-0.3-2.4-0.4-4.5-0.9-6.4c-0.5-2-1.2-4-1.9-5.9c-0.5-1.3-1-2.5-1.6-3.8
				c-0.4-1,0.4-2.5-1.1-3.1c-0.1,1,0.1,2.2-0.4,3c-1,1.5-0.1,2.8-0.1,4.2c0.3,6.6,2.6,13.1,1.6,19.9c-0.6,4.1-1.2,8.1-3.3,11.7
				c-0.6,1-1.1,2.2-1.4,3.3c-0.1,0.4,0.4,1.3,0.6,1.3c1.7-0.2,3.6,0.2,5.1-1.2c3.5-3.3,4.6-7.8,6-12.1c0.2-0.5,0.1-1.3-0.2-1.6
				C318.2,134.6,319.4,130.9,318.4,128.1 M143.2,123.3c2.7-0.4,5.5-0.7,8.2-1.1c4.4-0.6,8.6-1.1,13,0.4c3,1,6.3,1.7,8.2,4.2
				c2.2,3,5.2,5.3,8.3,6.8c4,1.9,7.4,4.4,10.5,7.4c1.1,1,2.1,2.1,3.2,3.2c0.6-2-1.2-3-2.1-4.3c-1-1.6-2-3.2-3.1-4.6
				c-3-3.7-5.9-7.4-10.7-9c-2.1-0.7-4-2.3-5.9-3.5c-2.7,1.2-4.3-2.6-7-1.4c-1.3-2.3-4.1-0.9-5.7-2.4c-1.7-1.6-4.6-0.5-6.1-2.6
				c-2.8,0.7-5.1-1.2-7.3-2.1c-2.4-0.9-5-1.1-7.4-2.2c-4.3-2-8.9-3.1-13.5-4.6c-2.5-0.8-5.1-0.9-6.9,1.1c-4.5,4.8-8.9,9.7-13.2,14.6
				c-0.4,0.4-0.5,1.1-0.7,1.6c0.5,0,1.1,0.1,1.6,0c4.9-1.4,10,0,15-0.8c5.8,2.1,11.6,0.6,17.4-0.1
				C140.3,123.7,141.8,123.5,143.2,123.3 M154.6,81.8c-4.1,0.2-7.5,2.1-11,4.3c-4.4,2.8-8.1,6.3-12.1,9.6c-2.4,2-4.6,4.2-6.9,6.4
				c-0.4,0.4-0.5,1.3-0.5,1.9c0,0.1,1,0.5,1.4,0.4c2.2-0.7,4.2,0.1,6.3,0.4c1.7,0.2,3.2,1.2,4.9,1.5c9.8,1.4,19.2,4.3,28.6,7.4
				c4.8,1.6,9.8,2.9,14.5,4.7c3.1,1.2,5.5,3.3,8.1,5.1c0.2,0.1,0.7,0.1,0.7,0.1c0.1-0.3,0.3-0.8,0.1-1c-2.5-3.3-4.7-6.8-7.8-9.7
				c-2.6-2.5-5.2-4.6-8.6-5.8c-6.6-2.2-13.6-3.2-20.2-5.2c-4.4-1.3-8.6-3-12-6.2c-0.1-0.1-0.4-0.2-0.4-0.3c-0.1-0.9-0.1-1.7-0.1-2.6
				c0.6,0,1.3-0.1,1.9,0.1c3.1,0.7,6.1,2.1,9.3,2.8c6.2,1.3,12.5,1.9,18.7,3c4.3,0.8,8.6,2.2,11.7,5.2c4,3.9,8.1,7.9,10.4,13.4
				c1.5,3.7,3.3,6.9,3.4,9.8c0.2,4,0.2,4,2,6.7c0.9,1.4,2,2.8,2.8,4.3c4,7.3,7.5,14.8,8.6,23.2c0,0.3,0.3,0.6,0.4,0.9
				c0.2-0.1,0.6-0.2,0.7-0.4c0.7-0.9,1.7-1.7,1.8-2.7c0.8-5.1,2.2-10.2,1.4-15.4c-0.4-2.3-1.3-4.4-1.8-6.5c-1.6-6.3-4.7-12-8.5-16.8
				c-5-6.4-9.9-12.9-15.8-18.6c-5.8-5.5-11.1-11.5-17.6-16.2C164.7,82.4,160.1,80.5,154.6,81.8 M368.5,50.4c-0.1,0-0.2,0-0.3,0
				c-0.3-2.2-0.4-4.4-0.9-6.5c-0.4-2-1.1-4-1.9-6c-2.9-7.5-9-12.3-16.3-10.5c-3.8,0.9-7.5-0.6-11.2,0.3c-6.2-2-12.6-2.8-19-3.7
				c-4.3-0.6-8.6-0.8-12.9-0.9c-1.9,0-3.8,0.8-5.7,1.2c1.5,1.1,3,2.2,4.3,3.4c1.3,1.2,2.4,2.5,3.7,3.7c4.9,4.8,4.9,11.6,7.4,17.4
				c-1.9,3,0.2,6,0.1,9c0,1.1,0.8,2.6,0.3,3.2c-1.5,2.1-0.3,4.4-1.1,6.6c-0.8,2.2-0.2,4.8-0.3,7.3c-0.1,2.3,0.3,4.7-0.3,6.8
				c-0.8,2.6,0.5,5.2-0.2,7.3c-1.1,3.1-0.5,6,0.4,8.4c1,2.4,0.9,5,1.9,7.1c1.2,2.3,1.6,4.7,1.9,7.1c0.1,0.5,0.1,1.1,0.3,1.6
				c2.1,3.7,3.2,7.7,3.7,12c0.3,2.6,0.8,5.1,1,7.6c0.1,3.3,0.4,6.7-0.2,9.9c-0.4,2.1-0.6,2.5,1.6,2.4c1.5-0.1,1.8,0.8,1.2,1.9
				c-1.2,2.3-3.6,3.2-5.5,4.7c-0.4,0.3-0.7,0.9-1,1.3c0.5,0.1,1,0.4,1.5,0.4c4.6-0.6,9.1-1.2,13.6-1.8c0.7-0.1,1.4-0.2,2.1-0.5
				c8.1-3.6,13.9-9.9,17.9-17.4c4.6-8.5,6.6-18.2,8.7-27.6c1.2-5.3,2.3-10.6,2.8-16.1c0.4-3.9,1.3-7.7,1.9-11.6
				c0.6-4.1,0.6-8.2,1-12.3C369.4,60.8,368.7,55.5,368.5,50.4 M195.8,147.9c0.4-0.6,0.7-0.9,0.6-1c-0.1-0.5-0.3-0.9-0.4-1.4
				c-0.2,0.1-0.7,0.2-0.7,0.3c0.1,0.6,0.2,1.2,2.7,3.2c-0.3-0.5-0.7-1.1-1-1.6c-0.1,0.4-0.4,0.8-0.3,1.1c0.2,0.7,0.6,1.4,0.9,2.1
				C197.7,150,197.8,149.6,195.8,147.9 M306.1,141.6c-0.9,1.7-1.8,2-2.5,2.5c-2.2,1.6-4.3,3.5-6.7,4.7c-2.5,1.2-4,3.9-7,4.2
				c-3,3.8-7.4,6.1-9.9,10.3c-1.1,1.8-1.9,1.6-2.5-0.6c-0.5-1.5-1.1-1.9-2.2-0.8c-0.7,0.7-1.4,1.5-2.2,0.5c-0.4-0.6-0.6-1.9-0.2-2.5
				c0.8-1.4,1.9-2.7,3-4c1.2-1.3,2.5-2.5,3.8-3.7c1.1-1.1,2.4-2,3.4-3.2c3.3-3.8,7-7.4,9.7-11.6c2.4-3.7,3.8-7.9,4.3-12.5
				c0.5-4.4,0.2-8.7-0.9-12.8c-1.7-6.3-4.1-12.4-7.2-18.1c-4.3-7.9-9.5-15.3-12.9-23.7c-0.4-1-0.9-1.9-1.1-2.9c-0.6-4-1.5-8-1.5-12
				c0-3-0.1-6.2,0.8-9.2c0.6-2.1,0.2-4.5,0.4-6.8c0-0.5,0.7-1,1-1.5c0.4,0.3,1,0.5,1.1,0.9c0.4,2.7,0.9,5.4,1.1,8.2
				c0.1,2.6,1.7,5.3,0,7.9c-0.2,0.3,0.3,0.9,0.5,1.4c0.4,1.1,1,2.3,1.1,3.4c0.6,5.7,1.9,11.1,6.4,15.1c0.2,3,3,4.5,4.1,7
				c1.2,2.6,3.1,4.9,4.5,7.4c1.3,2.4,2,5.1,3.4,7.5c1.5,2.6,2.2,5.4,3.3,8.1c1.7,4.1,1.7,8.4,2.7,12.6c1,4.3,0.4,8.5-0.8,12.4
				c-1,3.2-2,6.7-4.5,9.3c-0.2,0.3-0.4,0.6-0.6,0.9c0.5,0.1,1,0.4,1.5,0.3c1.5-0.4,3.3,0.2,4.4-1.6c0.8-1.4,2.1,1.7,3-0.2
				c1-1.9,1.7-3.8,1.2-6c-0.4-1.8-0.5-3.6-0.8-5.5c-1-7.5-2.3-14.9-2.8-22.4c-0.5-6.2-3.5-11.3-6.2-16.4c-2.6-4.8-4.3-9.7-6-14.8
				c-2-6.3-2.4-12.7-3.3-19.1c-0.8-5.7,0.1-11.4,1.4-17c0.4-1.6,1.6-3.1,2.5-4.6c0.2-0.4,1.2-0.7,1.3-0.6c0.4,0.5,0.6,1.1,0.9,1.7
				c0.1,0.2,0.1,0.4,0.1,0.5c-1.8,2.9-1,6.1-1.1,9.2c-0.2,7.4,0.2,12,2.6,18.8c0.2,0.7,0.2,1.4,0.3,2.2c0.8,8.2,4.4,15.2,8.5,22.1
				c1.9,0.5,1.1,2.5,2,3.6c0.7,0.9,0.8,2.3,1.2,3.4c0.1,0.3,0.4,0.6,0.6,0.8c0.2-0.3,0.5-0.6,0.5-0.8c-1.1-5.1,0.2-10.2,0.4-15.2
				c0.2-4.1,0.6-8.2,1.2-12.3c0.4-3.3,0.2-6.6,0.1-10c0-2.8-1.3-5.5-0.2-8.5c0.3-0.9-1.4-2.6-1.5-4.2c-0.2-2.3-1.1-4.4-1.7-6.6
				c-1.4-4.8-5.3-7.2-8.4-10.5c-0.8-0.8-2.2-1.1-3-2.3c-0.3-0.6-1.5-0.9-2.3-0.9c-2.7,0.2-6-0.2-8,1.2c-2.2,1.5-5.1,0.4-6.8,2.6
				c-7.4,2.1-13.5,6.6-19,11.8c-4.9,4.6-10,9-12.8,15.5c-0.9,2.3-2.7,4.2-4,6.2c-1.7,2.4-0.8,3.8,0.1,5.6c2.5,4.6,4.2,9.7,7.4,13.9
				c2.3,3,4.5,6.1,7.1,8.8c5.7,5.9,9.3,12.9,12.4,20.5c1.9,4.7,2.6,9.5,2.6,14.2c0,6-2.7,11.6-7.6,15.6c-4.2,3.5-8.9,6.4-13,9.9
				c-4.9,4.1-10.7,7.5-12.9,14.1c-2.4,0.5-1.6,4.3-4.4,4.4c-0.3,1.9-0.8,3.7-0.9,5.6c-0.1,1.4,0.4,2.9,0.5,4.4
				c0,0.4-0.3,1.1-0.6,1.2c-0.4,0.1-1.1,0-1.4-0.3c-1.5-1.3-2.1-3.7-4.8-3.7c-0.1,0-0.3-1-0.2-1.4c2.6-6.2,3.2-8.8,2.3-14.1
				c-0.5-3.3-0.4-6.7-2.2-9.9c-0.8-1.4-1.6-3.8,0-5.7c0.1-0.1,0.1-0.3,0.1-0.5c-0.4-7.6,0-15.3-2-22.6c-2.1-7.6-5.4-14.8-11.1-20.6
				c-5.3-5.3-10.7-10.7-15.8-16.1c-4-4.3-7.8-8.8-11.7-13.2c-1.4-1.6-2.5-3.4-4.1-4.7c-1.4-1.1-1.2-2.5-1.4-3.9c0-0.3,0.5-0.9,0.9-1
				c0.4-0.1,1,0.3,1.2,0.6c0.5,0.9,0.7,2.1,1.4,2.7c5.7,4.9,10.9,10.4,15.9,16.1c2.2,2.5,5.1,4.5,7.5,6.9c4.2,4.2,8.7,8.2,12.4,12.8
				c3.4,4.2,5.5,9.3,7.6,14.4c2.4,5.8,2.5,12,3.4,18c0.3,1.8-0.3,3.8-0.3,5.7c0,1.7,0.1,3.4-0.3,5.2c-0.4,2.2,1.4,5.1,0.5,7
				c-1.3,2.9,0.7,3.7,1.8,5.3c0.5,0.7,1.3,0.9,1.5-0.1c0.4-2,2.2-2.8,3.3-4.3c0.5-0.7,1.3-1.6,1.1-2.3c-0.8-3.5,1.6-6.3,2.3-9.4
				c0.8-3.6,1.8-8.9,1.7-11.7c-0.1-1.9,0.5-3.8,0.3-5.7c-0.8-7.9-4.6-14.4-9.8-20.1c-2-2.2-4.4-4.2-6.7-6.1
				c-6.5-5.7-13.1-11.2-19.5-17c-3-2.8-5.7-6.1-8.3-9.3c-0.9-1.1-1.6-2.7-2-4.1c-0.3-1.2-0.8-2-1.7-2.5c-1.6-0.9-1.1-2.5-1.4-3.9
				c0-0.2,0.7-0.7,1.1-0.8c0.2-0.1,0.9,0.3,0.9,0.3c-0.6,2.8,2.8,3.4,3.3,5.8c0.4,1.9,3.1,3.2,4.4,5.1c1.3,2.1,3.6,3,4.9,4.8
				c1.9,2.6,4.5,4.1,6.8,6c5.4,4.5,11.2,8.7,16.2,13.6c4.9,4.8,9.5,9.8,12.6,16.2c3.2,6.5,3.9,13,3.2,19.8c-0.2,1.7-0.6,3.4-0.9,5
				c-0.3,1.5-0.4,3.1-0.9,4.5c-0.9,2.4-1.8,4.9-3.1,7c-0.8,1.3-1.4,2.4-1,4c0.1,0.5-0.2,1.1-0.4,1.6c0.7-0.1,1.6,0.1,2.1-0.2
				c1-0.7,1.7-1.7,2.7-2.5c5.7-5,11.5-9.8,17.4-14.6c1.1-0.9,1.9-2.3,2.4-4c2.6-8.2,2.7-9.1-0.2-18.2c-1.8-5.6-4.2-10.9-7.7-15.5
				c-2.3-3-5.1-5.7-7.5-8.6c-4.2-5-7.7-10.4-10.1-16.5c-3.6-9.2-10.7-14.5-19.4-18.1c-3.7-1.6-7.7-2.6-11.6-3.8
				c-0.5-0.1-1-0.1-1.6-0.1c-5.5,0.7-11,1-16.3,2.3c-4.1,1-7.9,3.1-11.7,5.1c-5.3,2.8-10.4,5.9-14.8,10.1c-1.8,1.7-4.2,2.9-6.2,4.4
				c-1.1,0.9-0.8,1.7,0.6,2.2c2.9,1,5.9,1.5,8.7,3c4.8,2.5,8.9,5.7,12.7,9.2c5.2,4.8,9.6,10.4,14.4,15.7c1.8,2.1,4.3,3.9,5.3,6.3
				c1,2.7,4.5,3.6,4.4,6.9c3.5,3.4,5.2,7.9,7.3,12.3c1.7,3.5,3.2,6.9,3.6,10.9c0.1,1.5,0.3,2.9,0.6,4.4c1.4,7.4-1.4,13.9-4,20.5
				c-3.5,2.8-3.8,6.8-4.3,10.9c-0.3,3.1-2,6.1-3.3,9.1c-0.3,0.7-1.1,1.4-1.9,1.7c-0.5,0.3-1.4,0.1-2-0.2c-0.2-0.1-0.2-1-0.1-1.4
				c0.5-1.6,1.3-3.2,1.7-4.8c0.6-2.5,1.4-5,0.9-7.7c-0.5-2.7-0.6-5.5-1.2-8.2c-0.5-2.6-1.3-5.1-2.1-7.6c-0.4-1.1-1-2.2-1.5-3.2
				c-0.1-0.2-0.5-0.4-0.7-0.5c-0.1,0.3-0.3,0.7-0.3,1c0.3,2.4,0.5,4.8,0.9,7.1c1.5,8.4-0.6,16.6-2.4,24.7c-0.5,2.3-0.9,4.7-2.4,6.7
				c-0.3,0.5-0.9,0.8-1.4,1.2c-0.3-0.6-0.9-1.2-0.9-1.8c0.3-3.4,0.2-7,1.3-10.2c0.8-2.5-1.2-5,0.8-7.2c-0.1-3.9-0.2-7.8-0.4-11.7
				c-0.5-7.9-6.2-17.5-14.5-20.8c-3.4-1.4-6.1-3.8-8.9-5.9c-1.8-1.3-3.4-2.8-5.3-4c-1.3-0.8-2.8-1.8-4.2-1.9
				c-3.3-0.2-6.7-0.1-10.1,0.2c-4.6,0.4-9.1,1.1-13.7,1.8c-5.6,0.8-11.1-0.2-16.6-0.7c-3.1-0.3-6.3-0.3-9.4-0.5
				c-3.5-0.2-6.7,0.3-10.1,0.4c-1.4,0.1-2.3,0.7-3.1,1.8c-3.1,4.1-6.2,8.2-9.4,12.2c-0.6,0.8-1.5,1.3-2.2,1.9
				c1.3,0.6,2.2,0.2,3.4-0.6c1.5-1.1,3.4-1.6,5.1-2.3c1.8-0.7,3.6-1.2,5.4-1.8c5.6-2.1,11.3-4,17.4-4.6c1.5-0.1,3-1.7,4.3-1.5
				c3.3,0.7,6.4,0.2,9.5-0.3c3-0.4,6,1.1,9-0.1c10.9,2,21.7,3.8,30.7,11.3c5.5,4.5,10.4,9.3,13,16c0.2,0.5,0.9,0.7,1,1.2
				c0.9,3.8,1.9,7.6,2.6,11.4c0.8,4.6-0.1,8.9-2.1,13.1c-0.4,0.8,0,2,0.1,3c0,0.3,0.7,0.4,0.8,0.7c0.3,0.6-0.8,5.1-1.2,5.2
				c-2.6,0.4-1.4-2-2.1-3c-1.5-2.2-2.4-4.9-3.4-7.4c-2.3-5.8-5.3-11-9.1-15.9c-1.2-1.5-2.2-3.2-1.9-5.3c0-0.3,0.4-0.6,0.7-0.7
				c0.3-0.1,0.9-0.1,1,0c4,4.9,8.9,9.1,11.3,15.2c0.4,1.1,1,2.2,1.5,3.2c0.1,0.3,0.5,0.4,0.7,0.6c0.1-0.3,0.4-0.7,0.3-1
				c-0.8-5.9-0.8-12-3.5-17.4c-1.8-3.6-4.2-7.2-7.2-9.9c-4.1-3.9-8.7-7.6-14.3-9.1c-3.1-0.9-6.1-2-9.3-2.8c-3.2-0.8-6.6-0.1-9.5-1.8
				c-0.1-0.1-0.4,0-0.5,0.1c-7.1,1.3-14.6-0.4-21.5,1.8c-7.4,2.3-15.5,2.8-22.2,7.2c-4.6,0.1-7.8,3.5-11.7,5.2
				c-3.7,1.6-6.8,4.5-10.3,6.5c-1.2,0.7-2,1.3-2.2,2.6c-0.8,0.3-2.2-0.3-2,1.6c0,0.1,0-0.1,0-0.2c-0.3,0.1-0.6,0.2-0.8,0.4
				c-0.1,0.1,0.2,0.4,0.3,0.6c0.2-0.2,0.4-0.4,0.6-0.8c0.8-0.5,2.1,0,2-1.6c3.2-1.5,6.5-3,9.7-4.6c5.5-2.8,11.1-5.2,17.3-5.6
				c1.5-0.1,2.9-0.5,4.4-0.5c2.5,0,4.8-1.4,7.4-0.3c2.3,1,4.9-1.4,7.2,0.5c5.6-0.7,10.9,1,16.2,2.3c3.3,0.8,12.8,4.5,15.2,6.3
				c3.1,2.3,6.2,4.6,9.2,7.1c0.9,0.7,1.6,1.8,2.3,2.8c0.5,0.6,1.1,1.9,1,2.1c-1,0.9-2.1,0.9-3.4,0.1c-2.6-1.8-5.3-3.6-8.1-5.2
				c-5.3-3.1-15.2-7.1-23.2-7.8c-4-0.3-8.2-0.1-12.2-1.4c-1.1-0.4-2.5,0.4-3.8,0.4c-2.4,0.1-4.9,1.5-7.4-0.1c-0.4-0.2-1.1,0-1.6,0.2
				c-2.4,0.7-4.7,1.3-7,2c-2.3,0.7-5.2-0.5-7.1,2c-4.7,0.3-8.5,2.8-12.4,5.1c-4.3,2.5-8.3,5.3-12.4,8c-3.4,2.3-6,5.6-10,7.2
				c-1.6,0.6-2.8,2.8-3.7,4.5c-3.8,7.5-6.2,15.5-7.6,23.7c-0.4,2.2-0.6,4.3-1.6,6.5c-0.7,1.6,0.4,3.9,0.6,5.9c0,0.3-0.6,0.9-1,0.9
				c-0.4,0-0.8-0.4-1.2-0.7c-0.1-0.1-0.1-0.3-0.1-0.5c-0.1-3.9-2.1-7.7-0.4-11.7c0-10.7,3.7-21.8,9.1-31.8
				c4.9-9.2,11.8-16.9,20-23.2c2.8-2.1,5.1-5.2,9-5.7c2-2.6,4.6-5,5.9-7.9c1-2.2,2.4-4,3.8-5.8c1.6-2.2,3.1-4.3,3.8-6.9
				c0.3-1.1,1-2.6,1.9-3.1c2.4-1.3,3.5-3.5,5-5.5c4.4-5.7,9.2-10.9,14.2-16c1.7-1.7,3-3.7,4.4-5.7c2.1-2.8,5-4.9,7.4-7.5
				c2.8-2.9,5.6-5.8,8.6-8.5c4.4-3.9,9.2-7,14.4-9.7c0.3-0.2,0.6-0.5,0.9-0.5c5.8-0.5,9.4-4.2,12.9-8.3c1.6-2,3.7-3.7,5.9-5.1
				c1.6-1,3.2-1.9,4.5-3.4c1.3-1.4,3.1-1.9,4.6-3.2c2.6-2.2,6.2-3.5,9.4-4.9c3.5-1.6,7-3,10.8-3.9c1.9-0.5,3.9-1.6,6-1.6
				c8.5-0.3,16.8,0.9,24.5,4.8c3.5,1.7,7.1,3.1,10,5.8c0.7,0.6,1.8,1,2.1,1.7c0.5,1.2,1.1,2.4,2.3,2.2c0.5-0.1,0.7-1.8,1.2-2.7
				c1.7-3.1,3-6.4,5.1-9.1c3.9-5.2,8-10.3,12.5-14.9c2.1-2.1,4.3-4.5,7.5-5.3c2.9-3.5,7.3-4.4,11.1-6.3c2.8-1.4,5.6-2.7,8.8-3
				c4.2-0.4,8.4-1.1,12.6-1.6c2.3-0.3,4.6-0.3,6.9-0.4c2.1-0.1,4.5-0.9,6.3-0.1c2.2,0.9,4.7-0.6,6.6,1.2c6.4-0.4,12.6,1.5,18.8,2.6
				c0.3,0.1,0.6,0.3,1,0.3c3.9-0.1,7.9,0.1,11.7-0.5c8-1.2,13.7,2.3,18.2,8.3c1.1,1.4,1.7,2.8,3.5,3.9c2,1.2,3.6,1.4,5.6,1
				c6-1.1,11.7,0.4,17.5,1.5c6.4,1.2,11.9,4.2,16.9,7.6c4.5,3.1,7.8,8.1,10.3,13.3c2,4.2,3.5,8.4,3.9,13c0.3,3.1,0.6,6.2,1.2,9.3
				c1.4,6.7,0.2,13.3-1.2,19.7c-2.3,10.4-6.1,20.3-11.6,29.6c-3,5.1-5.7,10.3-9.5,14.8c-5.7,6.6-11.3,13.3-19.6,16.9
				c-1,2.1-3.2,2.8-5,3.6c-2.3,1.1-4.6,2.6-7.4,2.5c-1.9,0-3.7,0.2-5.3,2.2c-0.8,1-3.2,0.8-5,1c-0.4,0-0.9-0.6-1.3-0.9
				c0.5-0.3,0.9-0.6,1.4-0.9c0.7-0.5,1.4-1,2.1-1.5c0.6-0.4,1.1-1.2,1.6-1.2c3.9,0.1,7-2.1,10.3-3.6c5.6-2.6,15.8-10.5,18.6-14.6
				c0.2-0.3,0.1-0.8,0.1-1.2c-0.5,0.1-1,0.2-1.4,0.4c-1,0.7-1.4,3.4-3.1,1.8c-1.3-1.3,1-2.3,1.5-3.6c0.1-0.2,0.2-0.3,0.3-0.4
				c3.8-3.5,4-8.4,4.5-13c0.4-4.4,1.1-8.8,1.9-13.2c2.2-1.6,1.3-4.6,2.9-6.7c1.4-1.8,1.7-4.4,2.4-6.7c1.4-4.9,2.4-9.9,3.1-15
				c1.2-9.4-0.4-18.6-1.5-27.8c-0.2-1.8-0.5-3.6-0.7-5.5c0-0.2,0.7-0.6,1.2-0.8c0.2-0.1,0.8,0.2,0.9,0.4c0.2,0.7,0.2,1.4,0.3,2.2
				c0.1,0.7-0.1,1.9,0.3,2.1c4.1,2.5,2.9,6.8,3.4,10.4c0.5,3.5,1.7,6.9,0.6,10.7c-0.7,2.3,0.1,5.2-0.1,7.8
				c-0.7,8.8-2.4,15.4-6.5,24.6c-2.1,4.8-3.8,9.9-3.9,15.3c-0.1,5.1-1.3,9.9-4.1,14.2c-0.3,0.5-0.3,1.3-0.5,1.9
				c0.5-0.2,1.1-0.4,1.4-0.8c2.8-3.6,6.2-7,8.3-11c4-7.8,8.5-15.4,11.2-23.8c1.6-5,2.2-10.3,4.1-15.2c0.8-2.1-1-4.6,0.6-6.7
				c-0.2-4.6-0.2-9.3-0.5-13.9c-0.5-5.6-3.5-10.4-4.5-15.7c-4.5-6.2-8.7-12.5-16.5-15.3c-5.2-1.8-10.2-3.7-15.7-4.5
				c-0.7-0.1-1.5-0.2-1.9-0.7c-1.2-1.3-2.6-0.9-4-0.8c-1.9,0.1-3.9,0.1-5.8,0.2c-0.3,0-1,0.3-0.9,0.4c0.9,4.2,0.1,8.7,2.7,12.5
				c0.7,1.1,1.4,0.9,2.2-0.4c0.3-0.5,0.7-1,1.1-1.4c0.4,0.5,1,0.9,1.1,1.5c0.1,1-0.2,2-0.3,3.1c-0.1,0.9-0.4,2.3,0,2.5
				c1.9,1.3,1.2,3.3,1.7,5c0.3,1.2,0,2.4,1.2,3.4c0.6,0.5,1,2.3,0.6,3c-1.2,2.2-0.4,4.2-0.2,6.3c0.2,2,1.2,4.3,0.6,5.9
				c-0.8,2.3,0,4.2-0.2,6.3c-0.2,1.8-1.6,3.7-1.3,5.4c0.7,5.1-2.7,9.2-3,14c-3,4.1-3.7,9.2-5.5,13.8c-2.2,5.5-3,11.5-3.5,17.5
				c-0.5,5.7-2.8,10.8-6.9,15c-1.5,1.6-3.7,2.2-8.1,2.7c-0.5,0-1,0.3-1.4,0.7c-1.4,1.3-3.2,2.5-4,4.1c-1.7,3.2-4.6,3.2-7.4,3.5
				c-0.3,0-0.9-0.5-1-0.9c-0.1-0.4,0.4-1.2,0.6-1.2c2.9,0.2,4.3-1.7,5.5-3.7c1.9-3.4,5.3-4.5,8.5-5.7c4.9-1.9,7.6-5,8.8-10.1
				c1-4.3,1.6-8.7,2.2-13.1c0.2-1.5,0.1-3.2,0.6-4.6c2.1-5.9,4.6-11.7,6.6-17.7c2.4-7.3,5.2-14.4,4.9-22.4c-0.1-3-0.1-6-0.2-9
				c0-1.7,1.3-3.7,0.9-5.1c-0.6-1.7-1.2-3-0.4-4.9c1.1-2.7-2.1-4.1-2.8-6.3c-0.1-0.2-0.5-0.3-0.7-0.5c-0.1,0.3-0.4,0.7-0.3,1
				c1.3,3.9-0.1,7.8,0.3,11.7c0.3,3.3-0.5,6.9-1,10.2c-1.5,9.2-2.5,18.6-4.9,27.6c-0.7,2.6-0.7,5.5-1.8,7.9
				c-1.1,2.5-0.3,5.7-2.8,7.7c0.1,5.1-3,9.1-5,13.4c-4,8.9-10.1,15.8-19.3,19.6c-0.5,0.2-0.8,0.8-1.2,1c-4,0.9-7.9,2.3-12,2.6
				c-4.3,0.3-8.7,0.1-13-0.7c-2.6-0.5-5.6,0.2-7.9-1.9c-0.2-0.2-1.3,0.4-1.7,0.9c-3.3,4.6-7.9,6.4-13.3,6.5c-0.5,0-0.9-0.7-1.4-1
				c0.3-0.4,0.6-1,0.9-1c2.1-0.3,3.5-1.3,2.9-3.6c-0.5-2,3.3-1.3,2.1-3.6c1.5,0.1,2-2.8,4.1-1.3c0.4,0.3,2.2-0.4,2.4-0.9
				C303.8,148.4,306.4,146.2,306.1,141.6c-0.1-0.5-0.2-0.1-0.3,0.3c0,0.3,0.1,0.7,0.1,1c0.3-0.3,0.9-0.6,0.9-0.9
				C306.9,141.7,306.6,141.2,306.1,141.6"/>
			<path id="Fill-5" class="st0" d="M473.7,202.3c-0.6,0-1.1-0.1-1.6,0c-0.1,0-0.2,0.5-0.3,0.7c0.5,0.1,1,0.2,1.5,0.1
				C473.4,203.2,473.5,202.7,473.7,202.3 M542.9,263.8c-0.1-0.2-0.2-0.4-0.2-0.4c-0.4,0.2-0.9,0.2-1.1,0.5c-2.1,3.1-3.3,7-6.9,9
				c-0.2,0.1-0.1,0.5-0.2,0.8c0.3,0.1,0.7,0.2,1,0.2C539.4,273.2,543.1,268.1,542.9,263.8 M543.8,211.1c0-0.1-0.3-1.4-0.8-2.5
				c-0.2-0.4-0.8-0.7-1.3-1c-0.2,0.4-0.4,0.8-0.5,1.2c-0.4,1.5-0.3,3.2-1.1,4.3c-1.6,2.3,2.3,2.7,1.3,4.7c-0.5,0.9-0.8,2-0.7,2.9
				c0.1,0.7,1,1.3,1.6,1.9c0.2-0.5,0.4-1,0.6-1.5C543.5,219.3,544.2,213.8,543.8,211.1 M530.9,180.9c-0.4-2.7-0.7-5.5-1.1-8.2
				c-0.1-0.5-0.8-0.8-1.2-1.3c-0.3,0.3-0.9,0.7-0.9,1c-0.1,3.6-4.1,5.7-3.8,9.5c0,0.4-0.9,1.1-1.5,1.4c-4,2.1-6.5,5.8-8.5,9.5
				c-1.8,3.2-3.3,6.6-5.6,9.5c-1.6,2-1.3,3,1.3,3.8c3.9,1.2,7.6,0.6,11.3-1c1.9-0.8,3.8-1.7,5.7-2.2c0.5-0.1,1.2,1.3,2-0.1
				c0.7-1.3,2.5-8.2,2.9-9.7C532.4,189,531.3,185,530.9,180.9 M467.9,187.2c-3.5,0.5-6.9,0.9-10.4,1.4c-0.4,0.1-0.8,0.5-1,0.9
				c-0.1,0.2,0.1,0.8,0.3,1c2.3,1.7,4.3,3.7,7.2,4.6c4.4,1.4,8.7,2.7,13.4,3.2c3.4,0.3,6.9,1.1,10.3,0.7c2.9-0.3,5.9-1.1,8.7-2.2
				c2.8-1.1,5.4-2.8,7.9-4.5c3-2,5.9-4.1,8.5-6.5c3.9-3.6,8.8-6.4,10.7-11.9c0.7-2.1,2.3-3.9,3.4-5.9c0.4-0.7,0.9-1.6,0.8-2.4
				c-0.5-6.3-2.3-12.4-1.3-18.8c0.1-0.4-0.4-0.9-0.6-1.4c-0.5,0.5-1.2,0.9-1.3,1.5c-0.5,2.2-0.6,4.4-1.2,6.5
				c-2.8,9.1-8.1,16.7-15.1,23c-2.8,2.5-5.5,5.1-9,6.8c-2.3,1.1-4.4,2.8-7,3.1c-2.7,0.3-4.8,2.7-7.6,2.1c-1.7-0.4-1.6,2.7-3.7,1.3
				c-1.1-0.7-3.1-0.1-4.6-0.2c-0.4,0-0.9-0.5-1-0.9c-0.1-0.4,0.3-1.1,0.6-1.2c1.2-0.3,2.5-0.4,3.8-0.6c1.2-0.2,2.5-0.3,3.7-0.7
				c0.5-0.2,0.8-1.1,1.2-1.7c-0.5-0.1-1-0.2-1.5-0.3c-2.3-0.4-3.8,1.6-5.9,1.9C474.1,186.4,471,186.8,467.9,187.2 M497.1,203.6
				c4.4,0,6.8-2.8,9-6c0.2-0.3,0.2-0.6,0.3-1c-0.4,0-0.7,0.2-1.1,0.1c-1.8-0.1-2.6,1.5-4.1,2.1c-1.6,0.7-2.5,2.5-4.5,2.3
				c-1.6-0.1-2.1,1-2.7,2.1c1,0.1,2.1,0.2,12.9-7.8c-0.2,0.2-0.4,0.4-0.6,0.6c0.2,0.1,0.4,0.3,0.6,0.4c0.1-0.2,0.3-0.5,0.4-0.7
				C507.2,195.8,507,195.7,497.1,203.6 M491.6,182.7c-0.6-0.4-0.9-0.7-1-0.6c-0.5,0.1-0.9,0.3-1.4,0.4c0.1,0.2,0.2,0.7,0.3,0.7
				c0.6-0.1,1.2-0.2,2.1-2.3c-0.2,0.2-0.4,0.4-0.6,0.6c0.2,0.1,0.4,0.3,0.6,0.4c0.1-0.2,0.3-0.5,0.4-0.7
				C492,181.1,491.7,181,491.6,182.7 M454.4,131.7c-10.4,19.8-11.1,20.1-11.8,19.9c-0.5-0.1-1.3-0.9-1.2-1.2
				c0.3-1.2,0.7-2.4,1.3-3.3c4-5.8,6.2-12.4,9-18.7c1.1-2.3,2.4-4.7,2.7-7.1c0.4-2.6,2.6-4.6,2-7.4c2.4-2.7,2.3-6.6,4.9-9.3
				c1.1-1.2,1.5-3.1,2.2-4.6c-2-1.6-1.2-4.3-2.4-6.3c-1.9-3.2-3.4-6.7-5.3-9.8c-2.8-4.7-5.9-9.1-7.6-14.5c-2.2-6.9-2.7-8.9-0.6-14.1
				c0.2-0.5,0.9-0.8,1.4-1.2c0.3,0.4,0.7,0.8,0.8,1.2c0.6,3.5,0.6,7.1,2.5,10.3c0.8,1.3,1,3.1,2,4.1c2.1,1.8,2.5,4.5,4.1,6.5
				c1.4,1.9,3.9,3.6,3.9,6.5c3.2,2.2,3.5,6.2,5.6,9.1c0.2,0.3,0.4,0.5,0.7,0.7c0.1-0.3,0.4-0.7,0.4-0.9c-1.2-5.1-0.2-10.5-3-15.3
				c-0.4-0.7-0.5-1.8-0.3-2.7c0.1-0.6,0.7-1.3,1.2-1.7c0.1-0.1,0.8,0.4,1.2,0.6c1.2,0.8,1.9,1.8,2.3,3.4c1.1,4.5,1.9,5.3,6.1,6.6
				c4.2,1.3,7.2,4.1,10,7.2c0.6,0.6,1.2,1.4,1.4,2.1c1,5.7,3.6,11.1,3.3,16.9c-0.6,9.6-1.5,19.1-5.2,28.1c-1.4,3.4-3,6.7-5,9.7
				c-2.9,4.6-5,9.6-7,14.5c-4.4,10.7-11.9,17.8-22.7,21.6c-0.6,0.2-1.2,0.7-1.7,1.1c-0.3,0.2-0.4,0.6-0.7,0.9
				c0.3,0.1,0.6,0.4,0.9,0.4c1.5,0.2,3.1,0.6,4.6,0.4c1.3-0.2,2.5-1.3,3.8-1.5c4.9-0.8,9.8-1.5,14.7-2c4.6-0.5,8.7-2.7,13-4
				c1.3-0.4,0.6-0.8,0.1-1.3c-0.8-0.7-0.9-1.5,0.2-2.1c0.8-0.3,1.6-0.8,2.4-0.9c7.1-1.3,9.6-7.7,13.3-12.5c1.6-2,2-5.2,1.7-7.9
				c-0.6-6-1.5-12-2.4-18c-0.1-0.5-0.8-0.9-1.2-1.4c-0.3,0.5-0.9,0.9-1,1.5c-1.3,6.1-3.8,11.8-6.7,17.1c-1.8,3.3-3.2,6.8-6.4,9.4
				c-2.6,2.1-4.5,5.1-6.9,7.4c-1,1-2.6,1.6-4,2.3c-0.3,0.1-1.2-0.2-1.3-0.5c-0.2-0.4-0.1-1.2,0.2-1.4c3.4-2.9,5.9-6.7,8.7-10.1
				c5.4-6.7,10.7-17.2,12.5-27.7c0.3-1.7,1.2-3.2,1.5-4.9c0.3-1.5,0.9-3.5,0.2-4.4c-1.1-1.3-0.7-2.8-1.3-4c-2.4-4.4-2-9.4-2.9-14.2
				c-0.4-2-0.6-4-0.8-6c-0.1-0.7,0.2-1.5,0.4-2.2c1,0.6,2.3,1,2.8,1.8c0.9,1.8,1.4,3.9,2,5.9c0.8,2.7,2.5,5.2,2.2,8.1
				c2.4,3,2.5,7.1,4.6,10.3c0.9,1.2,1.4,2.8,1.7,4.3c0.2,1.7,1.4,2.9,1.7,4.3c1.2,6.2,3.5,12.1,3.6,18.5c0.1,4.3-0.6,8.5-2.5,12.5
				c-0.2,0.4-0.1,1-0.1,1.5c0.5-0.3,1-0.5,1.5-0.8c2.8-2,6-6,7.2-9c0.8-2.2,1.5-4.6,2.5-6.7c0.8-1.6,0.7-3,0.5-4.6
				c-0.3-1.8-0.5-3.6-0.7-5.5c-0.7-5.5-2.9-10.3-6.7-14.3c-1.1-1.1-0.9-2.3-1.1-3.5c-0.1-0.3,0.4-1,0.7-1.1c0.4-0.1,1,0.2,1.3,0.5
				c3.6,4.1,6.5,8.7,9.1,13.5c1.1,2,0.4,4.4,2.2,6.4c1,1,0.7,3.4,2.6,4.4c0.4,0.2,0.5,0.9,0.6,1.4c0.8,2.9,1.7,5.8,2.2,8.7
				c0.6,2.9,0.8,5.8,1.2,8.7c0.1,0.8,0.5,1.7,0.8,2.5c0.5-0.3,1.2-0.9,1.4-0.8c1,0.6,2.4,1.2,1.1,2.9c-2.6,3.2-0.5,6.5,0.1,9.7
				c3.5,1.9,2.9,5.5,2.6,8.2c-0.4,4.7-0.8,9.5-2.2,14.1c-1.4,4.6-1.4,9.6-2.9,14c-3.2,9.4-5.9,19-11.6,27.5
				c-2.5,3.7-5.4,6.8-8.7,9.4c-2.6,2-5.4,4.3-9.2,4.5c-0.5,0-0.9,0.4-1.4,0.6c0.5,0.5,1.1,0.9,1.6,1.4c0.1,0.1,0.3,0.1,0.5,0.1
				c3.5-0.1,7.3,0.5,10.6-0.5c4-1.2,8.6-1.4,12-4.7c3.2-3.1,6.4-6,6.8-10.9c0.1-1.3,1-2.5,1.3-3.8c1.1-3.9,2.2-7.8,3.1-11.8
				c0.2-1-0.3-2.2-0.3-3.2c-0.1-3.2-0.6-6.4,0-9.5c0.6-3.1,2.2-6.1,3.5-9.1c0.1-0.3,1.2-0.5,1.4-0.3c1.1,1,2.5,1,3.6,2.5
				c3.8,5.3,5.2,10.9,3.6,17.2c-0.9,3.6-2.2,6.9-4.5,9.9c-1.1,1.3-1.5,3.2-2.6,4.5c-2.3,2.7-1.3,5.3-0.1,8c1,2.2,2.5,4.2,2.6,6.8
				c0,0.9,0.4,1.7,0.6,2.6c0.6-0.6,1.2-1.1,1.7-1.7c1.5-1.5,3-3,4.5-4.4c0.2-0.2,1.4,0.4,1.5,0.8c0.6,1.8-0.3,3.6-1.2,4.9
				c-2.9,3.9-3.8,8.2-3,12.9c0.5,2.8-0.7,5.3-1.9,7.4c-1.2,2.1-2.6,4.3-5.5,5.7c-2.9,1.4-5.6,2.5-8.7,3.2
				c-8.1,1.6-15.2,1.9-23.8-0.3c-5.6-1.4-9.8-5.2-12.7-10.3c-0.1-0.2-0.1-0.9,0.1-1c0.4-0.3,1.1-0.6,1.4-0.4
				c1.8,1.1,3.6,2.4,5.4,3.6c2.9,2.1,6.5,2.4,9.8,2.8c4.7,0.6,9.6,0.9,14.4-0.4c0.8-0.2,1.8-0.7,2.1-1.3c2.6-4.7,6.1-9,7.7-14.3
				c0.5-1.8,1.3-3.6,1.4-5.4c0.1-2.1-0.3-4.2-1.8-6c-0.8-1-1.3-1-2.1-0.2c-0.4,0.4-0.7,0.8-1,1.3c-3.3,5.1-8.3,7.3-14.1,8.1
				c-4,0.6-8,1-12,1.6c-3.6,0.5-6.9-0.4-10-1.9c-3.8-1.8-7.5-3.6-11.1-5.6c-2.4-1.4-4.1-3.7-5.6-6.1c-1.9-3-4.2-5.8-6.2-8.8
				c-2.5-4-5.5-7.2-10.1-8.8c-0.4-0.1-0.5-1.2-0.7-1.9c2.4-0.7,4.4-0.1,6.5,1.4c4.5,3.2,8,7.3,10.9,12c2.1,3.4,4.9,6.4,8.3,8.8
				c1.8,1.3,3.7,1.5,5.9,1.5c6.5,0,11.9-3.1,16.6-6.9c3-2.4,5.2-6.1,7.2-9.5c4.1-7,6.1-14.8,8.8-22.4c0.1-0.3,0.2-0.5,0.2-0.8
				c-0.5,0-1.3-0.3-1.5-0.1c-3.1,3.5-7.8,5.1-10.8,8.8c-0.2,0.3-0.9,0.2-1.4,0.4c-0.1-0.6-0.5-1.4-0.3-1.8c0.7-1.3,1.6-2.4,2.4-3.6
				c0.1-0.2-0.1-0.7-0.3-1c-0.2-0.2-0.7-0.4-0.9-0.3c-5.3,2.6-11,4-16.8,4.3c-4,0.2-8,0-11.9-0.4c-1.9-0.2-2.8-1.5-4.1-2.3
				c-0.2-0.1-0.3-1.1-0.1-1.4c0.2-0.3,0.9-0.4,1.4-0.4c0.3,0,0.6,0.6,0.9,0.6c6-1.4,12.4,1.6,18.2-2c1.2-0.8,3.5-1.3,5.1,0.2
				c0.1,0.1,1.1-0.5,1.5-0.9c0.1-0.1-0.4-0.8-0.7-1.3c0-0.1-0.4,0.1-0.5,0c-3.3-3-7.1-2.7-11.1-1.9c-1.3,0.3-2.7-0.1-4.1-0.2
				c-5.5-0.6-10.9-2.2-16.5-1.5c-1.3,0.2-2.7-0.5-4.1-0.5c-1.3,0-2.9,0.9-3.8,0.4c-2.1-1.2-4.1-1.7-6.5-1.6c-0.1,0-0.4-0.6-0.4-0.9
				c0-0.3,0.1-0.7,0.4-0.9c0.3-0.2,0.7-0.1,1-0.2c1.6-0.3,3.2-0.6,4.7-1c-0.8-0.4-1.6-0.8-2.4-1.2c-0.8-0.4-1.6-0.7-2.3-1.1
				c-3.6-2.1-7.1-4.3-9.7-7.6c-1.4-1.8-2.7-3.3-5.3-2.7c-0.7,0.2-1.6-0.7-2.4-0.7c-1.7,0-2.8-0.7-2.9-2.3c0-0.3,1.8-0.6,2.7-1
				c0.5-0.3,0.9-0.8,1.3-1.2c-0.5-0.3-1-0.7-1.6-0.9c-0.5-0.1-1.1,0.1-1.6,0.2c-0.3,0-0.8,0.1-1-0.1c-0.2-0.2-0.4-0.6-0.4-0.9
				c0-0.3,0.1-0.8,0.3-0.9c0.5-0.2,1-0.3,1.6-0.3c6.8-0.3,11.4-4.4,16.2-8.6c4.8-4.2,6.6-9.6,8.6-15.1c0.5-1.5,1.4-2.8,2-4.2
				c0.2-0.3,0.1-0.8,0.1-1.2c-0.5,0.1-1.2,0.1-1.4,0.5c-2.1,2.6-4.2,5.1-6,7.9c-2.4,3.7-6.1,5.8-9,8.9c-1.1,1.2-3,1.7-4.6,2.1
				c-2.3,0.5-4.7,0.8-7.1,1c-0.8,0.1-1.8-0.1-2.4-0.6c-0.9-0.7-2.9-1.2-2-2.7c0.8-1.4,2.5-1.1,3.7,0.1c1,1.1,2.4,1.2,3.5,0.5
				c5-3.4,10.5-6.2,14-11.5c1.9-3,5.2-5.1,6.9-8.2c1.5-2.7,3.8-4.5,5.5-6.8c0.2-0.3,0.4-0.7,0.7-0.9c4.7-2.1,6.5-6.4,8.4-10.7
				c1.3-3.1,1.4-6.3,2.2-9.4c2.2-8.6,1.4-17.2,0-25.8c-0.6-3.5-4.1-7.4-7.9-8.8c-0.3-0.1-1.2,0.4-1.4,0.8c-0.3,0.8-0.3,1.7-0.2,2.6
				c0.4,3.5,0.7,7,1.4,10.4c1.6,7.8-0.7,15.2-1.5,22.8c-2.4,4.2-3.4,9-5.7,13.2c-4.8,8.9-12.3,15.1-20,21.2c-4.5,3.5-9.2,6.5-14.2,9
				c-2.6,1.3-5.3,2.5-8.4,2.8c-5.5,0.5-10.9,1.4-16.4,2.1c-0.4,0-0.9-0.3-1.2-0.7c-0.2-0.2-0.1-0.8,0.1-1c0.9-1,1.8-2.2,3-3
				c6.7-4.4,13.4-8.6,16.9-16.5c1.8-4,4.5-7.6,6.6-11.4c0.2-0.4-0.2-1.7-0.4-1.7c-0.9-0.1-2,0.1-1.8-1.2c0.1-0.4,1-0.7,1.4-1.1
				c2.4-2.3,3.4-6.6,2.5-10.6c-0.8-3.7,0.1-7.3,0.3-11c0.3-5.9,0.9-11.9-1-17.5c-1.1-3.1-1.9-6.2-2-9.3c-0.3-5.7-2.4-10.9-3.6-16.3
				c-0.5-2.1-0.9-4.5-1.9-6.5c-1.1-2.2-1.4-4.3-1.9-6.6c-0.2-0.7-1.1-1.3-1.6-2c-0.5-0.7-0.9-1.5-1.1-2.3c-0.1-0.3,0.3-0.9,0.7-1.2
				c0.2-0.2,1,0,1,0c0.2,2.3,3.2,2.5,3.5,5.1c0.2,2.4,2.1,4.6,3.2,6.8c0.2,0.4,0.8,0.8,0.9,1.2c0.7,2,0.1,4.1,1.7,6.1
				c1.1,1.4,1.1,3.9,1.9,5.9c0.9,2.1,0.7,4.7,1.1,7c1,5.6,2.2,11.3,3.3,16.9c1.1,5.4-0.3,10.8-0.4,16.2c0,1-0.4,2-0.4,3.1
				c0,1.1,0.5,2.2,0.3,3.3c-0.2,0.9-1.7,2-0.2,2.7c1.5,0.7,2.2-1,2.5-2.1c1.4-4.8,3-9.3,2.8-14.6c-0.2-4.1-0.1-8.6,1.3-12.7
				c1.2-3.7-0.1-7.4-0.2-11.1c-0.2-4.1-1.8-7.4-4.1-10.6c-2.2-3-4-6.4-6.4-9.2c-3.1-3.5-3.1-7.8-3.7-12c0-0.3,0.5-0.9,0.9-1
				c0.4-0.1,1.2,0.4,1.2,0.6c0,3.5,1.7,6.4,3.5,9.2c0.9,1.4,1.7,3,2.9,4.2c3.8,3.6,6.5,8,8.7,12.6c0.3,0.6,0.8,1.2,0.9,1.8
				c0.4,5.4,2.1,10.7,0.3,16.4c-1.2,3.7-1.3,7.9-0.8,11.8c0.7,6.2-1.2,11.6-3.8,16.9c-1.9,4-4.2,7.7-6.7,11.4
				c-2.5,3.7-4.3,8-6.6,11.9c-3,5-6.7,9.3-10.9,13.3c-0.4,0.4-1.4,0.2-2.1,0.5c-0.3,0.2-0.6,0.9-0.5,1.3c0.1,0.3,0.8,0.8,1.1,0.8
				c2.4-0.6,5-0.9,7-2.1c2.6-1.7,5.7-2.4,8.1-4.3C438.4,156.8,441.9,154.5,454.4,131.7c9.5-20.6,9.5-20.8,9.5-20.9
				c-0.3-0.6-0.6-1.1-0.8-1.7c-0.4,0.6-1.4,1.3-1.3,1.7c0.4,1.5-0.2,2.8-0.7,4.1c-1.8,5.3-3.4,10.7-5.6,15.9
				c-3.6,8.4-6.6,13.9-10.6,18.6c-0.3,0.3-0.4,1.1-0.2,1.5c0.8,1.5,0.9-0.2,1.2-0.4c1.6-1,3.2-2,4.5-3.3c2.2-2.1,4.2-4.3,6.1-6.7
				c1.7-2.1,4-4.2,1.4-7.2c-0.1-0.1,0.5-1,0.9-1.4c1.3-1.2,2-2.6,2.9-4.2C464.6,122.3,463.1,116.7,454.4,131.7"/>
			<path id="Fill-7" class="st0" d="M73.8,374.9c0.4-0.3,0.8-0.7,1.2-1.1c-0.5-0.1-1-0.3-1.5-0.1c-0.5,0.1-0.9,0.6-1.4,0.9
				C72.6,374.6,73.1,374.7,73.8,374.9 M89.4,205.9c-1.7,0.5-3.9,0.5-6.1,1.7c-2,1.1-4.7,1.5-7,2c-5.5,1.1-9.7,4.4-14,7.3
				c-5.4,3.7-9.6,9-13.3,14.4c-0.2,0.3-0.2,0.6-0.3,1c0.5-0.1,1.2,0,1.6-0.3c0.4-0.3,0.6-0.9,1-1.3c3.3-3.2,6.8-6.3,10.5-9.1
				c4.6-3.5,9.5-6.4,14.9-8.6c2.5-1,4.6-3.1,7.5-3.2c2.1,0,3.6-1.2,5.3-2.1c0.9-0.4,1.9-0.8,2.8-1.3c0.6-0.3,1.1-0.6,1.7-0.9
				c-0.7-0.1-1.4-0.2-2-0.2c-0.7,0-1.4,0.2-43.1,28.3c-0.1-0.8-0.2-1.2-0.2-1.5c-0.6,0.6-1.2,1.1-1.8,1.7c0.3,0.2,0.7,0.7,0.9,0.6
				C48.3,234.5,48.7,234.1,89.4,205.9 M64.7,373.7c0.2,0,0.3,0,0.5-0.1c-0.1-0.3-0.2-0.6-0.4-0.8c-0.1-0.1-0.4,0.2-0.6,0.3
				c0.2,0.2,0.4,0.4,3.8,0.8c-0.9-0.2-1.3-0.4-1.7-0.4c-0.3,0-0.7,0.1-1,0.1c0.3,0.3,0.6,0.9,0.9,0.9
				C66.5,374.6,66.9,374.3,64.7,373.7 M95.6,198.5c2.7-0.4,5.5-0.6,8.2-1.1c5.1-1,10.4-1.5,15.2-3.3c3.5-1.3,6.9-1.7,10.4-2.2
				c6.3-0.9,12,1.2,17.3,4.3c2.7,1.6,7.7,9.4,9.1,12.4c1.4,2.8,1.7,5.8,2.1,8.7c0,0.3-0.6,0.9-1,0.9c-0.4,0-1-0.4-1.1-0.7
				c-0.3-1-0.1-2.6-0.8-3c-3.1-2.4-3.2-6.5-5.5-9.2c-1.6-1.8-3.7-3-5.6-4.4c-3.2-2.3-6.7-3.6-10.8-2.8c-3.2,0.6-6.5,0.9-9.8,1.3
				c-0.9,0.1-1.9,0.1-2.7,0.5c-0.6,0.3-0.9,1.1-1.4,1.7c0.5,0.1,1,0.3,1.5,0.4c2.8,0.5,5.3,2.6,8.3,2.3c0.2,0,0.6,0.5,0.6,0.8
				c0,0.5-0.2,1.3-0.5,1.3c-2,0.4-4.1,1.1-6,0.7c-6.7-1.4-12.9,1-19.3,1.7c-2.7,0.3-5.3,2.3-7.7,3.8c-9.7,6.1-11.5,7.6-18.7,15.4
				c-3,3.2-6.4,6.1-9.1,9.5c-3.6,4.7-7.1,9.6-10,14.7c-1.1,1.9-2.2,3.5-4,4.6c-0.5,0.3-1.2,0.4-1.8,0.6c0-0.6-0.3-1.3-0.1-1.9
				c1.9-5,4.2-9.8,7-14.5c2.9-4.9,6.4-9.2,9.7-13.7c0.2-0.3,0-1-0.1-1.5c-0.4,0.2-0.8,0.3-1.1,0.5c-8.6,6.6-16.4,13.9-22.6,23
				c-1.2,1.7-0.1,3.1-0.2,4.7c-0.1,1-0.9,1.8-1.7,1.2c-1.4-1.1-3.3-1.8-3.2-4c0-0.3-0.4-0.5-0.6-0.8c-0.2,0.3-0.6,0.5-0.7,0.8
				c-0.5,1.6-1.4,3.3-1.3,4.9c0.2,1.9-0.8,3.5-0.5,5.2c0.3,1.8-0.3,3.5-0.3,5.2c0,4.6,1.9,8.8,3.8,13c0.4,0.8,1,1.4,1.4,2.1
				c1.1,2.2,1,2.2,2.7,0.6c0.7-0.7,1.2-2.3,2.4-1.3c1,0.8,0.7,2.1,0,3.4c-3.4,6.2-6.1,12.7-8.1,19.4c-2.6,8.5-4.7,17-6.2,25.7
				c-0.5,2.9-0.6,5.8-1.5,8.5c-0.8,2.4-0.5,4.1,1.6,5.5c2.5,1.7,3.6,4.5,5.3,6.9c2.7,3.9,5.9,7.3,9.6,10.4c6.6,5.6,6.6,5.1,11.3,6.6
				c3.2,1,6.8,1,10.1,1.5c5.1,0.8,10.2,1.1,14.7,4c2.1,1.3,4.3,1.4,6.6,1c1.3-0.2,2.5-0.4,3.8-0.5c0.3,0,0.9,0.5,1,0.9
				c0.1,0.4-0.3,1.1-0.6,1.2c-0.9,0.3-1.8,0.2-2.7,0.4c-0.6,0.2-1.2,0.5-1.8,0.8c0.3,0.6,0.7,1.2,1,1.7c0.6,0.9,1.3,1.6,1.7,2.5
				c0.2,0.4,0,1.2-0.4,1.4c-0.3,0.2-1,0-1.5-0.1c-0.2,0-0.3-0.2-0.4-0.3c-1.7-1.3-3.3-3.4-5.3-3.8c-2.4-0.5-5.1,0.1-7.6,0.8
				c-5.3,1.5-10.5-0.4-15.8-0.3c-5.1-2.6-10.7-4.4-14.1-9.7c-1.7-2.6-4.4-4.5-6.3-7c-3.2-4.2-6.8-8.1-8.5-13.3
				c-0.2-0.6-0.6-1.3-1-1.7c-0.9-0.9-1.9-1.2-2.6,0.2c-0.4,0.7-0.5,1.6-0.9,2.4c-0.1,0.2-0.6,0.5-0.9,0.4c-0.4-0.1-1.1-0.4-1.1-0.8
				c-0.5-2.9-1.6-6-1-8.7c0.7-3.3,0.1-6.5,0.6-9.8c1-7.1,1.9-14.2,4-21.1c1.6-5.1,3.5-10,5.7-14.8c0.9-1.9,2.2-3.2,3.2-4.9
				c1.7-2.8,1.6-4-0.6-6.8c-0.9-1.2-1.7-2.6-2.3-4c-2.2-5.2-4.6-10.5-4.3-16.3c0.2-4.6,0.7-9.2,1.9-13.7c1.5-5.5,3.8-10.7,6.5-15.6
				c3.8-6.8,7.8-13.7,14.5-18.2c1.4-3.1,4.8-4,7.1-6.1c2-1.9,5.1-2.7,7.7-3.9c2-0.9,4-2,6.1-2.7c2.8-0.9,5.7-1.7,8.7-2.3
				c2.9-0.6,5.8-0.8,8.7-1.2C93.8,198.7,94.7,198.6,95.6,198.5"/>
			<path id="Fill-9" class="st0" d="M329.6,572.1c-2.9,0.4-5.8,0.7-8.7,1.2c-2.9,0.5-5.3,2.7-8.1,3.1c-4.9,0.8-8.9,4.3-14.1,4.3
				c-0.2,0-0.6,0.9-0.5,1.2c0.1,0.3,0.7,0.8,1,0.8c1.6-0.1,3.7-1.1,4.8-0.5c2.5,1.4,4.9-0.7,6.8,0.2c2.7,1.3,5,0.2,7.4-0.1
				c5.7-0.5,11.3-1.5,16.9-2.1c1.9-0.2,3.9-1.3,5.7,0.3c3.2-1.2,6.3,0.3,9.5-0.1c1.8-0.2,2.2-0.9,1.7-2.5c-0.1-0.4-0.3-0.8-0.1-1.1
				c0.3-0.5,0.8-0.9,1.2-1.3c0.3,0.3,0.8,0.6,0.9,1c1.3,4.3,1.3,4.2,5.4,3.7c1.9-0.2,3.4-0.6,3.7-3c0.1-0.9,1.2-1.8,1.7-2.7
				c0.7-1.1,1.2-0.2,1.6,0.2c0.4,0.5,0.8,1.1,0.9,1.8c0.3,1.5,0.9,1.9,2.1,0.9c3.2-2.5,7.4-2.7,10.9-4.4c1.4-0.7,3.1-1.9,4.3-1.6
				c3.4,1,6.9,0.3,10.1,1.5c3.5,1.2,7.2,0.9,10.7,1c4.5,0.2,8.6-2.2,12.5-4.7c0.7-0.4,2.1-0.4,1.5-1.6c-0.4-0.8-1.5-1.5-2.4-1.7
				c-1-0.1-2.1,0.2-3,0.8c-2.3,1.3-4.5,1.3-7.1,0.9c-4.4-0.7-8.5-2.5-12.8-3.3c-2.7-0.5-5.4-1.4-8.1-0.9c-6.2,1-12.3,2.3-18.5,3.5
				c-0.5,0.1-0.9,0.5-1.3,0.7c-5.5,3-11.7,3.1-17.7,4c-2.3-2-4.9,0.5-7.2-0.5c-2.6-1.1-5,0.2-7.4,0.3
				C332.5,571.6,331.1,571.9,329.6,572.1 M368.8,608.1c0,0.1,0.1,0.2,0.1,0.3c5.2-1.2,10.5-2.3,15.7-3.6c1-0.2,1.8-1,2.7-1.4
				c7.4-3.2,13.6-8.3,18.6-14.5c2.7-3.5,5-7.4,7.7-11c0.2-0.3,0.3-0.6,0.5-0.8c-0.3-0.1-0.7-0.3-1-0.3c-1.3,0.1-3-0.1-3.7,0.6
				c-1.5,1.5-3,1.5-4.9,1.3c-1.9-0.2-3.8-0.3-5.7-0.5c-3.9-0.4-7.8-1.2-11.8-1.2c-5-0.1-9.3,2.8-14.1,4c-0.8,1.7-2.4,1.3-3.8,1.6
				c-3.9,0.9-5,2.4-4.6,6.2c0.1,0.9,0.3,1.8,0.3,2.7c0,0.2-0.5,0.6-0.8,0.6c-0.5,0-1.2-0.2-1.3-0.5c-0.4-1.8-0.6-3.6-0.9-5.4
				c-2,0.1-3.9,0.3-5.9,0.3c-0.6,0-1.2-0.7-1.9-0.8c-2.4-0.2-2.9,0.4-2.9,2.9c0,0.6-0.2,1.8-0.4,1.8c-1,0-2.1-0.1-3-0.4
				c-0.9-0.3-1.4-1.1-0.7-2.2c1.4-2.2,0.2-2-1.6-2.3c-1.9-0.3-3.8-0.6-5.7-0.2c-0.9,0.2-1.8,0.4-2.7,0.3c-6.3-0.5-6.3-0.5-12.2,1.6
				c-1,0.4-2.5,0.8-3.2,0.3c-1.5-1.1-2.8-0.5-4.2-0.4c-2.4,0.2-4.9,1.3-7,0.7c-2.4-0.7-4.9,0.7-6.7-0.4c-2.3-1.3-4.4,0.4-6.8-0.7
				c-2.5-1.1-5.9-0.3-8.9-0.2c-0.8,0-1.7,0.5-2.5,0.7c0.7,0.3,1.4,0.6,2.2,0.9c0.9,0.4,1.9,0.7,2.8,1.2c7.7,4.3,15.5,8.6,22.6,13.7
				c6.2,4.4,13.2,4.8,20,6.3c4.7,1,9.7-0.4,14.7,0.3c2.1,0.3,4.3-0.6,6.5-0.7c2.3-0.1,4.5,0.3,6.8,0.1
				C363.7,608.9,366.3,608.4,368.8,608.1 M279.6,582.1c1.5-0.1,4-1.2,6.4,0.2l7.7-3c1.8-1.1,3.6-2,5.8-2.2c1.7-0.2,3.9-0.6,4.7-1.8
				c1.5-2,4.5-0.4,5.5-2.8c2.3,0.5,4.1-1.2,5.9-2.1c2-1,4.3-0.9,6-1.8c3.3-1.9,6.9-1.9,10.4-2.3c2-0.3,4.1,0.8,6.2,0.3
				c1.9-0.5,3.7-0.2,5.7,0.1c3.4,0.5,7,0,10.6-0.1c2.3-0.1,4.6-0.5,6.5-2c1.9-1.5,4.2-1.8,6.5-1.9c3.2-0.2,5.9-2.4,9.2-2.4
				c3.1,0,6.2-0.6,9.3-1.2c3.2-0.6,6.2-0.1,9.2,1c2.2,0.9,4.4,1.7,6.7,2.4c3,0.9,5.9,1.4,9.2,1.3c3.2-0.1,7.1-1.2,10,1.8
				c2.9-1,5.2,2.3,8.1,1.2c0.3-0.1,0.9-0.2,1,0c0.7,1.1,1.4,2.3,2,3.5c-0.9-0.1-2,0.2-2.6-0.3c-1.7-1.4-3.8-1-5.1-0.2
				c-2.1,1.2-4.2,2.9-5.3,4.9c-2.1,4.1-5.2,7.6-7.2,11.7c-0.7,1.4-1.4,2.8-2.2,4.1c-3.2,5.2-8,8.9-12.7,12.6
				c-3.7,3-7.8,5.6-12.8,6.3c-1.3,0.2-2.6,0.9-3.8,1.6c-0.6,0.3-0.9,1.1-1.4,1.6c0.7,0.1,1.5,0.2,2.1,0.5c0.5,0.2,0.8,0.9,1.2,1.3
				c-0.4,0.3-0.7,0.7-1.2,0.8c-0.5,0.2-1.3,0.3-1.6,0.1c-2.1-2.4-4.6-1.4-7.1-1.1c-4.4,0.5-8.7,1.1-13.1,1.7
				c-2.2,0.3-4.5,0.3-6.6,1.8c-1.6,1.2-4.4-0.3-5.9,2c-5.4-0.3-9.3,4.4-14.6,4.2c-1.3-0.1-1.9,0.7-2.6,1.6c-0.5,0.6-1.4,1-2.2,1.2
				c-0.4,0.1-1.2-0.1-1.4-0.4c-0.2-0.4-0.1-1.1,0.2-1.4c0.8-0.9,1.7-2.1,2.7-2.3c3-0.5,5.1-3.2,7.9-3.6c3.4-0.5,5.8-3.2,9.2-3.6
				c0.2,0,0.4-0.5,0.5-0.7c-0.3-0.1-0.6-0.3-1-0.3c-2.4-0.1-4.9-0.1-7.3-0.2c-2.3-0.1-4.5,0-6.8-0.3c-2.9-0.4-5.8-0.8-8.5-1.7
				c-4.8-1.6-9.4-3.2-13.7-6.2c-5.6-4-11.5-7.8-17.4-11.5c-2.3-1.4-4.5-2.8-6.7-4.3c-2-1.4-4.3-2.5-6.3-3.9c-2-1.4-3.9-1.5-5.7,0.1
				c-2.2,1.9-4.3,4-6.6,5.9c-0.3,0.3-1.1,0.3-1.4,0c-0.3-0.2-0.6-1.1-0.4-1.4c2.3-2.7,4.4-5.8,7.2-7.9
				C273.7,582.1,276.5,582.5,279.6,582.1"/>
			<path id="Fill-11" class="st0" d="M231.5,399.8c-0.2-0.1-0.3-0.1-0.4-0.1c-0.1,0.2-0.2,0.3-0.3,0.5c0,0.1,0.2,0.1,0.4,0.1
				C231.3,400.1,231.4,399.9,231.5,399.8L231.5,399.8z M229.1,407.2c0.1-0.1,0.3-0.3,0.3-0.3c-0.2-0.1-0.6-0.4-0.7-0.3
				c-2.9,1.4-6.1,2.5-8.5,4.2c-0.9,0.7-0.9,1.1,0.1,1.5L229.1,407.2z M217.8,414.5c-0.6-0.7-1.7-1-3,0.3c-0.9,0.8-2.3,1.5-3.4,2.3
				c-0.9,0.6-1.5,0.4-2.3,0.2c-1.3-0.3-0.5-0.8,0.1-1.2c2.2-1.5,1.8-3.7,5.3-4.8c0.2-0.1,0.4-0.7,0.2-0.9c-0.5-0.5-1.1-1.1-1.9-1.2
				c-1.2-0.2-1.8,0.8-2.3,1.4c-1.3,1.4-3.7,2.5-4,4.2c0,0.1-1,0.5-1.3,0.5c-0.3,0-0.6-0.4-0.7-0.7c-0.5-1.3,1.4-2.5,2.4-3.6
				c4.2-4.7,10.7-8.2,17.8-11.5c2.9-1.3,5.8-2.4,8.8-3.4c2.9-1,5.6-2.4,8.9-2.8c3.3-2.1,7.7-1.8,11.3-3.5c1.6-0.8,4.3-1.5,6.7-1
				c0.6,0.1,1.7-0.2,2.6-0.4c3.5-0.8,6.5-0.4,9.1,0.4c3.4,1.1,6.7,2.2,9.4,3.8c1.9,1.1,4.2,1.7,6.2,2.5c0.3,0.1,0.7,0.6,0.6,0.7
				c-0.5,0.3-1.2,0.7-1.7,0.7c-1,0-2-0.1-2.7-0.4c-3.4-1.3-6.7-2.6-10-3.9c-4.2-1.7-8.9-2-14.5-0.5c-1,0.3-2,0.6-3,0.8
				c1,0.4,2.1,1.2,3.1,1c4.7-0.7,8.4,0.1,12.5,0.7c5.3,0.7,9.2,2.7,13.6,4.2c0.8,0.3,1.2,1,2,1.1c3.2,0.3,2.5,2.5,4.5,3.4
				c0.3,0.1-0.6,1.2-1.3,1.7c-0.3,0.2-1.6,0.1-2.2-0.1c-1-0.4-1.9-1.4-2.7-1.2c-0.1,0-0.3,0-0.5,0c-14.1-3.3-32-0.9-47.8,4.5
				L217.8,414.5z M216.3,407.2c3.1-1.1,5.9-2.5,9.4-5.2c0.8-0.7,0-0.4-0.6,0c-0.3,0.2-0.4,0.6-0.6,0.9c0.4-0.1,0.7-0.1,1.1-0.2
				c0.8-0.3,1.6-0.6,2.3-0.9c0.3-0.2,0.3-0.5,0.5-0.8c-0.3,0-0.7,0-2.6,1C221,403.8,218.4,405.2,216.3,407.2L216.3,407.2z"/>
			<path id="Fill-13" class="st0" d="M442.3,377.4c0-0.2,0-0.4-0.1-0.5c-4.8-4.5-10.3-7.7-16.6-9.6c-0.3-0.1-0.6,0.2-0.9,0.3
				c0.2,0.4,0.4,0.9,0.7,1c3.9,1.6,7.5,3.7,10.8,6.3c1.6,1.3,3.6,2.2,5.4,3.2c0.2,0.1,0.5-0.1,0.7-0.2
				C442.4,377.9,442.3,377.6,442.3,377.4 M388.9,384.9c0,5.7,5.1,7.5,8.7,10.5c0.3,0.2,1.1-0.1,1.6-0.2c0.3-0.1,0.6-0.3,0.9-0.5
				c-0.2-0.2-0.4-0.5-0.6-0.6c-0.9-0.5-2.5-0.7-2.7-1.3c-0.3-1,0.3-2.3,0.6-3.4c0.1-0.3,0.6-0.6,0.6-0.9c-0.1-1.6,0.1-3.3-0.5-4.7
				c-0.4-1-1.8-1.7-3.3-1.3c-0.3,0.1-1.2-0.7-1.2-1.1c-0.2-1.2-0.3-2.1-2-1.8c-1.5,0.3-2.2,1.2-2.4,2.4
				C388.4,382.9,388.7,383.8,388.9,384.9 M417.7,382c-0.8-2.1-1.4-4.3-2.3-6.4c-1.3-3-6.3-4.3-8.7-2.4c-0.1,0.1,0.1,0.8,0.4,1.1
				c1.3,1.1,2.6,2,3.9,3c0.5,0.4,1.4,0.9,1.4,1.5c0.6,4.2,1.9,8.5-1.7,12.2c-0.7,0.7-1.7,2.4-1.6,2.4c1.3,1.1,1.7-0.5,2.5-1
				c0.4-0.3,1.1-0.3,1.6-0.2c2.8,0.6,3.1-1.7,3.9-3.3C418.2,386.7,417.8,384.4,417.7,382 M387.9,397.8c0.9-0.1,1.3-0.1,1.6-0.2
				c0.7-0.2,1.3-0.4,1.9-0.7c-0.5-0.5-1.1-0.8-1.4-1.4c-2.1-3.2-5.7-5.8-3.4-10.5c0.5-0.9-0.6-1.7-1.6-1.2c-1.3,0.7-2.7,1.6-3.7,2.7
				c-2.3,2.5-4.4,5.2-6.5,7.9c-0.7,0.9,0.2,2.7,1.3,2.8C380.2,397.4,384.3,397.6,387.9,397.8 M421.4,389.9c1.8-0.7,2.5-1.3,3.3-1.4
				c2.6-0.1,4.5-1.8,6.7-2.7c2.3-1,4.7-1.7,6.9-3.4c1.4-1.1,1.4-1.3,0.1-1.8c-5.2-2.1-10.1-5-15.6-6.4c-0.9-0.2-1.9-1.7-2.7-0.4
				c-0.4,0.6,0.2,1.9,0.5,2.9c0.2,0.6,0.7,1.2,0.8,1.9c0.5,2.8,0.9,5.5-0.6,8.2C420.1,388.1,421.4,389.9,421.4,389.9 M417,397.5
				c-22.1,7.1-25,7.5-27.9,7.9c-1.5,0.2-2.8,0.4-4-0.8c-1.6-1.6-3.5,0-5.2-0.2c-0.6-0.1-1.2-0.4-1.8-0.5c0.3-0.5,0.5-1.3,0.9-1.5
				c0.9-0.4,1.2-0.7,0.3-1.3c-0.7-0.4-1.6-0.8-2.4-0.7c-1.3,0.1-2.4,0-3.5-0.9c-0.6-0.5-1.6-0.5-2.4-0.6c-0.8-0.2-2.1,0-2.4-0.4
				c-0.9-1.6,1.2-1.3,1.6-2c0.6-1,1.1-2.1,1.5-3.3c2.5-7.1,7-12.5,12.8-17.2c4.2-3.4,9-5.5,13.6-8c2.9-1.5,6.4-1.9,9.6-2.8
				c0.3-0.1,0.5-0.4,0.8-0.7c-0.3-0.1-0.6-0.4-0.9-0.4c-4.7,0.6-9.8,0.4-14.1,2.1c-4.5,1.7-8.9,4.3-12.6,7.6
				c-3.5,3.2-7.1,6.2-10.5,9.4c-4.7,4.3-6.7,9.5-8.5,15.2c-0.6,1.8-1.3,3.5-2,5.3c-0.1,0.2-0.8,0.4-1,0.2c-0.4-0.3-0.9-0.8-0.8-1.1
				c1.5-7.8,2.5-15.9,8.6-21.9c3.3-3.3,6.8-6.4,10.5-9.3c3.7-2.9,7.7-5.6,11.7-8.2c2.9-1.9,6.5-3.4,9.7-3.4c7.4,0,14.8-0.6,22.1,1.9
				c5.2,1.7,10.4,3.3,15.3,5.9c2.9,1.5,5.6,2.8,7.3,5.7c0.4,0.7,1.4,1.1,2.1,1.7c1.9,1.6,2.1,3.6,0.8,5.6c-1.5,2.3-3.7,3.6-5.9,5.1
				c-0.4,0.3-0.7,0.9-1,1.3c0.6,0.1,1.1,0.3,1.7,0.3c0.5,0,1.1-0.2,1.6-0.2c0.8,0,1.9-0.8,2.3,0.6c0.4,1.8-1.2,1.3-2.1,1.6
				c-0.8,0.3-1.6,0.7-2.3,1.2c-0.4,0.3-0.7,1.2-1,1.2c-4.3-0.2-7,4.1-11.3,4c-1.6,0-3.1,0.5-4.3,1.6c-2.3,2.1-5.4,2.4-8.1,3.1
				c-2.9,0.8-5.7,1.9-8.6,2.5C404,403.5,400.9,403.8,417,397.5c20.1-7.5,21.1-8.1,22-8.8c0.1-0.1,0.3-0.4,0.3-0.4
				c-0.2-0.2-0.4-0.5-0.6-0.5c-1.1,0.1-2.2,0.1-3.2,0.5c-0.6,0.2-0.9,1.1-1.4,1.7C434.7,390.1,435.2,390.4,417,397.5"/>
			<path id="Fill-15" class="st0" d="M284.2,359.6c-0.1-0.2-0.2-0.5-0.4-0.7c-0.1,0.1-0.4,0.3-0.4,0.4c0.1,0.3,0.2,0.5,0.3,0.8
				C283.9,359.9,284.1,359.8,284.2,359.6 M254.8,358.6c0.1,0.2,0.3,0.3,0.4,0.4c0.1-0.2,0.3-0.5,0.4-0.7c0-0.1-0.2-0.2-0.3-0.4
				C255.1,358.1,255,358.4,254.8,358.6 M242.8,356.4c-0.6-0.7-1.2-1.5-1.8-2.2c-0.5,0.5-1,0.9-1.5,1.4c0.8,0.6,1.7,1.3,2.5,1.9
				C242.2,357.2,242.4,356.9,242.8,356.4 M224.3,365.9c-1.2-1.1-1.8-1.8-2.5-2.4c-0.5,0.7-1.4,1.3-1.5,2c-0.3,1.4,1,1.2,1.8,1.1
				C222.6,366.6,223.1,366.3,224.3,365.9 M272.5,362.9c1.1,0,2.2,0.2,3.3,0.1c0.3,0,0.7-0.6,0.9-1c0.3-0.9-0.1-1.2-1-1.1
				c-3.5,0.4-6.3-0.7-8.3-3.7c-0.3-0.4-0.7-0.9-1.2-1c-0.4-0.1-1,0.2-1.4,0.5c-0.2,0.1-0.1,1-0.1,1c2.1,0.5,1.9,2.4,2.5,3.8
				c0.3,0.6,1.3,1.2,2.1,1.3c1,0.3,2.2,0.1,9.1-7.3c-2.4-0.1-3.2,0.8-2.6,2.6c0.2,0.6,1,1.2,1,1.7c-0.3,1.7,1.1,1.2,1.6,1.1
				c0.6-0.2,1-1,1.6-1.4c0.7-0.4,1.5-0.7,2.3-1.1c-0.7-0.8-1.2-1.7-2-2.3C279.4,355.6,278.5,355.5,272.5,362.9 M290.6,368.6
				c-0.2-0.2-0.3-0.4-0.5-0.7c-0.2,0.2-0.3,0.3-0.5,0.5c0.2,0.2,0.4,0.4,0.6,0.5c0,0,0.2-0.2-2.4-0.7c0.8-0.3,1.4-0.4,1.8-0.8
				c0.4-0.5-1.1-2.9-1.4-2.6c-0.7,0.7-1.2,1.5-1.6,2.4C286.5,367.2,287.3,367.8,290.6,368.6 M238.6,351.1c0-3.8,3.3-2.9,5.2-2.2
				c2.7,1,6,0.6,8.1,3.1c0.3,0.3,1,0.2,1.4,0.3c-0.2-0.5-0.6-1.1-0.5-1.6c0.1-0.6,0.5-1.5,0.9-1.6c2.5-0.1,4.9,0.1,7.3-0.8
				c1.2-0.4,2.9,0.6,4.4,1.1c0.7,0.2,0.7,1.4,2,0.4c2.8-2.1,5.5-2,8.5,0.6c1.7,1.6,3.6,2.4,5.2,1.2c2.4-1.8,3.9,0.1,5.2,0.9
				c2.3,1.3,4.2,3.3,6,5.2c4.3,4.3,4.2,4.3,3.9,10.5c-0.1,1.7-0.5,2.3-2.2,2c-1.3-0.2-1.7,1-1.1,1.7c2.2,2.3,0,2.5-1.3,3
				c-4.3,1.7-8.6-1.2-8.7-5.9c0-0.9-0.3-1.7-0.4-2.5c-1.6,0.4-2.7-0.7-3.9-1.2c-0.2-0.1-0.8,0.2-0.9,0.4c-0.5,1.8-1,3.6-3.2,4
				c0.2,0.3,0.4,0.9,0.5,0.9c2.7-0.7,3.6,1.3,4.5,3.2c0.3,0.5,0.7,1.4,1,1.4c2.9,0,4.7,3.3,7.8,2.7c0.5-0.1,1.8,1.4,1.8,2.2
				c0,0.7-1.2,1.8-2,2c-2.7,0.6-5.3-0.6-7.5-1.8c-2-1.2-5.4-1.2-5.7-4.6c0-0.2-0.9-0.6-1.4-0.5c-3.9,0.1-6.7-2.5-8-5.3
				c-1.2-2.6-2.3-1.7-3.5-1.1c-3.5,1.9-5.6,1.9-9.4,0.2c-3.7-1.7-7.5-2.2-11.1-0.2c-3.3,1.8-6.2,2.8-9.9,0.8c-1-0.6-3.1,0.1-4.4,0.8
				c-2.6,1.5-5,1.1-7.5,0c-0.7-0.3-2-0.6-2.5-0.2c-3,2.4-6.4,1.8-9.7,1.6c-1.4-0.1-1.9,0.3-1.9,1.8c0,1-0.3,2.3-1,2.8
				c-1.4,1.2-3.2,2.1-4.9,2.8c-0.6,0.2-1.6-0.5-2.3-0.9c-0.2-0.1-0.4-1-0.3-1.1c1.7-1.2,1.9-2.2,0.2-3.6c-0.3-0.3-0.4-1.5-0.1-1.8
				c1-0.9,2.2-1.7,3.4-2.4c0.6-0.3,1.8-0.3,1.9-0.6c0.4-1.9,4.2-0.7,3.2-2.8c-1.2-2.6-2.8,0.5-4.2,0.8c-2,0.3-2.5,0.4-2.1-1.9
				c0.1-0.8,0.4-1.7,0.9-2.4c1.3-1.7,4.1-0.9,5.2-3.6c0.8-2,4.2-1.6,5.8-2.8c2.1-1.5,2.8,1,4.3,0.6c0.1,0.6,0.4,1.7,0.3,1.8
				c-2.8,1.1-0.8,3.2-1,4.8c-0.1,0.7-0.1,1.5-0.1,2.4c0,0.1,0-0.1,0-0.2c-0.3,0.1-0.6,0.1-0.8,0.3c-0.1,0,0.1,0.4,0.2,0.7
				c0.2-0.2,0.4-0.3,0.7-0.7c0.7-0.3,1.4-0.3,2-0.6c2.7-1.2,3-1.4,1.8-4c-0.9-1.9,0.5-2.2,1.2-3c1.1-1.3,2,1.7,2.8,0.3
				c0.3-0.6-0.6-1.8-0.9-2.8c-0.1-0.2,0.3-0.7,0.5-0.8c0.3-0.1,0.7,0,1.1-0.1c1.2-0.1,2.5-0.1,3.7-0.2c-0.2-1.1-0.6-2.2-0.7-3.3
				c-0.1-0.8-0.4-2,1.1-1.9c2.7,0.1,5.5,0.1,8.2,0.3C236.2,349.6,236.7,350.3,238.6,351.1c0.5,0,0.1-0.2-0.3-0.3
				c-0.3-0.1-0.7,0-1-0.1c0.2,0.4,0.4,1,0.7,1.1C238.4,351.9,238.9,351.6,238.6,351.1"/>
			<path id="Fill-17" class="st0" d="M523.7,326.6c-3.6,1.4-8.1,0-12.6-0.6c-1-0.1-2.1-0.3-2.9-0.8c-5.4-3.5-10-7.8-12.3-14
				c-0.9-2.6-1.6-5.3-3.1-7.6c-1.1-1.8,0-3.6,0.8-4.9c1.1-2.1,2.3-3.7-0.1-5.5c-2.6-8-8.1-13.9-14.1-19.5c-0.3-0.2-0.6-0.4-0.8-0.7
				c-0.1-0.3-0.2-0.8,0-1c0.1-0.3,0.6-0.6,0.8-0.6c2.4,0.9,5.2,1,7.1,2.9c4.3,4.2,8.6,8.6,11.6,13.9c1.7,2.9,3,6.1,4.7,9
				c0.6,1.1,1,2.2,2.1,2.9c1,0.7,2.1,1.5,3,2.4c4,4,9.3,5.4,14.4,7.1c0.6,0.2,1.4,0.3,2,0.3c1.9-0.1,3.8-0.1,5.7,0.2
				c2.2,0.3,5-0.7,7-1.9c4.6-2.8,8.2-6.6,10.1-11.8c0.1-0.4-0.3-0.9-0.5-1.4c-0.2,0.2-0.5,0.3-0.7,0.5c-2.9,1.9-6,3.6-9.4,3.9
				c-3.5,0.3-7,2.2-10.6,0.4c-3.5,1.1-6.3-1.4-9.5-2.1c-2.8-0.6-3.9-2.8-5.2-4.8c-0.3-0.5-0.3-1.8,0-2c0.7-0.4,1.7-0.5,2.5-0.5
				c0.5,0,0.8,0.7,1.3,0.9c3.2,1.5,6.4,2.1,10,2c5.9-0.1,5.9,0.5,9.6-1.2c2.1-1,4.4-0.8,6.6-1.8c4.7-2.1,8.2-4.7,9.4-9.9
				c0.1-0.6,1.1-1.1,1.7-1.6c0.5,0.7,1.4,1.3,1.6,2c0.4,2.2,1.1,4.6-0.2,6.8c-0.7,1.2-0.5,2.3-0.7,3.5c-1,5.2-1.5,10.6-5.3,15
				c-3.2,3.8-6.2,7.4-11.1,9.4c-3,1.2-6,1.8-8.9,1.7c-5.3-0.1-10.5-0.7-15.5-3.2c-3.6-1.8-6.6-4.3-9.8-6.6c-0.4-0.3-1.1-0.4-1.6-0.6
				c0,0.7-0.2,1.8,0.2,2.1c1.9,1.2,2.2,3.6,3.6,5c4.6,4.6,8.6,6,15.5,6.8c1.7,0.2,3.4,0.5,5.2,0.4c1.5-0.1,3.1,0.3,4.6,0.4
				c1.7,0.2,3.4,0.2,5.1,0.5c0.4,0.1,0.9,0.6,1,0.9c0.1,0.4-0.3,1-0.7,1.2C532.2,325.9,528.4,325.9,523.7,326.6"/>
			<path id="Fill-19" class="st0" d="M171.1,199.6c0.1,0.8,0.3,1.3,0.2,1.6c-0.6,1.3,2.1,3.7-0.8,4c-1.7,0.2-0.8-2.4-1.4-3.5
				c-1-1.8-1.9-3.6-3-5.3c-4.4-6.7-7.8-8.2-16.5-10.5c-5.6-1.5-11.3-2.6-17-3.5c-3.1-0.5-6.2-0.5-9.3-0.8c-1.7-0.1-3.4,1-5.3-0.2
				c-0.5-0.3-2,1.2-3.1,1.2c-6.6,0-11.6,4.5-17.6,6.3c-2.8,0.8-5.5,2-8.3,2.9c-3.8,1.2-7.7,1.4-11.4,2.6c-5.9,1.8-11.2,4.9-16.5,8.1
				c-5.4,3.3-9.2,8.3-14.5,11.5c-0.4,0.3-1,0.4-1.5,0.6c0.1-0.5,0.1-1,0.2-1.5c1.4-4,4.1-7.1,7.1-9.9c4-3.7,8.4-6.9,13-10
				c2.8-1.9,5.8-3,8.9-4c7.8-2.5,15.6-4.9,23.2-7.6c1.4-0.5,2.4-2,3.8-2.6c6.2-2.7,12.8-4.9,19.5-4.7c4.4,0.1,8.9,0.4,13.3,1.4
				c4.1,1,8.3,1.7,12.4,2.9c5,1.4,10,2.8,14.2,5.9c3-0.6,3.2,2.5,4.6,3.8C168.9,191.2,171.3,195.1,171.1,199.6"/>
			<path id="Fill-21" class="st0" d="M292.8,119.4c0.5,4.2,0.9,8.2-0.2,12.6c-1.3,4.8-4.3,7.2-8.1,9.4c-1.3,0.8-3,0.9-4.3,1.8
				c-3.6,2.3-7.2,4.6-10.3,7.7c-5.6,5.7-11.4,11.2-16.3,17.5c-0.3,0.4-1.2,0.5-1.8,0.5c-0.2,0-0.6-1-0.5-1.4
				c0.4-1.5,0.6-3.1,1.5-4.3c5.3-7.3,10.9-14.3,17.6-20.4c2.9-2.7,6-4.9,9.8-6.4c2.1-0.8,4.4-2.3,5.3-5.2c1.6-5.3,1.4-10.3-0.6-15.4
				c-1.2-2.9-2-6-2.6-9c-0.5-2.6-1.8-4.8-3-7.1c-3-6.1-7.6-11-12.1-15.9c-3.4-3.8-5.5-8.3-7.4-12.8c-0.9-2.2-2.3-4.3-2.2-7
				c0.1-3.2,0.2-6.3,2.5-8.8c1-1.1,1.7-2.4,2.7-3.4c0.4-0.4,1.2-0.4,1.8-0.5c0,0.6,0.2,1.3,0,1.9c-0.3,1-0.6,2-1.2,2.8
				c-2.2,3.5-1.7,6.5-0.1,10.3c2.8,6.5,6.8,11.8,11.7,16.8c4.9,5,9.5,10.4,12.2,17c1,2.5,2.5,4.9,2.9,7.7c0.3,2,1.3,3.9,1.8,6
				C292.4,115.4,292.6,117.4,292.8,119.4"/>
			<path id="Fill-23" class="st0" d="M224.7,132.5c0.1,4.4,0,7.7,0.2,11.1c0.1,1.7-0.3,3.6,1.6,5c0.4,0.3,0,2-0.3,2.9
				c-1.9,7.3-4.3,14.4-8.1,21c-2,3.4-2,7.7-4.5,10.9c-0.1,0.1-0.1,0.4-0.1,0.5c1.9,2.7-2.6,3.9-1.4,6.4c0,0.1-0.8,0.7-1.2,0.7
				c-0.3,0-1-0.6-1-0.9c0.1-2.4,0.9-4.9,0.2-7.3c2.3-3.8,1.3-8.4,3.4-12.3c2-3.8,3.2-8,5.3-11.7c2-3.5,2.1-7.3,2.1-11
				c0-3.5-1.3-7-0.4-10.6c0.4-1.5-0.7-3.4-1.2-5.1c-0.2-0.7-0.6-1.3-0.7-1.9c-0.8-7.2-4.2-12.9-8.9-18.4c-2.9-3.4-5.5-7.4-8.2-11.1
				c-3.9-5.2-7.5-10.9-13.4-13.9c-4.1-2.1-7.3-5.5-11.7-7.4c-3-1.3-4.9-4.4-6.9-7c-0.6-0.7-1.5-1.3-0.6-2.1c0.3-0.3,1.6,0.2,2.2,0.6
				c0.8,0.6,1.2,1.7,2,2.2c3.5,2.5,7,5.1,10.7,7.1c10.3,5.5,14,8.4,20.1,16.5c3.8,5.1,8.2,9.7,11.6,15c3,4.5,6.4,8.9,7.1,14.7
				C223,128.8,224.2,131,224.7,132.5"/>
			<path id="Fill-25" class="st0" d="M506.3,466.5c-1.1-5.7,0.2-10.4,3.9-14.5c2.5-2.8,4.2-6,5.5-9.6c0.7-1.9,0.7-3.3-0.6-4.9
				c-1.3-1.7-2.4-3.5-2.3-5.7c0.1-1.3-0.3-2.5-1.6-3.2c-1.7-0.8-1.2-2.5-1.4-3.8c0-0.3,0.6-0.7,1-0.9c0.2-0.1,0.9,0.1,0.9,0.3
				c0.3,2.2,0.8,4.3,3.1,5.3c-0.7,2.6,2,3.2,2.9,4.8c2.5,4,2.5,10.4-0.3,14.9c-1.8,2.8-3.8,5.6-5.5,8.5c-1.8,3.2-1.8,6.7-0.7,10.2
				c0.1,0.2,1.2,0.4,1.4,0.2c1.1-1.2,2.3-2.4,3-3.9c3.4-6.7,6.7-13.6,7.3-21.2c0.4-4.9,1.7-10-1.4-14.9c-1.7-2.7-1.7-6.4-2.6-9.7
				c-0.4-1.5-1.3-2.8-1.6-4.3c-0.9-3.6-0.6-10.6,1.2-16c1-2.9,1.6-6,3.4-8.5c0.3-0.4,1-0.7,1.3-0.6c1.3,0.4,0.1,0.9,0,1.4
				c-0.4,1.7,0.7,3.4-0.8,5.1c-1,1.1-1.1,3.3-1,4.9c0.4,4.6-2,9.3,1.2,13.8c1.4,2,0.6,5,2,7.6c1.7,3,2,6.7,2.6,10.2
				c1.9,11.1-0.8,21.3-5.9,31c-1.9,3.6-3.7,7.2-7.3,9.6c-1,0.7-1.4,0.9-2.7,0.5C507.8,472.1,506,470,506.3,466.5"/>
			<path id="Fill-27" class="st0" d="M136.3,490.9c1.3,7.4-1,14.5-1.8,21.7c-0.1,0.6-0.7,1.3-1.2,1.8c-0.7,0.7-0.6,1.1,0.2,1.6
				c1.1,0.7,2.1,1.4,3,2.4c0.5,0.5,0.7,1.4,1,2.1c-0.8,0.2-1.8,0.7-2.5,0.5c-3.2-1.2-5.9-5.4-4.7-8.7c1.7-4.8,0.5-9.9,2.2-14.7
				c-1-3.6-0.3-7.4-2.3-11c-1.1-1.9-1.4-4.7-2.8-6.6c-1.4-1.9-0.1-4.7-2.4-6.3c-0.6-0.4-0.3-2.1-0.5-3.2c-1.3-6.7-4.1-12.9-5.9-19.5
				c-0.1-0.3-0.3-0.7-0.5-0.9c-2.9-2.3-5.6-4.8-8.8-6.6c-2.5-1.4-5.5-1.8-8.3-2.4c-0.8-0.2-1.8,0.2-2.7,0.3
				c-3.4,0.5-4.9,2.2-4.7,5.7c0.2,2.5,0.6,4.8,0,7.4c-0.6,2.2,0.8,4.4,2.4,6.1c0.7,0.8,1.1,1.6,0.1,2.2c-1,0.6-1.2-0.6-1.8-1.1
				c-1.7-1.5-2.9-3.1-2.8-5.5c0-1.3-1.1-2.2-1.4-3.3c-1.3-4-0.5-8,1.2-11.7c0.6-1.4,1.8-3.2,3.1-3.6c2.4-0.8,5.1-1.2,7.5-0.8
				c5,0.8,9.9,2.6,14.4,5.1c3.9,2.2,6.3,6,7.9,10.1c1.8,4.7,3.1,9.6,4.4,14.5c0.9,3.3,1,6.9,2.4,9.7c1.4,2.7,2.4,5.6,3.8,8.4
				C135.8,486.5,135.9,488.8,136.3,490.9"/>
			<path id="Fill-29" class="st0" d="M399.3,66.7c-0.1,3.7,0,7.2-0.4,10.6c-0.3,3.2-0.5,6.6-1.7,9.5c-0.8,1.9-1.6,3.8-2,5.8
				c-0.5,2.7-1.1,5.5-0.5,8.3c0.6,2.7,0.9,5.4,1.1,8.2c0.2,2.6,0.2,5.3-0.1,7.9c-1.1,8.6-2.2,17.2-6.2,25.2
				c-3.4,6.7-8.9,11.2-14.3,15.9c-1.2,1-2.3,2.3-3.6,2.8c-2.1,0.7-4.7,0.2-6.5,2.1c-1.7-1.5-4.1,0.4-5.7-1.3
				c0.9-2.6,3.4-1.8,4.9-1.8c3.8,0.1,6.3-2.4,8.7-4.3c5.1-4,9.2-9.4,12.4-14.9c2.4-4.2,3.8-9.1,4.7-13.9c0.7-3.8,1.3-7.8,1-11.9
				c-0.1-2.2-0.7-4.1-1-6.2c-0.2-1.9,0.3-3.8,0.3-5.7c-0.1-2-0.7-4-0.6-6c0.1-1.8,0.9-3.6,1.4-5.4c0.5-1.8,0.8-3.7,1.6-5.4
				c1.4-2.9,1.7-6,1.9-8.9c0.5-5.3,0.8-10.9-1-16c-1.1-3.3-1.7-6.5-2.3-9.8c-0.1-0.8-0.7-1.8-1.3-2.1c-1.6-0.9-1.5-2.4-1.6-3.8
				c0-0.4,0.4-1,0.7-1.1c0.4-0.1,1.2,0.1,1.3,0.4c1.1,2.5,3.6,4.4,3.3,7.5c-0.1,0.8,0.5,1.7,0.9,2.4c0.6,1,1.6,1.9,1.9,3
				C397.8,60.6,398.6,63.7,399.3,66.7"/>
			<path id="Fill-31" class="st0" d="M85.9,275.5c-12,1.1-22.2-0.2-32.1-3.8c-0.5-0.2-0.8-0.9-1.2-1.4c0.4-0.3,0.8-0.8,1.2-0.8
				c3.9-0.1,7.8-0.5,11.6-0.2c5.7,0.5,17.2,0.4,21.2-0.9c2.9-1,5.8-2.1,8.3-3.8c2.6-1.7,4.7-4.2,6.9-6.3c4.8-4.5,9.6-9.1,14.4-13.7
				c3.9-1,6.3-4.7,10.6-5c2.5-0.2,4.4,0,5.1,2c0.2,0.5,0.3,1.4,0,1.5c-0.5,0.3-1.3,0.5-1.8,0.3c-1.5-0.7-2.5-0.6-3.8,0.6
				c-2.9,2.7-6.2,5-8.9,7.9c-4.2,4.5-8.9,8.7-12.7,13.7c-1.6,2.2-3.9,4-6.2,5.4c-1.1,0.6-2.4,1.4-3.7,1.7
				C91.6,273.8,88.3,276,85.9,275.5"/>
			<path id="Fill-33" class="st0" d="M81.9,259.4c-2.6,0.1-5,0.1-7.3,0.2c-0.1-2.9,2.5-4.3,3.8-6.3c5.2-7.9,12.5-13.7,20.3-18.7
				c6.7-4.4,14-7.9,22.2-8.2c2.8-0.1,6-0.5,8.5,1.7c0.3,0.2,0.7,0.4,0.8,0.7c0.2,0.4,0.4,1.1,0.2,1.4c-0.2,0.4-1,0.7-1.4,0.6
				c-3.2-1.1-6.4-0.2-9.5,0.2c-5.1,0.7-9.5,3.1-14,5.2c-7.6,3.7-13.7,9.5-20.2,14.8c-1.1,0.9-1.9,2.2-2.8,3.3
				c-0.3,0.3-0.4,0.8-0.5,1.2c0.5,0,1.1,0.2,1.5,0c1.8-0.9,3.5-2.1,5.4-2.8c9.7-3.5,13.5-5.9,20.6-13.2c2.8-2.8,5.9-5.2,9.4-7.1
				c0.4-0.3,0.9-0.5,1.4-0.5c0.5-0.1,1.2,0,1.5,0.2c0.3,0.3,0.3,1.1,0.1,1.4c-0.6,0.9-1.1,2.1-2,2.6c-4.5,2.6-7.5,6.8-11,10.4
				c-2.7,2.8-6.2,4.8-9.5,6.9c-2,1.3-4.2,2.3-6.4,3.1C89.3,257.7,85.5,258.5,81.9,259.4"/>
			<path id="Fill-35" class="st0" d="M48.8,351.2c-0.1-1.4-0.2-2.1-0.1-2.8c0-0.2,0.5-0.5,0.8-0.5c0.3-0.1,0.9,0.1,1,0.2
				c1.5,5,5.7,6.3,9.9,7.6c1.6,0.5,3.3,0.8,5,0.9c5.9,0.4,11.8,0.3,17.6-0.9c0.3-0.1,0.5-0.4,0.8-0.6c-0.3-0.2-0.5-0.5-0.9-0.7
				c-4.5-1.5-9-3-13.8-3.6c-4.2-0.5-8.6-0.8-12.6-2.1c-4.1-1.3-8.5-2.4-11.6-5.8c-0.7-0.8-1.3-1.6-1.9-2.4c-1.4-1.9-2.7-3.9-4.1-5.8
				c1.4-2.2,0.3-4.5,0.3-6.8c0-0.3,0.6-0.9,1-0.9c0.4,0,1,0.4,1.1,0.7c0.8,1.9,0.6,4,1.7,6.1c2.6,4.8,6.9,6.9,11.3,9
				c3.8,1.9,8.2,2.3,12.4,2.8c7.4,1,14.7,2.3,20.7,7.3c2.4,2,4.6,2.2,7.4,0.9c1.4-0.7,3-0.9,4.5-1.3c0.3-0.1,0.9,0.5,1,0.9
				c0.1,0.4-0.2,1-0.6,1.2c-1,0.7-2.1,1.2-3.1,1.8c-2.2,1.3-5.2,1.9-4.3,5.5c0,0.1-0.6,0.5-0.9,0.4c-0.4-0.1-1.1-0.5-1.1-0.7
				c0-2-0.7-2.5-2.7-2.1c-3.8,0.7-7.6,1.3-11.5,1.5c-6.2,0.3-12.7,0.6-20.3-2.7C52.1,356.6,49.8,354.4,48.8,351.2"/>
			<path id="Fill-37" class="st0" d="M465.3,551.4c-0.6,5.1-0.3,10.9-1.9,16.8c-2.1,7.8-4.8,15.2-7.6,22.7
				c-2.5,6.7-5.4,13.4-8.7,19.7c-1.7,3.2-4.2,6-5.3,9.7c-0.1,0.3-0.9,0.5-1.4,0.5c-0.2,0-0.6-0.6-0.7-1c-0.3-1.6,0.1-2.9,0.8-4.5
				c4.1-8.5,8-17.1,11.3-25.9c1.7-4.5,3.5-8.9,5-13.4c1.6-4.8,2.7-9.8,3.7-14.8c0.2-1-0.1-2.1-0.1-3.2c-0.1-2.1-1.2-4.2,0.2-6.3
				c0.3-0.5,0.1-1.5-0.3-2.1c-2-3.4-1.8-7.5-3.7-10.8c-2.1-3.9-4.8-7.5-7.9-10.7c-1.3-1.4-2.7-2.7-3.9-4.2c-0.2-0.2,0.1-1,0.3-1.4
				c0.1-0.2,0.8-0.3,1-0.2c4.8,3.6,9.5,7,12.5,12.7c2.1,3.9,3.3,8.2,5.6,12C465.1,548,465,549.5,465.3,551.4"/>
			<path id="Fill-39" class="st0" d="M148.7,333.6c0,5.5,3.3,10.3,3.2,15.8c0,2.3,1.2,4.3,0,6.9c-0.9,1.9,1.4,4.5-0.4,6.7
				c0.7,4.6-0.1,8.9-1.5,13.3c1,2.3-1.6,3.5-1.5,5.4c0.1,2.2-1.1,3.9-1.6,5.9c-0.5,1.8-1.7,3.4-2.5,5.1c-0.4,0.8-0.5,1.7-0.9,2.4
				c-0.6,0.9-1.8,1.1-2,0.1c-0.2-1-2.3-1.7-0.4-3.5c2.2-2.2,5.6-12.6,5.5-15.8c-0.1-2.5,0.6-4.7,1.3-7c0.6-2.1-1.4-4.5,0.2-6.8
				c0.5-0.7-0.2-2.1-0.3-3.2c-1.1-8.5-2.2-17.1-3.4-25.6c-0.4-2.8-1.6-5.4-2.1-8.1c-0.6-2.9-0.2-6.1-1.3-8.7
				c-1.3-2.9-1.7-5.8-2.1-8.7c-0.2-1.4-0.6-2.4-1.8-3.1c-0.5-0.3-1-1.1-1.1-1.7c-0.1-0.6,0.2-1.3,0.5-1.8c0.1-0.1,1.1,0,1.4,0.3
				c1,1.2,2.7,2.5,2.6,3.7c-0.1,4,3,6.6,4,10.1c0.2,0.6,1,1.1,1,1.7C145.5,322.6,149,327.7,148.7,333.6"/>
			<path id="Fill-41" class="st0" d="M257.4,120.7c1,5.1-0.5,10.4,0.9,15.5c0.1,0.2-0.6,0.9-1,0.9c-0.4,0-1.1-0.4-1.1-0.7
				c0-5.5-3.1-10.3-3.2-15.8c-0.1-4.6-2.2-8.5-4.4-12.2c-4.2-7.1-9.5-13.3-16.1-18.4c-1.8-1.4-3.3-3.1-5-4.8
				c-1.5-1.5-3.1-2.9-4.7-4.3c-3.2-3-6.5-6-9.4-9.3c-2.5-2.9-4.3-6.2-6.6-9.2c-0.7-0.9-1.1-2.4-0.9-3.5c0.2-1.4-2.2-3.7,0.7-3.9
				c1.7-0.2,0.8,2.3,1.4,3.5c0.2,0.5,0.3,1,0.6,1.4c5.6,7,11.5,13.7,18.5,19.3c7.2,5.7,13.8,12.1,19.9,19c0.8,0.9,9.2,15.2,9.4,16.3
				C257,116.7,257.2,118.7,257.4,120.7"/>
			<path id="Fill-43" class="st0" d="M280,524.2c0.2,0.4,0.7,0.8,0.7,1.2c0,0.5-0.4,1-0.7,1.4c-4.7,6.6-9.6,13.2-14.2,19.9
				c-3.8,5.6-7.2,11.5-9,18.1c-0.7,2.5-1.4,5-1,7.7c0.7,4.5,1.5,9.1,1.7,13.6c0.1,3.3,2.2,6,2.6,9.2c0.1,0.9,1.2,1.8,1.3,2.7
				c0.2,1.7,0.8,3,2.3,4.1c0.6,0.4,0.6,1.6,0.8,2.4c0,0.2-0.3,0.6-0.6,0.8c-0.3,0.1-0.9,0.2-1,0c-1.1-1.1-2.8-2.2-3-3.5
				c-0.3-2-1.6-2.6-2.7-3.8c-1-1.2,0.1-3.4-1.8-4.2c-1.1-5.3-4-10.2-4.3-15.7c-0.4-7.6,1-15.1,3.8-22.1c1-2.4,2.9-4.4,4.2-6.8
				c2.2-4.1,4.9-8,7.9-11.6c3.7-4.5,7.9-8.7,11.9-13C279,524.3,279.5,524.3,280,524.2"/>
			<path id="Fill-45" class="st0" d="M254.3,434.3c2.9-0.4,5.8-0.6,8.7-1.2c2.4-0.5,4.7-1.5,7-2c2.5-0.5,5.2-0.3,7.6-1.1
				c6.1-2.2,12-4.6,17-9.1c3.1-2.8,6.2-5.5,9.2-8.3c0.3-0.3,1.2-0.1,1.9-0.1c0,0.5,0.1,1.1-0.1,1.5c-1.4,1.9-2.8,3.8-4.3,5.7
				c-0.8,0.9-1.4,1.7,0.2,2.3c1.4,0.6,1.6,2,1.5,3.2c-0.3,3.1-0.2,6.3-1.3,9.1c-1.4,3.4-4,6.3-6.1,9.4c-0.2,0.3-0.4,0.7-0.7,0.8
				c-0.7,0.2-1.8,0.5-2.1,0.2c-0.5-0.6-1-1.7-0.8-2.4c0.6-1.6,1.6-3.1,2.3-4.6c1.9-4.2,4.4-8.2,4.2-13.1c0-0.5,0.3-1.1,0.4-1.6
				c-0.5,0.1-1.1,0.1-1.4,0.4c-2,2.4-5.1,3.4-7.4,5.6c-1,1-2.5,1.7-4,2.2c-3.1,1-6.1,2.4-9.2,3.3c-3.3,1-6.9,2.1-10.6,0.9
				c-1.1-0.3-2.5,0-3.7,0.1c-5.8,0.7-11.6,1.5-17.4,2.2c-0.5,0.1-1.5-0.3-1.7-0.7c-0.5-1.3,0.6-1.4,1.5-1.5
				C248.2,435.1,251.3,434.7,254.3,434.3"/>
			<path id="Fill-47" class="st0" d="M317.8,427.2c0.3,2,0.7,4,0.8,6c0.1,2.8,1.4,5.5,0.3,8.5c-0.9,2.6,1,5.4-0.1,8.4
				c-0.8,2.1-0.1,4.8-0.2,7.2c-0.3,6.9-2,13.4-4.1,20c-0.6,2-2.5,1.6-3.3,2.8c-0.4-0.3-0.7-0.6-1-0.9c-0.1-0.1-0.1-0.4-0.1-0.5
				c2.4-4,2.5-8.5,2.9-12.9c2-1.9-1.1-4.7,1.1-6.5c0-3.3,0.2-6.7-0.2-10c-0.6-5.7,0.4-11.5-1.1-17.1c1.5-3.2,0.4-6.4-0.2-9.5
				c-1.1-5,0-10-0.7-15c0-0.3,0.5-0.7,0.8-1.1c0.5,0.4,1.2,0.7,1.4,1.1c0.9,3.2,1.8,6.5,2.4,9.7C317.1,420.7,317.3,424,317.8,427.2"
				/>
			<path id="Fill-49" class="st0" d="M402.4,656.3c0.1,1.1,0.4,1.7,0.2,2.2c-0.1,0.4-0.7,0.7-1.2,0.8c-0.2,0.1-0.8-0.2-0.9-0.4
				c-5.8-12.6-10.6-16.7-19.6-22.6c-3.3-2.2-7.4-3.9-11.9-2.7c-1.6,0.4-3.3,0.6-4.9,0.7c-5.9,0.3-11.1,2.9-16.4,5.1
				c-2.4,1-4.9,1.6-6.8,3.5c-0.4,0.4-1.4,0.3-2.1,0.1c-0.3-0.1-0.7-1.2-0.5-1.3c1.8-1.6,3.5-3.6,5.6-4.5c3.4-1.5,6.7-3.4,10.2-4.8
				c2.1-0.8,4.1-1.8,6.5-2c1.5-0.1,3.4,0.3,4.4-1.6c0.1-0.2,0.8-0.3,1-0.1c2.7,2.4,5.7-0.3,8.8,0.6c11.7,3.3,19.5,10.9,25.5,20.9
				C401.4,652,401.8,654.5,402.4,656.3"/>
			<path id="Fill-51" class="st0" d="M132.3,223.4c-0.9,0.1-2,0.3-2,0.3c-0.5-2.5-2.4-1.3-3.8-1.5c-5.8-1-11.4,0.7-17.2,1.2
				c-2.3,0.2-4.4,0.9-6.5,1.9c-5.4,2.5-10.6,5.3-15.5,8.8c-6.2,4.4-12,9.3-17.3,14.8c-0.4,0.5-1.1,0.8-1.8,1
				c-0.5,0.1-1.2,0.1-1.5-0.2c-0.3-0.3-0.4-1.1-0.1-1.4c1.6-2.2,3.1-4.7,5.1-6.5c2.3-2.1,4.6-4.3,6.9-6.4c4.8-4.4,9.9-8.3,15.9-11.1
				c3.2-1.5,6.4-3.2,9.8-4.3c3.6-1.2,7.5-1.2,11.3-1.8c4.2-0.6,8.2,0.1,12.2,1.6c1.4,0.5,2.4,1.4,3.6,2.1
				C131.8,221.9,131.9,222.6,132.3,223.4"/>
			<path id="Fill-53" class="st0" d="M292.3,505.9c0.2-1.4,0.3-3.5,1-5.4c2.6-6.9,6.7-12.7,12.8-16.9c0.8-0.6,1.4-1.3,2.2-0.4
				c0.3,0.3,0,1.4-0.4,1.9c-1.3,1.8-2.7,3.4-4,5.3c-1.7,2.5-3.5,5-4.6,7.7c-3.4,7.9-0.8,12.8,4.7,18c2.2,2.1,5.3,3.5,8.1,5
				c3.2,1.6,6.5,3,9.9,4.2c1.3,0.5,1,1.4,1,2.1c0,0.4-0.9,1.3-1.2,1.2c-7.9-2.5-16.2-4.1-22.5-10.1
				C295.9,515.2,293.7,511.3,292.3,505.9"/>
			<path id="Fill-55" class="st0" d="M397.6,494.4c2.1,8.5-1.1,14.8-6.2,20c-3.6,3.7-12.2,6.7-17.3,2.6c-1-0.9-2.6-1.1-3.6-2
				c-0.4-0.4-0.1-1.7-0.1-2.5c0.6,0.1,1.5-0.1,1.9,0.2c4.1,3.4,8.5,1.2,12.9,1c2-2.2,4.8-4.1,6-6.7c1.8-4,3.7-8.4,2-13.1
				c-1-2.9-1.9-5.9-3.7-8.4c-2.3-3.2-4.7-6.2-7-9.4c-0.3-0.4-0.2-1.2-0.3-1.8c0.6,0.1,1.4-0.1,1.9,0.2c5.3,3.6,9.6,7.9,12.2,14
				C397.2,490.8,397,493.1,397.6,494.4"/>
			<path id="Fill-57" class="st0" d="M386.8,409.8c2.4,0.2,5,0,7.2,0.7c2.2,0.7,4.2,0.3,6.3,0.2c5.2-0.3,10.3-0.5,15.5-1
				c6.7-0.6,12.6-3.6,18.7-6.2c2.2-0.9,4.9-1.6,6.2-3.3c1.6-2,4.8-1.8,5.8-4.5c0.2-0.5,1.7-0.4,2.4-0.8c1.1-0.6,1.5-3.3,3.1-1.6
				c1.2,1.3-0.9,2.5-1.7,3.5c-0.7,0.9-1.7,1.7-2.7,2.3c-5.3,3.6-10.3,7.8-16.5,10c-2.6,0.9-4.9,2.5-7.7,2.9
				c-1.2,0.1-2.3,0.5-3.4,1.1c-1.8,1-4.4,1.7-6.3,1c-2.6-0.9-4.9,0-7.4,0c-1.1,0-2.4,0.6-3.2,0.1c-3-1.9-6.2-1.1-9.3-0.7
				c-0.5,0.1-1.4,0.4-1.6,0.2c-2.6-2.7-5.7-1.2-8.7-1.1c-0.4,0-0.8-0.5-1.2-0.7c0.4-0.5,0.6-1.2,1.1-1.4c1-0.3,2.2-0.3,3.2-0.5
				C386.8,410,386.8,409.9,386.8,409.8"/>
			<path id="Fill-59" class="st0" d="M72.3,180.9c5.1-1.7,10.4-3.1,15.4-5.1c5.2-2.1,10.1-4.8,14.6-8.2c2.4-1.9,5.4-2.8,8.1-4.2
				c1.8-0.9,4.7,0,7.1,0.5c2,0.4,3.9,1.6,6.1,0.9c0.2-0.1,0.8,0.7,0.8,1c0,0.4-0.5,1.1-0.8,1.1c-2.4-0.1-4.7,0.9-7.4,0.2
				c-2.9-0.8-6.2,0.3-9,2.4c-4.5,3.4-9.1,6.4-14.4,8.7c-5.5,2.4-10.8,5-17,5.1c-0.7,0-1.6,0.4-2.1,0.1c-2.8-1.6-5,0.1-7.3,1.2
				c-0.6,0.3-1,1.1-1.6,1.2c-0.7,0.2-1.9,0.8-2.3-0.5c-0.1-0.4,0.6-1,0.9-1.5C65.6,180.6,69,180.9,72.3,180.9"/>
			<path id="Fill-61" class="st0" d="M450.3,633.8c0.1-1.2-0.1-2.2,0.2-2.9c3.4-6.3,5.8-13,9.5-19c3.7-5.9,6.5-12.4,10.3-18.2
				c3.8-5.8,6.7-12.3,12.5-16.6c0.3-0.2,0-1.1,0.3-1.4c0.3-0.3,1.1-0.5,1.4-0.3c0.4,0.2,0.7,1,0.6,1.3c-0.6,1.4-1.3,2.9-2.1,4.2
				c-4.3,6.3-8.1,12.8-12,19.4c-6.4,11-12.7,22.1-18.4,33.5c-0.3,0.5-0.8,0.9-1.2,1.4C451.1,634.5,450.7,634.1,450.3,633.8"/>
			<path id="Fill-63" class="st0" d="M374.5,367.3c-0.1,0-1,0-1.1-0.2c-0.2-0.6-0.2-1.6,0.1-1.8c2-1.3,0.3-3.9,2-5.3
				c0.2-0.1,0.1-0.8-0.1-1c-3.3-3-0.5-4.5,1.4-6.3c0.6-0.6,1.4-1.1,1.8-1.8c0.2-0.3-0.4-1.5-0.8-1.5c-0.9-0.1-1.8,0.2-2.7,0.3
				c-1,0-1.5-1-0.9-1.8c0.5-0.8,1-1.8,1.7-2.1c2.3-1,2.4-2,0.6-3.7c-0.4-0.4-0.1-2.3,0.5-2.8c1.4-1.2,2.8-2.8,4.9-2.5
				c1,0.1,2.2,0.6,2.7,1.3c0.8,1.1-0.5,2-1.1,2.7c-0.5,0.5-2.6,0.2-0.6,1.7c1.5,1.2-2,2.8,0.3,4.1c2.1,1.2-0.4,2.4-0.3,3.8
				c0.1,0.9-0.6,1.7,0.6,2.3c1.2,0.5,1.7,1.8,1.3,2.7c-1.7,4.3-3.1,8.9-7.5,11.5c-0.3,0.2-0.6,0.4-0.9,0.5
				C376,367.2,375.5,367.2,374.5,367.3"/>
			<path id="Fill-65" class="st0" d="M417.7,350.7c-2.4-0.4-4.9-0.8-7.4-1.4c-1.5-0.4-2.9-1.6-4.3-1.5c-1.7,0.1-2-0.8-2.6-1.8
				c-1.4-2.1-1.4-2.2,0.9-2.6c0.7-0.1,1.5-0.3,2.2-0.3c1.8,0,2.6-0.5,2.2-2.6c-0.4-2.1,0.4-2.7,2.7-2.2c2.5,0.5,4.9,1.2,7.4,1.7
				c1,0.2,2.1,0.1,3.2-0.1c1.1-0.1,1-0.6,0.2-1.2c-1.3-1-0.3-1.9,0.3-2.7c0.7-0.9,1.4-0.8,2.3-0.2c0.7,0.4,1.7,0.5,2.4,0.9
				c1.7,1,2,2.7,0.5,4c-1.5,1.4-3.2,2.6-5,3.5c-0.7,0.4-1.9-0.3-2.9-0.5c-0.9-0.2-1.9-0.7-2.7-0.5c-0.9,0.3-1.7,1.2-2.4,1.8
				c-0.3,0.2-0.5,0.6-0.7,0.9c0.4,0.2,0.9,0.5,1.2,0.5c3.3-0.4,6.5-0.9,9.8-1.2c0.3,0,0.8,0.5,1,0.9c0.1,0.2,0,0.9-0.2,0.9
				C423.2,348.2,420.5,349.4,417.7,350.7"/>
			<path id="Fill-67" class="st0" d="M349.6,524c-2.6,1.1-5.3-0.9-8-1.6c-1-0.3-1.9-1.3-1.6-2.5c0.1-0.5,0.7-0.9,1.1-1.4
				c1.5,1.5,3.5,0.1,5.1,0.7c4,1.5,6.7-0.3,9.1-3.3c2.2-2.8,4.2-5.8,7.1-8.1c4-3.2,8-6.2,13.5-6.1c0.8,0,1.7,0.4,2.4,0.8
				c0.4,0.2,0.7,0.9,0.7,1.3c0,0.3-0.7,0.8-1.1,0.9c-5.6,0.6-9.5,4-13.1,7.8c-2.5,2.6-4.7,5.3-7.2,8
				C355.6,522.5,353,523.5,349.6,524"/>
			<path id="Fill-69" class="st0" d="M501.8,232.8c-9.1,1.3-17.2-1.3-24.4-6.9c-3-2.3-5-5.6-6.2-9.3c-0.2-0.6,0.1-1.3,0.2-2
				c0.6,0.1,1.4,0.1,1.9,0.4c1.1,0.8,2.7,1.4,2.5,3.2c0,0.3,0.2,0.7,0.4,0.9c7,5.9,14.4,10.8,24.3,9.3c3.3-0.5,6.5-0.8,9.8-1.3
				c0.7-0.1,1.3-0.4,2-0.6c0.4-0.1,0.7-0.3,1.1-0.4c0,0.5,0.3,1.2,0,1.5c-1.9,1.9-4,3.8-6.7,4.5
				C505.1,232.5,503.4,232.6,501.8,232.8"/>
			<path id="Fill-71" class="st0" d="M405.8,157c-0.7-0.6-1.3-0.9-1.5-1.4c-0.1-0.2,0.3-0.9,0.6-1.2c4.9-3.3,8.8-7.6,12.2-12.4
				c2.1-2.9,3.4-6,4.1-9.5c1.1-6.1,3.4-11.8,7.8-16.3c0.4-0.4,1.2-0.4,1.8-0.6c0,0.6,0.3,1.3,0.1,1.9c-0.8,2.1-2.1,4-2.6,6.1
				c-0.9,3.5-3.5,6.5-2.5,10.4c-1.9,5.7-4.3,11.2-8.9,15.3c-2.4,2.1-5.2,3.8-7.9,5.6C408.1,155.7,407.1,156.3,405.8,157"/>
			<path id="Fill-73" class="st0" d="M436.9,338c0.6,0.1,2.3,0.2,4,0.6c1.3,0.3,1.2,1.2,0.1,2.2c-0.5,0.4-1.1,0.8-1.6,1.3
				c-0.2,0.2-0.4,0.6-0.3,0.8c0.3,0.8,5.3,3.2,6,2.9c0.3-0.2,0.5-0.8,0.7-1.2c0.3-1,0.8-2,0.7-2.9c-0.3-1.8,0.9-1.9,1.9-1.8
				c1.2,0.1,2.3,0.5,3.4,1c2.1,1,2.1,2.1,0.2,4.1c-0.8,0.8-1.2,1.9-2,2.6c-1.1,1-2.6,2.5-3.7,2.4c-1.9-0.2-4.2,0.3-5.9-1.3
				c-0.3-0.2-0.6-0.4-0.9-0.7c-1-1-1.9-1.5-2.7,0.2c-0.2,0.4-0.7,0.8-1.1,1.1c-1.4,0.9-2.7,1.9-4.5,0.7c-0.8-0.5-2-0.5-2.9-0.8
				c-0.9-0.3-1-1.6-0.2-2.1c0.3-0.2,0.7-0.1,1-0.2c1.2-0.6,2.8-1.1,3.4-2.1c0.5-0.9-0.3-2.4-0.3-3.7C432,339.2,433,338.5,436.9,338"
				/>
			<path id="Fill-75" class="st0" d="M505.3,286.3c-0.5,0.8-0.8,1.4-1.3,1.7c-0.2,0.1-1-0.2-1.3-0.5c-2.6-2.6-5.1-5.4-7.9-7.7
				c-3.1-2.6-6-5.5-8.5-8.6c-2.1-2.6-3.9-5.5-5.7-8.4c-0.4-0.7-0.7-2-0.3-2.7c1.1-1.9,0.4-3.8,0.3-5.7c0-0.3,0.5-0.9,0.9-1
				c0.4-0.1,1.1,0.3,1.2,0.6c0.6,1.6-0.2,3.7,1.7,4.9c0.4,4.9,4.1,7.9,7,11.2c3.4,4,7.3,7.5,10.8,11.4
				C503.4,282.8,504.2,284.5,505.3,286.3"/>
			<path id="Fill-77" class="st0" d="M221,591.9c0.8,0,1.2-0.1,1.5,0.1c0.8,0.5,1.6,1,2.2,1.7c4.2,4.6,8.3,9.2,12.5,13.8
				c1.9,2.1,3.8,4.1,5.8,6c2.4,2.3,5,4.5,7.5,6.8c0.5,0.4,0.7,1.2,0.8,1.8c0.1,0.4,0,1.2-0.4,1.4c-0.3,0.2-1.1,0.1-1.5-0.1
				c-4.9-3.6-9.8-7.3-14-11.8c-2.6-2.8-4.8-5.9-7.6-8.5c-2.7-2.5-3.6-6.3-6.8-8.4C220.6,594.4,221,592.9,221,591.9"/>
			<path id="Fill-79" class="st0" d="M451.9,558.7c-0.4,0.6-0.9,1.6-1.5,1.9c-0.6,0.2-1.9-0.2-2.3-0.8c-0.6-0.8-1-2-0.9-3
				c0.3-2.7-1.9-4.6-2.1-7.1c-4.5-5.2-7.2-11.8-13-16c-1.8-1.3-3.4-3.1-5-4.8c-0.3-0.3-0.5-1.1-0.3-1.4c0.2-0.4,0.9-0.6,1.3-0.6
				c0.7,0,1.4,0.1,2,0.5c2.1,1.5,4.4,2.8,6.1,4.7c2.4,2.7,5.4,4.9,7.1,8.2c0.6,1.2,2.1,2,2.6,3.2c0.9,2,2.4,3.8,2.5,6.2
				c0.2,2.8,0.4,5.7,2.9,7.7C451.5,557.7,451.6,558.1,451.9,558.7"/>
			<path id="Fill-81" class="st0" d="M399.6,349.5c0.6,2.9-1.9,4.9-4.8,4c-1.4-0.4-2.8-1.8-4.1,0.5c-0.3,0.5-1.7,0.4-2.6,0.4
				c-0.4,0-1-0.5-1-0.8c-0.1-0.4,0.2-0.9,0.5-1.3c1.3-1.4,1.3-1.3-0.2-2.2c-1.2-0.7-1.3-1.3-0.2-2.2c0.5-0.4,1.1-0.8,1.6-1.3
				c0.2-0.2,0.2-0.5,0.4-0.8c-0.3-0.1-0.7-0.3-1-0.2c-0.5,0-1.2,0.3-1.6,0.1c-0.4-0.1-0.8-1-0.7-1.2c0.9-1.5,1.5-3,3.6-3.6
				c2.7-0.8,5.1-1.4,7.3,1c0.4,0.4,0.9,0.7,1,1.2C398.4,345.1,399,347.3,399.6,349.5"/>
			<path id="Fill-83" class="st0" d="M236.7,442.2c-0.5,0.5-0.8,1.1-1.1,1.1c-1.4,0-2.2,0.9-3.1,1.9c-1.4,1.6-2.9,3-4.4,4.5
				c-2.1,2.2-4.1,4.4-6.1,6.7c-4.4,4.9-8.8,9.8-13.2,14.6c-0.3,0.3-1.2,0.1-1.8,0.2c0-0.5-0.2-1.1,0-1.5c1.3-1.8,2.7-3.5,4-5.3
				c1.5-2,2.7-4.2,4.2-6.2c1.5-1.9,3.2-3.6,4.7-5.5c3.4-4,7.4-7.2,11.6-10.2c1.3-1,2.6-1,3.9-1.3
				C235.8,441.2,236.2,441.8,236.7,442.2"/>
			<path id="Fill-85" class="st0" d="M370,410.7c-0.1-1.1-0.3-1.5-0.2-1.8c0.2-0.4,0.5-0.8,0.9-1c0.2-0.1,0.8,0,1,0.2
				c4.1,4.4,8,9.2,12.4,13.3c3.5,3.3,7.4,6.1,12.1,7.6c0.4,0.1,0.7,0.8,0.7,1.2c0,0.3-0.6,0.8-1,0.9c-1.8,0.8-3.6,0-5.1-0.6
				c-6.5-2.9-11.8-7.8-16.9-14.7c-0.8-1.1-1.8-2.1-2.7-3.2C370.7,411.9,370.2,411,370,410.7"/>
			<path id="Fill-87" class="st0" d="M532.7,336.7c-6.6-0.5-12.9-1-18.8-3.4c-1-0.4-1.6-1.9-3-2.2c-0.3-0.1-0.2-1.6-0.3-2.5
				c0.6,0,1.3-0.3,1.9-0.1c3.5,1.2,7.1,2.3,10.9,2.7c1.5,0.2,3.1,0.3,4.6,0.3c1.4,0,2.7,0.5,4,0.5c2.2,0.1,4.7,1,6.5-1.3
				c0.2-0.2,1.1,0,1.5,0.2c0.2,0.1,0.4,0.8,0.3,1.1c-0.5,1.1-0.2,2.7-2.5,2.8C536.1,334.9,534.3,336.1,532.7,336.7"/>
			<path id="Fill-89" class="st0" d="M526.8,376.2c0.4,0,0.8-0.2,1.1-0.1c0.4,0.2,0.8,0.5,1.1,0.9c0.1,0.2,0,0.8-0.2,0.9
				c-3.5,2-5,5.6-7.4,8.5c-2.4,2.8-3.9,6.2-5.5,9.5c-0.7,1.4-2.5,2.3-3.9,3.3c-0.2,0.1-0.6-0.1-1-0.2c0.1-0.3,0.2-0.5,0.3-0.8
				c0.6-2.3,1.1-4.6,1.9-6.9c1.8-5,5.2-9,8.5-12.9c1.1-1.3,3.2-1.8,4.9-2.6C526.6,375.9,526.7,376,526.8,376.2"/>
			<path id="Fill-91" class="st0" d="M340.3,550c0.3-1.4,0.6-2.7,0.9-4c0.8-3.5,3.4-6,4.7-9.2c0.7-1.7,2.2-1.6,3.7-1.7
				c0.4,0,1.2,0.2,1.3,0.5c0.2,0.4,0,1-0.2,1.5c-0.3,0.6-0.9,1.2-1.3,1.8c-3.4,4.6-4.2,9.6-2.6,15c0.4,1.4,1.6,2.5,2.4,3.9
				c0.2,0.4,0.4,1.1,0.3,1.4c-0.2,0.4-0.9,0.5-1.4,0.6c-0.5,0.1-1.2,0.1-1.5-0.2C343.9,556.8,341.9,553.7,340.3,550"/>
			<path id="Fill-93" class="st0" d="M178.1,193.3c0,1.8-0.1,4.5-0.2,7.1c0,0.2-0.6,0.7-0.7,0.6c-0.5-0.2-1.3-0.5-1.4-1
				c-1-3.1-2.4-6.1-3.3-9.2c-1.2-4.1-3.4-7.4-5.7-10.8c-0.4-0.6-0.6-1.3-1-1.7c-1.1-1-1.4-2.2-0.4-3.2c0.2-0.2,2.1,0.8,2.9,1.5
				c1.6,1.6,3,3.3,4.5,5C175.1,184.4,177.6,189.4,178.1,193.3"/>
			<path id="Fill-95" class="st0" d="M513.9,261.2c3.3-0.8,7.4-0.2,10.9-2.5c1.1-0.7,2.8-0.5,4.3-0.6c0.3,0,0.8,0.6,1,1
				c0.1,0.2,0,0.8-0.2,0.9c-3.5,1.7-6.2,5.2-10.6,4.9c-0.7,0-1.8-0.1-2.1,0.3c-2.9,3.3-6.3,0.1-9.3,0.7c-0.7,0.1-1.7-0.3-2.3-0.8
				c-0.6-0.5-1-1.3-1.5-2c0.6-0.3,1.2-0.7,1.9-0.8C508.4,261.9,510.9,261.6,513.9,261.2"/>
			<path id="Fill-97" class="st0" d="M428.9,545.7c0.4,0.1,0.7,0.1,0.7,0.1c0.1,2.4,2.5,3.3,3.3,5.1c0.9,2.3,1.4,4.7,2.1,7
				c0.6,2.2,1.3,4.3,2,6.5c0.6,2,0,4.2,1.6,6.1c0.7,0.9-0.2,3.2-0.5,4.8c0,0.2-0.6,0.4-0.9,0.3c-0.3,0-0.6-0.3-0.9-0.4
				c0.9-2-3.5-3.3-0.8-5.7c0.1-0.1,0-0.7-0.2-1c-1.9-2.2-2.3-5-3.3-7.5c-1-2.5-1-5.3-2.1-7.6c-1.1-2.3-1.6-4.7-1.8-7.1
				C428,546.2,428.7,545.9,428.9,545.7"/>
			<path id="Fill-99" class="st0" d="M222.5,437.3c-0.2,0.4-0.4,1.2-0.6,1.2c-3.7-0.3-5.1,3.4-8,4.5c-2.8,1-5,2.8-7.1,4.9
				c-2,2-4.6,3.5-6.8,5.3c-0.8,0.7-1.6,1.1-2.1,0.1c-0.3-0.7-0.3-2.1,0.1-2.5c2.9-2.7,5.9-5.3,8.9-7.8c0.8-0.7,1.6-1.2,2.4-1.9
				c3.7-2.9,7.9-4.2,12.5-4.6C222,436.4,222.2,436.9,222.5,437.3"/>
			<path id="Fill-101" class="st0" d="M204.4,418c-0.3,0.3-0.7,0.7-0.8,0.6c-0.6-0.3-1.2,0.1-1.8,0.7c-1.1,0.9-2.2,1.6-3.2,2.5
				c-1.5,1.2-3.1,2.5-4.6,3.7c-3.3,2.7-6.7,5.5-10,8.2c-0.2,0.2-0.5-0.2-0.8-0.3c0.2-0.4,0.3-0.9,0.5-1.2c1.1-1.1,2.2-2.1,3.3-3.2
				c1.2-1.2,2.4-2.6,3.7-3.8c1.2-1.1,2.4-2.1,3.7-3.1c2.6-2.3,5.3-3.9,8-5.2c0.9-0.4,1.4-0.2,2,0C204.4,417,204.3,417.5,204.4,418"
				/>
			<path id="Fill-103" class="st0" d="M203.3,417.5c-0.2,0.3-0.5,0.9-0.6,0.8c-1.4-1.2-3.2,1.4-4.7,1.5c-1.5,0.1-2.9,1-4.5,2.1
				c-1.5,1.1-3,1.6-4.5,2.5c-0.5,0.3-1,0.4-0.9-0.5c0.1-0.6,0.5-1.7,0.8-1.9c2-1.4,4.1-2.7,6.1-4c0.5-0.3,1.1-0.6,1.6-0.9
				c2.4-1.4,4.6-1.4,6.6-0.6C203.4,416.6,203.3,417.1,203.3,417.5"/>
			<path id="Fill-105" class="st0" d="M327.6,517.9c-0.3-0.1-1.5-0.5-2.3-1.2c-3-2.7-6.5-3.2-10.3-2.6c-1.1,0.1-2.7,0.6-3.1,0.1
				c-0.8-1.1-3.1,0.3-2.8-1.7c0.1-0.7,1.2-1.5,2.1-1.9c6-3.2,14.8-0.9,18.7,4.8C331.1,517.2,330.9,517.6,327.6,517.9"/>
			<path id="Fill-107" class="st0" d="M368.5,425.3c0.1-2.6,0.1-5.2,0.3-7.8c0-0.2,0.5-0.6,0.8-0.6c0.5,0,1.3,0.2,1.3,0.4
				c0.4,3.5,2.7,6.5,2.6,10.2c-0.1,3,2.1,5.3,3.4,7.9c0.4,0.8,3-0.1,2,2c-0.6,1.2-3.7,0.9-4.8-0.1c-0.1-0.1-0.3-0.2-0.4-0.3
				C371.6,433.2,368.6,429.9,368.5,425.3"/>
			<path id="Fill-109" class="st0" d="M458.7,400.6c0.6,0,1.4-0.2,2,0.1c6,2.6,11.9,5.5,15.8,11.1c0.3,0.5,0.2,1.2,0.3,1.8
				c-0.6,0-1.4,0.1-1.9-0.2c-3.6-2.3-7.1-4.8-10.7-7.2c-1.9-1.3-3.9-2.3-5.9-3.6c-0.3-0.2-0.5-0.9-0.5-1.4
				C457.8,401.1,458.3,400.9,458.7,400.6"/>
			<path id="Fill-111" class="st0" d="M454.2,412.4c3.9,0.5,9.2-1.1,13.6,2.5c0.4,0.3,1.6-0.4,2,0c0.6,0.4,0.9,1.4,1,2.1
				c0,0.3-0.8,0.8-1.3,1.1c-0.3,0.2-0.8,0.3-1.1,0.1c-4-2.1-8.3-1.7-12.6-1.6c-1.7,0.1-2.4-1.4-3.7-1.8c-0.9-0.2-2.4,1-2.6-0.7
				c-0.3-2.2,1.7-1.1,2.7-1.6C452.5,412.5,452.9,412.6,454.2,412.4"/>
			<path id="Fill-113" class="st0" d="M401.5,339.3c-1.7,0-4.4,0.3-6.9-0.3c-2.1-0.6-3.6-1.2-5.4,0.5c-0.2,0.2-1.2-0.3-1.6-0.7
				c-0.3-0.4-0.5-1.3-0.3-1.8c0.4-0.9,4.6-3.2,5.7-3.2c1.4-0.1,11,2.3,12.3,3c0.2,0.1,0.5,0.6,0.4,0.9c-0.1,0.4-0.4,1-0.7,1.1
				C404.3,339,403.4,339.1,401.5,339.3"/>
			<path id="Fill-115" class="st0" d="M457.7,350.5c0.1,1.2-1.8,3.3,1.3,2.4c0.5-0.1,1.1-0.3,1.6-0.2c3.2,0.4,4.3,3.3,2.4,6
				c-0.2,0.2-0.6,0.4-0.9,0.5c-2.1,0.6-5.8-1.1-5.8-3.1c0-2.5-2-2.4-3.2-3.3c-0.6-0.4-2,0.3-1.9-1.1c0.1-1.3,0.8-2.5,2.3-2.4
				c1.2,0,2.3,0.3,3.5,0.6C457.4,349.9,457.6,350.4,457.7,350.5"/>
			<path id="Fill-117" class="st0" d="M469.2,350.9c-0.3,0.7-0.5,1.4-0.9,1.8c-0.2,0.2-1.1,0-1.4-0.3c-1.2-0.9-2.2-1.4-3.9-1.2
				c-3.2,0.5-5.4-1.4-6.8-4.1c-0.2-0.3,0.3-1.4,0.7-1.6c0.8-0.3,2.3-0.7,2.6-0.4c2.2,2.7,6.1,0.4,8.2,3
				C468.2,348.9,468.6,349.9,469.2,350.9"/>
			<path id="Fill-119" class="st0" d="M417.6,337.5c-2.1-0.5-4.4-0.9-6.6-1.6c-1.3-0.4-1.2-1.5-0.1-2.3c2.9-2.1,4.6-2,7.9,0.5
				c0.6,0.5,1,1.3,1.5,2C419.5,336.6,418.8,337,417.6,337.5"/>
			<path id="Fill-121" class="st0" d="M214.8,354.3c-0.7,0-1.5-0.1-2.2-0.1c-1.9,0.2-1.9-0.9-1.9-2.3c0-1.5,0.3-2.4,2.1-2.1
				c0.9,0.1,1.8,0.1,2.7,0.1c1,0.1,3,2.3,2.9,3.5c0,0.4-0.6,0.9-0.9,1C216.6,354.5,215.7,354.3,214.8,354.3"/>
			<path id="Fill-123" class="st0" d="M463.1,226.8c-0.2-0.2-0.4-0.4-0.6-0.6c0.2-0.1,0.6-0.3,0.6-0.3c0.2,0.2,0.3,0.5,0.4,0.8
				C463.5,226.7,463.3,226.7,463.1,226.8"/>
			<path id="Fill-125" class="st0" d="M440,621.4c-0.2,0.2-0.4,0.4-0.6,0.6c-0.1-0.2-0.3-0.6-0.3-0.6c0.2-0.2,0.5-0.3,0.8-0.4
				C440,621.1,440,621.3,440,621.4"/>
			<path id="Fill-127" class="st0" d="M341.6,76.2c1.1,4.6,1,9.2,0.7,13.9c-0.1,1.2-0.3,2.4-0.8,3.4c-2.1,4.5-3.6,9.3-6.3,13.6
				c-1.4,2.3-2.2,5.4-1.7,8.4c0.5,3.4,0.7,7,1.4,10.3c1.4,6.4-0.8,12-3.2,17.6c-0.3,0.6-0.8,1.2-0.9,1.9c-0.1,1,0.7,2.5-1.2,2.3
				c-1.5-0.1-0.9-1.7-1.1-2.7c-0.4-1.3-0.2-2.3,0.7-3.5c1.4-1.8,1.3-4.2,2.3-6.2c0.6-1.2-0.3-3.2-0.5-4.8c-0.4-2.9-0.6-5.8-1.2-8.7
				c-1.5-7.4,0.4-14.1,3.8-20.6c1.7-3.3,3-6.9,4.1-10.5c0.7-2.1-1-4.5,0.5-6.7c-0.7-5.3-1.4-10.5-2.1-15.8c-2.6-2.3-1.1-6-3.2-8.7
				c-1.8-2.3-2.5-5.5-4-8.3c-1.3-2.5-2.6-4.9-2.7-7.8c-0.1-1.5-0.5-2.6-1.8-3.7c-1.8-1.5-2-5.2-0.8-7.3c0.2-0.3,0.5-0.6,0.6-0.9
				c0.4-0.9,0-3.1,2-1.9c1.3,0.8,0,1.9-0.6,2.7c-1.3,1.5-1,3.7,0,4.4c2.3,1.5,2.1,3.5,2.7,5.6c0.5,2,2.8,3.1,2.9,5.4
				c0,0.6,0.3,1.4,0.7,1.9c3.4,4.8,6.2,9.9,7.1,15.8C341.6,68.5,340.6,72.6,341.6,76.2"/>
			<path id="Fill-129" class="st0" d="M350.2,30.5c0.3,0.1,0.9,0.2,0.9,0.4c0.1,0.5,0.1,1.4,0,1.4c-2,0.4-1.7,1.8-1.5,3.3
				c1,7.1,1.6,14.2,2.9,21.3c0.6,3.4,1.5,6.8,3.2,9.9c0.1,0.1,0.3,0.3,0.3,0.4c-0.1,3.7,1.8,6.9,2.5,10.3c1.3,6.7,0.2,13.2-1.2,19.7
				c-1.1,5-2.3,10-4.4,14.6c-3.1,7-4.2,14.4-5.8,21.6c-0.8,3.3-3.1,5.8-3.8,9c0,0.2-0.7,0.3-1,0.2c-0.3-0.1-0.7-0.3-0.8-0.6
				c-0.2-0.7-0.5-1.6-0.2-2.1c3-4.8,3-10.1,3.4-15.4c0.2-2.3,1.1-4.6,1.8-6.9c2.1-6.6,4.4-13.2,6.3-19.9c0.9-3.1,1.7-6.5,1.2-9.6
				c-0.4-2.1,1.6-3.8,0.1-6.1c-1.1-1.6-1.1-4.1-1.5-6.2c-0.4-2.2,0.1-4.8-1-6.5c-2.6-3.7-1.5-8.2-3.4-12.1c-1.8-3.8-1.4-8.6-2-13
				c-0.2-1.6-0.3-3.2,0.6-4.6c1-1.5,0.6-3,0.5-4.6C347.2,33.3,348.5,31.1,350.2,30.5"/>
		</g>
	</g>
</g>
</svg>
