<?xml version="1.0" encoding="utf-8"?>
<!-- Generator: Adobe Illustrator 20.1.0, SVG Export Plug-In . SVG Version: 6.00 Build 0)  -->
<svg version="1.1" id="Layer_1" xmlns="http://www.w3.org/2000/svg" xmlns:xlink="http://www.w3.org/1999/xlink" x="0px" y="0px"
	 viewBox="0 0 591 779" style="enable-background:new 0 0 591 779;" xml:space="preserve">
<style type="text/css">
	.st0{fill:#2303CF;}
	.st1{filter:url(#Adobe_OpacityMaskFilter);}
	.st2{fill:#FFFFFF;}
	.st3{mask:url(#mask-2);fill:#2303CF;}
</style>
<title>1</title>
<desc>Created with Sketch.</desc>
<g id="Page-2">
	<g id="_x31_">
		<g id="Jerry" transform="translate(9.000000, 6.000000)">
			<path id="Fill-1" class="st0" d="M120.3,596c0-0.7,0.1-1.2,0-1.5c-2.5-4.4-0.8-9.4-2-14.1c-1.1-4.2-2.3-8.7-1.5-13.3
				c0.3-1.5-1-1.3-1.9-1.3c-1.3-0.1-1.6,0.5-1.6,1.7c0,4.1,2,8,1.2,12.2c-0.6,3.2,0.8,6.2,1.7,9.1c0.7,2.4,0.3,5.1,2.3,7.1
				c0.4,0.4,0.8,0.8,1.2,1.2C119.9,596.7,120.2,596.2,120.3,596 M37.9,420.1c-0.1,0-0.3,0.1-0.4,0.1c0.5,1.7,1.1,3.5,1.6,5.2
				c0.4,1.4,0.9,2.7,1.1,4.2c1.5,7.6,4.7,14.3,9.1,20.6c0.2,0.3,0.5,0.6,0.8,0.8c0.2-0.5,0.6-1,0.5-1.5c-1.1-4.8-2.6-9.6-2.3-14.7
				c0-0.2,0-0.4,0-0.6c-1.5-7.1-1.5-7.1-0.1-13c0.1-0.4-0.6-1.5-1-1.6c-1.2-0.1-2-0.4-3.1-1.1c-1-0.6-2.5,0-3.5-1.3
				c-0.5-0.6-1.5-0.7-2.3-1.1c-0.2,0.7-0.4,1.4-0.5,2.1C37.8,418.9,37.9,419.5,37.9,420.1 M46.7,415.2c2,0.3,2.6-0.7,3.2-2.3
				c0.9-2.1,2.3-4.1,3.6-6c0.7-1,0.4-1-0.5-1.3c-2.3-0.8-4.8-1.6-6.9-2.8c-5.1-3-10.2-6-14.1-10.5c-0.2-0.2-0.5-0.2-0.8-0.3
				c-0.1,0.3-0.4,0.7-0.3,1c0.3,1,1,2,1.1,3c0.9,8,5.6,13.3,11.8,17.7C44.7,414.4,45.7,414.7,46.7,415.2 M483.9,593.6
				c-0.5,3.5-0.9,7-1.4,10.5c-0.1,0.5-0.9,1-1.4,1.1c-0.9,0.2-2,0.3-2-1.2c0-1.4,0.1-2.7,0-4.1c-0.1-1.1-0.5-2.1-0.9-3.1
				c-0.1-0.3-0.5-0.6-0.8-0.8c-0.2,0.3-0.5,0.5-0.6,0.8c-0.4,2.2-0.1,4.3-0.8,6.6c-0.8,2.9-1.1,6.1-1.5,9.2
				c-0.3,1.9,0.4,2.2,2.3,1.3c3.6-1.6,5.9-4.7,8.5-7.4c2.8-3,8.4-16,8.9-20c0.2-1.5,0.4-3.1-1.3-4.1c-5.8-3.2-9.2-7.8-9.2-14.7
				c0-0.2-1.4-0.9-1.7-0.7c-0.7,0.5-1.6,1.3-1.7,2.1c-0.5,3.9-0.9,7.8-1.2,11.7c-0.1,1,0.4,2.3-0.1,2.8c-2.2,2.4-0.6,5.2-1,7.7
				c-0.1,0.3,0.3,0.6,0.5,0.9c0.4-0.4,1.1-0.6,1.2-1.1c0.3-1.6,0.4-3.3,0.7-4.9c0.1-0.4,0.7-0.7,1.2-0.8c0.3-0.1,0.8,0.2,0.9,0.4
				C483.6,588.4,484,590.9,483.9,593.6 M41.4,526.7c-0.6,4.6,2.1,8.8,3.7,13.1c1.5,4,3.6,7.8,5.7,11.6c4,7.1,9,13.3,15.2,18.6
				c2.2,1.9,5.1,2.7,7.6,3.9c0.3,0.2,1.2-0.2,1.4-0.6c0.2-0.4-0.1-1.4-0.3-1.5c-4.4-1.6-6-5.8-8.1-9.4c-0.5-0.9-0.4-2.2-0.9-3.1
				c-0.4-0.8-1.5-1.3-2-2.1c-0.9-1.7-1.7,1-2.5-0.1c-1.8-2.4-4.2-4.2-6-6.8c-4.2-6.2-7.7-12.6-9.2-20c-3.3-3.2,0.8-6.2,0.3-9.4
				c-0.1-0.7,2.1-1.9,3.4-2.7c0.5-0.3,1.4,0.2,2,0.5c0.1,0.1,0,1.2-0.3,1.5c-3.6,2.8-3,6.1-1.3,9.6c0.3,0.6,0.3,1.4,0.6,2.1
				c0.2,0.4,0.4,0.8,0.7,1.2c0.2-0.3,0.4-0.6,0.5-1c1-5.8,3.8-11,8.1-14.5c2.2-1.8,4.4-3.5,6.5-5.3c1.9-1.6,2.2-3.3,1.3-5.5
				c-0.8-2-1.6-4-2.5-5.9c-0.7-1.6-1.6-3.1-2.4-4.7c-1.1,1.1-2.2,2.2-3.3,3.3c-0.7,0.7-1.4,1.4-2,2.1c-4.7,4.9-9.9,9.3-13.3,15.4
				C42.5,520,41.2,522.8,41.4,526.7 M116.6,606.6c-0.4-4-2.2-7.9-3.9-11.7c-3.1-7.1-3.2-14.5-2.8-22c0.1-1.5,1.1-3,1.1-4.7
				c0-1.8-0.7-2.8-2.2-3.5c-3.2-1.6-6.6-2.7-9.7-4.6c-3.4-2.1-6.3-4.3-8.3-7.9c-2.1-3.8-5.5-7-7.1-11c-1.6-4-4.4-7.4-5.4-11.7
				c-0.4-1.6-2.1-2.7-2.5-4.8c-0.3-1.5-1.6-3.1-2.4-4.7c-0.8-1.6-1.8-3.1-2.3-4.9c-0.2-0.7-1.1-2.1-2.4-0.5
				c-1.5,1.8-4.1,2.3-5.4,4.6c-1.1,1.9-3,3.4-4.3,5.2c-3.2,4.4-2.8,12.8,0.6,17.3c0.2,0.3,0.5,0.6,0.8,0.8c0.2-0.5,0.6-0.9,0.6-1.4
				c0.1-1.7,0.1-3.5,0-5.2c-0.4-5.4,2.3-9.2,6-12.6c0.4-0.3,1.4-0.6,1.5-0.4c0.4,0.6,0.6,1.3,0.7,2c0,0.5-0.2,1.1-0.6,1.5
				c-2.6,2.4-3,5.4-2.9,8.7c0.1,2.5,0.1,5,0,7.5c-0.1,2.3,1.3,4.1,1.4,6.5c0.1,2.1,1.4,4.5,2.8,6.3c4,5.4,7.2,11.2,10.3,17.2
				c1.5,2.8,1.9,5.8,2.8,8.7c1,3.5-0.5,6.9-2.3,10c-0.7,1.3-2.2,2.3-3.5,3c-2.9,1.5-5.7,3.6-9.3,2.8c-0.4-0.1-1-0.6-1-1
				c0-0.4,0.6-1.3,0.7-1.2c3.8,0.9,5-3.5,8.2-3.9c1.8-0.2,0.9-2.9,1.8-3.8c1.7-1.8,0.5-2.7-0.6-3.7c-1.4-1.2-0.6-2.9-0.8-4.3
				c-0.3-2.4-1.3-3.1-3.6-2.2c-1.4,0.5-2.3,0.4-3.6-0.3c-6.7-3.2-11.6-8.1-16.3-13.8c-5.4-6.6-8.8-14.2-12.4-21.6
				c-2.1-4.3-3.3-9.1-4.7-13.7c-0.4-1.3-0.1-3.1,0.4-4.4c1.8-4.9,3.5-10,7.7-13.7c0.8-0.7,1-2,1.7-2.7c4.2-4.4,8.9-8,13.8-11.5
				c2.3-1.6,2.5-2.4,2.1-5.2c-0.5-3.5-1.9-6.8-1.5-10.5c0.6-4.5-0.6-8.8-3.1-12.6c-0.7-1-1.4-2.3-1.4-3.4c0.1-2.2-1.5-3.3-2.8-4
				c-5.2-2.8-8-7.6-11-12.3c-4-6.2-5.7-13.1-7.4-20.2c-1.1-4.7-1.4-9.4-2.2-14.1c-0.4-1.9-0.6-4-1.5-5.7c-2.6-5-4-10.9-4.4-15.6
				c-0.2-2.1,2.7-3.5,0.7-5.7c-1.2-1.3-1.9-3.1-2.8-4.6c-5.2-7.9-7.9-16.8-11.1-25.6c-0.5-1.4-0.2-3-0.5-4.4
				c-0.2-1.2-0.6-2.4-1.2-3.6c-1.8-3.8,0-8.6-3.3-12c0.3-4-2.1-7.6-1.3-11.6c0.1-0.3,0.8-0.6,1.3-0.7c0.3,0,0.9,0.4,0.9,0.5
				c-0.3,2.5,1.3,4.1,2.2,6.1c0.8,2,1.7,3.9,2.5,5.9c0.9,2.1,1.3,4.6,2.4,6.5c4.4,7.6,9.2,14.9,16,20.6c2.8,2.4,5.7,4.9,8.9,6.4
				c3.4,1.5,6.4,4.4,10.6,3.7c3.7-0.6,7.5,0.8,11.3-0.8c2.1-0.9,4.9-0.2,7.3-0.1c0.1,0,0.4,0.6,0.4,1c0,0.3-0.2,0.8-0.4,0.9
				c-0.3,0.2-0.7,0.1-1.1,0.2c-1,0.2-2,0.5-3,0.7c1.1,0.2,2.3,0.7,3.3,0.4c2.8-0.7,5,1.3,7.7,1.2c3.2-0.1,4.2-0.7,4-3.9
				c-0.3-7.7,2.5-14.6,5.2-21.6c3.9-9.9,8.6-19.3,13.2-28.8c1.5-3,3-6.1,4.2-9.3c1.1-3,2.5-5.9,3.2-9.1c0.1-0.5,0.8-0.9,0.9-1.4
				c0.5-3.9,0.8-7.8,1.2-11.7c0.3-2.6,0.1-5.5,1.3-7.5c1.1-1.9,0.8-3.6,0.9-5.4c0.2-3.5,2.5-6.3,6-6.8c0.2,0,0.7,0.7,0.6,0.9
				c-0.6,1.1-1.4,2.1-2,3.2c-0.8,1.4-2.4,3.2-2.1,4.2c1.2,3-0.6,5.6-0.1,8.4c0.1,0.6,0.6,1.2,0.8,1.8c0.5-0.4,1-0.8,1.4-1.2
				c0.5-0.4,1-0.7,1.6-1.1c0.3,0.8,1,2,0.7,2.4c-2.3,3.4-2.5,7.5-3.7,11.2c-0.9,2.8-1.6,5.6-2.1,8.4c-1.2,6.2-0.2,12.6-1.3,18.7
				c-1,5.9-0.2,11.8-1,17.5c-1.2,9.3-4,18.1-10.8,25.1c-0.8,0.8-1.2,0.8-2.5,0.4c-2.1-0.6-1.6-1.7-1.7-2.9c-0.1-1.3,0.1-2.1,1.8-2.1
				c0.9,0,2.3-0.8,2.7-1.6c2-4.6,4-9.1,5-14.2c1.1-5.9,0.7-11.7,1-17.5c0.2-3.1-1-6.5,1.1-9.4c0.1-0.1-0.5-1.1-0.8-1.1
				c-0.4-0.1-1.3,0.3-1.4,0.6c-1,5.5-4.5,9.8-6.6,14.7c-1.8,4.1-3.2,8.4-5.4,12.2c-2.3,3.9-2.3,8.7-5.2,12.4
				c0.5,5.9-3.5,11.6-0.2,17.6c0.3,0.6,0.1,1.5,0.1,2.3c-0.3,5.7,2.5,10.5,4.9,15.4c0.2,0.3,0.6,0.5,0.8,0.8c0.5,1-0.9,3.2,1.5,2.9
				c1.6-0.2,1.8-1.9,2.2-3.5c2.1-7.4,5.5-14.4,9.3-21.1c3.6-6.4,7.5-12.7,10.7-19.4c3.2-6.6,5.6-13.5,5.4-21c-0.1-2.3-0.1-4.6,0-7
				c0.1-3.7-1.2-7.2-2-10.8c-0.4-2,0.2-4.3-0.5-6.2c-1.1-3.2-0.1-5.8,1.2-8.5c1-1.9,2-3.7,4.5-3.6c0.5,0,1,0.4,1.3,0.8
				c0.2,0.2,0,0.7-0.1,1.1c0,0.2-0.2,0.3-0.4,0.4c-4.2,3.3-3.6,7.6-2.1,11.8c0.8,2.1,0.1,4.2,1.2,6.5c1.7,3.4,2.1,19.6,1.3,23.2
				c-0.7,3.3-1.7,6.6-3,9.8c-1.6,4-3.5,7.8-5.5,11.6c-2,3.6-4,7.2-6.2,10.8c-2.1,3.5-3.9,7.3-5.9,10.9c-1.9,3.5-3.4,7.6-4.6,11.4
				c-0.9,3-2.3,6.2-2.5,9.4c-0.3,5.8-0.6,11.7,0.1,17.4c0.3,3,2.4,6,4.2,8.6c1.6,2.3,4,4.2,6.1,6.2c0.4,0.3,1,0.6,1.5,0.5
				c0.3-0.1,0.8-0.8,0.8-1.2c-0.2-1.8,0.8-3.2,1.1-4.8c0.4-2.1,2.6-4.2,0.2-6.7c-0.5-0.5,0.7-2.6,1-4c0.5-2.3,1-4.7,1.1-7.1
				c0.2-2.4,1.2-4.5,2.1-6.7c0.8-2.2,1.3-4.5,2.1-6.7c1.8-5.3,4.1-10.3,6.8-15.2c2-3.7,3.7-7.7,5.3-11.7c1.6-4,3.2-8,4.7-12
				c1.8-4.9,2.3-10.2,4.5-15c0.1-0.3,0.1-0.7,0.1-1.1c0.4-4.7,0.7-9.4,1.2-14c0.2-2,0.8-3.9,1.1-5.9c0.6-3.2-0.7-6.3-1.2-9.4
				c-0.5-3.1,1.2-6.5-1.1-9.4c0.8-5.1-2.4-9.7-2.3-14.7c0-0.5-0.1-1.1-0.3-1.6c-2-4.4-1.9-9.3-3.4-13.7c-1.4-4.2-0.6-8.4-1.9-12.5
				c-1.2-3.9-0.4-8.4-0.2-12.7c0.2-4.3,0.8-8.6,1.1-12.9c0.2-2-0.5-2.5-2.3-1.3c-0.7,0.5-1.7,0.5-2.6,0.6c-2.2,0.3-4.5-0.7-6.4,1.4
				c-1.4,1.5-3.8,2-5.6,3.2c-6.6,4.3-11.9,9.9-17.4,15.3c-3.3,3.2-10.8,8-15.7,9.8c-1.2,0.4-2.6,0.3-3.9,0.5c-0.2,0-0.5,0.6-0.5,0.9
				c-0.1,0.3,0,0.9,0.2,1c3.7,1.6,7.5,3.5,11.6,2.6c2.9-0.6,5.9-2.2,7.2-4.8c1.4-3,4.1-4.1,6.3-6c4.4-3.7,10.2-4.3,15.3-6.5
				c1-0.4,2.3-0.1,3.5,0c0.4,0,0.8,0.6,1.2,0.8c-0.4,0.5-0.7,1.2-1.2,1.4c-1,0.3-2.4,0-3.2,0.6c-4.9,3.1-10.8,4.5-14.9,8.9
				c-1,1.1-1.7,1.8-0.4,3c0.1,0.1-0.6,1.1-1.1,1.4c-1.5,1-3.2,1.8-4.6,2.9c-1.9,1.6-4,2.4-6.3,3.1c-2,0.6-4.3,0.9-6,2.2
				c-1.6,1.3-3.3,2.3-5.5,2.2c-0.3,0-0.5,0.4-0.8,0.6c0.3,0.2,0.6,0.4,0.9,0.5c2,0.9,3.7,1.3,6.2,0.6c5.1-1.6,10.4-2.9,15.3-5.1
				c0.7-0.3,1.5-0.2,2.3-0.1c0.3,0,0.7,0.5,0.7,0.7c0,0.5-0.4,1.5-0.5,1.5c-2.9-0.7-3.5,3.4-6.3,2.9c-1.6,2.4-4.5,2.2-6.8,3.2
				c-3.6,1.7-7.1,3.2-11.5,1.2c-3-1.4-6.9-0.9-10.5-1.4c-2.9-0.4-6.1-0.3-8.8-1.3c-3.7-1.4-7.7-1.6-11.4-3.2
				c-3.6-1.6-7.3-3-10.5-5.4c-0.5-0.3-1.3-0.1-2-0.2c0,0.5-0.3,1.2,0,1.5c1.1,1.7,2.2,3.6,3.7,4.8c6.6,5.2,13.9,8.9,22.2,10.9
				c8.2,1.9,16.2,4.8,23,10.1c2.2,1.7,4.4,3.5,6.4,5.4c0.2,0.1-0.5,1.7-0.7,1.7c-2.2-0.3-4.6-0.2-6.4-1.2c-1.7-0.9-3.2-1-4.8-1
				c-3.9,0-7.7,0.1-11.6,0c-4.9-0.2-9.8-0.6-14.6-1.2c-2.3-0.3-4.5-1.3-6.6-2.3c-5.6-2.5-11.7-3.9-16.4-8.1c-2,0.4-1.1-1.6-1.9-2.2
				c-0.3-0.2-0.4-0.5-0.6-0.8c0.5-0.2,1.1-0.5,1.5-0.4c0.8,0.2,1.6,0.8,2.4,1.1c6.8,2.6,13.7,5.2,20.6,7.8c0.3,0.1,0.7,0.3,1,0.3
				c6.4,0.4,12.8,0.8,19.3,1.1c0.5,0,1-0.4,1.5-0.5c-0.5-0.2-1-0.4-1.5-0.6c-3.4-1.6-7.2-2.4-10.7-3.6c-5.4-1.9-11-3-16-6.2
				c-4.1-2.6-7.5-5.6-10.8-8.9c-3.6-3.7-3.6-7.4-1.6-11.7c0.6-1.3,1.3-1.2,2.3,0c0.4,0.5,0.9,1.4,1.2,1.3c2.7-0.4,4.5,0.8,6.7,2.3
				c2,1.3,4.7,1.7,7.1,2.4c0.3,0.1,0.7-0.2,1-0.3c-0.1-0.3-0.2-0.6-0.4-0.8c-0.9-1-1.8-2.1-2.9-2.9c-1.6-1.1-1.2-2.7-1.1-4.2
				c0-0.4,0.6-1,0.9-1c0.4,0,1.1,0.3,1.3,0.7c1.6,3.7,5,4.9,8.4,6.3c3.3,1.4,6.5,2.2,10.1,2.3c3.3,0.1,9.2-0.3,11.2-1.4
				c0.2-0.1,0.4-0.6,0.4-1c0-0.3-0.2-0.9-0.4-1c-7.4-2.3-13.9-6.6-21.1-9.4c-4.2-1.6-7.4-4.6-11.1-6.8c-1.4-0.8-2.4-1.6-4.1-1.5
				c-0.6,0-1.6-0.4-1.9-0.9c-0.5-0.9-0.6-2-0.9-3.1c1-0.1,2.1-0.4,3.1-0.4c0.4,0,0.8,0.8,1.2,1.2c0.4,0.3,0.8,0.4,1.2,0.6
				c0.1-0.5,0.4-1.3,0.2-1.6c-1.5-2.4-1.1-5.1-1.1-7.7c0-0.3,0.4-0.8,0.7-0.8c0.5,0,1.4,0.2,1.5,0.5c0.5,2.3,2.3,3.8,3.2,5.6
				c2.6,5.3,7.7,7.2,12.3,9.6c1.5,0.8,3.7,0.3,5.6,0.5c3,0.4,8-0.3,10.8-0.9c5.6-1.2,9.7-5,14-8.3c5-3.9,9.6-8.4,14.7-12.2
				c3.6-2.6,7.7-4.7,11.9-6.1c3.1-1,6.7-0.9,10.1,0.2c2.9,1,3.6,0.6,4.6-2c2.9-7.3,6-14.4,11.6-20.1c0.7-0.7,1-2,1.7-2.7
				c0.4-0.4,1.6-0.3,2.2,0c0.4,0.2,0.6,1.3,0.4,1.8c-0.3,1-0.8,2.1-1.6,2.8c-3.4,2.8-5,6.7-6.9,10.5c-1.8,3.7-3.5,7.4-4.2,11.7
				c-0.7,4.3-1.9,8.6-2.1,13c-0.2,4.4-0.6,9,0.2,13.3c0.5,2.6,0.8,5.1,1,7.7c0.2,2.4,0.6,4.7,1.1,7.1c1.3,5.5,2.5,11,3.8,16.4
				c0.7,3.2,2,6.2,2.1,9.6c0,1.8,0.8,3.5,1.1,5.3c0.2,1.6-0.2,3.3,1.1,4.8c0.5,0.5,0.1,1.9,0.1,2.8c0,3.9-0.1,7.7,0,11.6
				c0.1,5.8-1.2,11.4-2.2,17.1c-1.3,7.7-3.2,15.2-6,22.5c-2.8,7-5.4,14-9.5,20.5c-1.7,2.7-3,5.7-4.2,8.7c-1.2,2.8-2.9,5.5-3.6,8.4
				c-1.6,6.7-4.4,13.1-4.7,20.1c-2,3.1-1,6.6-1.1,10c-0.1,5.2,0,10.4-0.1,15.7c0,0.4-0.5,0.9-0.8,1.2c-0.2,0.1-0.8,0-1-0.2
				c-1.5-1.5-3.3-2.6-2.8-5.2c0.6-2.7-0.7-4.2-3.3-5.6c-7.1-3.9-11.6-10.3-13.4-18c-1.2-5-3.6-10.2-0.8-15.7c1-2-1.2-4.1-1.5-6.2
				c-3.2-0.9-3.8-4.2-5.1-6.5c-2.1-3.5-3.2-7.5-4.6-11.4c-0.3-0.8-0.2-1.9-0.2-2.8c-0.3-3.2-0.8-3.9-4.2-3.7
				c-2.6,0.1-5.1,0.7-7.6,1.1c-2.4,0.4-5-1-7.2,1c-0.3,0.2-1.3,0.2-1.5-0.1c-1-1.4-2.5-0.8-3.7-0.9c-2.1-0.1-4.7,0.7-6.3-0.2
				c-2.1-1.2-4-0.7-6-1c-2-0.3-4-0.5-5.9-1.2c-2.9-1.1-6-2.6-7.4-5.4c-2.8-5.6-7.6-9.3-11.7-13.7c-0.2-0.2-0.5-0.2-0.8-0.3
				c-0.1,0.3-0.4,0.8-0.3,1c0.5,1.5,0.9,3.2,1.8,4.5c2.1,3,2.4,6.7,4.8,9.7c2.1,2.6,3.1,6.1,5.1,8.9c4.9,7.1,10.5,13.5,18.4,17.5
				c0.8,0.4,1.5,1.1,2.3,1.5c1.3,0.6,2.6,1.5,4,1.6c1,0.1,2.2-0.8,3.2-1.4c5.8-3.3,7.7-3.3,14.2-2.2c5.3,0.9,9.7,3.8,14.7,5.1
				c0.3,0.1,1,0.3,1,0.3c-0.7,2.4,3.4,1.6,2.5,3.4c-1.1,2-2.7,0.2-4.2-0.2c-4.7-1.2-9.2-4-14.2-3.4c-1.9,0.2-2.6-2.3-4.6-1
				c-1.3,0.8-3.2,0.7-4.7,1.3c-5.2,2.1-6.7,6.9-8.2,11.6c-0.7,2.3-1,4.7-1.2,7c-0.2,2.3-0.4,4.7,0,6.9c0.9,4.8,1.5,9.7,2.8,14.5
				c1.9,7.7,5.3,14.8,8.2,22.1c1,2.5,2,5.1,1.7,8c-0.2,1.9-0.2,3.9,0,5.8c0.2,1.6,0.7,3.2,1.1,4.7c0.1,0.3,0.3,0.7,0.4,1
				c0.2-0.4,0.7-0.8,0.7-1.2c-0.3-2.2-1-4.3-1.1-6.5c-0.2-3.7-0.1-7.3,0-11c0.1-3.2,1.8-6.1,1.2-9.4c0-0.2,0.8-0.8,1.2-0.7
				c0.4,0,1,0.6,1,0.9c0,5.9,1.8,11.6,1.3,17.5c-0.4,4,2.7,12.5,5.2,16.4c1.7,2.7,3.2,5.6,5,8.4c1.2,1.9,2.7,3.5,4.1,5.3
				c1.2,1.6,2.5,3.2,3.7,4.9c1.4,1.8,2.7,3.6,4.1,5.2c1.4,1.6,2.8,3.3,4.5,4.5c1.9,1.2,1.7,4.2,4.4,4.5c-0.1,0.7-0.2,1.9-0.3,1.9
				c-1.6,0-3.3,0.5-4.8-1.1c-4.2-4.5-9-8.6-13-13.2c-4.6-5.3-8.6-11-12.3-16.9c-1.2-1.9-2-4.2-2.9-6.3c-0.3-0.6-0.5-1.1-0.8-1.6
				c-0.1,0.7-0.4,1.5-0.4,2.1c0.1,0.9,0.5,1.7,0.8,2.6c2.3,6.6,5,13,7.4,19.6c1.5,4.2,3.8,8.1,5.7,12.1c2.8,6,5.3,12.1,8.2,18.1
				c4.4,9.2,11.8,15.4,21.2,19.2c1,0.4,2.2,0.4,3.3,0.3c0.4,0,1.1-1.2,1-1.5c-1.7-3.8-0.2-8-1.3-11.7c-1.7-6.1-0.5-12.1-1-18.1
				c-0.4-4.9-0.9-9.7-1.1-14.6c-0.2-4.8,0.1-9.7-0.1-14.5c-0.1-1.8-1.3-3.7-1-5.3c2-11.2,0.6-22.5,1.1-33.8c0-0.5,0.8-0.9,1.3-1.4
				c0.3,0.6,1,1.1,1,1.7c0.1,4.4,0,8.9,0,13.3c0,3.7-0.1,7.4,0,11c0.1,2-0.4,3.9,0.9,6c0.9,1.4,0.3,4.2-0.4,6
				c-0.5,1.3-0.5,1.8,0.2,2.9c1.2,1.9,1.7,4,1.5,6.3c-0.2,3.1-0.6,6.3,0.1,9.2c1.4,5.8,0.2,11.8,1.2,17.5c1,5.3,0.1,10.7,1.2,15.8
				c0.9,4.2,0.8,8.2,0.9,12.3c0.1,2.2,1.7,4.1,1.3,6.5c-0.3,1.9-0.8,4.2,1,5.9c0.1,0.1,0,0.4,0,0.6c-0.6,5.1,1,9.9,2.3,14.7
				c1.2,4.3,2.3,8.7,4,12.8c4.7,10.9,9.8,21.5,15.5,31.9c6.1,11.1,12.7,21.9,19.7,32.5c3.1,4.7,7.1,8.8,9.6,14
				c0.3,0.7,1.1,1.1,1.6,1.7c2.6,2.8,5.4,5.2,7.5,8.5c1.2,1.9,3,3.7,5.5,4.7c1.8,0.7,3.1,2.9,4.6,4.4c5.1,5.1,10.1,10.1,15.2,15.2
				c5.3,5.3,11.6,9.4,17.3,14.1c6.6,5.4,13.8,9.4,21.4,13c5,2.4,10.4,3.8,15.8,5.4c4.7,1.4,9.7,1.5,14.3,3.3c0.3,0.1,0.8,0,1.2,0
				c8.5,0.4,17,1.7,25.6,1.2c4-0.2,8.1,0.1,12.2-0.1c2.6-0.1,5.1-0.7,7.6-1.1c2.5-0.4,5.3,0.9,7.7-1.1c0.6-0.5,1.9-0.2,2.8-0.1
				c3.4,0.4,6.7-0.7,10-1.1c3.1-0.3,6-1.8,9-2.1c4.8-0.5,9.2-2.1,13.6-3.8c3.6-1.5,6.8-3.6,9.5-6.5c3.9-4.3,8.1-8.3,12.3-12.3
				c5.8-5.7,11.2-11.7,16-18.3c0.8-1.1,1.9-1.9,2.9-2.9c4.5-4.3,8.6-8.9,11.9-14.2c0.5-0.8,1.3-1.4,2-2.1c4.5-4.3,8.6-9,11.9-14.2
				c0.5-0.8,1.3-1.4,2-2.1c4.5-4.3,8.4-9,12-14.2c2.1-3.1,5.2-5.5,7.2-8.6c3.7-5.7,6.6-12,8.4-18.5c1.4-5.2,3.1-10.4,3.8-15.9
				c0.4-3.1,1.2-6.4,2-9.5c0.8-3.2,0.3-6.8,1.4-9.9c1.1-3.2,0.2-6.5,1.2-9.4c1-3,0.3-6.1,1.1-8.8c1-3.2,0.4-6.4,1.2-9.4
				c0.9-3.2,0.3-6.5,1.1-9.4c1.6-5.5,1.4-11.2,3.2-16.6c1.1-3.3,0.6-7,1.4-10.5c0.6-2.9,0.5-6,1.3-8.8c0.8-2.8,0-6,2.1-8.4
				c-0.8-3.5,1.1-6.6,1.2-10c0.1-2.4,0.8-4.7,1.1-7.1c0.2-2.2,0.4-4.3,1-6.5c1.1-3.5,1.1-7.4,1.3-11.1c0.1-2.6,1.9-4.9,1.3-7.7
				c-0.5-2.4,1.2-4.5,1.7-6.8c0.3-1.4,0.6-2.9,0.6-4.4c0.1-6.6,0-13.2,0.1-19.7c0-0.5,0.8-0.9,1.2-1.4c0.4,0.5,1,1.1,1,1.6
				c0.1,9.9,0,19.7,0,29.6v1.2c0,1.8-2.4,2.7-1.6,5.1c0.6,2,0.1,4.4-0.1,6.6c-0.1,2-0.1,4.2-0.7,6.1c-1.9,6.4-0.7,13.3-3.4,19.5
				c0.9,4-1,7.8-1.3,11.7c-0.2,3.6-0.6,7.3-1.9,10.8c-0.4,1-0.3,2.2-0.3,3.4c0.1,4-1.9,7.7-1.2,11.7c-2.2,2.5-0.4,5.6-1.2,8.2
				c-0.8,2.5-1.2,5-1.1,7.7c0,0.4,0,0.8,0,1.2c0.1,1.5,1,1.4,1.9,1c1.1-0.6,2.3-1.2,3.2-2c6.6-6.1,11.6-13.2,14.7-21.8
				c1.1-3,3-5.8,5.1-8.3c2.5-3,4.5-6.2,6.5-9.5c3.2-5.1,4.9-10.8,6.6-16.4c0.2-0.5,0.3-1.1,0.3-1.6c0.4-3.9,0.9-7.8,1.1-11.7
				c0.2-4.1,0-8.1,0-12.2c0-5,0.2-10.1-0.1-15.1c-0.1-2.9,0.5-5.6,1.3-8.2c2.2-6.7,3.8-13.5,5.7-20.3c1.4-5,2.6-10.1,3.9-15.2
				c0.9-3.6,2.1-7.1,1.9-10.8c-0.1-1.9-0.3-3.7-0.5-5.6c-2.3,0-5.1-0.9-6.9,0.1c-4.5,2.5-9.6,3.2-13.9,5.7c-1.1,0.6-2,1.7-3.1,2.2
				c-0.5,0.3-1.4-0.1-2.1-0.4c-0.2-0.1-0.1-1.2,0.1-1.5c1.6-1.3,1-2.6-0.3-3.2c-5.7-2.8-7.5-8.1-9.3-13.5c-1.1-3.3-2.2-6.5-2.3-10.1
				c-0.1-2.4-0.8-4.7-1.1-7.1c-0.2-2.4,0.3-4.8-1.1-7.1c-0.6-1.1-0.3-2.8,1-4.2c0.9-0.9-0.8-3.7,1-3.8c3-0.1,0.9,2.6,1.3,4
				c0.7,2.6,2.1,4.9,2.6,7.7c0.9,4.6,2,9.2,3.2,13.7c0.9,3.4,3.7,9.4,5.8,12.1c1.6,2.1,3.9,2.3,5.7,1.6c7.2-2.7,14.7-5.2,20.3-12
				c0.1-0.4-0.1-0.2-0.3,0c0.2,0.2,0.3,0.3,0.5,0.5c0.2-0.2,0.4-0.4,0.5-0.7c0,0-0.2-0.2-0.7,0.2c-1.3,0.5-2.5,0.2-3.2,0.6
				c-6.5,4-13.3,2.5-20.1,1.1c-3.6-0.7-5.7-3.2-7.1-6.3c-0.2-0.4-0.1-1.2,0.2-1.5c0.3-0.3,1.1-0.3,1.5-0.1c0.8,0.3,1.8,0.6,2.4,1.2
				c2.5,2.8,6,2.4,9.1,3.2c1.4,0.3,2.9-0.5,4.3,0.8c1.5,1.4,2.4-1.5,3.9-1c0-0.3,0.1-0.7,0-0.8c-1.2-0.9-2.3-2.2-3.6-2.4
				c-3.6-0.4-5.7-3.1-8.4-5c-2.8-1.9-4.7-4.6-6.7-7.1c-2.3-2.8-3.5-6.5-2.8-10.4c0.1-0.4,0.7-0.9,1.1-0.9c0.4,0,1.2,0.6,1.1,0.8
				c-0.5,3.6,2.2,5.8,4,8.2c3.4,4.6,8.3,7.8,13.1,10.4c3.5,1.8,7.3,3.6,11.8,3.9c5.1,0.4,8-2.2,10.5-5.5c1.6-2.1,2.7-4.7,3.7-7.1
				c1-2.3,3.8-3.7,3.4-6.8c0-0.1,1-0.6,1.4-0.5c0.3,0.1,0.7,0.7,0.8,1.2c0.5,3.6-0.5,7.1-1.8,10.3c-1.9,4.7-4.3,9.3-8.1,12.9
				c-0.8,0.7-1,2-1.7,2.7c-2.1,2.1-3.9,4.6-6.8,5.9c-1.8,0.8-1.7,1.8,0.2,2.9c2.1,1.3,3,3.3,3.1,5.5c0.2,6.5-0.3,12.9-1.9,19.4
				c-1.4,5.4-2.5,11-3.8,16.4c-1.3,5.3-2.5,10.5-4.2,15.7c-1,3.1-1.5,6.5-1.6,9.8c-0.2,9.9-0.1,19.7-0.1,29.6
				c0.1,7.5-3.3,14.1-4.7,21.3c-2.7,1.5-2.1,5-4.3,7c-2,1.7-3,4.5-4.6,6.7c-3.5,4.9-7.5,9.4-9.7,15.1c-1.2,3.2-3.3,6.1-5.8,8.6
				c-1.4,1.4-2.3,3.4-3.8,4.8c-1.4,1.4-3.3,2.4-4.8,3.8c-2.3,2.2-2.2,4.7-0.7,7.5c2.1,4,5.5,6.5,9.2,8.6c1.4,0.8,1.9,1.4,0.8,2.3
				c-1.7,1.4-1.8,3.1-1.8,5.1c-0.2,8.6-3.7,15.9-9.2,22.3c-2.1,2.4-4.4,4.7-7.2,6.3c-1.2,0.7-2.4,0.9-3.5,1.5
				c-2.7,1.3-6.2,2.3-5.6,6.6c-2.3,7.2-4.2,14.5-7.1,21.4c-1.8,4.3-5,8-7.9,11.8c-3.9,5-8.4,9.6-12.2,14.7c-1.6,2.2-2.7,4.9-3.1,8
				l-10.5,8.8c-0.4,1.2-1.8,2-2.8,2.9c-1.9,1.9-4.2,3.6-5.7,5.8c-3.8,5.7-8.3,10.7-13.2,15.4c-1.1,1.1-2.4,2-3.2,3.3
				c-3,4.8-7.1,8.7-10.8,12.9c-4.8,5.3-10.2,10-15,15.3c-2.6,2.9-6.4,3.7-9.1,6.2c-1.4,1.3-20.4,5.6-22.5,5.9
				c-3.7,0.5-7.3,1.5-11.1,1.4c-0.1,0-0.3,0.6-0.4,0.9h-62.7c-0.3-0.4-0.6-1.1-0.9-1.1c-1.3-0.1-2.7,0.1-4-0.1
				c-1.4-0.2-2.8-0.9-4.2-1.1c-5.9-1-11.7-2.8-17.1-5c-10.2-4.2-19.7-10-28.4-16.8c-5.9-4.6-11.8-9.4-17.1-14.7
				c-11.9-12.1-25-23.1-35-37c-4.5-6.2-8.8-12.6-12.9-19c-2.9-4.6-5.6-9.2-8.3-13.9c-2.4-4.2-4.6-8.5-6.8-12.8
				c-1.9-3.9-4.2-7.5-5.8-11.5c-1-2.5-2.8-4.6-3.5-7.2c-0.9-3.2-2.6-6.3-4-9.4c-0.2-0.5-0.8-0.8-1.2-1.2c-0.2,0.5-0.5,1-0.5,1.5
				c-0.1,0.8,0,1.5,0,2.3"/>
			<path id="Fill-3" class="st0" d="M342,128.5c0-2.6,0.2-4.7,0-6.8c-0.2-2.2-0.7-4.3-1.1-6.5c-0.3-1.4-0.7-2.8-1.1-4.2
				c-0.3-1.1,0.8-2.5-0.8-3.4c-0.3,1-0.2,2.4-0.9,3.1c-1.3,1.4-0.5,2.9-0.7,4.4c-0.6,7,0.9,14-1.1,21c-1.2,4.2-2.4,8.3-5.1,11.8
				c-0.8,1-1.4,2.1-1.9,3.2c-0.2,0.4,0.3,1.4,0.4,1.4c1.8,0,3.7,0.7,5.5-0.5c4.1-3,5.9-7.5,7.9-11.8c0.2-0.5,0.3-1.3,0-1.7
				C340.9,135.2,342.7,131.5,342,128.5 M159.6,99.3c2.9,0,5.8,0,8.7,0c4.7-0.1,9.2,0,13.6,2.2c3,1.5,6.3,2.6,7.9,5.5
				c1.9,3.5,4.7,6.2,7.7,8.2c3.9,2.6,7.1,5.6,10,9.1c1,1.2,1.9,2.5,2.9,3.8c0.9-2-0.8-3.2-1.6-4.8c-0.8-1.8-1.6-3.6-2.6-5.3
				c-2.6-4.3-5.1-8.5-9.9-10.9c-2.1-1.1-3.8-2.9-5.7-4.4c-3,0.9-4.1-3.4-7.1-2.4c-1-2.6-4.1-1.5-5.6-3.3c-1.6-1.9-4.8-1.1-6-3.6
				c-3,0.3-5.1-2-7.3-3.2c-2.4-1.3-5-1.8-7.4-3.3c-4.2-2.6-8.9-4.5-13.4-6.7c-2.5-1.2-5.2-1.6-7.4,0.2c-5.4,4.3-10.6,8.9-15.9,13.5
				c-0.5,0.4-0.6,1.1-1,1.6c0.5,0.1,1.1,0.3,1.6,0.2c5.3-0.8,10.4,1.4,15.7,1.2c5.8,3,12,2.3,18.1,2.3
				C156.6,99.3,158.1,99.3,159.6,99.3 M177.3,57.6c-4.3-0.4-8.1,1.1-12,3c-4.9,2.4-9.4,5.5-13.9,8.4c-2.8,1.8-5.4,3.8-8.1,5.8
				c-0.5,0.4-0.7,1.3-0.8,1.9c0,0.1,0.9,0.7,1.4,0.6c2.3-0.5,4.4,0.7,6.5,1.3c1.7,0.5,3.2,1.7,4.9,2.2c10.1,2.8,19.5,7.2,28.9,11.6
				c4.9,2.3,9.8,4.4,14.5,6.9c3.1,1.6,5.3,4.2,7.8,6.5c0.2,0.2,0.7,0.2,0.8,0.2c0.2-0.3,0.4-0.8,0.3-1c-2.2-3.8-4-7.7-6.8-11.2
				c-2.4-3-4.8-5.5-8.2-7.2c-6.6-3.2-13.7-5.2-20.4-8.2c-4.4-2-8.6-4.3-11.7-8.2c-0.1-0.1-0.4-0.3-0.4-0.4c0-0.9,0.2-1.8,0.2-2.7
				c0.7,0.1,1.4,0.1,2,0.3c3.2,1.2,6,3,9.3,4.2c6.3,2.2,12.8,3.7,19.1,5.7c4.4,1.4,8.7,3.5,11.5,7c3.6,4.6,7.3,9.4,9,15.4
				c1.1,4,2.5,7.7,2.2,10.7c-0.4,4.2-0.4,4.2,1.2,7.3c0.8,1.6,1.7,3.2,2.3,4.8c3.2,8.2,5.8,16.5,5.8,25.4c0,0.3,0.2,0.7,0.3,1
				c0.3-0.1,0.6-0.1,0.8-0.3c0.8-0.8,2-1.5,2.3-2.5c1.5-5.2,3.7-10.3,3.6-15.9c-0.1-2.4-0.7-4.8-1-7.1c-0.8-6.8-3.3-13.2-6.6-18.8
				c-4.3-7.3-8.6-14.8-14-21.6c-5.3-6.6-10-13.5-16.2-19.4C187.7,59.6,183.1,57,177.3,57.6 M405,54.1c-0.1,0-0.2,0-0.3,0
				c0-2.3,0.2-4.7,0-7c-0.2-2.2-0.6-4.3-1.1-6.5c-2-8.2-7.7-14.1-15.6-13.2c-4,0.4-7.7-1.7-11.7-1.2c-6.2-2.9-12.8-4.7-19.3-6.5
				c-4.4-1.2-8.9-2-13.4-2.7c-2-0.3-4.1,0.3-6.1,0.5c1.4,1.4,2.8,2.7,4.1,4.1c1.2,1.4,2.2,3,3.3,4.4c4.5,5.7,3.5,12.8,5.4,19.2
				c-2.4,2.9-0.6,6.3-1.1,9.4c-0.2,1.1,0.5,2.8-0.1,3.4c-1.8,2-0.9,4.6-2.1,6.7c-1.1,2.2-0.9,5-1.3,7.6c-0.4,2.4-0.3,4.9-1.3,7
				c-1.1,2.6-0.2,5.5-1.2,7.6c-1.5,3.1-1.4,6.2-0.7,8.8c0.7,2.6,0.2,5.3,1.1,7.7c0.9,2.6,1,5.1,1,7.7c0,0.6-0.1,1.2,0.1,1.7
				c1.6,4.2,2.3,8.5,2.2,13c-0.1,2.7,0.2,5.4-0.1,8.1c-0.3,3.5-0.5,7.1-1.6,10.3c-0.8,2.1-1,2.6,1.4,2.7c1.5,0.1,1.8,1,1,2.2
				c-1.6,2.2-4.2,2.8-6.4,4.1c-0.5,0.3-0.8,0.8-1.2,1.2c0.5,0.2,1,0.6,1.5,0.6c4.8,0,9.7,0,14.5,0c0.7,0,1.5,0,2.2-0.2
				c9-2.6,15.8-8.5,21.1-15.7c6-8.3,9.4-18.1,12.9-27.7c1.9-5.4,3.8-10.8,5.2-16.4c0.9-4,2.4-7.9,3.6-11.8c1.2-4.2,1.8-8.5,2.7-12.8
				C404.6,65.1,404.5,59.5,405,54.1 M211.2,132.3c0.5-0.6,0.8-0.8,0.8-1c0-0.5-0.2-1-0.3-1.5c-0.3,0.1-0.7,0.1-0.7,0.2
				c0,0.6,0.1,1.2,2.4,3.7c-0.3-0.6-0.5-1.2-0.8-1.8c-0.2,0.4-0.6,0.8-0.5,1.1c0.1,0.8,0.4,1.5,0.6,2.3
				C212.9,134.7,213.1,134.3,211.2,132.3 M327.3,140.9c-1.2,1.7-2.1,1.8-2.9,2.2c-2.6,1.3-4.9,3.1-7.6,4c-2.7,0.9-4.7,3.5-7.9,3.4
				c-3.6,3.5-8.6,5.3-11.8,9.4c-1.4,1.7-2.2,1.4-2.6-1c-0.3-1.6-0.8-2.1-2.1-1.1c-0.8,0.6-1.7,1.4-2.3,0.3c-0.4-0.6-0.3-2,0.1-2.6
				c1-1.4,2.3-2.6,3.6-3.7c1.4-1.2,2.9-2.2,4.4-3.3c1.3-1,2.8-1.8,4-2.9c4-3.5,8.3-6.7,11.7-10.8c3-3.5,5-7.7,6.2-12.5
				c1.1-4.5,1.4-9.1,0.9-13.5c-0.9-6.8-2.6-13.5-5.1-19.9c-3.5-8.8-7.9-17.3-10.3-26.5c-0.3-1-0.7-2.1-0.7-3.2
				c-0.1-4.3-0.4-8.6,0.1-12.7c0.4-3.2,0.7-6.4,2.1-9.5c0.9-2.1,0.8-4.7,1.3-7c0.1-0.5,0.8-0.9,1.2-1.4c0.3,0.3,1,0.7,1,1
				c0.1,2.9,0.2,5.8,0,8.7c-0.2,2.8,1.1,5.7-1.1,8.3c-0.2,0.2,0.2,1,0.3,1.5c0.3,1.2,0.8,2.5,0.7,3.7c-0.1,6,0.5,11.8,4.6,16.7
				c-0.2,3.2,2.5,5.1,3.4,7.9c0.9,2.9,2.6,5.5,3.6,8.3c1,2.7,1.4,5.6,2.5,8.3c1.2,2.9,1.6,6,2.4,8.9c1.2,4.5,0.6,9,1.1,13.5
				c0.5,4.6-0.8,9-2.6,12.9c-1.5,3.2-3,6.8-6,9.1c-0.3,0.2-0.5,0.5-0.8,0.8c0.5,0.2,1,0.6,1.5,0.5c1.6-0.2,3.4,0.7,4.8-1
				c1.1-1.4,2,2,3.2,0.3c1.3-1.8,2.3-3.7,2.1-6.1c-0.2-1.9,0-3.9,0-5.8c0-7.9-0.3-15.9,0.1-23.8c0.4-6.5-2.1-12.3-4.3-18
				c-2-5.3-3.2-10.7-4.2-16.3c-1.2-6.9-0.8-13.6-0.9-20.4c-0.1-6.1,1.6-11.9,3.8-17.5c0.6-1.7,2.1-3,3.2-4.4
				c0.3-0.3,1.4-0.6,1.4-0.5c0.4,0.6,0.5,1.3,0.7,2c0.1,0.2,0.1,0.5,0,0.6c-2.3,2.8-1.9,6.2-2.4,9.5c-1.2,7.7-1.5,12.6,0.1,19.9
				c0.2,0.7,0,1.5,0,2.3c-0.3,8.6,2.5,16.5,5.8,24.3c2,0.7,0.8,2.7,1.5,4c0.6,1,0.5,2.5,0.8,3.7c0.1,0.3,0.3,0.6,0.5,0.9
				c0.2-0.3,0.6-0.6,0.6-0.8c-0.5-5.5,1.6-10.6,2.5-15.8c0.8-4.2,1.8-8.5,2.9-12.7c0.9-3.4,1.1-6.9,1.5-10.4c0.4-2.9-0.6-5.9,1-8.9
				c0.5-0.9-1.1-2.9-1-4.6c0.1-2.4-0.5-4.7-0.9-7.1c-0.8-5.2-4.6-8.3-7.3-12.1c-0.7-1-2.2-1.4-2.8-2.9c-0.3-0.6-1.5-1.2-2.3-1.2
				c-2.9-0.1-6.3-1-8.6,0.2c-2.5,1.3-5.4-0.3-7.4,1.8c-8.1,1.2-15.1,5-21.5,9.7c-5.7,4.1-11.7,8-15.5,14.4c-1.3,2.2-3.4,4.1-5.1,5.9
				c-2.1,2.3-1.3,3.9-0.6,5.8c1.9,5.2,3.1,10.7,5.8,15.6c1.9,3.5,3.9,7,6.2,10.2c5.1,7,8,14.8,10.2,23.1c1.4,5.2,1.4,10.3,0.7,15.2
				c-0.9,6.3-4.4,11.8-10,15.2c-4.9,3-10.2,5.5-15,8.6c-5.7,3.7-12.2,6.4-15.4,13c-2.6,0.2-2.2,4.3-5.2,4c-0.6,1.9-1.3,3.8-1.7,5.7
				c-0.3,1.5,0,3.1-0.1,4.6c0,0.4-0.4,1.1-0.8,1.2c-0.4,0.1-1.1-0.2-1.5-0.5c-1.4-1.5-1.7-4.2-4.5-4.5c-0.1,0-0.2-1.1,0-1.5
				c3.6-6.1,4.5-8.8,4.4-14.4c-0.1-3.5,0.5-7.1-0.9-10.6c-0.6-1.5-1.2-4.2,0.8-5.9c0.1-0.1,0.2-0.3,0.2-0.5c0.6-7.9,2.1-15.9,1-23.9
				c-1.1-8.2-3.6-16.2-8.8-23c-4.8-6.3-9.7-12.6-14.3-19c-3.6-5-7-10.2-10.4-15.4c-1.2-1.8-2.1-3.9-3.6-5.4c-1.3-1.4-0.9-2.8-1-4.3
				c0-0.3,0.7-0.9,1-0.9c0.4,0,1,0.4,1.2,0.8c0.5,1,0.4,2.3,1.1,3c5.3,5.9,9.9,12.4,14.4,19c2,2.9,4.7,5.4,6.9,8.2
				c3.9,4.9,8,9.8,11.2,15.1c2.9,4.9,4.5,10.5,6,16.1c1.7,6.4,1,12.8,1,19.3c0,2-0.8,3.9-1.1,5.9c-0.2,1.8-0.4,3.5-1,5.4
				c-0.8,2.3,0.7,5.5-0.4,7.4c-1.7,2.8,0.2,4,1.1,5.8c0.4,0.8,1.2,1.1,1.6,0.1c0.7-2.1,2.7-2.7,4.1-4c0.6-0.6,1.6-1.5,1.5-2.2
				c-0.3-3.8,2.5-6.4,3.7-9.6c1.3-3.6,3.1-9,3.4-11.9c0.2-2,1-3.9,1.1-5.9c0.3-8.4-2.8-15.7-7.5-22.4c-1.8-2.6-4-4.9-6.1-7.3
				c-6-6.8-12.2-13.5-18-20.4c-2.8-3.3-5.1-7.1-7.4-10.8c-0.8-1.3-1.3-3-1.5-4.6c-0.1-1.3-0.5-2.2-1.5-2.9c-1.6-1.2-0.8-2.8-0.9-4.3
				c0-0.2,0.8-0.6,1.2-0.7c0.3-0.1,0.9,0.4,0.9,0.5c-1,2.9,2.4,3.9,2.7,6.5c0.2,2.1,2.9,3.8,3.9,5.9c1.1,2.3,3.4,3.6,4.5,5.7
				c1.6,3,4.1,4.9,6.3,7.3c5,5.5,10.5,10.6,15.1,16.4c4.5,5.6,8.5,11.5,11,18.6c2.5,7.2,2.3,14.1,0.6,21.2c-0.4,1.7-1.1,3.4-1.6,5.1
				c-0.5,1.5-0.9,3.1-1.6,4.6c-1.2,2.4-2.5,4.8-4.2,6.9c-1,1.3-1.8,2.3-1.6,4c0.1,0.5-0.4,1.1-0.6,1.6c0.8,0,1.7,0.3,2.3,0
				c1.1-0.6,2.1-1.5,3.1-2.3c6.6-4.4,13.4-8.7,20.2-12.9c1.3-0.8,2.3-2.2,3.1-3.9c3.9-8.2,4.1-9.2,2.3-19
				c-1.1-6.1-2.9-11.9-5.9-17.3c-2-3.5-4.5-6.6-6.7-10c-3.8-5.8-6.7-12-8.3-18.6c-2.5-10.1-9.2-16.6-17.8-21.6
				c-3.7-2.1-7.7-3.7-11.6-5.6c-0.5-0.2-1.1-0.3-1.6-0.3c-5.8,0-11.7-0.5-17.4,0.1c-4.4,0.5-8.7,2.2-12.9,3.7
				c-5.9,2.2-11.7,4.7-16.8,8.5c-2.1,1.6-4.8,2.4-7.1,3.8c-1.3,0.8-1,1.7,0.4,2.4c2.9,1.5,5.9,2.3,8.7,4.3c4.6,3.2,8.5,7.2,12,11.4
				c4.8,5.7,8.6,12.2,12.9,18.4c1.6,2.4,4,4.7,4.6,7.3c0.7,3,4.2,4.4,3.7,7.8c3.2,4.1,4.3,9,5.9,13.8c1.3,3.9,2.4,7.7,2.2,11.8
				c-0.1,1.5-0.1,3.1,0,4.6c0.4,7.9-3.4,14.4-7,20.9c-4.1,2.5-4.9,6.5-6,10.8c-0.8,3.2-3,6.1-4.7,9.1c-0.4,0.7-1.4,1.3-2.2,1.6
				c-0.6,0.2-1.5-0.1-2.1-0.4c-0.2-0.1-0.1-1,0.1-1.5c0.8-1.6,1.7-3.1,2.4-4.8c1-2.5,2.2-5,2-7.9c-0.2-2.9,0.1-5.8-0.1-8.7
				c-0.2-2.8-0.7-5.5-1.1-8.2c-0.2-1.2-0.7-2.4-1.2-3.6c-0.1-0.3-0.4-0.4-0.7-0.7c-0.2,0.3-0.4,0.6-0.5,1c0,2.5-0.1,5,0,7.5
				c0.4,9-2.9,17.2-5.9,25.4c-0.8,2.3-1.6,4.8-3.4,6.7c-0.4,0.5-1.1,0.7-1.6,1.1c-0.2-0.7-0.8-1.4-0.6-2c0.8-3.5,1.2-7.3,2.7-10.4
				c1.2-2.5-0.6-5.4,1.9-7.4c0.4-4.1,0.9-8.2,1.1-12.3c0.6-8.4-4.1-19.1-12.3-23.8c-3.4-1.9-5.8-4.8-8.5-7.4c-1.7-1.6-3.2-3.4-5-4.9
				c-1.2-1.1-2.6-2.3-4.1-2.6c-3.5-0.7-7-1.1-10.5-1.2c-4.8-0.2-9.7-0.1-14.5,0c-6,0.1-11.6-1.7-17.3-3.1c-3.2-0.7-6.6-1.2-9.8-1.8
				c-3.6-0.7-7.1-0.6-10.6-0.9c-1.5-0.1-2.5,0.4-3.5,1.5c-3.8,3.9-7.6,7.7-11.5,11.5c-0.7,0.7-1.7,1.1-2.6,1.7
				c1.2,0.8,2.3,0.6,3.6-0.1c1.7-0.9,3.8-1.2,5.7-1.7c2-0.5,3.9-0.7,5.9-1.2c6.2-1.4,12.4-2.6,18.8-2.4c1.6,0,3.4-1.4,4.7-1
				c3.3,1.2,6.7,1,10,1c3.2,0,6.1,2,9.4,1.2c11.1,3.6,22.2,6.9,30.6,16c5.1,5.5,9.6,11.1,11.4,18.5c0.1,0.5,0.8,0.9,0.8,1.4
				c0.4,4.1,1,8.2,1.2,12.3c0.2,4.9-1.3,9.3-4,13.4c-0.5,0.8-0.3,2.1-0.3,3.1c0,0.3,0.6,0.5,0.8,0.8c0.2,0.7-1.5,5.2-2,5.3
				c-2.7,0.1-1.2-2.3-1.7-3.4c-1.3-2.5-1.9-5.4-2.6-8.2c-1.6-6.3-4.1-12.2-7.4-17.9c-1-1.7-1.9-3.7-1.3-5.8c0.1-0.3,0.5-0.6,0.8-0.6
				c0.3-0.1,0.9,0,1,0.2c3.5,5.7,8,10.8,9.7,17.4c0.3,1.2,0.7,2.4,1.2,3.6c0.1,0.3,0.4,0.5,0.6,0.8c0.2-0.3,0.5-0.6,0.5-0.9
				c0-6.2,0.8-12.6-1.3-18.6c-1.4-4-3.4-8.1-6.1-11.3c-3.8-4.6-8-9.1-13.7-11.5c-3.1-1.3-6.1-2.9-9.3-4.2c-3.2-1.3-6.9-1-9.7-3.2
				c-0.1-0.1-0.4,0-0.6,0c-7.6,0.3-15.2-2.4-22.7-1.1c-8.1,1.4-16.6,0.8-24.2,4.5c-4.8-0.5-8.6,2.6-12.9,3.8
				c-4.1,1.1-7.7,3.7-11.7,5.4c-1.3,0.6-2.3,1-2.7,2.4c-0.9,0.2-2.2-0.6-2.3,1.4v-0.3c-0.3,0.1-0.6,0.2-0.9,0.4
				c-0.1,0.1,0.1,0.5,0.2,0.7c0.2-0.2,0.5-0.4,0.7-0.8c0.9-0.4,2.2,0.3,2.3-1.4c3.6-1.2,7.2-2.2,10.7-3.5c6.1-2.2,12.3-3.9,18.9-3.5
				c1.5,0.1,3.1-0.1,4.6,0c2.6,0.3,5.3-0.8,7.8,0.7c2.2,1.3,5.3-0.8,7.5,1.5c6,0,11.3,2.5,16.7,4.6c3.4,1.3,12.8,6.5,15,8.7
				c2.9,2.8,5.8,5.7,8.6,8.6c0.9,0.9,1.5,2.1,2.1,3.2c0.4,0.7,0.9,2.2,0.7,2.3c-1.2,0.8-2.3,0.7-3.5-0.4c-2.5-2.3-5.1-4.5-7.7-6.6
				c-5.1-4-14.9-9.5-23.2-11.4c-4.2-0.9-8.6-1.2-12.6-3.2c-1.1-0.5-2.7,0-4-0.1c-2.6-0.2-5.3,0.9-7.7-1.1c-0.3-0.3-1.1-0.1-1.7,0
				c-2.6,0.4-5.1,0.7-7.6,1.2c-2.5,0.5-5.4-1.2-7.7,1.1c-4.9-0.3-9.3,1.8-13.6,3.6c-4.8,2-9.4,4.4-14.1,6.7c-3.9,1.9-7,5-11.4,6.2
				c-1.7,0.5-3.3,2.5-4.5,4.2c-5,7.3-8.6,15.3-11.2,23.8c-0.7,2.3-1.2,4.4-2.5,6.5c-1,1.5-0.1,4.1-0.2,6.3c0,0.3-0.7,0.8-1.1,0.8
				c-0.4,0-0.8-0.5-1.1-0.9c-0.1-0.1,0-0.4,0-0.6c0.5-4.1-1.2-8.4,1.2-12.3c1.5-11.1,6.9-22.3,13.9-32c6.4-9,14.6-16,24.1-21.5
				c3.2-1.8,6.1-4.8,10.2-4.7c2.5-2.5,5.5-4.6,7.2-7.5c1.3-2.2,3.1-3.8,4.7-5.5c2-2,3.8-4,4.9-6.7c0.5-1.2,1.4-2.6,2.5-3
				c2.7-1,4.2-3.2,6-5c5.4-5.3,11.1-10.1,17.1-14.8c2-1.5,3.6-3.5,5.4-5.3c2.6-2.7,5.9-4.5,8.8-6.8c3.3-2.7,6.6-5.3,10.2-7.6
				c5.1-3.4,10.6-6,16.4-8.1c0.3-0.1,0.7-0.4,1-0.4c6.1,0.3,10.4-3,14.6-6.9c2-1.8,4.4-3.3,6.8-4.5c1.8-0.9,3.6-1.6,5.2-2.9
				c1.5-1.3,3.5-1.6,5.3-2.7c3.1-2,6.9-2.8,10.5-3.8c3.8-1.2,7.7-2.1,11.8-2.6c2.1-0.2,4.3-1.1,6.5-0.9c9,0.8,17.4,3.3,25,8.4
				c3.4,2.3,7,4.3,9.7,7.4c0.6,0.7,1.8,1.3,2,2.1c0.3,1.4,0.8,2.6,2.1,2.6c0.5,0,1-1.8,1.7-2.6c2.2-3,4.1-6.2,6.6-8.8
				c4.8-4.9,9.8-9.7,15.2-13.9c2.4-1.9,5.1-4.2,8.5-4.5c3.5-3.3,8.2-3.6,12.4-5c3.1-1.1,6.2-2.1,9.7-2c4.4,0.2,8.9,0,13.3,0.1
				c2.4,0.1,4.9,0.4,7.3,0.6c2.2,0.2,4.9-0.3,6.6,0.7c2.2,1.2,5,0,6.7,2.1c6.8,0.5,12.9,3.3,19.3,5.3c0.3,0.1,0.6,0.4,1,0.5
				c4.1,0.4,8.2,1.2,12.3,1.1c8.5-0.1,13.9,4.3,17.9,11.1c0.9,1.6,1.4,3.2,3.1,4.5c1.9,1.5,3.6,1.9,5.7,1.8c6.4-0.3,12.1,2,18.1,3.9
				c6.5,2.1,11.8,6,16.6,10.2c4.3,3.9,7,9.5,8.9,15.3c1.5,4.6,2.6,9.2,2.3,14.1c-0.2,3.3-0.2,6.6,0,9.9c0.5,7.2-1.6,14-4,20.4
				c-3.8,10.5-9.2,20.4-16.2,29.3c-3.8,4.9-7.4,10-12,14.1c-6.8,6.1-13.6,12.4-22.8,14.9c-1.3,2-3.7,2.4-5.7,3.1
				c-2.6,0.8-5.1,2-8.1,1.6c-2-0.3-3.9-0.3-5.8,1.6c-1,1-3.5,0.4-5.3,0.3c-0.4,0-0.8-0.8-1.2-1.2c0.5-0.3,1-0.5,1.5-0.8
				c0.8-0.4,1.6-0.8,2.4-1.3c0.6-0.3,1.3-1.1,1.9-1c4.1,0.7,7.6-1.2,11.2-2.4c6.2-2,18-8.8,21.4-12.6c0.2-0.3,0.2-0.8,0.3-1.2
				c-0.5,0.1-1.1,0-1.6,0.3c-1.2,0.6-2,3.3-3.5,1.4c-1.2-1.5,1.4-2.3,2.1-3.5c0.1-0.2,0.3-0.3,0.4-0.4c4.5-3.2,5.4-8.2,6.5-13
				c1.1-4.6,2.3-9.1,3.8-13.5c2.5-1.4,2-4.6,4-6.5c1.7-1.7,2.4-4.3,3.4-6.6c2.1-5,3.9-10,5.3-15.2c2.6-9.7,2.2-19.4,2.2-29.2
				c0-1.9-0.1-3.9,0.1-5.8c0-0.3,0.9-0.6,1.3-0.6c0.3,0,0.8,0.3,0.9,0.5c0.1,0.8,0,1.5,0,2.3c0,0.8-0.3,2,0.1,2.3
				c4,3.2,2.1,7.5,2.1,11.3c0,3.7,0.8,7.4-0.8,11.2c-1,2.4-0.6,5.4-1.2,8.2c-2,9.1-4.7,15.7-10.2,24.8c-2.9,4.7-5.3,9.8-6.1,15.4
				c-0.8,5.3-2.7,10.1-6.2,14.3c-0.4,0.5-0.5,1.3-0.8,2c0.5-0.2,1.2-0.2,1.6-0.6c3.5-3.4,7.4-6.4,10.2-10.3c5.3-7.6,11-14.9,15-23.3
				c2.4-5,3.7-10.5,6.4-15.3c1.2-2.1-0.4-4.9,1.6-6.9c0.4-4.9,1.1-9.7,1.3-14.6c0.3-6-2.2-11.3-2.5-17c-3.9-7.1-7.4-14.3-15.2-18.2
				c-5.1-2.6-10.2-5.2-15.7-6.9c-0.7-0.2-1.5-0.4-1.9-0.9c-1.1-1.5-2.6-1.3-4.1-1.4c-2-0.1-4.1-0.4-6.1-0.6c-0.4,0-1,0.2-1,0.3
				c0.4,4.5-1.1,9.1,1.1,13.4c0.6,1.2,1.3,1.2,2.3-0.1c0.4-0.5,0.9-0.9,1.3-1.3c0.3,0.6,1,1.1,0.9,1.7c0,1.1-0.5,2.1-0.7,3.2
				c-0.2,0.9-0.7,2.3-0.3,2.6c1.8,1.6,0.8,3.6,1.1,5.4c0.2,1.3-0.3,2.5,0.8,3.8c0.6,0.6,0.8,2.5,0.3,3.2c-1.5,2.1-1,4.3-1,6.5
				c-0.1,2.1,0.7,4.6-0.2,6.3c-1.2,2.3-0.6,4.4-1.1,6.6c-0.5,1.9-2.1,3.6-2.1,5.4c0,5.4-4.1,9.2-5.1,14.2c-3.7,3.9-5.1,9.1-7.7,13.7
				c-3.1,5.5-4.7,11.6-6,17.8c-1.3,5.9-4.5,10.9-9.3,14.7c-1.8,1.4-4.2,1.8-8.8,1.7c-0.5,0-1.1,0.2-1.5,0.5
				c-1.7,1.2-3.6,2.2-4.8,3.7c-2.2,3.1-5.2,2.7-8.2,2.6c-0.3,0-0.9-0.7-0.9-1.1c0-0.4,0.6-1.2,0.8-1.2c3,0.6,4.8-1.2,6.2-3.2
				c2.4-3.3,6.2-4,9.6-4.8c5.4-1.3,8.6-4.2,10.5-9.4c1.7-4.4,2.9-8.9,4.1-13.4c0.4-1.6,0.5-3.3,1.2-4.7c3-5.9,6.4-11.6,9.3-17.6
				c3.5-7.3,7.4-14.4,8.2-22.8c0.3-3.1,0.7-6.3,1-9.4c0.2-1.8,1.9-3.6,1.6-5.2c-0.4-1.9-0.8-3.3,0.3-5.2c1.5-2.7-1.7-4.5-2-7
				c0-0.2-0.5-0.4-0.7-0.6c-0.1,0.3-0.5,0.7-0.4,1c0.9,4.2-1.1,8.1-1.4,12.3c-0.2,3.5-1.4,7.1-2.5,10.5c-2.8,9.4-5.1,19.1-9,28.2
				c-1.1,2.6-1.5,5.6-2.9,8.1c-1.5,2.5-1.1,5.9-4,7.6c-0.6,5.4-4.4,9-7,13.3c-5.4,8.8-12.8,15.1-22.9,17.8c-0.5,0.1-0.9,0.8-1.4,0.8
				c-4.3,0.4-8.6,1.3-12.9,1.1c-4.5-0.2-9.1-1.1-13.4-2.5c-2.7-0.9-5.9-0.6-8-3.1c-0.2-0.2-1.5,0.2-1.9,0.7c-4,4.4-9.1,5.6-14.8,5
				c-0.5-0.1-0.9-0.8-1.3-1.3c0.4-0.3,0.7-0.9,1.1-0.9c2.3,0,3.8-0.8,3.5-3.3c-0.3-2.2,3.6-0.9,2.7-3.4c1.6,0.4,2.4-2.7,4.4-0.8
				c0.4,0.4,2.4-0.1,2.6-0.6C324,147.6,327,145.7,327.3,140.9c0-0.5-0.2-0.1-0.3,0.3c-0.1,0.3,0,0.7,0,1.1c0.4-0.3,1-0.5,1.1-0.8
				C328.2,141,327.9,140.5,327.3,140.9"/>
			<g id="Group-7" transform="translate(431.042672, 54.227272)">
				<g id="Clip-6">
				</g>
				<defs>
					<filter id="Adobe_OpacityMaskFilter" filterUnits="userSpaceOnUse" x="-2" y="9.1" width="142.8" height="255.5">
						<feColorMatrix  type="matrix" values="1 0 0 0 0  0 1 0 0 0  0 0 1 0 0  0 0 0 1 0"/>
					</filter>
				</defs>
				<mask maskUnits="userSpaceOnUse" x="-2" y="9.1" width="142.8" height="255.5" id="mask-2">
					<g class="st1">
						<polygon id="path-1" class="st2" points="140.8,264.7 140.8,9.1 -2,9.1 -2,264.7 						"/>
					</g>
				</mask>
				<path id="Fill-5" class="st3" d="M63,173c-0.6-0.1-1.1-0.2-1.7-0.2c-0.2,0-0.3,0.5-0.4,0.7c0.5,0.1,1,0.3,1.5,0.4
					C62.6,173.9,62.7,173.4,63,173 M126.9,246.8c-0.1-0.2-0.2-0.5-0.2-0.5c-0.4,0.1-1,0.1-1.2,0.4c-2.7,3-4.5,6.9-8.5,8.5
					c-0.2,0.1-0.2,0.5-0.3,0.8c0.3,0.1,0.7,0.3,1,0.3C121.9,256.1,126.5,251.3,126.9,246.8 M135,191.9c0-0.2-0.1-1.5-0.5-2.7
					c-0.1-0.5-0.8-0.8-1.2-1.2c-0.2,0.4-0.5,0.8-0.7,1.2c-0.6,1.5-0.8,3.3-1.8,4.4c-1.9,2.2,2,3.2,0.7,5.1c-0.6,0.8-1.1,2-1.1,2.9
					c0,0.8,0.9,1.5,1.4,2.3c0.3-0.5,0.6-0.9,0.8-1.4C133.6,200.4,135,194.8,135,191.9 M125.7,158.5c0-2.9,0.1-5.8-0.1-8.7
					c0-0.5-0.7-1-1.1-1.5c-0.4,0.3-1,0.6-1.1,0.9c-0.6,3.8-5,5.4-5.3,9.4c0,0.4-1.1,1-1.7,1.2c-4.5,1.6-7.6,5.2-10.1,8.7
					c-2.3,3.1-4.3,6.4-7.1,9.2c-1.9,1.9-1.8,3,0.8,4.1c3.9,1.8,7.9,1.7,12,0.5c2.1-0.6,4.2-1.2,6.3-1.5c0.5-0.1,1.1,1.5,2.1,0.2
					c0.9-1.2,3.8-8.2,4.4-9.8C126.2,167.2,125.6,162.8,125.7,158.5 M59.1,156.5c-3.7,0-7.3,0-11,0c-0.4,0-0.9,0.4-1.2,0.8
					c-0.2,0.2-0.1,0.8,0.2,1c2.2,2.1,4,4.4,6.9,5.8c4.4,2.1,8.7,4.1,13.5,5.1c3.5,0.8,7,2.1,10.6,2.2c3.1,0.1,6.3-0.4,9.3-1.2
					c3.1-0.8,6.1-2.2,8.9-3.6c3.4-1.7,6.8-3.5,9.8-5.6c4.6-3.3,10-5.5,12.8-11c1.1-2.1,3-3.8,4.4-5.7c0.5-0.7,1.2-1.6,1.2-2.4
					c0.3-6.6-0.7-13.3,1.2-19.8c0.1-0.4-0.3-1-0.4-1.5c-0.5,0.5-1.4,0.8-1.6,1.4c-0.8,2.2-1.2,4.5-2.1,6.6
					c-4.1,9.1-10.7,16.3-18.9,21.9c-3.2,2.2-6.5,4.6-10.3,5.9c-2.6,0.9-5,2.3-7.7,2.3c-2.8,0-5.4,2.2-8.2,1.1
					c-1.7-0.7-2,2.6-4.1,0.9c-1.1-0.9-3.2-0.5-4.8-0.9c-0.4-0.1-0.9-0.7-0.9-1c0-0.4,0.5-1.2,0.8-1.2c1.3-0.1,2.7,0,4.1-0.1
					c1.3,0,2.7,0.1,4-0.2c0.6-0.1,1-1,1.5-1.6c-0.5-0.2-1-0.4-1.5-0.5c-2.4-0.7-4.2,1.2-6.5,1.2C65.6,156.5,62.3,156.5,59.1,156.5
					 M87.3,177.6c4.6,0.6,7.5-2,10.2-5c0.2-0.3,0.3-0.6,0.4-1c-0.4,0-0.8,0.1-1.2,0c-1.9-0.4-3,1.2-4.5,1.7c-1.7,0.5-3,2.2-5,1.8
					c-1.6-0.3-2.3,0.8-3.1,1.8c1.1,0.2,2.2,0.5,14.5-6.4c-0.2,0.2-0.5,0.4-0.7,0.5c0.2,0.2,0.3,0.3,0.5,0.5c0.2-0.2,0.4-0.4,0.5-0.7
					C98.9,170.8,98.7,170.7,87.3,177.6 M84.4,155c-0.6-0.5-0.8-0.8-1-0.8c-0.5,0-1,0.2-1.5,0.3c0.1,0.3,0.1,0.7,0.2,0.7
					c0.6,0,1.2-0.1,2.5-2.1c-0.2,0.2-0.5,0.4-0.7,0.5c0.2,0.2,0.3,0.3,0.5,0.5c0.2-0.2,0.4-0.4,0.5-0.7
					C85,153.4,84.8,153.3,84.4,155 M52.6,96.7c-13.5,19.2-14.4,19.4-15.1,19.2c-0.5-0.2-1.2-1.1-1.1-1.4c0.4-1.2,1-2.4,1.8-3.3
					c4.9-5.5,8.2-12.1,12-18.3c1.4-2.3,3.1-4.6,3.8-7.1c0.7-2.7,3.4-4.4,3.1-7.4c2.9-2.4,3.3-6.6,6.4-9c1.3-1,2-3,2.9-4.5
					c-1.9-2-0.7-4.6-1.6-6.9c-1.5-3.6-2.6-7.4-4.2-11c-2.3-5.3-4.9-10.3-5.9-16.2c-1.3-7.5-1.6-9.6,1.3-14.8c0.3-0.5,1.1-0.7,1.6-1
					c0.2,0.5,0.6,0.9,0.7,1.4c0.1,3.7-0.4,7.5,1.2,11.1c0.6,1.5,0.6,3.4,1.6,4.5c1.9,2.1,2,5,3.4,7.4c1.2,2.2,3.5,4.3,3.2,7.3
					c3.1,2.7,2.9,7,4.6,10.3c0.2,0.3,0.4,0.6,0.6,0.9c0.2-0.3,0.6-0.6,0.5-0.9c-0.6-5.4,1.3-11-1.1-16.4c-0.4-0.8-0.2-2,0-2.9
					c0.2-0.7,0.9-1.2,1.5-1.6c0.1-0.1,0.8,0.5,1.2,0.8c1.2,1,1.8,2.1,2,3.9c0.6,4.8,1.2,5.8,5.5,7.8c4.3,1.9,6.9,5.3,9.5,8.9
					c0.5,0.7,1.1,1.6,1.1,2.4c0.2,6,2.3,12,1.1,18.1c-1.9,9.9-4.2,19.8-9.3,28.6c-1.9,3.3-4.1,6.6-6.5,9.5
					c-3.7,4.4-6.5,9.3-9.3,14.2c-6,10.6-14.9,16.9-26.7,19.4c-0.7,0.1-1.3,0.6-1.9,0.9c-0.3,0.2-0.5,0.5-0.8,0.8
					c0.3,0.2,0.6,0.5,0.9,0.6c1.6,0.4,3.2,1.1,4.7,1.1c1.4,0,2.8-1,4.2-1c5.2-0.1,10.4-0.2,15.7,0c4.9,0.2,9.4-1.6,14.1-2.4
					c1.4-0.2,0.8-0.7,0.2-1.4c-0.7-0.9-0.8-1.7,0.5-2.1c0.9-0.3,1.7-0.6,2.6-0.7c7.6-0.4,11.1-6.7,15.6-11.2c1.9-1.9,2.8-5.1,2.8-8
					c0.2-6.4,0.1-12.8,0-19.1c0-0.5-0.7-1.1-1-1.6c-0.4,0.5-1,0.9-1.2,1.4c-2.2,6.2-5.5,11.8-9.4,17c-2.3,3.2-4.3,6.7-7.9,8.9
					c-3,1.8-5.4,4.7-8.2,6.8c-1.2,0.9-2.9,1.3-4.5,1.8c-0.4,0.1-1.2-0.3-1.3-0.7c-0.1-0.4,0.1-1.2,0.4-1.5c4-2.6,7.1-6.1,10.5-9.4
					c6.5-6.2,13.6-16.4,16.9-27.3c0.5-1.7,1.7-3.2,2.2-4.9c0.5-1.5,1.4-3.6,0.8-4.5c-1-1.5-0.3-3-0.8-4.3c-1.9-5-0.8-10.1-1.1-15.2
					c-0.1-2.1-0.1-4.3,0-6.4c0-0.8,0.5-1.5,0.7-2.3c0.9,0.7,2.3,1.3,2.6,2.3c0.7,2,0.9,4.3,1.2,6.4c0.4,2.9,1.9,5.7,1.2,8.8
					c2.1,3.5,1.6,7.8,3.4,11.3c0.7,1.4,1.1,3.1,1.1,4.7c0,1.8,1.1,3.2,1.1,4.7c0.4,6.6,2,13.1,1.3,19.8c-0.5,4.6-1.8,8.8-4.3,12.7
					c-0.3,0.4-0.2,1-0.3,1.6c0.5-0.2,1.1-0.4,1.6-0.6c3.2-1.7,7.1-5.5,8.7-8.5c1.2-2.2,2.2-4.6,3.5-6.6c1-1.5,1.1-3.1,1.1-4.8
					c0-1.9,0-3.9,0-5.8c0.1-5.9-1.6-11.2-5.1-15.9c-1-1.3-0.6-2.5-0.7-3.8c0-0.4,0.6-1,0.9-1c0.4,0,1.1,0.3,1.3,0.7
					c3.2,4.8,5.6,10,7.6,15.4c0.9,2.3-0.2,4.7,1.5,7c0.9,1.2,0.3,3.6,2.1,4.9c0.3,0.2,0.4,1,0.4,1.5c0.4,3.1,0.9,6.2,1.1,9.4
					c0.2,3.1,0,6.2,0.1,9.3c0,0.9,0.3,1.8,0.4,2.7c0.5-0.2,1.4-0.8,1.6-0.6c1,0.8,2.4,1.6,0.8,3.2c-3.2,3-1.4,6.7-1.2,10.2
					c3.3,2.5,2.2,6.1,1.6,9c-1.1,4.9-2.2,9.8-4.3,14.4c-2.1,4.6-2.8,9.8-4.9,14.2c-4.6,9.4-8.8,19.1-15.9,27.2
					c-3.1,3.5-6.6,6.4-10.4,8.6c-3,1.8-6.3,3.8-10.2,3.4c-0.5-0.1-1,0.3-1.5,0.5c0.5,0.5,1,1.1,1.5,1.6c0.1,0.1,0.3,0.2,0.5,0.2
					c3.7,0.4,7.5,1.5,11.1,1c4.4-0.7,9.1-0.3,13.1-3.2c3.8-2.8,7.5-5.4,8.6-10.4c0.3-1.4,1.4-2.5,1.9-3.8c1.7-3.9,3.4-7.9,4.9-11.9
					c0.4-1,0-2.3,0.1-3.4c0.3-3.3,0.3-6.8,1.3-9.9c1-3.2,3.1-6,4.9-9c0.2-0.3,1.3-0.4,1.5-0.1c1,1.1,2.5,1.4,3.4,3.1
					c3.2,6.1,3.9,12.1,1.4,18.5c-1.4,3.6-3.3,6.9-6.1,9.7c-1.3,1.3-2,3.1-3.4,4.4c-2.7,2.5-2.1,5.3-1.2,8.3c0.7,2.4,2,4.7,1.8,7.4
					c-0.1,0.9,0.2,1.8,0.3,2.8c0.7-0.5,1.4-1,2.1-1.5c1.8-1.3,3.5-2.7,5.3-3.9c0.2-0.1,1.4,0.6,1.5,1c0.4,2-0.8,3.7-2,4.9
					c-3.6,3.7-5.1,8.1-4.9,13.1c0.1,3-1.5,5.4-3,7.4c-1.6,2.1-3.4,4.1-6.5,5.2c-3.2,1.1-6.2,1.9-9.6,2.1c-8.7,0.6-16.1-0.1-24.8-3.6
					c-5.7-2.3-9.5-6.8-11.8-12.5c-0.1-0.3,0-0.9,0.2-1c0.5-0.2,1.2-0.5,1.5-0.3c1.8,1.4,3.4,3,5.1,4.5c2.8,2.6,6.5,3.4,9.8,4.2
					c4.8,1.2,9.9,2.2,15.1,1.5c0.8-0.1,1.9-0.5,2.4-1.1c3.3-4.6,7.6-8.6,10-13.8c0.8-1.8,1.9-3.6,2.2-5.4c0.4-2.2,0.3-4.4-1-6.5
					c-0.7-1.1-1.3-1.2-2.2-0.5c-0.5,0.3-0.9,0.8-1.2,1.2c-4.2,4.9-9.7,6.5-15.9,6.5c-4.3,0-8.5,0-12.8,0c-3.8,0-7.1-1.4-10.2-3.4
					c-3.7-2.4-7.4-4.8-10.8-7.4c-2.3-1.8-3.8-4.4-5-7.2c-1.6-3.4-3.6-6.6-5.2-10c-2.1-4.5-4.8-8.3-9.4-10.6
					c-0.4-0.2-0.3-1.4-0.4-2.1c2.6-0.4,4.6,0.5,6.6,2.4c4.3,4,7.3,8.7,9.7,14c1.7,3.9,4.2,7.4,7.4,10.3c1.7,1.6,3.7,2.1,6,2.4
					c6.8,0.9,12.8-1.6,18.3-4.9c3.5-2.1,6.2-5.7,8.8-9c5.2-6.7,8.4-14.6,12.2-22.2c0.1-0.3,0.2-0.5,0.4-0.8
					c-0.5-0.1-1.3-0.5-1.5-0.3c-3.8,3.2-8.9,4.3-12.5,7.7c-0.3,0.3-1,0.1-1.5,0.2c0-0.7-0.3-1.5,0-1.9c0.9-1.2,2-2.2,3-3.4
					c0.2-0.2,0-0.8-0.2-1c-0.2-0.2-0.7-0.5-1-0.4c-5.9,2-12,2.7-18.2,2.2c-4.2-0.3-8.3-1.1-12.4-2.1c-2-0.5-2.7-1.9-4-2.9
					c-0.2-0.2-0.2-1.2,0.1-1.5c0.3-0.3,1-0.3,1.5-0.3c0.3,0,0.6,0.8,0.8,0.7c6.4-0.6,12.7,3.3,19.3,0.4c1.4-0.6,3.8-0.9,5.4,0.9
					c0.1,0.2,1.2-0.4,1.7-0.8c0.1-0.1-0.3-0.9-0.6-1.4c0-0.1-0.5,0.1-0.5,0c-3-3.6-7.1-3.8-11.3-3.5c-1.4,0.1-2.9-0.5-4.3-0.8
					c-5.6-1.3-11.1-3.8-17-3.9c-1.4,0-2.8-0.9-4.2-1.1c-1.3-0.2-3.1,0.5-4-0.2c-2-1.5-4.1-2.3-6.5-2.5c-0.1,0-0.3-0.7-0.3-1
					c0-0.3,0.3-0.8,0.5-0.9c0.3-0.2,0.7-0.1,1.1-0.1c1.7-0.1,3.4-0.2,5.1-0.4c-0.8-0.5-1.6-1.1-2.4-1.6c-0.8-0.5-1.6-0.9-2.3-1.5
					c-3.5-2.7-6.8-5.5-9.1-9.3c-1.2-2-2.4-3.8-5.2-3.5c-0.8,0.1-1.6-0.9-2.4-1c-1.8-0.2-2.8-1.2-2.7-2.8c0-0.3,2-0.4,3-0.7
					c0.6-0.2,1-0.7,1.5-1.1c-0.5-0.4-1-0.9-1.5-1.1c-0.5-0.2-1.1,0-1.7-0.1c-0.4,0-0.8,0-1-0.3c-0.2-0.2-0.4-0.7-0.3-1
					c0-0.3,0.2-0.8,0.5-0.9c0.5-0.2,1.1-0.2,1.7-0.1c7.1,0.6,12.5-3,18.1-6.7c5.5-3.7,8.2-9.1,11.1-14.6c0.8-1.4,1.8-2.7,2.7-4.1
					c0.2-0.3,0.2-0.8,0.2-1.2c-0.5,0.1-1.2,0-1.5,0.3c-2.5,2.4-5.1,4.7-7.4,7.4c-3,3.5-7.2,5.2-10.6,8.1c-1.3,1.1-3.4,1.3-5.1,1.5
					c-2.5,0.2-5,0.1-7.5,0c-0.8,0-1.9-0.4-2.5-1c-0.9-0.8-2.8-1.7-1.8-3.1c1.1-1.4,2.8-0.8,3.8,0.6c0.9,1.3,2.4,1.6,3.5,1
					c5.7-2.8,11.8-5,16.2-10.1c2.4-2.8,6.2-4.6,8.3-7.6c1.9-2.6,4.6-4.1,6.7-6.4c0.3-0.3,0.5-0.7,0.8-0.8c5.2-1.5,7.6-5.7,10.2-10.1
					c1.8-3,2.3-6.4,3.6-9.6c3.5-8.7,3.9-17.8,3.5-27c-0.1-3.7-3.2-8.2-7.1-10.3c-0.3-0.2-1.3,0.3-1.6,0.7c-0.4,0.8-0.6,1.7-0.6,2.6
					c-0.1,3.7-0.2,7.4,0,11c0.6,8.3-2.9,15.8-4.7,23.6c-3.1,4.1-4.8,8.9-7.8,13c-6.3,8.7-14.9,14.1-23.8,19.4
					c-5.1,3.1-10.5,5.5-16.1,7.4c-2.9,1-5.9,1.9-9.1,1.8c-5.8-0.2-11.6,0-17.4-0.1c-0.4,0-0.9-0.5-1.2-0.9c-0.1-0.2,0-0.8,0.2-1
					c1.1-1,2.2-2,3.5-2.7c7.6-3.7,15.2-7.2,19.9-14.9c2.4-3.9,5.7-7.3,8.5-11c0.3-0.4,0.1-1.8-0.2-1.9c-0.9-0.3-2.1-0.2-1.7-1.5
					c0.1-0.4,1.1-0.6,1.7-0.9c2.8-2.1,4.4-6.4,4.1-10.7c-0.3-4,1.1-7.6,1.8-11.4c1.1-6.1,2.6-12.3,1.4-18.4c-0.7-3.4-1.1-6.7-0.8-10
					c0.5-5.9-1-11.7-1.5-17.5c-0.2-2.3-0.3-4.9-1.1-7c-0.9-2.4-0.8-4.7-1.1-7.1c-0.1-0.8-1-1.5-1.4-2.3c-0.4-0.8-0.7-1.7-0.8-2.5
					c0-0.4,0.5-0.9,0.9-1.2c0.2-0.1,1,0.1,1,0.2c-0.1,2.5,3,3,2.9,5.9c-0.1,2.5,1.5,5.1,2.5,7.6c0.2,0.5,0.7,0.9,0.8,1.4
					c0.5,2.1-0.4,4.3,1,6.6c1,1.6,0.6,4.2,1.2,6.4c0.7,2.3,0,5,0.2,7.5c0.3,6,0.7,12.1,1.1,18.1c0.4,5.8-1.9,11.2-2.7,16.9
					c-0.2,1.1-0.7,2.1-0.8,3.1c-0.1,1.1,0.2,2.4-0.1,3.4c-0.3,0.9-2,1.8-0.6,2.8c1.5,0.9,2.4-0.7,2.9-1.8c2.1-4.8,4.5-9.3,5-14.9
					c0.4-4.3,1.1-8.9,3.1-13.1c1.8-3.7,0.9-7.8,1.3-11.7c0.4-4.3-0.8-8-2.8-11.6c-1.9-3.5-3.3-7.2-5.4-10.5c-2.8-4.1-2.2-8.6-2.2-13
					c0-0.3,0.7-0.9,1.1-0.9c0.4,0,1.2,0.6,1.2,0.8c-0.5,3.7,0.9,6.9,2.4,10.1c0.8,1.6,1.3,3.4,2.4,4.8c3.4,4.3,5.7,9.2,7.3,14.4
					c0.2,0.7,0.7,1.4,0.6,2c-0.3,5.7,0.8,11.5-2,17.2c-1.8,3.7-2.4,8.1-2.5,12.2c-0.1,6.6-2.9,11.9-6.3,17.2
					c-2.6,3.9-5.4,7.5-8.5,11c-3.2,3.6-5.6,7.7-8.5,11.5c-3.8,4.8-8.3,8.8-13.2,12.4c-0.5,0.4-1.5,0-2.2,0.2
					c-0.4,0.1-0.7,0.9-0.7,1.3c0,0.4,0.7,1,1,0.9c2.6-0.3,5.3-0.2,7.6-1.3c3-1.4,6.2-1.8,9.1-3.4C32.4,120.6,36.4,118.7,52.6,96.7
					c12.8-20.2,12.8-20.4,12.8-20.6c-0.2-0.6-0.4-1.3-0.7-1.9c-0.5,0.5-1.6,1.2-1.5,1.6c0.2,1.7-0.6,2.9-1.3,4.2
					c-2.6,5.3-5,10.7-8,15.8c-4.9,8.3-8.8,13.6-13.6,18c-0.3,0.3-0.6,1.1-0.4,1.5c0.7,1.7,1-0.1,1.3-0.3c1.8-0.9,3.6-1.7,5.2-2.9
					c2.5-1.9,5-4,7.3-6.1c2.1-1.9,4.8-3.8,2.5-7.3c-0.1-0.1,0.7-1,1.2-1.4c1.5-1,2.5-2.4,3.6-4C64.5,88.2,63.7,82.2,52.6,96.7"/>
			</g>
			<path id="Fill-8" class="st0" d="M52.6,352.5c0.4-0.3,0.9-0.7,1.4-1c-0.5-0.1-1-0.4-1.5-0.4c-0.6,0.1-1.1,0.5-1.6,0.7
				C51.3,352.1,51.8,352.3,52.6,352.5L52.6,352.5z M92.1,178.2c-1.9,0.2-4.1,0-6.6,1c-2.2,0.9-5.1,1-7.5,1.1
				c-5.9,0.4-10.8,3.3-15.6,5.7c-6.1,3.1-11.2,8.1-15.9,13.3c-0.2,0.2-0.3,0.6-0.4,1c0.6,0,1.2,0.2,1.7,0c0.5-0.2,0.8-0.8,1.3-1.2
				c3.9-2.9,8-5.6,12.3-8.1c5.3-3,10.9-5.4,16.8-6.9c2.8-0.7,5.3-2.6,8.3-2.3c2.2,0.3,3.9-0.8,5.8-1.4c1-0.3,2-0.6,3.1-1
				c0.6-0.2,1.2-0.4,1.9-0.7c-0.7-0.2-1.4-0.4-2.1-0.5c-0.8-0.1-1.5,0-48.9,23.6v-1.6c-0.7,0.5-1.4,1-2.1,1.5
				c0.3,0.3,0.6,0.8,0.8,0.8C45.2,202.4,45.7,202,92.1,178.2L92.1,178.2z M43.2,350h0.5c-0.1-0.3-0.2-0.6-0.4-0.9
				c-0.1-0.1-0.5,0.1-0.7,0.2c0.2,0.2,0.4,0.5,3.8,1.4c-0.9-0.4-1.3-0.6-1.7-0.7c-0.3-0.1-0.7,0-1.1,0c0.3,0.4,0.5,1,0.8,1.1
				C44.9,351.2,45.4,350.9,43.2,350L43.2,350z M99.6,171.3c2.9,0,5.8,0.1,8.7,0c5.5-0.3,11-0.1,16.3-1.3c3.8-0.9,7.5-0.9,11.2-0.9
				c6.7-0.1,12.3,2.9,17.5,6.8c2.6,2,6.7,10.8,7.8,14.2c1,3.1,1,6.3,1,9.4c0,0.3-0.7,0.8-1.1,0.8c-0.4,0-1-0.5-1.1-0.9
				c-0.2-1.1,0.2-2.7-0.4-3.3c-2.9-2.9-2.4-7.2-4.5-10.3c-1.4-2-3.4-3.7-5.3-5.4c-3.1-2.9-6.5-4.7-10.9-4.5c-3.5,0.2-7,0-10.4,0
				c-1,0-2-0.1-2.8,0.2c-0.7,0.2-1.1,1-1.7,1.6c0.5,0.2,1,0.4,1.5,0.6c2.9,0.9,5.1,3.4,8.4,3.6c0.2,0,0.6,0.6,0.5,0.9
				c-0.1,0.5-0.4,1.3-0.7,1.3c-2.1,0.1-4.4,0.6-6.3,0c-6.8-2.3-13.7-0.7-20.4-0.9c-2.8-0.1-5.8,1.6-8.6,2.9
				c-10.9,5-13,6.4-21.7,13.5c-3.6,2.9-7.6,5.5-10.9,8.7c-4.5,4.4-8.7,9-12.5,14c-1.4,1.9-2.7,3.3-4.8,4.2c-0.6,0.3-1.3,0.3-2,0.4
				c0-0.7-0.1-1.4,0.2-2c2.7-5,5.8-9.7,9.3-14.2c3.7-4.7,7.9-8.7,12-13c0.3-0.3,0.1-1,0.1-1.5c-0.4,0.1-0.9,0.2-1.2,0.4
				c-9.9,5.7-19.1,12.3-26.8,20.9c-1.4,1.6-0.5,3.3-0.8,4.9c-0.2,1.1-1.2,1.7-1.9,1.1c-1.3-1.3-3.2-2.3-2.8-4.7
				c0-0.3-0.3-0.6-0.5-0.9c-0.3,0.3-0.7,0.5-0.8,0.8c-0.7,1.6-2,3.3-2,4.9c0,2-1.3,3.5-1.3,5.3c0.1,1.9-0.8,3.6-1.1,5.3
				c-0.7,4.8,0.8,9.5,2.2,14.1c0.3,0.8,0.8,1.6,1.1,2.4c0.8,2.4,0.8,2.4,2.7,1c0.8-0.6,1.6-2.2,2.7-1.1c0.9,1,0.4,2.3-0.5,3.5
				c-4.4,6-8.1,12.4-11.1,19.2c-3.8,8.5-7.3,17.1-10,26c-0.9,2.9-1.5,6-2.7,8.7c-1.1,2.4-1.1,4.2,0.9,6c2.4,2.1,3.2,5.2,4.5,8
				c2.2,4.5,5.2,8.4,8.6,12.1c6.1,6.7,6.2,6.3,11,8.4c3.2,1.5,6.9,1.9,10.4,2.9c5.2,1.5,10.5,2.6,14.8,6.2c2,1.7,4.3,2.1,6.8,1.9
				c1.3-0.1,2.7-0.1,4.1,0c0.4,0,0.9,0.7,0.9,1.1c0,0.4-0.5,1.1-0.8,1.2c-0.9,0.2-1.9,0-2.9,0.1c-0.7,0.1-1.4,0.4-2,0.6
				c0.3,0.7,0.5,1.3,0.9,2c0.5,1,1.1,1.9,1.4,2.9c0.1,0.4-0.2,1.2-0.6,1.4c-0.4,0.2-1-0.2-1.5-0.3c-0.2-0.1-0.3-0.3-0.4-0.4
				c-1.6-1.6-3-4-5-4.7c-2.4-0.8-5.4-0.6-8-0.2c-5.8,0.8-10.9-1.9-16.4-2.5c-5-3.5-10.6-6.1-13.4-12.1c-1.4-2.9-4-5.3-5.6-8.1
				c-2.8-4.8-6-9.4-7-15.1c-0.1-0.7-0.4-1.4-0.8-2c-0.8-1.1-1.8-1.5-2.8-0.2c-0.5,0.7-0.8,1.6-1.3,2.4c-0.2,0.2-0.7,0.4-1,0.3
				c-0.4-0.2-1.1-0.6-1.1-0.9c-0.1-3.1-0.8-6.5,0.2-9.2c1.2-3.4,1-6.8,1.9-10.2c2-7.3,3.9-14.5,7.1-21.4c2.4-5.1,5-9.9,8-14.7
				c1.2-1.8,2.7-3.1,4-4.7c2.1-2.7,2.2-4,0.3-7.2c-0.8-1.4-1.4-2.9-1.8-4.5c-1.6-5.7-3.3-11.6-2.2-17.6c0.9-4.7,2-9.5,3.9-14
				c2.3-5.6,5.4-10.7,8.9-15.4c4.9-6.6,10-13.2,17.6-17c1.9-3.1,5.5-3.5,8.2-5.4c2.4-1.7,5.7-2.1,8.6-3c2.2-0.7,4.4-1.5,6.7-1.9
				c3.1-0.6,6.2-1,9.4-1.2c3.1-0.2,6.2,0,9.3,0H99.6z"/>
			<path id="Fill-10" class="st0" d="M292.7,593.7c-3.1,0-6.2-0.1-9.3,0c-3.1,0.1-5.9,2.1-8.9,2.2c-5.2,0.2-9.9,3.2-15.3,2.5
				c-0.2,0-0.8,0.8-0.7,1.2c0,0.4,0.6,1,1,1c1.7,0.1,4-0.6,5.1,0.2c2.4,1.8,5.2,0,7.1,1.2c2.6,1.7,5.2,0.8,7.7,0.9
				c6,0.2,12,0,18,0.1c2,0,4.2-0.9,5.9,1.1c3.5-0.8,6.6,1.1,10,1.2c1.9,0,2.4-0.7,2.1-2.3c-0.1-0.4-0.2-0.9,0-1.1
				c0.4-0.5,0.9-0.8,1.4-1.2c0.3,0.4,0.8,0.8,0.8,1.2c0.8,4.7,0.8,4.6,5.1,4.6c2.1,0,3.6-0.2,4.3-2.6c0.2-1,1.5-1.7,2.2-2.6
				c0.9-1,1.3,0,1.6,0.4c0.4,0.6,0.7,1.3,0.7,2c0.1,1.6,0.7,2.1,2.1,1.3c3.7-2.2,8.1-1.8,12-3.1c1.5-0.5,3.5-1.6,4.7-1
				c3.4,1.5,7.1,1.3,10.4,2.9c3.5,1.7,7.4,1.9,11.1,2.6c4.7,0.8,9.3-1.2,13.7-3.2c0.8-0.4,2.2-0.1,1.8-1.4c-0.3-0.9-1.4-1.8-2.3-2.1
				c-1-0.3-2.3,0-3.3,0.4c-2.6,1-4.8,0.7-7.5-0.1c-4.5-1.3-8.5-3.7-13-5.2c-2.8-0.9-5.5-2.2-8.4-2.1c-6.6,0.1-13.2,0.7-19.8,1.1
				c-0.5,0-1,0.4-1.5,0.6c-6.2,2.3-12.6,1.7-19,1.7c-2.1-2.4-5.2-0.2-7.5-1.6c-2.5-1.5-5.2-0.4-7.8-0.7
				C295.8,593.5,294.2,593.7,292.7,593.7 M328.7,636.6c0,0.1,0,0.2,0,0.4c5.6-0.5,11.3-1,16.9-1.6c1-0.1,2-0.8,3-1.1
				c8.2-2.4,15.4-6.8,21.4-12.6c3.3-3.3,6.3-7.1,9.6-10.5c0.2-0.2,0.4-0.5,0.6-0.8c-0.3-0.2-0.6-0.5-1-0.5c-1.4-0.1-3.1-0.6-4,0.1
				c-1.8,1.4-3.4,1.1-5.2,0.7c-1.9-0.5-3.9-0.8-5.9-1.3c-4-1-8-2.3-12.1-2.9c-5.2-0.8-10.2,1.6-15.3,2.2c-1,1.6-2.7,1-4.2,1.2
				c-4.2,0.4-5.6,1.8-5.7,5.9c0,1,0,1.9-0.1,2.9c0,0.2-0.6,0.6-0.9,0.5c-0.5-0.1-1.3-0.4-1.3-0.7c-0.2-1.9-0.1-3.8-0.2-5.7
				c-2.1-0.2-4.1-0.2-6.2-0.5c-0.7-0.1-1.2-0.9-1.9-1.1c-2.5-0.5-3.1,0-3.5,2.6c-0.1,0.7-0.5,1.9-0.7,1.9c-1.1-0.1-2.2-0.4-3.1-0.9
				c-0.9-0.5-1.3-1.3-0.5-2.4c1.8-2.1,0.5-2.1-1.4-2.6c-2-0.6-3.9-1.2-5.9-1c-1,0.1-2,0.2-2.9,0c-6.6-1.4-6.5-1.4-13,0
				c-1.1,0.2-2.8,0.4-3.3-0.2c-1.4-1.4-2.8-0.9-4.3-0.9c-2.5-0.1-5.3,0.7-7.5-0.2c-2.4-1-5.2,0-6.9-1.3c-2.2-1.7-4.6-0.2-7-1.7
				c-2.4-1.5-6.1-1.1-9.2-1.4c-0.9-0.1-1.8,0.3-2.7,0.4c0.7,0.4,1.4,0.8,2.1,1.2c0.9,0.5,1.9,1,2.8,1.7c7.4,5.6,15,11.1,21.7,17.4
				c5.9,5.5,13.1,6.8,20,9.3c4.8,1.7,10.2,0.9,15.3,2.3c2.2,0.6,4.6-0.1,6.9,0.1c2.4,0.2,4.7,0.9,7.1,1.1
				C323.3,636.8,326,636.6,328.7,636.6 M239,597.2c1.6,0.1,4.3-0.7,6.6,1.1l8.4-2c2-0.9,4-1.6,6.4-1.5c1.8,0,4.1-0.1,5.2-1.2
				c1.9-1.9,4.7,0.2,6.1-2.2c2.4,0.8,4.5-0.7,6.4-1.4c2.2-0.8,4.6-0.3,6.5-1.1c3.7-1.5,7.4-1,11.2-1c2.2,0,4.1,1.4,6.5,1.1
				c2-0.2,3.9,0.3,5.9,0.9c3.5,1,7.4,1,11.1,1.3c2.4,0.2,4.9,0.1,7-1.2c2.2-1.3,4.7-1.3,7.1-1.1c3.4,0.2,6.5-1.7,10-1.3
				c3.2,0.4,6.6,0.2,9.8,0.1c3.4-0.1,6.5,0.7,9.5,2.3c2.2,1.2,4.4,2.4,6.7,3.5c3,1.4,6,2.2,9.4,2.6c3.4,0.4,7.6-0.3,10.2,3.2
				c3.2-0.7,5.1,3.1,8.3,2.4c0.3-0.1,1-0.1,1.1,0.1c0.6,1.3,1.1,2.6,1.6,3.9c-0.9-0.2-2.2-0.1-2.7-0.7c-1.6-1.7-3.8-1.6-5.3-1
				c-2.3,0.9-4.8,2.4-6.2,4.4c-2.8,4-6.5,7.2-9.1,11.2c-0.9,1.4-1.8,2.7-2.9,4c-4.1,5-9.6,8.2-15,11.4c-4.3,2.6-9,4.7-14.3,4.8
				c-1.4,0-2.8,0.6-4.1,1.1c-0.7,0.3-1.1,1-1.7,1.5c0.7,0.3,1.5,0.4,2.2,0.8c0.5,0.3,0.8,1,1.1,1.5c-0.4,0.3-0.9,0.6-1.3,0.7
				c-0.5,0.1-1.5,0.2-1.6-0.1c-1.8-2.8-4.6-2.1-7.3-2.2c-4.6,0-9.3-0.1-13.9,0c-2.4,0-4.7-0.3-7.1,1c-1.8,1-4.6-0.9-6.4,1.2
				c-5.6-1.1-10.3,3.3-15.8,2.4c-1.3-0.2-2.1,0.5-3,1.3c-0.6,0.6-1.6,0.8-2.5,1c-0.4,0.1-1.2-0.3-1.4-0.6c-0.2-0.4,0.1-1.2,0.4-1.5
				c1-0.8,2.1-1.9,3.2-2c3.2-0.2,5.7-2.7,8.7-2.7c3.6,0,6.5-2.5,10.1-2.5c0.2,0,0.4-0.4,0.7-0.7c-0.3-0.2-0.6-0.4-1-0.5
				c-2.5-0.4-5.1-0.8-7.6-1.2c-2.4-0.4-4.8-0.6-7-1.2c-2.9-0.8-5.9-1.6-8.6-2.9c-4.7-2.3-9.4-4.6-13.4-8.4
				c-5.3-5-10.9-9.8-16.6-14.4c-2.2-1.8-4.3-3.5-6.4-5.4c-1.9-1.7-4.1-3.2-6-5c-1.9-1.7-3.9-2.1-6-0.6c-2.6,1.7-5.1,3.6-7.7,5.3
				c-0.3,0.2-1.2,0.1-1.5-0.2c-0.3-0.3-0.4-1.3-0.2-1.5c2.8-2.5,5.4-5.4,8.6-7.2C232.9,596.4,235.7,597.2,239,597.2"/>
			<path id="Fill-12" class="st0" d="M223.4,392.2c-0.2-0.2-0.3-0.3-0.4-0.4c-0.1,0.3-0.3,0.5-0.4,0.8c0,0.1,0.2,0.3,0.4,0.4
				C223.2,392.7,223.3,392.4,223.4,392.2 M220.1,414.6c-0.3-0.4-0.6-0.7-0.7-1c-1.5-3-1.5-6,0-9c0.1-0.2,0.4-0.4,0.4-0.4
				c-0.2-0.3-0.6-0.9-0.7-0.9c-3.3,1.4-6.8,2.2-9.7,4.3c-1.1,0.8-1.1,1.6-0.2,2.8c2.3,2.9,5.5,4.1,8.8,5.1
				C218.6,415.8,219.4,415,220.1,414.6 M257.3,408.5c0.6,2.1-0.5,4.2-1.6,6.4c-0.4,0.9-0.4,2.1-0.6,3.1c1,0,2.1,0.2,3.1,0.1
				c1.1-0.1,2.1-0.8,3.1-0.7c5,0.7,9.7-1.5,14.6-1.2c0.3,0,0.9-0.3,0.9-0.5c0.1-0.5,0.1-1.3-0.2-1.5c-2.1-1.8-4.4-3.4-6.4-5.4
				c-2.8-2.7-6-4.8-9.5-6.5c-1.5-0.7-3.1-1.2-4.6-1.8c-0.6,1.6,0.7,2.8,1.1,4.1C257.5,405.7,257.3,406.9,257.3,408.5 M238.3,419.6
				c2.8,0,5.1,0.1,7.4,0c3.2-0.2,5.8-1.8,6.5-4.9c1.1-5.5,0.9-11.1-2.5-16c-0.8-1.1-1.9-1.2-3-1.1c-0.7,0.1-1.4,0.3-2.1,0.5
				c0.2,0.7,0.3,1.6,0.8,1.9c2.7,1.7,2.9,4.3,2.7,7c-0.1,1.2,0,2.3,0,3.5c-0.1,2.4-5,7.7-7.3,7.9c-2.5,0.2-5.1,0.3-7.5-0.1
				c-1.3-0.2-2.6-1.5-3.5-2.7c-1-1.2,0.6-1.9,1.2-2.8c1.7-2.5,1.3-5.9-1.3-7.1c-1.6-0.8-2.6-1.4-2.5-3.2c0.1-1.3-0.6-1.5-1.7-1.5
				c-1.1,0-1.3,0.6-1.9,1.4c-1.8,2.5-1.5,5.4-0.9,7.7c0.9,3.8,1.9,8.2,7.4,8.3C232.7,420.8,235.9,418.9,238.3,419.6 M223.2,415
				c19.7,12.8,18.9,12.7,18.2,12.8c-10.5,0.6-15.9-1.4-24.7-4.8c-4.3-1.7-8.6-4.4-10.5-9.5c-0.5-1.4-1.5-2.4-3.1-0.6
				c-1.1,1.2-2.7,1.9-4,2.9c-1,0.8-1.6,0.1-2.4-0.5c-1.3-1-0.4-1.6,0.3-2.1c2.5-1.8,2.7-5.9,6.5-6.6c0.2,0,0.6-1.1,0.4-1.5
				c-0.4-1.1-0.9-2.4-1.7-2.9c-1.3-0.7-2,0.7-2.7,1.6c-1.6,2-4.4,3.1-5,6c-0.1,0.2-1.1,0.5-1.5,0.4c-0.4-0.2-0.6-0.9-0.6-1.4
				c-0.2-2.6,2-4,3.2-5.5c5.3-6.8,12.8-10.8,20.8-14c3.2-1.3,6.5-2.2,9.8-2.9c3.2-0.7,6.3-2.2,9.8-1.6c3.8-2.5,8.4-0.3,12.5-2.1
				c1.8-0.8,4.8-1.1,7.1,0.7c0.6,0.5,1.8,0.3,2.8,0.2c3.8-0.2,6.8,1.6,9.3,4c3.3,3.1,6.5,6.5,8.9,10.2c1.7,2.6,4,4.5,5.9,6.8
				c0.3,0.4,0.6,1.4,0.5,1.5c-0.6,0.4-1.4,0.9-1.9,0.7c-1-0.4-2-1-2.7-1.8c-3.2-3.5-6.3-7-9.4-10.6c-3.9-4.5-8.8-6.9-14.8-6.2
				c-1.1,0.1-2.2,0.2-3.3,0.4c1,1,1.9,2.9,2.9,3c5,0.5,8.7,3.4,12.7,5.8c5.3,3.3,8.9,8.2,13.1,12.5c0.8,0.8,1,2.2,1.8,2.6
				c3.3,1.6,2.1,5.4,3.9,7.8c0.2,0.3-0.9,2-1.7,2.6c-0.3,0.2-1.7-0.5-2.3-1.1c-1-1-1.7-3.2-2.6-3.2c-1.4,0-3.1,1-4.2,2.1
				c-1.1,1.1-2.2,1.3-3.6,1.2c-1.9-0.1-3.9,0-5.8,0c-0.2,0-0.4,0.5-0.5,0.7c0,0.1,0.3,0.4,0.4,0.4c1.5,0,3.1,0,4.6,0.1
				c0.2,0,0.6,0.6,0.5,0.9c-0.1,0.5-0.4,1.3-0.7,1.3c-1.3,0.1-2.7,0.1-4,0c-2.8-0.2-5.5,0.1-8,1.7c-0.9,0.5-2.1,0.6-3.2,0.6
				C250.6,427.8,247.1,427.7,223.2,415c-18.7-12.6-17.4-13.3-17-15.1c3.4-0.9,6.6-2.3,10.8-5.9c0.9-0.9,0.1-0.6-0.6-0.1
				c-0.4,0.3-0.6,0.9-0.8,1.4c0.4,0,0.8,0.1,1.2,0c0.9-0.2,1.7-0.4,2.5-0.8c0.3-0.2,0.5-0.8,0.7-1.2c-0.3-0.1-0.7-0.2-2.9,0.8
				c-5.2,1.5-8.2,3-10.8,5.9C204.4,399.7,203.2,400.4,223.2,415"/>
			<path id="Fill-14" class="st0" d="M437.2,405.8c0-0.2,0.1-0.5,0-0.6c-4.4-5.3-9.7-9.4-16-12.3c-0.3-0.1-0.7,0.1-1,0.2
				c0.2,0.4,0.2,1,0.6,1.2c3.8,2.2,7.4,4.8,10.4,8.1c1.5,1.6,3.4,2.7,5.2,4.1c0.1,0.1,0.5,0,0.8-0.2
				C437.2,406.3,437.2,406,437.2,405.8 M380.3,406.3c-0.8,5.9,4.3,8.5,7.7,12.1c0.3,0.3,1.1,0.1,1.7,0c0.3,0,0.6-0.3,1-0.4
				c-0.2-0.2-0.3-0.5-0.6-0.7c-0.9-0.6-2.5-1.1-2.6-1.8c-0.2-1.1,0.6-2.3,1-3.5c0.1-0.3,0.7-0.5,0.8-0.8c0.2-1.7,0.6-3.4,0.2-5
				c-0.3-1.1-1.6-2-3.2-1.8c-0.3,0.1-1.1-0.8-1.2-1.4c-0.1-1.2,0-2.2-1.8-2.1c-1.6,0.1-2.4,0.9-2.8,2.2
				C380.1,404.1,380.3,405.1,380.3,406.3 M410.9,407.2c-0.5-2.3-0.9-4.7-1.6-7c-1-3.3-5.9-5.4-8.7-3.7c-0.1,0.1,0,0.9,0.3,1.2
				c1.2,1.3,2.5,2.5,3.7,3.7c0.5,0.5,1.3,1.2,1.3,1.7c0.1,4.5,0.9,9.2-3.5,12.5c-0.8,0.6-2.1,2.2-2,2.3c1.2,1.3,1.8-0.3,2.8-0.7
				c0.5-0.2,1.2-0.2,1.7,0c2.8,1,3.4-1.4,4.5-2.9C410.8,412.2,410.6,409.8,410.9,407.2 M377.5,419.6c1,0,1.3,0,1.7,0
				c0.7-0.1,1.4-0.3,2.1-0.4c-0.4-0.5-1-1-1.3-1.6c-1.7-3.6-5.2-6.9-2.1-11.5c0.6-0.9-0.4-1.9-1.5-1.5c-1.5,0.6-3,1.3-4.2,2.3
				c-2.7,2.3-5.3,4.8-7.9,7.3c-0.9,0.9-0.1,2.9,0.9,3.1C369.5,418.1,373.8,418.9,377.5,419.6 M413.6,416c1.9-0.5,2.8-1,3.6-1
				c2.7,0.3,4.9-1.2,7.3-1.9c2.6-0.7,5.2-1.1,7.6-2.6c1.6-0.9,1.6-1.1,0.4-1.8c-5.1-2.9-9.9-6.6-15.4-8.8c-0.9-0.4-1.7-2.1-2.8-0.8
				c-0.5,0.6,0,2,0.1,3c0.1,0.7,0.6,1.4,0.6,2.1c0.1,3,0.2,5.9-1.7,8.5C412.5,413.9,413.6,416,413.6,416 M407.9,423.3
				c-24.1,4.4-27.1,4.4-30.2,4.4c-1.6,0-3,0-4.1-1.4c-1.4-1.9-3.6-0.5-5.4-0.9c-0.6-0.1-1.2-0.5-1.8-0.8c0.4-0.5,0.7-1.3,1.2-1.4
				c1-0.3,1.4-0.6,0.4-1.3c-0.7-0.5-1.6-1-2.4-1c-1.4,0-2.5-0.3-3.5-1.4c-0.6-0.6-1.6-0.7-2.5-1c-0.8-0.3-2.2-0.3-2.4-0.8
				c-0.7-1.8,1.4-1.2,2-1.9c0.8-1,1.5-2.1,2.1-3.2c3.5-7.1,9.1-12.1,15.7-16.2c4.8-3,10.2-4.5,15.3-6.4c3.2-1.2,6.9-1.1,10.4-1.6
				c0.3,0,0.6-0.4,0.9-0.6c-0.3-0.2-0.6-0.5-0.9-0.5c-5,0-10.3-0.9-15,0.2c-4.9,1.1-9.9,3.3-14.2,6.2c-4.1,2.8-8.3,5.5-12.3,8.3
				c-5.5,3.9-8.3,9.1-10.9,14.7c-0.8,1.8-1.8,3.5-2.8,5.2c-0.1,0.2-0.9,0.3-1,0.1c-0.4-0.3-0.8-1-0.7-1.3c2.6-8,4.8-16.3,12-21.7
				c3.9-3,8-5.8,12.2-8.3c4.3-2.6,8.9-4.7,13.4-6.9c3.3-1.6,7.2-2.6,10.6-2.2c7.7,1,15.5,1.4,22.8,5c5.2,2.5,10.4,4.9,15.1,8.3
				c2.8,2,5.5,3.7,6.9,7c0.4,0.8,1.4,1.4,2,2.1c1.7,2,1.7,4,0,6c-1.8,2.2-4.4,3.3-6.8,4.5c-0.5,0.3-0.8,0.8-1.2,1.2
				c0.6,0.2,1.1,0.5,1.7,0.6c0.6,0.1,1.2,0,1.7,0c0.8,0.1,2.1-0.6,2.3,0.9c0.2,2-1.4,1.2-2.4,1.4c-0.9,0.2-1.7,0.5-2.5,0.9
				c-0.5,0.3-0.9,1.2-1.2,1.1c-4.5-0.8-7.9,3.3-12.3,2.6c-1.7-0.3-3.3,0.1-4.8,1.1c-2.7,1.9-6,1.7-8.9,2.1c-3.1,0.4-6.2,1.3-9.4,1.4
				C393.6,427.8,390.3,427.7,407.9,423.3c22.1-5,23.1-5.6,24.2-6.2c0.2-0.1,0.4-0.4,0.4-0.4c-0.2-0.2-0.4-0.6-0.6-0.6
				c-1.2-0.1-2.4-0.2-3.5,0c-0.6,0.1-1.1,1-1.7,1.6C427.4,418.1,428,418.4,407.9,423.3"/>
			<path id="Fill-16" class="st0" d="M269.9,356.5c-0.1-0.2-0.3-0.5-0.4-0.7c-0.1,0.1-0.4,0.3-0.4,0.4c0.1,0.3,0.2,0.5,0.4,0.8
				L269.9,356.5z M238.9,356.5c0.2,0.2,0.3,0.3,0.4,0.4c0.1-0.3,0.3-0.5,0.4-0.8c0-0.1-0.2-0.3-0.4-0.4
				C239.1,356,239,356.3,238.9,356.5L238.9,356.5z M226.1,354.6c-0.6-0.7-1.3-1.5-1.9-2.3c-0.5,0.5-1,1-1.6,1.5
				c0.9,0.6,1.8,1.3,2.7,1.9C225.5,355.5,225.7,355.2,226.1,354.6L226.1,354.6z M207,365.3c-1.3-1.1-2-1.8-2.7-2.4
				c-0.5,0.7-1.4,1.4-1.5,2.2c-0.3,1.5,1.1,1.2,1.9,1.1C205.2,366.2,205.8,365.8,207,365.3L207,365.3z M257.6,360.4
				c1.1,0,2.3,0.1,3.4-0.1c0.3,0,0.7-0.7,0.9-1.1c0.3-1-0.1-1.3-1.1-1.1c-3.6,0.6-6.6-0.5-8.8-3.6c-0.3-0.4-0.8-0.9-1.3-1
				c-0.4-0.1-1.1,0.2-1.4,0.5c-0.2,0.2-0.1,1-0.1,1c2.3,0.4,2.1,2.5,2.8,3.9c0.3,0.7,1.4,1.2,2.2,1.3c1.1,0.2,2.3,0.1,9.3-8.1
				c-2.5-0.1-3.3,1-2.7,2.8c0.2,0.7,1.1,1.3,1.1,1.8c-0.2,1.8,1.2,1.2,1.8,1.1c0.6-0.2,1-1.1,1.7-1.5c0.7-0.5,1.6-0.8,2.3-1.2
				c-0.7-0.8-1.4-1.8-2.2-2.4C264.7,352.5,263.7,352.4,257.6,360.4L257.6,360.4z M276.9,365.7c-0.2-0.2-0.4-0.5-0.5-0.7
				c-0.2,0.2-0.3,0.3-0.5,0.5c0.2,0.2,0.4,0.4,0.7,0.5c0,0,0.2-0.2-2.6-0.7c0.8-0.4,1.5-0.5,1.8-1c0.4-0.5-1.3-3-1.5-2.7
				c-0.7,0.7-1.2,1.6-1.6,2.5C272.6,364.4,273.5,365,276.9,365.7L276.9,365.7z M221.5,349.2c-0.1-4,3.3-3.1,5.4-2.5
				c2.9,0.9,6.3,0.4,8.7,2.9c0.3,0.3,1,0.2,1.5,0.2c-0.2-0.5-0.7-1.1-0.6-1.6c0.1-0.6,0.5-1.6,0.9-1.7c2.6-0.2,5.1,0,7.7-1.1
				c1.2-0.5,3.1,0.6,4.7,1c0.7,0.2,0.8,1.4,2.1,0.3c2.9-2.4,5.7-2.3,8.9,0.4c1.9,1.6,3.9,2.4,5.5,1.1c2.4-2,4.1,0,5.5,0.7
				c2.4,1.3,4.5,3.3,6.5,5.2c4.7,4.4,4.6,4.4,4.5,10.9c0,1.8-0.5,2.4-2.3,2.2c-1.4-0.1-1.7,1.2-1.1,1.8c2.4,2.3,0.1,2.7-1.3,3.2
				c-4.4,2-9.1-1-9.4-5.9c-0.1-0.9-0.4-1.8-0.6-2.7c-1.6,0.5-2.8-0.6-4.2-1.1c-0.2-0.1-0.9,0.2-0.9,0.4c-0.5,1.9-0.9,3.8-3.2,4.4
				c0.2,0.3,0.5,0.9,0.6,0.9c2.9-0.8,3.8,1.2,4.9,3.2c0.3,0.6,0.8,1.5,1.1,1.4c3.1-0.1,5,3.3,8.3,2.5c0.5-0.1,2,1.5,2,2.2
				c0,0.8-1.2,2-2.1,2.2c-2.8,0.8-5.6-0.4-7.9-1.6c-2.2-1.2-5.7-1-6.2-4.7c0-0.2-1-0.6-1.5-0.5c-4.1,0.2-7.1-2.4-8.6-5.3
				c-1.4-2.7-2.5-1.7-3.8-1c-3.6,2.1-5.9,2.3-9.9,0.5c-3.9-1.7-8-2-11.7,0.2c-3.4,2-6.5,3.2-10.4,1.2c-1.1-0.6-3.3,0.2-4.6,1
				c-2.7,1.6-5.2,1.4-7.9,0.2c-0.8-0.3-2.2-0.5-2.7-0.1c-3,2.7-6.7,2.1-10.2,2.1c-1.5,0-2,0.4-2,1.9c0,1-0.2,2.4-0.9,3
				c-1.5,1.3-3.3,2.3-5.1,3.1c-0.6,0.3-1.7-0.5-2.4-0.9c-0.3-0.1-0.4-1.1-0.3-1.1c1.7-1.3,1.9-2.4,0.1-3.8c-0.4-0.3-0.5-1.6-0.2-1.9
				c1.1-1,2.3-1.8,3.5-2.6c0.6-0.4,1.9-0.4,1.9-0.7c0.3-2,4.4-0.9,3.3-3c-1.4-2.7-2.9,0.7-4.4,1c-2.1,0.4-2.6,0.5-2.3-1.9
				c0.1-0.9,0.4-1.8,0.9-2.5c1.3-1.8,4.3-1.1,5.3-4c0.8-2.2,4.3-1.9,6-3.1c2.2-1.6,3,1,4.5,0.4c0.1,0.6,0.5,1.8,0.4,1.9
				c-2.9,1.3-0.7,3.4-0.9,5.1c-0.1,0.8,0,1.5,0,2.6v-0.3c-0.3,0.1-0.6,0.2-0.9,0.4c-0.1,0.1,0.1,0.5,0.2,0.7
				c0.2-0.2,0.5-0.4,0.7-0.8c0.7-0.4,1.5-0.4,2.1-0.7c2.8-1.4,3.1-1.6,1.8-4.3c-1-1.9,0.4-2.3,1.1-3.2c1.1-1.4,2.2,1.8,3,0.2
				c0.3-0.6-0.7-1.9-1-2.9c-0.1-0.2,0.2-0.7,0.5-0.9c0.3-0.2,0.7-0.1,1.1-0.1c1.3-0.1,2.6-0.2,3.9-0.3c-0.3-1.1-0.7-2.3-0.9-3.4
				c-0.1-0.8-0.5-2,1.1-2c2.9,0,5.8-0.1,8.6,0.1C218.9,347.7,219.5,348.4,221.5,349.2c0.5,0,0.1-0.2-0.3-0.3c-0.3-0.1-0.7,0-1.1,0
				c0.3,0.4,0.5,1,0.8,1.1C221.3,350.1,221.9,349.8,221.5,349.2L221.5,349.2z"/>
			<path id="Fill-18" class="st0" d="M529.2,363.9c-4,1-8.5-1.2-13.1-2.4c-1-0.3-2.2-0.6-2.9-1.3c-5.2-4.4-9.4-9.5-10.9-16.3
				c-0.6-2.8-0.9-5.7-2.2-8.4c-1-2,0.5-3.7,1.5-5c1.5-2,2.9-3.5,0.7-5.8c-1.6-8.7-6.6-15.6-12-22.3c-0.2-0.3-0.6-0.5-0.7-0.9
				c-0.1-0.3-0.1-0.8,0.1-1.1c0.2-0.3,0.7-0.6,0.9-0.5c2.4,1.3,5.3,1.8,7,4c4,5,7.8,10.2,10.2,16.1c1.3,3.3,2.3,6.7,3.7,10.1
				c0.5,1.2,0.8,2.4,1.8,3.3c1,0.9,2,1.8,2.9,2.9c3.6,4.7,9,6.9,14.1,9.4c0.6,0.3,1.4,0.5,2.1,0.6c2,0.1,4,0.5,6,1
				c2.3,0.6,5.3,0,7.5-1c5.1-2.3,9.5-5.8,12.2-10.9c0.2-0.4-0.2-1-0.3-1.6c-0.3,0.1-0.6,0.3-0.8,0.4c-3.3,1.6-6.7,3-10.4,2.8
				c-3.7-0.2-7.6,1.3-11.1-1.1c-3.8,0.6-6.4-2.3-9.6-3.4c-2.8-1-3.6-3.5-4.8-5.7c-0.3-0.5-0.1-1.9,0.3-2.1c0.8-0.4,1.8-0.3,2.7-0.2
				c0.5,0.1,0.8,0.9,1.3,1.2c3.1,2,6.4,3,10.2,3.5c6.2,0.7,6.1,1.3,10.2,0c2.3-0.7,4.7-0.2,7.1-1c5.2-1.6,9.3-3.8,11.2-9.1
				c0.2-0.7,1.3-1,2-1.5c0.5,0.8,1.3,1.5,1.4,2.3c0.1,2.4,0.5,4.9-1.1,7c-0.8,1.1-0.8,2.4-1.2,3.6c-1.7,5.3-3,10.8-7.6,14.9
				c-3.9,3.5-7.5,6.9-12.9,8.3c-3.3,0.9-6.5,1-9.5,0.6c-5.5-0.8-10.9-2.2-15.7-5.4c-3.5-2.3-6.4-5.4-9.3-8.2
				c-0.4-0.4-1.1-0.6-1.6-0.8c-0.1,0.7-0.5,1.9-0.1,2.2c1.8,1.6,1.8,4,3.1,5.7c4.2,5.4,8.2,7.5,15.3,9.2c1.8,0.4,3.5,1,5.3,1.1
				c1.6,0.1,3.2,0.7,4.7,1.1c1.8,0.4,3.6,0.7,5.3,1.2c0.4,0.1,0.9,0.7,0.9,1.1c0,0.4-0.5,1-0.8,1.1
				C538.2,364.3,534.2,363.8,529.2,363.9"/>
			<path id="Fill-20" class="st0" d="M178.3,182.8c0,0.9,0.1,1.4,0,1.7c-0.8,1.3,1.7,4.1-1.3,4c-1.8-0.1-0.5-2.6-1-3.9
				c-0.8-2-1.5-4-2.4-5.9c-3.7-7.6-7-9.6-15.8-13.3c-5.6-2.3-11.4-4.3-17.3-6c-3.2-0.9-6.4-1.4-9.6-2.1c-1.8-0.4-3.7,0.6-5.5-1
				c-0.5-0.4-2.3,1-3.4,0.9c-6.9-0.9-12.7,3.1-19.2,4.1c-3.1,0.5-6.1,1.3-9.1,1.9c-4.1,0.8-8.3,0.4-12.3,1.1
				c-6.4,1.1-12.3,3.5-18.3,6.2c-6.1,2.7-10.7,7.4-16.7,10.1c-0.5,0.2-1.1,0.3-1.6,0.5c0.1-0.5,0.2-1.1,0.4-1.6
				c2.1-3.9,5.2-6.9,8.8-9.4c4.7-3.4,9.8-6.1,15-8.7c3.2-1.6,6.5-2.3,9.8-2.9c8.5-1.5,16.9-2.9,25.3-4.8c1.5-0.3,2.8-1.8,4.3-2.2
				c6.9-2,14-3.3,21-2.2c4.6,0.7,9.3,1.6,13.7,3.3c4.2,1.6,8.4,3,12.6,4.7c5,2.1,10,4.3,14.1,8.1c3.2-0.2,2.9,3.1,4.3,4.6
				C177.2,173.8,179.2,178.2,178.3,182.8"/>
			<path id="Fill-22" class="st0" d="M316.5,115.8c-0.1,4.4-0.2,8.7-2,13.1c-2,4.9-5.5,6.9-9.7,8.7c-1.5,0.6-3.3,0.6-4.7,1.2
				c-4.1,1.9-8.2,3.8-11.8,6.6c-6.7,5.1-13.4,10.1-19.5,16c-0.4,0.4-1.3,0.4-1.9,0.2c-0.2,0-0.5-1.1-0.3-1.5
				c0.6-1.5,1.1-3.2,2.2-4.3c6.5-6.9,13.3-13.4,21.1-18.9c3.4-2.4,6.9-4.3,11.2-5.3c2.3-0.5,4.9-1.8,6.2-4.7
				c2.4-5.3,2.9-10.5,1.5-16.2c-0.8-3.2-1.3-6.5-1.5-9.8c-0.2-2.8-1.2-5.2-2.1-7.8c-2.3-6.8-6.5-12.5-10.4-18.3
				c-3.1-4.4-4.6-9.4-5.9-14.4c-0.6-2.4-1.8-4.8-1.4-7.6c0.6-3.3,1-6.5,3.8-8.9c1.2-1,2.1-2.3,3.3-3.2c0.4-0.4,1.3-0.2,1.9-0.3
				c-0.1,0.7,0,1.4-0.2,2c-0.4,1-0.9,2-1.6,2.8c-2.8,3.3-2.6,6.6-1.5,10.7c2,7.2,5.5,13.2,9.9,19.1c4.4,5.9,8.5,12.1,10.4,19.4
				c0.7,2.8,1.9,5.5,2,8.5c0.1,2.2,0.9,4.3,1.1,6.5C316.6,111.5,316.5,113.7,316.5,115.8"/>
			<path id="Fill-24" class="st0" d="M243.5,120.1c-0.5,4.6-1.1,8.1-1.3,11.6c-0.1,1.8-0.8,3.8,1,5.4c0.4,0.4-0.3,2-0.7,3
				c-3,7.4-6.4,14.5-11.4,20.8c-2.5,3.2-3.1,7.7-6.2,10.7c-0.1,0.1-0.2,0.4-0.1,0.5c1.6,3-3.3,3.7-2.4,6.5c0,0.1-0.9,0.7-1.3,0.6
				c-0.4-0.1-0.9-0.8-0.9-1.1c0.4-2.5,1.6-5,1.2-7.6c2.9-3.6,2.5-8.6,5.3-12.3c2.6-3.6,4.4-7.9,7.1-11.5c2.6-3.4,3.2-7.3,3.7-11.2
				c0.5-3.7-0.4-7.5,1.1-11.2c0.6-1.5-0.3-3.6-0.6-5.5c-0.1-0.7-0.4-1.4-0.4-2.1c0.1-7.6-2.6-14.1-6.8-20.5c-2.6-4-4.7-8.5-7.1-12.7
				c-3.4-6-6.4-12.4-12.1-16.3c-4-2.8-6.9-6.8-11.2-9.3c-3-1.8-4.5-5.3-6.3-8.3c-0.5-0.8-1.4-1.6-0.3-2.3c0.4-0.3,1.7,0.4,2.2,0.9
				c0.7,0.7,1,1.9,1.8,2.6c3.3,3,6.6,6.3,10.2,8.9c10,7.1,13.4,10.7,18.7,20c3.3,5.8,7.2,11.3,10.1,17.3c2.5,5.1,5.5,10.2,5.4,16.4
				C242.2,116,243.2,118.5,243.5,120.1"/>
			<path id="Fill-26" class="st0" d="M491.8,507.6c-0.4-6.1,1.7-10.8,6-14.6c3-2.6,5.2-5.7,7.1-9.2c1-1.9,1.1-3.4,0.1-5.2
				c-1.1-1.9-2-3.9-1.6-6.3c0.2-1.4,0-2.7-1.3-3.5c-1.6-1.1-0.9-2.8-1-4.2c0-0.3,0.7-0.7,1.2-0.8c0.3-0.1,0.9,0.3,0.9,0.4
				c0.1,2.3,0.2,4.5,2.5,5.9c-1.1,2.6,1.6,3.6,2.4,5.4c2,4.5,1.2,11.2-2.4,15.5c-2.3,2.7-4.8,5.3-6.9,8.2c-2.4,3.1-2.8,6.8-2.2,10.5
				c0,0.2,1.2,0.6,1.4,0.4c1.3-1.1,2.8-2.2,3.7-3.6c4.5-6.5,8.9-13.3,10.5-21.1c1-5,3.1-10.2,0.6-15.8c-1.4-3.1-0.9-6.9-1.4-10.4
				c-0.2-1.6-0.9-3.1-1.1-4.7c-0.4-3.9,0.9-11.2,3.4-16.5c1.4-2.9,2.5-6,4.8-8.4c0.3-0.3,1.1-0.6,1.5-0.5c1.3,0.6,0,1-0.2,1.5
				c-0.7,1.7,0.3,3.6-1.5,5.2c-1.2,1-1.6,3.3-1.7,5c-0.2,4.8-3.4,9.4-0.6,14.6c1.2,2.3-0.1,5.3,1.1,8.2c1.3,3.3,1.2,7.3,1.3,11
				c0.5,11.8-3.8,22.1-10.4,31.6c-2.5,3.5-4.8,7-8.9,9c-1.1,0.6-1.6,0.7-2.9,0.2C492.5,513.7,491,511.2,491.8,507.6"/>
			<path id="Fill-28" class="st0" d="M101.9,482.3c0.4,7.9-3.1,15-4.9,22.4c-0.2,0.6-0.9,1.2-1.5,1.7c-0.8,0.6-0.8,1,0,1.7
				c1,0.9,2,1.8,2.8,2.9c0.5,0.6,0.5,1.6,0.7,2.4c-0.9,0.1-2,0.5-2.7,0.1c-3.2-1.7-5.4-6.4-3.7-9.8c2.4-4.8,1.9-10.3,4.4-15
				c-0.5-3.9,0.7-7.7-0.9-11.8c-0.9-2.2-0.8-5.1-2-7.3c-1.2-2.2,0.5-4.9-1.6-6.9c-0.6-0.5,0-2.2-0.1-3.4c-0.4-7.2-2.5-14.1-3.5-21.1
				c0-0.3-0.2-0.7-0.4-1c-2.7-2.8-5.2-5.8-8.3-8.1c-2.4-1.8-5.5-2.6-8.3-3.6c-0.8-0.3-1.9-0.1-2.9,0c-3.6,0-5.4,1.6-5.7,5.3
				c-0.2,2.6,0,5.1-1.1,7.7c-0.9,2.2,0.2,4.7,1.6,6.7c0.7,0.9,0.9,1.8-0.2,2.3c-1.1,0.4-1.2-0.8-1.7-1.4c-1.6-1.8-2.6-3.6-2.2-6.1
				c0.2-1.4-0.8-2.5-1-3.6c-0.8-4.3,0.6-8.4,2.9-12c0.9-1.4,2.3-3,3.8-3.3c2.6-0.5,5.5-0.5,7.9,0.2c5.2,1.6,10,4,14.3,7.3
				c3.8,2.9,5.8,7.2,6.8,11.6c1.2,5.2,1.9,10.5,2.6,15.8c0.5,3.5,0.1,7.3,1.2,10.5c1.1,3,1.7,6.2,2.8,9.3
				C101.9,477.6,101.7,480,101.9,482.3"/>
			<path id="Fill-30" class="st0" d="M435,75.4c-0.6,3.8-1,7.5-1.8,11.1c-0.8,3.3-1.5,6.8-3.1,9.7c-1.1,1.9-2.2,3.8-2.9,5.8
				c-0.9,2.8-1.9,5.6-1.6,8.6c0.3,2.9,0.2,5.8,0,8.7c-0.2,2.8-0.5,5.6-1.2,8.2c-2.3,8.9-4.6,17.7-9.9,25.5
				c-4.4,6.6-10.8,10.4-17.1,14.6c-1.4,0.9-2.7,2.1-4.2,2.4c-2.3,0.5-4.9-0.5-7,1.3c-1.5-1.8-4.3-0.2-5.8-2.2
				c1.3-2.6,3.8-1.4,5.4-1.2c4,0.6,6.9-1.7,9.7-3.3c5.9-3.5,10.9-8.5,15.1-13.9c3.1-4,5.3-9,6.8-13.9c1.3-3.9,2.4-8,2.7-12.3
				c0.2-2.3-0.2-4.4-0.1-6.6c0.1-2,0.9-3.9,1-5.9c0.2-2.1-0.2-4.3,0.2-6.3c0.4-1.9,1.4-3.6,2.2-5.5c0.8-1.8,1.3-3.8,2.4-5.4
				c1.9-2.8,2.6-6.1,3.2-9.1c1.2-5.5,2.3-11.3,1.2-16.8c-0.7-3.6-0.9-7-1-10.6c0-0.8-0.5-1.9-1.1-2.4c-1.6-1.2-1.2-2.7-1.1-4.2
				c0-0.4,0.5-1,0.9-1.1c0.4-0.1,1.3,0.3,1.3,0.6c0.8,2.8,3.1,5.1,2.4,8.3c-0.2,0.8,0.2,1.8,0.6,2.6c0.5,1.2,1.4,2.2,1.6,3.4
				C434.3,68.9,434.6,72.2,435,75.4"/>
			<path id="Fill-32" class="st0" d="M78.9,250.4c-12.7-0.5-23.2-3.3-33-8.4c-0.5-0.3-0.7-1.1-1-1.6c0.5-0.2,1-0.7,1.4-0.6
				c4.1,0.4,8.2,0.6,12.2,1.4c5.9,1.3,17.9,2.8,22.3,1.9c3.2-0.6,6.4-1.4,9.2-2.8c2.9-1.4,5.4-3.7,8.1-5.6
				c5.7-4.1,11.3-8.2,16.9-12.3c4.2-0.5,7.3-4,11.8-3.8c2.6,0.1,4.6,0.6,5.1,2.8c0.1,0.5,0.1,1.5-0.2,1.6c-0.6,0.2-1.4,0.3-1.9,0
				c-1.4-0.9-2.5-0.9-4,0.1c-3.4,2.5-7.2,4.4-10.4,7.1c-5.1,4.2-10.5,7.8-15.1,12.6c-2,2-4.6,3.7-7.2,4.8c-1.2,0.5-2.7,1.1-4.1,1.3
				C85.1,249.4,81.3,251.3,78.9,250.4"/>
			<path id="Fill-34" class="st0" d="M76.9,233.1c-2.8-0.3-5.2-0.5-7.6-0.8c0.3-3,3.2-4.1,4.9-6.1c6.5-7.5,14.9-12.6,23.8-16.8
				c7.7-3.7,15.7-6.3,24.3-5.5c3,0.3,6.3,0.3,8.6,2.9c0.3,0.3,0.7,0.5,0.8,0.8c0.1,0.5,0.3,1.2,0,1.5c-0.3,0.3-1.1,0.6-1.5,0.4
				c-3.2-1.6-6.6-1.1-10-1.1c-5.4,0-10.4,1.9-15.4,3.6c-8.5,2.8-15.7,8.1-23.1,12.7c-1.3,0.8-2.3,2-3.4,3.1
				c-0.3,0.3-0.5,0.8-0.7,1.2c0.5,0.1,1.1,0.3,1.6,0.2c2-0.7,4-1.7,6.1-2.2c10.6-2.3,14.9-4.3,23.3-10.9c3.3-2.6,6.9-4.6,10.8-6.2
				c0.5-0.2,1.1-0.4,1.6-0.4c0.5,0,1.2,0.1,1.5,0.5c0.2,0.3,0.2,1.2-0.1,1.5c-0.7,0.9-1.5,2-2.4,2.4c-5.1,2.1-8.8,6.1-13,9.4
				c-3.2,2.5-7.1,4.1-10.9,5.9c-2.3,1.1-4.7,1.9-7.1,2.3C84.8,232.3,80.7,232.6,76.9,233.1"/>
			<path id="Fill-36" class="st0" d="M29.6,324.4c0.1-1.5,0.1-2.2,0.3-2.9c0-0.2,0.6-0.4,0.9-0.4c0.3,0,0.9,0.2,1,0.4
				c0.8,5.4,5.1,7.4,9.3,9.3c1.6,0.7,3.4,1.3,5.1,1.6c6.1,1.3,12.3,1.9,18.5,1.5c0.3,0,0.6-0.4,0.9-0.6c-0.3-0.3-0.5-0.6-0.8-0.8
				c-4.5-2.2-9-4.4-13.9-5.6c-4.3-1.1-8.8-2.1-12.9-3.9c-4.1-1.9-8.5-3.7-11.3-7.7c-0.6-0.9-1.2-1.8-1.7-2.8
				c-1.2-2.2-2.3-4.4-3.5-6.7c1.8-2.1,0.9-4.7,1.2-7.1c0-0.3,0.8-0.8,1.2-0.8c0.4,0,1,0.5,1.1,0.9c0.5,2.1,0,4.2,0.9,6.6
				c2,5.4,6.3,8.1,10.5,10.9c3.8,2.5,8.2,3.5,12.5,4.7c7.6,2.1,15.1,4.4,20.6,10.4c2.2,2.4,4.6,2.9,7.6,2c1.6-0.5,3.3-0.6,4.9-0.7
				c0.3,0,0.9,0.6,0.9,1c0,0.4-0.4,1-0.8,1.2c-1.1,0.6-2.3,1-3.5,1.4c-2.4,1-5.7,1.2-5.2,5.2c0,0.1-0.7,0.4-0.9,0.3
				c-0.4-0.2-1.1-0.7-1.1-0.9c0.3-2.1-0.4-2.7-2.5-2.6c-4,0.2-8.1,0.3-12.2,0c-6.5-0.6-13.4-1.1-20.9-5.6
				C32.3,330.5,30.2,327.8,29.6,324.4"/>
			<path id="Fill-38" class="st0" d="M437.3,590.7c-1.3,5.3-1.8,11.4-4.3,17.3c-3.2,7.8-7.1,15.2-11,22.7
				c-3.5,6.7-7.5,13.2-11.8,19.4c-2.2,3.1-5.3,5.7-6.9,9.3c-0.1,0.3-1,0.4-1.5,0.4c-0.2,0-0.5-0.7-0.6-1.1c-0.1-1.7,0.5-3,1.5-4.6
				c5.5-8.3,10.7-16.7,15.4-25.5c2.4-4.4,4.9-8.9,7-13.3c2.3-4.8,4.1-9.9,5.9-14.9c0.4-1,0.2-2.2,0.3-3.3c0.2-2.2-0.7-4.5,1.1-6.5
				c0.4-0.4,0.3-1.6,0-2.3c-1.6-3.8-0.9-8-2.3-11.8c-1.7-4.4-4-8.5-6.8-12.2c-1.2-1.6-2.4-3.2-3.5-4.9c-0.2-0.3,0.2-1.1,0.5-1.5
				c0.1-0.2,0.9-0.2,1.1-0.1c4.5,4.4,9,8.6,11.3,15c1.6,4.4,2.3,9,4.2,13.3C437.5,587.2,437.2,588.6,437.3,590.7"/>
			<path id="Fill-40" class="st0" d="M136.5,319.7c-0.7,5.7,2,11.2,1.2,16.9c-0.3,2.4,0.6,4.7-1,7.2c-1.2,1.8,0.9,4.9-1.3,6.9
				c0.1,4.9-1.4,9.3-3.4,13.7c0.8,2.5-2.2,3.5-2.3,5.4c-0.2,2.3-1.7,4-2.5,5.9c-0.7,1.8-2.2,3.3-3.3,5c-0.5,0.7-0.7,1.7-1.3,2.4
				c-0.7,0.9-2,0.9-2.1-0.2c-0.1-1.1-2.1-2.1,0-3.7c2.6-2,7.6-12.4,7.9-15.7c0.3-2.6,1.3-4.8,2.3-7.2c0.9-2.1-0.8-4.8,1.2-7.1
				c0.6-0.6,0.1-2.2,0.1-3.4c0-9.1,0.1-18.2-0.1-27.2c0-2.9-0.9-5.9-1.1-8.8c-0.2-3.1,0.6-6.4-0.2-9.2c-0.9-3.2-1-6.3-1-9.4
				c0-1.4-0.3-2.5-1.4-3.5c-0.5-0.4-0.9-1.2-0.9-1.9c0-0.6,0.4-1.3,0.8-1.8c0.1-0.1,1.2,0.2,1.4,0.5c0.9,1.3,2.4,2.9,2.2,4.2
				c-0.7,4.2,2.3,7.3,2.7,11.1c0.1,0.7,0.9,1.3,0.8,1.9C134.6,307.8,137.5,313.6,136.5,319.7"/>
			<path id="Fill-42" class="st0" d="M279.3,112.3c0.3,5.5-2,10.8-1.2,16.4c0,0.2-0.8,0.8-1.1,0.8c-0.4,0-1.1-0.6-1.1-0.9
				c0.8-5.7-1.8-11.2-1.2-16.9c0.6-4.8-1.2-9.1-2.9-13.3c-3.4-8-8.1-15.2-14.2-21.4c-1.7-1.7-3-3.7-4.5-5.6
				c-1.4-1.7-2.9-3.4-4.3-5.1c-2.9-3.6-5.9-7.1-8.5-11c-2.2-3.3-3.6-7-5.6-10.5c-0.6-1-0.8-2.7-0.5-3.8c0.4-1.4-1.7-4.1,1.3-4
				c1.8,0.1,0.5,2.5,0.9,3.9c0.1,0.5,0.2,1.1,0.4,1.6c4.9,8.1,10.1,15.9,16.7,22.7c6.7,6.9,12.7,14.5,18.1,22.6
				c0.7,1.1,7.6,17.1,7.6,18.3C279.4,108,279.3,110.2,279.3,112.3"/>
			<path id="Fill-44" class="st0" d="M247.4,536.8c0.2,0.4,0.6,0.9,0.5,1.3c-0.1,0.5-0.5,1-0.9,1.4c-5.9,6.3-11.9,12.5-17.6,18.8
				c-4.8,5.3-9.1,11-11.9,17.7c-1.1,2.5-2.1,5-2.1,7.9c0.1,4.8,0.3,9.7-0.1,14.5c-0.3,3.5,1.5,6.5,1.4,9.9c0,1,1,2,1,3
				c0,1.8,0.4,3.3,1.8,4.5c0.5,0.5,0.5,1.7,0.5,2.6c0,0.2-0.4,0.6-0.7,0.7c-0.3,0.1-0.9,0.1-1.1-0.1c-1-1.3-2.6-2.7-2.6-4.1
				c0-2.1-1.3-3-2.3-4.4c-0.9-1.3,0.6-3.5-1.3-4.7c-0.5-5.7-2.8-11.2-2.4-17c0.6-8,3.1-15.6,7.1-22.6c1.4-2.4,3.7-4.2,5.3-6.5
				c2.9-4,6.2-7.7,9.8-11c4.5-4.2,9.4-8,14.2-11.9C246.4,536.8,246.8,536.9,247.4,536.8"/>
			<path id="Fill-46" class="st0" d="M233,439.3c3.1,0,6.2,0.1,9.3,0c2.6-0.2,5.1-0.9,7.6-1.1c2.7-0.2,5.5,0.4,8.1-0.1
				c6.7-1.4,13.2-3.1,19-7.2c3.6-2.5,7.3-4.9,10.8-7.4c0.4-0.3,1.3,0.1,1.9,0.2c-0.1,0.5,0,1.2-0.3,1.5c-1.7,1.8-3.5,3.6-5.3,5.3
				c-0.9,0.9-1.6,1.6-0.1,2.5c1.4,0.8,1.4,2.3,1.1,3.6c-0.7,3.2-1,6.6-2.6,9.3c-2,3.3-5,6-7.6,9c-0.2,0.3-0.5,0.7-0.9,0.7
				c-0.7,0.1-1.9,0.3-2.2-0.1c-0.5-0.7-0.8-1.9-0.5-2.6c0.8-1.6,2.1-3,3.1-4.5c2.6-4.1,5.7-7.9,6.2-13.1c0-0.6,0.4-1.1,0.6-1.6
				c-0.5,0.1-1.2,0-1.5,0.3c-2.5,2.2-5.8,2.8-8.5,4.8c-1.2,0.9-2.9,1.5-4.5,1.7c-3.4,0.6-6.7,1.6-10.1,2.1
				c-3.6,0.6-7.5,1.2-11.2-0.5c-1.1-0.5-2.6-0.4-3.9-0.4c-6.2,0-12.3,0-18.5-0.1c-0.6,0-1.5-0.5-1.6-0.9c-0.3-1.4,0.8-1.4,1.8-1.4
				C226.4,439.4,229.7,439.3,233,439.3"/>
			<path id="Fill-48" class="st0" d="M300.2,440.7c0,2.1,0.2,4.3,0,6.4c-0.3,3,0.7,5.9-0.8,8.9c-1.3,2.6,0.3,5.7-1.3,8.7
				c-1.1,2.1-0.7,5-1.2,7.5c-1.2,7.2-4,13.7-7,20.3c-0.9,2-2.8,1.3-3.8,2.5c-0.3-0.4-0.7-0.7-1-1.1c-0.1-0.1-0.1-0.4,0-0.6
				c3-3.8,3.7-8.5,4.8-13c2.4-1.7-0.5-5,2-6.7c0.4-3.5,1.1-7,1.2-10.5c0.1-6,2-11.9,1.2-18c2-3.1,1.3-6.6,1.1-9.9
				c-0.5-5.4,1.4-10.4,1.3-15.7c0-0.4,0.6-0.7,1-1.1c0.4,0.4,1.2,0.9,1.3,1.3c0.5,3.5,1,7,1.2,10.5
				C300.4,433.8,300.2,437.2,300.2,440.7"/>
			<path id="Fill-50" class="st0" d="M357.1,691.6c0,1.2,0.2,1.8-0.1,2.3c-0.2,0.4-0.8,0.6-1.3,0.7c-0.3,0-0.8-0.3-0.9-0.5
				c-4.4-13.9-8.8-18.9-17.4-26.3c-3.1-2.7-7.2-5.1-12-4.4c-1.7,0.2-3.5,0.2-5.2,0c-6.2-0.5-12,1.5-17.9,3.1c-2.6,0.7-5.3,1-7.6,2.7
				c-0.5,0.3-1.5,0.1-2.2-0.2c-0.3-0.1-0.5-1.3-0.4-1.4c2.1-1.4,4.1-3.3,6.4-4c3.8-1.2,7.4-2.7,11.3-3.6c2.3-0.6,4.6-1.4,7.1-1.2
				c1.6,0.1,3.5,0.7,4.8-1.1c0.1-0.2,0.9-0.2,1.1,0c2.5,2.9,6,0.5,9.1,1.8c11.8,5,18.9,14.1,23.8,25.3
				C356.7,687,356.7,689.7,357.1,691.6"/>
			<path id="Fill-52" class="st0" d="M134.5,202.4c-0.9,0-2.2,0-2.2,0c-0.2-2.7-2.3-1.7-3.7-2.1c-6-1.9-12.1-0.8-18.1-1.1
				c-2.4-0.1-4.7,0.4-7.1,1.1c-6,1.8-11.8,4.1-17.4,7C79,211,72.2,215.3,66,220.3c-0.5,0.4-1.3,0.7-2,0.8c-0.5,0.1-1.2-0.1-1.5-0.4
				c-0.2-0.3-0.2-1.2,0-1.5c2-2.1,3.8-4.4,6.2-6.1c2.7-1.9,5.4-3.8,8.1-5.7c5.6-3.9,11.5-7.3,18.1-9.4c3.6-1.1,7.2-2.5,10.8-3.2
				c3.9-0.7,8-0.3,12.1-0.3c4.5-0.1,8.6,1.2,12.6,3.3c1.4,0.8,2.3,1.8,3.5,2.7C134.1,200.8,134.2,201.5,134.5,202.4"/>
			<path id="Fill-54" class="st0" d="M262.8,519.4c0.4-1.4,0.8-3.6,1.8-5.5c3.7-6.8,8.7-12.3,15.7-15.9c0.9-0.5,1.7-1.1,2.3-0.1
				c0.2,0.4-0.2,1.4-0.6,1.9c-1.6,1.7-3.3,3.2-4.9,5c-2.1,2.4-4.3,4.7-5.9,7.4c-4.6,7.8-2.6,13.2,2.5,19.5c2.1,2.5,5,4.4,7.8,6.3
				c3.1,2.1,6.4,4,9.7,5.8c1.3,0.7,0.9,1.6,0.8,2.4c-0.1,0.4-1.1,1.2-1.4,1.1c-7.9-3.7-16.3-6.5-22.1-13.6
				C265.3,529.6,263.5,525.2,262.8,519.4"/>
			<path id="Fill-56" class="st0" d="M374.4,521.9c1,9.2-3.2,15.3-9.2,20c-4.2,3.4-13.7,5.3-18.4,0.3c-1-1-2.6-1.5-3.5-2.6
				c-0.4-0.4,0.2-1.7,0.3-2.6c0.7,0.1,1.6,0.1,1.9,0.5c3.8,4.2,8.8,2.5,13.3,2.8c2.4-2,5.6-3.6,7.1-6.2c2.4-4,5-8.3,3.9-13.4
				c-0.7-3.1-1.2-6.4-2.7-9.3c-2-3.6-4.1-7.2-6.1-10.8c-0.3-0.5,0-1.3-0.1-2c0.7,0.2,1.5,0.1,1.9,0.5c5.1,4.5,9,9.6,10.9,16.3
				C374.5,518,373.9,520.4,374.4,521.9"/>
			<path id="Fill-58" class="st0" d="M374.7,432c2.5,0.5,5.2,0.6,7.5,1.7c2.2,1,4.3,0.9,6.5,1.1c5.4,0.3,10.9,0.9,16.3,1.1
				c7.1,0.3,13.7-2,20.4-3.9c2.4-0.7,5.3-1,7-2.6c2-1.9,5.2-1.2,6.6-3.9c0.2-0.5,1.8-0.1,2.6-0.5c1.2-0.5,2-3.3,3.5-1.3
				c1.1,1.5-1.3,2.4-2.2,3.5c-0.8,0.9-2,1.5-3.2,2.1c-6,3.1-11.9,6.7-18.6,8.2c-2.8,0.6-5.5,2-8.5,1.9c-1.3,0-2.4,0.2-3.7,0.7
				c-2,0.8-4.9,1.1-6.7,0.2c-2.6-1.3-5.2-0.7-7.7-1c-1.1-0.1-2.6,0.3-3.3-0.3c-2.9-2.4-6.3-2-9.6-2c-0.6,0-1.5,0.2-1.7,0
				c-2.4-3.2-5.8-2.1-8.9-2.3c-0.4,0-0.7-0.6-1.1-0.9c0.4-0.5,0.8-1.2,1.3-1.3c1.1-0.2,2.3-0.1,3.5-0.1
				C374.7,432.2,374.7,432.1,374.7,432"/>
			<path id="Fill-60" class="st0" d="M77.7,149.7c5.6-1,11.3-1.8,16.8-3.2c5.7-1.5,11.2-3.6,16.4-6.6c2.8-1.6,6.1-2.2,9.1-3.2
				c2-0.7,4.9,0.6,7.3,1.5c2.1,0.7,3.8,2.2,6.2,1.8c0.2,0,0.8,0.8,0.7,1.2c0,0.4-0.7,1.1-0.9,1c-2.5-0.4-5,0.3-7.8-0.8
				c-2.9-1.2-6.5-0.6-9.7,1.2c-5.1,2.9-10.4,5.4-16.2,7.1c-6.1,1.7-12,3.8-18.4,3c-0.7-0.1-1.7,0.2-2.2-0.2
				c-2.7-2.1-5.3-0.6-7.8,0.3c-0.7,0.2-1.2,1-1.9,1.1c-0.8,0.1-2.1,0.6-2.3-0.8c-0.1-0.4,0.7-1,1.1-1.4
				C70.7,148.5,74.2,149.3,77.7,149.7"/>
			<path id="Fill-62" class="st0" d="M410.3,674.7c0.2-1.3,0.2-2.4,0.6-3c4.4-6.1,7.8-12.7,12.6-18.6c4.7-5.7,8.5-12.1,13.3-17.6
				c4.8-5.5,8.7-11.9,15.4-15.6c0.3-0.2,0.1-1.2,0.5-1.5c0.3-0.3,1.2-0.4,1.5-0.1c0.3,0.3,0.6,1.1,0.4,1.5c-0.8,1.4-1.7,2.8-2.8,4
				c-5.4,5.9-10.2,12.3-15.2,18.6c-8.2,10.6-16.3,21.3-23.8,32.4c-0.3,0.5-0.9,0.8-1.4,1.3C411,675.6,410.6,675.1,410.3,674.7"/>
			<path id="Fill-64" class="st0" d="M367.7,386c-0.1,0-1-0.2-1.1-0.4c-0.1-0.6,0-1.7,0.4-1.9c2.2-1.1,0.9-4,2.8-5.3
				c0.2-0.1,0.2-0.9,0-1.1c-3.1-3.6,0.1-4.8,2.3-6.4c0.7-0.5,1.6-1,2.1-1.7c0.2-0.3-0.2-1.6-0.6-1.7c-0.9-0.3-1.9,0-2.9-0.1
				c-1.1-0.1-1.4-1.2-0.7-2c0.6-0.7,1.2-1.7,2.1-2c2.6-0.7,2.8-1.7,1.2-3.8c-0.4-0.5,0.2-2.4,0.9-2.9c1.6-1.1,3.3-2.6,5.5-2
				c1,0.3,2.2,0.9,2.7,1.7c0.7,1.3-0.8,2-1.6,2.7c-0.6,0.5-2.8-0.2-0.9,1.7c1.4,1.4-2.5,2.7-0.3,4.4c2,1.6-0.8,2.5-0.9,3.9
				c0,0.9-0.9,1.7,0.3,2.5c1.2,0.7,1.5,2.1,1,3c-2.4,4.3-4.5,8.9-9.4,11c-0.3,0.1-0.6,0.4-1,0.4C369.3,386,368.7,386,367.7,386"/>
			<path id="Fill-66" class="st0" d="M415.1,374.5c-2.4-0.8-5-1.5-7.5-2.5c-1.5-0.6-2.8-2.1-4.3-2.1c-1.8-0.1-2-1.1-2.5-2.2
				c-1.2-2.4-1.2-2.5,1.3-2.6c0.8,0,1.6-0.1,2.3,0c1.9,0.2,2.8-0.1,2.7-2.4c-0.1-2.3,0.8-2.8,3.1-1.9c2.5,0.9,5,2,7.5,2.8
				c1,0.3,2.2,0.4,3.3,0.4c1.2,0,1.1-0.5,0.4-1.3c-1.2-1.3-0.1-2,0.7-2.8c0.8-0.9,1.5-0.7,2.4,0.1c0.7,0.6,1.7,0.7,2.3,1.3
				c1.6,1.3,1.7,3.1,0,4.3c-1.8,1.2-3.7,2.3-5.7,3c-0.8,0.3-2-0.6-3-0.9c-0.9-0.3-1.9-1-2.8-0.9c-1,0.1-1.9,1-2.8,1.6
				c-0.3,0.2-0.6,0.5-0.8,0.8c0.4,0.2,0.8,0.7,1.2,0.7c3.5,0.1,6.9,0,10.4,0.1c0.3,0,0.8,0.6,1,1c0.1,0.2-0.1,0.9-0.3,1
				C421.2,372.7,418.3,373.5,415.1,374.5"/>
			<path id="Fill-68" class="st0" d="M320.2,546.1c-2.9,0.7-5.4-1.6-8.2-2.8c-1-0.4-1.8-1.6-1.3-2.9c0.2-0.5,0.9-0.9,1.3-1.3
				c1.4,1.8,3.6,0.6,5.2,1.4c4,2.1,7.1,0.6,9.9-2.2c2.7-2.7,5.2-5.4,8.5-7.4c4.6-2.8,9.3-5.4,15-4.5c0.8,0.1,1.7,0.7,2.4,1.2
				c0.4,0.3,0.6,1,0.5,1.5c-0.1,0.3-0.8,0.8-1.2,0.8c-5.9-0.2-10.5,2.9-14.8,6.3c-2.9,2.3-5.7,4.9-8.6,7.4
				C326.6,545.5,323.8,546.2,320.2,546.1"/>
			<path id="Fill-70" class="st0" d="M519.2,263c-9.7,0.1-17.8-3.8-24.5-10.5c-2.8-2.8-4.5-6.5-5.2-10.5c-0.1-0.6,0.3-1.4,0.5-2.1
				c0.7,0.2,1.5,0.3,1.9,0.7c1,1,2.6,1.8,2.2,3.7c-0.1,0.3,0.1,0.8,0.3,1c6.5,7.1,13.6,13.2,24.1,13.1c3.5-0.1,6.9,0,10.4,0
				c0.7,0,1.4-0.2,2.2-0.4c0.4-0.1,0.8-0.2,1.2-0.3c-0.1,0.5,0.1,1.3-0.2,1.5c-2.3,1.8-4.7,3.5-7.7,3.8
				C522.7,263.1,521,263,519.2,263"/>
			<path id="Fill-72" class="st0" d="M429.4,170.7c-0.6-0.7-1.2-1.1-1.4-1.7c-0.1-0.3,0.4-0.9,0.8-1.1c5.6-2.8,10.2-6.8,14.5-11.3
				c2.6-2.7,4.4-5.7,5.5-9.3c2-6.2,5.2-11.8,10.4-16c0.5-0.4,1.3-0.2,2-0.3c-0.1,0.7,0.1,1.4-0.2,2c-1.1,2.1-2.7,3.9-3.6,6.1
				c-1.4,3.5-4.5,6.3-4,10.5c-2.8,5.7-6,11.1-11.4,14.8c-2.8,1.9-6,3.2-9,4.8C432,169.6,430.8,170,429.4,170.7"/>
			<path id="Fill-74" class="st0" d="M436.9,363.9c0.6,0.2,2.4,0.6,4.1,1.2c1.3,0.5,1.1,1.4-0.2,2.3c-0.6,0.4-1.3,0.7-1.8,1.1
				c-0.2,0.2-0.5,0.6-0.4,0.8c0.2,0.9,5.1,4.1,5.8,3.8c0.4-0.1,0.7-0.7,0.9-1.2c0.4-1,1.1-2,1.1-3c0-1.9,1.1-1.8,2.2-1.6
				c1.2,0.3,2.4,0.8,3.4,1.5c2.1,1.4,1.9,2.5-0.4,4.3c-0.9,0.7-1.5,1.8-2.5,2.4c-1.3,0.9-3,2.3-4.2,2c-2-0.5-4.4-0.3-6-2.1
				c-0.3-0.3-0.6-0.5-0.8-0.8c-0.9-1.2-1.8-1.8-2.9-0.2c-0.3,0.4-0.8,0.7-1.3,1c-1.6,0.8-3.1,1.6-4.8,0.1c-0.8-0.7-2-0.8-2.9-1.2
				c-0.9-0.5-0.8-1.8,0.1-2.3c0.3-0.2,0.8,0,1.1-0.1c1.3-0.5,3.1-0.7,3.8-1.7c0.7-0.9,0.1-2.6,0.2-3.9
				C431.7,364.5,432.8,363.9,436.9,363.9"/>
			<path id="Fill-76" class="st0" d="M515.5,319.3c-0.7,0.7-1,1.3-1.6,1.6c-0.3,0.1-1-0.3-1.3-0.7c-2.4-3-4.6-6.3-7.2-9.2
				c-2.9-3.2-5.5-6.5-7.7-10.2c-1.9-3.1-3.4-6.3-4.8-9.6c-0.4-0.8-0.4-2.2,0-2.8c1.4-1.9,1-3.9,1.1-5.9c0-0.4,0.7-0.9,1.1-0.9
				c0.4,0,1.1,0.4,1.2,0.8c0.4,1.8-0.8,3.9,1.1,5.4c-0.3,5.2,3.2,8.8,5.8,12.7c3,4.6,6.6,8.9,9.7,13.4
				C514.1,315.4,514.6,317.3,515.5,319.3"/>
			<path id="Fill-78" class="st0" d="M176.4,599.4c0.8,0.2,1.3,0.1,1.5,0.3c0.7,0.6,1.5,1.3,2,2c3.7,5.4,7.4,10.8,11.1,16.2
				c1.7,2.4,3.4,4.8,5.2,7.1c2.2,2.8,4.6,5.4,6.9,8.1c0.4,0.5,0.6,1.3,0.6,2c0,0.5-0.2,1.2-0.6,1.4c-0.4,0.2-1.2,0-1.5-0.4
				c-4.7-4.4-9.2-9-13-14.3c-2.3-3.2-4.2-6.9-6.7-9.9c-2.5-3-2.9-7.1-6-9.7C175.7,602,176.3,600.4,176.4,599.4"/>
			<path id="Fill-80" class="st0" d="M422.2,596.5c-0.5,0.5-1.1,1.6-1.9,1.7c-0.7,0.1-1.9-0.5-2.3-1.2c-0.5-0.9-0.8-2.2-0.5-3.2
				c0.7-2.8-1.4-5-1.2-7.7c-3.9-6.1-5.9-13.4-11.4-18.5c-1.7-1.6-3.1-3.7-4.5-5.7c-0.3-0.4-0.4-1.2-0.1-1.5c0.3-0.3,1-0.5,1.5-0.5
				c0.7,0.1,1.5,0.3,2,0.8c2,1.8,4.2,3.6,5.7,5.8c2.2,3.1,5,5.8,6.3,9.6c0.5,1.3,1.9,2.3,2.3,3.7c0.7,2.2,2,4.3,1.8,6.8
				c-0.2,3-0.4,6,1.9,8.5C422,595.4,422,595.8,422.2,596.5"/>
			<path id="Fill-82" class="st0" d="M396.4,370.8c0.3,3.1-2.6,4.9-5.6,3.6c-1.4-0.6-2.7-2.3-4.3-0.1c-0.3,0.5-1.9,0.2-2.8,0
				c-0.4-0.1-0.9-0.6-1-1c0-0.4,0.4-1,0.7-1.3c1.5-1.3,1.5-1.2,0.1-2.3c-1.2-0.9-1.2-1.5,0.1-2.3c0.6-0.4,1.3-0.7,1.8-1.1
				c0.2-0.2,0.3-0.5,0.5-0.8c-0.3-0.1-0.7-0.4-1-0.4c-0.6-0.1-1.3,0.2-1.7-0.1c-0.4-0.2-0.7-1.2-0.6-1.4c1.2-1.4,2-3,4.3-3.3
				c2.9-0.4,5.6-0.7,7.5,2.1c0.3,0.4,0.8,0.9,0.9,1.4C395.8,366.1,396.1,368.4,396.4,370.8"/>
			<path id="Fill-84" class="st0" d="M213.5,445.3c-0.6,0.4-1,1-1.3,1c-1.5-0.2-2.4,0.6-3.5,1.5c-1.6,1.5-3.5,2.7-5.2,4.1
				c-2.5,2-4.9,4.1-7.3,6.1c-5.3,4.5-10.5,9-15.8,13.4c-0.4,0.3-1.3,0-1.9-0.1c0.1-0.5-0.1-1.2,0.2-1.5c1.6-1.7,3.3-3.3,4.9-4.9
				c1.8-1.9,3.4-4,5.3-5.9c1.8-1.8,3.8-3.4,5.7-5.1c4.1-3.7,8.7-6.5,13.6-9.1c1.5-0.8,2.8-0.7,4.3-0.8
				C212.6,444,213,444.7,213.5,445.3"/>
			<path id="Fill-86" class="st0" d="M357.1,430.6c0-1.2-0.1-1.6,0-1.9c0.2-0.4,0.7-0.8,1.1-0.9c0.2-0.1,0.8,0.1,1,0.3
				c3.7,5.2,7.1,10.7,11.2,15.6c3.2,3.9,6.9,7.4,11.6,9.6c0.4,0.2,0.7,1,0.6,1.4c-0.1,0.4-0.7,0.7-1.1,0.9c-2,0.6-3.8-0.5-5.2-1.3
				c-6.4-4-11.3-9.8-15.6-17.7c-0.7-1.3-1.6-2.4-2.4-3.7C357.7,432,357.3,431,357.1,430.6"/>
			<path id="Fill-88" class="st0" d="M537.2,375.7c-6.8-1.4-13.3-2.8-19.2-6.1c-0.9-0.5-1.4-2.2-2.8-2.7c-0.3-0.1,0-1.7,0-2.6
				c0.7,0,1.4-0.1,2,0.2c3.5,1.7,7.1,3.3,11,4.3c1.6,0.4,3.2,0.7,4.8,1c1.4,0.2,2.8,0.9,4.2,1.1c2.3,0.4,4.7,1.7,6.9-0.5
				c0.2-0.2,1.1,0.1,1.6,0.4c0.2,0.2,0.3,0.9,0.2,1.2c-0.7,1.1-0.5,2.8-2.9,2.5C541,374.3,539,375.3,537.2,375.7"/>
			<path id="Fill-90" class="st0" d="M525.6,416.1c0.4,0,0.8-0.1,1.1,0c0.4,0.2,0.8,0.6,1,1c0.1,0.2-0.1,0.9-0.3,1
				c-3.9,1.6-6,5.2-8.9,7.8c-2.9,2.6-4.9,5.9-7.1,9.2c-0.9,1.4-2.9,2-4.5,2.9c-0.2,0.1-0.7-0.2-1-0.3c0.1-0.3,0.3-0.5,0.4-0.8
				c1-2.3,1.8-4.7,2.9-6.9c2.5-5,6.6-8.7,10.7-12.3c1.4-1.2,3.6-1.4,5.5-2.1C525.5,415.8,525.5,416,525.6,416.1"/>
			<path id="Fill-92" class="st0" d="M306.9,572.1c0.5-1.4,1-2.7,1.5-4c1.3-3.5,4.4-5.8,6.2-9c1-1.6,2.6-1.4,4.1-1.3
				c0.5,0,1.2,0.4,1.3,0.7c0.1,0.4-0.2,1.1-0.5,1.5c-0.4,0.6-1.1,1.1-1.6,1.7c-4.2,4.3-5.7,9.5-4.8,15.3c0.2,1.5,1.4,2.9,2,4.4
				c0.2,0.5,0.3,1.2,0.1,1.5c-0.3,0.3-1,0.4-1.5,0.4c-0.5,0-1.3,0-1.5-0.4C309.7,579.6,308,576.1,306.9,572.1"/>
			<path id="Fill-94" class="st0" d="M186.5,177.2c-0.3,1.9-0.7,4.7-1.2,7.4c0,0.2-0.7,0.6-0.9,0.5c-0.5-0.3-1.3-0.7-1.4-1.2
				c-0.6-3.4-1.7-6.7-2.2-10.1c-0.7-4.5-2.5-8.2-4.5-12.1c-0.3-0.6-0.4-1.4-0.9-2c-1-1.2-1.2-2.5,0-3.4c0.3-0.2,2.1,1.1,2.8,2
				c1.5,1.8,2.7,3.9,4,5.9C184.6,167.5,186.5,173,186.5,177.2"/>
			<path id="Fill-96" class="st0" d="M528,294.3c3.6-0.4,7.7,0.8,11.7-1.1c1.3-0.6,3-0.2,4.6,0c0.3,0,0.7,0.7,0.9,1.1
				c0.1,0.2-0.2,0.9-0.4,0.9c-3.9,1.3-7.2,4.6-11.7,3.7c-0.7-0.1-1.8-0.3-2.3,0c-3.5,3-6.6-0.7-9.8-0.6c-0.8,0-1.7-0.6-2.3-1.2
				c-0.6-0.6-0.9-1.5-1.3-2.3c0.7-0.2,1.4-0.5,2.1-0.6C522.1,294.2,524.8,294.3,528,294.3"/>
			<path id="Fill-98" class="st0" d="M400.1,579.7c0.4,0.1,0.7,0.2,0.7,0.2c-0.2,2.5,2.2,3.8,2.7,5.8c0.6,2.5,0.8,5.1,1.2,7.6
				c0.4,2.3,0.7,4.7,1.2,7c0.4,2.2-0.6,4.4,0.8,6.6c0.6,1-0.7,3.3-1.2,5c-0.1,0.2-0.7,0.3-1,0.2c-0.3-0.1-0.6-0.3-0.9-0.5
				c1.3-2-3.2-4,0-6c0.1-0.1,0.1-0.8-0.1-1.1c-1.7-2.5-1.7-5.5-2.4-8.3c-0.7-2.8-0.3-5.7-1.1-8.2c-0.9-2.6-1-5.1-0.9-7.7
				C399,580.2,399.8,579.9,400.1,579.7"/>
			<path id="Fill-100" class="st0" d="M199.3,438.1c-0.2,0.4-0.6,1.2-0.8,1.2c-3.8-0.9-5.8,2.8-8.9,3.6c-3,0.7-5.6,2.2-8.1,4.2
				c-2.4,1.9-5.3,3-7.9,4.6c-0.9,0.6-1.8,0.9-2.2-0.2c-0.3-0.7-0.1-2.2,0.5-2.6c3.4-2.4,6.9-4.7,10.3-7c0.9-0.6,1.9-1.1,2.8-1.6
				c4.2-2.5,8.8-3.4,13.6-3.1C198.9,437.1,199,437.7,199.3,438.1"/>
			<path id="Fill-102" class="st0" d="M298,536.8c-0.3-0.2-1.5-0.7-2.3-1.6c-2.8-3.2-6.4-4.2-10.4-4.2c-1.1,0-2.9,0.2-3.2-0.3
				c-0.7-1.3-3.3-0.1-2.7-2.2c0.2-0.8,1.5-1.4,2.4-1.7c6.7-2.5,15.6,1.1,18.9,7.6C301.8,536.5,301.5,536.9,298,536.8"/>
			<path id="Fill-104" class="st0" d="M353.5,445.7c0.4-2.7,0.9-5.4,1.4-8.1c0-0.2,0.6-0.6,0.9-0.5c0.5,0.1,1.3,0.4,1.3,0.6
				c0,3.7,1.9,7.2,1.3,11c-0.5,3.2,1.5,5.9,2.5,8.7c0.3,0.9,3.2,0.3,1.8,2.3c-0.8,1.2-4,0.5-5-0.8c-0.1-0.1-0.3-0.2-0.4-0.4
				C355.7,454.4,352.9,450.5,353.5,445.7"/>
			<path id="Fill-106" class="st0" d="M451.1,432.3c0.6,0.1,1.5,0,2.1,0.4c5.9,3.6,11.7,7.4,14.9,13.8c0.3,0.5,0.1,1.3,0.1,2
				c-0.7-0.1-1.5-0.1-2-0.4c-3.4-2.9-6.8-6-10.2-9c-1.8-1.6-3.8-3-5.6-4.6c-0.3-0.3-0.4-1-0.3-1.5
				C450.1,432.7,450.6,432.6,451.1,432.3"/>
			<path id="Fill-108" class="st0" d="M444.8,444c4,1,9.7,0.1,13.8,4.5c0.4,0.4,1.7-0.2,2.1,0.2c0.5,0.5,0.8,1.6,0.8,2.4
				c0,0.4-0.9,0.8-1.5,1c-0.3,0.1-0.9,0.2-1.1,0c-3.9-2.7-8.5-2.9-13-3.4c-1.8-0.2-2.3-1.8-3.6-2.4c-0.9-0.4-2.6,0.8-2.7-1.1
				c0-2.3,2-0.9,3-1.3C443,443.9,443.4,444,444.8,444"/>
			<path id="Fill-110" class="st0" d="M399.8,360.4c-1.7-0.3-4.7-0.3-7.1-1.3c-2.1-0.9-3.6-1.7-5.7-0.3c-0.2,0.2-1.3-0.4-1.5-0.9
				c-0.3-0.5-0.3-1.4-0.1-1.9c0.5-0.9,5.3-2.7,6.4-2.6c1.4,0.1,11.1,3.9,12.5,4.9c0.2,0.2,0.5,0.7,0.4,1c-0.2,0.4-0.6,1-0.9,1.1
				C402.8,360.5,401.8,360.4,399.8,360.4"/>
			<path id="Fill-112" class="st0" d="M457,379.8c0,1.3-2.3,3.2,1,2.7c0.6-0.1,1.2-0.1,1.7,0c3.3,0.9,4.1,4.1,1.7,6.6
				c-0.2,0.2-0.6,0.3-1,0.4c-2.3,0.4-5.9-1.9-5.6-4c0.3-2.6-1.8-2.8-2.9-3.9c-0.5-0.5-2.2,0-1.8-1.4c0.3-1.3,1.2-2.5,2.8-2.2
				c1.2,0.2,2.4,0.7,3.5,1.2C456.7,379.2,456.9,379.7,457,379.8"/>
			<path id="Fill-114" class="st0" d="M468.9,381.9c-0.4,0.7-0.7,1.4-1.2,1.7c-0.3,0.2-1.1-0.2-1.4-0.5c-1.1-1.1-2.1-1.8-3.9-1.8
				c-3.4,0-5.4-2.2-6.5-5.2c-0.1-0.4,0.5-1.4,0.9-1.6c0.9-0.3,2.5-0.4,2.8,0c1.9,3.1,6.3,1.2,8.1,4.3
				C468.2,379.6,468.5,380.7,468.9,381.9"/>
			<path id="Fill-116" class="st0" d="M416.8,360.8c-2.1-0.8-4.5-1.5-6.7-2.6c-1.3-0.6-1-1.7,0.2-2.4c3.3-1.8,5-1.5,8.1,1.6
				c0.6,0.6,0.9,1.5,1.3,2.3C419,360,418.1,360.3,416.8,360.8"/>
			<path id="Fill-118" class="st0" d="M196.6,353.5c-0.8,0-1.5-0.1-2.3,0c-2,0.3-2-0.9-2-2.4c0-1.6,0.2-2.6,2.1-2.3
				c0.9,0.1,1.9,0,2.9,0c1.1,0,3.2,2.3,3.2,3.5c0,0.4-0.6,1-0.9,1C198.5,353.6,197.5,353.5,196.6,353.5"/>
			<path id="Fill-120" class="st0" d="M479.6,251.3c-0.2-0.2-0.4-0.5-0.5-0.7c0.2-0.1,0.6-0.3,0.7-0.2c0.2,0.2,0.2,0.6,0.4,0.9
				H479.6"/>
			<path id="Fill-122" class="st0" d="M401.2,660.3c-0.2,0.2-0.5,0.4-0.7,0.5c-0.1-0.2-0.3-0.6-0.2-0.7c0.2-0.2,0.6-0.2,0.9-0.4
				V660.3"/>
			<path id="Fill-124" class="st0" d="M373.3,77.4c0.5,4.9-0.3,9.8-1.2,14.6c-0.2,1.2-0.7,2.5-1.3,3.5c-2.8,4.4-5,9.2-8.4,13.4
				c-1.8,2.2-3,5.3-3,8.6c0.1,3.7-0.2,7.4,0.1,11c0.6,6.8-2.5,12.4-5.8,17.9c-0.4,0.6-1,1.2-1.2,1.8c-0.3,1,0.4,2.7-1.5,2.3
				c-1.6-0.4-0.7-1.9-0.8-2.9c-0.2-1.4,0.1-2.5,1.2-3.6c1.7-1.7,1.9-4.2,3.3-6.2c0.8-1.2,0.1-3.4,0.1-5.1c0-3.1,0.2-6.2,0-9.3
				c-0.6-7.9,2.3-14.6,6.8-21c2.3-3.2,4.1-6.8,5.7-10.4c1-2.1-0.4-4.9,1.4-6.9V68.2c-2.4-2.8-0.4-6.4-2.2-9.5
				c-1.6-2.7-1.9-6.1-3-9.2c-1-2.8-2.1-5.5-1.8-8.5c0.1-1.5-0.1-2.8-1.3-4.1c-1.7-1.8-1.3-5.7,0.2-7.8c0.2-0.3,0.6-0.5,0.8-0.8
				c0.6-0.9,0.4-3.2,2.3-1.7c1.3,1-0.2,2-1,2.7c-1.6,1.4-1.5,3.8-0.6,4.6c2.2,1.8,1.8,4,2,6.2c0.2,2.1,2.5,3.6,2.3,6
				c-0.1,0.7,0.2,1.5,0.5,2.1c2.9,5.5,5.2,11.2,5.3,17.5C374.4,69.4,372.9,73.5,373.3,77.4"/>
			<path id="Fill-126" class="st0" d="M388.6,30.9c0.3,0.2,0.9,0.3,0.9,0.5c0.1,0.5-0.1,1.5-0.2,1.5c-2.2,0.2-2,1.7-2,3.2
				c0,7.5-0.2,15.1,0.1,22.6c0.2,3.6,0.6,7.3,1.9,10.8c0.1,0.2,0.3,0.3,0.3,0.5c-0.6,3.8,0.9,7.4,1.2,11.1c0.5,7.1-1.6,13.8-4,20.4
				c-1.8,5-3.8,10.1-6.6,14.6c-4.2,6.8-6.3,14.4-9.1,21.8c-1.2,3.3-4.1,5.6-5.2,8.9c-0.1,0.2-0.7,0.2-1.1,0.1
				c-0.3-0.1-0.7-0.4-0.7-0.7c-0.1-0.7-0.3-1.8,0.1-2.2c3.8-4.6,4.5-10.2,5.7-15.6c0.5-2.4,1.8-4.7,2.9-6.9
				c3.1-6.6,6.4-13.2,9.3-19.9c1.3-3.1,2.7-6.6,2.5-9.8c-0.1-2.3,2.2-3.8,1-6.3c-0.9-1.9-0.6-4.4-0.7-6.7c-0.1-2.3,0.8-5-0.2-6.9
				c-2.2-4.2-0.5-8.7-1.9-13.1c-1.3-4.2-0.2-9.2-0.3-13.8c0-1.7,0.1-3.4,1.2-4.7c1.3-1.5,1-3.1,1.1-4.8
				C385.1,33.3,386.8,31.3,388.6,30.9"/>
		</g>
	</g>
</g>
</svg>
